<svg width="52" height="52" viewBox="0 0 52 52" fill="none" xmlns="http://www.w3.org/2000/svg">
<path d="M19.6472 25.7559H18.038V20.5719H16.4072V19.4163H16.7312C17.4116 19.4163 17.8328 19.1679 18.1784 18.5199H19.6472V25.7559ZM23.6859 25.8639C21.5043 25.8639 20.6943 24.9783 20.6943 23.5419V23.3043H22.2819V23.5203C22.2819 24.1791 22.5303 24.3735 23.6859 24.3735C24.5715 24.3735 25.0251 24.2223 25.0251 23.5527C25.0251 22.8399 24.7227 22.6995 24.0207 22.6995H22.4979V21.3819H23.8479C24.4959 21.3819 24.7443 21.2523 24.7443 20.6691C24.7443 20.0967 24.3339 19.9023 23.5779 19.9023C22.6167 19.9023 22.2819 20.0967 22.2819 20.7555V20.8527H20.6943V20.7339C20.6943 19.2975 21.7635 18.4119 23.6211 18.4119C25.3275 18.4119 26.3643 19.0707 26.3643 20.3667C26.3643 21.2199 25.9539 21.8031 25.0035 21.9111V21.9759C26.0403 22.0731 26.6667 22.6995 26.6667 23.7687C26.6667 25.1727 25.5111 25.8639 23.6859 25.8639ZM29.1296 21.9975C27.9632 21.9975 27.2288 21.3171 27.2288 20.2047C27.2288 19.0923 27.9632 18.4119 29.1296 18.4119C30.2852 18.4119 31.0196 19.0923 31.0196 20.2047C31.0196 21.3171 30.2852 21.9975 29.1296 21.9975ZM29.4428 25.7559H27.9632L33.1796 18.5199H34.6484L29.4428 25.7559ZM29.1296 20.8959C29.6372 20.8959 29.81 20.7663 29.81 20.2047C29.81 19.6431 29.6372 19.5135 29.1296 19.5135C28.622 19.5135 28.4492 19.6431 28.4492 20.2047C28.4492 20.7663 28.622 20.8959 29.1296 20.8959ZM33.4928 25.8639C32.3264 25.8639 31.592 25.1835 31.592 24.0711C31.592 22.9587 32.3264 22.2783 33.4928 22.2783C34.6592 22.2783 35.3828 22.9587 35.3828 24.0711C35.3828 25.1835 34.6592 25.8639 33.4928 25.8639ZM33.4928 24.7623C34.0004 24.7623 34.1732 24.6327 34.1732 24.0711C34.1732 23.5095 34.0004 23.3799 33.4928 23.3799C32.9852 23.3799 32.8124 23.5095 32.8124 24.0711C32.8124 24.6327 32.9852 24.7623 33.4928 24.7623Z" fill="black"/>
<path d="M17.0013 34.4654C16.581 34.4654 16.217 34.3744 15.9093 34.1924C15.606 34.0061 15.372 33.7461 15.2073 33.4124C15.047 33.0744 14.9668 32.6779 14.9668 32.2229C14.9668 31.7679 15.047 31.3736 15.2073 31.0399C15.372 30.7019 15.606 30.4419 15.9093 30.2599C16.217 30.0736 16.581 29.9804 17.0013 29.9804C17.3956 29.9804 17.7315 30.0497 18.0088 30.1884C18.2861 30.3271 18.5006 30.5221 18.6523 30.7734C18.804 31.0247 18.8798 31.3259 18.8798 31.6769V31.7159H18.1388V31.6769C18.1388 31.3216 18.0478 31.0637 17.8658 30.9034C17.6881 30.7387 17.3935 30.6564 16.9818 30.6564C16.6828 30.6564 16.4401 30.7084 16.2538 30.8124C16.0675 30.9164 15.931 31.0832 15.8443 31.3129C15.7576 31.5426 15.7143 31.8459 15.7143 32.2229C15.7143 32.5956 15.7576 32.8989 15.8443 33.1329C15.931 33.3626 16.0675 33.5294 16.2538 33.6334C16.4401 33.7331 16.6828 33.7829 16.9818 33.7829C17.3935 33.7829 17.6881 33.7027 17.8658 33.5424C18.0478 33.3821 18.1388 33.1242 18.1388 32.7689V32.7299H18.8798V32.7689C18.8798 33.1156 18.804 33.4167 18.6523 33.6724C18.5006 33.9237 18.2861 34.1187 18.0088 34.2574C17.7315 34.3961 17.3956 34.4654 17.0013 34.4654ZM22.5645 34.4004H21.8625V32.5219C21.8625 32.2359 21.8062 32.0301 21.6935 31.9044C21.5852 31.7744 21.3837 31.7094 21.089 31.7094C20.8073 31.7094 20.5972 31.7722 20.4585 31.8979C20.3242 32.0192 20.257 32.2337 20.257 32.5414H20.1335L20.127 31.7094H20.283C20.335 31.6097 20.4065 31.5144 20.4975 31.4234C20.5928 31.3281 20.712 31.2522 20.855 31.1959C21.0023 31.1352 21.1713 31.1049 21.362 31.1049C21.648 31.1049 21.8777 31.1612 22.051 31.2739C22.2287 31.3822 22.3587 31.5317 22.441 31.7224C22.5233 31.9131 22.5645 32.1276 22.5645 32.3659V34.4004ZM20.257 34.4004H19.555V30.0454H20.257V34.4004ZM26.0582 34.4004H25.4082V33.7634L25.3887 33.5879V32.3464C25.3887 32.1037 25.3302 31.9391 25.2132 31.8524C25.1006 31.7657 24.9164 31.7224 24.6607 31.7224C24.4051 31.7224 24.2209 31.7679 24.1082 31.8589C23.9999 31.9499 23.9457 32.1016 23.9457 32.3139V32.4114H23.2697V32.3464C23.2697 32.1037 23.3282 31.8892 23.4452 31.7029C23.5666 31.5166 23.7334 31.3714 23.9457 31.2674C24.1624 31.1591 24.4137 31.1049 24.6997 31.1049C25.0031 31.1049 25.2544 31.1612 25.4537 31.2739C25.6531 31.3866 25.8026 31.5426 25.9022 31.7419C26.0062 31.9369 26.0582 32.1687 26.0582 32.4374V34.4004ZM24.2057 34.4654C23.9154 34.4654 23.6706 34.3917 23.4712 34.2444C23.2762 34.0927 23.1787 33.8782 23.1787 33.6009C23.1787 33.4189 23.2199 33.2672 23.3022 33.1459C23.3889 33.0246 23.5124 32.9249 23.6727 32.8469C23.8331 32.7689 24.0281 32.7147 24.2577 32.6844L25.4537 32.5154V33.0094L24.3617 33.1719C24.1754 33.1979 24.0454 33.2369 23.9717 33.2889C23.8981 33.3409 23.8612 33.4276 23.8612 33.5489C23.8612 33.6746 23.9046 33.7656 23.9912 33.8219C24.0822 33.8782 24.2296 33.9064 24.4332 33.9064C24.5892 33.9064 24.7387 33.8826 24.8817 33.8349C25.0291 33.7829 25.1504 33.6984 25.2457 33.5814C25.3411 33.4601 25.3887 33.2911 25.3887 33.0744L25.4797 33.8999L25.3757 33.8934C25.3151 33.9931 25.2306 34.0862 25.1222 34.1729C25.0182 34.2596 24.8904 34.3311 24.7387 34.3874C24.5871 34.4394 24.4094 34.4654 24.2057 34.4654ZM29.8187 34.4004H29.1167V32.5219C29.1167 32.2359 29.0625 32.0301 28.9542 31.9044C28.8458 31.7744 28.6422 31.7094 28.3432 31.7094C28.1525 31.7094 27.9965 31.7376 27.8752 31.7939C27.7538 31.8459 27.6628 31.9326 27.6022 32.0539C27.5415 32.1709 27.5112 32.3312 27.5112 32.5349H27.3877L27.3292 31.7744H27.4852C27.5328 31.6574 27.6043 31.5491 27.6997 31.4494C27.795 31.3497 27.9163 31.2674 28.0637 31.2024C28.2153 31.1374 28.3952 31.1049 28.6032 31.1049C28.8848 31.1049 29.1145 31.1591 29.2922 31.2674C29.4698 31.3757 29.602 31.5252 29.6887 31.7159C29.7753 31.9066 29.8187 32.1254 29.8187 32.3724V34.4004ZM27.5112 34.4004H26.8092V31.1699H27.4527V32.1384L27.5112 32.1709V34.4004ZM32.0064 34.4719C31.6684 34.4719 31.3824 34.4004 31.1484 34.2574C30.9144 34.1144 30.7345 33.9172 30.6089 33.6659C30.4875 33.4146 30.4269 33.1221 30.4269 32.7884C30.4269 32.4547 30.4897 32.1622 30.6154 31.9109C30.7454 31.6552 30.9295 31.4581 31.1679 31.3194C31.4062 31.1764 31.6944 31.1049 32.0324 31.1049C32.3184 31.1049 32.5697 31.1591 32.7864 31.2674C33.003 31.3757 33.1699 31.5274 33.2869 31.7224C33.4082 31.9174 33.4689 32.1449 33.4689 32.4049V32.4634H32.7734V32.4244C32.7734 32.1861 32.7084 32.0127 32.5784 31.9044C32.4527 31.7917 32.2555 31.7354 31.9869 31.7354C31.6749 31.7354 31.4517 31.8242 31.3174 32.0019C31.1874 32.1752 31.1224 32.4352 31.1224 32.7819C31.1224 33.1329 31.1874 33.3972 31.3174 33.5749C31.4517 33.7482 31.6749 33.8349 31.9869 33.8349C32.2555 33.8349 32.4527 33.7807 32.5784 33.6724C32.7084 33.5597 32.7734 33.3864 32.7734 33.1524V33.1134H33.4689V33.1719C33.4689 33.4232 33.4082 33.6486 33.2869 33.8479C33.1655 34.0429 32.9944 34.1967 32.7734 34.3094C32.5567 34.4177 32.301 34.4719 32.0064 34.4719ZM35.5443 34.4654C35.1933 34.4654 34.9008 34.3961 34.6668 34.2574C34.4328 34.1144 34.2594 33.9172 34.1468 33.6659C34.0341 33.4102 33.9778 33.1156 33.9778 32.7819C33.9778 32.4482 34.0406 32.1557 34.1663 31.9044C34.2963 31.6531 34.4783 31.4581 34.7123 31.3194C34.9463 31.1764 35.2236 31.1049 35.5443 31.1049C35.8346 31.1049 36.0903 31.1612 36.3113 31.2739C36.5366 31.3822 36.7099 31.5404 36.8313 31.7484C36.9569 31.9564 37.0198 32.2077 37.0198 32.5024C37.0198 32.5891 37.0154 32.6736 37.0068 32.7559C37.0024 32.8339 36.9959 32.8989 36.9873 32.9509H34.3093V32.4829H36.4153L36.3438 32.5479C36.3611 32.3486 36.3394 32.1861 36.2788 32.0604C36.2224 31.9347 36.1293 31.8416 35.9993 31.7809C35.8736 31.7202 35.7154 31.6899 35.5248 31.6899C35.1824 31.6899 34.9484 31.7766 34.8228 31.9499C34.6971 32.1189 34.6343 32.3529 34.6343 32.6519V32.8469C34.6343 33.0636 34.6603 33.2477 34.7123 33.3994C34.7686 33.5467 34.8639 33.6572 34.9983 33.7309C35.1326 33.8046 35.3168 33.8414 35.5508 33.8414C35.8238 33.8414 36.0166 33.7981 36.1293 33.7114C36.2419 33.6247 36.2983 33.5099 36.2983 33.3669V33.3149H36.9938V33.3734C36.9938 33.5944 36.9331 33.7872 36.8118 33.9519C36.6904 34.1122 36.5214 34.2379 36.3048 34.3289C36.0924 34.4199 35.8389 34.4654 35.5443 34.4654Z" fill="black"/>
<path d="M25.9994 0.801169C39.7857 0.801169 50.9617 12.0836 50.9617 26.0012C50.9617 39.9187 39.7857 51.2012 25.9994 51.2012C12.2131 51.2012 1.03711 39.9187 1.03711 26.0012C1.03711 12.0836 12.2131 0.80117 25.9994 0.801169ZM25.9994 47.4212C37.7177 47.4212 47.2173 37.8311 47.2173 26.0012C47.2173 14.1712 37.7177 4.58117 25.9994 4.58117C14.281 4.58117 4.78145 14.1712 4.78145 26.0012C4.78145 37.8311 14.281 47.4212 25.9994 47.4212Z" fill="#D7BEAE"/>
<path d="M25.9998 0.801169C29.4424 0.801169 32.8485 1.50653 36.008 2.87375C39.1674 4.24097 42.0132 6.24104 44.3698 8.75058L41.6143 11.3382C39.6112 9.20506 37.1923 7.505 34.5067 6.34286C31.8212 5.18073 28.926 4.58117 25.9998 4.58117L25.9998 0.801169Z" fill="#A86133"/>
</svg>
