<svg width="51" height="51" viewBox="0 0 51 51" fill="none" xmlns="http://www.w3.org/2000/svg">
<path d="M18.8474 24.9551H17.2382V19.7711H15.6074V18.6155H15.9314C16.6118 18.6155 17.033 18.3671 17.3786 17.7191H18.8474V24.9551ZM22.8861 25.0631C20.7045 25.0631 19.8945 24.1775 19.8945 22.7411V22.5035H21.4821V22.7195C21.4821 23.3783 21.7305 23.5727 22.8861 23.5727C23.7717 23.5727 24.2253 23.4215 24.2253 22.7519C24.2253 22.0391 23.9229 21.8987 23.2209 21.8987H21.6981V20.5811H23.0481C23.6961 20.5811 23.9445 20.4515 23.9445 19.8683C23.9445 19.2959 23.5341 19.1015 22.7781 19.1015C21.8169 19.1015 21.4821 19.2959 21.4821 19.9547V20.0519H19.8945V19.9331C19.8945 18.4967 20.9637 17.6111 22.8213 17.6111C24.5277 17.6111 25.5645 18.2699 25.5645 19.5659C25.5645 20.4191 25.1541 21.0023 24.2037 21.1103V21.1751C25.2405 21.2723 25.8669 21.8987 25.8669 22.9679C25.8669 24.3719 24.7113 25.0631 22.8861 25.0631ZM28.3298 21.1967C27.1634 21.1967 26.429 20.5163 26.429 19.4039C26.429 18.2915 27.1634 17.6111 28.3298 17.6111C29.4854 17.6111 30.2198 18.2915 30.2198 19.4039C30.2198 20.5163 29.4854 21.1967 28.3298 21.1967ZM28.643 24.9551H27.1634L32.3798 17.7191H33.8486L28.643 24.9551ZM28.3298 20.0951C28.8374 20.0951 29.0102 19.9655 29.0102 19.4039C29.0102 18.8423 28.8374 18.7127 28.3298 18.7127C27.8222 18.7127 27.6494 18.8423 27.6494 19.4039C27.6494 19.9655 27.8222 20.0951 28.3298 20.0951ZM32.693 25.0631C31.5266 25.0631 30.7922 24.3827 30.7922 23.2703C30.7922 22.1579 31.5266 21.4775 32.693 21.4775C33.8594 21.4775 34.583 22.1579 34.583 23.2703C34.583 24.3827 33.8594 25.0631 32.693 25.0631ZM32.693 23.9615C33.2006 23.9615 33.3734 23.8319 33.3734 23.2703C33.3734 22.7087 33.2006 22.5791 32.693 22.5791C32.1854 22.5791 32.0126 22.7087 32.0126 23.2703C32.0126 23.8319 32.1854 23.9615 32.693 23.9615Z" fill="black"/>
<path d="M18.123 33.6646C17.7026 33.6646 17.3386 33.5736 17.031 33.3916C16.7276 33.2053 16.4936 32.9453 16.329 32.6116C16.1686 32.2736 16.0885 31.8771 16.0885 31.4221C16.0885 30.9671 16.1686 30.5728 16.329 30.2391C16.4936 29.9011 16.7276 29.6411 17.031 29.4591C17.3386 29.2728 17.7026 29.1796 18.123 29.1796C18.5173 29.1796 18.8531 29.2489 19.1305 29.3876C19.4078 29.5263 19.6223 29.7213 19.774 29.9726C19.9256 30.2239 20.0015 30.5251 20.0015 30.8761V30.9151H19.2605V30.8761C19.2605 30.5208 19.1695 30.2629 18.9875 30.1026C18.8098 29.9379 18.5151 29.8556 18.1035 29.8556C17.8045 29.8556 17.5618 29.9076 17.3755 30.0116C17.1891 30.1156 17.0526 30.2824 16.966 30.5121C16.8793 30.7418 16.836 31.0451 16.836 31.4221C16.836 31.7948 16.8793 32.0981 16.966 32.3321C17.0526 32.5618 17.1891 32.7286 17.3755 32.8326C17.5618 32.9323 17.8045 32.9821 18.1035 32.9821C18.5151 32.9821 18.8098 32.9019 18.9875 32.7416C19.1695 32.5813 19.2605 32.3234 19.2605 31.9681V31.9291H20.0015V31.9681C20.0015 32.3148 19.9256 32.6159 19.774 32.8716C19.6223 33.1229 19.4078 33.3179 19.1305 33.4566C18.8531 33.5953 18.5173 33.6646 18.123 33.6646ZM23.6861 33.5996H22.9841V31.7211C22.9841 31.4351 22.9278 31.2293 22.8151 31.1036C22.7068 30.9736 22.5053 30.9086 22.2106 30.9086C21.929 30.9086 21.7188 30.9714 21.5801 31.0971C21.4458 31.2184 21.3786 31.4329 21.3786 31.7406H21.2551L21.2486 30.9086H21.4046C21.4566 30.8089 21.5281 30.7136 21.6191 30.6226C21.7145 30.5273 21.8336 30.4514 21.9766 30.3951C22.124 30.3344 22.293 30.3041 22.4836 30.3041C22.7696 30.3041 22.9993 30.3604 23.1726 30.4731C23.3503 30.5814 23.4803 30.7309 23.5626 30.9216C23.645 31.1123 23.6861 31.3268 23.6861 31.5651V33.5996ZM21.3786 33.5996H20.6766V29.2446H21.3786V33.5996ZM27.1799 33.5996H26.5299V32.9626L26.5104 32.7871V31.5456C26.5104 31.3029 26.4519 31.1383 26.3349 31.0516C26.2222 30.9649 26.038 30.9216 25.7824 30.9216C25.5267 30.9216 25.3425 30.9671 25.2299 31.0581C25.1215 31.1491 25.0674 31.3008 25.0674 31.5131V31.6106H24.3914V31.5456C24.3914 31.3029 24.4499 31.0884 24.5669 30.9021C24.6882 30.7158 24.855 30.5706 25.0674 30.4666C25.284 30.3583 25.5354 30.3041 25.8214 30.3041C26.1247 30.3041 26.376 30.3604 26.5754 30.4731C26.7747 30.5858 26.9242 30.7418 27.0239 30.9411C27.1279 31.1361 27.1799 31.3679 27.1799 31.6366V33.5996ZM25.3274 33.6646C25.037 33.6646 24.7922 33.5909 24.5929 33.4436C24.3979 33.2919 24.3004 33.0774 24.3004 32.8001C24.3004 32.6181 24.3415 32.4664 24.4239 32.3451C24.5105 32.2238 24.634 32.1241 24.7944 32.0461C24.9547 31.9681 25.1497 31.9139 25.3794 31.8836L26.5754 31.7146V32.2086L25.4834 32.3711C25.297 32.3971 25.167 32.4361 25.0934 32.4881C25.0197 32.5401 24.9829 32.6268 24.9829 32.7481C24.9829 32.8738 25.0262 32.9648 25.1129 33.0211C25.2039 33.0774 25.3512 33.1056 25.5549 33.1056C25.7109 33.1056 25.8604 33.0818 26.0034 33.0341C26.1507 32.9821 26.272 32.8976 26.3674 32.7806C26.4627 32.6593 26.5104 32.4903 26.5104 32.2736L26.6014 33.0991L26.4974 33.0926C26.4367 33.1923 26.3522 33.2854 26.2439 33.3721C26.1399 33.4588 26.012 33.5303 25.8604 33.5866C25.7087 33.6386 25.531 33.6646 25.3274 33.6646ZM30.9403 33.5996H30.2383V31.7211C30.2383 31.4351 30.1842 31.2293 30.0758 31.1036C29.9675 30.9736 29.7638 30.9086 29.4648 30.9086C29.2742 30.9086 29.1182 30.9368 28.9968 30.9931C28.8755 31.0451 28.7845 31.1318 28.7238 31.2531C28.6632 31.3701 28.6328 31.5304 28.6328 31.7341H28.5093L28.4508 30.9736H28.6068C28.6545 30.8566 28.726 30.7483 28.8213 30.6486C28.9167 30.5489 29.038 30.4666 29.1853 30.4016C29.337 30.3366 29.5168 30.3041 29.7248 30.3041C30.0065 30.3041 30.2362 30.3583 30.4138 30.4666C30.5915 30.5749 30.7237 30.7244 30.8103 30.9151C30.897 31.1058 30.9403 31.3246 30.9403 31.5716V33.5996ZM28.6328 33.5996H27.9308V30.3691H28.5743V31.3376L28.6328 31.3701V33.5996ZM33.0307 33.6646C32.5583 33.6646 32.2008 33.5714 31.9582 33.3851C31.7155 33.1944 31.5942 32.9019 31.5942 32.5076V32.4946H32.2702V32.6116C32.2702 32.7243 32.2918 32.8174 32.3352 32.8911C32.3828 32.9604 32.4608 33.0124 32.5692 33.0471C32.6818 33.0774 32.84 33.0926 33.0437 33.0926C33.217 33.0926 33.347 33.0796 33.4337 33.0536C33.5247 33.0233 33.5853 32.9821 33.6157 32.9301C33.646 32.8781 33.6612 32.8131 33.6612 32.7351C33.6612 32.6051 33.6157 32.5141 33.5247 32.4621C33.4337 32.4058 33.2712 32.3559 33.0372 32.3126L32.5302 32.2281C32.3395 32.1891 32.1727 32.1349 32.0297 32.0656C31.891 31.9919 31.7827 31.8923 31.7047 31.7666C31.631 31.6366 31.5942 31.4741 31.5942 31.2791C31.5942 30.9888 31.709 30.7548 31.9387 30.5771C32.1683 30.3951 32.4933 30.3041 32.9137 30.3041C33.1693 30.3041 33.3968 30.3453 33.5962 30.4276C33.7955 30.5099 33.9537 30.6334 34.0707 30.7981C34.1877 30.9628 34.2462 31.1686 34.2462 31.4156V31.4741H33.5767V31.3961C33.5767 31.2921 33.5593 31.2033 33.5247 31.1296C33.49 31.0516 33.425 30.9909 33.3297 30.9476C33.2343 30.9043 33.0892 30.8826 32.8942 30.8826C32.6385 30.8826 32.4695 30.9151 32.3872 30.9801C32.3048 31.0451 32.2637 31.1404 32.2637 31.2661C32.2637 31.3918 32.3005 31.4806 32.3742 31.5326C32.4522 31.5803 32.6038 31.6279 32.8292 31.6756L33.3817 31.7796C33.5897 31.8186 33.763 31.8771 33.9017 31.9551C34.0403 32.0331 34.1443 32.1349 34.2137 32.2606C34.2873 32.3863 34.3242 32.5358 34.3242 32.7091C34.3242 33.0124 34.2093 33.2486 33.9797 33.4176C33.7543 33.5823 33.438 33.6646 33.0307 33.6646Z" fill="black"/>
<path d="M25.1996 0.000388008C38.9859 0.000387405 50.1619 11.2828 50.1619 25.2004C50.1619 39.118 38.9859 50.4004 25.1996 50.4004C11.4133 50.4004 0.237304 39.118 0.237304 25.2004C0.237303 11.2828 11.4133 0.000388611 25.1996 0.000388008ZM25.1996 46.6204C36.9179 46.6204 46.4175 37.0303 46.4175 25.2004C46.4175 13.3704 36.9179 3.78039 25.1996 3.78039C13.4812 3.78039 3.98164 13.3704 3.98164 25.2004C3.98164 37.0303 13.4812 46.6204 25.1996 46.6204Z" fill="#D7BEAE"/>
<path d="M25.2 0.000387998C28.6426 0.000387847 32.0487 0.705754 35.2081 2.07297C38.3676 3.44019 41.2134 5.44026 43.57 7.9498L40.8145 10.5374C38.8114 8.40428 36.3925 6.70422 33.7069 5.54208C31.0214 4.37995 28.1262 3.78039 25.2 3.78039L25.2 0.000387998Z" fill="#A86133"/>
</svg>
