<svg width="81" height="64" viewBox="0 0 81 64" fill="none" xmlns="http://www.w3.org/2000/svg">
<path d="M21.448 25.9053H19.8388V20.7213H18.208V19.5657H18.532C19.2124 19.5657 19.6336 19.3173 19.9792 18.6693H21.448V25.9053ZM25.6281 26.0133C23.9217 26.0133 22.8849 25.1061 22.8849 23.7129V23.6481H24.6021V23.7129C24.6021 24.2529 24.9369 24.4689 25.7361 24.4689C26.7945 24.4689 27.0321 24.0477 27.0321 22.9245V22.2981H26.9781C26.6541 22.7733 26.0817 23.1405 25.0017 23.1405C23.4249 23.1405 22.6149 22.3197 22.6149 20.9481C22.6149 19.4901 23.6301 18.5613 25.5633 18.5613C27.8745 18.5613 28.7061 19.7493 28.7061 22.3197C28.7061 24.7821 27.6801 26.0133 25.6281 26.0133ZM25.5525 21.8337C26.5677 21.8337 26.8917 21.5961 26.8917 20.9805C26.8917 20.3541 26.5677 20.1165 25.5525 20.1165C24.5157 20.1165 24.2025 20.3541 24.2025 20.9805C24.2025 21.5961 24.5157 21.8337 25.5525 21.8337ZM31.2257 22.1469C30.0593 22.1469 29.3249 21.4665 29.3249 20.3541C29.3249 19.2417 30.0593 18.5613 31.2257 18.5613C32.3813 18.5613 33.1157 19.2417 33.1157 20.3541C33.1157 21.4665 32.3813 22.1469 31.2257 22.1469ZM31.5389 25.9053H30.0593L35.2757 18.6693H36.7445L31.5389 25.9053ZM31.2257 21.0453C31.7333 21.0453 31.9061 20.9157 31.9061 20.3541C31.9061 19.7925 31.7333 19.6629 31.2257 19.6629C30.7181 19.6629 30.5453 19.7925 30.5453 20.3541C30.5453 20.9157 30.7181 21.0453 31.2257 21.0453ZM35.5889 26.0133C34.4225 26.0133 33.6881 25.3329 33.6881 24.2205C33.6881 23.1081 34.4225 22.4277 35.5889 22.4277C36.7553 22.4277 37.4789 23.1081 37.4789 24.2205C37.4789 25.3329 36.7553 26.0133 35.5889 26.0133ZM35.5889 24.9117C36.0965 24.9117 36.2693 24.7821 36.2693 24.2205C36.2693 23.6589 36.0965 23.5293 35.5889 23.5293C35.0813 23.5293 34.9085 23.6589 34.9085 24.2205C34.9085 24.7821 35.0813 24.9117 35.5889 24.9117Z" fill="black"/>
<path d="M19.9228 34.4146C19.5024 34.4146 19.1384 34.3236 18.8308 34.1416C18.5274 33.9553 18.2934 33.6953 18.1288 33.3616C17.9684 33.0236 17.8883 32.6271 17.8883 32.1721C17.8883 31.7171 17.9684 31.3228 18.1288 30.9891C18.2934 30.6511 18.5274 30.3911 18.8308 30.2091C19.1384 30.0228 19.5024 29.9296 19.9228 29.9296C20.3171 29.9296 20.6529 29.9989 20.9303 30.1376C21.2076 30.2763 21.4221 30.4713 21.5738 30.7226C21.7254 30.9739 21.8013 31.2751 21.8013 31.6261V31.6651H21.0603V31.6261C21.0603 31.2708 20.9693 31.0129 20.7873 30.8526C20.6096 30.6879 20.3149 30.6056 19.9033 30.6056C19.6043 30.6056 19.3616 30.6576 19.1753 30.7616C18.9889 30.8656 18.8524 31.0324 18.7658 31.2621C18.6791 31.4918 18.6358 31.7951 18.6358 32.1721C18.6358 32.5448 18.6791 32.8481 18.7658 33.0821C18.8524 33.3118 18.9889 33.4786 19.1753 33.5826C19.3616 33.6823 19.6043 33.7321 19.9033 33.7321C20.3149 33.7321 20.6096 33.6519 20.7873 33.4916C20.9693 33.3313 21.0603 33.0734 21.0603 32.7181V32.6791H21.8013V32.7181C21.8013 33.0648 21.7254 33.3659 21.5738 33.6216C21.4221 33.8729 21.2076 34.0679 20.9303 34.2066C20.6529 34.3453 20.3171 34.4146 19.9228 34.4146ZM25.4859 34.3496H24.7839V32.4711C24.7839 32.1851 24.7276 31.9793 24.6149 31.8536C24.5066 31.7236 24.3051 31.6586 24.0104 31.6586C23.7288 31.6586 23.5186 31.7214 23.3799 31.8471C23.2456 31.9684 23.1784 32.1829 23.1784 32.4906H23.0549L23.0484 31.6586H23.2044C23.2564 31.5589 23.3279 31.4636 23.4189 31.3726C23.5143 31.2773 23.6334 31.2014 23.7764 31.1451C23.9238 31.0844 24.0928 31.0541 24.2834 31.0541C24.5694 31.0541 24.7991 31.1104 24.9724 31.2231C25.1501 31.3314 25.2801 31.4809 25.3624 31.6716C25.4448 31.8623 25.4859 32.0768 25.4859 32.3151V34.3496ZM23.1784 34.3496H22.4764V29.9946H23.1784V34.3496ZM28.9797 34.3496H28.3297V33.7126L28.3102 33.5371V32.2956C28.3102 32.0529 28.2517 31.8883 28.1347 31.8016C28.022 31.7149 27.8378 31.6716 27.5822 31.6716C27.3265 31.6716 27.1423 31.7171 27.0297 31.8081C26.9213 31.8991 26.8672 32.0508 26.8672 32.2631V32.3606H26.1912V32.2956C26.1912 32.0529 26.2497 31.8384 26.3667 31.6521C26.488 31.4658 26.6548 31.3206 26.8672 31.2166C27.0838 31.1083 27.3352 31.0541 27.6212 31.0541C27.9245 31.0541 28.1758 31.1104 28.3752 31.2231C28.5745 31.3358 28.724 31.4918 28.8237 31.6911C28.9277 31.8861 28.9797 32.1179 28.9797 32.3866V34.3496ZM27.1272 34.4146C26.8368 34.4146 26.592 34.3409 26.3927 34.1936C26.1977 34.0419 26.1002 33.8274 26.1002 33.5501C26.1002 33.3681 26.1413 33.2164 26.2237 33.0951C26.3103 32.9738 26.4338 32.8741 26.5942 32.7961C26.7545 32.7181 26.9495 32.6639 27.1792 32.6336L28.3752 32.4646V32.9586L27.2832 33.1211C27.0968 33.1471 26.9668 33.1861 26.8932 33.2381C26.8195 33.2901 26.7827 33.3768 26.7827 33.4981C26.7827 33.6238 26.826 33.7148 26.9127 33.7711C27.0037 33.8274 27.151 33.8556 27.3547 33.8556C27.5107 33.8556 27.6602 33.8318 27.8032 33.7841C27.9505 33.7321 28.0718 33.6476 28.1672 33.5306C28.2625 33.4093 28.3102 33.2403 28.3102 33.0236L28.4012 33.8491L28.2972 33.8426C28.2365 33.9423 28.152 34.0354 28.0437 34.1221C27.9397 34.2088 27.8118 34.2803 27.6602 34.3366C27.5085 34.3886 27.3308 34.4146 27.1272 34.4146ZM32.7401 34.3496H32.0381V32.4711C32.0381 32.1851 31.984 31.9793 31.8756 31.8536C31.7673 31.7236 31.5636 31.6586 31.2646 31.6586C31.074 31.6586 30.918 31.6868 30.7966 31.7431C30.6753 31.7951 30.5843 31.8818 30.5236 32.0031C30.463 32.1201 30.4326 32.2804 30.4326 32.4841H30.3091L30.2506 31.7236H30.4066C30.4543 31.6066 30.5258 31.4983 30.6211 31.3986C30.7165 31.2989 30.8378 31.2166 30.9851 31.1516C31.1368 31.0866 31.3166 31.0541 31.5246 31.0541C31.8063 31.0541 32.036 31.1083 32.2136 31.2166C32.3913 31.3249 32.5235 31.4744 32.6101 31.6651C32.6968 31.8558 32.7401 32.0746 32.7401 32.3216V34.3496ZM30.4326 34.3496H29.7306V31.1191H30.3741V32.0876L30.4326 32.1201V34.3496ZM34.8305 34.4146C34.3581 34.4146 34.0006 34.3214 33.758 34.1351C33.5153 33.9444 33.394 33.6519 33.394 33.2576V33.2446H34.07V33.3616C34.07 33.4743 34.0916 33.5674 34.135 33.6411C34.1826 33.7104 34.2606 33.7624 34.369 33.7971C34.4816 33.8274 34.6398 33.8426 34.8435 33.8426C35.0168 33.8426 35.1468 33.8296 35.2335 33.8036C35.3245 33.7733 35.3851 33.7321 35.4155 33.6801C35.4458 33.6281 35.461 33.5631 35.461 33.4851C35.461 33.3551 35.4155 33.2641 35.3245 33.2121C35.2335 33.1558 35.071 33.1059 34.837 33.0626L34.33 32.9781C34.1393 32.9391 33.9725 32.8849 33.8295 32.8156C33.6908 32.7419 33.5825 32.6423 33.5045 32.5166C33.4308 32.3866 33.394 32.2241 33.394 32.0291C33.394 31.7388 33.5088 31.5048 33.7385 31.3271C33.9681 31.1451 34.2931 31.0541 34.7135 31.0541C34.9691 31.0541 35.1966 31.0953 35.396 31.1776C35.5953 31.2599 35.7535 31.3834 35.8705 31.5481C35.9875 31.7128 36.046 31.9186 36.046 32.1656V32.2241H35.3765V32.1461C35.3765 32.0421 35.3591 31.9533 35.3245 31.8796C35.2898 31.8016 35.2248 31.7409 35.1295 31.6976C35.0341 31.6543 34.889 31.6326 34.694 31.6326C34.4383 31.6326 34.2693 31.6651 34.187 31.7301C34.1046 31.7951 34.0635 31.8904 34.0635 32.0161C34.0635 32.1418 34.1003 32.2306 34.174 32.2826C34.252 32.3303 34.4036 32.3779 34.629 32.4256L35.1815 32.5296C35.3895 32.5686 35.5628 32.6271 35.7015 32.7051C35.8401 32.7831 35.9441 32.8849 36.0135 33.0106C36.0871 33.1363 36.124 33.2858 36.124 33.4591C36.124 33.7624 36.0091 33.9986 35.7795 34.1676C35.5541 34.3323 35.2378 34.4146 34.8305 34.4146Z" fill="black"/>
<path d="M27.8002 0.950583C41.5864 0.950583 52.7624 12.233 52.7624 26.1506C52.7624 40.0682 41.5864 51.3506 27.8002 51.3506C14.0139 51.3506 2.83789 40.0682 2.83789 26.1506C2.83789 12.233 14.0139 0.950584 27.8002 0.950583ZM27.8002 47.5706C39.5185 47.5706 49.0181 37.9805 49.0181 26.1506C49.0181 14.3206 39.5185 4.73058 27.8002 4.73058C16.0818 4.73058 6.58223 14.3206 6.58223 26.1506C6.58223 37.9805 16.0818 47.5706 27.8002 47.5706Z" fill="#D7BEAE"/>
<path d="M27.8006 0.950583C32.8521 0.950583 37.7871 2.46877 41.9651 5.30815C46.1431 8.14754 49.3714 12.177 51.231 16.8738L47.7164 18.2654C46.1358 14.2731 43.3918 10.848 39.8404 8.43452C36.2891 6.02104 32.0944 4.73058 27.8006 4.73058L27.8006 0.950583Z" fill="#A86133"/>
<path d="M1.42851 61.0498H0.726511V56.6948H1.42851V61.0498ZM4.00103 61.1148C3.71069 61.1148 3.47453 61.0585 3.29253 60.9458C3.11486 60.8288 2.99136 60.6966 2.92203 60.5493H2.74653L2.77903 59.7238H2.90253C2.90253 59.9015 2.93503 60.0488 3.00003 60.1658C3.06936 60.2828 3.17119 60.3716 3.30553 60.4323C3.43986 60.4886 3.60019 60.5168 3.78653 60.5168C3.93819 60.5168 4.07036 60.4973 4.18303 60.4583C4.29569 60.4193 4.38669 60.3586 4.45603 60.2763C4.52969 60.194 4.58169 60.0835 4.61203 59.9448C4.64669 59.8018 4.66403 59.6306 4.66403 59.4313C4.66403 59.232 4.64669 59.0651 4.61203 58.9308C4.58169 58.7921 4.52969 58.6795 4.45603 58.5928C4.38669 58.5061 4.29569 58.4455 4.18303 58.4108C4.07469 58.3718 3.94253 58.3523 3.78653 58.3523C3.60019 58.3523 3.43986 58.3826 3.30553 58.4433C3.17119 58.4996 3.06936 58.5863 3.00003 58.7033C2.93503 58.816 2.90253 58.9633 2.90253 59.1453H2.77903L2.74653 58.3523H2.87653C2.95453 58.166 3.08236 58.0208 3.26003 57.9168C3.44203 57.8085 3.67386 57.7543 3.95553 57.7543C4.41053 57.7543 4.75936 57.906 5.00203 58.2093C5.24469 58.5126 5.36603 58.92 5.36603 59.4313C5.36603 59.9426 5.24903 60.3521 5.01503 60.6598C4.78103 60.9631 4.44303 61.1148 4.00103 61.1148ZM2.90253 62.1743H2.20703V57.8193H2.84403V58.5863L2.90253 58.6708V62.1743ZM8.768 61.0498H8.118V60.4128L8.0985 60.2373V58.9958C8.0985 58.7531 8.04 58.5885 7.923 58.5018C7.81034 58.4151 7.62617 58.3718 7.3705 58.3718C7.11484 58.3718 6.93067 58.4173 6.818 58.5083C6.70967 58.5993 6.6555 58.751 6.6555 58.9633V59.0608H5.9795V58.9958C5.9795 58.7531 6.038 58.5386 6.155 58.3523C6.27634 58.166 6.44317 58.0208 6.6555 57.9168C6.87217 57.8085 7.1235 57.7543 7.4095 57.7543C7.71284 57.7543 7.96417 57.8106 8.1635 57.9233C8.36284 58.036 8.51234 58.192 8.612 58.3913C8.716 58.5863 8.768 58.8181 8.768 59.0868V61.0498ZM6.9155 61.1148C6.62517 61.1148 6.38034 61.0411 6.181 60.8938C5.986 60.7421 5.8885 60.5276 5.8885 60.2503C5.8885 60.0683 5.92967 59.9166 6.012 59.7953C6.09867 59.674 6.22217 59.5743 6.3825 59.4963C6.54284 59.4183 6.73784 59.3641 6.9675 59.3338L8.1635 59.1648V59.6588L7.0715 59.8213C6.88517 59.8473 6.75517 59.8863 6.6815 59.9383C6.60784 59.9903 6.571 60.077 6.571 60.1983C6.571 60.324 6.61434 60.415 6.701 60.4713C6.792 60.5276 6.93934 60.5558 7.143 60.5558C7.299 60.5558 7.4485 60.532 7.5915 60.4843C7.73884 60.4323 7.86017 60.3478 7.9555 60.2308C8.05084 60.1095 8.0985 59.9405 8.0985 59.7238L8.1895 60.5493L8.0855 60.5428C8.02484 60.6425 7.94034 60.7356 7.832 60.8223C7.728 60.909 7.60017 60.9805 7.4485 61.0368C7.29684 61.0888 7.11917 61.1148 6.9155 61.1148ZM12.5284 61.0498H11.8264V59.1713C11.8264 58.8853 11.7723 58.6795 11.6639 58.5538C11.5556 58.4238 11.3519 58.3588 11.0529 58.3588C10.8623 58.3588 10.7063 58.387 10.5849 58.4433C10.4636 58.4953 10.3726 58.582 10.3119 58.7033C10.2513 58.8203 10.2209 58.9806 10.2209 59.1843H10.0974L10.0389 58.4238H10.1949C10.2426 58.3068 10.3141 58.1985 10.4094 58.0988C10.5048 57.9991 10.6261 57.9168 10.7734 57.8518C10.9251 57.7868 11.1049 57.7543 11.3129 57.7543C11.5946 57.7543 11.8243 57.8085 12.0019 57.9168C12.1796 58.0251 12.3118 58.1746 12.3984 58.3653C12.4851 58.556 12.5284 58.7748 12.5284 59.0218V61.0498ZM10.2209 61.0498H9.51894V57.8193H10.1624V58.7878L10.2209 58.8203V61.0498ZM14.5601 61.1148C14.1008 61.1148 13.7476 60.9631 13.5006 60.6598C13.258 60.3521 13.1366 59.9426 13.1366 59.4313C13.1366 58.92 13.2558 58.5126 13.4941 58.2093C13.7368 57.906 14.0791 57.7543 14.5211 57.7543C14.8071 57.7543 15.0368 57.8128 15.2101 57.9298C15.3878 58.0425 15.5113 58.1725 15.5806 58.3198H15.7561L15.7236 59.1453H15.6001C15.6001 58.9633 15.5655 58.8138 15.4961 58.6968C15.4268 58.5798 15.3271 58.4931 15.1971 58.4368C15.0671 58.3805 14.9068 58.3523 14.7161 58.3523C14.5601 58.3523 14.4258 58.3718 14.3131 58.4108C14.2048 58.4498 14.1138 58.5105 14.0401 58.5928C13.9708 58.6751 13.9188 58.7856 13.8841 58.9243C13.8538 59.063 13.8386 59.232 13.8386 59.4313C13.8386 59.6263 13.8538 59.7953 13.8841 59.9383C13.9188 60.077 13.9708 60.1896 14.0401 60.2763C14.1138 60.3586 14.207 60.4193 14.3196 60.4583C14.4323 60.4973 14.5645 60.5168 14.7161 60.5168C14.9068 60.5168 15.0671 60.4886 15.1971 60.4323C15.3271 60.3716 15.4268 60.2828 15.4961 60.1658C15.5655 60.0488 15.6001 59.9015 15.6001 59.7238H15.7236L15.7561 60.5168H15.6261C15.5525 60.7031 15.4246 60.8505 15.2426 60.9588C15.065 61.0628 14.8375 61.1148 14.5601 61.1148ZM16.3021 61.0498H15.6521V60.2828L15.6001 60.1983V56.6948H16.3021V61.0498ZM19.7762 61.0498H19.1262V60.4128L19.1067 60.2373V58.9958C19.1067 58.7531 19.0482 58.5885 18.9312 58.5018C18.8186 58.4151 18.6344 58.3718 18.3787 58.3718C18.1231 58.3718 17.9389 58.4173 17.8262 58.5083C17.7179 58.5993 17.6637 58.751 17.6637 58.9633V59.0608H16.9877V58.9958C16.9877 58.7531 17.0462 58.5386 17.1632 58.3523C17.2846 58.166 17.4514 58.0208 17.6637 57.9168C17.8804 57.8085 18.1317 57.7543 18.4177 57.7543C18.7211 57.7543 18.9724 57.8106 19.1717 57.9233C19.3711 58.036 19.5206 58.192 19.6202 58.3913C19.7242 58.5863 19.7762 58.8181 19.7762 59.0868V61.0498ZM17.9237 61.1148C17.6334 61.1148 17.3886 61.0411 17.1892 60.8938C16.9942 60.7421 16.8967 60.5276 16.8967 60.2503C16.8967 60.0683 16.9379 59.9166 17.0202 59.7953C17.1069 59.674 17.2304 59.5743 17.3907 59.4963C17.5511 59.4183 17.7461 59.3641 17.9757 59.3338L19.1717 59.1648V59.6588L18.0797 59.8213C17.8934 59.8473 17.7634 59.8863 17.6897 59.9383C17.6161 59.9903 17.5792 60.077 17.5792 60.1983C17.5792 60.324 17.6226 60.415 17.7092 60.4713C17.8002 60.5276 17.9476 60.5558 18.1512 60.5558C18.3072 60.5558 18.4567 60.532 18.5997 60.4843C18.7471 60.4323 18.8684 60.3478 18.9637 60.2308C19.0591 60.1095 19.1067 59.9405 19.1067 59.7238L19.1977 60.5493L19.0937 60.5428C19.0331 60.6425 18.9486 60.7356 18.8402 60.8223C18.7362 60.909 18.6084 60.9805 18.4567 61.0368C18.3051 61.0888 18.1274 61.1148 17.9237 61.1148ZM23.5367 61.0498H22.8347V59.1713C22.8347 58.8853 22.7805 58.6795 22.6722 58.5538C22.5638 58.4238 22.3602 58.3588 22.0612 58.3588C21.8705 58.3588 21.7145 58.387 21.5932 58.4433C21.4718 58.4953 21.3808 58.582 21.3202 58.7033C21.2595 58.8203 21.2292 58.9806 21.2292 59.1843H21.1057L21.0472 58.4238H21.2032C21.2508 58.3068 21.3223 58.1985 21.4177 58.0988C21.513 57.9991 21.6343 57.9168 21.7817 57.8518C21.9333 57.7868 22.1132 57.7543 22.3212 57.7543C22.6028 57.7543 22.8325 57.8085 23.0102 57.9168C23.1878 58.0251 23.32 58.1746 23.4067 58.3653C23.4933 58.556 23.5367 58.7748 23.5367 59.0218V61.0498ZM21.2292 61.0498H20.5272V57.8193H21.1707V58.7878L21.2292 58.8203V61.0498ZM27.2294 61.1148C26.8134 61.1148 26.4776 61.0563 26.2219 60.9393C25.9706 60.8223 25.7886 60.6598 25.6759 60.4518C25.5632 60.2395 25.5069 59.9946 25.5069 59.7173V59.6133H26.2024V59.7108C26.2024 59.8885 26.2284 60.0358 26.2804 60.1528C26.3324 60.2655 26.4321 60.3478 26.5794 60.3998C26.7311 60.4475 26.9499 60.4713 27.2359 60.4713C27.5826 60.4713 27.8296 60.4215 27.9769 60.3218C28.1242 60.2221 28.1979 60.0445 28.1979 59.7888C28.1979 59.5201 28.1307 59.336 27.9964 59.2363C27.8664 59.1366 27.6519 59.0868 27.3529 59.0868H26.4819V58.5018H27.2554C27.5414 58.5018 27.7451 58.4585 27.8664 58.3718C27.9877 58.2851 28.0484 58.1291 28.0484 57.9038C28.0484 57.6741 27.9791 57.5116 27.8404 57.4163C27.7061 57.3166 27.4851 57.2668 27.1774 57.2668C26.9261 57.2668 26.7289 57.2928 26.5859 57.3448C26.4472 57.3968 26.3476 57.4791 26.2869 57.5918C26.2306 57.7045 26.2024 57.8518 26.2024 58.0338V58.0858H25.5069V58.0273C25.5069 57.75 25.5697 57.5073 25.6954 57.2993C25.8254 57.087 26.0139 56.9223 26.2609 56.8053C26.5122 56.6883 26.8199 56.6298 27.1839 56.6298C27.5132 56.6298 27.7927 56.6753 28.0224 56.7663C28.2564 56.853 28.4362 56.983 28.5619 57.1563C28.6876 57.3253 28.7504 57.5376 28.7504 57.7933C28.7504 58.0403 28.6854 58.2505 28.5554 58.4238C28.4254 58.5928 28.2217 58.699 27.9444 58.7423V58.7683C28.2434 58.8073 28.4774 58.9221 28.6464 59.1128C28.8197 59.2991 28.9064 59.5505 28.9064 59.8668C28.9064 60.1441 28.8349 60.376 28.6919 60.5623C28.5532 60.7486 28.3582 60.8873 28.1069 60.9783C27.8556 61.0693 27.5631 61.1148 27.2294 61.1148ZM31.3737 61.1148C31.0574 61.1148 30.78 61.0606 30.5417 60.9523C30.3077 60.8396 30.1257 60.6815 29.9957 60.4778C29.8657 60.2741 29.8007 60.0336 29.8007 59.7563V59.7173H30.5417V59.7563C30.5417 59.8906 30.5677 60.0098 30.6197 60.1138C30.6717 60.2178 30.7627 60.298 30.8927 60.3543C31.0227 60.4063 31.2004 60.4323 31.4257 60.4323C31.703 60.4323 31.911 60.3868 32.0497 60.2958C32.1927 60.2048 32.2902 60.0618 32.3422 59.8668C32.3985 59.6675 32.4267 59.4075 32.4267 59.0868V58.7293H32.3942C32.3292 58.855 32.2404 58.9676 32.1277 59.0673C32.0194 59.167 31.8807 59.2471 31.7117 59.3078C31.5427 59.3641 31.3347 59.3923 31.0877 59.3923C30.767 59.3923 30.4984 59.3381 30.2817 59.2298C30.065 59.1171 29.9004 58.9611 29.7877 58.7618C29.6794 58.5581 29.6252 58.3176 29.6252 58.0403C29.6252 57.6113 29.7704 57.269 30.0607 57.0133C30.351 56.7576 30.7757 56.6298 31.3347 56.6298C31.7767 56.6298 32.1299 56.71 32.3942 56.8703C32.6585 57.0263 32.8492 57.269 32.9662 57.5983C33.0832 57.9276 33.1417 58.3523 33.1417 58.8723C33.1417 59.2233 33.107 59.5375 33.0377 59.8148C32.9727 60.0921 32.8687 60.3283 32.7257 60.5233C32.5827 60.714 32.3985 60.8613 32.1732 60.9653C31.9522 61.065 31.6857 61.1148 31.3737 61.1148ZM31.3152 58.8008C31.5622 58.8008 31.7594 58.7748 31.9067 58.7228C32.054 58.6665 32.1602 58.582 32.2252 58.4693C32.2902 58.3566 32.3227 58.218 32.3227 58.0533C32.3227 57.8843 32.2902 57.7435 32.2252 57.6308C32.1602 57.5181 32.054 57.4358 31.9067 57.3838C31.7594 57.3318 31.5622 57.3058 31.3152 57.3058C31.0639 57.3058 30.8645 57.3318 30.7172 57.3838C30.5742 57.4358 30.4702 57.5181 30.4052 57.6308C30.3445 57.7435 30.3142 57.8843 30.3142 58.0533C30.3142 58.2266 30.3445 58.3696 30.4052 58.4823C30.4659 58.5906 30.5699 58.6708 30.7172 58.7228C30.8645 58.7748 31.0639 58.8008 31.3152 58.8008ZM34.4074 62.1548C34.3207 62.1548 34.2319 62.1483 34.1409 62.1353C34.0499 62.1266 33.9762 62.1136 33.9199 62.0963V61.5243H34.3684C34.5027 61.5243 34.6024 61.5048 34.6674 61.4658C34.7324 61.4311 34.793 61.3553 34.8494 61.2383L35.0509 60.7833L34.9924 61.0108L33.5949 57.8193H34.3684L35.0184 59.3858L35.3109 60.0878H35.3694L35.6294 59.3858L36.2209 57.8193H37.0009L35.4669 61.4268C35.3889 61.6218 35.3 61.7713 35.2004 61.8753C35.1007 61.9793 34.9859 62.0508 34.8559 62.0898C34.7302 62.1331 34.5807 62.1548 34.4074 62.1548ZM38.7217 61.1148C38.3707 61.1148 38.0782 61.0455 37.8442 60.9068C37.6102 60.7638 37.4368 60.5666 37.3242 60.3153C37.2115 60.0596 37.1552 59.765 37.1552 59.4313C37.1552 59.0976 37.218 58.8051 37.3437 58.5538C37.4737 58.3025 37.6557 58.1075 37.8897 57.9688C38.1237 57.8258 38.401 57.7543 38.7217 57.7543C39.012 57.7543 39.2677 57.8106 39.4887 57.9233C39.714 58.0316 39.8873 58.1898 40.0087 58.3978C40.1343 58.6058 40.1972 58.8571 40.1972 59.1518C40.1972 59.2385 40.1928 59.323 40.1842 59.4053C40.1798 59.4833 40.1733 59.5483 40.1647 59.6003H37.4867V59.1323H39.5927L39.5212 59.1973C39.5385 58.998 39.5168 58.8355 39.4562 58.7098C39.3998 58.5841 39.3067 58.491 39.1767 58.4303C39.051 58.3696 38.8928 58.3393 38.7022 58.3393C38.3598 58.3393 38.1258 58.426 38.0002 58.5993C37.8745 58.7683 37.8117 59.0023 37.8117 59.3013V59.4963C37.8117 59.713 37.8377 59.8971 37.8897 60.0488C37.946 60.1961 38.0413 60.3066 38.1757 60.3803C38.31 60.454 38.4942 60.4908 38.7282 60.4908C39.0012 60.4908 39.194 60.4475 39.3067 60.3608C39.4193 60.2741 39.4757 60.1593 39.4757 60.0163V59.9643H40.1712V60.0228C40.1712 60.2438 40.1105 60.4366 39.9892 60.6013C39.8678 60.7616 39.6988 60.8873 39.4822 60.9783C39.2698 61.0693 39.0163 61.1148 38.7217 61.1148ZM39.1312 57.4098H38.3967L37.4997 56.5973V56.5648H38.4292L39.1312 57.3773V57.4098ZM46.0231 61.0498H45.3211V59.1713C45.3211 58.8853 45.2669 58.6795 45.1586 58.5538C45.0546 58.4238 44.8553 58.3588 44.5606 58.3588C44.2963 58.3588 44.0991 58.4216 43.9691 58.5473C43.8434 58.6686 43.7806 58.8766 43.7806 59.1713L43.6571 59.1843L43.5986 58.4238H43.7026C43.7546 58.3111 43.8261 58.205 43.9171 58.1053C44.0124 58.0013 44.1338 57.9168 44.2811 57.8518C44.4284 57.7868 44.6083 57.7543 44.8206 57.7543C45.1023 57.7543 45.3298 57.8085 45.5031 57.9168C45.6808 58.0251 45.8108 58.1746 45.8931 58.3653C45.9798 58.556 46.0231 58.7748 46.0231 59.0218V61.0498ZM41.5381 61.0498H40.8361V57.8193H41.4796V58.7878L41.5381 58.8203V61.0498ZM43.7806 61.0498H43.0786V59.1713C43.0786 58.8853 43.0244 58.6795 42.9161 58.5538C42.8121 58.4238 42.6128 58.3588 42.3181 58.3588C42.0538 58.3588 41.8566 58.4195 41.7266 58.5408C41.6009 58.6621 41.5381 58.8701 41.5381 59.1648L41.4146 59.1843L41.3561 58.4238H41.5121C41.5598 58.3068 41.6291 58.1985 41.7201 58.0988C41.8154 57.9991 41.9368 57.9168 42.0841 57.8518C42.2314 57.7868 42.4069 57.7543 42.6106 57.7543C42.8836 57.7543 43.1046 57.8085 43.2736 57.9168C43.4469 58.0251 43.5748 58.1746 43.6571 58.3653C43.7394 58.556 43.7806 58.7748 43.7806 59.0218V61.0498ZM49.4361 61.1148C48.9637 61.1148 48.6062 61.0216 48.3636 60.8353C48.1209 60.6446 47.9996 60.3521 47.9996 59.9578V59.9448H48.6756V60.0618C48.6756 60.1745 48.6972 60.2676 48.7406 60.3413C48.7882 60.4106 48.8662 60.4626 48.9746 60.4973C49.0872 60.5276 49.2454 60.5428 49.4491 60.5428C49.6224 60.5428 49.7524 60.5298 49.8391 60.5038C49.9301 60.4735 49.9907 60.4323 50.0211 60.3803C50.0514 60.3283 50.0666 60.2633 50.0666 60.1853C50.0666 60.0553 50.0211 59.9643 49.9301 59.9123C49.8391 59.856 49.6766 59.8061 49.4426 59.7628L48.9356 59.6783C48.7449 59.6393 48.5781 59.5851 48.4351 59.5158C48.2964 59.4421 48.1881 59.3425 48.1101 59.2168C48.0364 59.0868 47.9996 58.9243 47.9996 58.7293C47.9996 58.439 48.1144 58.205 48.3441 58.0273C48.5737 57.8453 48.8987 57.7543 49.3191 57.7543C49.5747 57.7543 49.8022 57.7955 50.0016 57.8778C50.2009 57.9601 50.3591 58.0836 50.4761 58.2483C50.5931 58.413 50.6516 58.6188 50.6516 58.8658V58.9243H49.9821V58.8463C49.9821 58.7423 49.9647 58.6535 49.9301 58.5798C49.8954 58.5018 49.8304 58.4411 49.7351 58.3978C49.6397 58.3545 49.4946 58.3328 49.2996 58.3328C49.0439 58.3328 48.8749 58.3653 48.7926 58.4303C48.7102 58.4953 48.6691 58.5906 48.6691 58.7163C48.6691 58.842 48.7059 58.9308 48.7796 58.9828C48.8576 59.0305 49.0092 59.0781 49.2346 59.1258L49.7871 59.2298C49.9951 59.2688 50.1684 59.3273 50.3071 59.4053C50.4457 59.4833 50.5497 59.5851 50.6191 59.7108C50.6927 59.8365 50.7296 59.986 50.7296 60.1593C50.7296 60.4626 50.6147 60.6988 50.3851 60.8678C50.1597 61.0325 49.8434 61.1148 49.4361 61.1148ZM52.8111 61.1148C52.4601 61.1148 52.1676 61.0455 51.9336 60.9068C51.6996 60.7638 51.5263 60.5666 51.4136 60.3153C51.3009 60.0596 51.2446 59.765 51.2446 59.4313C51.2446 59.0976 51.3074 58.8051 51.4331 58.5538C51.5631 58.3025 51.7451 58.1075 51.9791 57.9688C52.2131 57.8258 52.4904 57.7543 52.8111 57.7543C53.1014 57.7543 53.3571 57.8106 53.5781 57.9233C53.8034 58.0316 53.9768 58.1898 54.0981 58.3978C54.2238 58.6058 54.2866 58.8571 54.2866 59.1518C54.2866 59.2385 54.2823 59.323 54.2736 59.4053C54.2693 59.4833 54.2628 59.5483 54.2541 59.6003H51.5761V59.1323H53.6821L53.6106 59.1973C53.6279 58.998 53.6063 58.8355 53.5456 58.7098C53.4893 58.5841 53.3961 58.491 53.2661 58.4303C53.1404 58.3696 52.9823 58.3393 52.7916 58.3393C52.4493 58.3393 52.2153 58.426 52.0896 58.5993C51.9639 58.7683 51.9011 59.0023 51.9011 59.3013V59.4963C51.9011 59.713 51.9271 59.8971 51.9791 60.0488C52.0354 60.1961 52.1308 60.3066 52.2651 60.3803C52.3994 60.454 52.5836 60.4908 52.8176 60.4908C53.0906 60.4908 53.2834 60.4475 53.3961 60.3608C53.5088 60.2741 53.5651 60.1593 53.5651 60.0163V59.9643H54.2606V60.0228C54.2606 60.2438 54.1999 60.4366 54.0786 60.6013C53.9573 60.7616 53.7883 60.8873 53.5716 60.9783C53.3593 61.0693 53.1058 61.1148 52.8111 61.1148ZM60.1125 61.0498H59.4105V59.1713C59.4105 58.8853 59.3563 58.6795 59.248 58.5538C59.144 58.4238 58.9447 58.3588 58.65 58.3588C58.3857 58.3588 58.1885 58.4216 58.0585 58.5473C57.9328 58.6686 57.87 58.8766 57.87 59.1713L57.7465 59.1843L57.688 58.4238H57.792C57.844 58.3111 57.9155 58.205 58.0065 58.1053C58.1018 58.0013 58.2232 57.9168 58.3705 57.8518C58.5178 57.7868 58.6977 57.7543 58.91 57.7543C59.1917 57.7543 59.4192 57.8085 59.5925 57.9168C59.7702 58.0251 59.9002 58.1746 59.9825 58.3653C60.0692 58.556 60.1125 58.7748 60.1125 59.0218V61.0498ZM55.6275 61.0498H54.9255V57.8193H55.569V58.7878L55.6275 58.8203V61.0498ZM57.87 61.0498H57.168V59.1713C57.168 58.8853 57.1138 58.6795 57.0055 58.5538C56.9015 58.4238 56.7022 58.3588 56.4075 58.3588C56.1432 58.3588 55.946 58.4195 55.816 58.5408C55.6903 58.6621 55.6275 58.8701 55.6275 59.1648L55.504 59.1843L55.4455 58.4238H55.6015C55.6492 58.3068 55.7185 58.1985 55.8095 58.0988C55.9048 57.9991 56.0262 57.9168 56.1735 57.8518C56.3208 57.7868 56.4963 57.7543 56.7 57.7543C56.973 57.7543 57.194 57.8085 57.363 57.9168C57.5363 58.0251 57.6642 58.1746 57.7465 58.3653C57.8288 58.556 57.87 58.7748 57.87 59.0218V61.0498ZM62.2869 61.1148C61.9359 61.1148 61.6434 61.0455 61.4094 60.9068C61.1754 60.7638 61.0021 60.5666 60.8894 60.3153C60.7768 60.0596 60.7204 59.765 60.7204 59.4313C60.7204 59.0976 60.7833 58.8051 60.9089 58.5538C61.0389 58.3025 61.2209 58.1075 61.4549 57.9688C61.6889 57.8258 61.9663 57.7543 62.2869 57.7543C62.5773 57.7543 62.8329 57.8106 63.0539 57.9233C63.2793 58.0316 63.4526 58.1898 63.5739 58.3978C63.6996 58.6058 63.7624 58.8571 63.7624 59.1518C63.7624 59.2385 63.7581 59.323 63.7494 59.4053C63.7451 59.4833 63.7386 59.5483 63.7299 59.6003H61.0519V59.1323H63.1579L63.0864 59.1973C63.1038 58.998 63.0821 58.8355 63.0214 58.7098C62.9651 58.5841 62.8719 58.491 62.7419 58.4303C62.6163 58.3696 62.4581 58.3393 62.2674 58.3393C61.9251 58.3393 61.6911 58.426 61.5654 58.5993C61.4398 58.7683 61.3769 59.0023 61.3769 59.3013V59.4963C61.3769 59.713 61.4029 59.8971 61.4549 60.0488C61.5113 60.1961 61.6066 60.3066 61.7409 60.3803C61.8753 60.454 62.0594 60.4908 62.2934 60.4908C62.5664 60.4908 62.7593 60.4475 62.8719 60.3608C62.9846 60.2741 63.0409 60.1593 63.0409 60.0163V59.9643H63.7364V60.0228C63.7364 60.2438 63.6758 60.4366 63.5544 60.6013C63.4331 60.7616 63.2641 60.8873 63.0474 60.9783C62.8351 61.0693 62.5816 61.1148 62.2869 61.1148ZM62.6964 57.4098H61.9619L61.0649 56.5973V56.5648H61.9944L62.6964 57.3773V57.4098ZM67.4109 61.0498H66.7089V59.1713C66.7089 58.8853 66.6547 58.6795 66.5464 58.5538C66.438 58.4238 66.2344 58.3588 65.9354 58.3588C65.7447 58.3588 65.5887 58.387 65.4674 58.4433C65.346 58.4953 65.255 58.582 65.1944 58.7033C65.1337 58.8203 65.1034 58.9806 65.1034 59.1843H64.9799L64.9214 58.4238H65.0774C65.125 58.3068 65.1965 58.1985 65.2919 58.0988C65.3872 57.9991 65.5085 57.9168 65.6559 57.8518C65.8075 57.7868 65.9874 57.7543 66.1954 57.7543C66.477 57.7543 66.7067 57.8085 66.8844 57.9168C67.062 58.0251 67.1942 58.1746 67.2809 58.3653C67.3675 58.556 67.4109 58.7748 67.4109 59.0218V61.0498ZM65.1034 61.0498H64.4014V57.8193H65.0449V58.7878L65.1034 58.8203V61.0498ZM72.4751 61.0498H71.7731V59.1713C71.7731 58.8853 71.7189 58.6795 71.6106 58.5538C71.5023 58.4238 71.2986 58.3588 70.9996 58.3588C70.8089 58.3588 70.6529 58.387 70.5316 58.4433C70.4103 58.4953 70.3193 58.582 70.2586 58.7033C70.1979 58.8203 70.1676 58.9806 70.1676 59.1843H70.0441L69.9856 58.4238H70.1416C70.1893 58.3068 70.2608 58.1985 70.3561 58.0988C70.4514 57.9991 70.5728 57.9168 70.7201 57.8518C70.8718 57.7868 71.0516 57.7543 71.2596 57.7543C71.5413 57.7543 71.7709 57.8085 71.9486 57.9168C72.1263 58.0251 72.2584 58.1746 72.3451 58.3653C72.4318 58.556 72.4751 58.7748 72.4751 59.0218V61.0498ZM70.1676 61.0498H69.4656V57.8193H70.1091V58.7878L70.1676 58.8203V61.0498ZM75.9498 61.0498H75.2998V60.4128L75.2803 60.2373V58.9958C75.2803 58.7531 75.2218 58.5885 75.1048 58.5018C74.9921 58.4151 74.808 58.3718 74.5523 58.3718C74.2966 58.3718 74.1125 58.4173 73.9998 58.5083C73.8915 58.5993 73.8373 58.751 73.8373 58.9633V59.0608H73.1613V58.9958C73.1613 58.7531 73.2198 58.5386 73.3368 58.3523C73.4581 58.166 73.625 58.0208 73.8373 57.9168C74.054 57.8085 74.3053 57.7543 74.5913 57.7543C74.8946 57.7543 75.146 57.8106 75.3453 57.9233C75.5446 58.036 75.6941 58.192 75.7938 58.3913C75.8978 58.5863 75.9498 58.8181 75.9498 59.0868V61.0498ZM74.0973 61.1148C73.807 61.1148 73.5621 61.0411 73.3628 60.8938C73.1678 60.7421 73.0703 60.5276 73.0703 60.2503C73.0703 60.0683 73.1115 59.9166 73.1938 59.7953C73.2805 59.674 73.404 59.5743 73.5643 59.4963C73.7246 59.4183 73.9196 59.3641 74.1493 59.3338L75.3453 59.1648V59.6588L74.2533 59.8213C74.067 59.8473 73.937 59.8863 73.8633 59.9383C73.7896 59.9903 73.7528 60.077 73.7528 60.1983C73.7528 60.324 73.7961 60.415 73.8828 60.4713C73.9738 60.5276 74.1211 60.5558 74.3248 60.5558C74.4808 60.5558 74.6303 60.532 74.7733 60.4843C74.9206 60.4323 75.042 60.3478 75.1373 60.2308C75.2326 60.1095 75.2803 59.9405 75.2803 59.7238L75.3713 60.5493L75.2673 60.5428C75.2066 60.6425 75.1221 60.7356 75.0138 60.8223C74.9098 60.909 74.782 60.9805 74.6303 61.0368C74.4786 61.0888 74.301 61.1148 74.0973 61.1148ZM79.7102 61.0498H79.0082V59.1713C79.0082 58.8853 78.9541 58.6795 78.8457 58.5538C78.7374 58.4238 78.5337 58.3588 78.2347 58.3588C78.0441 58.3588 77.8881 58.387 77.7667 58.4433C77.6454 58.4953 77.5544 58.582 77.4937 58.7033C77.4331 58.8203 77.4027 58.9806 77.4027 59.1843H77.2792L77.2207 58.4238H77.3767C77.4244 58.3068 77.4959 58.1985 77.5912 58.0988C77.6866 57.9991 77.8079 57.9168 77.9552 57.8518C78.1069 57.7868 78.2867 57.7543 78.4947 57.7543C78.7764 57.7543 79.0061 57.8085 79.1837 57.9168C79.3614 58.0251 79.4936 58.1746 79.5802 58.3653C79.6669 58.556 79.7102 58.7748 79.7102 59.0218V61.0498ZM77.4027 61.0498H76.7007V57.8193H77.3442V58.7878L77.4027 58.8203V61.0498Z" fill="black"/>
</svg>
