<svg width="200" height="174" viewBox="0 0 200 174" fill="none" xmlns="http://www.w3.org/2000/svg">
<path d="M58.3574 79H53.5894V63.64H48.7574V60.216H49.7174C51.7334 60.216 52.9814 59.48 54.0054 57.56H58.3574V79ZM70.7429 79.32C65.6869 79.32 62.6149 76.632 62.6149 72.504V72.312H67.7029V72.504C67.7029 74.104 68.6949 74.744 71.0629 74.744C74.1989 74.744 74.9029 73.496 74.9029 70.168V68.312H74.7429C73.7829 69.72 72.0869 70.808 68.8869 70.808C64.2149 70.808 61.8149 68.376 61.8149 64.312C61.8149 59.992 64.8229 57.24 70.5509 57.24C77.3989 57.24 79.8629 60.76 79.8629 68.376C79.8629 75.672 76.8229 79.32 70.7429 79.32ZM70.5189 66.936C73.5269 66.936 74.4869 66.232 74.4869 64.408C74.4869 62.552 73.5269 61.848 70.5189 61.848C67.4469 61.848 66.5189 62.552 66.5189 64.408C66.5189 66.232 67.4469 66.936 70.5189 66.936ZM87.3284 67.864C83.8724 67.864 81.6964 65.848 81.6964 62.552C81.6964 59.256 83.8724 57.24 87.3284 57.24C90.7524 57.24 92.9284 59.256 92.9284 62.552C92.9284 65.848 90.7524 67.864 87.3284 67.864ZM88.2564 79H83.8724L99.3284 57.56H103.68L88.2564 79ZM87.3284 64.6C88.8324 64.6 89.3444 64.216 89.3444 62.552C89.3444 60.888 88.8324 60.504 87.3284 60.504C85.8244 60.504 85.3124 60.888 85.3124 62.552C85.3124 64.216 85.8244 64.6 87.3284 64.6ZM100.256 79.32C96.8004 79.32 94.6244 77.304 94.6244 74.008C94.6244 70.712 96.8004 68.696 100.256 68.696C103.712 68.696 105.856 70.712 105.856 74.008C105.856 77.304 103.712 79.32 100.256 79.32ZM100.256 76.056C101.76 76.056 102.272 75.672 102.272 74.008C102.272 72.344 101.76 71.96 100.256 71.96C98.7524 71.96 98.2404 72.344 98.2404 74.008C98.2404 75.672 98.7524 76.056 100.256 76.056Z" fill="black"/>
<path d="M61.2198 104.16C60.1851 104.16 59.2891 103.936 58.5318 103.488C57.7851 103.029 57.2091 102.389 56.8038 101.568C56.4091 100.736 56.2118 99.76 56.2118 98.64C56.2118 97.52 56.4091 96.5493 56.8038 95.728C57.2091 94.896 57.7851 94.256 58.5318 93.808C59.2891 93.3493 60.1851 93.12 61.2198 93.12C62.1905 93.12 63.0171 93.2907 63.6998 93.632C64.3825 93.9733 64.9105 94.4533 65.2838 95.072C65.6571 95.6907 65.8438 96.432 65.8438 97.296V97.392H64.0198V97.296C64.0198 96.4213 63.7958 95.7867 63.3478 95.392C62.9105 94.9867 62.1851 94.784 61.1718 94.784C60.4358 94.784 59.8385 94.912 59.3798 95.168C58.9211 95.424 58.5851 95.8347 58.3718 96.4C58.1585 96.9653 58.0518 97.712 58.0518 98.64C58.0518 99.5573 58.1585 100.304 58.3718 100.88C58.5851 101.445 58.9211 101.856 59.3798 102.112C59.8385 102.357 60.4358 102.48 61.1718 102.48C62.1851 102.48 62.9105 102.283 63.3478 101.888C63.7958 101.493 64.0198 100.859 64.0198 99.984V99.888H65.8438V99.984C65.8438 100.837 65.6571 101.579 65.2838 102.208C64.9105 102.827 64.3825 103.307 63.6998 103.648C63.0171 103.989 62.1905 104.16 61.2198 104.16ZM74.9699 104H73.2419V99.376C73.2419 98.672 73.1033 98.1653 72.8259 97.856C72.5593 97.536 72.0633 97.376 71.3379 97.376C70.6446 97.376 70.1273 97.5307 69.7859 97.84C69.4553 98.1387 69.2899 98.6667 69.2899 99.424H68.9859L68.9699 97.376H69.3539C69.4819 97.1307 69.6579 96.896 69.8819 96.672C70.1166 96.4373 70.4099 96.2507 70.7619 96.112C71.1246 95.9627 71.5406 95.888 72.0099 95.888C72.7139 95.888 73.2793 96.0267 73.7059 96.304C74.1433 96.5707 74.4633 96.9387 74.6659 97.408C74.8686 97.8773 74.9699 98.4053 74.9699 98.992V104ZM69.2899 104H67.5619V93.28H69.2899V104ZM83.626 104H82.026V102.432L81.978 102V98.944C81.978 98.3467 81.834 97.9413 81.546 97.728C81.2687 97.5147 80.8154 97.408 80.186 97.408C79.5567 97.408 79.1034 97.52 78.826 97.744C78.5594 97.968 78.426 98.3413 78.426 98.864V99.104H76.762V98.944C76.762 98.3467 76.906 97.8187 77.194 97.36C77.4927 96.9013 77.9034 96.544 78.426 96.288C78.9594 96.0213 79.578 95.888 80.282 95.888C81.0287 95.888 81.6474 96.0267 82.138 96.304C82.6287 96.5813 82.9967 96.9653 83.242 97.456C83.498 97.936 83.626 98.5067 83.626 99.168V104ZM79.066 104.16C78.3514 104.16 77.7487 103.979 77.258 103.616C76.778 103.243 76.538 102.715 76.538 102.032C76.538 101.584 76.6394 101.211 76.842 100.912C77.0554 100.613 77.3594 100.368 77.754 100.176C78.1487 99.984 78.6287 99.8507 79.194 99.776L82.138 99.36V100.576L79.45 100.976C78.9914 101.04 78.6714 101.136 78.49 101.264C78.3087 101.392 78.218 101.605 78.218 101.904C78.218 102.213 78.3247 102.437 78.538 102.576C78.762 102.715 79.1247 102.784 79.626 102.784C80.01 102.784 80.378 102.725 80.73 102.608C81.0927 102.48 81.3914 102.272 81.626 101.984C81.8607 101.685 81.978 101.269 81.978 100.736L82.202 102.768L81.946 102.752C81.7967 102.997 81.5887 103.227 81.322 103.44C81.066 103.653 80.7514 103.829 80.378 103.968C80.0047 104.096 79.5674 104.16 79.066 104.16ZM92.9387 104H91.2107V99.376C91.2107 98.672 91.0773 98.1653 90.8107 97.856C90.544 97.536 90.0427 97.376 89.3067 97.376C88.8373 97.376 88.4533 97.4453 88.1547 97.584C87.856 97.712 87.632 97.9253 87.4827 98.224C87.3333 98.512 87.2587 98.9067 87.2587 99.408H86.9547L86.8107 97.536H87.1947C87.312 97.248 87.488 96.9813 87.7227 96.736C87.9573 96.4907 88.256 96.288 88.6187 96.128C88.992 95.968 89.4347 95.888 89.9467 95.888C90.64 95.888 91.2053 96.0213 91.6427 96.288C92.08 96.5547 92.4053 96.9227 92.6187 97.392C92.832 97.8613 92.9387 98.4 92.9387 99.008V104ZM87.2587 104H85.5307V96.048H87.1147V98.432L87.2587 98.512V104ZM98.1403 104.16C96.9776 104.16 96.0976 103.931 95.5003 103.472C94.903 103.003 94.6043 102.283 94.6043 101.312V101.28H96.2683V101.568C96.2683 101.845 96.3216 102.075 96.4283 102.256C96.5456 102.427 96.7376 102.555 97.0043 102.64C97.2816 102.715 97.671 102.752 98.1723 102.752C98.599 102.752 98.919 102.72 99.1323 102.656C99.3563 102.581 99.5056 102.48 99.5803 102.352C99.655 102.224 99.6923 102.064 99.6923 101.872C99.6923 101.552 99.5803 101.328 99.3563 101.2C99.1323 101.061 98.7323 100.939 98.1563 100.832L96.9083 100.624C96.439 100.528 96.0283 100.395 95.6763 100.224C95.335 100.043 95.0683 99.7973 94.8763 99.488C94.695 99.168 94.6043 98.768 94.6043 98.288C94.6043 97.5733 94.887 96.9973 95.4523 96.56C96.0176 96.112 96.8176 95.888 97.8523 95.888C98.4816 95.888 99.0416 95.9893 99.5323 96.192C100.023 96.3947 100.412 96.6987 100.7 97.104C100.988 97.5093 101.132 98.016 101.132 98.624V98.768H99.4843V98.576C99.4843 98.32 99.4416 98.1013 99.3563 97.92C99.271 97.728 99.111 97.5787 98.8763 97.472C98.6416 97.3653 98.2843 97.312 97.8043 97.312C97.175 97.312 96.759 97.392 96.5563 97.552C96.3536 97.712 96.2523 97.9467 96.2523 98.256C96.2523 98.5653 96.343 98.784 96.5243 98.912C96.7163 99.0293 97.0896 99.1467 97.6443 99.264L99.0043 99.52C99.5163 99.616 99.943 99.76 100.284 99.952C100.626 100.144 100.882 100.395 101.052 100.704C101.234 101.013 101.324 101.381 101.324 101.808C101.324 102.555 101.042 103.136 100.476 103.552C99.9216 103.957 99.143 104.16 98.1403 104.16Z" fill="black"/>
<path d="M80 4.22795e-05C124.183 4.03482e-05 160 35.8172 160 80C160 124.183 124.183 160 80 160C35.8172 160 -1.56562e-06 124.183 -3.49691e-06 80C-5.4282e-06 35.8173 35.8172 4.42107e-05 80 4.22795e-05ZM80 148.8C117.997 148.8 148.8 117.997 148.8 80C148.8 42.0028 117.997 11.2 80 11.2C42.0028 11.2 11.2 42.0028 11.2 80C11.2 117.997 42.0028 148.8 80 148.8Z" fill="#E6D1BF"/>
<path d="M80 4.22795e-05C96.0366 4.15785e-05 111.703 4.81968 124.967 13.8336C138.23 22.8475 148.479 35.6396 154.382 50.5501L143.969 54.6731C138.892 41.8501 130.078 30.8489 118.671 23.0969C107.265 15.3449 93.7915 11.2 80 11.2L80 4.22795e-05Z" fill="#A86133"/>
<path d="M126.214 165.11C125.722 165.11 125.323 165.015 125.015 164.824C124.714 164.626 124.505 164.402 124.388 164.153H124.091L124.146 162.756H124.355C124.355 163.057 124.41 163.306 124.52 163.504C124.637 163.702 124.809 163.852 125.037 163.955C125.264 164.05 125.535 164.098 125.851 164.098C126.107 164.098 126.331 164.065 126.522 163.999C126.712 163.933 126.866 163.83 126.984 163.691C127.108 163.552 127.196 163.365 127.248 163.13C127.306 162.888 127.336 162.598 127.336 162.261C127.336 161.924 127.306 161.641 127.248 161.414C127.196 161.179 127.108 160.989 126.984 160.842C126.866 160.695 126.712 160.593 126.522 160.534C126.338 160.468 126.115 160.435 125.851 160.435C125.535 160.435 125.264 160.486 125.037 160.589C124.809 160.684 124.637 160.831 124.52 161.029C124.41 161.22 124.355 161.469 124.355 161.777H124.146L124.091 160.435H124.311C124.443 160.12 124.659 159.874 124.96 159.698C125.268 159.515 125.66 159.423 126.137 159.423C126.907 159.423 127.497 159.68 127.908 160.193C128.318 160.706 128.524 161.396 128.524 162.261C128.524 163.126 128.326 163.819 127.93 164.34C127.534 164.853 126.962 165.11 126.214 165.11ZM124.355 166.903H123.178V159.533H124.256V160.831L124.355 160.974V166.903ZM134.227 165H133.127V163.922L133.094 163.625V161.524C133.094 161.113 132.995 160.835 132.797 160.688C132.606 160.541 132.294 160.468 131.862 160.468C131.429 160.468 131.117 160.545 130.927 160.699C130.743 160.853 130.652 161.11 130.652 161.469V161.634H129.508V161.524C129.508 161.113 129.607 160.75 129.805 160.435C130.01 160.12 130.292 159.874 130.652 159.698C131.018 159.515 131.444 159.423 131.928 159.423C132.441 159.423 132.866 159.518 133.204 159.709C133.541 159.9 133.794 160.164 133.963 160.501C134.139 160.831 134.227 161.223 134.227 161.678V165ZM131.092 165.11C130.6 165.11 130.186 164.985 129.849 164.736C129.519 164.479 129.354 164.116 129.354 163.647C129.354 163.339 129.423 163.082 129.563 162.877C129.709 162.672 129.918 162.503 130.19 162.371C130.461 162.239 130.791 162.147 131.18 162.096L133.204 161.81V162.646L131.356 162.921C131.04 162.965 130.82 163.031 130.696 163.119C130.571 163.207 130.509 163.354 130.509 163.559C130.509 163.772 130.582 163.926 130.729 164.021C130.883 164.116 131.132 164.164 131.477 164.164C131.741 164.164 131.994 164.124 132.236 164.043C132.485 163.955 132.69 163.812 132.852 163.614C133.013 163.409 133.094 163.123 133.094 162.756L133.248 164.153L133.072 164.142C132.969 164.311 132.826 164.468 132.643 164.615C132.467 164.762 132.25 164.883 131.994 164.978C131.737 165.066 131.436 165.11 131.092 165.11ZM140.536 165H139.348V161.821C139.348 161.337 139.256 160.989 139.073 160.776C138.889 160.556 138.545 160.446 138.039 160.446C137.716 160.446 137.452 160.494 137.247 160.589C137.041 160.677 136.887 160.824 136.785 161.029C136.682 161.227 136.631 161.498 136.631 161.843H136.422L136.323 160.556H136.587C136.667 160.358 136.788 160.175 136.95 160.006C137.111 159.837 137.316 159.698 137.566 159.588C137.822 159.478 138.127 159.423 138.479 159.423C138.955 159.423 139.344 159.515 139.645 159.698C139.945 159.881 140.169 160.134 140.316 160.457C140.462 160.78 140.536 161.15 140.536 161.568V165ZM136.631 165H135.443V159.533H136.532V161.172L136.631 161.227V165ZM143.92 165.11C143.142 165.11 142.545 164.853 142.127 164.34C141.716 163.819 141.511 163.126 141.511 162.261C141.511 161.396 141.712 160.706 142.116 160.193C142.526 159.68 143.106 159.423 143.854 159.423C144.338 159.423 144.726 159.522 145.02 159.72C145.32 159.911 145.529 160.131 145.647 160.38H145.944L145.889 161.777H145.68C145.68 161.469 145.621 161.216 145.504 161.018C145.386 160.82 145.218 160.673 144.998 160.578C144.778 160.483 144.506 160.435 144.184 160.435C143.92 160.435 143.692 160.468 143.502 160.534C143.318 160.6 143.164 160.703 143.04 160.842C142.922 160.981 142.834 161.168 142.776 161.403C142.724 161.638 142.699 161.924 142.699 162.261C142.699 162.591 142.724 162.877 142.776 163.119C142.834 163.354 142.922 163.544 143.04 163.691C143.164 163.83 143.322 163.933 143.513 163.999C143.703 164.065 143.927 164.098 144.184 164.098C144.506 164.098 144.778 164.05 144.998 163.955C145.218 163.852 145.386 163.702 145.504 163.504C145.621 163.306 145.68 163.057 145.68 162.756H145.889L145.944 164.098H145.724C145.599 164.413 145.383 164.663 145.075 164.846C144.774 165.022 144.389 165.11 143.92 165.11ZM146.868 165H145.768V163.702L145.68 163.559V157.63H146.868V165ZM152.692 165H151.592V163.922L151.559 163.625V161.524C151.559 161.113 151.46 160.835 151.262 160.688C151.072 160.541 150.76 160.468 150.327 160.468C149.895 160.468 149.583 160.545 149.392 160.699C149.209 160.853 149.117 161.11 149.117 161.469V161.634H147.973V161.524C147.973 161.113 148.072 160.75 148.27 160.435C148.476 160.12 148.758 159.874 149.117 159.698C149.484 159.515 149.909 159.423 150.393 159.423C150.907 159.423 151.332 159.518 151.669 159.709C152.007 159.9 152.26 160.164 152.428 160.501C152.604 160.831 152.692 161.223 152.692 161.678V165ZM149.557 165.11C149.066 165.11 148.652 164.985 148.314 164.736C147.984 164.479 147.819 164.116 147.819 163.647C147.819 163.339 147.889 163.082 148.028 162.877C148.175 162.672 148.384 162.503 148.655 162.371C148.927 162.239 149.257 162.147 149.645 162.096L151.669 161.81V162.646L149.821 162.921C149.506 162.965 149.286 163.031 149.161 163.119C149.037 163.207 148.974 163.354 148.974 163.559C148.974 163.772 149.048 163.926 149.194 164.021C149.348 164.116 149.598 164.164 149.942 164.164C150.206 164.164 150.459 164.124 150.701 164.043C150.951 163.955 151.156 163.812 151.317 163.614C151.479 163.409 151.559 163.123 151.559 162.756L151.713 164.153L151.537 164.142C151.435 164.311 151.292 164.468 151.108 164.615C150.932 164.762 150.716 164.883 150.459 164.978C150.203 165.066 149.902 165.11 149.557 165.11ZM159.002 165H157.814V161.821C157.814 161.337 157.722 160.989 157.539 160.776C157.355 160.556 157.011 160.446 156.505 160.446C156.182 160.446 155.918 160.494 155.713 160.589C155.507 160.677 155.353 160.824 155.251 161.029C155.148 161.227 155.097 161.498 155.097 161.843H154.888L154.789 160.556H155.053C155.133 160.358 155.254 160.175 155.416 160.006C155.577 159.837 155.782 159.698 156.032 159.588C156.288 159.478 156.593 159.423 156.945 159.423C157.421 159.423 157.81 159.515 158.111 159.698C158.411 159.881 158.635 160.134 158.782 160.457C158.928 160.78 159.002 161.15 159.002 161.568V165ZM155.097 165H153.909V159.533H154.998V161.172L155.097 161.227V165ZM165.142 165.11C164.438 165.11 163.869 165.011 163.437 164.813C163.011 164.615 162.703 164.34 162.513 163.988C162.322 163.629 162.227 163.214 162.227 162.745V162.569H163.404V162.734C163.404 163.035 163.448 163.284 163.536 163.482C163.624 163.673 163.792 163.812 164.042 163.9C164.298 163.981 164.669 164.021 165.153 164.021C165.739 164.021 166.157 163.937 166.407 163.768C166.656 163.599 166.781 163.299 166.781 162.866C166.781 162.411 166.667 162.1 166.44 161.931C166.22 161.762 165.857 161.678 165.351 161.678H163.877V160.688H165.186C165.67 160.688 166.014 160.615 166.22 160.468C166.425 160.321 166.528 160.057 166.528 159.676C166.528 159.287 166.41 159.012 166.176 158.851C165.948 158.682 165.574 158.598 165.054 158.598C164.628 158.598 164.295 158.642 164.053 158.73C163.818 158.818 163.649 158.957 163.547 159.148C163.451 159.339 163.404 159.588 163.404 159.896V159.984H162.227V159.885C162.227 159.416 162.333 159.005 162.546 158.653C162.766 158.294 163.085 158.015 163.503 157.817C163.928 157.619 164.449 157.52 165.065 157.52C165.622 157.52 166.095 157.597 166.484 157.751C166.88 157.898 167.184 158.118 167.397 158.411C167.609 158.697 167.716 159.056 167.716 159.489C167.716 159.907 167.606 160.263 167.386 160.556C167.166 160.842 166.821 161.022 166.352 161.095V161.139C166.858 161.205 167.254 161.399 167.54 161.722C167.833 162.037 167.98 162.463 167.98 162.998C167.98 163.467 167.859 163.86 167.617 164.175C167.382 164.49 167.052 164.725 166.627 164.879C166.201 165.033 165.706 165.11 165.142 165.11ZM172.101 165.11C171.565 165.11 171.096 165.018 170.693 164.835C170.297 164.644 169.989 164.377 169.769 164.032C169.549 163.687 169.439 163.28 169.439 162.811V162.745H170.693V162.811C170.693 163.038 170.737 163.24 170.825 163.416C170.913 163.592 171.067 163.728 171.287 163.823C171.507 163.911 171.807 163.955 172.189 163.955C172.658 163.955 173.01 163.878 173.245 163.724C173.487 163.57 173.652 163.328 173.74 162.998C173.835 162.661 173.883 162.221 173.883 161.678V161.073H173.828C173.718 161.286 173.567 161.476 173.377 161.645C173.193 161.814 172.959 161.949 172.673 162.052C172.387 162.147 172.035 162.195 171.617 162.195C171.074 162.195 170.619 162.103 170.253 161.92C169.886 161.729 169.607 161.465 169.417 161.128C169.233 160.783 169.142 160.376 169.142 159.907C169.142 159.181 169.387 158.602 169.879 158.169C170.37 157.736 171.089 157.52 172.035 157.52C172.783 157.52 173.38 157.656 173.828 157.927C174.275 158.191 174.598 158.602 174.796 159.159C174.994 159.716 175.093 160.435 175.093 161.315C175.093 161.909 175.034 162.441 174.917 162.91C174.807 163.379 174.631 163.779 174.389 164.109C174.147 164.432 173.835 164.681 173.454 164.857C173.08 165.026 172.629 165.11 172.101 165.11ZM172.002 161.194C172.42 161.194 172.753 161.15 173.003 161.062C173.252 160.967 173.432 160.824 173.542 160.633C173.652 160.442 173.707 160.208 173.707 159.929C173.707 159.643 173.652 159.405 173.542 159.214C173.432 159.023 173.252 158.884 173.003 158.796C172.753 158.708 172.42 158.664 172.002 158.664C171.576 158.664 171.239 158.708 170.99 158.796C170.748 158.884 170.572 159.023 170.462 159.214C170.359 159.405 170.308 159.643 170.308 159.929C170.308 160.222 170.359 160.464 170.462 160.655C170.564 160.838 170.74 160.974 170.99 161.062C171.239 161.15 171.576 161.194 172.002 161.194ZM177.18 166.87C177.033 166.87 176.883 166.859 176.729 166.837C176.575 166.822 176.45 166.8 176.355 166.771V165.803H177.114C177.341 165.803 177.51 165.77 177.62 165.704C177.73 165.645 177.833 165.517 177.928 165.319L178.269 164.549L178.17 164.934L175.805 159.533H177.114L178.214 162.184L178.709 163.372H178.808L179.248 162.184L180.249 159.533H181.569L178.973 165.638C178.841 165.968 178.691 166.221 178.522 166.397C178.353 166.573 178.159 166.694 177.939 166.76C177.726 166.833 177.473 166.87 177.18 166.87ZM184.427 165.11C183.833 165.11 183.338 164.993 182.942 164.758C182.546 164.516 182.252 164.182 182.062 163.757C181.871 163.324 181.776 162.826 181.776 162.261C181.776 161.696 181.882 161.201 182.095 160.776C182.315 160.351 182.623 160.021 183.019 159.786C183.415 159.544 183.884 159.423 184.427 159.423C184.918 159.423 185.351 159.518 185.725 159.709C186.106 159.892 186.399 160.16 186.605 160.512C186.817 160.864 186.924 161.289 186.924 161.788C186.924 161.935 186.916 162.078 186.902 162.217C186.894 162.349 186.883 162.459 186.869 162.547H182.337V161.755H185.901L185.78 161.865C185.809 161.528 185.772 161.253 185.67 161.04C185.574 160.827 185.417 160.67 185.197 160.567C184.984 160.464 184.716 160.413 184.394 160.413C183.814 160.413 183.418 160.56 183.206 160.853C182.993 161.139 182.887 161.535 182.887 162.041V162.371C182.887 162.738 182.931 163.049 183.019 163.306C183.114 163.555 183.275 163.742 183.503 163.867C183.73 163.992 184.042 164.054 184.438 164.054C184.9 164.054 185.226 163.981 185.417 163.834C185.607 163.687 185.703 163.493 185.703 163.251V163.163H186.88V163.262C186.88 163.636 186.777 163.962 186.572 164.241C186.366 164.512 186.08 164.725 185.714 164.879C185.354 165.033 184.925 165.11 184.427 165.11ZM185.12 158.84H183.877L182.359 157.465V157.41H183.932L185.12 158.785V158.84ZM196.728 165H195.54V161.821C195.54 161.337 195.449 160.989 195.265 160.776C195.089 160.556 194.752 160.446 194.253 160.446C193.806 160.446 193.472 160.552 193.252 160.765C193.04 160.97 192.933 161.322 192.933 161.821L192.724 161.843L192.625 160.556H192.801C192.889 160.365 193.01 160.186 193.164 160.017C193.326 159.841 193.531 159.698 193.78 159.588C194.03 159.478 194.334 159.423 194.693 159.423C195.17 159.423 195.555 159.515 195.848 159.698C196.149 159.881 196.369 160.134 196.508 160.457C196.655 160.78 196.728 161.15 196.728 161.568V165ZM189.138 165H187.95V159.533H189.039V161.172L189.138 161.227V165ZM192.933 165H191.745V161.821C191.745 161.337 191.654 160.989 191.47 160.776C191.294 160.556 190.957 160.446 190.458 160.446C190.011 160.446 189.677 160.549 189.457 160.754C189.245 160.959 189.138 161.311 189.138 161.81L188.929 161.843L188.83 160.556H189.094C189.175 160.358 189.292 160.175 189.446 160.006C189.608 159.837 189.813 159.698 190.062 159.588C190.312 159.478 190.609 159.423 190.953 159.423C191.415 159.423 191.789 159.515 192.075 159.698C192.369 159.881 192.585 160.134 192.724 160.457C192.864 160.78 192.933 161.15 192.933 161.568V165ZM135.765 173.11C134.966 173.11 134.361 172.952 133.95 172.637C133.54 172.314 133.334 171.819 133.334 171.152V171.13H134.478V171.328C134.478 171.519 134.515 171.676 134.588 171.801C134.669 171.918 134.801 172.006 134.984 172.065C135.175 172.116 135.443 172.142 135.787 172.142C136.081 172.142 136.301 172.12 136.447 172.076C136.601 172.025 136.704 171.955 136.755 171.867C136.807 171.779 136.832 171.669 136.832 171.537C136.832 171.317 136.755 171.163 136.601 171.075C136.447 170.98 136.172 170.895 135.776 170.822L134.918 170.679C134.596 170.613 134.313 170.521 134.071 170.404C133.837 170.279 133.653 170.111 133.521 169.898C133.397 169.678 133.334 169.403 133.334 169.073C133.334 168.582 133.529 168.186 133.917 167.885C134.306 167.577 134.856 167.423 135.567 167.423C136 167.423 136.385 167.493 136.722 167.632C137.06 167.771 137.327 167.98 137.525 168.259C137.723 168.538 137.822 168.886 137.822 169.304V169.403H136.689V169.271C136.689 169.095 136.66 168.945 136.601 168.82C136.543 168.688 136.433 168.585 136.271 168.512C136.11 168.439 135.864 168.402 135.534 168.402C135.102 168.402 134.816 168.457 134.676 168.567C134.537 168.677 134.467 168.838 134.467 169.051C134.467 169.264 134.53 169.414 134.654 169.502C134.786 169.583 135.043 169.663 135.424 169.744L136.359 169.92C136.711 169.986 137.005 170.085 137.239 170.217C137.474 170.349 137.65 170.521 137.767 170.734C137.892 170.947 137.954 171.2 137.954 171.493C137.954 172.006 137.76 172.406 137.371 172.692C136.99 172.971 136.455 173.11 135.765 173.11ZM141.422 173.11C140.828 173.11 140.333 172.993 139.937 172.758C139.541 172.516 139.248 172.182 139.057 171.757C138.867 171.324 138.771 170.826 138.771 170.261C138.771 169.696 138.878 169.201 139.09 168.776C139.31 168.351 139.618 168.021 140.014 167.786C140.41 167.544 140.88 167.423 141.422 167.423C141.914 167.423 142.346 167.518 142.72 167.709C143.102 167.892 143.395 168.16 143.6 168.512C143.813 168.864 143.919 169.289 143.919 169.788C143.919 169.935 143.912 170.078 143.897 170.217C143.89 170.349 143.879 170.459 143.864 170.547H139.332V169.755H142.896L142.775 169.865C142.805 169.528 142.768 169.253 142.665 169.04C142.57 168.827 142.412 168.67 142.192 168.567C141.98 168.464 141.712 168.413 141.389 168.413C140.81 168.413 140.414 168.56 140.201 168.853C139.989 169.139 139.882 169.535 139.882 170.041V170.371C139.882 170.738 139.926 171.049 140.014 171.306C140.11 171.555 140.271 171.742 140.498 171.867C140.726 171.992 141.037 172.054 141.433 172.054C141.895 172.054 142.222 171.981 142.412 171.834C142.603 171.687 142.698 171.493 142.698 171.251V171.163H143.875V171.262C143.875 171.636 143.773 171.962 143.567 172.241C143.362 172.512 143.076 172.725 142.709 172.879C142.35 173.033 141.921 173.11 141.422 173.11ZM153.724 173H152.536V169.821C152.536 169.337 152.444 168.989 152.261 168.776C152.085 168.556 151.748 168.446 151.249 168.446C150.802 168.446 150.468 168.552 150.248 168.765C150.035 168.97 149.929 169.322 149.929 169.821L149.72 169.843L149.621 168.556H149.797C149.885 168.365 150.006 168.186 150.16 168.017C150.321 167.841 150.527 167.698 150.776 167.588C151.025 167.478 151.33 167.423 151.689 167.423C152.166 167.423 152.551 167.515 152.844 167.698C153.145 167.881 153.365 168.134 153.504 168.457C153.651 168.78 153.724 169.15 153.724 169.568V173ZM146.134 173H144.946V167.533H146.035V169.172L146.134 169.227V173ZM149.929 173H148.741V169.821C148.741 169.337 148.649 168.989 148.466 168.776C148.29 168.556 147.953 168.446 147.454 168.446C147.007 168.446 146.673 168.549 146.453 168.754C146.24 168.959 146.134 169.311 146.134 169.81L145.925 169.843L145.826 168.556H146.09C146.171 168.358 146.288 168.175 146.442 168.006C146.603 167.837 146.809 167.698 147.058 167.588C147.307 167.478 147.604 167.423 147.949 167.423C148.411 167.423 148.785 167.515 149.071 167.698C149.364 167.881 149.581 168.134 149.72 168.457C149.859 168.78 149.929 169.15 149.929 169.568V173ZM157.349 173.11C156.755 173.11 156.26 172.993 155.864 172.758C155.468 172.516 155.175 172.182 154.984 171.757C154.794 171.324 154.698 170.826 154.698 170.261C154.698 169.696 154.805 169.201 155.017 168.776C155.237 168.351 155.545 168.021 155.941 167.786C156.337 167.544 156.807 167.423 157.349 167.423C157.841 167.423 158.273 167.518 158.647 167.709C159.029 167.892 159.322 168.16 159.527 168.512C159.74 168.864 159.846 169.289 159.846 169.788C159.846 169.935 159.839 170.078 159.824 170.217C159.817 170.349 159.806 170.459 159.791 170.547H155.259V169.755H158.823L158.702 169.865C158.732 169.528 158.695 169.253 158.592 169.04C158.497 168.827 158.339 168.67 158.119 168.567C157.907 168.464 157.639 168.413 157.316 168.413C156.737 168.413 156.341 168.56 156.128 168.853C155.916 169.139 155.809 169.535 155.809 170.041V170.371C155.809 170.738 155.853 171.049 155.941 171.306C156.037 171.555 156.198 171.742 156.425 171.867C156.653 171.992 156.964 172.054 157.36 172.054C157.822 172.054 158.149 171.981 158.339 171.834C158.53 171.687 158.625 171.493 158.625 171.251V171.163H159.802V171.262C159.802 171.636 159.7 171.962 159.494 172.241C159.289 172.512 159.003 172.725 158.636 172.879C158.277 173.033 157.848 173.11 157.349 173.11ZM158.042 166.84H156.799L155.281 165.465V165.41H156.854L158.042 166.785V166.84ZM165.966 173H164.778V169.821C164.778 169.337 164.686 168.989 164.503 168.776C164.32 168.556 163.975 168.446 163.469 168.446C163.146 168.446 162.882 168.494 162.677 168.589C162.472 168.677 162.318 168.824 162.215 169.029C162.112 169.227 162.061 169.498 162.061 169.843H161.852L161.753 168.556H162.017C162.098 168.358 162.219 168.175 162.38 168.006C162.541 167.837 162.747 167.698 162.996 167.588C163.253 167.478 163.557 167.423 163.909 167.423C164.386 167.423 164.774 167.515 165.075 167.698C165.376 167.881 165.599 168.134 165.746 168.457C165.893 168.78 165.966 169.15 165.966 169.568V173ZM162.061 173H160.873V167.533H161.962V169.172L162.061 169.227V173ZM174.427 173H173.239V169.821C173.239 169.337 173.148 168.989 172.964 168.776C172.781 168.556 172.436 168.446 171.93 168.446C171.608 168.446 171.344 168.494 171.138 168.589C170.933 168.677 170.779 168.824 170.676 169.029C170.574 169.227 170.522 169.498 170.522 169.843H170.313L170.214 168.556H170.478C170.559 168.358 170.68 168.175 170.841 168.006C171.003 167.837 171.208 167.698 171.457 167.588C171.714 167.478 172.018 167.423 172.37 167.423C172.847 167.423 173.236 167.515 173.536 167.698C173.837 167.881 174.061 168.134 174.207 168.457C174.354 168.78 174.427 169.15 174.427 169.568V173ZM170.522 173H169.334V167.533H170.423V169.172L170.522 169.227V173ZM180.253 173H179.153V171.922L179.12 171.625V169.524C179.12 169.113 179.021 168.835 178.823 168.688C178.632 168.541 178.321 168.468 177.888 168.468C177.455 168.468 177.144 168.545 176.953 168.699C176.77 168.853 176.678 169.11 176.678 169.469V169.634H175.534V169.524C175.534 169.113 175.633 168.75 175.831 168.435C176.036 168.12 176.319 167.874 176.678 167.698C177.045 167.515 177.47 167.423 177.954 167.423C178.467 167.423 178.893 167.518 179.23 167.709C179.567 167.9 179.82 168.164 179.989 168.501C180.165 168.831 180.253 169.223 180.253 169.678V173ZM177.118 173.11C176.627 173.11 176.212 172.985 175.875 172.736C175.545 172.479 175.38 172.116 175.38 171.647C175.38 171.339 175.45 171.082 175.589 170.877C175.736 170.672 175.945 170.503 176.216 170.371C176.487 170.239 176.817 170.147 177.206 170.096L179.23 169.81V170.646L177.382 170.921C177.067 170.965 176.847 171.031 176.722 171.119C176.597 171.207 176.535 171.354 176.535 171.559C176.535 171.772 176.608 171.926 176.755 172.021C176.909 172.116 177.158 172.164 177.503 172.164C177.767 172.164 178.02 172.124 178.262 172.043C178.511 171.955 178.717 171.812 178.878 171.614C179.039 171.409 179.12 171.123 179.12 170.756L179.274 172.153L179.098 172.142C178.995 172.311 178.852 172.468 178.669 172.615C178.493 172.762 178.277 172.883 178.02 172.978C177.763 173.066 177.463 173.11 177.118 173.11ZM186.562 173H185.374V169.821C185.374 169.337 185.283 168.989 185.099 168.776C184.916 168.556 184.571 168.446 184.065 168.446C183.743 168.446 183.479 168.494 183.273 168.589C183.068 168.677 182.914 168.824 182.811 169.029C182.709 169.227 182.657 169.498 182.657 169.843H182.448L182.349 168.556H182.613C182.694 168.358 182.815 168.175 182.976 168.006C183.138 167.837 183.343 167.698 183.592 167.588C183.849 167.478 184.153 167.423 184.505 167.423C184.982 167.423 185.371 167.515 185.671 167.698C185.972 167.881 186.196 168.134 186.342 168.457C186.489 168.78 186.562 169.15 186.562 169.568V173ZM182.657 173H181.469V167.533H182.558V169.172L182.657 169.227V173Z" fill="black"/>
</svg>
