<svg width="90" height="52" viewBox="0 0 90 52" fill="none" xmlns="http://www.w3.org/2000/svg">
<path d="M26.0476 25.7559H24.4384V20.5719H22.8076V19.4163H23.1316C23.812 19.4163 24.2332 19.1679 24.5788 18.5199H26.0476V25.7559ZM30.2277 25.8639C28.5213 25.8639 27.4845 24.9567 27.4845 23.5635V23.4987H29.2017V23.5635C29.2017 24.1035 29.5365 24.3195 30.3357 24.3195C31.3941 24.3195 31.6317 23.8983 31.6317 22.7751V22.1487H31.5777C31.2537 22.6239 30.6813 22.9911 29.6013 22.9911C28.0245 22.9911 27.2145 22.1703 27.2145 20.7987C27.2145 19.3407 28.2297 18.4119 30.1629 18.4119C32.4741 18.4119 33.3057 19.5999 33.3057 22.1703C33.3057 24.6327 32.2797 25.8639 30.2277 25.8639ZM30.1521 21.6843C31.1673 21.6843 31.4913 21.4467 31.4913 20.8311C31.4913 20.2047 31.1673 19.9671 30.1521 19.9671C29.1153 19.9671 28.8021 20.2047 28.8021 20.8311C28.8021 21.4467 29.1153 21.6843 30.1521 21.6843ZM35.8253 21.9975C34.6589 21.9975 33.9245 21.3171 33.9245 20.2047C33.9245 19.0923 34.6589 18.4119 35.8253 18.4119C36.9809 18.4119 37.7153 19.0923 37.7153 20.2047C37.7153 21.3171 36.9809 21.9975 35.8253 21.9975ZM36.1385 25.7559H34.6589L39.8753 18.5199H41.3441L36.1385 25.7559ZM35.8253 20.8959C36.3329 20.8959 36.5057 20.7663 36.5057 20.2047C36.5057 19.6431 36.3329 19.5135 35.8253 19.5135C35.3177 19.5135 35.1449 19.6431 35.1449 20.2047C35.1449 20.7663 35.3177 20.8959 35.8253 20.8959ZM40.1885 25.8639C39.0221 25.8639 38.2877 25.1835 38.2877 24.0711C38.2877 22.9587 39.0221 22.2783 40.1885 22.2783C41.3549 22.2783 42.0785 22.9587 42.0785 24.0711C42.0785 25.1835 41.3549 25.8639 40.1885 25.8639ZM40.1885 24.7623C40.6961 24.7623 40.8689 24.6327 40.8689 24.0711C40.8689 23.5095 40.6961 23.3799 40.1885 23.3799C39.6809 23.3799 39.5081 23.5095 39.5081 24.0711C39.5081 24.6327 39.6809 24.7623 40.1885 24.7623Z" fill="black"/>
<path d="M22.6009 34.2642C22.1806 34.2642 21.8166 34.1732 21.5089 33.9912C21.2056 33.8049 20.9716 33.5449 20.8069 33.2112C20.6466 32.8732 20.5664 32.4767 20.5664 32.0217C20.5664 31.5667 20.6466 31.1724 20.8069 30.8387C20.9716 30.5007 21.2056 30.2407 21.5089 30.0587C21.8166 29.8724 22.1806 29.7792 22.6009 29.7792C22.9953 29.7792 23.3311 29.8486 23.6084 29.9872C23.8858 30.1259 24.1003 30.3209 24.2519 30.5722C24.4036 30.8236 24.4794 31.1247 24.4794 31.4757V31.5147H23.7384V31.4757C23.7384 31.1204 23.6474 30.8626 23.4654 30.7022C23.2878 30.5376 22.9931 30.4552 22.5814 30.4552C22.2824 30.4552 22.0398 30.5072 21.8534 30.6112C21.6671 30.7152 21.5306 30.8821 21.4439 31.1117C21.3573 31.3414 21.3139 31.6447 21.3139 32.0217C21.3139 32.3944 21.3573 32.6977 21.4439 32.9317C21.5306 33.1614 21.6671 33.3282 21.8534 33.4322C22.0398 33.5319 22.2824 33.5817 22.5814 33.5817C22.9931 33.5817 23.2878 33.5016 23.4654 33.3412C23.6474 33.1809 23.7384 32.9231 23.7384 32.5677V32.5287H24.4794V32.5677C24.4794 32.9144 24.4036 33.2156 24.2519 33.4712C24.1003 33.7226 23.8858 33.9176 23.6084 34.0562C23.3311 34.1949 22.9953 34.2642 22.6009 34.2642ZM28.1641 34.1992H27.4621V32.3207C27.4621 32.0347 27.4058 31.8289 27.2931 31.7032C27.1848 31.5732 26.9833 31.5082 26.6886 31.5082C26.4069 31.5082 26.1968 31.5711 26.0581 31.6967C25.9238 31.8181 25.8566 32.0326 25.8566 32.3402H25.7331L25.7266 31.5082H25.8826C25.9346 31.4086 26.0061 31.3132 26.0971 31.2222C26.1924 31.1269 26.3116 31.0511 26.4546 30.9947C26.6019 30.9341 26.7709 30.9037 26.9616 30.9037C27.2476 30.9037 27.4773 30.9601 27.6506 31.0727C27.8283 31.1811 27.9583 31.3306 28.0406 31.5212C28.1229 31.7119 28.1641 31.9264 28.1641 32.1647V34.1992ZM25.8566 34.1992H25.1546V29.8442H25.8566V34.1992ZM31.6578 34.1992H31.0078V33.5622L30.9883 33.3867V32.1452C30.9883 31.9026 30.9298 31.7379 30.8128 31.6512C30.7002 31.5646 30.516 31.5212 30.2603 31.5212C30.0047 31.5212 29.8205 31.5667 29.7078 31.6577C29.5995 31.7487 29.5453 31.9004 29.5453 32.1127V32.2102H28.8693V32.1452C28.8693 31.9026 28.9278 31.6881 29.0448 31.5017C29.1662 31.3154 29.333 31.1702 29.5453 31.0662C29.762 30.9579 30.0133 30.9037 30.2993 30.9037C30.6027 30.9037 30.854 30.9601 31.0533 31.0727C31.2527 31.1854 31.4022 31.3414 31.5018 31.5407C31.6058 31.7357 31.6578 31.9676 31.6578 32.2362V34.1992ZM29.8053 34.2642C29.515 34.2642 29.2702 34.1906 29.0708 34.0432C28.8758 33.8916 28.7783 33.6771 28.7783 33.3997C28.7783 33.2177 28.8195 33.0661 28.9018 32.9447C28.9885 32.8234 29.112 32.7237 29.2723 32.6457C29.4327 32.5677 29.6277 32.5136 29.8573 32.4832L31.0533 32.3142V32.8082L29.9613 32.9707C29.775 32.9967 29.645 33.0357 29.5713 33.0877C29.4977 33.1397 29.4608 33.2264 29.4608 33.3477C29.4608 33.4734 29.5042 33.5644 29.5908 33.6207C29.6818 33.6771 29.8292 33.7052 30.0328 33.7052C30.1888 33.7052 30.3383 33.6814 30.4813 33.6337C30.6287 33.5817 30.75 33.4972 30.8453 33.3802C30.9407 33.2589 30.9883 33.0899 30.9883 32.8732L31.0793 33.6987L30.9753 33.6922C30.9147 33.7919 30.8302 33.8851 30.7218 33.9717C30.6178 34.0584 30.49 34.1299 30.3383 34.1862C30.1867 34.2382 30.009 34.2642 29.8053 34.2642ZM35.4183 34.1992H34.7163V32.3207C34.7163 32.0347 34.6621 31.8289 34.5538 31.7032C34.4454 31.5732 34.2418 31.5082 33.9428 31.5082C33.7521 31.5082 33.5961 31.5364 33.4748 31.5927C33.3534 31.6447 33.2624 31.7314 33.2018 31.8527C33.1411 31.9697 33.1108 32.1301 33.1108 32.3337H32.9873L32.9288 31.5732H33.0848C33.1324 31.4562 33.2039 31.3479 33.2993 31.2482C33.3946 31.1486 33.5159 31.0662 33.6633 31.0012C33.8149 30.9362 33.9948 30.9037 34.2028 30.9037C34.4844 30.9037 34.7141 30.9579 34.8918 31.0662C35.0694 31.1746 35.2016 31.3241 35.2883 31.5147C35.3749 31.7054 35.4183 31.9242 35.4183 32.1712V34.1992ZM33.1108 34.1992H32.4088V30.9687H33.0523V31.9372L33.1108 31.9697V34.1992ZM37.606 34.2707C37.268 34.2707 36.982 34.1992 36.748 34.0562C36.514 33.9132 36.3341 33.7161 36.2085 33.4647C36.0871 33.2134 36.0265 32.9209 36.0265 32.5872C36.0265 32.2536 36.0893 31.9611 36.215 31.7097C36.345 31.4541 36.5291 31.2569 36.7675 31.1182C37.0058 30.9752 37.294 30.9037 37.632 30.9037C37.918 30.9037 38.1693 30.9579 38.386 31.0662C38.6026 31.1746 38.7695 31.3262 38.8865 31.5212C39.0078 31.7162 39.0685 31.9437 39.0685 32.2037V32.2622H38.373V32.2232C38.373 31.9849 38.308 31.8116 38.178 31.7032C38.0523 31.5906 37.8551 31.5342 37.5865 31.5342C37.2745 31.5342 37.0513 31.6231 36.917 31.8007C36.787 31.9741 36.722 32.2341 36.722 32.5807C36.722 32.9317 36.787 33.1961 36.917 33.3737C37.0513 33.5471 37.2745 33.6337 37.5865 33.6337C37.8551 33.6337 38.0523 33.5796 38.178 33.4712C38.308 33.3586 38.373 33.1852 38.373 32.9512V32.9122H39.0685V32.9707C39.0685 33.2221 39.0078 33.4474 38.8865 33.6467C38.7651 33.8417 38.594 33.9956 38.373 34.1082C38.1563 34.2166 37.9006 34.2707 37.606 34.2707ZM41.1439 34.2642C40.7929 34.2642 40.5004 34.1949 40.2664 34.0562C40.0324 33.9132 39.8591 33.7161 39.7464 33.4647C39.6337 33.2091 39.5774 32.9144 39.5774 32.5807C39.5774 32.2471 39.6402 31.9546 39.7659 31.7032C39.8959 31.4519 40.0779 31.2569 40.3119 31.1182C40.5459 30.9752 40.8232 30.9037 41.1439 30.9037C41.4342 30.9037 41.6899 30.9601 41.9109 31.0727C42.1362 31.1811 42.3096 31.3392 42.4309 31.5472C42.5566 31.7552 42.6194 32.0066 42.6194 32.3012C42.6194 32.3879 42.6151 32.4724 42.6064 32.5547C42.6021 32.6327 42.5956 32.6977 42.5869 32.7497H39.9089V32.2817H42.0149L41.9434 32.3467C41.9607 32.1474 41.9391 31.9849 41.8784 31.8592C41.8221 31.7336 41.7289 31.6404 41.5989 31.5797C41.4732 31.5191 41.3151 31.4887 41.1244 31.4887C40.7821 31.4887 40.5481 31.5754 40.4224 31.7487C40.2967 31.9177 40.2339 32.1517 40.2339 32.4507V32.6457C40.2339 32.8624 40.2599 33.0466 40.3119 33.1982C40.3682 33.3456 40.4636 33.4561 40.5979 33.5297C40.7322 33.6034 40.9164 33.6402 41.1504 33.6402C41.4234 33.6402 41.6162 33.5969 41.7289 33.5102C41.8416 33.4236 41.8979 33.3087 41.8979 33.1657V33.1137H42.5934V33.1722C42.5934 33.3932 42.5327 33.5861 42.4114 33.7507C42.2901 33.9111 42.1211 34.0367 41.9044 34.1277C41.6921 34.2187 41.4386 34.2642 41.1439 34.2642Z" fill="black"/>
<path d="M32.3998 0.801169C46.1861 0.801169 57.362 12.0836 57.362 26.0012C57.362 39.9187 46.1861 51.2012 32.3998 51.2012C18.6135 51.2012 7.4375 39.9187 7.4375 26.0012C7.4375 12.0836 18.6135 0.80117 32.3998 0.801169ZM32.3998 47.4212C44.1181 47.4212 53.6177 37.8311 53.6177 26.0012C53.6177 14.1712 44.1181 4.58117 32.3998 4.58117C20.6814 4.58117 11.1818 14.1712 11.1818 26.0012C11.1818 37.8311 20.6814 47.4212 32.3998 47.4212Z" fill="#D7BEAE"/>
<path d="M32.4002 0.801169C37.4517 0.801169 42.3867 2.31935 46.5647 5.15874C50.7427 7.99812 53.971 12.0276 55.8306 16.7244L52.316 18.1159C50.7354 14.1237 47.9914 10.6986 44.44 8.2851C40.8887 5.87163 36.694 4.58117 32.4002 4.58117L32.4002 0.801169Z" fill="#A86133"/>
<path d="M59.2531 48.1992H58.5511V43.8442H59.2531V48.1992ZM63.0671 48.1992H62.3651V46.3207C62.3651 46.0347 62.311 45.8289 62.2026 45.7032C62.0943 45.5732 61.8906 45.5082 61.5916 45.5082C61.401 45.5082 61.245 45.5364 61.1236 45.5927C61.0023 45.6447 60.9113 45.7314 60.8506 45.8527C60.79 45.9697 60.7596 46.1301 60.7596 46.3337H60.6361L60.5776 45.5732H60.7336C60.7813 45.4562 60.8528 45.3479 60.9481 45.2482C61.0435 45.1486 61.1648 45.0662 61.3121 45.0012C61.4638 44.9362 61.6436 44.9037 61.8516 44.9037C62.1333 44.9037 62.363 44.9579 62.5406 45.0662C62.7183 45.1746 62.8505 45.3241 62.9371 45.5147C63.0238 45.7054 63.0671 45.9242 63.0671 46.1712V48.1992ZM60.7596 48.1992H60.0576V44.9687H60.7011V45.9372L60.7596 45.9697V48.1992ZM66.5649 48.1992H65.6484L64.8489 44.9687H65.6094L65.9799 46.7627L66.1164 47.6142H66.1684L66.3764 46.7627L66.9419 44.9687H67.8519L68.4239 46.7692L68.6319 47.6077H68.6774L68.8139 46.7692L69.1844 44.9687H69.9189L69.1194 48.1992H68.2029L67.6244 46.3987L67.4099 45.5862H67.3644L67.1499 46.3987L66.5649 48.1992ZM71.6708 48.2642C71.3198 48.2642 71.0273 48.1949 70.7933 48.0562C70.5593 47.9132 70.386 47.7161 70.2733 47.4647C70.1607 47.2091 70.1043 46.9144 70.1043 46.5807C70.1043 46.2471 70.1672 45.9546 70.2928 45.7032C70.4228 45.4519 70.6048 45.2569 70.8388 45.1182C71.0728 44.9752 71.3502 44.9037 71.6708 44.9037C71.9612 44.9037 72.2168 44.9601 72.4378 45.0727C72.6632 45.1811 72.8365 45.3392 72.9578 45.5472C73.0835 45.7552 73.1463 46.0066 73.1463 46.3012C73.1463 46.3879 73.142 46.4724 73.1333 46.5547C73.129 46.6327 73.1225 46.6977 73.1138 46.7497H70.4358V46.2817H72.5418L72.4703 46.3467C72.4877 46.1474 72.466 45.9849 72.4053 45.8592C72.349 45.7336 72.2558 45.6404 72.1258 45.5797C72.0002 45.5191 71.842 45.4887 71.6513 45.4887C71.309 45.4887 71.075 45.5754 70.9493 45.7487C70.8237 45.9177 70.7608 46.1517 70.7608 46.4507V46.6457C70.7608 46.8624 70.7868 47.0466 70.8388 47.1982C70.8952 47.3456 70.9905 47.4561 71.1248 47.5297C71.2592 47.6034 71.4433 47.6402 71.6773 47.6402C71.9503 47.6402 72.1432 47.5969 72.2558 47.5102C72.3685 47.4236 72.4248 47.3087 72.4248 47.1657V47.1137H73.1203V47.1722C73.1203 47.3932 73.0597 47.5861 72.9383 47.7507C72.817 47.9111 72.648 48.0367 72.4313 48.1277C72.219 48.2187 71.9655 48.2642 71.6708 48.2642ZM75.2535 48.2642C74.9025 48.2642 74.61 48.1949 74.376 48.0562C74.142 47.9132 73.9686 47.7161 73.856 47.4647C73.7433 47.2091 73.687 46.9144 73.687 46.5807C73.687 46.2471 73.7498 45.9546 73.8755 45.7032C74.0055 45.4519 74.1875 45.2569 74.4215 45.1182C74.6555 44.9752 74.9328 44.9037 75.2535 44.9037C75.5438 44.9037 75.7995 44.9601 76.0205 45.0727C76.2458 45.1811 76.4191 45.3392 76.5405 45.5472C76.6661 45.7552 76.729 46.0066 76.729 46.3012C76.729 46.3879 76.7246 46.4724 76.716 46.5547C76.7116 46.6327 76.7051 46.6977 76.6965 46.7497H74.0185V46.2817H76.1245L76.053 46.3467C76.0703 46.1474 76.0486 45.9849 75.988 45.8592C75.9316 45.7336 75.8385 45.6404 75.7085 45.5797C75.5828 45.5191 75.4246 45.4887 75.234 45.4887C74.8916 45.4887 74.6576 45.5754 74.532 45.7487C74.4063 45.9177 74.3435 46.1517 74.3435 46.4507V46.6457C74.3435 46.8624 74.3695 47.0466 74.4215 47.1982C74.4778 47.3456 74.5731 47.4561 74.7075 47.5297C74.8418 47.6034 75.026 47.6402 75.26 47.6402C75.533 47.6402 75.7258 47.5969 75.8385 47.5102C75.9511 47.4236 76.0075 47.3087 76.0075 47.1657V47.1137H76.703V47.1722C76.703 47.3932 76.6423 47.5861 76.521 47.7507C76.3996 47.9111 76.2306 48.0367 76.014 48.1277C75.8016 48.2187 75.5481 48.2642 75.2535 48.2642ZM80.3902 48.1992H79.5647L78.7197 46.8732H77.6862V46.2492H78.7132L79.5842 44.9687H80.4032L79.2787 46.4962L80.3902 48.1992ZM78.0762 48.1992H77.3742V43.8442H78.0762V48.1992ZM83.8099 48.2642C83.3939 48.2642 83.0581 48.2057 82.8024 48.0887C82.5511 47.9717 82.3691 47.8092 82.2564 47.6012C82.1437 47.3889 82.0874 47.1441 82.0874 46.8667V46.7627H82.7829V46.8602C82.7829 47.0379 82.8089 47.1852 82.8609 47.3022C82.9129 47.4149 83.0126 47.4972 83.1599 47.5492C83.3116 47.5969 83.5304 47.6207 83.8164 47.6207C84.1631 47.6207 84.4101 47.5709 84.5574 47.4712C84.7047 47.3716 84.7784 47.1939 84.7784 46.9382C84.7784 46.6696 84.7112 46.4854 84.5769 46.3857C84.4469 46.2861 84.2324 46.2362 83.9334 46.2362H83.0624V45.6512H83.8359C84.1219 45.6512 84.3256 45.6079 84.4469 45.5212C84.5682 45.4346 84.6289 45.2786 84.6289 45.0532C84.6289 44.8236 84.5596 44.6611 84.4209 44.5657C84.2866 44.4661 84.0656 44.4162 83.7579 44.4162C83.5066 44.4162 83.3094 44.4422 83.1664 44.4942C83.0277 44.5462 82.9281 44.6286 82.8674 44.7412C82.8111 44.8539 82.7829 45.0012 82.7829 45.1832V45.2352H82.0874V45.1767C82.0874 44.8994 82.1502 44.6567 82.2759 44.4487C82.4059 44.2364 82.5944 44.0717 82.8414 43.9547C83.0927 43.8377 83.4004 43.7792 83.7644 43.7792C84.0937 43.7792 84.3732 43.8247 84.6029 43.9157C84.8369 44.0024 85.0167 44.1324 85.1424 44.3057C85.2681 44.4747 85.3309 44.6871 85.3309 44.9427C85.3309 45.1897 85.2659 45.3999 85.1359 45.5732C85.0059 45.7422 84.8022 45.8484 84.5249 45.8917V45.9177C84.8239 45.9567 85.0579 46.0716 85.2269 46.2622C85.4002 46.4486 85.4869 46.6999 85.4869 47.0162C85.4869 47.2936 85.4154 47.5254 85.2724 47.7117C85.1337 47.8981 84.9387 48.0367 84.6874 48.1277C84.4361 48.2187 84.1436 48.2642 83.8099 48.2642ZM87.9542 48.2642C87.6378 48.2642 87.3605 48.2101 87.1222 48.1017C86.8882 47.9891 86.7062 47.8309 86.5762 47.6272C86.4462 47.4236 86.3812 47.1831 86.3812 46.9057V46.8667H87.1222V46.9057C87.1222 47.0401 87.1482 47.1592 87.2002 47.2632C87.2522 47.3672 87.3432 47.4474 87.4732 47.5037C87.6032 47.5557 87.7808 47.5817 88.0062 47.5817C88.2835 47.5817 88.4915 47.5362 88.6302 47.4452C88.7732 47.3542 88.8707 47.2112 88.9227 47.0162C88.979 46.8169 89.0072 46.5569 89.0072 46.2362V45.8787H88.9747C88.9097 46.0044 88.8208 46.1171 88.7082 46.2167C88.5998 46.3164 88.4612 46.3966 88.2922 46.4572C88.1232 46.5136 87.9152 46.5417 87.6682 46.5417C87.3475 46.5417 87.0788 46.4876 86.8622 46.3792C86.6455 46.2666 86.4808 46.1106 86.3682 45.9112C86.2598 45.7076 86.2057 45.4671 86.2057 45.1897C86.2057 44.7607 86.3508 44.4184 86.6412 44.1627C86.9315 43.9071 87.3562 43.7792 87.9152 43.7792C88.3572 43.7792 88.7103 43.8594 88.9747 44.0197C89.239 44.1757 89.4297 44.4184 89.5467 44.7477C89.6637 45.0771 89.7222 45.5017 89.7222 46.0217C89.7222 46.3727 89.6875 46.6869 89.6182 46.9642C89.5532 47.2416 89.4492 47.4777 89.3062 47.6727C89.1632 47.8634 88.979 48.0107 88.7537 48.1147C88.5327 48.2144 88.2662 48.2642 87.9542 48.2642ZM87.8957 45.9502C88.1427 45.9502 88.3398 45.9242 88.4872 45.8722C88.6345 45.8159 88.7407 45.7314 88.8057 45.6187C88.8707 45.5061 88.9032 45.3674 88.9032 45.2027C88.9032 45.0337 88.8707 44.8929 88.8057 44.7802C88.7407 44.6676 88.6345 44.5852 88.4872 44.5332C88.3398 44.4812 88.1427 44.4552 87.8957 44.4552C87.6443 44.4552 87.445 44.4812 87.2977 44.5332C87.1547 44.5852 87.0507 44.6676 86.9857 44.7802C86.925 44.8929 86.8947 45.0337 86.8947 45.2027C86.8947 45.3761 86.925 45.5191 86.9857 45.6317C87.0463 45.7401 87.1503 45.8202 87.2977 45.8722C87.445 45.9242 87.6443 45.9502 87.8957 45.9502Z" fill="black"/>
</svg>
