<svg width="104" height="60" viewBox="0 0 104 60" fill="none" xmlns="http://www.w3.org/2000/svg">
<path d="M22.5378 28H20.9286V22.816H19.2978V21.6604H19.6218C19.9674 21.6604 20.2518 21.592 20.475 21.4552C20.6982 21.3184 20.8962 21.088 21.069 20.764H22.5378V28ZM26.7179 28.108C25.8683 28.108 25.1987 27.8992 24.7091 27.4816C24.2195 27.064 23.9747 26.506 23.9747 25.8076V25.7428H25.6919V25.8076C25.6919 26.074 25.7783 26.2684 25.9511 26.3908C26.1311 26.506 26.4227 26.5636 26.8259 26.5636C27.3371 26.5636 27.6791 26.452 27.8519 26.2288C28.0319 26.0056 28.1219 25.6024 28.1219 25.0192V24.3928H28.0679C27.6863 24.9544 27.0275 25.2352 26.0915 25.2352C25.3139 25.2352 24.7199 25.0444 24.3095 24.6628C23.9063 24.2812 23.7047 23.7412 23.7047 23.0428C23.7047 22.3012 23.9567 21.718 24.4607 21.2932C24.9719 20.8684 25.7027 20.656 26.6531 20.656C27.7907 20.656 28.5971 20.9548 29.0723 21.5524C29.5547 22.15 29.7959 23.104 29.7959 24.4144C29.7959 26.8768 28.7699 28.108 26.7179 28.108ZM26.6423 23.9284C27.1463 23.9284 27.4955 23.8636 27.6899 23.734C27.8843 23.6044 27.9815 23.3848 27.9815 23.0752C27.9815 22.7584 27.8843 22.5352 27.6899 22.4056C27.4955 22.276 27.1463 22.2112 26.6423 22.2112C26.1311 22.2112 25.7783 22.276 25.5839 22.4056C25.3895 22.5352 25.2923 22.7584 25.2923 23.0752C25.2923 23.3848 25.3895 23.6044 25.5839 23.734C25.7783 23.8636 26.1311 23.9284 26.6423 23.9284ZM33.6979 23.7664C33.3595 24.0832 32.8987 24.2416 32.3155 24.2416C31.7323 24.2416 31.2679 24.0832 30.9223 23.7664C30.5839 23.4424 30.4147 23.0032 30.4147 22.4488C30.4147 21.8944 30.5839 21.4588 30.9223 21.142C31.2679 20.818 31.7323 20.656 32.3155 20.656C32.8987 20.656 33.3595 20.818 33.6979 21.142C34.0363 21.4588 34.2055 21.8944 34.2055 22.4488C34.2055 23.0032 34.0363 23.4424 33.6979 23.7664ZM32.6287 28H31.1491L36.3655 20.764H37.8343L32.6287 28ZM31.7755 22.9996C31.8763 23.0932 32.0563 23.14 32.3155 23.14C32.5747 23.14 32.7511 23.0932 32.8447 22.9996C32.9455 22.906 32.9959 22.7224 32.9959 22.4488C32.9959 22.1752 32.9455 21.9916 32.8447 21.898C32.7511 21.8044 32.5747 21.7576 32.3155 21.7576C32.0563 21.7576 31.8763 21.8044 31.7755 21.898C31.6819 21.9916 31.6351 22.1752 31.6351 22.4488C31.6351 22.7224 31.6819 22.906 31.7755 22.9996ZM38.0611 27.6328C37.7227 27.9496 37.2619 28.108 36.6787 28.108C36.0955 28.108 35.6311 27.9496 35.2855 27.6328C34.9471 27.3088 34.7779 26.8696 34.7779 26.3152C34.7779 25.7608 34.9471 25.3252 35.2855 25.0084C35.6311 24.6844 36.0955 24.5224 36.6787 24.5224C37.2619 24.5224 37.7227 24.6844 38.0611 25.0084C38.3995 25.3252 38.5687 25.7608 38.5687 26.3152C38.5687 26.8696 38.3995 27.3088 38.0611 27.6328ZM36.1387 26.866C36.2395 26.9596 36.4195 27.0064 36.6787 27.0064C36.9379 27.0064 37.1143 26.9596 37.2079 26.866C37.3087 26.7724 37.3591 26.5888 37.3591 26.3152C37.3591 26.0416 37.3087 25.858 37.2079 25.7644C37.1143 25.6708 36.9379 25.624 36.6787 25.624C36.4195 25.624 36.2395 25.6708 36.1387 25.7644C36.0451 25.858 35.9983 26.0416 35.9983 26.3152C35.9983 26.5888 36.0451 26.7724 36.1387 26.866Z" fill="black"/>
<path d="M11.1395 37.06C10.7155 37.06 10.3895 36.92 10.1615 36.64C9.93746 36.356 9.82546 35.978 9.82546 35.506C9.82546 35.034 9.93546 34.658 10.1555 34.378C10.3795 34.098 10.6955 33.958 11.1035 33.958C11.3675 33.958 11.5795 34.012 11.7395 34.12C11.9035 34.224 12.0175 34.344 12.0815 34.48H12.2435L12.2135 35.242H12.0995C12.0995 35.074 12.0675 34.936 12.0035 34.828C11.9395 34.72 11.8475 34.64 11.7275 34.588C11.6075 34.536 11.4595 34.51 11.2835 34.51C11.1395 34.51 11.0155 34.528 10.9115 34.564C10.8115 34.6 10.7275 34.656 10.6595 34.732C10.5955 34.808 10.5475 34.91 10.5155 35.038C10.4875 35.166 10.4735 35.322 10.4735 35.506C10.4735 35.686 10.4875 35.842 10.5155 35.974C10.5475 36.102 10.5955 36.206 10.6595 36.286C10.7275 36.362 10.8135 36.418 10.9175 36.454C11.0215 36.49 11.1435 36.508 11.2835 36.508C11.4595 36.508 11.6075 36.482 11.7275 36.43C11.8475 36.374 11.9395 36.292 12.0035 36.184C12.0675 36.076 12.0995 35.94 12.0995 35.776H12.2135L12.2435 36.508H12.1235C12.0555 36.68 11.9375 36.816 11.7695 36.916C11.6055 37.012 11.3955 37.06 11.1395 37.06ZM12.7475 37H12.1475V36.292L12.0995 36.214V32.98H12.7475V37ZM14.7662 37.06C14.4422 37.06 14.1722 36.996 13.9562 36.868C13.7402 36.736 13.5802 36.554 13.4762 36.322C13.3722 36.086 13.3202 35.814 13.3202 35.506C13.3202 35.198 13.3782 34.928 13.4942 34.696C13.6142 34.464 13.7822 34.284 13.9982 34.156C14.2142 34.024 14.4702 33.958 14.7662 33.958C15.0342 33.958 15.2702 34.01 15.4742 34.114C15.6822 34.214 15.8422 34.36 15.9542 34.552C16.0702 34.744 16.1282 34.976 16.1282 35.248C16.1282 35.328 16.1242 35.406 16.1162 35.482C16.1122 35.554 16.1062 35.614 16.0982 35.662H13.6262V35.23H15.5702L15.5042 35.29C15.5202 35.106 15.5002 34.956 15.4442 34.84C15.3922 34.724 15.3062 34.638 15.1862 34.582C15.0702 34.526 14.9242 34.498 14.7482 34.498C14.4322 34.498 14.2162 34.578 14.1002 34.738C13.9842 34.894 13.9262 35.11 13.9262 35.386V35.566C13.9262 35.766 13.9502 35.936 13.9982 36.076C14.0502 36.212 14.1382 36.314 14.2622 36.382C14.3862 36.45 14.5562 36.484 14.7722 36.484C15.0242 36.484 15.2022 36.444 15.3062 36.364C15.4102 36.284 15.4622 36.178 15.4622 36.046V35.998H16.1042V36.052C16.1042 36.256 16.0482 36.434 15.9362 36.586C15.8242 36.734 15.6682 36.85 15.4682 36.934C15.2722 37.018 15.0382 37.06 14.7662 37.06ZM19.595 37.06C19.327 37.06 19.109 37.008 18.941 36.904C18.777 36.796 18.663 36.674 18.599 36.538H18.437L18.467 35.776H18.581C18.581 35.94 18.611 36.076 18.671 36.184C18.735 36.292 18.829 36.374 18.953 36.43C19.077 36.482 19.225 36.508 19.397 36.508C19.537 36.508 19.659 36.49 19.763 36.454C19.867 36.418 19.951 36.362 20.015 36.286C20.083 36.21 20.131 36.108 20.159 35.98C20.191 35.848 20.207 35.69 20.207 35.506C20.207 35.322 20.191 35.168 20.159 35.044C20.131 34.916 20.083 34.812 20.015 34.732C19.951 34.652 19.867 34.596 19.763 34.564C19.663 34.528 19.541 34.51 19.397 34.51C19.225 34.51 19.077 34.538 18.953 34.594C18.829 34.646 18.735 34.726 18.671 34.834C18.611 34.938 18.581 35.074 18.581 35.242H18.467L18.437 34.51H18.557C18.629 34.338 18.747 34.204 18.911 34.108C19.079 34.008 19.293 33.958 19.553 33.958C19.973 33.958 20.295 34.098 20.519 34.378C20.743 34.658 20.855 35.034 20.855 35.506C20.855 35.978 20.747 36.356 20.531 36.64C20.315 36.92 20.003 37.06 19.595 37.06ZM18.581 38.038H17.939V34.018H18.527V34.726L18.581 34.804V38.038ZM22.0999 37H21.4519V34H22.0459V34.834L22.0999 34.864V37ZM22.0999 35.056H21.9499V34.474H22.0759C22.1359 34.334 22.2339 34.214 22.3699 34.114C22.5099 34.01 22.6899 33.958 22.9099 33.958C23.1219 33.958 23.2899 34.004 23.4139 34.096C23.5419 34.188 23.6339 34.31 23.6899 34.462C23.7459 34.614 23.7739 34.784 23.7739 34.972V35.17H23.1259V35.05C23.1259 34.85 23.0919 34.71 23.0239 34.63C22.9559 34.55 22.8279 34.51 22.6399 34.51C22.4439 34.51 22.3039 34.552 22.2199 34.636C22.1399 34.716 22.0999 34.856 22.0999 35.056ZM25.6349 37.06C25.3309 37.06 25.0669 36.996 24.8429 36.868C24.6189 36.736 24.4469 36.554 24.3269 36.322C24.2069 36.086 24.1469 35.814 24.1469 35.506C24.1469 35.198 24.2069 34.928 24.3269 34.696C24.4469 34.464 24.6189 34.284 24.8429 34.156C25.0669 34.024 25.3309 33.958 25.6349 33.958C25.9389 33.958 26.1989 34.024 26.4149 34.156C26.6349 34.284 26.8029 34.464 26.9189 34.696C27.0389 34.928 27.0989 35.198 27.0989 35.506C27.0989 35.814 27.0389 36.086 26.9189 36.322C26.8029 36.554 26.6349 36.736 26.4149 36.868C26.1989 36.996 25.9389 37.06 25.6349 37.06ZM25.6349 36.484C25.9469 36.484 26.1649 36.406 26.2889 36.25C26.4129 36.09 26.4749 35.842 26.4749 35.506C26.4749 35.17 26.4129 34.924 26.2889 34.768C26.1649 34.612 25.9469 34.534 25.6349 34.534C25.3189 34.534 25.0989 34.612 24.9749 34.768C24.8509 34.924 24.7889 35.17 24.7889 35.506C24.7889 35.842 24.8509 36.09 24.9749 36.25C25.0989 36.406 25.3189 36.484 25.6349 36.484ZM29.294 37.06C29.034 37.06 28.82 37.012 28.652 36.916C28.484 36.816 28.362 36.68 28.286 36.508H28.166L28.202 35.776H28.316C28.316 35.94 28.346 36.076 28.406 36.184C28.47 36.292 28.562 36.374 28.682 36.43C28.806 36.482 28.954 36.508 29.126 36.508C29.27 36.508 29.392 36.49 29.492 36.454C29.596 36.418 29.682 36.362 29.75 36.286C29.818 36.206 29.866 36.102 29.894 35.974C29.926 35.842 29.942 35.686 29.942 35.506C29.942 35.322 29.926 35.166 29.894 35.038C29.866 34.91 29.818 34.808 29.75 34.732C29.686 34.656 29.602 34.6 29.498 34.564C29.394 34.528 29.27 34.51 29.126 34.51C28.954 34.51 28.806 34.536 28.682 34.588C28.562 34.64 28.47 34.72 28.406 34.828C28.346 34.936 28.316 35.074 28.316 35.242H28.202L28.166 34.492H28.334C28.398 34.356 28.514 34.234 28.682 34.126C28.854 34.014 29.07 33.958 29.33 33.958C29.742 33.958 30.054 34.098 30.266 34.378C30.482 34.658 30.59 35.034 30.59 35.506C30.59 35.978 30.478 36.356 30.254 36.64C30.034 36.92 29.714 37.06 29.294 37.06ZM28.262 37H27.668V32.98H28.316V36.214L28.262 36.292V37ZM33.7063 37H33.1063V36.412L33.0883 36.25V35.104C33.0883 34.88 33.0343 34.728 32.9263 34.648C32.8223 34.568 32.6523 34.528 32.4163 34.528C32.1803 34.528 32.0103 34.57 31.9063 34.654C31.8063 34.738 31.7563 34.878 31.7563 35.074V35.164H31.1323V35.104C31.1323 34.88 31.1863 34.682 31.2943 34.51C31.4063 34.338 31.5603 34.204 31.7563 34.108C31.9563 34.008 32.1883 33.958 32.4523 33.958C32.7323 33.958 32.9643 34.01 33.1483 34.114C33.3323 34.218 33.4703 34.362 33.5623 34.546C33.6583 34.726 33.7063 34.94 33.7063 35.188V37ZM31.9963 37.06C31.7283 37.06 31.5023 36.992 31.3183 36.856C31.1383 36.716 31.0483 36.518 31.0483 36.262C31.0483 36.094 31.0863 35.954 31.1623 35.842C31.2423 35.73 31.3563 35.638 31.5043 35.566C31.6523 35.494 31.8323 35.444 32.0443 35.416L33.1483 35.26V35.716L32.1403 35.866C31.9683 35.89 31.8483 35.926 31.7803 35.974C31.7123 36.022 31.6783 36.102 31.6783 36.214C31.6783 36.33 31.7183 36.414 31.7983 36.466C31.8823 36.518 32.0183 36.544 32.2063 36.544C32.3503 36.544 32.4883 36.522 32.6203 36.478C32.7563 36.43 32.8683 36.352 32.9563 36.244C33.0443 36.132 33.0883 35.976 33.0883 35.776L33.1723 36.538L33.0763 36.532C33.0203 36.624 32.9423 36.71 32.8423 36.79C32.7463 36.87 32.6283 36.936 32.4883 36.988C32.3483 37.036 32.1843 37.06 31.9963 37.06ZM36.0315 37.06C35.7715 37.06 35.5575 37.012 35.3895 36.916C35.2215 36.816 35.0995 36.68 35.0235 36.508H34.9035L34.9395 35.776H35.0535C35.0535 35.94 35.0835 36.076 35.1435 36.184C35.2075 36.292 35.2995 36.374 35.4195 36.43C35.5435 36.482 35.6915 36.508 35.8635 36.508C36.0075 36.508 36.1295 36.49 36.2295 36.454C36.3335 36.418 36.4195 36.362 36.4875 36.286C36.5555 36.206 36.6035 36.102 36.6315 35.974C36.6635 35.842 36.6795 35.686 36.6795 35.506C36.6795 35.322 36.6635 35.166 36.6315 35.038C36.6035 34.91 36.5555 34.808 36.4875 34.732C36.4235 34.656 36.3395 34.6 36.2355 34.564C36.1315 34.528 36.0075 34.51 35.8635 34.51C35.6915 34.51 35.5435 34.536 35.4195 34.588C35.2995 34.64 35.2075 34.72 35.1435 34.828C35.0835 34.936 35.0535 35.074 35.0535 35.242H34.9395L34.9035 34.492H35.0715C35.1355 34.356 35.2515 34.234 35.4195 34.126C35.5915 34.014 35.8075 33.958 36.0675 33.958C36.4795 33.958 36.7915 34.098 37.0035 34.378C37.2195 34.658 37.3275 35.034 37.3275 35.506C37.3275 35.978 37.2155 36.356 36.9915 36.64C36.7715 36.92 36.4515 37.06 36.0315 37.06ZM34.9995 37H34.4055V32.98H35.0535V36.214L34.9995 36.292V37ZM38.5004 33.64H37.8584L37.8524 32.98H38.5004V33.64ZM38.5064 37H37.8584V34H38.5064V37ZM39.8282 37H39.1802V32.98H39.8282V37ZM41.1482 33.64H40.5062L40.5002 32.98H41.1482V33.64ZM41.1542 37H40.5062V34H41.1542V37ZM42.9927 37.06C42.5687 37.06 42.2427 36.92 42.0147 36.64C41.7907 36.356 41.6787 35.978 41.6787 35.506C41.6787 35.034 41.7887 34.658 42.0087 34.378C42.2327 34.098 42.5487 33.958 42.9567 33.958C43.2207 33.958 43.4327 34.012 43.5927 34.12C43.7567 34.224 43.8707 34.344 43.9347 34.48H44.0967L44.0667 35.242H43.9527C43.9527 35.074 43.9207 34.936 43.8567 34.828C43.7927 34.72 43.7007 34.64 43.5807 34.588C43.4607 34.536 43.3127 34.51 43.1367 34.51C42.9927 34.51 42.8687 34.528 42.7647 34.564C42.6647 34.6 42.5807 34.656 42.5127 34.732C42.4487 34.808 42.4007 34.91 42.3687 35.038C42.3407 35.166 42.3267 35.322 42.3267 35.506C42.3267 35.686 42.3407 35.842 42.3687 35.974C42.4007 36.102 42.4487 36.206 42.5127 36.286C42.5807 36.362 42.6667 36.418 42.7707 36.454C42.8747 36.49 42.9967 36.508 43.1367 36.508C43.3127 36.508 43.4607 36.482 43.5807 36.43C43.7007 36.374 43.7927 36.292 43.8567 36.184C43.9207 36.076 43.9527 35.94 43.9527 35.776H44.0667L44.0967 36.508H43.9767C43.9087 36.68 43.7907 36.816 43.6227 36.916C43.4587 37.012 43.2487 37.06 42.9927 37.06ZM44.6007 37H44.0007V36.292L43.9527 36.214V32.98H44.6007V37ZM47.8136 37H47.2136V36.412L47.1956 36.25V35.104C47.1956 34.88 47.1416 34.728 47.0336 34.648C46.9296 34.568 46.7596 34.528 46.5236 34.528C46.2876 34.528 46.1176 34.57 46.0136 34.654C45.9136 34.738 45.8636 34.878 45.8636 35.074V35.164H45.2396V35.104C45.2396 34.88 45.2936 34.682 45.4016 34.51C45.5136 34.338 45.6676 34.204 45.8636 34.108C46.0636 34.008 46.2956 33.958 46.5596 33.958C46.8396 33.958 47.0716 34.01 47.2556 34.114C47.4396 34.218 47.5776 34.362 47.6696 34.546C47.7656 34.726 47.8136 34.94 47.8136 35.188V37ZM46.1036 37.06C45.8356 37.06 45.6096 36.992 45.4256 36.856C45.2456 36.716 45.1556 36.518 45.1556 36.262C45.1556 36.094 45.1936 35.954 45.2696 35.842C45.3496 35.73 45.4636 35.638 45.6116 35.566C45.7596 35.494 45.9396 35.444 46.1516 35.416L47.2556 35.26V35.716L46.2476 35.866C46.0756 35.89 45.9556 35.926 45.8876 35.974C45.8196 36.022 45.7856 36.102 45.7856 36.214C45.7856 36.33 45.8256 36.414 45.9056 36.466C45.9896 36.518 46.1256 36.544 46.3136 36.544C46.4576 36.544 46.5956 36.522 46.7276 36.478C46.8636 36.43 46.9756 36.352 47.0636 36.244C47.1516 36.132 47.1956 35.976 47.1956 35.776L47.2796 36.538L47.1836 36.532C47.1276 36.624 47.0496 36.71 46.9496 36.79C46.8536 36.87 46.7356 36.936 46.5956 36.988C46.4556 37.036 46.2916 37.06 46.1036 37.06ZM49.6951 37.06C49.2711 37.06 48.9451 36.92 48.7171 36.64C48.4931 36.356 48.3811 35.978 48.3811 35.506C48.3811 35.034 48.4911 34.658 48.7111 34.378C48.9351 34.098 49.2511 33.958 49.6591 33.958C49.9231 33.958 50.1351 34.012 50.2951 34.12C50.4591 34.224 50.5731 34.344 50.6371 34.48H50.7991L50.7691 35.242H50.6551C50.6551 35.074 50.6231 34.936 50.5591 34.828C50.4951 34.72 50.4031 34.64 50.2831 34.588C50.1631 34.536 50.0151 34.51 49.8391 34.51C49.6951 34.51 49.5711 34.528 49.4671 34.564C49.3671 34.6 49.2831 34.656 49.2151 34.732C49.1511 34.808 49.1031 34.91 49.0711 35.038C49.0431 35.166 49.0291 35.322 49.0291 35.506C49.0291 35.686 49.0431 35.842 49.0711 35.974C49.1031 36.102 49.1511 36.206 49.2151 36.286C49.2831 36.362 49.3691 36.418 49.4731 36.454C49.5771 36.49 49.6991 36.508 49.8391 36.508C50.0151 36.508 50.1631 36.482 50.2831 36.43C50.4031 36.374 50.4951 36.292 50.5591 36.184C50.6231 36.076 50.6551 35.94 50.6551 35.776H50.7691L50.7991 36.508H50.6791C50.6111 36.68 50.4931 36.816 50.3251 36.916C50.1611 37.012 49.9511 37.06 49.6951 37.06ZM51.3031 37H50.7031V36.292L50.6551 36.214V32.98H51.3031V37Z" fill="black"/>
<path d="M59.3271 53.2592C59.0031 53.2592 58.7331 53.1952 58.5171 53.0672C58.3011 52.9352 58.1411 52.7532 58.0371 52.5212C57.9331 52.2852 57.8811 52.0132 57.8811 51.7052C57.8811 51.3972 57.9391 51.1272 58.0551 50.8952C58.1751 50.6632 58.3431 50.4832 58.5591 50.3552C58.7751 50.2232 59.0311 50.1572 59.3271 50.1572C59.5951 50.1572 59.8311 50.2092 60.0351 50.3132C60.2431 50.4132 60.4031 50.5592 60.5151 50.7512C60.6311 50.9432 60.6891 51.1752 60.6891 51.4472C60.6891 51.5272 60.6851 51.6052 60.6771 51.6812C60.6731 51.7532 60.6671 51.8132 60.6591 51.8612H58.1871V51.4292H60.1311L60.0651 51.4892C60.0811 51.3052 60.0611 51.1552 60.0051 51.0392C59.9531 50.9232 59.8671 50.8372 59.7471 50.7812C59.6311 50.7252 59.4851 50.6972 59.3091 50.6972C58.9931 50.6972 58.7771 50.7772 58.6611 50.9372C58.5451 51.0932 58.4871 51.3092 58.4871 51.5852V51.7652C58.4871 51.9652 58.5111 52.1352 58.5591 52.2752C58.6111 52.4112 58.6991 52.5132 58.8231 52.5812C58.9471 52.6492 59.1171 52.6832 59.3331 52.6832C59.5851 52.6832 59.7631 52.6432 59.8671 52.5632C59.9711 52.4832 60.0231 52.3772 60.0231 52.2452V52.1972H60.6651V52.2512C60.6651 52.4552 60.6091 52.6332 60.4971 52.7852C60.3851 52.9332 60.2291 53.0492 60.0291 53.1332C59.8331 53.2172 59.5991 53.2592 59.3271 53.2592ZM64.063 53.1992H63.415V51.4652C63.415 51.2012 63.365 51.0112 63.265 50.8952C63.165 50.7752 62.977 50.7152 62.701 50.7152C62.525 50.7152 62.381 50.7412 62.269 50.7932C62.157 50.8412 62.073 50.9212 62.017 51.0332C61.961 51.1412 61.933 51.2892 61.933 51.4772H61.819L61.765 50.7752H61.909C61.953 50.6672 62.019 50.5672 62.107 50.4752C62.195 50.3832 62.307 50.3072 62.443 50.2472C62.583 50.1872 62.749 50.1572 62.941 50.1572C63.201 50.1572 63.413 50.2072 63.577 50.3072C63.741 50.4072 63.863 50.5452 63.943 50.7212C64.023 50.8972 64.063 51.0992 64.063 51.3272V53.1992ZM61.933 53.1992H61.285V50.2172H61.879V51.1112L61.933 51.1412V53.1992ZM66.6197 53.1992H65.9717V49.1792H66.6197V53.1992ZM69.8304 53.1992H69.2304V52.6112L69.2124 52.4492V51.3032C69.2124 51.0792 69.1584 50.9272 69.0504 50.8472C68.9464 50.7672 68.7764 50.7272 68.5404 50.7272C68.3044 50.7272 68.1344 50.7692 68.0304 50.8532C67.9304 50.9372 67.8804 51.0772 67.8804 51.2732V51.3632H67.2564V51.3032C67.2564 51.0792 67.3104 50.8812 67.4184 50.7092C67.5304 50.5372 67.6844 50.4032 67.8804 50.3072C68.0804 50.2072 68.3124 50.1572 68.5764 50.1572C68.8564 50.1572 69.0884 50.2092 69.2724 50.3132C69.4564 50.4172 69.5944 50.5612 69.6864 50.7452C69.7824 50.9252 69.8304 51.1392 69.8304 51.3872V53.1992ZM68.1204 53.2592C67.8524 53.2592 67.6264 53.1912 67.4424 53.0552C67.2624 52.9152 67.1724 52.7172 67.1724 52.4612C67.1724 52.2932 67.2104 52.1532 67.2864 52.0412C67.3664 51.9292 67.4804 51.8372 67.6284 51.7652C67.7764 51.6932 67.9564 51.6432 68.1684 51.6152L69.2724 51.4592V51.9152L68.2644 52.0652C68.0924 52.0892 67.9724 52.1252 67.9044 52.1732C67.8364 52.2212 67.8024 52.3012 67.8024 52.4132C67.8024 52.5292 67.8424 52.6132 67.9224 52.6652C68.0064 52.7172 68.1424 52.7432 68.3304 52.7432C68.4744 52.7432 68.6124 52.7212 68.7444 52.6772C68.8804 52.6292 68.9924 52.5512 69.0804 52.4432C69.1684 52.3312 69.2124 52.1752 69.2124 51.9752L69.2964 52.7372L69.2004 52.7312C69.1444 52.8232 69.0664 52.9092 68.9664 52.9892C68.8704 53.0692 68.7524 53.1352 68.6124 53.1872C68.4724 53.2352 68.3084 53.2592 68.1204 53.2592ZM72.9932 53.2592C72.5572 53.2592 72.2272 53.1732 72.0032 53.0012C71.7792 52.8252 71.6672 52.5552 71.6672 52.1912V52.1792H72.2912V52.2872C72.2912 52.3912 72.3112 52.4772 72.3512 52.5452C72.3952 52.6092 72.4672 52.6572 72.5672 52.6892C72.6712 52.7172 72.8172 52.7312 73.0052 52.7312C73.1652 52.7312 73.2852 52.7192 73.3652 52.6952C73.4492 52.6672 73.5052 52.6292 73.5332 52.5812C73.5612 52.5332 73.5752 52.4732 73.5752 52.4012C73.5752 52.2812 73.5332 52.1972 73.4492 52.1492C73.3652 52.0972 73.2152 52.0512 72.9992 52.0112L72.5312 51.9332C72.3552 51.8972 72.2012 51.8472 72.0692 51.7832C71.9412 51.7152 71.8412 51.6232 71.7692 51.5072C71.7012 51.3872 71.6672 51.2372 71.6672 51.0572C71.6672 50.7892 71.7732 50.5732 71.9852 50.4092C72.1972 50.2412 72.4972 50.1572 72.8852 50.1572C73.1212 50.1572 73.3312 50.1952 73.5152 50.2712C73.6992 50.3472 73.8452 50.4612 73.9532 50.6132C74.0612 50.7652 74.1152 50.9552 74.1152 51.1832V51.2372H73.4972V51.1652C73.4972 51.0692 73.4812 50.9872 73.4492 50.9192C73.4172 50.8472 73.3572 50.7912 73.2692 50.7512C73.1812 50.7112 73.0472 50.6912 72.8672 50.6912C72.6312 50.6912 72.4752 50.7212 72.3992 50.7812C72.3232 50.8412 72.2852 50.9292 72.2852 51.0452C72.2852 51.1612 72.3192 51.2432 72.3872 51.2912C72.4592 51.3352 72.5992 51.3792 72.8072 51.4232L73.3172 51.5192C73.5092 51.5552 73.6692 51.6092 73.7972 51.6812C73.9252 51.7532 74.0212 51.8472 74.0852 51.9632C74.1532 52.0792 74.1872 52.2172 74.1872 52.3772C74.1872 52.6572 74.0812 52.8752 73.8692 53.0312C73.6612 53.1832 73.3692 53.2592 72.9932 53.2592ZM76.1147 53.2592C75.7907 53.2592 75.5207 53.1952 75.3047 53.0672C75.0887 52.9352 74.9287 52.7532 74.8247 52.5212C74.7207 52.2852 74.6687 52.0132 74.6687 51.7052C74.6687 51.3972 74.7267 51.1272 74.8427 50.8952C74.9627 50.6632 75.1307 50.4832 75.3467 50.3552C75.5627 50.2232 75.8187 50.1572 76.1147 50.1572C76.3827 50.1572 76.6187 50.2092 76.8227 50.3132C77.0307 50.4132 77.1907 50.5592 77.3027 50.7512C77.4187 50.9432 77.4767 51.1752 77.4767 51.4472C77.4767 51.5272 77.4727 51.6052 77.4647 51.6812C77.4607 51.7532 77.4547 51.8132 77.4467 51.8612H74.9747V51.4292H76.9187L76.8527 51.4892C76.8687 51.3052 76.8487 51.1552 76.7927 51.0392C76.7407 50.9232 76.6547 50.8372 76.5347 50.7812C76.4187 50.7252 76.2727 50.6972 76.0967 50.6972C75.7807 50.6972 75.5647 50.7772 75.4487 50.9372C75.3327 51.0932 75.2747 51.3092 75.2747 51.5852V51.7652C75.2747 51.9652 75.2987 52.1352 75.3467 52.2752C75.3987 52.4112 75.4867 52.5132 75.6107 52.5812C75.7347 52.6492 75.9047 52.6832 76.1207 52.6832C76.3727 52.6832 76.5507 52.6432 76.6547 52.5632C76.7587 52.4832 76.8107 52.3772 76.8107 52.2452V52.1972H77.4527V52.2512C77.4527 52.4552 77.3967 52.6332 77.2847 52.7852C77.1727 52.9332 77.0167 53.0492 76.8167 53.1332C76.6207 53.2172 76.3867 53.2592 76.1147 53.2592ZM82.8605 53.1992H82.2125V51.4652C82.2125 51.2012 82.1625 51.0112 82.0625 50.8952C81.9665 50.7752 81.7825 50.7152 81.5105 50.7152C81.2665 50.7152 81.0845 50.7732 80.9645 50.8892C80.8485 51.0012 80.7905 51.1932 80.7905 51.4652L80.6765 51.4772L80.6225 50.7752H80.7185C80.7665 50.6712 80.8325 50.5732 80.9165 50.4812C81.0045 50.3852 81.1165 50.3072 81.2525 50.2472C81.3885 50.1872 81.5545 50.1572 81.7505 50.1572C82.0105 50.1572 82.2205 50.2072 82.3805 50.3072C82.5445 50.4072 82.6645 50.5452 82.7405 50.7212C82.8205 50.8972 82.8605 51.0992 82.8605 51.3272V53.1992ZM78.7205 53.1992H78.0725V50.2172H78.6665V51.1112L78.7205 51.1412V53.1992ZM80.7905 53.1992H80.1425V51.4652C80.1425 51.2012 80.0925 51.0112 79.9925 50.8952C79.8965 50.7752 79.7125 50.7152 79.4405 50.7152C79.1965 50.7152 79.0145 50.7712 78.8945 50.8832C78.7785 50.9952 78.7205 51.1872 78.7205 51.4592L78.6065 51.4772L78.5525 50.7752H78.6965C78.7405 50.6672 78.8045 50.5672 78.8885 50.4752C78.9765 50.3832 79.0885 50.3072 79.2245 50.2472C79.3605 50.1872 79.5225 50.1572 79.7105 50.1572C79.9625 50.1572 80.1665 50.2072 80.3225 50.3072C80.4825 50.4072 80.6005 50.5452 80.6765 50.7212C80.7525 50.8972 80.7905 51.0992 80.7905 51.3272V53.1992ZM86.0738 53.1992H85.4738V52.6112L85.4558 52.4492V51.3032C85.4558 51.0792 85.4018 50.9272 85.2938 50.8472C85.1898 50.7672 85.0198 50.7272 84.7838 50.7272C84.5478 50.7272 84.3778 50.7692 84.2738 50.8532C84.1738 50.9372 84.1238 51.0772 84.1238 51.2732V51.3632H83.4998V51.3032C83.4998 51.0792 83.5538 50.8812 83.6618 50.7092C83.7738 50.5372 83.9278 50.4032 84.1238 50.3072C84.3238 50.2072 84.5558 50.1572 84.8198 50.1572C85.0998 50.1572 85.3318 50.2092 85.5158 50.3132C85.6998 50.4172 85.8378 50.5612 85.9298 50.7452C86.0258 50.9252 86.0738 51.1392 86.0738 51.3872V53.1992ZM84.3638 53.2592C84.0958 53.2592 83.8698 53.1912 83.6858 53.0552C83.5058 52.9152 83.4158 52.7172 83.4158 52.4612C83.4158 52.2932 83.4538 52.1532 83.5298 52.0412C83.6098 51.9292 83.7238 51.8372 83.8718 51.7652C84.0198 51.6932 84.1998 51.6432 84.4118 51.6152L85.5158 51.4592V51.9152L84.5078 52.0652C84.3358 52.0892 84.2158 52.1252 84.1478 52.1732C84.0798 52.2212 84.0458 52.3012 84.0458 52.4132C84.0458 52.5292 84.0858 52.6132 84.1658 52.6652C84.2498 52.7172 84.3858 52.7432 84.5738 52.7432C84.7178 52.7432 84.8558 52.7212 84.9878 52.6772C85.1238 52.6292 85.2358 52.5512 85.3238 52.4432C85.4118 52.3312 85.4558 52.1752 85.4558 51.9752L85.5398 52.7372L85.4438 52.7312C85.3878 52.8232 85.3098 52.9092 85.2098 52.9892C85.1138 53.0692 84.9958 53.1352 84.8558 53.1872C84.7158 53.2352 84.5518 53.2592 84.3638 53.2592ZM89.551 53.1992H88.903V51.4652C88.903 51.2012 88.853 51.0112 88.753 50.8952C88.653 50.7752 88.465 50.7152 88.189 50.7152C88.013 50.7152 87.869 50.7412 87.757 50.7932C87.645 50.8412 87.561 50.9212 87.505 51.0332C87.449 51.1412 87.421 51.2892 87.421 51.4772H87.307L87.253 50.7752H87.397C87.441 50.6672 87.507 50.5672 87.595 50.4752C87.683 50.3832 87.795 50.3072 87.931 50.2472C88.071 50.1872 88.237 50.1572 88.429 50.1572C88.689 50.1572 88.901 50.2072 89.065 50.3072C89.229 50.4072 89.351 50.5452 89.431 50.7212C89.511 50.8972 89.551 51.0992 89.551 51.3272V53.1992ZM87.421 53.1992H86.773V50.2172H87.367V51.1112L87.421 51.1412V53.1992ZM92.7645 53.1992H92.1645V52.6112L92.1465 52.4492V51.3032C92.1465 51.0792 92.0925 50.9272 91.9845 50.8472C91.8805 50.7672 91.7105 50.7272 91.4745 50.7272C91.2385 50.7272 91.0685 50.7692 90.9645 50.8532C90.8645 50.9372 90.8145 51.0772 90.8145 51.2732V51.3632H90.1905V51.3032C90.1905 51.0792 90.2445 50.8812 90.3525 50.7092C90.4645 50.5372 90.6185 50.4032 90.8145 50.3072C91.0145 50.2072 91.2465 50.1572 91.5105 50.1572C91.7905 50.1572 92.0225 50.2092 92.2065 50.3132C92.3905 50.4172 92.5285 50.5612 92.6205 50.7452C92.7165 50.9252 92.7645 51.1392 92.7645 51.3872V53.1992ZM91.0545 53.2592C90.7865 53.2592 90.5605 53.1912 90.3765 53.0552C90.1965 52.9152 90.1065 52.7172 90.1065 52.4612C90.1065 52.2932 90.1445 52.1532 90.2205 52.0412C90.3005 51.9292 90.4145 51.8372 90.5625 51.7652C90.7105 51.6932 90.8905 51.6432 91.1025 51.6152L92.2065 51.4592V51.9152L91.1985 52.0652C91.0265 52.0892 90.9065 52.1252 90.8385 52.1732C90.7705 52.2212 90.7365 52.3012 90.7365 52.4132C90.7365 52.5292 90.7765 52.6132 90.8565 52.6652C90.9405 52.7172 91.0765 52.7432 91.2645 52.7432C91.4085 52.7432 91.5465 52.7212 91.6785 52.6772C91.8145 52.6292 91.9265 52.5512 92.0145 52.4432C92.1025 52.3312 92.1465 52.1752 92.1465 51.9752L92.2305 52.7372L92.1345 52.7312C92.0785 52.8232 92.0005 52.9092 91.9005 52.9892C91.8045 53.0692 91.6865 53.1352 91.5465 53.1872C91.4065 53.2352 91.2425 53.2592 91.0545 53.2592ZM96.1853 53.2592C95.8013 53.2592 95.4913 53.2052 95.2553 53.0972C95.0233 52.9892 94.8553 52.8392 94.7513 52.6472C94.6473 52.4512 94.5953 52.2252 94.5953 51.9692V51.8732H95.2373V51.9632C95.2373 52.1272 95.2613 52.2632 95.3093 52.3712C95.3573 52.4752 95.4493 52.5512 95.5853 52.5992C95.7253 52.6432 95.9273 52.6652 96.1913 52.6652C96.5113 52.6652 96.7393 52.6192 96.8753 52.5272C97.0113 52.4352 97.0793 52.2712 97.0793 52.0352C97.0793 51.7872 97.0173 51.6172 96.8933 51.5252C96.7733 51.4332 96.5753 51.3872 96.2993 51.3872H95.4953V50.8472H96.2093C96.4733 50.8472 96.6613 50.8072 96.7733 50.7272C96.8853 50.6472 96.9413 50.5032 96.9413 50.2952C96.9413 50.0832 96.8773 49.9332 96.7493 49.8452C96.6253 49.7532 96.4213 49.7072 96.1373 49.7072C95.9053 49.7072 95.7233 49.7312 95.5913 49.7792C95.4633 49.8272 95.3713 49.9032 95.3153 50.0072C95.2633 50.1112 95.2373 50.2472 95.2373 50.4152V50.4632H94.5953V50.4092C94.5953 50.1532 94.6533 49.9292 94.7693 49.7372C94.8893 49.5412 95.0633 49.3892 95.2913 49.2812C95.5233 49.1732 95.8073 49.1192 96.1433 49.1192C96.4473 49.1192 96.7053 49.1612 96.9173 49.2452C97.1333 49.3252 97.2993 49.4452 97.4153 49.6052C97.5313 49.7612 97.5893 49.9572 97.5893 50.1932C97.5893 50.4212 97.5293 50.6152 97.4093 50.7752C97.2893 50.9312 97.1013 51.0292 96.8453 51.0692V51.0932C97.1213 51.1292 97.3373 51.2352 97.4933 51.4112C97.6533 51.5832 97.7333 51.8152 97.7333 52.1072C97.7333 52.3632 97.6673 52.5772 97.5353 52.7492C97.4073 52.9212 97.2273 53.0492 96.9953 53.1332C96.7633 53.2172 96.4933 53.2592 96.1853 53.2592ZM100.017 53.2592C99.7249 53.2592 99.4689 53.2092 99.2489 53.1092C99.0329 53.0052 98.8649 52.8592 98.7449 52.6712C98.6249 52.4832 98.5649 52.2612 98.5649 52.0052V51.9692H99.2489V52.0052C99.2489 52.1292 99.2729 52.2392 99.3209 52.3352C99.3689 52.4312 99.4529 52.5052 99.5729 52.5572C99.6929 52.6052 99.8569 52.6292 100.065 52.6292C100.321 52.6292 100.513 52.5872 100.641 52.5032C100.773 52.4192 100.863 52.2872 100.911 52.1072C100.963 51.9232 100.989 51.6832 100.989 51.3872V51.0572H100.959C100.899 51.1732 100.817 51.2772 100.713 51.3692C100.613 51.4612 100.485 51.5352 100.329 51.5912C100.173 51.6432 99.9809 51.6692 99.7529 51.6692C99.4569 51.6692 99.2089 51.6192 99.0089 51.5192C98.8089 51.4152 98.6569 51.2712 98.5529 51.0872C98.4529 50.8992 98.4029 50.6772 98.4029 50.4212C98.4029 50.0252 98.5369 49.7092 98.8049 49.4732C99.0729 49.2372 99.4649 49.1192 99.9809 49.1192C100.389 49.1192 100.715 49.1932 100.959 49.3412C101.203 49.4852 101.379 49.7092 101.487 50.0132C101.595 50.3172 101.649 50.7092 101.649 51.1892C101.649 51.5132 101.617 51.8032 101.553 52.0592C101.493 52.3152 101.397 52.5332 101.265 52.7132C101.133 52.8892 100.963 53.0252 100.755 53.1212C100.551 53.2132 100.305 53.2592 100.017 53.2592ZM99.9629 51.1232C100.191 51.1232 100.373 51.0992 100.509 51.0512C100.645 50.9992 100.743 50.9212 100.803 50.8172C100.863 50.7132 100.893 50.5852 100.893 50.4332C100.893 50.2772 100.863 50.1472 100.803 50.0432C100.743 49.9392 100.645 49.8632 100.509 49.8152C100.373 49.7672 100.191 49.7432 99.9629 49.7432C99.7309 49.7432 99.5469 49.7672 99.4109 49.8152C99.2789 49.8632 99.1829 49.9392 99.1229 50.0432C99.0669 50.1472 99.0389 50.2772 99.0389 50.4332C99.0389 50.5932 99.0669 50.7252 99.1229 50.8292C99.1789 50.9292 99.2749 51.0032 99.4109 51.0512C99.5469 51.0992 99.7309 51.1232 99.9629 51.1232Z" fill="black"/>
<path d="M29.6248 0.575099C45.7224 0.575098 58.7721 13.7491 58.7721 29.9999C58.7721 46.2508 45.7224 59.4248 29.6248 59.4248C13.5272 59.4248 0.477538 46.2508 0.477538 30C0.477537 13.7491 13.5272 0.575099 29.6248 0.575099ZM29.6248 55.0111C43.3078 55.0111 54.4 43.8132 54.4 29.9999C54.4 16.1867 43.3078 4.98882 29.6248 4.98883C15.9419 4.98883 4.84963 16.1867 4.84963 30C4.84963 43.8132 15.9419 55.0111 29.6248 55.0111Z" fill="#E6D1BF"/>
<path d="M29.6251 0.575099C35.5235 0.575098 41.2858 2.34781 46.1643 5.66323C51.0428 8.97864 54.8123 13.6837 56.9836 19.1679L52.8798 20.7927C51.0342 16.1311 47.8301 12.1318 43.6834 9.31373C39.5367 6.49563 34.6387 4.98883 29.6251 4.98883L29.6251 0.575099Z" fill="#A86133"/>
</svg>
