<svg width="212" height="168" viewBox="0 0 212 168" fill="none" xmlns="http://www.w3.org/2000/svg">
<path d="M58.3574 79H53.5894V63.64H48.7574V60.216H49.7174C51.7334 60.216 52.9814 59.48 54.0054 57.56H58.3574V79ZM70.7429 79.32C65.6869 79.32 62.6149 76.632 62.6149 72.504V72.312H67.7029V72.504C67.7029 74.104 68.6949 74.744 71.0629 74.744C74.1989 74.744 74.9029 73.496 74.9029 70.168V68.312H74.7429C73.7829 69.72 72.0869 70.808 68.8869 70.808C64.2149 70.808 61.8149 68.376 61.8149 64.312C61.8149 59.992 64.8229 57.24 70.5509 57.24C77.3989 57.24 79.8629 60.76 79.8629 68.376C79.8629 75.672 76.8229 79.32 70.7429 79.32ZM70.5189 66.936C73.5269 66.936 74.4869 66.232 74.4869 64.408C74.4869 62.552 73.5269 61.848 70.5189 61.848C67.4469 61.848 66.5189 62.552 66.5189 64.408C66.5189 66.232 67.4469 66.936 70.5189 66.936ZM87.3284 67.864C83.8724 67.864 81.6964 65.848 81.6964 62.552C81.6964 59.256 83.8724 57.24 87.3284 57.24C90.7524 57.24 92.9284 59.256 92.9284 62.552C92.9284 65.848 90.7524 67.864 87.3284 67.864ZM88.2564 79H83.8724L99.3284 57.56H103.68L88.2564 79ZM87.3284 64.6C88.8324 64.6 89.3444 64.216 89.3444 62.552C89.3444 60.888 88.8324 60.504 87.3284 60.504C85.8244 60.504 85.3124 60.888 85.3124 62.552C85.3124 64.216 85.8244 64.6 87.3284 64.6ZM100.256 79.32C96.8004 79.32 94.6244 77.304 94.6244 74.008C94.6244 70.712 96.8004 68.696 100.256 68.696C103.712 68.696 105.856 70.712 105.856 74.008C105.856 77.304 103.712 79.32 100.256 79.32ZM100.256 76.056C101.76 76.056 102.272 75.672 102.272 74.008C102.272 72.344 101.76 71.96 100.256 71.96C98.7524 71.96 98.2404 72.344 98.2404 74.008C98.2404 75.672 98.7524 76.056 100.256 76.056Z" fill="black"/>
<path d="M26.8115 104.16C25.6809 104.16 24.8115 103.787 24.2035 103.04C23.6062 102.283 23.3075 101.275 23.3075 100.016C23.3075 98.7573 23.6009 97.7547 24.1875 97.008C24.7849 96.2613 25.6275 95.888 26.7155 95.888C27.4195 95.888 27.9849 96.032 28.4115 96.32C28.8489 96.5973 29.1529 96.9173 29.3235 97.28H29.7555L29.6755 99.312H29.3715C29.3715 98.864 29.2862 98.496 29.1155 98.208C28.9449 97.92 28.6995 97.7067 28.3795 97.568C28.0595 97.4293 27.6649 97.36 27.1955 97.36C26.8115 97.36 26.4809 97.408 26.2035 97.504C25.9369 97.6 25.7129 97.7493 25.5315 97.952C25.3609 98.1547 25.2329 98.4267 25.1475 98.768C25.0729 99.1093 25.0355 99.5253 25.0355 100.016C25.0355 100.496 25.0729 100.912 25.1475 101.264C25.2329 101.605 25.3609 101.883 25.5315 102.096C25.7129 102.299 25.9422 102.448 26.2195 102.544C26.4969 102.64 26.8222 102.688 27.1955 102.688C27.6649 102.688 28.0595 102.619 28.3795 102.48C28.6995 102.331 28.9449 102.112 29.1155 101.824C29.2862 101.536 29.3715 101.173 29.3715 100.736H29.6755L29.7555 102.688H29.4355C29.2542 103.147 28.9395 103.509 28.4915 103.776C28.0542 104.032 27.4942 104.16 26.8115 104.16ZM31.0995 104H29.4995V102.112L29.3715 101.904V93.28H31.0995V104ZM36.5229 104.16C35.6589 104.16 34.9389 103.989 34.3629 103.648C33.7869 103.296 33.3602 102.811 33.0829 102.192C32.8056 101.563 32.6669 100.837 32.6669 100.016C32.6669 99.1947 32.8216 98.4747 33.1309 97.856C33.4509 97.2373 33.8989 96.7573 34.4749 96.416C35.0509 96.064 35.7336 95.888 36.5229 95.888C37.2376 95.888 37.8669 96.0267 38.4109 96.304C38.9656 96.5707 39.3922 96.96 39.6909 97.472C40.0003 97.984 40.1549 98.6027 40.1549 99.328C40.1549 99.5413 40.1442 99.7493 40.1229 99.952C40.1122 100.144 40.0962 100.304 40.0749 100.432H33.4829V99.28H38.6669L38.4909 99.44C38.5336 98.9493 38.4802 98.5493 38.3309 98.24C38.1922 97.9307 37.9629 97.7013 37.6429 97.552C37.3336 97.4027 36.9442 97.328 36.4749 97.328C35.6322 97.328 35.0562 97.5413 34.7469 97.968C34.4376 98.384 34.2829 98.96 34.2829 99.696V100.176C34.2829 100.709 34.3469 101.163 34.4749 101.536C34.6136 101.899 34.8482 102.171 35.1789 102.352C35.5096 102.533 35.9629 102.624 36.5389 102.624C37.2109 102.624 37.6856 102.517 37.9629 102.304C38.2402 102.091 38.3789 101.808 38.3789 101.456V101.328H40.0909V101.472C40.0909 102.016 39.9416 102.491 39.6429 102.896C39.3442 103.291 38.9282 103.6 38.3949 103.824C37.8722 104.048 37.2482 104.16 36.5229 104.16ZM49.4795 104.16C48.7649 104.16 48.1835 104.021 47.7355 103.744C47.2982 103.456 46.9942 103.131 46.8235 102.768H46.3915L46.4715 100.736H46.7755C46.7755 101.173 46.8555 101.536 47.0155 101.824C47.1862 102.112 47.4369 102.331 47.7675 102.48C48.0982 102.619 48.4929 102.688 48.9515 102.688C49.3249 102.688 49.6502 102.64 49.9275 102.544C50.2049 102.448 50.4289 102.299 50.5995 102.096C50.7809 101.893 50.9089 101.621 50.9835 101.28C51.0689 100.928 51.1115 100.507 51.1115 100.016C51.1115 99.5253 51.0689 99.1147 50.9835 98.784C50.9089 98.4427 50.7809 98.1653 50.5995 97.952C50.4289 97.7387 50.2049 97.5893 49.9275 97.504C49.6609 97.408 49.3355 97.36 48.9515 97.36C48.4929 97.36 48.0982 97.4347 47.7675 97.584C47.4369 97.7227 47.1862 97.936 47.0155 98.224C46.8555 98.5013 46.7755 98.864 46.7755 99.312H46.4715L46.3915 97.36H46.7115C46.9035 96.9013 47.2182 96.544 47.6555 96.288C48.1035 96.0213 48.6742 95.888 49.3675 95.888C50.4875 95.888 51.3462 96.2613 51.9435 97.008C52.5409 97.7547 52.8395 98.7573 52.8395 100.016C52.8395 101.275 52.5515 102.283 51.9755 103.04C51.3995 103.787 50.5675 104.16 49.4795 104.16ZM46.7755 106.768H45.0635V96.048H46.6315V97.936L46.7755 98.144V106.768ZM56.1993 104H54.4713V96H56.0553V98.224L56.1993 98.304V104ZM56.1993 98.816H55.7993V97.264H56.1353C56.2953 96.8907 56.5566 96.5707 56.9193 96.304C57.2926 96.0267 57.7726 95.888 58.3593 95.888C58.9246 95.888 59.3726 96.0107 59.7033 96.256C60.0446 96.5013 60.29 96.8267 60.4393 97.232C60.5886 97.6373 60.6633 98.0907 60.6633 98.592V99.12H58.9353V98.8C58.9353 98.2667 58.8446 97.8933 58.6633 97.68C58.482 97.4667 58.1406 97.36 57.6393 97.36C57.1166 97.36 56.7433 97.472 56.5193 97.696C56.306 97.9093 56.1993 98.2827 56.1993 98.816ZM65.6662 104.16C64.8555 104.16 64.1515 103.989 63.5542 103.648C62.9568 103.296 62.4982 102.811 62.1782 102.192C61.8582 101.563 61.6982 100.837 61.6982 100.016C61.6982 99.1947 61.8582 98.4747 62.1782 97.856C62.4982 97.2373 62.9568 96.7573 63.5542 96.416C64.1515 96.064 64.8555 95.888 65.6662 95.888C66.4768 95.888 67.1702 96.064 67.7462 96.416C68.3328 96.7573 68.7808 97.2373 69.0902 97.856C69.4102 98.4747 69.5702 99.1947 69.5702 100.016C69.5702 100.837 69.4102 101.563 69.0902 102.192C68.7808 102.811 68.3328 103.296 67.7462 103.648C67.1702 103.989 66.4768 104.16 65.6662 104.16ZM65.6662 102.624C66.4982 102.624 67.0795 102.416 67.4102 102C67.7408 101.573 67.9062 100.912 67.9062 100.016C67.9062 99.12 67.7408 98.464 67.4102 98.048C67.0795 97.632 66.4982 97.424 65.6662 97.424C64.8235 97.424 64.2368 97.632 63.9062 98.048C63.5755 98.464 63.4102 99.12 63.4102 100.016C63.4102 100.912 63.5755 101.573 63.9062 102C64.2368 102.416 64.8235 102.624 65.6662 102.624ZM75.4635 104.16C74.7702 104.16 74.1995 104.032 73.7515 103.776C73.3035 103.509 72.9782 103.147 72.7755 102.688H72.4555L72.5515 100.736H72.8555C72.8555 101.173 72.9355 101.536 73.0955 101.824C73.2662 102.112 73.5115 102.331 73.8315 102.48C74.1622 102.619 74.5569 102.688 75.0155 102.688C75.3995 102.688 75.7249 102.64 75.9915 102.544C76.2689 102.448 76.4982 102.299 76.6795 102.096C76.8609 101.883 76.9889 101.605 77.0635 101.264C77.1489 100.912 77.1915 100.496 77.1915 100.016C77.1915 99.5253 77.1489 99.1093 77.0635 98.768C76.9889 98.4267 76.8609 98.1547 76.6795 97.952C76.5089 97.7493 76.2849 97.6 76.0075 97.504C75.7302 97.408 75.3995 97.36 75.0155 97.36C74.5569 97.36 74.1622 97.4293 73.8315 97.568C73.5115 97.7067 73.2662 97.92 73.0955 98.208C72.9355 98.496 72.8555 98.864 72.8555 99.312H72.5515L72.4555 97.312H72.9035C73.0742 96.9493 73.3835 96.624 73.8315 96.336C74.2902 96.0373 74.8662 95.888 75.5595 95.888C76.6582 95.888 77.4902 96.2613 78.0555 97.008C78.6315 97.7547 78.9195 98.7573 78.9195 100.016C78.9195 101.275 78.6209 102.283 78.0235 103.04C77.4369 103.787 76.5835 104.16 75.4635 104.16ZM72.7115 104H71.1275V93.28H72.8555V101.904L72.7115 102.112V104ZM87.2698 104H85.6698V102.432L85.6218 102V98.944C85.6218 98.3467 85.4778 97.9413 85.1898 97.728C84.9125 97.5147 84.4591 97.408 83.8298 97.408C83.2005 97.408 82.7471 97.52 82.4698 97.744C82.2031 97.968 82.0698 98.3413 82.0698 98.864V99.104H80.4058V98.944C80.4058 98.3467 80.5498 97.8187 80.8378 97.36C81.1365 96.9013 81.5471 96.544 82.0698 96.288C82.6031 96.0213 83.2218 95.888 83.9258 95.888C84.6725 95.888 85.2911 96.0267 85.7818 96.304C86.2725 96.5813 86.6405 96.9653 86.8858 97.456C87.1418 97.936 87.2698 98.5067 87.2698 99.168V104ZM82.7098 104.16C81.9951 104.16 81.3925 103.979 80.9018 103.616C80.4218 103.243 80.1818 102.715 80.1818 102.032C80.1818 101.584 80.2831 101.211 80.4858 100.912C80.6991 100.613 81.0031 100.368 81.3978 100.176C81.7925 99.984 82.2725 99.8507 82.8378 99.776L85.7818 99.36V100.576L83.0938 100.976C82.6351 101.04 82.3151 101.136 82.1338 101.264C81.9525 101.392 81.8618 101.605 81.8618 101.904C81.8618 102.213 81.9685 102.437 82.1818 102.576C82.4058 102.715 82.7685 102.784 83.2698 102.784C83.6538 102.784 84.0218 102.725 84.3738 102.608C84.7365 102.48 85.0351 102.272 85.2698 101.984C85.5045 101.685 85.6218 101.269 85.6218 100.736L85.8458 102.768L85.5898 102.752C85.4405 102.997 85.2325 103.227 84.9658 103.44C84.7098 103.653 84.3951 103.829 84.0218 103.968C83.6485 104.096 83.2111 104.16 82.7098 104.16ZM93.5104 104.16C92.8171 104.16 92.2464 104.032 91.7984 103.776C91.3504 103.509 91.0251 103.147 90.8224 102.688H90.5024L90.5984 100.736H90.9024C90.9024 101.173 90.9824 101.536 91.1424 101.824C91.3131 102.112 91.5584 102.331 91.8784 102.48C92.2091 102.619 92.6037 102.688 93.0624 102.688C93.4464 102.688 93.7717 102.64 94.0384 102.544C94.3157 102.448 94.5451 102.299 94.7264 102.096C94.9077 101.883 95.0357 101.605 95.1104 101.264C95.1957 100.912 95.2384 100.496 95.2384 100.016C95.2384 99.5253 95.1957 99.1093 95.1104 98.768C95.0357 98.4267 94.9077 98.1547 94.7264 97.952C94.5557 97.7493 94.3317 97.6 94.0544 97.504C93.7771 97.408 93.4464 97.36 93.0624 97.36C92.6037 97.36 92.2091 97.4293 91.8784 97.568C91.5584 97.7067 91.3131 97.92 91.1424 98.208C90.9824 98.496 90.9024 98.864 90.9024 99.312H90.5984L90.5024 97.312H90.9504C91.1211 96.9493 91.4304 96.624 91.8784 96.336C92.3371 96.0373 92.9131 95.888 93.6064 95.888C94.7051 95.888 95.5371 96.2613 96.1024 97.008C96.6784 97.7547 96.9664 98.7573 96.9664 100.016C96.9664 101.275 96.6677 102.283 96.0704 103.04C95.4837 103.787 94.6304 104.16 93.5104 104.16ZM90.7584 104H89.1744V93.28H90.9024V101.904L90.7584 102.112V104ZM100.134 95.04H98.4222L98.4062 93.28H100.134V95.04ZM100.15 104H98.4222V96H100.15V104ZM103.715 104H101.987V93.28H103.715V104ZM107.275 95.04H105.563L105.547 93.28H107.275V95.04ZM107.291 104H105.563V96H107.291V104ZM112.233 104.16C111.103 104.16 110.233 103.787 109.625 103.04C109.028 102.283 108.729 101.275 108.729 100.016C108.729 98.7573 109.023 97.7547 109.609 97.008C110.207 96.2613 111.049 95.888 112.137 95.888C112.841 95.888 113.407 96.032 113.833 96.32C114.271 96.5973 114.575 96.9173 114.745 97.28H115.177L115.097 99.312H114.793C114.793 98.864 114.708 98.496 114.537 98.208C114.367 97.92 114.121 97.7067 113.801 97.568C113.481 97.4293 113.087 97.36 112.617 97.36C112.233 97.36 111.903 97.408 111.625 97.504C111.359 97.6 111.135 97.7493 110.953 97.952C110.783 98.1547 110.655 98.4267 110.569 98.768C110.495 99.1093 110.457 99.5253 110.457 100.016C110.457 100.496 110.495 100.912 110.569 101.264C110.655 101.605 110.783 101.883 110.953 102.096C111.135 102.299 111.364 102.448 111.641 102.544C111.919 102.64 112.244 102.688 112.617 102.688C113.087 102.688 113.481 102.619 113.801 102.48C114.121 102.331 114.367 102.112 114.537 101.824C114.708 101.536 114.793 101.173 114.793 100.736H115.097L115.177 102.688H114.857C114.676 103.147 114.361 103.509 113.913 103.776C113.476 104.032 112.916 104.16 112.233 104.16ZM116.521 104H114.921V102.112L114.793 101.904V93.28H116.521V104ZM125.129 104H123.529V102.432L123.481 102V98.944C123.481 98.3467 123.337 97.9413 123.049 97.728C122.772 97.5147 122.318 97.408 121.689 97.408C121.06 97.408 120.606 97.52 120.329 97.744C120.062 97.968 119.929 98.3413 119.929 98.864V99.104H118.265V98.944C118.265 98.3467 118.409 97.8187 118.697 97.36C118.996 96.9013 119.406 96.544 119.929 96.288C120.462 96.0213 121.081 95.888 121.785 95.888C122.532 95.888 123.15 96.0267 123.641 96.304C124.132 96.5813 124.5 96.9653 124.745 97.456C125.001 97.936 125.129 98.5067 125.129 99.168V104ZM120.569 104.16C119.854 104.16 119.252 103.979 118.761 103.616C118.281 103.243 118.041 102.715 118.041 102.032C118.041 101.584 118.142 101.211 118.345 100.912C118.558 100.613 118.862 100.368 119.257 100.176C119.652 99.984 120.132 99.8507 120.697 99.776L123.641 99.36V100.576L120.953 100.976C120.494 101.04 120.174 101.136 119.993 101.264C119.812 101.392 119.721 101.605 119.721 101.904C119.721 102.213 119.828 102.437 120.041 102.576C120.265 102.715 120.628 102.784 121.129 102.784C121.513 102.784 121.881 102.725 122.233 102.608C122.596 102.48 122.894 102.272 123.129 101.984C123.364 101.685 123.481 101.269 123.481 100.736L123.705 102.768L123.449 102.752C123.3 102.997 123.092 103.227 122.825 103.44C122.569 103.653 122.254 103.829 121.881 103.968C121.508 104.096 121.07 104.16 120.569 104.16ZM130.187 104.16C129.056 104.16 128.187 103.787 127.579 103.04C126.981 102.283 126.683 101.275 126.683 100.016C126.683 98.7573 126.976 97.7547 127.563 97.008C128.16 96.2613 129.003 95.888 130.091 95.888C130.795 95.888 131.36 96.032 131.787 96.32C132.224 96.5973 132.528 96.9173 132.699 97.28H133.131L133.051 99.312H132.747C132.747 98.864 132.661 98.496 132.491 98.208C132.32 97.92 132.075 97.7067 131.755 97.568C131.435 97.4293 131.04 97.36 130.571 97.36C130.187 97.36 129.856 97.408 129.579 97.504C129.312 97.6 129.088 97.7493 128.907 97.952C128.736 98.1547 128.608 98.4267 128.523 98.768C128.448 99.1093 128.411 99.5253 128.411 100.016C128.411 100.496 128.448 100.912 128.523 101.264C128.608 101.605 128.736 101.883 128.907 102.096C129.088 102.299 129.317 102.448 129.595 102.544C129.872 102.64 130.197 102.688 130.571 102.688C131.04 102.688 131.435 102.619 131.755 102.48C132.075 102.331 132.32 102.112 132.491 101.824C132.661 101.536 132.747 101.173 132.747 100.736H133.051L133.131 102.688H132.811C132.629 103.147 132.315 103.509 131.867 103.776C131.429 104.032 130.869 104.16 130.187 104.16ZM134.475 104H132.875V102.112L132.747 101.904V93.28H134.475V104Z" fill="black"/>
<path d="M80 4.22795e-05C124.183 4.03482e-05 160 35.8172 160 80C160 124.183 124.183 160 80 160C35.8172 160 -1.56562e-06 124.183 -3.49691e-06 80C-5.4282e-06 35.8173 35.8172 4.42107e-05 80 4.22795e-05ZM80 148.8C117.997 148.8 148.8 117.997 148.8 80C148.8 42.0028 117.997 11.2 80 11.2C42.0028 11.2 11.2 42.0028 11.2 80C11.2 117.997 42.0028 148.8 80 148.8Z" fill="#E6D1BF"/>
<path d="M80 4.22795e-05C96.0366 4.15785e-05 111.703 4.81968 124.967 13.8336C138.23 22.8475 148.479 35.6396 154.382 50.5501L143.969 54.6731C138.892 41.8501 130.078 30.8489 118.671 23.0969C107.265 15.3449 93.7915 11.2 80 11.2L80 4.22795e-05Z" fill="#A86133"/>
<path d="M124.426 166.11C123.832 166.11 123.337 165.993 122.941 165.758C122.545 165.516 122.252 165.182 122.061 164.757C121.87 164.324 121.775 163.826 121.775 163.261C121.775 162.696 121.881 162.201 122.094 161.776C122.314 161.351 122.622 161.021 123.018 160.786C123.414 160.544 123.883 160.423 124.426 160.423C124.917 160.423 125.35 160.518 125.724 160.709C126.105 160.892 126.399 161.16 126.604 161.512C126.817 161.864 126.923 162.289 126.923 162.788C126.923 162.935 126.916 163.078 126.901 163.217C126.894 163.349 126.883 163.459 126.868 163.547H122.336V162.755H125.9L125.779 162.865C125.808 162.528 125.772 162.253 125.669 162.04C125.574 161.827 125.416 161.67 125.196 161.567C124.983 161.464 124.716 161.413 124.393 161.413C123.814 161.413 123.418 161.56 123.205 161.853C122.992 162.139 122.886 162.535 122.886 163.041V163.371C122.886 163.738 122.93 164.049 123.018 164.306C123.113 164.555 123.275 164.742 123.502 164.867C123.729 164.992 124.041 165.054 124.437 165.054C124.899 165.054 125.225 164.981 125.416 164.834C125.607 164.687 125.702 164.493 125.702 164.251V164.163H126.879V164.262C126.879 164.636 126.776 164.962 126.571 165.241C126.366 165.512 126.08 165.725 125.713 165.879C125.354 166.033 124.925 166.11 124.426 166.11ZM133.043 166H131.855V162.821C131.855 162.337 131.763 161.989 131.58 161.776C131.397 161.556 131.052 161.446 130.546 161.446C130.223 161.446 129.959 161.494 129.754 161.589C129.549 161.677 129.395 161.824 129.292 162.029C129.189 162.227 129.138 162.498 129.138 162.843H128.929L128.83 161.556H129.094C129.175 161.358 129.296 161.175 129.457 161.006C129.618 160.837 129.824 160.698 130.073 160.588C130.33 160.478 130.634 160.423 130.986 160.423C131.463 160.423 131.851 160.515 132.152 160.698C132.453 160.881 132.676 161.134 132.823 161.457C132.97 161.78 133.043 162.15 133.043 162.568V166ZM129.138 166H127.95V160.533H129.039V162.172L129.138 162.227V166ZM137.599 166H136.411V158.63H137.599V166ZM143.42 166H142.32V164.922L142.287 164.625V162.524C142.287 162.113 142.188 161.835 141.99 161.688C141.799 161.541 141.487 161.468 141.055 161.468C140.622 161.468 140.31 161.545 140.12 161.699C139.936 161.853 139.845 162.11 139.845 162.469V162.634H138.701V162.524C138.701 162.113 138.8 161.75 138.998 161.435C139.203 161.12 139.485 160.874 139.845 160.698C140.211 160.515 140.637 160.423 141.121 160.423C141.634 160.423 142.059 160.518 142.397 160.709C142.734 160.9 142.987 161.164 143.156 161.501C143.332 161.831 143.42 162.223 143.42 162.678V166ZM140.285 166.11C139.793 166.11 139.379 165.985 139.042 165.736C138.712 165.479 138.547 165.116 138.547 164.647C138.547 164.339 138.616 164.082 138.756 163.877C138.902 163.672 139.111 163.503 139.383 163.371C139.654 163.239 139.984 163.147 140.373 163.096L142.397 162.81V163.646L140.549 163.921C140.233 163.965 140.013 164.031 139.889 164.119C139.764 164.207 139.702 164.354 139.702 164.559C139.702 164.772 139.775 164.926 139.922 165.021C140.076 165.116 140.325 165.164 140.67 165.164C140.934 165.164 141.187 165.124 141.429 165.043C141.678 164.955 141.883 164.812 142.045 164.614C142.206 164.409 142.287 164.123 142.287 163.756L142.441 165.153L142.265 165.142C142.162 165.311 142.019 165.468 141.836 165.615C141.66 165.762 141.443 165.883 141.187 165.978C140.93 166.066 140.629 166.11 140.285 166.11ZM149.087 166.11C148.288 166.11 147.683 165.952 147.272 165.637C146.861 165.314 146.656 164.819 146.656 164.152V164.13H147.8V164.328C147.8 164.519 147.837 164.676 147.91 164.801C147.991 164.918 148.123 165.006 148.306 165.065C148.497 165.116 148.764 165.142 149.109 165.142C149.402 165.142 149.622 165.12 149.769 165.076C149.923 165.025 150.026 164.955 150.077 164.867C150.128 164.779 150.154 164.669 150.154 164.537C150.154 164.317 150.077 164.163 149.923 164.075C149.769 163.98 149.494 163.895 149.098 163.822L148.24 163.679C147.917 163.613 147.635 163.521 147.393 163.404C147.158 163.279 146.975 163.111 146.843 162.898C146.718 162.678 146.656 162.403 146.656 162.073C146.656 161.582 146.85 161.186 147.239 160.885C147.628 160.577 148.178 160.423 148.889 160.423C149.322 160.423 149.707 160.493 150.044 160.632C150.381 160.771 150.649 160.98 150.847 161.259C151.045 161.538 151.144 161.886 151.144 162.304V162.403H150.011V162.271C150.011 162.095 149.982 161.945 149.923 161.82C149.864 161.688 149.754 161.585 149.593 161.512C149.432 161.439 149.186 161.402 148.856 161.402C148.423 161.402 148.137 161.457 147.998 161.567C147.859 161.677 147.789 161.838 147.789 162.051C147.789 162.264 147.851 162.414 147.976 162.502C148.108 162.583 148.365 162.663 148.746 162.744L149.681 162.92C150.033 162.986 150.326 163.085 150.561 163.217C150.796 163.349 150.972 163.521 151.089 163.734C151.214 163.947 151.276 164.2 151.276 164.493C151.276 165.006 151.082 165.406 150.693 165.692C150.312 165.971 149.776 166.11 149.087 166.11ZM154.744 166.11C154.15 166.11 153.655 165.993 153.259 165.758C152.863 165.516 152.57 165.182 152.379 164.757C152.188 164.324 152.093 163.826 152.093 163.261C152.093 162.696 152.199 162.201 152.412 161.776C152.632 161.351 152.94 161.021 153.336 160.786C153.732 160.544 154.201 160.423 154.744 160.423C155.235 160.423 155.668 160.518 156.042 160.709C156.423 160.892 156.717 161.16 156.922 161.512C157.135 161.864 157.241 162.289 157.241 162.788C157.241 162.935 157.234 163.078 157.219 163.217C157.212 163.349 157.201 163.459 157.186 163.547H152.654V162.755H156.218L156.097 162.865C156.126 162.528 156.09 162.253 155.987 162.04C155.892 161.827 155.734 161.67 155.514 161.567C155.301 161.464 155.034 161.413 154.711 161.413C154.132 161.413 153.736 161.56 153.523 161.853C153.31 162.139 153.204 162.535 153.204 163.041V163.371C153.204 163.738 153.248 164.049 153.336 164.306C153.431 164.555 153.593 164.742 153.82 164.867C154.047 164.992 154.359 165.054 154.755 165.054C155.217 165.054 155.543 164.981 155.734 164.834C155.925 164.687 156.02 164.493 156.02 164.251V164.163H157.197V164.262C157.197 164.636 157.094 164.962 156.889 165.241C156.684 165.512 156.398 165.725 156.031 165.879C155.672 166.033 155.243 166.11 154.744 166.11ZM167.046 166H165.858V162.821C165.858 162.337 165.766 161.989 165.583 161.776C165.407 161.556 165.069 161.446 164.571 161.446C164.123 161.446 163.79 161.552 163.57 161.765C163.357 161.97 163.251 162.322 163.251 162.821L163.042 162.843L162.943 161.556H163.119C163.207 161.365 163.328 161.186 163.482 161.017C163.643 160.841 163.848 160.698 164.098 160.588C164.347 160.478 164.651 160.423 165.011 160.423C165.487 160.423 165.872 160.515 166.166 160.698C166.466 160.881 166.686 161.134 166.826 161.457C166.972 161.78 167.046 162.15 167.046 162.568V166ZM159.456 166H158.268V160.533H159.357V162.172L159.456 162.227V166ZM163.251 166H162.063V162.821C162.063 162.337 161.971 161.989 161.788 161.776C161.612 161.556 161.274 161.446 160.776 161.446C160.328 161.446 159.995 161.549 159.775 161.754C159.562 161.959 159.456 162.311 159.456 162.81L159.247 162.843L159.148 161.556H159.412C159.492 161.358 159.61 161.175 159.764 161.006C159.925 160.837 160.13 160.698 160.38 160.588C160.629 160.478 160.926 160.423 161.271 160.423C161.733 160.423 162.107 160.515 162.393 160.698C162.686 160.881 162.902 161.134 163.042 161.457C163.181 161.78 163.251 162.15 163.251 162.568V166ZM172.871 166H171.771V164.922L171.738 164.625V162.524C171.738 162.113 171.639 161.835 171.441 161.688C171.25 161.541 170.939 161.468 170.506 161.468C170.073 161.468 169.762 161.545 169.571 161.699C169.388 161.853 169.296 162.11 169.296 162.469V162.634H168.152V162.524C168.152 162.113 168.251 161.75 168.449 161.435C168.654 161.12 168.937 160.874 169.296 160.698C169.663 160.515 170.088 160.423 170.572 160.423C171.085 160.423 171.511 160.518 171.848 160.709C172.185 160.9 172.438 161.164 172.607 161.501C172.783 161.831 172.871 162.223 172.871 162.678V166ZM169.736 166.11C169.245 166.11 168.83 165.985 168.493 165.736C168.163 165.479 167.998 165.116 167.998 164.647C167.998 164.339 168.068 164.082 168.207 163.877C168.354 163.672 168.563 163.503 168.834 163.371C169.105 163.239 169.435 163.147 169.824 163.096L171.848 162.81V163.646L170 163.921C169.685 163.965 169.465 164.031 169.34 164.119C169.215 164.207 169.153 164.354 169.153 164.559C169.153 164.772 169.226 164.926 169.373 165.021C169.527 165.116 169.776 165.164 170.121 165.164C170.385 165.164 170.638 165.124 170.88 165.043C171.129 164.955 171.335 164.812 171.496 164.614C171.657 164.409 171.738 164.123 171.738 163.756L171.892 165.153L171.716 165.142C171.613 165.311 171.47 165.468 171.287 165.615C171.111 165.762 170.895 165.883 170.638 165.978C170.381 166.066 170.081 166.11 169.736 166.11ZM179.18 166H177.992V162.821C177.992 162.337 177.901 161.989 177.717 161.776C177.534 161.556 177.189 161.446 176.683 161.446C176.361 161.446 176.097 161.494 175.891 161.589C175.686 161.677 175.532 161.824 175.429 162.029C175.327 162.227 175.275 162.498 175.275 162.843H175.066L174.967 161.556H175.231C175.312 161.358 175.433 161.175 175.594 161.006C175.756 160.837 175.961 160.698 176.21 160.588C176.467 160.478 176.771 160.423 177.123 160.423C177.6 160.423 177.989 160.515 178.289 160.698C178.59 160.881 178.814 161.134 178.96 161.457C179.107 161.78 179.18 162.15 179.18 162.568V166ZM175.275 166H174.087V160.533H175.176V162.172L175.275 162.227V166ZM185.006 166H183.906V164.922L183.873 164.625V162.524C183.873 162.113 183.774 161.835 183.576 161.688C183.385 161.541 183.074 161.468 182.641 161.468C182.208 161.468 181.897 161.545 181.706 161.699C181.523 161.853 181.431 162.11 181.431 162.469V162.634H180.287V162.524C180.287 162.113 180.386 161.75 180.584 161.435C180.789 161.12 181.072 160.874 181.431 160.698C181.798 160.515 182.223 160.423 182.707 160.423C183.22 160.423 183.646 160.518 183.983 160.709C184.32 160.9 184.573 161.164 184.742 161.501C184.918 161.831 185.006 162.223 185.006 162.678V166ZM181.871 166.11C181.38 166.11 180.965 165.985 180.628 165.736C180.298 165.479 180.133 165.116 180.133 164.647C180.133 164.339 180.203 164.082 180.342 163.877C180.489 163.672 180.698 163.503 180.969 163.371C181.24 163.239 181.57 163.147 181.959 163.096L183.983 162.81V163.646L182.135 163.921C181.82 163.965 181.6 164.031 181.475 164.119C181.35 164.207 181.288 164.354 181.288 164.559C181.288 164.772 181.361 164.926 181.508 165.021C181.662 165.116 181.911 165.164 182.256 165.164C182.52 165.164 182.773 165.124 183.015 165.043C183.264 164.955 183.47 164.812 183.631 164.614C183.792 164.409 183.873 164.123 183.873 163.756L184.027 165.153L183.851 165.142C183.748 165.311 183.605 165.468 183.422 165.615C183.246 165.762 183.03 165.883 182.773 165.978C182.516 166.066 182.216 166.11 181.871 166.11ZM191.146 166.11C190.442 166.11 189.874 166.011 189.441 165.813C189.016 165.615 188.708 165.34 188.517 164.988C188.327 164.629 188.231 164.214 188.231 163.745V163.569H189.408V163.734C189.408 164.035 189.452 164.284 189.54 164.482C189.628 164.673 189.797 164.812 190.046 164.9C190.303 164.981 190.673 165.021 191.157 165.021C191.744 165.021 192.162 164.937 192.411 164.768C192.661 164.599 192.785 164.299 192.785 163.866C192.785 163.411 192.672 163.1 192.444 162.931C192.224 162.762 191.861 162.678 191.355 162.678H189.881V161.688H191.19C191.674 161.688 192.019 161.615 192.224 161.468C192.43 161.321 192.532 161.057 192.532 160.676C192.532 160.287 192.415 160.012 192.18 159.851C191.953 159.682 191.579 159.598 191.058 159.598C190.633 159.598 190.299 159.642 190.057 159.73C189.823 159.818 189.654 159.957 189.551 160.148C189.456 160.339 189.408 160.588 189.408 160.896V160.984H188.231V160.885C188.231 160.416 188.338 160.005 188.55 159.653C188.77 159.294 189.089 159.015 189.507 158.817C189.933 158.619 190.453 158.52 191.069 158.52C191.627 158.52 192.1 158.597 192.488 158.751C192.884 158.898 193.189 159.118 193.401 159.411C193.614 159.697 193.72 160.056 193.72 160.489C193.72 160.907 193.61 161.263 193.39 161.556C193.17 161.842 192.826 162.022 192.356 162.095V162.139C192.862 162.205 193.258 162.399 193.544 162.722C193.838 163.037 193.984 163.463 193.984 163.998C193.984 164.467 193.863 164.86 193.621 165.175C193.387 165.49 193.057 165.725 192.631 165.879C192.206 166.033 191.711 166.11 191.146 166.11ZM198.105 166.11C197.57 166.11 197.101 166.018 196.697 165.835C196.301 165.644 195.993 165.377 195.773 165.032C195.553 164.687 195.443 164.28 195.443 163.811V163.745H196.697V163.811C196.697 164.038 196.741 164.24 196.829 164.416C196.917 164.592 197.071 164.728 197.291 164.823C197.511 164.911 197.812 164.955 198.193 164.955C198.663 164.955 199.015 164.878 199.249 164.724C199.491 164.57 199.656 164.328 199.744 163.998C199.84 163.661 199.887 163.221 199.887 162.678V162.073H199.832C199.722 162.286 199.572 162.476 199.381 162.645C199.198 162.814 198.963 162.949 198.677 163.052C198.391 163.147 198.039 163.195 197.621 163.195C197.079 163.195 196.624 163.103 196.257 162.92C195.891 162.729 195.612 162.465 195.421 162.128C195.238 161.783 195.146 161.376 195.146 160.907C195.146 160.181 195.392 159.602 195.883 159.169C196.375 158.736 197.093 158.52 198.039 158.52C198.787 158.52 199.385 158.656 199.832 158.927C200.28 159.191 200.602 159.602 200.8 160.159C200.998 160.716 201.097 161.435 201.097 162.315C201.097 162.909 201.039 163.441 200.921 163.91C200.811 164.379 200.635 164.779 200.393 165.109C200.151 165.432 199.84 165.681 199.458 165.857C199.084 166.026 198.633 166.11 198.105 166.11ZM198.006 162.194C198.424 162.194 198.758 162.15 199.007 162.062C199.257 161.967 199.436 161.824 199.546 161.633C199.656 161.442 199.711 161.208 199.711 160.929C199.711 160.643 199.656 160.405 199.546 160.214C199.436 160.023 199.257 159.884 199.007 159.796C198.758 159.708 198.424 159.664 198.006 159.664C197.581 159.664 197.244 159.708 196.994 159.796C196.752 159.884 196.576 160.023 196.466 160.214C196.364 160.405 196.312 160.643 196.312 160.929C196.312 161.222 196.364 161.464 196.466 161.655C196.569 161.838 196.745 161.974 196.994 162.062C197.244 162.15 197.581 162.194 198.006 162.194Z" fill="black"/>
</svg>
