<svg width="130" height="130" viewBox="0 0 130 130" fill="none" xmlns="http://www.w3.org/2000/svg">
<circle cx="65" cy="65" r="65" transform="rotate(-90 65 65)" fill="#0C3A25"/>
<path d="M51.4516 90.0403H48.2036V88.4723H51.4516C52.3049 88.4723 52.9929 88.3496 53.5156 88.1043C54.0489 87.8589 54.4329 87.4589 54.6676 86.9043C54.9129 86.3389 55.0356 85.5976 55.0356 84.6803C55.0356 83.7629 54.9129 83.0269 54.6676 82.4723C54.4329 81.9069 54.0489 81.5016 53.5156 81.2563C52.9929 81.0003 52.3049 80.8723 51.4516 80.8723H48.2036V79.3203H51.4516C52.5609 79.3203 53.5209 79.5389 54.3316 79.9763C55.1529 80.4029 55.7822 81.0163 56.2196 81.8163C56.6569 82.6163 56.8756 83.5709 56.8756 84.6803C56.8756 85.7896 56.6569 86.7443 56.2196 87.5443C55.7822 88.3443 55.1529 88.9629 54.3316 89.4003C53.5209 89.8269 52.5609 90.0403 51.4516 90.0403ZM49.3716 90.0403H47.6436V79.3203H49.3716V90.0403ZM65.2222 90.0403H63.6222V88.4723L63.5742 88.0403V84.9843C63.5742 84.3869 63.4302 83.9816 63.1422 83.7683C62.8649 83.5549 62.4115 83.4483 61.7822 83.4483C61.1529 83.4483 60.6995 83.5603 60.4222 83.7843C60.1555 84.0083 60.0222 84.3816 60.0222 84.9043V85.1443H58.3582V84.9843C58.3582 84.3869 58.5022 83.8589 58.7902 83.4003C59.0889 82.9416 59.4995 82.5843 60.0222 82.3283C60.5555 82.0616 61.1742 81.9283 61.8782 81.9283C62.6249 81.9283 63.2435 82.0669 63.7342 82.3443C64.2249 82.6216 64.5929 83.0056 64.8382 83.4963C65.0942 83.9763 65.2222 84.5469 65.2222 85.2083V90.0403ZM60.6622 90.2003C59.9475 90.2003 59.3449 90.0189 58.8542 89.6563C58.3742 89.2829 58.1342 88.7549 58.1342 88.0723C58.1342 87.6243 58.2355 87.2509 58.4382 86.9523C58.6515 86.6536 58.9555 86.4083 59.3502 86.2163C59.7449 86.0243 60.2249 85.8909 60.7902 85.8163L63.7342 85.4003V86.6163L61.0462 87.0163C60.5875 87.0803 60.2675 87.1763 60.0862 87.3043C59.9049 87.4323 59.8142 87.6456 59.8142 87.9443C59.8142 88.2536 59.9209 88.4776 60.1342 88.6163C60.3582 88.7549 60.7209 88.8243 61.2222 88.8243C61.6062 88.8243 61.9742 88.7656 62.3262 88.6483C62.6889 88.5203 62.9875 88.3123 63.2222 88.0243C63.4569 87.7256 63.5742 87.3096 63.5742 86.7763L63.7982 88.8083L63.5422 88.7923C63.3929 89.0376 63.1849 89.2669 62.9182 89.4803C62.6622 89.6936 62.3475 89.8696 61.9742 90.0083C61.6009 90.1363 61.1635 90.2003 60.6622 90.2003ZM68.0493 92.7603C67.836 92.7603 67.6173 92.7443 67.3933 92.7123C67.1693 92.6909 66.988 92.659 66.8493 92.6163V91.2083H67.9533C68.284 91.2083 68.5293 91.1603 68.6893 91.0643C68.8493 90.9789 68.9987 90.7923 69.1373 90.5043L69.6333 89.3843L69.4893 89.9443L66.0493 82.0883H67.9533L69.5533 85.9443L70.2733 87.6723H70.4173L71.0573 85.9443L72.5133 82.0883H74.4333L70.6573 90.9683C70.4653 91.4483 70.2467 91.8163 70.0013 92.0723C69.756 92.3283 69.4733 92.5043 69.1533 92.6003C68.844 92.7069 68.476 92.7603 68.0493 92.7603ZM78.6427 90.2003C77.48 90.2003 76.6 89.9709 76.0027 89.5123C75.4054 89.0429 75.1067 88.3229 75.1067 87.3523V87.3203H76.7707V87.6083C76.7707 87.8856 76.824 88.1149 76.9307 88.2963C77.048 88.4669 77.24 88.5949 77.5067 88.6803C77.784 88.7549 78.1734 88.7923 78.6747 88.7923C79.1014 88.7923 79.4214 88.7603 79.6347 88.6963C79.8587 88.6216 80.008 88.5203 80.0827 88.3923C80.1574 88.2643 80.1947 88.1043 80.1947 87.9123C80.1947 87.5923 80.0827 87.3683 79.8587 87.2403C79.6347 87.1016 79.2347 86.9789 78.6587 86.8723L77.4107 86.6643C76.9414 86.5683 76.5307 86.4349 76.1787 86.2643C75.8374 86.0829 75.5707 85.8376 75.3787 85.5283C75.1974 85.2083 75.1067 84.8083 75.1067 84.3283C75.1067 83.6136 75.3894 83.0376 75.9547 82.6003C76.52 82.1523 77.32 81.9283 78.3547 81.9283C78.984 81.9283 79.544 82.0296 80.0347 82.2323C80.5254 82.4349 80.9147 82.7389 81.2027 83.1443C81.4907 83.5496 81.6347 84.0563 81.6347 84.6643V84.8083H79.9867V84.6163C79.9867 84.3603 79.944 84.1416 79.8587 83.9603C79.7734 83.7683 79.6134 83.6189 79.3787 83.5123C79.144 83.4056 78.7867 83.3523 78.3067 83.3523C77.6774 83.3523 77.2614 83.4323 77.0587 83.5923C76.856 83.7523 76.7547 83.9869 76.7547 84.2963C76.7547 84.6056 76.8454 84.8243 77.0267 84.9523C77.2187 85.0696 77.592 85.1869 78.1467 85.3043L79.5067 85.5603C80.0187 85.6563 80.4454 85.8003 80.7867 85.9923C81.128 86.1843 81.384 86.4349 81.5547 86.7443C81.736 87.0536 81.8267 87.4216 81.8267 87.8483C81.8267 88.5949 81.544 89.1763 80.9787 89.5923C80.424 89.9976 79.6454 90.2003 78.6427 90.2003Z" fill="#DFF0D8"/>
<path d="M46.7389 68H41.9709V52.64H37.1389V49.216H38.0989C40.1149 49.216 41.3629 48.48 42.3869 46.56H46.7389V68ZM66.8584 60.608H54.9544V56.512H66.8584V60.608ZM83.6116 68.32C77.1476 68.32 74.7476 65.696 74.7476 61.44V60.736H79.4516V61.376C79.4516 63.328 80.1876 63.904 83.6116 63.904C86.2356 63.904 87.5796 63.456 87.5796 61.472C87.5796 59.36 86.6836 58.944 84.6036 58.944H80.0916V55.04H84.0916C86.0116 55.04 86.7476 54.656 86.7476 52.928C86.7476 51.232 85.5316 50.656 83.2916 50.656C80.4436 50.656 79.4516 51.232 79.4516 53.184V53.472H74.7476V53.12C74.7476 48.864 77.9156 46.24 83.4196 46.24C88.4756 46.24 91.5476 48.192 91.5476 52.032C91.5476 54.56 90.3316 56.288 87.5156 56.608V56.8C90.5876 57.088 92.4436 58.944 92.4436 62.112C92.4436 66.272 89.0196 68.32 83.6116 68.32Z" fill="#DFF0D8"/>
</svg>
