<svg width="130" height="130" viewBox="0 0 130 130" fill="none" xmlns="http://www.w3.org/2000/svg">
<circle cx="65" cy="65" r="65" transform="rotate(-90 65 65)" fill="#0C3A25"/>
<path d="M53.7953 90.0403H50.5473V88.4723H53.7953C54.6487 88.4723 55.3367 88.3496 55.8593 88.1043C56.3927 87.8589 56.7767 87.4589 57.0113 86.9043C57.2567 86.3389 57.3793 85.5976 57.3793 84.6803C57.3793 83.7629 57.2567 83.0269 57.0113 82.4723C56.7767 81.9069 56.3927 81.5016 55.8593 81.2563C55.3367 81.0003 54.6487 80.8723 53.7953 80.8723H50.5473V79.3203H53.7953C54.9047 79.3203 55.8647 79.5389 56.6753 79.9763C57.4967 80.4029 58.126 81.0163 58.5633 81.8163C59.0007 82.6163 59.2193 83.5709 59.2193 84.6803C59.2193 85.7896 59.0007 86.7443 58.5633 87.5443C58.126 88.3443 57.4967 88.9629 56.6753 89.4003C55.8647 89.8269 54.9047 90.0403 53.7953 90.0403ZM51.7153 90.0403H49.9873V79.3203H51.7153V90.0403ZM62.5241 90.0403H60.7961V82.0403H62.5241V90.0403ZM62.6521 81.0803H60.8441V81.0003L62.5721 79.0003H64.8601V79.0803L62.6521 81.0803ZM71.0972 90.0403H69.4972V88.4723L69.4492 88.0403V84.9843C69.4492 84.3869 69.3052 83.9816 69.0172 83.7683C68.7399 83.5549 68.2865 83.4483 67.6572 83.4483C67.0279 83.4483 66.5745 83.5603 66.2972 83.7843C66.0305 84.0083 65.8972 84.3816 65.8972 84.9043V85.1443H64.2332V84.9843C64.2332 84.3869 64.3772 83.8589 64.6652 83.4003C64.9639 82.9416 65.3745 82.5843 65.8972 82.3283C66.4305 82.0616 67.0492 81.9283 67.7532 81.9283C68.4999 81.9283 69.1185 82.0669 69.6092 82.3443C70.0999 82.6216 70.4679 83.0056 70.7132 83.4963C70.9692 83.9763 71.0972 84.5469 71.0972 85.2083V90.0403ZM66.5372 90.2003C65.8225 90.2003 65.2199 90.0189 64.7292 89.6563C64.2492 89.2829 64.0092 88.7549 64.0092 88.0723C64.0092 87.6243 64.1105 87.2509 64.3132 86.9523C64.5265 86.6536 64.8305 86.4083 65.2252 86.2163C65.6199 86.0243 66.0999 85.8909 66.6652 85.8163L69.6092 85.4003V86.6163L66.9212 87.0163C66.4625 87.0803 66.1425 87.1763 65.9612 87.3043C65.7799 87.4323 65.6892 87.6456 65.6892 87.9443C65.6892 88.2536 65.7959 88.4776 66.0092 88.6163C66.2332 88.7549 66.5959 88.8243 67.0972 88.8243C67.4812 88.8243 67.8492 88.7656 68.2012 88.6483C68.5639 88.5203 68.8625 88.3123 69.0972 88.0243C69.3319 87.7256 69.4492 87.3096 69.4492 86.7763L69.6732 88.8083L69.4172 88.7923C69.2679 89.0376 69.0599 89.2669 68.7932 89.4803C68.5372 89.6936 68.2225 89.8696 67.8492 90.0083C67.4759 90.1363 67.0385 90.2003 66.5372 90.2003ZM76.299 90.2003C75.1363 90.2003 74.2563 89.9709 73.659 89.5123C73.0616 89.0429 72.763 88.3229 72.763 87.3523V87.3203H74.427V87.6083C74.427 87.8856 74.4803 88.1149 74.587 88.2963C74.7043 88.4669 74.8963 88.5949 75.163 88.6803C75.4403 88.7549 75.8296 88.7923 76.331 88.7923C76.7576 88.7923 77.0776 88.7603 77.291 88.6963C77.515 88.6216 77.6643 88.5203 77.739 88.3923C77.8136 88.2643 77.851 88.1043 77.851 87.9123C77.851 87.5923 77.739 87.3683 77.515 87.2403C77.291 87.1016 76.891 86.9789 76.315 86.8723L75.067 86.6643C74.5976 86.5683 74.187 86.4349 73.835 86.2643C73.4936 86.0829 73.227 85.8376 73.035 85.5283C72.8536 85.2083 72.763 84.8083 72.763 84.3283C72.763 83.6136 73.0456 83.0376 73.611 82.6003C74.1763 82.1523 74.9763 81.9283 76.011 81.9283C76.6403 81.9283 77.2003 82.0296 77.691 82.2323C78.1816 82.4349 78.571 82.7389 78.859 83.1443C79.147 83.5496 79.291 84.0563 79.291 84.6643V84.8083H77.643V84.6163C77.643 84.3603 77.6003 84.1416 77.515 83.9603C77.4296 83.7683 77.2696 83.6189 77.035 83.5123C76.8003 83.4056 76.443 83.3523 75.963 83.3523C75.3336 83.3523 74.9176 83.4323 74.715 83.5923C74.5123 83.7523 74.411 83.9869 74.411 84.2963C74.411 84.6056 74.5016 84.8243 74.683 84.9523C74.875 85.0696 75.2483 85.1869 75.803 85.3043L77.163 85.5603C77.675 85.6563 78.1016 85.8003 78.443 85.9923C78.7843 86.1843 79.0403 86.4349 79.211 86.7443C79.3923 87.0536 79.483 87.4216 79.483 87.8483C79.483 88.5949 79.2003 89.1763 78.635 89.5923C78.0803 89.9976 77.3016 90.2003 76.299 90.2003Z" fill="#DFF0D8"/>
<path d="M46.7389 68H41.9709V52.64H37.1389V49.216H38.0989C40.1149 49.216 41.3629 48.48 42.3869 46.56H46.7389V68ZM66.8584 60.608H54.9544V56.512H66.8584V60.608ZM83.6116 68.32C77.1476 68.32 74.7476 65.696 74.7476 61.44V60.736H79.4516V61.376C79.4516 63.328 80.1876 63.904 83.6116 63.904C86.2356 63.904 87.5796 63.456 87.5796 61.472C87.5796 59.36 86.6836 58.944 84.6036 58.944H80.0916V55.04H84.0916C86.0116 55.04 86.7476 54.656 86.7476 52.928C86.7476 51.232 85.5316 50.656 83.2916 50.656C80.4436 50.656 79.4516 51.232 79.4516 53.184V53.472H74.7476V53.12C74.7476 48.864 77.9156 46.24 83.4196 46.24C88.4756 46.24 91.5476 48.192 91.5476 52.032C91.5476 54.56 90.3316 56.288 87.5156 56.608V56.8C90.5876 57.088 92.4436 58.944 92.4436 62.112C92.4436 66.272 89.0196 68.32 83.6116 68.32Z" fill="#DFF0D8"/>
</svg>
