<svg width="130" height="130" viewBox="0 0 130 130" fill="none" xmlns="http://www.w3.org/2000/svg">
<circle cx="65" cy="65" r="65" transform="rotate(-90 65 65)" fill="#0C3A25"/>
<path d="M55.1516 90.2003C54.181 90.2003 53.4023 90.0296 52.8156 89.6883C52.229 89.3469 51.797 88.8723 51.5196 88.2643C51.253 87.6456 51.1196 86.9363 51.1196 86.1363V85.6883H52.9436V86.2643C52.9436 86.7976 52.9916 87.2349 53.0876 87.5763C53.1943 87.9069 53.4023 88.1469 53.7116 88.2963C54.0316 88.4456 54.4956 88.5203 55.1036 88.5203C55.7116 88.5203 56.1703 88.4456 56.4796 88.2963C56.789 88.1469 56.9916 87.9069 57.0876 87.5763C57.1943 87.2349 57.2476 86.7976 57.2476 86.2643V79.3203H59.0876V86.1203C59.0876 86.9309 58.949 87.6456 58.6716 88.2643C58.405 88.8723 57.9836 89.3469 57.4076 89.6883C56.8316 90.0296 56.0796 90.2003 55.1516 90.2003ZM64.5014 90.2003C63.6907 90.2003 62.9867 90.0296 62.3894 89.6883C61.7921 89.3363 61.3334 88.8509 61.0134 88.2323C60.6934 87.6029 60.5334 86.8776 60.5334 86.0563C60.5334 85.2349 60.6934 84.5149 61.0134 83.8963C61.3334 83.2776 61.7921 82.7976 62.3894 82.4563C62.9867 82.1043 63.6907 81.9283 64.5014 81.9283C65.3121 81.9283 66.0054 82.1043 66.5814 82.4563C67.1681 82.7976 67.6161 83.2776 67.9254 83.8963C68.2454 84.5149 68.4054 85.2349 68.4054 86.0563C68.4054 86.8776 68.2454 87.6029 67.9254 88.2323C67.6161 88.8509 67.1681 89.3363 66.5814 89.6883C66.0054 90.0296 65.3121 90.2003 64.5014 90.2003ZM64.5014 88.6643C65.3334 88.6643 65.9147 88.4563 66.2454 88.0403C66.5761 87.6136 66.7414 86.9523 66.7414 86.0563C66.7414 85.1603 66.5761 84.5043 66.2454 84.0883C65.9147 83.6723 65.3334 83.4643 64.5014 83.4643C63.6587 83.4643 63.0721 83.6723 62.7414 84.0883C62.4107 84.5043 62.2454 85.1603 62.2454 86.0563C62.2454 86.9523 62.4107 87.6136 62.7414 88.0403C63.0721 88.4563 63.6587 88.6643 64.5014 88.6643ZM72.9071 90.2003C72.2245 90.2003 71.6591 90.0616 71.2111 89.7843C70.7631 89.4963 70.4325 89.1123 70.2191 88.6323C70.0058 88.1416 69.8991 87.5976 69.8991 87.0003V82.0883H71.6271V86.6803C71.6271 87.3949 71.7765 87.9123 72.0751 88.2323C72.3738 88.5523 72.8645 88.7123 73.5471 88.7123C73.9951 88.7123 74.3738 88.6429 74.6831 88.5043C74.9925 88.3549 75.2271 88.1256 75.3871 87.8163C75.5471 87.4963 75.6271 87.0803 75.6271 86.5683H76.0751V88.4563H75.6911C75.5738 88.7549 75.3925 89.0376 75.1471 89.3043C74.9125 89.5709 74.6085 89.7896 74.2351 89.9603C73.8725 90.1203 73.4298 90.2003 72.9071 90.2003ZM77.3551 90.0403H75.7551V87.6563L75.6271 87.5763V82.0883H77.3551V90.0403Z" fill="#DFF0D8"/>
<path d="M46.7389 68H41.9709V52.64H37.1389V49.216H38.0989C40.1149 49.216 41.3629 48.48 42.3869 46.56H46.7389V68ZM66.8584 60.608H54.9544V56.512H66.8584V60.608ZM83.6116 68.32C77.1476 68.32 74.7476 65.696 74.7476 61.44V60.736H79.4516V61.376C79.4516 63.328 80.1876 63.904 83.6116 63.904C86.2356 63.904 87.5796 63.456 87.5796 61.472C87.5796 59.36 86.6836 58.944 84.6036 58.944H80.0916V55.04H84.0916C86.0116 55.04 86.7476 54.656 86.7476 52.928C86.7476 51.232 85.5316 50.656 83.2916 50.656C80.4436 50.656 79.4516 51.232 79.4516 53.184V53.472H74.7476V53.12C74.7476 48.864 77.9156 46.24 83.4196 46.24C88.4756 46.24 91.5476 48.192 91.5476 52.032C91.5476 54.56 90.3316 56.288 87.5156 56.608V56.8C90.5876 57.088 92.4436 58.944 92.4436 62.112C92.4436 66.272 89.0196 68.32 83.6116 68.32Z" fill="#DFF0D8"/>
</svg>
