<svg width="168" height="168" viewBox="0 0 168 168" fill="none" xmlns="http://www.w3.org/2000/svg">
<g filter="url(#filter0_d_5790_17561)">
<circle cx="84" cy="80" r="80" transform="rotate(-90 84 80)" fill="#0C3A25"/>
<path d="M70.3991 113H67.1511V111.432H70.3991C71.2525 111.432 71.9405 111.309 72.4631 111.064C72.9965 110.819 73.3805 110.419 73.6151 109.864C73.8605 109.299 73.9831 108.557 73.9831 107.64C73.9831 106.723 73.8605 105.987 73.6151 105.432C73.3805 104.867 72.9965 104.461 72.4631 104.216C71.9405 103.96 71.2525 103.832 70.3991 103.832H67.1511V102.28H70.3991C71.5085 102.28 72.4685 102.499 73.2791 102.936C74.1005 103.363 74.7298 103.976 75.1671 104.776C75.6045 105.576 75.8231 106.531 75.8231 107.64C75.8231 108.749 75.6045 109.704 75.1671 110.504C74.7298 111.304 74.1005 111.923 73.2791 112.36C72.4685 112.787 71.5085 113 70.3991 113ZM68.3191 113H66.5911V102.28H68.3191V113ZM84.1697 113H82.5697V111.432L82.5217 111V107.944C82.5217 107.347 82.3777 106.941 82.0897 106.728C81.8124 106.515 81.3591 106.408 80.7297 106.408C80.1004 106.408 79.6471 106.52 79.3697 106.744C79.1031 106.968 78.9697 107.341 78.9697 107.864V108.104H77.3057V107.944C77.3057 107.347 77.4497 106.819 77.7377 106.36C78.0364 105.901 78.4471 105.544 78.9697 105.288C79.5031 105.021 80.1217 104.888 80.8257 104.888C81.5724 104.888 82.1911 105.027 82.6817 105.304C83.1724 105.581 83.5404 105.965 83.7857 106.456C84.0417 106.936 84.1697 107.507 84.1697 108.168V113ZM79.6097 113.16C78.8951 113.16 78.2924 112.979 77.8017 112.616C77.3217 112.243 77.0817 111.715 77.0817 111.032C77.0817 110.584 77.1831 110.211 77.3857 109.912C77.5991 109.613 77.9031 109.368 78.2977 109.176C78.6924 108.984 79.1724 108.851 79.7377 108.776L82.6817 108.36V109.576L79.9937 109.976C79.5351 110.04 79.2151 110.136 79.0337 110.264C78.8524 110.392 78.7617 110.605 78.7617 110.904C78.7617 111.213 78.8684 111.437 79.0817 111.576C79.3057 111.715 79.6684 111.784 80.1697 111.784C80.5537 111.784 80.9217 111.725 81.2737 111.608C81.6364 111.48 81.9351 111.272 82.1697 110.984C82.4044 110.685 82.5217 110.269 82.5217 109.736L82.7457 111.768L82.4897 111.752C82.3404 111.997 82.1324 112.227 81.8657 112.44C81.6097 112.653 81.2951 112.829 80.9217 112.968C80.5484 113.096 80.1111 113.16 79.6097 113.16ZM86.9969 115.72C86.7835 115.72 86.5649 115.704 86.3409 115.672C86.1169 115.651 85.9355 115.619 85.7969 115.576V114.168H86.9009C87.2315 114.168 87.4769 114.12 87.6369 114.024C87.7969 113.939 87.9462 113.752 88.0849 113.464L88.5809 112.344L88.4369 112.904L84.9969 105.048H86.9009L88.5009 108.904L89.2209 110.632H89.3649L90.0049 108.904L91.4609 105.048H93.3809L89.6049 113.928C89.4129 114.408 89.1942 114.776 88.9489 115.032C88.7035 115.288 88.4209 115.464 88.1009 115.56C87.7915 115.667 87.4235 115.72 86.9969 115.72ZM97.5902 113.16C96.4276 113.16 95.5476 112.931 94.9502 112.472C94.3529 112.003 94.0542 111.283 94.0542 110.312V110.28H95.7182V110.568C95.7182 110.845 95.7716 111.075 95.8782 111.256C95.9956 111.427 96.1876 111.555 96.4542 111.64C96.7316 111.715 97.1209 111.752 97.6222 111.752C98.0489 111.752 98.3689 111.72 98.5822 111.656C98.8062 111.581 98.9556 111.48 99.0302 111.352C99.1049 111.224 99.1422 111.064 99.1422 110.872C99.1422 110.552 99.0302 110.328 98.8062 110.2C98.5822 110.061 98.1822 109.939 97.6062 109.832L96.3582 109.624C95.8889 109.528 95.4782 109.395 95.1262 109.224C94.7849 109.043 94.5182 108.797 94.3262 108.488C94.1449 108.168 94.0542 107.768 94.0542 107.288C94.0542 106.573 94.3369 105.997 94.9022 105.56C95.4676 105.112 96.2676 104.888 97.3022 104.888C97.9316 104.888 98.4916 104.989 98.9822 105.192C99.4729 105.395 99.8622 105.699 100.15 106.104C100.438 106.509 100.582 107.016 100.582 107.624V107.768H98.9342V107.576C98.9342 107.32 98.8916 107.101 98.8062 106.92C98.7209 106.728 98.5609 106.579 98.3262 106.472C98.0916 106.365 97.7342 106.312 97.2542 106.312C96.6249 106.312 96.2089 106.392 96.0062 106.552C95.8036 106.712 95.7022 106.947 95.7022 107.256C95.7022 107.565 95.7929 107.784 95.9742 107.912C96.1662 108.029 96.5396 108.147 97.0942 108.264L98.4542 108.52C98.9662 108.616 99.3929 108.76 99.7342 108.952C100.076 109.144 100.332 109.395 100.502 109.704C100.684 110.013 100.774 110.381 100.774 110.808C100.774 111.555 100.492 112.136 99.9262 112.552C99.3716 112.957 98.5929 113.16 97.5902 113.16Z" fill="#DFF0D8"/>
<path d="M65.7575 84.7695V63.3295H61.4055C60.3815 65.2495 59.1335 65.9855 57.1175 65.9855H56.1575V69.4095H60.9895V84.7695H65.7575ZM85.877 77.3775V73.2815H73.973V77.3775H85.877ZM102.63 85.0895C108.038 85.0895 111.462 83.0415 111.462 78.8815C111.462 75.7135 109.606 73.8575 106.534 73.5695V73.3775C109.35 73.0575 110.566 71.3295 110.566 68.8015C110.566 64.9615 107.494 63.0095 102.438 63.0095C96.9342 63.0095 93.7662 65.6335 93.7662 69.8895V70.2415H98.4702V69.9535C98.4702 68.0015 99.4622 67.4255 102.31 67.4255C104.55 67.4255 105.766 68.0015 105.766 69.6975C105.766 71.4255 105.03 71.8095 103.11 71.8095H99.1102V75.7135H103.622C105.702 75.7135 106.598 76.1295 106.598 78.2415C106.598 80.2255 105.254 80.6735 102.63 80.6735C99.2062 80.6735 98.4702 80.0975 98.4702 78.1455V77.5055H93.7662V78.2095C93.7662 82.4655 96.1662 85.0895 102.63 85.0895Z" fill="#DFF0D8"/>
</g>
<defs>
<filter id="filter0_d_5790_17561" x="0" y="0" width="168" height="168" filterUnits="userSpaceOnUse" color-interpolation-filters="sRGB">
<feFlood flood-opacity="0" result="BackgroundImageFix"/>
<feColorMatrix in="SourceAlpha" type="matrix" values="0 0 0 0 0 0 0 0 0 0 0 0 0 0 0 0 0 0 127 0" result="hardAlpha"/>
<feOffset dy="4"/>
<feGaussianBlur stdDeviation="2"/>
<feComposite in2="hardAlpha" operator="out"/>
<feColorMatrix type="matrix" values="0 0 0 0 0 0 0 0 0 0 0 0 0 0 0 0 0 0 0.25 0"/>
<feBlend mode="normal" in2="BackgroundImageFix" result="effect1_dropShadow_5790_17561"/>
<feBlend mode="normal" in="SourceGraphic" in2="effect1_dropShadow_5790_17561" result="shape"/>
</filter>
</defs>
</svg>
