<svg width="52" height="52" viewBox="0 0 52 52" fill="none" xmlns="http://www.w3.org/2000/svg">
<path d="M22.4768 25.7559H16.8176V24.7839C16.8176 23.3799 17.768 22.7967 18.7724 22.3107L20.0252 21.7167C20.6624 21.4143 20.8892 21.1767 20.8892 20.7015C20.8892 20.1831 20.6516 19.8915 19.6904 19.8915C18.6428 19.8915 18.4268 20.1831 18.4268 20.9607V21.1443H16.8068V20.9715C16.8068 19.5675 17.6708 18.4119 19.82 18.4119C21.7316 18.4119 22.4984 19.3839 22.4984 20.6907C22.4984 21.9435 21.6128 22.5807 20.6732 23.0019L19.5824 23.4771C18.9884 23.7471 18.5456 23.9739 18.5456 24.3195L19.712 24.2979H22.4768V25.7559ZM26.8179 25.8639C24.7335 25.8639 23.5671 24.3951 23.5671 22.1379C23.5671 19.8915 24.7335 18.4119 26.8179 18.4119C28.8915 18.4119 30.0579 19.8915 30.0579 22.1379C30.0579 24.3951 28.8915 25.8639 26.8179 25.8639ZM26.8179 24.2979C27.9195 24.2979 28.3299 23.8551 28.3299 22.1379C28.3299 20.4207 27.9195 19.9779 26.8179 19.9779C25.7055 19.9779 25.2951 20.4207 25.2951 22.1379C25.2951 23.8551 25.7055 24.2979 26.8179 24.2979ZM32.7155 21.9975C31.5491 21.9975 30.8147 21.3171 30.8147 20.2047C30.8147 19.0923 31.5491 18.4119 32.7155 18.4119C33.8711 18.4119 34.6055 19.0923 34.6055 20.2047C34.6055 21.3171 33.8711 21.9975 32.7155 21.9975ZM33.0287 25.7559H31.5491L36.7655 18.5199H38.2343L33.0287 25.7559ZM32.7155 20.8959C33.2231 20.8959 33.3959 20.7663 33.3959 20.2047C33.3959 19.6431 33.2231 19.5135 32.7155 19.5135C32.2079 19.5135 32.0351 19.6431 32.0351 20.2047C32.0351 20.7663 32.2079 20.8959 32.7155 20.8959ZM37.0787 25.8639C35.9123 25.8639 35.1779 25.1835 35.1779 24.0711C35.1779 22.9587 35.9123 22.2783 37.0787 22.2783C38.2451 22.2783 38.9687 22.9587 38.9687 24.0711C38.9687 25.1835 38.2451 25.8639 37.0787 25.8639ZM37.0787 24.7623C37.5863 24.7623 37.7591 24.6327 37.7591 24.0711C37.7591 23.5095 37.5863 23.3799 37.0787 23.3799C36.5711 23.3799 36.3983 23.5095 36.3983 24.0711C36.3983 24.6327 36.5711 24.7623 37.0787 24.7623Z" fill="black"/>
<path d="M17.0013 34.2642C16.581 34.2642 16.217 34.1732 15.9093 33.9912C15.606 33.8049 15.372 33.5449 15.2073 33.2112C15.047 32.8732 14.9668 32.4767 14.9668 32.0217C14.9668 31.5667 15.047 31.1724 15.2073 30.8387C15.372 30.5007 15.606 30.2407 15.9093 30.0587C16.217 29.8724 16.581 29.7792 17.0013 29.7792C17.3956 29.7792 17.7315 29.8486 18.0088 29.9872C18.2861 30.1259 18.5006 30.3209 18.6523 30.5722C18.804 30.8236 18.8798 31.1247 18.8798 31.4757V31.5147H18.1388V31.4757C18.1388 31.1204 18.0478 30.8626 17.8658 30.7022C17.6881 30.5376 17.3935 30.4552 16.9818 30.4552C16.6828 30.4552 16.4401 30.5072 16.2538 30.6112C16.0675 30.7152 15.931 30.8821 15.8443 31.1117C15.7576 31.3414 15.7143 31.6447 15.7143 32.0217C15.7143 32.3944 15.7576 32.6977 15.8443 32.9317C15.931 33.1614 16.0675 33.3282 16.2538 33.4322C16.4401 33.5319 16.6828 33.5817 16.9818 33.5817C17.3935 33.5817 17.6881 33.5016 17.8658 33.3412C18.0478 33.1809 18.1388 32.9231 18.1388 32.5677V32.5287H18.8798V32.5677C18.8798 32.9144 18.804 33.2156 18.6523 33.4712C18.5006 33.7226 18.2861 33.9176 18.0088 34.0562C17.7315 34.1949 17.3956 34.2642 17.0013 34.2642ZM22.5645 34.1992H21.8625V32.3207C21.8625 32.0347 21.8062 31.8289 21.6935 31.7032C21.5852 31.5732 21.3837 31.5082 21.089 31.5082C20.8073 31.5082 20.5972 31.5711 20.4585 31.6967C20.3242 31.8181 20.257 32.0326 20.257 32.3402H20.1335L20.127 31.5082H20.283C20.335 31.4086 20.4065 31.3132 20.4975 31.2222C20.5928 31.1269 20.712 31.0511 20.855 30.9947C21.0023 30.9341 21.1713 30.9037 21.362 30.9037C21.648 30.9037 21.8777 30.9601 22.051 31.0727C22.2287 31.1811 22.3587 31.3306 22.441 31.5212C22.5233 31.7119 22.5645 31.9264 22.5645 32.1647V34.1992ZM20.257 34.1992H19.555V29.8442H20.257V34.1992ZM26.0582 34.1992H25.4082V33.5622L25.3887 33.3867V32.1452C25.3887 31.9026 25.3302 31.7379 25.2132 31.6512C25.1006 31.5646 24.9164 31.5212 24.6607 31.5212C24.4051 31.5212 24.2209 31.5667 24.1082 31.6577C23.9999 31.7487 23.9457 31.9004 23.9457 32.1127V32.2102H23.2697V32.1452C23.2697 31.9026 23.3282 31.6881 23.4452 31.5017C23.5666 31.3154 23.7334 31.1702 23.9457 31.0662C24.1624 30.9579 24.4137 30.9037 24.6997 30.9037C25.0031 30.9037 25.2544 30.9601 25.4537 31.0727C25.6531 31.1854 25.8026 31.3414 25.9022 31.5407C26.0062 31.7357 26.0582 31.9676 26.0582 32.2362V34.1992ZM24.2057 34.2642C23.9154 34.2642 23.6706 34.1906 23.4712 34.0432C23.2762 33.8916 23.1787 33.6771 23.1787 33.3997C23.1787 33.2177 23.2199 33.0661 23.3022 32.9447C23.3889 32.8234 23.5124 32.7237 23.6727 32.6457C23.8331 32.5677 24.0281 32.5136 24.2577 32.4832L25.4537 32.3142V32.8082L24.3617 32.9707C24.1754 32.9967 24.0454 33.0357 23.9717 33.0877C23.8981 33.1397 23.8612 33.2264 23.8612 33.3477C23.8612 33.4734 23.9046 33.5644 23.9912 33.6207C24.0822 33.6771 24.2296 33.7052 24.4332 33.7052C24.5892 33.7052 24.7387 33.6814 24.8817 33.6337C25.0291 33.5817 25.1504 33.4972 25.2457 33.3802C25.3411 33.2589 25.3887 33.0899 25.3887 32.8732L25.4797 33.6987L25.3757 33.6922C25.3151 33.7919 25.2306 33.8851 25.1222 33.9717C25.0182 34.0584 24.8904 34.1299 24.7387 34.1862C24.5871 34.2382 24.4094 34.2642 24.2057 34.2642ZM29.8187 34.1992H29.1167V32.3207C29.1167 32.0347 29.0625 31.8289 28.9542 31.7032C28.8458 31.5732 28.6422 31.5082 28.3432 31.5082C28.1525 31.5082 27.9965 31.5364 27.8752 31.5927C27.7538 31.6447 27.6628 31.7314 27.6022 31.8527C27.5415 31.9697 27.5112 32.1301 27.5112 32.3337H27.3877L27.3292 31.5732H27.4852C27.5328 31.4562 27.6043 31.3479 27.6997 31.2482C27.795 31.1486 27.9163 31.0662 28.0637 31.0012C28.2153 30.9362 28.3952 30.9037 28.6032 30.9037C28.8848 30.9037 29.1145 30.9579 29.2922 31.0662C29.4698 31.1746 29.602 31.3241 29.6887 31.5147C29.7753 31.7054 29.8187 31.9242 29.8187 32.1712V34.1992ZM27.5112 34.1992H26.8092V30.9687H27.4527V31.9372L27.5112 31.9697V34.1992ZM32.0064 34.2707C31.6684 34.2707 31.3824 34.1992 31.1484 34.0562C30.9144 33.9132 30.7345 33.7161 30.6089 33.4647C30.4875 33.2134 30.4269 32.9209 30.4269 32.5872C30.4269 32.2536 30.4897 31.9611 30.6154 31.7097C30.7454 31.4541 30.9295 31.2569 31.1679 31.1182C31.4062 30.9752 31.6944 30.9037 32.0324 30.9037C32.3184 30.9037 32.5697 30.9579 32.7864 31.0662C33.003 31.1746 33.1699 31.3262 33.2869 31.5212C33.4082 31.7162 33.4689 31.9437 33.4689 32.2037V32.2622H32.7734V32.2232C32.7734 31.9849 32.7084 31.8116 32.5784 31.7032C32.4527 31.5906 32.2555 31.5342 31.9869 31.5342C31.6749 31.5342 31.4517 31.6231 31.3174 31.8007C31.1874 31.9741 31.1224 32.2341 31.1224 32.5807C31.1224 32.9317 31.1874 33.1961 31.3174 33.3737C31.4517 33.5471 31.6749 33.6337 31.9869 33.6337C32.2555 33.6337 32.4527 33.5796 32.5784 33.4712C32.7084 33.3586 32.7734 33.1852 32.7734 32.9512V32.9122H33.4689V32.9707C33.4689 33.2221 33.4082 33.4474 33.2869 33.6467C33.1655 33.8417 32.9944 33.9956 32.7734 34.1082C32.5567 34.2166 32.301 34.2707 32.0064 34.2707ZM35.5443 34.2642C35.1933 34.2642 34.9008 34.1949 34.6668 34.0562C34.4328 33.9132 34.2594 33.7161 34.1468 33.4647C34.0341 33.2091 33.9778 32.9144 33.9778 32.5807C33.9778 32.2471 34.0406 31.9546 34.1663 31.7032C34.2963 31.4519 34.4783 31.2569 34.7123 31.1182C34.9463 30.9752 35.2236 30.9037 35.5443 30.9037C35.8346 30.9037 36.0903 30.9601 36.3113 31.0727C36.5366 31.1811 36.7099 31.3392 36.8313 31.5472C36.9569 31.7552 37.0198 32.0066 37.0198 32.3012C37.0198 32.3879 37.0154 32.4724 37.0068 32.5547C37.0024 32.6327 36.9959 32.6977 36.9873 32.7497H34.3093V32.2817H36.4153L36.3438 32.3467C36.3611 32.1474 36.3394 31.9849 36.2788 31.8592C36.2224 31.7336 36.1293 31.6404 35.9993 31.5797C35.8736 31.5191 35.7154 31.4887 35.5248 31.4887C35.1824 31.4887 34.9484 31.5754 34.8228 31.7487C34.6971 31.9177 34.6343 32.1517 34.6343 32.4507V32.6457C34.6343 32.8624 34.6603 33.0466 34.7123 33.1982C34.7686 33.3456 34.8639 33.4561 34.9983 33.5297C35.1326 33.6034 35.3168 33.6402 35.5508 33.6402C35.8238 33.6402 36.0166 33.5969 36.1293 33.5102C36.2419 33.4236 36.2983 33.3087 36.2983 33.1657V33.1137H36.9938V33.1722C36.9938 33.3932 36.9331 33.5861 36.8118 33.7507C36.6904 33.9111 36.5214 34.0367 36.3048 34.1277C36.0924 34.2187 35.8389 34.2642 35.5443 34.2642Z" fill="black"/>
<path d="M25.9994 0.801169C39.7857 0.801169 50.9617 12.0836 50.9617 26.0012C50.9617 39.9187 39.7857 51.2012 25.9994 51.2012C12.2131 51.2012 1.03711 39.9187 1.03711 26.0012C1.03711 12.0836 12.2131 0.80117 25.9994 0.801169ZM25.9994 47.4212C37.7177 47.4212 47.2173 37.8311 47.2173 26.0012C47.2173 14.1712 37.7177 4.58117 25.9994 4.58117C14.281 4.58117 4.78145 14.1712 4.78145 26.0012C4.78145 37.8311 14.281 47.4212 25.9994 47.4212Z" fill="#D7BEAE"/>
<path d="M25.9998 0.801169C31.3215 0.801169 36.5067 2.48591 40.812 5.61394C45.1174 8.74197 48.322 13.1527 49.9665 18.2139L46.3715 19.382C44.9736 15.08 42.2497 11.3308 38.5902 8.67203C34.9306 6.0132 30.5233 4.58117 25.9998 4.58117L25.9998 0.801169Z" fill="#A86133"/>
</svg>
