<svg width="51" height="51" viewBox="0 0 51 51" fill="none" xmlns="http://www.w3.org/2000/svg">
<path d="M21.677 24.9551H16.0178V23.9831C16.0178 22.5791 16.9682 21.9959 17.9726 21.5099L19.2254 20.9159C19.8626 20.6135 20.0894 20.3759 20.0894 19.9007C20.0894 19.3823 19.8518 19.0907 18.8906 19.0907C17.843 19.0907 17.627 19.3823 17.627 20.1599V20.3435H16.007V20.1707C16.007 18.7667 16.871 17.6111 19.0202 17.6111C20.9318 17.6111 21.6986 18.5831 21.6986 19.8899C21.6986 21.1427 20.813 21.7799 19.8734 22.2011L18.7826 22.6763C18.1886 22.9463 17.7458 23.1731 17.7458 23.5187L18.9122 23.4971H21.677V24.9551ZM26.0181 25.0631C23.9337 25.0631 22.7673 23.5943 22.7673 21.3371C22.7673 19.0907 23.9337 17.6111 26.0181 17.6111C28.0917 17.6111 29.2581 19.0907 29.2581 21.3371C29.2581 23.5943 28.0917 25.0631 26.0181 25.0631ZM26.0181 23.4971C27.1197 23.4971 27.5301 23.0543 27.5301 21.3371C27.5301 19.6199 27.1197 19.1771 26.0181 19.1771C24.9057 19.1771 24.4953 19.6199 24.4953 21.3371C24.4953 23.0543 24.9057 23.4971 26.0181 23.4971ZM31.9157 21.1967C30.7493 21.1967 30.0149 20.5163 30.0149 19.4039C30.0149 18.2915 30.7493 17.6111 31.9157 17.6111C33.0713 17.6111 33.8057 18.2915 33.8057 19.4039C33.8057 20.5163 33.0713 21.1967 31.9157 21.1967ZM32.2289 24.9551H30.7493L35.9657 17.7191H37.4345L32.2289 24.9551ZM31.9157 20.0951C32.4233 20.0951 32.5961 19.9655 32.5961 19.4039C32.5961 18.8423 32.4233 18.7127 31.9157 18.7127C31.4081 18.7127 31.2353 18.8423 31.2353 19.4039C31.2353 19.9655 31.4081 20.0951 31.9157 20.0951ZM36.2789 25.0631C35.1125 25.0631 34.3781 24.3827 34.3781 23.2703C34.3781 22.1579 35.1125 21.4775 36.2789 21.4775C37.4453 21.4775 38.1689 22.1579 38.1689 23.2703C38.1689 24.3827 37.4453 25.0631 36.2789 25.0631ZM36.2789 23.9615C36.7865 23.9615 36.9593 23.8319 36.9593 23.2703C36.9593 22.7087 36.7865 22.5791 36.2789 22.5791C35.7713 22.5791 35.5985 22.7087 35.5985 23.2703C35.5985 23.8319 35.7713 23.9615 36.2789 23.9615Z" fill="black"/>
<path d="M18.123 33.4644C17.7026 33.4644 17.3386 33.3734 17.031 33.1914C16.7276 33.0051 16.4936 32.7451 16.329 32.4114C16.1686 32.0734 16.0885 31.6769 16.0885 31.2219C16.0885 30.7669 16.1686 30.3726 16.329 30.0389C16.4936 29.7009 16.7276 29.4409 17.031 29.2589C17.3386 29.0726 17.7026 28.9794 18.123 28.9794C18.5173 28.9794 18.8531 29.0487 19.1305 29.1874C19.4078 29.3261 19.6223 29.5211 19.774 29.7724C19.9256 30.0237 20.0015 30.3249 20.0015 30.6759V30.7149H19.2605V30.6759C19.2605 30.3206 19.1695 30.0627 18.9875 29.9024C18.8098 29.7377 18.5151 29.6554 18.1035 29.6554C17.8045 29.6554 17.5618 29.7074 17.3755 29.8114C17.1891 29.9154 17.0526 30.0822 16.966 30.3119C16.8793 30.5416 16.836 30.8449 16.836 31.2219C16.836 31.5946 16.8793 31.8979 16.966 32.1319C17.0526 32.3616 17.1891 32.5284 17.3755 32.6324C17.5618 32.7321 17.8045 32.7819 18.1035 32.7819C18.5151 32.7819 18.8098 32.7017 18.9875 32.5414C19.1695 32.3811 19.2605 32.1232 19.2605 31.7679V31.7289H20.0015V31.7679C20.0015 32.1146 19.9256 32.4157 19.774 32.6714C19.6223 32.9227 19.4078 33.1177 19.1305 33.2564C18.8531 33.3951 18.5173 33.4644 18.123 33.4644ZM23.6861 33.3994H22.9841V31.5209C22.9841 31.2349 22.9278 31.0291 22.8151 30.9034C22.7068 30.7734 22.5053 30.7084 22.2106 30.7084C21.929 30.7084 21.7188 30.7712 21.5801 30.8969C21.4458 31.0182 21.3786 31.2327 21.3786 31.5404H21.2551L21.2486 30.7084H21.4046C21.4566 30.6087 21.5281 30.5134 21.6191 30.4224C21.7145 30.3271 21.8336 30.2512 21.9766 30.1949C22.124 30.1342 22.293 30.1039 22.4836 30.1039C22.7696 30.1039 22.9993 30.1602 23.1726 30.2729C23.3503 30.3812 23.4803 30.5307 23.5626 30.7214C23.645 30.9121 23.6861 31.1266 23.6861 31.3649V33.3994ZM21.3786 33.3994H20.6766V29.0444H21.3786V33.3994ZM27.1799 33.3994H26.5299V32.7624L26.5104 32.5869V31.3454C26.5104 31.1027 26.4519 30.9381 26.3349 30.8514C26.2222 30.7647 26.038 30.7214 25.7824 30.7214C25.5267 30.7214 25.3425 30.7669 25.2299 30.8579C25.1215 30.9489 25.0674 31.1006 25.0674 31.3129V31.4104H24.3914V31.3454C24.3914 31.1027 24.4499 30.8882 24.5669 30.7019C24.6882 30.5156 24.855 30.3704 25.0674 30.2664C25.284 30.1581 25.5354 30.1039 25.8214 30.1039C26.1247 30.1039 26.376 30.1602 26.5754 30.2729C26.7747 30.3856 26.9242 30.5416 27.0239 30.7409C27.1279 30.9359 27.1799 31.1677 27.1799 31.4364V33.3994ZM25.3274 33.4644C25.037 33.4644 24.7922 33.3907 24.5929 33.2434C24.3979 33.0917 24.3004 32.8772 24.3004 32.5999C24.3004 32.4179 24.3415 32.2662 24.4239 32.1449C24.5105 32.0236 24.634 31.9239 24.7944 31.8459C24.9547 31.7679 25.1497 31.7137 25.3794 31.6834L26.5754 31.5144V32.0084L25.4834 32.1709C25.297 32.1969 25.167 32.2359 25.0934 32.2879C25.0197 32.3399 24.9829 32.4266 24.9829 32.5479C24.9829 32.6736 25.0262 32.7646 25.1129 32.8209C25.2039 32.8772 25.3512 32.9054 25.5549 32.9054C25.7109 32.9054 25.8604 32.8816 26.0034 32.8339C26.1507 32.7819 26.272 32.6974 26.3674 32.5804C26.4627 32.4591 26.5104 32.2901 26.5104 32.0734L26.6014 32.8989L26.4974 32.8924C26.4367 32.9921 26.3522 33.0852 26.2439 33.1719C26.1399 33.2586 26.012 33.3301 25.8604 33.3864C25.7087 33.4384 25.531 33.4644 25.3274 33.4644ZM30.9403 33.3994H30.2383V31.5209C30.2383 31.2349 30.1842 31.0291 30.0758 30.9034C29.9675 30.7734 29.7638 30.7084 29.4648 30.7084C29.2742 30.7084 29.1182 30.7366 28.9968 30.7929C28.8755 30.8449 28.7845 30.9316 28.7238 31.0529C28.6632 31.1699 28.6328 31.3302 28.6328 31.5339H28.5093L28.4508 30.7734H28.6068C28.6545 30.6564 28.726 30.5481 28.8213 30.4484C28.9167 30.3487 29.038 30.2664 29.1853 30.2014C29.337 30.1364 29.5168 30.1039 29.7248 30.1039C30.0065 30.1039 30.2362 30.1581 30.4138 30.2664C30.5915 30.3747 30.7237 30.5242 30.8103 30.7149C30.897 30.9056 30.9403 31.1244 30.9403 31.3714V33.3994ZM28.6328 33.3994H27.9308V30.1689H28.5743V31.1374L28.6328 31.1699V33.3994ZM33.0307 33.4644C32.5583 33.4644 32.2008 33.3712 31.9582 33.1849C31.7155 32.9942 31.5942 32.7017 31.5942 32.3074V32.2944H32.2702V32.4114C32.2702 32.5241 32.2918 32.6172 32.3352 32.6909C32.3828 32.7602 32.4608 32.8122 32.5692 32.8469C32.6818 32.8772 32.84 32.8924 33.0437 32.8924C33.217 32.8924 33.347 32.8794 33.4337 32.8534C33.5247 32.8231 33.5853 32.7819 33.6157 32.7299C33.646 32.6779 33.6612 32.6129 33.6612 32.5349C33.6612 32.4049 33.6157 32.3139 33.5247 32.2619C33.4337 32.2056 33.2712 32.1557 33.0372 32.1124L32.5302 32.0279C32.3395 31.9889 32.1727 31.9347 32.0297 31.8654C31.891 31.7917 31.7827 31.6921 31.7047 31.5664C31.631 31.4364 31.5942 31.2739 31.5942 31.0789C31.5942 30.7886 31.709 30.5546 31.9387 30.3769C32.1683 30.1949 32.4933 30.1039 32.9137 30.1039C33.1693 30.1039 33.3968 30.1451 33.5962 30.2274C33.7955 30.3097 33.9537 30.4332 34.0707 30.5979C34.1877 30.7626 34.2462 30.9684 34.2462 31.2154V31.2739H33.5767V31.1959C33.5767 31.0919 33.5593 31.0031 33.5247 30.9294C33.49 30.8514 33.425 30.7907 33.3297 30.7474C33.2343 30.7041 33.0892 30.6824 32.8942 30.6824C32.6385 30.6824 32.4695 30.7149 32.3872 30.7799C32.3048 30.8449 32.2637 30.9402 32.2637 31.0659C32.2637 31.1916 32.3005 31.2804 32.3742 31.3324C32.4522 31.3801 32.6038 31.4277 32.8292 31.4754L33.3817 31.5794C33.5897 31.6184 33.763 31.6769 33.9017 31.7549C34.0403 31.8329 34.1443 31.9347 34.2137 32.0604C34.2873 32.1861 34.3242 32.3356 34.3242 32.5089C34.3242 32.8122 34.2093 33.0484 33.9797 33.2174C33.7543 33.3821 33.438 33.4644 33.0307 33.4644Z" fill="black"/>
<path d="M25.1996 0.000388008C38.9859 0.000387405 50.1619 11.2828 50.1619 25.2004C50.1619 39.118 38.9859 50.4004 25.1996 50.4004C11.4133 50.4004 0.237304 39.118 0.237304 25.2004C0.237303 11.2828 11.4133 0.000388611 25.1996 0.000388008ZM25.1996 46.6204C36.9179 46.6204 46.4175 37.0303 46.4175 25.2004C46.4175 13.3704 36.9179 3.78039 25.1996 3.78039C13.4812 3.78039 3.98164 13.3704 3.98164 25.2004C3.98164 37.0303 13.4812 46.6204 25.1996 46.6204Z" fill="#D7BEAE"/>
<path d="M25.2 0.000387998C30.5217 0.000387765 35.7068 1.68513 40.0122 4.81316C44.3176 7.94119 47.5222 12.3519 49.1667 17.4132L45.5717 18.5812C44.1738 14.2792 41.4499 10.5301 37.7904 7.87124C34.1308 5.21242 29.7235 3.78039 25.2 3.78039L25.2 0.000387998Z" fill="#A86133"/>
</svg>
