<svg width="52" height="52" viewBox="0 0 52 52" fill="none" xmlns="http://www.w3.org/2000/svg">
<path d="M22.4768 25.7559H16.8176V24.7839C16.8176 23.3799 17.768 22.7967 18.7724 22.3107L20.0252 21.7167C20.6624 21.4143 20.8892 21.1767 20.8892 20.7015C20.8892 20.1831 20.6516 19.8915 19.6904 19.8915C18.6428 19.8915 18.4268 20.1831 18.4268 20.9607V21.1443H16.8068V20.9715C16.8068 19.5675 17.6708 18.4119 19.82 18.4119C21.7316 18.4119 22.4984 19.3839 22.4984 20.6907C22.4984 21.9435 21.6128 22.5807 20.6732 23.0019L19.5824 23.4771C18.9884 23.7471 18.5456 23.9739 18.5456 24.3195L19.712 24.2979H22.4768V25.7559ZM29.2795 25.7559H23.6203V24.7839C23.6203 23.3799 24.5707 22.7967 25.5751 22.3107L26.8279 21.7167C27.4651 21.4143 27.6919 21.1767 27.6919 20.7015C27.6919 20.1831 27.4543 19.8915 26.4931 19.8915C25.4455 19.8915 25.2295 20.1831 25.2295 20.9607V21.1443H23.6095V20.9715C23.6095 19.5675 24.4735 18.4119 26.6227 18.4119C28.5343 18.4119 29.3011 19.3839 29.3011 20.6907C29.3011 21.9435 28.4155 22.5807 27.4759 23.0019L26.3851 23.4771C25.7911 23.7471 25.3483 23.9739 25.3483 24.3195L26.5147 24.2979H29.2795V25.7559ZM32.0722 21.9975C30.9058 21.9975 30.1714 21.3171 30.1714 20.2047C30.1714 19.0923 30.9058 18.4119 32.0722 18.4119C33.2278 18.4119 33.9622 19.0923 33.9622 20.2047C33.9622 21.3171 33.2278 21.9975 32.0722 21.9975ZM32.3854 25.7559H30.9058L36.1222 18.5199H37.591L32.3854 25.7559ZM32.0722 20.8959C32.5798 20.8959 32.7526 20.7663 32.7526 20.2047C32.7526 19.6431 32.5798 19.5135 32.0722 19.5135C31.5646 19.5135 31.3918 19.6431 31.3918 20.2047C31.3918 20.7663 31.5646 20.8959 32.0722 20.8959ZM36.4354 25.8639C35.269 25.8639 34.5346 25.1835 34.5346 24.0711C34.5346 22.9587 35.269 22.2783 36.4354 22.2783C37.6018 22.2783 38.3254 22.9587 38.3254 24.0711C38.3254 25.1835 37.6018 25.8639 36.4354 25.8639ZM36.4354 24.7623C36.943 24.7623 37.1158 24.6327 37.1158 24.0711C37.1158 23.5095 36.943 23.3799 36.4354 23.3799C35.9278 23.3799 35.755 23.5095 35.755 24.0711C35.755 24.6327 35.9278 24.7623 36.4354 24.7623Z" fill="black"/>
<path d="M17.2005 34.2642C16.7802 34.2642 16.4162 34.1732 16.1085 33.9912C15.8052 33.8049 15.5712 33.5449 15.4065 33.2112C15.2462 32.8732 15.166 32.4767 15.166 32.0217C15.166 31.5667 15.2462 31.1724 15.4065 30.8387C15.5712 30.5007 15.8052 30.2407 16.1085 30.0587C16.4162 29.8724 16.7802 29.7792 17.2005 29.7792C17.5949 29.7792 17.9307 29.8486 18.208 29.9872C18.4854 30.1259 18.6999 30.3209 18.8515 30.5722C19.0032 30.8236 19.079 31.1247 19.079 31.4757V31.5147H18.338V31.4757C18.338 31.1204 18.247 30.8626 18.065 30.7022C17.8874 30.5376 17.5927 30.4552 17.181 30.4552C16.882 30.4552 16.6394 30.5072 16.453 30.6112C16.2667 30.7152 16.1302 30.8821 16.0435 31.1117C15.9569 31.3414 15.9135 31.6447 15.9135 32.0217C15.9135 32.3944 15.9569 32.6977 16.0435 32.9317C16.1302 33.1614 16.2667 33.3282 16.453 33.4322C16.6394 33.5319 16.882 33.5817 17.181 33.5817C17.5927 33.5817 17.8874 33.5016 18.065 33.3412C18.247 33.1809 18.338 32.9231 18.338 32.5677V32.5287H19.079V32.5677C19.079 32.9144 19.0032 33.2156 18.8515 33.4712C18.6999 33.7226 18.4854 33.9176 18.208 34.0562C17.9307 34.1949 17.5949 34.2642 17.2005 34.2642ZM22.7637 34.1992H22.0617V32.3207C22.0617 32.0347 22.0054 31.8289 21.8927 31.7032C21.7844 31.5732 21.5829 31.5082 21.2882 31.5082C21.0065 31.5082 20.7964 31.5711 20.6577 31.6967C20.5234 31.8181 20.4562 32.0326 20.4562 32.3402H20.3327L20.3262 31.5082H20.4822C20.5342 31.4086 20.6057 31.3132 20.6967 31.2222C20.792 31.1269 20.9112 31.0511 21.0542 30.9947C21.2015 30.9341 21.3705 30.9037 21.5612 30.9037C21.8472 30.9037 22.0769 30.9601 22.2502 31.0727C22.4279 31.1811 22.5579 31.3306 22.6402 31.5212C22.7225 31.7119 22.7637 31.9264 22.7637 32.1647V34.1992ZM20.4562 34.1992H19.7542V29.8442H20.4562V34.1992ZM26.2574 34.1992H25.6074V33.5622L25.5879 33.3867V32.1452C25.5879 31.9026 25.5294 31.7379 25.4124 31.6512C25.2998 31.5646 25.1156 31.5212 24.8599 31.5212C24.6043 31.5212 24.4201 31.5667 24.3074 31.6577C24.1991 31.7487 24.1449 31.9004 24.1449 32.1127V32.2102H23.4689V32.1452C23.4689 31.9026 23.5274 31.6881 23.6444 31.5017C23.7658 31.3154 23.9326 31.1702 24.1449 31.0662C24.3616 30.9579 24.6129 30.9037 24.8989 30.9037C25.2023 30.9037 25.4536 30.9601 25.6529 31.0727C25.8523 31.1854 26.0018 31.3414 26.1014 31.5407C26.2054 31.7357 26.2574 31.9676 26.2574 32.2362V34.1992ZM24.4049 34.2642C24.1146 34.2642 23.8698 34.1906 23.6704 34.0432C23.4754 33.8916 23.3779 33.6771 23.3779 33.3997C23.3779 33.2177 23.4191 33.0661 23.5014 32.9447C23.5881 32.8234 23.7116 32.7237 23.8719 32.6457C24.0323 32.5677 24.2273 32.5136 24.4569 32.4832L25.6529 32.3142V32.8082L24.5609 32.9707C24.3746 32.9967 24.2446 33.0357 24.1709 33.0877C24.0973 33.1397 24.0604 33.2264 24.0604 33.3477C24.0604 33.4734 24.1038 33.5644 24.1904 33.6207C24.2814 33.6771 24.4288 33.7052 24.6324 33.7052C24.7884 33.7052 24.9379 33.6814 25.0809 33.6337C25.2283 33.5817 25.3496 33.4972 25.4449 33.3802C25.5403 33.2589 25.5879 33.0899 25.5879 32.8732L25.6789 33.6987L25.5749 33.6922C25.5143 33.7919 25.4298 33.8851 25.3214 33.9717C25.2174 34.0584 25.0896 34.1299 24.9379 34.1862C24.7863 34.2382 24.6086 34.2642 24.4049 34.2642ZM30.0179 34.1992H29.3159V32.3207C29.3159 32.0347 29.2617 31.8289 29.1534 31.7032C29.0451 31.5732 28.8414 31.5082 28.5424 31.5082C28.3517 31.5082 28.1957 31.5364 28.0744 31.5927C27.9531 31.6447 27.8621 31.7314 27.8014 31.8527C27.7407 31.9697 27.7104 32.1301 27.7104 32.3337H27.5869L27.5284 31.5732H27.6844C27.7321 31.4562 27.8036 31.3479 27.8989 31.2482C27.9942 31.1486 28.1156 31.0662 28.2629 31.0012C28.4146 30.9362 28.5944 30.9037 28.8024 30.9037C29.0841 30.9037 29.3137 30.9579 29.4914 31.0662C29.6691 31.1746 29.8012 31.3241 29.8879 31.5147C29.9746 31.7054 30.0179 31.9242 30.0179 32.1712V34.1992ZM27.7104 34.1992H27.0084V30.9687H27.6519V31.9372L27.7104 31.9697V34.1992ZM32.2056 34.2707C31.8676 34.2707 31.5816 34.1992 31.3476 34.0562C31.1136 33.9132 30.9337 33.7161 30.8081 33.4647C30.6867 33.2134 30.6261 32.9209 30.6261 32.5872C30.6261 32.2536 30.6889 31.9611 30.8146 31.7097C30.9446 31.4541 31.1287 31.2569 31.3671 31.1182C31.6054 30.9752 31.8936 30.9037 32.2316 30.9037C32.5176 30.9037 32.7689 30.9579 32.9856 31.0662C33.2022 31.1746 33.3691 31.3262 33.4861 31.5212C33.6074 31.7162 33.6681 31.9437 33.6681 32.2037V32.2622H32.9726V32.2232C32.9726 31.9849 32.9076 31.8116 32.7776 31.7032C32.6519 31.5906 32.4547 31.5342 32.1861 31.5342C31.8741 31.5342 31.6509 31.6231 31.5166 31.8007C31.3866 31.9741 31.3216 32.2341 31.3216 32.5807C31.3216 32.9317 31.3866 33.1961 31.5166 33.3737C31.6509 33.5471 31.8741 33.6337 32.1861 33.6337C32.4547 33.6337 32.6519 33.5796 32.7776 33.4712C32.9076 33.3586 32.9726 33.1852 32.9726 32.9512V32.9122H33.6681V32.9707C33.6681 33.2221 33.6074 33.4474 33.4861 33.6467C33.3647 33.8417 33.1936 33.9956 32.9726 34.1082C32.7559 34.2166 32.5002 34.2707 32.2056 34.2707ZM35.7435 34.2642C35.3925 34.2642 35.1 34.1949 34.866 34.0562C34.632 33.9132 34.4587 33.7161 34.346 33.4647C34.2333 33.2091 34.177 32.9144 34.177 32.5807C34.177 32.2471 34.2398 31.9546 34.3655 31.7032C34.4955 31.4519 34.6775 31.2569 34.9115 31.1182C35.1455 30.9752 35.4228 30.9037 35.7435 30.9037C36.0338 30.9037 36.2895 30.9601 36.5105 31.0727C36.7358 31.1811 36.9092 31.3392 37.0305 31.5472C37.1562 31.7552 37.219 32.0066 37.219 32.3012C37.219 32.3879 37.2147 32.4724 37.206 32.5547C37.2017 32.6327 37.1952 32.6977 37.1865 32.7497H34.5085V32.2817H36.6145L36.543 32.3467C36.5603 32.1474 36.5387 31.9849 36.478 31.8592C36.4217 31.7336 36.3285 31.6404 36.1985 31.5797C36.0728 31.5191 35.9147 31.4887 35.724 31.4887C35.3817 31.4887 35.1477 31.5754 35.022 31.7487C34.8963 31.9177 34.8335 32.1517 34.8335 32.4507V32.6457C34.8335 32.8624 34.8595 33.0466 34.9115 33.1982C34.9678 33.3456 35.0632 33.4561 35.1975 33.5297C35.3318 33.6034 35.516 33.6402 35.75 33.6402C36.023 33.6402 36.2158 33.5969 36.3285 33.5102C36.4412 33.4236 36.4975 33.3087 36.4975 33.1657V33.1137H37.193V33.1722C37.193 33.3932 37.1323 33.5861 37.011 33.7507C36.8897 33.9111 36.7207 34.0367 36.504 34.1277C36.2917 34.2187 36.0382 34.2642 35.7435 34.2642Z" fill="black"/>
<path d="M25.9994 0.801169C39.7857 0.801169 50.9617 12.0836 50.9617 26.0012C50.9617 39.9187 39.7857 51.2012 25.9994 51.2012C12.2131 51.2012 1.03711 39.9187 1.03711 26.0012C1.03711 12.0836 12.2131 0.80117 25.9994 0.801169ZM25.9994 47.4212C37.7177 47.4212 47.2173 37.8311 47.2173 26.0012C47.2173 14.1712 37.7177 4.58117 25.9994 4.58117C14.281 4.58117 4.78145 14.1712 4.78145 26.0012C4.78145 37.8311 14.281 47.4212 25.9994 47.4212Z" fill="#D7BEAE"/>
<path d="M25.9998 0.801169C31.864 0.801169 37.5445 2.84629 42.0629 6.58423C46.5813 10.3222 49.6546 15.5189 50.7535 21.2792L47.0404 21.9875C46.1064 17.0912 43.4941 12.674 39.6534 9.49677C35.8128 6.31952 30.9843 4.58117 25.9998 4.58117L25.9998 0.801169Z" fill="#A86133"/>
</svg>
