<svg width="51" height="51" viewBox="0 0 51 51" fill="none" xmlns="http://www.w3.org/2000/svg">
<path d="M21.677 24.9551H16.0178V23.9831C16.0178 22.5791 16.9682 21.9959 17.9726 21.5099L19.2254 20.9159C19.8626 20.6135 20.0894 20.3759 20.0894 19.9007C20.0894 19.3823 19.8518 19.0907 18.8906 19.0907C17.843 19.0907 17.627 19.3823 17.627 20.1599V20.3435H16.007V20.1707C16.007 18.7667 16.871 17.6111 19.0202 17.6111C20.9318 17.6111 21.6986 18.5831 21.6986 19.8899C21.6986 21.1427 20.813 21.7799 19.8734 22.2011L18.7826 22.6763C18.1886 22.9463 17.7458 23.1731 17.7458 23.5187L18.9122 23.4971H21.677V24.9551ZM28.4797 24.9551H22.8205V23.9831C22.8205 22.5791 23.7709 21.9959 24.7753 21.5099L26.0281 20.9159C26.6653 20.6135 26.8921 20.3759 26.8921 19.9007C26.8921 19.3823 26.6545 19.0907 25.6933 19.0907C24.6457 19.0907 24.4297 19.3823 24.4297 20.1599V20.3435H22.8097V20.1707C22.8097 18.7667 23.6737 17.6111 25.8229 17.6111C27.7345 17.6111 28.5013 18.5831 28.5013 19.8899C28.5013 21.1427 27.6157 21.7799 26.6761 22.2011L25.5853 22.6763C24.9913 22.9463 24.5485 23.1731 24.5485 23.5187L25.7149 23.4971H28.4797V24.9551ZM31.2724 21.1967C30.106 21.1967 29.3716 20.5163 29.3716 19.4039C29.3716 18.2915 30.106 17.6111 31.2724 17.6111C32.428 17.6111 33.1624 18.2915 33.1624 19.4039C33.1624 20.5163 32.428 21.1967 31.2724 21.1967ZM31.5856 24.9551H30.106L35.3224 17.7191H36.7912L31.5856 24.9551ZM31.2724 20.0951C31.78 20.0951 31.9528 19.9655 31.9528 19.4039C31.9528 18.8423 31.78 18.7127 31.2724 18.7127C30.7648 18.7127 30.592 18.8423 30.592 19.4039C30.592 19.9655 30.7648 20.0951 31.2724 20.0951ZM35.6356 25.0631C34.4692 25.0631 33.7348 24.3827 33.7348 23.2703C33.7348 22.1579 34.4692 21.4775 35.6356 21.4775C36.802 21.4775 37.5256 22.1579 37.5256 23.2703C37.5256 24.3827 36.802 25.0631 35.6356 25.0631ZM35.6356 23.9615C36.1432 23.9615 36.316 23.8319 36.316 23.2703C36.316 22.7087 36.1432 22.5791 35.6356 22.5791C35.128 22.5791 34.9552 22.7087 34.9552 23.2703C34.9552 23.8319 35.128 23.9615 35.6356 23.9615Z" fill="black"/>
<path d="M18.3232 33.4644C17.9028 33.4644 17.5388 33.3734 17.2312 33.1914C16.9278 33.0051 16.6938 32.7451 16.5292 32.4114C16.3688 32.0734 16.2887 31.6769 16.2887 31.2219C16.2887 30.7669 16.3688 30.3726 16.5292 30.0389C16.6938 29.7009 16.9278 29.4409 17.2312 29.2589C17.5388 29.0726 17.9028 28.9794 18.3232 28.9794C18.7175 28.9794 19.0533 29.0487 19.3307 29.1874C19.608 29.3261 19.8225 29.5211 19.9742 29.7724C20.1258 30.0237 20.2017 30.3249 20.2017 30.6759V30.7149H19.4607V30.6759C19.4607 30.3206 19.3697 30.0627 19.1877 29.9024C19.01 29.7377 18.7153 29.6554 18.3037 29.6554C18.0047 29.6554 17.762 29.7074 17.5757 29.8114C17.3893 29.9154 17.2528 30.0822 17.1662 30.3119C17.0795 30.5416 17.0362 30.8449 17.0362 31.2219C17.0362 31.5946 17.0795 31.8979 17.1662 32.1319C17.2528 32.3616 17.3893 32.5284 17.5757 32.6324C17.762 32.7321 18.0047 32.7819 18.3037 32.7819C18.7153 32.7819 19.01 32.7017 19.1877 32.5414C19.3697 32.3811 19.4607 32.1232 19.4607 31.7679V31.7289H20.2017V31.7679C20.2017 32.1146 20.1258 32.4157 19.9742 32.6714C19.8225 32.9227 19.608 33.1177 19.3307 33.2564C19.0533 33.3951 18.7175 33.4644 18.3232 33.4644ZM23.8863 33.3994H23.1843V31.5209C23.1843 31.2349 23.128 31.0291 23.0153 30.9034C22.907 30.7734 22.7055 30.7084 22.4108 30.7084C22.1292 30.7084 21.919 30.7712 21.7803 30.8969C21.646 31.0182 21.5788 31.2327 21.5788 31.5404H21.4553L21.4488 30.7084H21.6048C21.6568 30.6087 21.7283 30.5134 21.8193 30.4224C21.9147 30.3271 22.0338 30.2512 22.1768 30.1949C22.3242 30.1342 22.4932 30.1039 22.6838 30.1039C22.9698 30.1039 23.1995 30.1602 23.3728 30.2729C23.5505 30.3812 23.6805 30.5307 23.7628 30.7214C23.8452 30.9121 23.8863 31.1266 23.8863 31.3649V33.3994ZM21.5788 33.3994H20.8768V29.0444H21.5788V33.3994ZM27.3801 33.3994H26.7301V32.7624L26.7106 32.5869V31.3454C26.7106 31.1027 26.6521 30.9381 26.5351 30.8514C26.4224 30.7647 26.2382 30.7214 25.9826 30.7214C25.7269 30.7214 25.5427 30.7669 25.4301 30.8579C25.3217 30.9489 25.2676 31.1006 25.2676 31.3129V31.4104H24.5916V31.3454C24.5916 31.1027 24.6501 30.8882 24.7671 30.7019C24.8884 30.5156 25.0552 30.3704 25.2676 30.2664C25.4842 30.1581 25.7356 30.1039 26.0216 30.1039C26.3249 30.1039 26.5762 30.1602 26.7756 30.2729C26.9749 30.3856 27.1244 30.5416 27.2241 30.7409C27.3281 30.9359 27.3801 31.1677 27.3801 31.4364V33.3994ZM25.5276 33.4644C25.2372 33.4644 24.9924 33.3907 24.7931 33.2434C24.5981 33.0917 24.5006 32.8772 24.5006 32.5999C24.5006 32.4179 24.5417 32.2662 24.6241 32.1449C24.7107 32.0236 24.8342 31.9239 24.9946 31.8459C25.1549 31.7679 25.3499 31.7137 25.5796 31.6834L26.7756 31.5144V32.0084L25.6836 32.1709C25.4972 32.1969 25.3672 32.2359 25.2936 32.2879C25.2199 32.3399 25.1831 32.4266 25.1831 32.5479C25.1831 32.6736 25.2264 32.7646 25.3131 32.8209C25.4041 32.8772 25.5514 32.9054 25.7551 32.9054C25.9111 32.9054 26.0606 32.8816 26.2036 32.8339C26.3509 32.7819 26.4722 32.6974 26.5676 32.5804C26.6629 32.4591 26.7106 32.2901 26.7106 32.0734L26.8016 32.8989L26.6976 32.8924C26.6369 32.9921 26.5524 33.0852 26.4441 33.1719C26.3401 33.2586 26.2122 33.3301 26.0606 33.3864C25.9089 33.4384 25.7312 33.4644 25.5276 33.4644ZM31.1405 33.3994H30.4385V31.5209C30.4385 31.2349 30.3843 31.0291 30.276 30.9034C30.1677 30.7734 29.964 30.7084 29.665 30.7084C29.4743 30.7084 29.3183 30.7366 29.197 30.7929C29.0757 30.8449 28.9847 30.9316 28.924 31.0529C28.8633 31.1699 28.833 31.3302 28.833 31.5339H28.7095L28.651 30.7734H28.807C28.8547 30.6564 28.9262 30.5481 29.0215 30.4484C29.1168 30.3487 29.2382 30.2664 29.3855 30.2014C29.5372 30.1364 29.717 30.1039 29.925 30.1039C30.2067 30.1039 30.4363 30.1581 30.614 30.2664C30.7917 30.3747 30.9238 30.5242 31.0105 30.7149C31.0972 30.9056 31.1405 31.1244 31.1405 31.3714V33.3994ZM28.833 33.3994H28.131V30.1689H28.7745V31.1374L28.833 31.1699V33.3994ZM33.2309 33.4644C32.7585 33.4644 32.401 33.3712 32.1584 33.1849C31.9157 32.9942 31.7944 32.7017 31.7944 32.3074V32.2944H32.4704V32.4114C32.4704 32.5241 32.492 32.6172 32.5354 32.6909C32.583 32.7602 32.661 32.8122 32.7694 32.8469C32.882 32.8772 33.0402 32.8924 33.2439 32.8924C33.4172 32.8924 33.5472 32.8794 33.6339 32.8534C33.7249 32.8231 33.7855 32.7819 33.8159 32.7299C33.8462 32.6779 33.8614 32.6129 33.8614 32.5349C33.8614 32.4049 33.8159 32.3139 33.7249 32.2619C33.6339 32.2056 33.4714 32.1557 33.2374 32.1124L32.7304 32.0279C32.5397 31.9889 32.3729 31.9347 32.2299 31.8654C32.0912 31.7917 31.9829 31.6921 31.9049 31.5664C31.8312 31.4364 31.7944 31.2739 31.7944 31.0789C31.7944 30.7886 31.9092 30.5546 32.1389 30.3769C32.3685 30.1949 32.6935 30.1039 33.1139 30.1039C33.3695 30.1039 33.597 30.1451 33.7964 30.2274C33.9957 30.3097 34.1539 30.4332 34.2709 30.5979C34.3879 30.7626 34.4464 30.9684 34.4464 31.2154V31.2739H33.7769V31.1959C33.7769 31.0919 33.7595 31.0031 33.7249 30.9294C33.6902 30.8514 33.6252 30.7907 33.5299 30.7474C33.4345 30.7041 33.2894 30.6824 33.0944 30.6824C32.8387 30.6824 32.6697 30.7149 32.5874 30.7799C32.505 30.8449 32.4639 30.9402 32.4639 31.0659C32.4639 31.1916 32.5007 31.2804 32.5744 31.3324C32.6524 31.3801 32.804 31.4277 33.0294 31.4754L33.5819 31.5794C33.7899 31.6184 33.9632 31.6769 34.1019 31.7549C34.2405 31.8329 34.3445 31.9347 34.4139 32.0604C34.4875 32.1861 34.5244 32.3356 34.5244 32.5089C34.5244 32.8122 34.4095 33.0484 34.1799 33.2174C33.9545 33.3821 33.6382 33.4644 33.2309 33.4644Z" fill="black"/>
<path d="M25.1996 0.000388008C38.9859 0.000387405 50.1619 11.2828 50.1619 25.2004C50.1619 39.118 38.9859 50.4004 25.1996 50.4004C11.4133 50.4004 0.237304 39.118 0.237304 25.2004C0.237303 11.2828 11.4133 0.000388611 25.1996 0.000388008ZM25.1996 46.6204C36.9179 46.6204 46.4175 37.0303 46.4175 25.2004C46.4175 13.3704 36.9179 3.78039 25.1996 3.78039C13.4812 3.78039 3.98164 13.3704 3.98164 25.2004C3.98164 37.0303 13.4812 46.6204 25.1996 46.6204Z" fill="#D7BEAE"/>
<path d="M25.2 0.000387998C31.0642 0.000387741 36.7447 2.04551 41.2631 5.78345C45.7815 9.5214 48.8548 14.7181 49.9537 20.4784L46.2406 21.1867C45.3066 16.2905 42.6943 11.8732 38.8536 8.69599C35.013 5.51874 30.1845 3.78039 25.2 3.78039L25.2 0.000387998Z" fill="#A86133"/>
</svg>
