<svg width="59" height="59" viewBox="0 0 59 59" fill="none" xmlns="http://www.w3.org/2000/svg">
<path d="M25.1672 27.4248H19.508V26.4528C19.508 26.1144 19.5584 25.8156 19.6592 25.5564C19.76 25.29 19.9112 25.0596 20.1128 24.8652C20.3216 24.6708 20.5232 24.5124 20.7176 24.39C20.9192 24.2604 21.1676 24.1236 21.4628 23.9796L22.7156 23.3856C23.0396 23.2344 23.2628 23.0868 23.3852 22.9428C23.5148 22.7916 23.5796 22.6008 23.5796 22.3704C23.5796 22.0896 23.4932 21.8844 23.3204 21.7548C23.1476 21.6252 22.8344 21.5604 22.3808 21.5604C21.8768 21.5604 21.5384 21.6396 21.3656 21.798C21.2 21.9492 21.1172 22.2264 21.1172 22.6296V22.8132H19.4972V22.6404C19.4972 21.8844 19.7456 21.2688 20.2424 20.7936C20.7392 20.3184 21.4952 20.0808 22.5104 20.0808C23.4248 20.0808 24.098 20.286 24.53 20.6964C24.9692 21.1068 25.1888 21.6612 25.1888 22.3596C25.1888 22.9284 25.0232 23.3928 24.692 23.7528C24.3608 24.1128 23.918 24.4188 23.3636 24.6708L22.2728 25.146C21.92 25.3044 21.6572 25.4448 21.4844 25.5672C21.3188 25.6896 21.236 25.83 21.236 25.9884L22.4024 25.9668H25.1672V27.4248ZM31.9699 27.4248H26.3107V26.4528C26.3107 26.1144 26.3611 25.8156 26.4619 25.5564C26.5627 25.29 26.7139 25.0596 26.9155 24.8652C27.1243 24.6708 27.3259 24.5124 27.5203 24.39C27.7219 24.2604 27.9703 24.1236 28.2655 23.9796L29.5183 23.3856C29.8423 23.2344 30.0655 23.0868 30.1879 22.9428C30.3175 22.7916 30.3823 22.6008 30.3823 22.3704C30.3823 22.0896 30.2959 21.8844 30.1231 21.7548C29.9503 21.6252 29.6371 21.5604 29.1835 21.5604C28.6795 21.5604 28.3411 21.6396 28.1683 21.798C28.0027 21.9492 27.9199 22.2264 27.9199 22.6296V22.8132H26.2999V22.6404C26.2999 21.8844 26.5483 21.2688 27.0451 20.7936C27.5419 20.3184 28.2979 20.0808 29.3131 20.0808C30.2275 20.0808 30.9007 20.286 31.3327 20.6964C31.7719 21.1068 31.9915 21.6612 31.9915 22.3596C31.9915 22.9284 31.8259 23.3928 31.4947 23.7528C31.1635 24.1128 30.7207 24.4188 30.1663 24.6708L29.0755 25.146C28.7227 25.3044 28.4599 25.4448 28.2871 25.5672C28.1215 25.6896 28.0387 25.83 28.0387 25.9884L29.2051 25.9668H31.9699V27.4248ZM36.145 23.1912C35.8066 23.508 35.3458 23.6664 34.7626 23.6664C34.1794 23.6664 33.715 23.508 33.3694 23.1912C33.031 22.8672 32.8618 22.428 32.8618 21.8736C32.8618 21.3192 33.031 20.8836 33.3694 20.5668C33.715 20.2428 34.1794 20.0808 34.7626 20.0808C35.3458 20.0808 35.8066 20.2428 36.145 20.5668C36.4834 20.8836 36.6526 21.3192 36.6526 21.8736C36.6526 22.428 36.4834 22.8672 36.145 23.1912ZM35.0758 27.4248H33.5962L38.8126 20.1888H40.2814L35.0758 27.4248ZM34.2226 22.4244C34.3234 22.518 34.5034 22.5648 34.7626 22.5648C35.0218 22.5648 35.1982 22.518 35.2918 22.4244C35.3926 22.3308 35.443 22.1472 35.443 21.8736C35.443 21.6 35.3926 21.4164 35.2918 21.3228C35.1982 21.2292 35.0218 21.1824 34.7626 21.1824C34.5034 21.1824 34.3234 21.2292 34.2226 21.3228C34.129 21.4164 34.0822 21.6 34.0822 21.8736C34.0822 22.1472 34.129 22.3308 34.2226 22.4244ZM40.5082 27.0576C40.1698 27.3744 39.709 27.5328 39.1258 27.5328C38.5426 27.5328 38.0782 27.3744 37.7326 27.0576C37.3942 26.7336 37.225 26.2944 37.225 25.74C37.225 25.1856 37.3942 24.75 37.7326 24.4332C38.0782 24.1092 38.5426 23.9472 39.1258 23.9472C39.709 23.9472 40.1698 24.1092 40.5082 24.4332C40.8466 24.75 41.0158 25.1856 41.0158 25.74C41.0158 26.2944 40.8466 26.7336 40.5082 27.0576ZM38.5858 26.2908C38.6866 26.3844 38.8666 26.4312 39.1258 26.4312C39.385 26.4312 39.5614 26.3844 39.655 26.2908C39.7558 26.1972 39.8062 26.0136 39.8062 25.74C39.8062 25.4664 39.7558 25.2828 39.655 25.1892C39.5614 25.0956 39.385 25.0488 39.1258 25.0488C38.8666 25.0488 38.6866 25.0956 38.5858 25.1892C38.4922 25.2828 38.4454 25.4664 38.4454 25.74C38.4454 26.0136 38.4922 26.1972 38.5858 26.2908Z" fill="black"/>
<path d="M10.9393 36.4848C10.5153 36.4848 10.1893 36.3448 9.96127 36.0648C9.73727 35.7808 9.62527 35.4028 9.62527 34.9308C9.62527 34.4588 9.73527 34.0828 9.95527 33.8028C10.1793 33.5228 10.4953 33.3828 10.9033 33.3828C11.1673 33.3828 11.3793 33.4368 11.5393 33.5448C11.7033 33.6488 11.8173 33.7688 11.8813 33.9048H12.0433L12.0133 34.6668H11.8993C11.8993 34.4988 11.8673 34.3608 11.8033 34.2528C11.7393 34.1448 11.6473 34.0648 11.5273 34.0128C11.4073 33.9608 11.2593 33.9348 11.0833 33.9348C10.9393 33.9348 10.8153 33.9528 10.7113 33.9888C10.6113 34.0248 10.5273 34.0808 10.4593 34.1568C10.3953 34.2328 10.3473 34.3348 10.3153 34.4628C10.2873 34.5908 10.2733 34.7468 10.2733 34.9308C10.2733 35.1108 10.2873 35.2668 10.3153 35.3988C10.3473 35.5268 10.3953 35.6308 10.4593 35.7108C10.5273 35.7868 10.6133 35.8428 10.7173 35.8788C10.8213 35.9148 10.9433 35.9328 11.0833 35.9328C11.2593 35.9328 11.4073 35.9068 11.5273 35.8548C11.6473 35.7988 11.7393 35.7168 11.8033 35.6088C11.8673 35.5008 11.8993 35.3648 11.8993 35.2008H12.0133L12.0433 35.9328H11.9233C11.8553 36.1048 11.7373 36.2408 11.5693 36.3408C11.4053 36.4368 11.1953 36.4848 10.9393 36.4848ZM12.5473 36.4248H11.9473V35.7168L11.8993 35.6388V32.4048H12.5473V36.4248ZM14.566 36.4848C14.242 36.4848 13.972 36.4208 13.756 36.2928C13.54 36.1608 13.38 35.9788 13.276 35.7468C13.172 35.5108 13.12 35.2388 13.12 34.9308C13.12 34.6228 13.178 34.3528 13.294 34.1208C13.414 33.8888 13.582 33.7088 13.798 33.5808C14.014 33.4488 14.27 33.3828 14.566 33.3828C14.834 33.3828 15.07 33.4348 15.274 33.5388C15.482 33.6388 15.642 33.7848 15.754 33.9768C15.87 34.1688 15.928 34.4008 15.928 34.6728C15.928 34.7528 15.924 34.8308 15.916 34.9068C15.912 34.9788 15.906 35.0388 15.898 35.0868H13.426V34.6548H15.37L15.304 34.7148C15.32 34.5308 15.3 34.3808 15.244 34.2648C15.192 34.1488 15.106 34.0628 14.986 34.0068C14.87 33.9508 14.724 33.9228 14.548 33.9228C14.232 33.9228 14.016 34.0028 13.9 34.1628C13.784 34.3188 13.726 34.5348 13.726 34.8108V34.9908C13.726 35.1908 13.75 35.3608 13.798 35.5008C13.85 35.6368 13.938 35.7388 14.062 35.8068C14.186 35.8748 14.356 35.9088 14.572 35.9088C14.824 35.9088 15.002 35.8688 15.106 35.7888C15.21 35.7088 15.262 35.6028 15.262 35.4708V35.4228H15.904V35.4768C15.904 35.6808 15.848 35.8588 15.736 36.0108C15.624 36.1588 15.468 36.2748 15.268 36.3588C15.072 36.4428 14.838 36.4848 14.566 36.4848ZM19.3948 36.4848C19.1268 36.4848 18.9088 36.4328 18.7408 36.3288C18.5768 36.2208 18.4628 36.0988 18.3988 35.9628H18.2368L18.2668 35.2008H18.3808C18.3808 35.3648 18.4108 35.5008 18.4708 35.6088C18.5348 35.7168 18.6288 35.7988 18.7528 35.8548C18.8768 35.9068 19.0248 35.9328 19.1968 35.9328C19.3368 35.9328 19.4588 35.9148 19.5628 35.8788C19.6668 35.8428 19.7508 35.7868 19.8148 35.7108C19.8828 35.6348 19.9308 35.5328 19.9588 35.4048C19.9908 35.2728 20.0068 35.1148 20.0068 34.9308C20.0068 34.7468 19.9908 34.5928 19.9588 34.4688C19.9308 34.3408 19.8828 34.2368 19.8148 34.1568C19.7508 34.0768 19.6668 34.0208 19.5628 33.9888C19.4628 33.9528 19.3408 33.9348 19.1968 33.9348C19.0248 33.9348 18.8768 33.9628 18.7528 34.0188C18.6288 34.0708 18.5348 34.1508 18.4708 34.2588C18.4108 34.3628 18.3808 34.4988 18.3808 34.6668H18.2668L18.2368 33.9348H18.3568C18.4288 33.7628 18.5468 33.6288 18.7108 33.5328C18.8788 33.4328 19.0928 33.3828 19.3528 33.3828C19.7728 33.3828 20.0948 33.5228 20.3188 33.8028C20.5428 34.0828 20.6548 34.4588 20.6548 34.9308C20.6548 35.4028 20.5468 35.7808 20.3308 36.0648C20.1148 36.3448 19.8028 36.4848 19.3948 36.4848ZM18.3808 37.4628H17.7388V33.4428H18.3268V34.1508L18.3808 34.2288V37.4628ZM21.8997 36.4248H21.2517V33.4248H21.8457V34.2588L21.8997 34.2888V36.4248ZM21.8997 34.4808H21.7497V33.8988H21.8757C21.9357 33.7588 22.0337 33.6388 22.1697 33.5388C22.3097 33.4348 22.4897 33.3828 22.7097 33.3828C22.9217 33.3828 23.0897 33.4288 23.2137 33.5208C23.3417 33.6128 23.4337 33.7348 23.4897 33.8868C23.5457 34.0388 23.5737 34.2088 23.5737 34.3968V34.5948H22.9257V34.4748C22.9257 34.2748 22.8917 34.1348 22.8237 34.0548C22.7557 33.9748 22.6277 33.9348 22.4397 33.9348C22.2437 33.9348 22.1037 33.9768 22.0197 34.0608C21.9397 34.1408 21.8997 34.2808 21.8997 34.4808ZM25.4347 36.4848C25.1307 36.4848 24.8667 36.4208 24.6427 36.2928C24.4187 36.1608 24.2467 35.9788 24.1267 35.7468C24.0067 35.5108 23.9467 35.2388 23.9467 34.9308C23.9467 34.6228 24.0067 34.3528 24.1267 34.1208C24.2467 33.8888 24.4187 33.7088 24.6427 33.5808C24.8667 33.4488 25.1307 33.3828 25.4347 33.3828C25.7387 33.3828 25.9987 33.4488 26.2147 33.5808C26.4347 33.7088 26.6027 33.8888 26.7187 34.1208C26.8387 34.3528 26.8987 34.6228 26.8987 34.9308C26.8987 35.2388 26.8387 35.5108 26.7187 35.7468C26.6027 35.9788 26.4347 36.1608 26.2147 36.2928C25.9987 36.4208 25.7387 36.4848 25.4347 36.4848ZM25.4347 35.9088C25.7467 35.9088 25.9647 35.8308 26.0887 35.6748C26.2127 35.5148 26.2747 35.2668 26.2747 34.9308C26.2747 34.5948 26.2127 34.3488 26.0887 34.1928C25.9647 34.0368 25.7467 33.9588 25.4347 33.9588C25.1187 33.9588 24.8987 34.0368 24.7747 34.1928C24.6507 34.3488 24.5887 34.5948 24.5887 34.9308C24.5887 35.2668 24.6507 35.5148 24.7747 35.6748C24.8987 35.8308 25.1187 35.9088 25.4347 35.9088ZM29.0938 36.4848C28.8338 36.4848 28.6198 36.4368 28.4518 36.3408C28.2838 36.2408 28.1618 36.1048 28.0858 35.9328H27.9658L28.0018 35.2008H28.1158C28.1158 35.3648 28.1458 35.5008 28.2058 35.6088C28.2698 35.7168 28.3618 35.7988 28.4818 35.8548C28.6058 35.9068 28.7538 35.9328 28.9258 35.9328C29.0698 35.9328 29.1918 35.9148 29.2918 35.8788C29.3958 35.8428 29.4818 35.7868 29.5498 35.7108C29.6178 35.6308 29.6658 35.5268 29.6938 35.3988C29.7258 35.2668 29.7418 35.1108 29.7418 34.9308C29.7418 34.7468 29.7258 34.5908 29.6938 34.4628C29.6658 34.3348 29.6178 34.2328 29.5498 34.1568C29.4858 34.0808 29.4018 34.0248 29.2978 33.9888C29.1938 33.9528 29.0698 33.9348 28.9258 33.9348C28.7538 33.9348 28.6058 33.9608 28.4818 34.0128C28.3618 34.0648 28.2698 34.1448 28.2058 34.2528C28.1458 34.3608 28.1158 34.4988 28.1158 34.6668H28.0018L27.9658 33.9168H28.1338C28.1978 33.7808 28.3138 33.6588 28.4818 33.5508C28.6538 33.4388 28.8698 33.3828 29.1298 33.3828C29.5418 33.3828 29.8538 33.5228 30.0658 33.8028C30.2818 34.0828 30.3898 34.4588 30.3898 34.9308C30.3898 35.4028 30.2778 35.7808 30.0538 36.0648C29.8338 36.3448 29.5138 36.4848 29.0938 36.4848ZM28.0618 36.4248H27.4678V32.4048H28.1158V35.6388L28.0618 35.7168V36.4248ZM33.5061 36.4248H32.9061V35.8368L32.8881 35.6748V34.5288C32.8881 34.3048 32.8341 34.1528 32.7261 34.0728C32.6221 33.9928 32.4521 33.9528 32.2161 33.9528C31.9801 33.9528 31.8101 33.9948 31.7061 34.0788C31.6061 34.1628 31.5561 34.3028 31.5561 34.4988V34.5888H30.9321V34.5288C30.9321 34.3048 30.9861 34.1068 31.0941 33.9348C31.2061 33.7628 31.3601 33.6288 31.5561 33.5328C31.7561 33.4328 31.9881 33.3828 32.2521 33.3828C32.5321 33.3828 32.7641 33.4348 32.9481 33.5388C33.1321 33.6428 33.2701 33.7868 33.3621 33.9708C33.4581 34.1508 33.5061 34.3648 33.5061 34.6128V36.4248ZM31.7961 36.4848C31.5281 36.4848 31.3021 36.4168 31.1181 36.2808C30.9381 36.1408 30.8481 35.9428 30.8481 35.6868C30.8481 35.5188 30.8861 35.3788 30.9621 35.2668C31.0421 35.1548 31.1561 35.0628 31.3041 34.9908C31.4521 34.9188 31.6321 34.8688 31.8441 34.8408L32.9481 34.6848V35.1408L31.9401 35.2908C31.7681 35.3148 31.6481 35.3508 31.5801 35.3988C31.5121 35.4468 31.4781 35.5268 31.4781 35.6388C31.4781 35.7548 31.5181 35.8388 31.5981 35.8908C31.6821 35.9428 31.8181 35.9688 32.0061 35.9688C32.1501 35.9688 32.2881 35.9468 32.4201 35.9028C32.5561 35.8548 32.6681 35.7768 32.7561 35.6688C32.8441 35.5568 32.8881 35.4008 32.8881 35.2008L32.9721 35.9628L32.8761 35.9568C32.8201 36.0488 32.7421 36.1348 32.6421 36.2148C32.5461 36.2948 32.4281 36.3608 32.2881 36.4128C32.1481 36.4608 31.9841 36.4848 31.7961 36.4848ZM35.8313 36.4848C35.5713 36.4848 35.3573 36.4368 35.1893 36.3408C35.0213 36.2408 34.8993 36.1048 34.8233 35.9328H34.7033L34.7393 35.2008H34.8533C34.8533 35.3648 34.8833 35.5008 34.9433 35.6088C35.0073 35.7168 35.0993 35.7988 35.2193 35.8548C35.3433 35.9068 35.4913 35.9328 35.6633 35.9328C35.8073 35.9328 35.9293 35.9148 36.0293 35.8788C36.1333 35.8428 36.2193 35.7868 36.2873 35.7108C36.3553 35.6308 36.4033 35.5268 36.4313 35.3988C36.4633 35.2668 36.4793 35.1108 36.4793 34.9308C36.4793 34.7468 36.4633 34.5908 36.4313 34.4628C36.4033 34.3348 36.3553 34.2328 36.2873 34.1568C36.2233 34.0808 36.1393 34.0248 36.0353 33.9888C35.9313 33.9528 35.8073 33.9348 35.6633 33.9348C35.4913 33.9348 35.3433 33.9608 35.2193 34.0128C35.0993 34.0648 35.0073 34.1448 34.9433 34.2528C34.8833 34.3608 34.8533 34.4988 34.8533 34.6668H34.7393L34.7033 33.9168H34.8713C34.9353 33.7808 35.0513 33.6588 35.2193 33.5508C35.3913 33.4388 35.6073 33.3828 35.8673 33.3828C36.2793 33.3828 36.5913 33.5228 36.8033 33.8028C37.0193 34.0828 37.1273 34.4588 37.1273 34.9308C37.1273 35.4028 37.0153 35.7808 36.7913 36.0648C36.5713 36.3448 36.2513 36.4848 35.8313 36.4848ZM34.7993 36.4248H34.2053V32.4048H34.8533V35.6388L34.7993 35.7168V36.4248ZM38.3002 33.0648H37.6582L37.6522 32.4048H38.3002V33.0648ZM38.3062 36.4248H37.6582V33.4248H38.3062V36.4248ZM39.628 36.4248H38.98V32.4048H39.628V36.4248ZM40.948 33.0648H40.306L40.3 32.4048H40.948V33.0648ZM40.954 36.4248H40.306V33.4248H40.954V36.4248ZM42.7925 36.4848C42.3685 36.4848 42.0425 36.3448 41.8145 36.0648C41.5905 35.7808 41.4785 35.4028 41.4785 34.9308C41.4785 34.4588 41.5885 34.0828 41.8085 33.8028C42.0325 33.5228 42.3485 33.3828 42.7565 33.3828C43.0205 33.3828 43.2325 33.4368 43.3925 33.5448C43.5565 33.6488 43.6705 33.7688 43.7345 33.9048H43.8965L43.8665 34.6668H43.7525C43.7525 34.4988 43.7205 34.3608 43.6565 34.2528C43.5925 34.1448 43.5005 34.0648 43.3805 34.0128C43.2605 33.9608 43.1125 33.9348 42.9365 33.9348C42.7925 33.9348 42.6685 33.9528 42.5645 33.9888C42.4645 34.0248 42.3805 34.0808 42.3125 34.1568C42.2485 34.2328 42.2005 34.3348 42.1685 34.4628C42.1405 34.5908 42.1265 34.7468 42.1265 34.9308C42.1265 35.1108 42.1405 35.2668 42.1685 35.3988C42.2005 35.5268 42.2485 35.6308 42.3125 35.7108C42.3805 35.7868 42.4665 35.8428 42.5705 35.8788C42.6745 35.9148 42.7965 35.9328 42.9365 35.9328C43.1125 35.9328 43.2605 35.9068 43.3805 35.8548C43.5005 35.7988 43.5925 35.7168 43.6565 35.6088C43.7205 35.5008 43.7525 35.3648 43.7525 35.2008H43.8665L43.8965 35.9328H43.7765C43.7085 36.1048 43.5905 36.2408 43.4225 36.3408C43.2585 36.4368 43.0485 36.4848 42.7925 36.4848ZM44.4005 36.4248H43.8005V35.7168L43.7525 35.6388V32.4048H44.4005V36.4248ZM47.6134 36.4248H47.0134V35.8368L46.9954 35.6748V34.5288C46.9954 34.3048 46.9414 34.1528 46.8334 34.0728C46.7294 33.9928 46.5594 33.9528 46.3234 33.9528C46.0874 33.9528 45.9174 33.9948 45.8134 34.0788C45.7134 34.1628 45.6634 34.3028 45.6634 34.4988V34.5888H45.0394V34.5288C45.0394 34.3048 45.0934 34.1068 45.2014 33.9348C45.3134 33.7628 45.4674 33.6288 45.6634 33.5328C45.8634 33.4328 46.0954 33.3828 46.3594 33.3828C46.6394 33.3828 46.8714 33.4348 47.0554 33.5388C47.2394 33.6428 47.3774 33.7868 47.4694 33.9708C47.5654 34.1508 47.6134 34.3648 47.6134 34.6128V36.4248ZM45.9034 36.4848C45.6354 36.4848 45.4094 36.4168 45.2254 36.2808C45.0454 36.1408 44.9554 35.9428 44.9554 35.6868C44.9554 35.5188 44.9934 35.3788 45.0694 35.2668C45.1494 35.1548 45.2634 35.0628 45.4114 34.9908C45.5594 34.9188 45.7394 34.8688 45.9514 34.8408L47.0554 34.6848V35.1408L46.0474 35.2908C45.8754 35.3148 45.7554 35.3508 45.6874 35.3988C45.6194 35.4468 45.5854 35.5268 45.5854 35.6388C45.5854 35.7548 45.6254 35.8388 45.7054 35.8908C45.7894 35.9428 45.9254 35.9688 46.1134 35.9688C46.2574 35.9688 46.3954 35.9468 46.5274 35.9028C46.6634 35.8548 46.7754 35.7768 46.8634 35.6688C46.9514 35.5568 46.9954 35.4008 46.9954 35.2008L47.0794 35.9628L46.9834 35.9568C46.9274 36.0488 46.8494 36.1348 46.7494 36.2148C46.6534 36.2948 46.5354 36.3608 46.3954 36.4128C46.2554 36.4608 46.0914 36.4848 45.9034 36.4848ZM49.4949 36.4848C49.0709 36.4848 48.7449 36.3448 48.5169 36.0648C48.2929 35.7808 48.1809 35.4028 48.1809 34.9308C48.1809 34.4588 48.2909 34.0828 48.5109 33.8028C48.7349 33.5228 49.0509 33.3828 49.4589 33.3828C49.7229 33.3828 49.9349 33.4368 50.0949 33.5448C50.2589 33.6488 50.3729 33.7688 50.4369 33.9048H50.5989L50.5689 34.6668H50.4549C50.4549 34.4988 50.4229 34.3608 50.3589 34.2528C50.2949 34.1448 50.2029 34.0648 50.0829 34.0128C49.9629 33.9608 49.8149 33.9348 49.6389 33.9348C49.4949 33.9348 49.3709 33.9528 49.2669 33.9888C49.1669 34.0248 49.0829 34.0808 49.0149 34.1568C48.9509 34.2328 48.9029 34.3348 48.8709 34.4628C48.8429 34.5908 48.8289 34.7468 48.8289 34.9308C48.8289 35.1108 48.8429 35.2668 48.8709 35.3988C48.9029 35.5268 48.9509 35.6308 49.0149 35.7108C49.0829 35.7868 49.1689 35.8428 49.2729 35.8788C49.3769 35.9148 49.4989 35.9328 49.6389 35.9328C49.8149 35.9328 49.9629 35.9068 50.0829 35.8548C50.2029 35.7988 50.2949 35.7168 50.3589 35.6088C50.4229 35.5008 50.4549 35.3648 50.4549 35.2008H50.5689L50.5989 35.9328H50.4789C50.4109 36.1048 50.2929 36.2408 50.1249 36.3408C49.9609 36.4368 49.7509 36.4848 49.4949 36.4848ZM51.1029 36.4248H50.5029V35.7168L50.4549 35.6388V32.4048H51.1029V36.4248Z" fill="black"/>
<path d="M29.4246 -9.66415e-05C45.5222 -9.73451e-05 58.5719 13.1739 58.5719 29.4248C58.5719 45.6757 45.5222 58.8496 29.4246 58.8496C13.327 58.8496 0.277343 45.6757 0.277342 29.4248C0.277342 13.1739 13.327 -9.59379e-05 29.4246 -9.66415e-05ZM29.4246 54.4359C43.1076 54.4359 54.1998 43.238 54.1998 29.4248C54.1998 15.6115 43.1076 4.41363 29.4246 4.41363C15.7417 4.41363 4.64943 15.6115 4.64943 29.4248C4.64943 43.238 15.7417 54.4359 29.4246 54.4359Z" fill="#E6D1BF"/>
<path d="M29.4249 -9.66536e-05C36.2721 -9.69529e-05 42.9051 2.3879 48.181 6.75252C53.4569 11.1171 57.0455 17.1851 58.3285 23.9111L53.993 24.7381C52.9024 19.021 49.8521 13.8633 45.3676 10.1534C40.883 6.44342 35.2451 4.41363 29.4249 4.41363L29.4249 -9.66536e-05Z" fill="#A86133"/>
</svg>
