<svg width="130" height="130" viewBox="0 0 130 130" fill="none" xmlns="http://www.w3.org/2000/svg">
<circle cx="65" cy="65" r="65" transform="rotate(-90 65 65)" fill="#DFF0D8"/>
<path d="M35.3804 95.16C34.3564 95.16 33.5191 95.016 32.8684 94.728C32.2178 94.4293 31.7324 94.0187 31.4124 93.496C31.1031 92.9627 30.9484 92.3547 30.9484 91.672V91.4H32.6444V91.576C32.6444 92.0133 32.7191 92.3813 32.8684 92.68C33.0284 92.9787 33.3111 93.2027 33.7164 93.352C34.1218 93.5013 34.7031 93.576 35.4604 93.576C36.2498 93.576 36.8044 93.464 37.1244 93.24C37.4444 93.0053 37.6044 92.6427 37.6044 92.152C37.6044 91.8213 37.5564 91.5547 37.4604 91.352C37.3644 91.1493 37.1724 90.984 36.8844 90.856C36.6071 90.7173 36.1911 90.5947 35.6364 90.488L33.8124 90.12C33.1938 90.0027 32.6764 89.8213 32.2604 89.576C31.8444 89.32 31.5244 88.9947 31.3004 88.6C31.0871 88.2053 30.9804 87.7307 30.9804 87.176C30.9804 86.6427 31.1191 86.1467 31.3964 85.688C31.6844 85.2187 32.1218 84.84 32.7084 84.552C33.3058 84.264 34.0631 84.12 34.9804 84.12C35.9618 84.12 36.7564 84.2853 37.3644 84.616C37.9831 84.9467 38.4311 85.384 38.7084 85.928C38.9964 86.4613 39.1404 87.048 39.1404 87.688V87.88H37.4284V87.704C37.4284 87.256 37.3538 86.888 37.2044 86.6C37.0658 86.3013 36.8098 86.0773 36.4364 85.928C36.0738 85.768 35.5778 85.688 34.9484 85.688C34.1591 85.688 33.5884 85.8053 33.2364 86.04C32.8844 86.2747 32.7084 86.6267 32.7084 87.096C32.7084 87.416 32.7618 87.672 32.8684 87.864C32.9858 88.056 33.1831 88.2107 33.4604 88.328C33.7484 88.4347 34.1324 88.5467 34.6124 88.664L36.4364 89.048C37.1191 89.176 37.6684 89.3787 38.0844 89.656C38.5111 89.9333 38.8258 90.2747 39.0284 90.68C39.2311 91.0747 39.3324 91.544 39.3324 92.088C39.3324 92.6427 39.1938 93.1547 38.9164 93.624C38.6391 94.0933 38.2071 94.4667 37.6204 94.744C37.0444 95.0213 36.2978 95.16 35.3804 95.16ZM44.3606 95.16C43.4966 95.16 42.7766 94.9893 42.2006 94.648C41.6246 94.296 41.1979 93.8107 40.9206 93.192C40.6432 92.5627 40.5046 91.8373 40.5046 91.016C40.5046 90.1947 40.6592 89.4747 40.9686 88.856C41.2886 88.2373 41.7366 87.7573 42.3126 87.416C42.8886 87.064 43.5712 86.888 44.3606 86.888C45.0752 86.888 45.7046 87.0267 46.2486 87.304C46.8032 87.5707 47.2299 87.96 47.5286 88.472C47.8379 88.984 47.9926 89.6027 47.9926 90.328C47.9926 90.5413 47.9819 90.7493 47.9606 90.952C47.9499 91.144 47.9339 91.304 47.9126 91.432H41.3206V90.28H46.5046L46.3286 90.44C46.3712 89.9493 46.3179 89.5493 46.1686 89.24C46.0299 88.9307 45.8006 88.7013 45.4806 88.552C45.1712 88.4027 44.7819 88.328 44.3126 88.328C43.4699 88.328 42.8939 88.5413 42.5846 88.968C42.2752 89.384 42.1206 89.96 42.1206 90.696V91.176C42.1206 91.7093 42.1846 92.1627 42.3126 92.536C42.4512 92.8987 42.6859 93.1707 43.0166 93.352C43.3472 93.5333 43.8006 93.624 44.3766 93.624C45.0486 93.624 45.5232 93.5173 45.8006 93.304C46.0779 93.0907 46.2166 92.808 46.2166 92.456V92.328H47.9286V92.472C47.9286 93.016 47.7792 93.4907 47.4806 93.896C47.1819 94.2907 46.7659 94.6 46.2326 94.824C45.7099 95.048 45.0859 95.16 44.3606 95.16ZM62.3894 95H60.6614V90.376C60.6614 89.672 60.5281 89.1653 60.2614 88.856C60.0054 88.536 59.5148 88.376 58.7894 88.376C58.1388 88.376 57.6534 88.5307 57.3334 88.84C57.0241 89.1387 56.8694 89.6507 56.8694 90.376L56.5654 90.408L56.4214 88.536H56.6774C56.8054 88.2587 56.9814 87.9973 57.2054 87.752C57.4401 87.496 57.7388 87.288 58.1014 87.128C58.4641 86.968 58.9068 86.888 59.4294 86.888C60.1228 86.888 60.6828 87.0213 61.1094 87.288C61.5468 87.5547 61.8668 87.9227 62.0694 88.392C62.2828 88.8613 62.3894 89.4 62.3894 90.008V95ZM51.3494 95H49.6214V87.048H51.2054V89.432L51.3494 89.512V95ZM56.8694 95H55.1414V90.376C55.1414 89.672 55.0081 89.1653 54.7414 88.856C54.4854 88.536 53.9948 88.376 53.2694 88.376C52.6188 88.376 52.1334 88.5253 51.8134 88.824C51.5041 89.1227 51.3494 89.6347 51.3494 90.36L51.0454 90.408L50.9014 88.536H51.2854C51.4028 88.248 51.5734 87.9813 51.7974 87.736C52.0321 87.4907 52.3308 87.288 52.6934 87.128C53.0561 86.968 53.4881 86.888 53.9894 86.888C54.6614 86.888 55.2054 87.0213 55.6214 87.288C56.0481 87.5547 56.3628 87.9227 56.5654 88.392C56.7681 88.8613 56.8694 89.4 56.8694 90.008V95ZM70.9981 95H69.3981V93.432L69.3501 93V89.944C69.3501 89.3467 69.2061 88.9413 68.9181 88.728C68.6407 88.5147 68.1874 88.408 67.5581 88.408C66.9287 88.408 66.4754 88.52 66.1981 88.744C65.9314 88.968 65.7981 89.3413 65.7981 89.864V90.104H64.1341V89.944C64.1341 89.3467 64.2781 88.8187 64.5661 88.36C64.8647 87.9013 65.2754 87.544 65.7981 87.288C66.3314 87.0213 66.9501 86.888 67.6541 86.888C68.4007 86.888 69.0194 87.0267 69.5101 87.304C70.0007 87.5813 70.3687 87.9653 70.6141 88.456C70.8701 88.936 70.9981 89.5067 70.9981 90.168V95ZM66.4381 95.16C65.7234 95.16 65.1207 94.9787 64.6301 94.616C64.1501 94.2427 63.9101 93.7147 63.9101 93.032C63.9101 92.584 64.0114 92.2107 64.2141 91.912C64.4274 91.6133 64.7314 91.368 65.1261 91.176C65.5207 90.984 66.0007 90.8507 66.5661 90.776L69.5101 90.36V91.576L66.8221 91.976C66.3634 92.04 66.0434 92.136 65.8621 92.264C65.6807 92.392 65.5901 92.6053 65.5901 92.904C65.5901 93.2133 65.6967 93.4373 65.9101 93.576C66.1341 93.7147 66.4967 93.784 66.9981 93.784C67.3821 93.784 67.7501 93.7253 68.1021 93.608C68.4647 93.48 68.7634 93.272 68.9981 92.984C69.2327 92.6853 69.3501 92.2693 69.3501 91.736L69.5741 93.768L69.3181 93.752C69.1687 93.9973 68.9607 94.2267 68.6941 94.44C68.4381 94.6533 68.1234 94.8293 67.7501 94.968C67.3767 95.096 66.9394 95.16 66.4381 95.16ZM80.3107 95H78.5827V90.376C78.5827 89.672 78.4494 89.1653 78.1827 88.856C77.916 88.536 77.4147 88.376 76.6787 88.376C76.2094 88.376 75.8254 88.4453 75.5267 88.584C75.228 88.712 75.004 88.9253 74.8547 89.224C74.7054 89.512 74.6307 89.9067 74.6307 90.408H74.3267L74.1827 88.536H74.5667C74.684 88.248 74.86 87.9813 75.0947 87.736C75.3294 87.4907 75.628 87.288 75.9907 87.128C76.364 86.968 76.8067 86.888 77.3187 86.888C78.012 86.888 78.5774 87.0213 79.0147 87.288C79.452 87.5547 79.7774 87.9227 79.9907 88.392C80.204 88.8613 80.3107 89.4 80.3107 90.008V95ZM74.6307 95H72.9027V87.048H74.4867V89.432L74.6307 89.512V95ZM88.9199 95H87.3199V93.432L87.2719 93V89.944C87.2719 89.3467 87.1279 88.9413 86.8399 88.728C86.5626 88.5147 86.1093 88.408 85.4799 88.408C84.8506 88.408 84.3973 88.52 84.1199 88.744C83.8533 88.968 83.7199 89.3413 83.7199 89.864V90.104H82.0559V89.944C82.0559 89.3467 82.1999 88.8187 82.4879 88.36C82.7866 87.9013 83.1973 87.544 83.7199 87.288C84.2533 87.0213 84.8719 86.888 85.5759 86.888C86.3226 86.888 86.9413 87.0267 87.4319 87.304C87.9226 87.5813 88.2906 87.9653 88.5359 88.456C88.7919 88.936 88.9199 89.5067 88.9199 90.168V95ZM84.3599 95.16C83.6453 95.16 83.0426 94.9787 82.5519 94.616C82.0719 94.2427 81.8319 93.7147 81.8319 93.032C81.8319 92.584 81.9333 92.2107 82.1359 91.912C82.3493 91.6133 82.6533 91.368 83.0479 91.176C83.4426 90.984 83.9226 90.8507 84.4879 90.776L87.4319 90.36V91.576L84.7439 91.976C84.2853 92.04 83.9653 92.136 83.7839 92.264C83.6026 92.392 83.5119 92.6053 83.5119 92.904C83.5119 93.2133 83.6186 93.4373 83.8319 93.576C84.0559 93.7147 84.4186 93.784 84.9199 93.784C85.3039 93.784 85.6719 93.7253 86.0239 93.608C86.3866 93.48 86.6853 93.272 86.9199 92.984C87.1546 92.6853 87.2719 92.2693 87.2719 91.736L87.4959 93.768L87.2399 93.752C87.0906 93.9973 86.8826 94.2267 86.6159 94.44C86.3599 94.6533 86.0453 94.8293 85.6719 94.968C85.2986 95.096 84.8613 95.16 84.3599 95.16ZM94.1217 95.16C92.959 95.16 92.079 94.9307 91.4817 94.472C90.8844 94.0027 90.5857 93.2827 90.5857 92.312V92.28H92.2497V92.568C92.2497 92.8453 92.303 93.0747 92.4097 93.256C92.527 93.4267 92.719 93.5547 92.9857 93.64C93.263 93.7147 93.6524 93.752 94.1537 93.752C94.5804 93.752 94.9004 93.72 95.1137 93.656C95.3377 93.5813 95.487 93.48 95.5617 93.352C95.6364 93.224 95.6737 93.064 95.6737 92.872C95.6737 92.552 95.5617 92.328 95.3377 92.2C95.1137 92.0613 94.7137 91.9387 94.1377 91.832L92.8897 91.624C92.4204 91.528 92.0097 91.3947 91.6577 91.224C91.3164 91.0427 91.0497 90.7973 90.8577 90.488C90.6764 90.168 90.5857 89.768 90.5857 89.288C90.5857 88.5733 90.8684 87.9973 91.4337 87.56C91.999 87.112 92.799 86.888 93.8337 86.888C94.463 86.888 95.023 86.9893 95.5137 87.192C96.0044 87.3947 96.3937 87.6987 96.6817 88.104C96.9697 88.5093 97.1137 89.016 97.1137 89.624V89.768H95.4657V89.576C95.4657 89.32 95.423 89.1013 95.3377 88.92C95.2524 88.728 95.0924 88.5787 94.8577 88.472C94.623 88.3653 94.2657 88.312 93.7857 88.312C93.1564 88.312 92.7404 88.392 92.5377 88.552C92.335 88.712 92.2337 88.9467 92.2337 89.256C92.2337 89.5653 92.3244 89.784 92.5057 89.912C92.6977 90.0293 93.071 90.1467 93.6257 90.264L94.9857 90.52C95.4977 90.616 95.9244 90.76 96.2657 90.952C96.607 91.144 96.863 91.3947 97.0337 91.704C97.215 92.0133 97.3057 92.3813 97.3057 92.808C97.3057 93.5547 97.023 94.136 96.4577 94.552C95.903 94.9573 95.1244 95.16 94.1217 95.16Z" fill="#0C3A25"/>
<path d="M21.846 73.32C15.382 73.32 12.982 70.696 12.982 66.44V65.736H17.686V66.376C17.686 68.328 18.422 68.904 21.846 68.904C24.47 68.904 25.814 68.456 25.814 66.472C25.814 64.36 24.918 63.944 22.838 63.944H18.326V60.04H22.326C24.246 60.04 24.982 59.656 24.982 57.928C24.982 56.232 23.766 55.656 21.526 55.656C18.678 55.656 17.686 56.232 17.686 58.184V58.472H12.982V58.12C12.982 53.864 16.15 51.24 21.654 51.24C26.71 51.24 29.782 53.192 29.782 57.032C29.782 59.56 28.566 61.288 25.75 61.608V61.8C28.822 62.088 30.678 63.944 30.678 67.112C30.678 71.272 27.254 73.32 21.846 73.32ZM39.9165 73.032H34.6685C34.6685 63.784 39.3725 58.824 42.5405 56.04V55.88H31.4685V51.56H48.1725V55.528C42.2525 61 39.9165 65.736 39.9165 73.032ZM60.249 65.608H48.345V61.512H60.249V65.608ZM78.421 73H73.621V68.936H61.525V65.576L72.853 51.56H78.421V64.616H81.493V68.936H78.421V73ZM67.573 64.616H73.621V57.384H73.333L67.573 64.296V64.616ZM100.42 73H83.6518V70.12C83.6518 65.96 86.4678 64.232 89.4438 62.792L93.1558 61.032C95.0438 60.136 95.7158 59.432 95.7158 58.024C95.7158 56.488 95.0118 55.624 92.1638 55.624C89.0598 55.624 88.4198 56.488 88.4198 58.792V59.336H83.6198V58.824C83.6198 54.664 86.1798 51.24 92.5478 51.24C98.2118 51.24 100.484 54.12 100.484 57.992C100.484 61.704 97.8598 63.592 95.0758 64.84L91.8438 66.248C90.0838 67.048 88.7718 67.72 88.7718 68.744L92.2278 68.68H100.42V73ZM112.318 69.416H108.222V64.264H103.102V60.296H108.222V55.144H112.318V60.296H117.406V64.264H112.318V69.416Z" fill="#0C3A25"/>
</svg>
