<svg width="130" height="130" viewBox="0 0 130 130" fill="none" xmlns="http://www.w3.org/2000/svg">
<circle cx="65" cy="65" r="65" transform="rotate(-90 65 65)" fill="#DFF0D8"/>
<path d="M45.3581 95H42.8461L40.3661 84.28H42.3501L43.6941 90.312L44.1421 93.272H44.2701L44.9581 90.312L46.7341 84.28H49.1501L50.9261 90.312L51.6301 93.272H51.7421L52.2061 90.312L53.5501 84.28H55.5021L53.0061 95H50.4941L48.8781 89.544L47.9981 86.216H47.8541L46.9901 89.544L45.3581 95ZM59.5699 95.16C58.7059 95.16 57.9859 94.9893 57.4099 94.648C56.8339 94.296 56.4073 93.8107 56.1299 93.192C55.8526 92.5627 55.7139 91.8373 55.7139 91.016C55.7139 90.1947 55.8686 89.4747 56.1779 88.856C56.4979 88.2373 56.9459 87.7573 57.5219 87.416C58.0979 87.064 58.7806 86.888 59.5699 86.888C60.2846 86.888 60.9139 87.0267 61.4579 87.304C62.0126 87.5707 62.4393 87.96 62.7379 88.472C63.0473 88.984 63.2019 89.6027 63.2019 90.328C63.2019 90.5413 63.1913 90.7493 63.1699 90.952C63.1593 91.144 63.1433 91.304 63.1219 91.432H56.5299V90.28H61.7139L61.5379 90.44C61.5806 89.9493 61.5273 89.5493 61.3779 89.24C61.2393 88.9307 61.0099 88.7013 60.6899 88.552C60.3806 88.4027 59.9913 88.328 59.5219 88.328C58.6793 88.328 58.1033 88.5413 57.7939 88.968C57.4846 89.384 57.3299 89.96 57.3299 90.696V91.176C57.3299 91.7093 57.3939 92.1627 57.5219 92.536C57.6606 92.8987 57.8953 93.1707 58.2259 93.352C58.5566 93.5333 59.0099 93.624 59.5859 93.624C60.2579 93.624 60.7326 93.5173 61.0099 93.304C61.2873 93.0907 61.4259 92.808 61.4259 92.456V92.328H63.1379V92.472C63.1379 93.016 62.9886 93.4907 62.6899 93.896C62.3913 94.2907 61.9753 94.6 61.4419 94.824C60.9193 95.048 60.2953 95.16 59.5699 95.16ZM68.4449 95.16C67.5809 95.16 66.8609 94.9893 66.2849 94.648C65.7089 94.296 65.2823 93.8107 65.0049 93.192C64.7276 92.5627 64.5889 91.8373 64.5889 91.016C64.5889 90.1947 64.7436 89.4747 65.0529 88.856C65.3729 88.2373 65.8209 87.7573 66.3969 87.416C66.9729 87.064 67.6556 86.888 68.4449 86.888C69.1596 86.888 69.7889 87.0267 70.3329 87.304C70.8876 87.5707 71.3143 87.96 71.6129 88.472C71.9223 88.984 72.0769 89.6027 72.0769 90.328C72.0769 90.5413 72.0663 90.7493 72.0449 90.952C72.0343 91.144 72.0183 91.304 71.9969 91.432H65.4049V90.28H70.5889L70.4129 90.44C70.4556 89.9493 70.4023 89.5493 70.2529 89.24C70.1143 88.9307 69.8849 88.7013 69.5649 88.552C69.2556 88.4027 68.8663 88.328 68.3969 88.328C67.5543 88.328 66.9783 88.5413 66.6689 88.968C66.3596 89.384 66.2049 89.96 66.2049 90.696V91.176C66.2049 91.7093 66.2689 92.1627 66.3969 92.536C66.5356 92.8987 66.7703 93.1707 67.1009 93.352C67.4316 93.5333 67.8849 93.624 68.4609 93.624C69.1329 93.624 69.6076 93.5173 69.8849 93.304C70.1623 93.0907 70.3009 92.808 70.3009 92.456V92.328H72.0129V92.472C72.0129 93.016 71.8636 93.4907 71.5649 93.896C71.2663 94.2907 70.8503 94.6 70.3169 94.824C69.7943 95.048 69.1703 95.16 68.4449 95.16ZM81.1454 95H79.1134L77.0334 91.736H74.4894V90.2H77.0174L79.1614 87.048H81.1774L78.4094 90.808L81.1454 95ZM75.4494 95H73.7214V84.28H75.4494V95ZM85.4561 95.16C84.2934 95.16 83.4134 94.9307 82.8161 94.472C82.2187 94.0027 81.9201 93.2827 81.9201 92.312V92.28H83.5841V92.568C83.5841 92.8453 83.6374 93.0747 83.7441 93.256C83.8614 93.4267 84.0534 93.5547 84.3201 93.64C84.5974 93.7147 84.9867 93.752 85.4881 93.752C85.9147 93.752 86.2347 93.72 86.4481 93.656C86.6721 93.5813 86.8214 93.48 86.8961 93.352C86.9707 93.224 87.0081 93.064 87.0081 92.872C87.0081 92.552 86.8961 92.328 86.6721 92.2C86.4481 92.0613 86.0481 91.9387 85.4721 91.832L84.2241 91.624C83.7547 91.528 83.3441 91.3947 82.9921 91.224C82.6507 91.0427 82.3841 90.7973 82.1921 90.488C82.0107 90.168 81.9201 89.768 81.9201 89.288C81.9201 88.5733 82.2027 87.9973 82.7681 87.56C83.3334 87.112 84.1334 86.888 85.1681 86.888C85.7974 86.888 86.3574 86.9893 86.8481 87.192C87.3387 87.3947 87.7281 87.6987 88.0161 88.104C88.3041 88.5093 88.4481 89.016 88.4481 89.624V89.768H86.8001V89.576C86.8001 89.32 86.7574 89.1013 86.6721 88.92C86.5867 88.728 86.4267 88.5787 86.1921 88.472C85.9574 88.3653 85.6001 88.312 85.1201 88.312C84.4907 88.312 84.0747 88.392 83.8721 88.552C83.6694 88.712 83.5681 88.9467 83.5681 89.256C83.5681 89.5653 83.6587 89.784 83.8401 89.912C84.0321 90.0293 84.4054 90.1467 84.9601 90.264L86.3201 90.52C86.8321 90.616 87.2587 90.76 87.6001 90.952C87.9414 91.144 88.1974 91.3947 88.3681 91.704C88.5494 92.0133 88.6401 92.3813 88.6401 92.808C88.6401 93.5547 88.3574 94.136 87.7921 94.552C87.2374 94.9573 86.4587 95.16 85.4561 95.16Z" fill="#0C3A25"/>
<path d="M21.846 73.32C15.382 73.32 12.982 70.696 12.982 66.44V65.736H17.686V66.376C17.686 68.328 18.422 68.904 21.846 68.904C24.47 68.904 25.814 68.456 25.814 66.472C25.814 64.36 24.918 63.944 22.838 63.944H18.326V60.04H22.326C24.246 60.04 24.982 59.656 24.982 57.928C24.982 56.232 23.766 55.656 21.526 55.656C18.678 55.656 17.686 56.232 17.686 58.184V58.472H12.982V58.12C12.982 53.864 16.15 51.24 21.654 51.24C26.71 51.24 29.782 53.192 29.782 57.032C29.782 59.56 28.566 61.288 25.75 61.608V61.8C28.822 62.088 30.678 63.944 30.678 67.112C30.678 71.272 27.254 73.32 21.846 73.32ZM39.9165 73.032H34.6685C34.6685 63.784 39.3725 58.824 42.5405 56.04V55.88H31.4685V51.56H48.1725V55.528C42.2525 61 39.9165 65.736 39.9165 73.032ZM60.249 65.608H48.345V61.512H60.249V65.608ZM78.421 73H73.621V68.936H61.525V65.576L72.853 51.56H78.421V64.616H81.493V68.936H78.421V73ZM67.573 64.616H73.621V57.384H73.333L67.573 64.296V64.616ZM100.42 73H83.6518V70.12C83.6518 65.96 86.4678 64.232 89.4438 62.792L93.1558 61.032C95.0438 60.136 95.7158 59.432 95.7158 58.024C95.7158 56.488 95.0118 55.624 92.1638 55.624C89.0598 55.624 88.4198 56.488 88.4198 58.792V59.336H83.6198V58.824C83.6198 54.664 86.1798 51.24 92.5478 51.24C98.2118 51.24 100.484 54.12 100.484 57.992C100.484 61.704 97.8598 63.592 95.0758 64.84L91.8438 66.248C90.0838 67.048 88.7718 67.72 88.7718 68.744L92.2278 68.68H100.42V73ZM112.318 69.416H108.222V64.264H103.102V60.296H108.222V55.144H112.318V60.296H117.406V64.264H112.318V69.416Z" fill="#0C3A25"/>
</svg>
