<svg width="130" height="130" viewBox="0 0 130 130" fill="none" xmlns="http://www.w3.org/2000/svg">
<circle cx="65" cy="65" r="65" transform="rotate(-90 65 65)" fill="#DFF0D8"/>
<path d="M44.2695 95.16C43.2455 95.16 42.4082 95.016 41.7575 94.728C41.1068 94.4293 40.6215 94.0187 40.3015 93.496C39.9922 92.9627 39.8375 92.3547 39.8375 91.672V91.4H41.5335V91.576C41.5335 92.0133 41.6082 92.3813 41.7575 92.68C41.9175 92.9787 42.2002 93.2027 42.6055 93.352C43.0108 93.5013 43.5922 93.576 44.3495 93.576C45.1388 93.576 45.6935 93.464 46.0135 93.24C46.3335 93.0053 46.4935 92.6427 46.4935 92.152C46.4935 91.8213 46.4455 91.5547 46.3495 91.352C46.2535 91.1493 46.0615 90.984 45.7735 90.856C45.4962 90.7173 45.0802 90.5947 44.5255 90.488L42.7015 90.12C42.0828 90.0027 41.5655 89.8213 41.1495 89.576C40.7335 89.32 40.4135 88.9947 40.1895 88.6C39.9762 88.2053 39.8695 87.7307 39.8695 87.176C39.8695 86.6427 40.0082 86.1467 40.2855 85.688C40.5735 85.2187 41.0108 84.84 41.5975 84.552C42.1948 84.264 42.9522 84.12 43.8695 84.12C44.8508 84.12 45.6455 84.2853 46.2535 84.616C46.8722 84.9467 47.3202 85.384 47.5975 85.928C47.8855 86.4613 48.0295 87.048 48.0295 87.688V87.88H46.3175V87.704C46.3175 87.256 46.2428 86.888 46.0935 86.6C45.9548 86.3013 45.6988 86.0773 45.3255 85.928C44.9628 85.768 44.4668 85.688 43.8375 85.688C43.0482 85.688 42.4775 85.8053 42.1255 86.04C41.7735 86.2747 41.5975 86.6267 41.5975 87.096C41.5975 87.416 41.6508 87.672 41.7575 87.864C41.8748 88.056 42.0722 88.2107 42.3495 88.328C42.6375 88.4347 43.0215 88.5467 43.5015 88.664L45.3255 89.048C46.0082 89.176 46.5575 89.3787 46.9735 89.656C47.4002 89.9333 47.7148 90.2747 47.9175 90.68C48.1202 91.0747 48.2215 91.544 48.2215 92.088C48.2215 92.6427 48.0828 93.1547 47.8055 93.624C47.5282 94.0933 47.0962 94.4667 46.5095 94.744C45.9335 95.0213 45.1868 95.16 44.2695 95.16ZM53.2496 95.16C52.3856 95.16 51.6656 94.9893 51.0896 94.648C50.5136 94.296 50.087 93.8107 49.8096 93.192C49.5323 92.5627 49.3936 91.8373 49.3936 91.016C49.3936 90.1947 49.5483 89.4747 49.8576 88.856C50.1776 88.2373 50.6256 87.7573 51.2016 87.416C51.7776 87.064 52.4603 86.888 53.2496 86.888C53.9643 86.888 54.5936 87.0267 55.1376 87.304C55.6923 87.5707 56.119 87.96 56.4176 88.472C56.727 88.984 56.8816 89.6027 56.8816 90.328C56.8816 90.5413 56.871 90.7493 56.8496 90.952C56.839 91.144 56.823 91.304 56.8016 91.432H50.2096V90.28H55.3936L55.2176 90.44C55.2603 89.9493 55.207 89.5493 55.0576 89.24C54.919 88.9307 54.6896 88.7013 54.3696 88.552C54.0603 88.4027 53.671 88.328 53.2016 88.328C52.359 88.328 51.783 88.5413 51.4736 88.968C51.1643 89.384 51.0096 89.96 51.0096 90.696V91.176C51.0096 91.7093 51.0736 92.1627 51.2016 92.536C51.3403 92.8987 51.575 93.1707 51.9056 93.352C52.2363 93.5333 52.6896 93.624 53.2656 93.624C53.9376 93.624 54.4123 93.5173 54.6896 93.304C54.967 93.0907 55.1056 92.808 55.1056 92.456V92.328H56.8176V92.472C56.8176 93.016 56.6683 93.4907 56.3696 93.896C56.071 94.2907 55.655 94.6 55.1216 94.824C54.599 95.048 53.975 95.16 53.2496 95.16ZM71.2785 95H69.5505V90.376C69.5505 89.672 69.4172 89.1653 69.1505 88.856C68.8945 88.536 68.4038 88.376 67.6785 88.376C67.0278 88.376 66.5425 88.5307 66.2225 88.84C65.9132 89.1387 65.7585 89.6507 65.7585 90.376L65.4545 90.408L65.3105 88.536H65.5665C65.6945 88.2587 65.8705 87.9973 66.0945 87.752C66.3292 87.496 66.6278 87.288 66.9905 87.128C67.3532 86.968 67.7958 86.888 68.3185 86.888C69.0118 86.888 69.5718 87.0213 69.9985 87.288C70.4358 87.5547 70.7558 87.9227 70.9585 88.392C71.1718 88.8613 71.2785 89.4 71.2785 90.008V95ZM60.2385 95H58.5105V87.048H60.0945V89.432L60.2385 89.512V95ZM65.7585 95H64.0305V90.376C64.0305 89.672 63.8972 89.1653 63.6305 88.856C63.3745 88.536 62.8838 88.376 62.1585 88.376C61.5078 88.376 61.0225 88.5253 60.7025 88.824C60.3932 89.1227 60.2385 89.6347 60.2385 90.36L59.9345 90.408L59.7905 88.536H60.1745C60.2918 88.248 60.4625 87.9813 60.6865 87.736C60.9212 87.4907 61.2198 87.288 61.5825 87.128C61.9452 86.968 62.3772 86.888 62.8785 86.888C63.5505 86.888 64.0945 87.0213 64.5105 87.288C64.9372 87.5547 65.2518 87.9227 65.4545 88.392C65.6572 88.8613 65.7585 89.4 65.7585 90.008V95ZM76.6871 95.16C75.8231 95.16 75.1031 94.9893 74.5271 94.648C73.9511 94.296 73.5245 93.8107 73.2471 93.192C72.9698 92.5627 72.8311 91.8373 72.8311 91.016C72.8311 90.1947 72.9858 89.4747 73.2951 88.856C73.6151 88.2373 74.0631 87.7573 74.6391 87.416C75.2151 87.064 75.8978 86.888 76.6871 86.888C77.4018 86.888 78.0311 87.0267 78.5751 87.304C79.1298 87.5707 79.5565 87.96 79.8551 88.472C80.1645 88.984 80.3191 89.6027 80.3191 90.328C80.3191 90.5413 80.3085 90.7493 80.2871 90.952C80.2765 91.144 80.2605 91.304 80.2391 91.432H73.6471V90.28H78.8311L78.6551 90.44C78.6978 89.9493 78.6445 89.5493 78.4951 89.24C78.3565 88.9307 78.1271 88.7013 77.8071 88.552C77.4978 88.4027 77.1085 88.328 76.6391 88.328C75.7965 88.328 75.2205 88.5413 74.9111 88.968C74.6018 89.384 74.4471 89.96 74.4471 90.696V91.176C74.4471 91.7093 74.5111 92.1627 74.6391 92.536C74.7778 92.8987 75.0125 93.1707 75.3431 93.352C75.6738 93.5333 76.1271 93.624 76.7031 93.624C77.3751 93.624 77.8498 93.5173 78.1271 93.304C78.4045 93.0907 78.5431 92.808 78.5431 92.456V92.328H80.2551V92.472C80.2551 93.016 80.1058 93.4907 79.8071 93.896C79.5085 94.2907 79.0925 94.6 78.5591 94.824C78.0365 95.048 77.4125 95.16 76.6871 95.16ZM77.6951 86.04H75.8871L73.6791 84.04V83.96H75.9671L77.6951 85.96V86.04ZM89.356 95H87.628V90.376C87.628 89.672 87.4947 89.1653 87.228 88.856C86.9613 88.536 86.46 88.376 85.724 88.376C85.2547 88.376 84.8707 88.4453 84.572 88.584C84.2733 88.712 84.0493 88.9253 83.9 89.224C83.7507 89.512 83.676 89.9067 83.676 90.408H83.372L83.228 88.536H83.612C83.7293 88.248 83.9053 87.9813 84.14 87.736C84.3747 87.4907 84.6733 87.288 85.036 87.128C85.4093 86.968 85.852 86.888 86.364 86.888C87.0573 86.888 87.6227 87.0213 88.06 87.288C88.4973 87.5547 88.8227 87.9227 89.036 88.392C89.2493 88.8613 89.356 89.4 89.356 90.008V95ZM83.676 95H81.948V87.048H83.532V89.432L83.676 89.512V95Z" fill="#0C3A25"/>
<path d="M31.8772 73.32C25.4132 73.32 23.0132 70.696 23.0132 66.44V65.736H27.7172V66.376C27.7172 68.328 28.4532 68.904 31.8772 68.904C34.5012 68.904 35.8452 68.456 35.8452 66.472C35.8452 64.36 34.9492 63.944 32.8692 63.944H28.3572V60.04H32.3572C34.2772 60.04 35.0132 59.656 35.0132 57.928C35.0132 56.232 33.7972 55.656 31.5572 55.656C28.7092 55.656 27.7172 56.232 27.7172 58.184V58.472H23.0132V58.12C23.0132 53.864 26.1812 51.24 31.6852 51.24C36.7412 51.24 39.8132 53.192 39.8132 57.032C39.8132 59.56 38.5972 61.288 35.7812 61.608V61.8C38.8532 62.088 40.7092 63.944 40.7092 67.112C40.7092 71.272 37.2852 73.32 31.8772 73.32ZM52.4525 73.32C47.3965 73.32 44.3245 70.632 44.3245 66.504V66.312H49.4125V66.504C49.4125 68.104 50.4045 68.744 52.7725 68.744C55.9085 68.744 56.6125 67.496 56.6125 64.168V62.312H56.4525C55.4925 63.72 53.7965 64.808 50.5965 64.808C45.9245 64.808 43.5245 62.376 43.5245 58.312C43.5245 53.992 46.5325 51.24 52.2605 51.24C59.1085 51.24 61.5725 54.76 61.5725 62.376C61.5725 69.672 58.5325 73.32 52.4525 73.32ZM52.2285 60.936C55.2365 60.936 56.1965 60.232 56.1965 58.408C56.1965 56.552 55.2365 55.848 52.2285 55.848C49.1565 55.848 48.2285 56.552 48.2285 58.408C48.2285 60.232 49.1565 60.936 52.2285 60.936ZM75.6865 65.608H63.7825V61.512H75.6865V65.608ZM93.8585 73H89.0585V68.936H76.9625V65.576L88.2905 51.56H93.8585V64.616H96.9305V68.936H93.8585V73ZM83.0105 64.616H89.0585V57.384H88.7705L83.0105 64.296V64.616ZM106.817 73H102.049V57.64H97.217V54.216H98.177C100.193 54.216 101.441 53.48 102.465 51.56H106.817V73Z" fill="#0C3A25"/>
</svg>
