<svg width="52" height="52" viewBox="0 0 52 52" fill="none" xmlns="http://www.w3.org/2000/svg">
<path d="M22.0453 25.7549H20.4253V24.3833H16.3429V23.2493L20.1661 18.5189H22.0453V22.9253H23.0821V24.3833H22.0453V25.7549ZM18.3841 22.9253H20.4253V20.4845H20.3281L18.3841 22.8173V22.9253ZM26.802 25.8629C25.0956 25.8629 24.0588 24.9557 24.0588 23.5625V23.4977H25.776V23.5625C25.776 24.1025 26.1108 24.3185 26.91 24.3185C27.9684 24.3185 28.206 23.8973 28.206 22.7741V22.1477H28.152C27.828 22.6229 27.2556 22.9901 26.1756 22.9901C24.5988 22.9901 23.7888 22.1693 23.7888 20.7977C23.7888 19.3397 24.804 18.4109 26.7372 18.4109C29.0484 18.4109 29.88 19.5989 29.88 22.1693C29.88 24.6317 28.854 25.8629 26.802 25.8629ZM26.7264 21.6833C27.7416 21.6833 28.0656 21.4457 28.0656 20.8301C28.0656 20.2037 27.7416 19.9661 26.7264 19.9661C25.6896 19.9661 25.3764 20.2037 25.3764 20.8301C25.3764 21.4457 25.6896 21.6833 26.7264 21.6833ZM32.3996 21.9965C31.2332 21.9965 30.4988 21.3161 30.4988 20.2037C30.4988 19.0913 31.2332 18.4109 32.3996 18.4109C33.5552 18.4109 34.2896 19.0913 34.2896 20.2037C34.2896 21.3161 33.5552 21.9965 32.3996 21.9965ZM32.7128 25.7549H31.2332L36.4496 18.5189H37.9184L32.7128 25.7549ZM32.3996 20.8949C32.9072 20.8949 33.08 20.7653 33.08 20.2037C33.08 19.6421 32.9072 19.5125 32.3996 19.5125C31.892 19.5125 31.7192 19.6421 31.7192 20.2037C31.7192 20.7653 31.892 20.8949 32.3996 20.8949ZM36.7628 25.8629C35.5964 25.8629 34.862 25.1825 34.862 24.0701C34.862 22.9577 35.5964 22.2773 36.7628 22.2773C37.9292 22.2773 38.6528 22.9577 38.6528 24.0701C38.6528 25.1825 37.9292 25.8629 36.7628 25.8629ZM36.7628 24.7613C37.2704 24.7613 37.4432 24.6317 37.4432 24.0701C37.4432 23.5085 37.2704 23.3789 36.7628 23.3789C36.2552 23.3789 36.0824 23.5085 36.0824 24.0701C36.0824 24.6317 36.2552 24.7613 36.7628 24.7613Z" fill="black"/>
<path d="M19.6225 34.065C19.2021 34.065 18.8381 33.974 18.5305 33.792C18.2271 33.6057 17.9931 33.3457 17.8285 33.012C17.6681 32.674 17.588 32.2775 17.588 31.8225C17.588 31.3675 17.6681 30.9732 17.8285 30.6395C17.9931 30.3015 18.2271 30.0415 18.5305 29.8595C18.8381 29.6732 19.2021 29.58 19.6225 29.58C20.0168 29.58 20.3526 29.6493 20.63 29.788C20.9073 29.9267 21.1218 30.1217 21.2735 30.373C21.4251 30.6243 21.501 30.9255 21.501 31.2765V31.3155H20.76V31.2765C20.76 30.9212 20.669 30.6633 20.487 30.503C20.3093 30.3383 20.0146 30.256 19.603 30.256C19.304 30.256 19.0613 30.308 18.875 30.412C18.6886 30.516 18.5521 30.6828 18.4655 30.9125C18.3788 31.1422 18.3355 31.4455 18.3355 31.8225C18.3355 32.1952 18.3788 32.4985 18.4655 32.7325C18.5521 32.9622 18.6886 33.129 18.875 33.233C19.0613 33.3327 19.304 33.3825 19.603 33.3825C20.0146 33.3825 20.3093 33.3023 20.487 33.142C20.669 32.9817 20.76 32.7238 20.76 32.3685V32.3295H21.501V32.3685C21.501 32.7152 21.4251 33.0163 21.2735 33.272C21.1218 33.5233 20.9073 33.7183 20.63 33.857C20.3526 33.9957 20.0168 34.065 19.6225 34.065ZM25.1856 34H24.4836V32.1215C24.4836 31.8355 24.4273 31.6297 24.3146 31.504C24.2063 31.374 24.0048 31.309 23.7101 31.309C23.4285 31.309 23.2183 31.3718 23.0796 31.4975C22.9453 31.6188 22.8781 31.8333 22.8781 32.141H22.7546L22.7481 31.309H22.9041C22.9561 31.2093 23.0276 31.114 23.1186 31.023C23.214 30.9277 23.3331 30.8518 23.4761 30.7955C23.6235 30.7348 23.7925 30.7045 23.9831 30.7045C24.2691 30.7045 24.4988 30.7608 24.6721 30.8735C24.8498 30.9818 24.9798 31.1313 25.0621 31.322C25.1445 31.5127 25.1856 31.7272 25.1856 31.9655V34ZM22.8781 34H22.1761V29.645H22.8781V34ZM28.6794 34H28.0294V33.363L28.0099 33.1875V31.946C28.0099 31.7033 27.9514 31.5387 27.8344 31.452C27.7217 31.3653 27.5376 31.322 27.2819 31.322C27.0262 31.322 26.8421 31.3675 26.7294 31.4585C26.6211 31.5495 26.5669 31.7012 26.5669 31.9135V32.011H25.8909V31.946C25.8909 31.7033 25.9494 31.4888 26.0664 31.3025C26.1877 31.1162 26.3546 30.971 26.5669 30.867C26.7836 30.7587 27.0349 30.7045 27.3209 30.7045C27.6242 30.7045 27.8756 30.7608 28.0749 30.8735C28.2742 30.9862 28.4237 31.1422 28.5234 31.3415C28.6274 31.5365 28.6794 31.7683 28.6794 32.037V34ZM26.8269 34.065C26.5366 34.065 26.2917 33.9913 26.0924 33.844C25.8974 33.6923 25.7999 33.4778 25.7999 33.2005C25.7999 33.0185 25.8411 32.8668 25.9234 32.7455C26.0101 32.6242 26.1336 32.5245 26.2939 32.4465C26.4542 32.3685 26.6492 32.3143 26.8789 32.284L28.0749 32.115V32.609L26.9829 32.7715C26.7966 32.7975 26.6666 32.8365 26.5929 32.8885C26.5192 32.9405 26.4824 33.0272 26.4824 33.1485C26.4824 33.2742 26.5257 33.3652 26.6124 33.4215C26.7034 33.4778 26.8507 33.506 27.0544 33.506C27.2104 33.506 27.3599 33.4822 27.5029 33.4345C27.6502 33.3825 27.7716 33.298 27.8669 33.181C27.9622 33.0597 28.0099 32.8907 28.0099 32.674L28.1009 33.4995L27.9969 33.493C27.9362 33.5927 27.8517 33.6858 27.7434 33.7725C27.6394 33.8592 27.5116 33.9307 27.3599 33.987C27.2082 34.039 27.0306 34.065 26.8269 34.065ZM32.4398 34H31.7378V32.1215C31.7378 31.8355 31.6837 31.6297 31.5753 31.504C31.467 31.374 31.2633 31.309 30.9643 31.309C30.7737 31.309 30.6177 31.3372 30.4963 31.3935C30.375 31.4455 30.284 31.5322 30.2233 31.6535C30.1627 31.7705 30.1323 31.9308 30.1323 32.1345H30.0088L29.9503 31.374H30.1063C30.154 31.257 30.2255 31.1487 30.3208 31.049C30.4162 30.9493 30.5375 30.867 30.6848 30.802C30.8365 30.737 31.0163 30.7045 31.2243 30.7045C31.506 30.7045 31.7357 30.7587 31.9133 30.867C32.091 30.9753 32.2232 31.1248 32.3098 31.3155C32.3965 31.5062 32.4398 31.725 32.4398 31.972V34ZM30.1323 34H29.4303V30.7695H30.0738V31.738L30.1323 31.7705V34ZM34.5302 34.065C34.0578 34.065 33.7003 33.9718 33.4577 33.7855C33.215 33.5948 33.0937 33.3023 33.0937 32.908V32.895H33.7697V33.012C33.7697 33.1247 33.7913 33.2178 33.8347 33.2915C33.8823 33.3608 33.9603 33.4128 34.0687 33.4475C34.1813 33.4778 34.3395 33.493 34.5432 33.493C34.7165 33.493 34.8465 33.48 34.9332 33.454C35.0242 33.4237 35.0848 33.3825 35.1152 33.3305C35.1455 33.2785 35.1607 33.2135 35.1607 33.1355C35.1607 33.0055 35.1152 32.9145 35.0242 32.8625C34.9332 32.8062 34.7707 32.7563 34.5367 32.713L34.0297 32.6285C33.839 32.5895 33.6722 32.5353 33.5292 32.466C33.3905 32.3923 33.2822 32.2927 33.2042 32.167C33.1305 32.037 33.0937 31.8745 33.0937 31.6795C33.0937 31.3892 33.2085 31.1552 33.4382 30.9775C33.6678 30.7955 33.9928 30.7045 34.4132 30.7045C34.6688 30.7045 34.8963 30.7457 35.0957 30.828C35.295 30.9103 35.4532 31.0338 35.5702 31.1985C35.6872 31.3632 35.7457 31.569 35.7457 31.816V31.8745H35.0762V31.7965C35.0762 31.6925 35.0588 31.6037 35.0242 31.53C34.9895 31.452 34.9245 31.3913 34.8292 31.348C34.7338 31.3047 34.5887 31.283 34.3937 31.283C34.138 31.283 33.969 31.3155 33.8867 31.3805C33.8043 31.4455 33.7632 31.5408 33.7632 31.6665C33.7632 31.7922 33.8 31.881 33.8737 31.933C33.9517 31.9807 34.1033 32.0283 34.3287 32.076L34.8812 32.18C35.0892 32.219 35.2625 32.2775 35.4012 32.3555C35.5398 32.4335 35.6438 32.5353 35.7132 32.661C35.7868 32.7867 35.8237 32.9362 35.8237 33.1095C35.8237 33.4128 35.7088 33.649 35.4792 33.818C35.2538 33.9827 34.9375 34.065 34.5302 34.065Z" fill="black"/>
<path d="M25.9999 0.800193C39.7862 0.800192 50.9621 12.0826 50.9621 26.0002C50.9621 39.9178 39.7862 51.2002 25.9999 51.2002C12.2136 51.2002 1.0376 39.9178 1.0376 26.0002C1.0376 12.0826 12.2136 0.800193 25.9999 0.800193ZM25.9999 47.4202C37.7182 47.4202 47.2178 37.8301 47.2178 26.0002C47.2178 14.1703 37.7182 4.58019 25.9999 4.58019C14.2815 4.58019 4.78194 14.1703 4.78194 26.0002C4.78194 37.8301 14.2815 47.4202 25.9999 47.4202Z" fill="#DFF0D8"/>
<path d="M25.9998 0.800193C32.5462 0.800192 38.8357 3.34769 43.5368 7.90341C48.238 12.4591 50.9818 18.6655 51.1874 25.2086C51.393 31.7518 49.0443 38.1182 44.6385 42.9601C40.2327 47.802 34.1156 50.7394 27.5821 51.1505L27.3448 47.3779C32.8983 47.0285 38.0978 44.5318 41.8427 40.4161C45.5877 36.3005 47.584 30.8891 47.4093 25.3274C47.2345 19.7657 44.9023 14.4903 40.9063 10.6179C36.9103 6.74557 31.5643 4.58019 25.9998 4.58019L25.9998 0.800193Z" fill="#0C3A25"/>
</svg>
