<svg width="52" height="52" viewBox="0 0 52 52" fill="none" xmlns="http://www.w3.org/2000/svg">
<path d="M22.0453 25.7549H20.4253V24.3833H16.3429V23.2493L20.1661 18.5189H22.0453V22.9253H23.0821V24.3833H22.0453V25.7549ZM18.3841 22.9253H20.4253V20.4845H20.3281L18.3841 22.8173V22.9253ZM26.802 25.8629C25.0956 25.8629 24.0588 24.9557 24.0588 23.5625V23.4977H25.776V23.5625C25.776 24.1025 26.1108 24.3185 26.91 24.3185C27.9684 24.3185 28.206 23.8973 28.206 22.7741V22.1477H28.152C27.828 22.6229 27.2556 22.9901 26.1756 22.9901C24.5988 22.9901 23.7888 22.1693 23.7888 20.7977C23.7888 19.3397 24.804 18.4109 26.7372 18.4109C29.0484 18.4109 29.88 19.5989 29.88 22.1693C29.88 24.6317 28.854 25.8629 26.802 25.8629ZM26.7264 21.6833C27.7416 21.6833 28.0656 21.4457 28.0656 20.8301C28.0656 20.2037 27.7416 19.9661 26.7264 19.9661C25.6896 19.9661 25.3764 20.2037 25.3764 20.8301C25.3764 21.4457 25.6896 21.6833 26.7264 21.6833ZM32.3996 21.9965C31.2332 21.9965 30.4988 21.3161 30.4988 20.2037C30.4988 19.0913 31.2332 18.4109 32.3996 18.4109C33.5552 18.4109 34.2896 19.0913 34.2896 20.2037C34.2896 21.3161 33.5552 21.9965 32.3996 21.9965ZM32.7128 25.7549H31.2332L36.4496 18.5189H37.9184L32.7128 25.7549ZM32.3996 20.8949C32.9072 20.8949 33.08 20.7653 33.08 20.2037C33.08 19.6421 32.9072 19.5125 32.3996 19.5125C31.892 19.5125 31.7192 19.6421 31.7192 20.2037C31.7192 20.7653 31.892 20.8949 32.3996 20.8949ZM36.7628 25.8629C35.5964 25.8629 34.862 25.1825 34.862 24.0701C34.862 22.9577 35.5964 22.2773 36.7628 22.2773C37.9292 22.2773 38.6528 22.9577 38.6528 24.0701C38.6528 25.1825 37.9292 25.8629 36.7628 25.8629ZM36.7628 24.7613C37.2704 24.7613 37.4432 24.6317 37.4432 24.0701C37.4432 23.5085 37.2704 23.3789 36.7628 23.3789C36.2552 23.3789 36.0824 23.5085 36.0824 24.0701C36.0824 24.6317 36.2552 24.7613 36.7628 24.7613Z" fill="black"/>
<path d="M17.701 34.065C17.2807 34.065 16.9167 33.974 16.609 33.792C16.3057 33.6057 16.0717 33.3457 15.907 33.012C15.7467 32.674 15.6665 32.2775 15.6665 31.8225C15.6665 31.3675 15.7467 30.9732 15.907 30.6395C16.0717 30.3015 16.3057 30.0415 16.609 29.8595C16.9167 29.6732 17.2807 29.58 17.701 29.58C18.0954 29.58 18.4312 29.6493 18.7085 29.788C18.9859 29.9267 19.2004 30.1217 19.352 30.373C19.5037 30.6243 19.5795 30.9255 19.5795 31.2765V31.3155H18.8385V31.2765C18.8385 30.9212 18.7475 30.6633 18.5655 30.503C18.3879 30.3383 18.0932 30.256 17.6815 30.256C17.3825 30.256 17.1399 30.308 16.9535 30.412C16.7672 30.516 16.6307 30.6828 16.544 30.9125C16.4574 31.1422 16.414 31.4455 16.414 31.8225C16.414 32.1952 16.4574 32.4985 16.544 32.7325C16.6307 32.9622 16.7672 33.129 16.9535 33.233C17.1399 33.3327 17.3825 33.3825 17.6815 33.3825C18.0932 33.3825 18.3879 33.3023 18.5655 33.142C18.7475 32.9817 18.8385 32.7238 18.8385 32.3685V32.3295H19.5795V32.3685C19.5795 32.7152 19.5037 33.0163 19.352 33.272C19.2004 33.5233 18.9859 33.7183 18.7085 33.857C18.4312 33.9957 18.0954 34.065 17.701 34.065ZM23.2642 34H22.5622V32.1215C22.5622 31.8355 22.5059 31.6297 22.3932 31.504C22.2849 31.374 22.0834 31.309 21.7887 31.309C21.507 31.309 21.2969 31.3718 21.1582 31.4975C21.0239 31.6188 20.9567 31.8333 20.9567 32.141H20.8332L20.8267 31.309H20.9827C21.0347 31.2093 21.1062 31.114 21.1972 31.023C21.2925 30.9277 21.4117 30.8518 21.5547 30.7955C21.702 30.7348 21.871 30.7045 22.0617 30.7045C22.3477 30.7045 22.5774 30.7608 22.7507 30.8735C22.9284 30.9818 23.0584 31.1313 23.1407 31.322C23.223 31.5127 23.2642 31.7272 23.2642 31.9655V34ZM20.9567 34H20.2547V29.645H20.9567V34ZM26.7579 34H26.1079V33.363L26.0884 33.1875V31.946C26.0884 31.7033 26.0299 31.5387 25.9129 31.452C25.8003 31.3653 25.6161 31.322 25.3604 31.322C25.1048 31.322 24.9206 31.3675 24.8079 31.4585C24.6996 31.5495 24.6454 31.7012 24.6454 31.9135V32.011H23.9694V31.946C23.9694 31.7033 24.0279 31.4888 24.1449 31.3025C24.2663 31.1162 24.4331 30.971 24.6454 30.867C24.8621 30.7587 25.1134 30.7045 25.3994 30.7045C25.7028 30.7045 25.9541 30.7608 26.1534 30.8735C26.3528 30.9862 26.5023 31.1422 26.6019 31.3415C26.7059 31.5365 26.7579 31.7683 26.7579 32.037V34ZM24.9054 34.065C24.6151 34.065 24.3703 33.9913 24.1709 33.844C23.9759 33.6923 23.8784 33.4778 23.8784 33.2005C23.8784 33.0185 23.9196 32.8668 24.0019 32.7455C24.0886 32.6242 24.2121 32.5245 24.3724 32.4465C24.5328 32.3685 24.7278 32.3143 24.9574 32.284L26.1534 32.115V32.609L25.0614 32.7715C24.8751 32.7975 24.7451 32.8365 24.6714 32.8885C24.5978 32.9405 24.5609 33.0272 24.5609 33.1485C24.5609 33.2742 24.6043 33.3652 24.6909 33.4215C24.7819 33.4778 24.9293 33.506 25.1329 33.506C25.2889 33.506 25.4384 33.4822 25.5814 33.4345C25.7288 33.3825 25.8501 33.298 25.9454 33.181C26.0408 33.0597 26.0884 32.8907 26.0884 32.674L26.1794 33.4995L26.0754 33.493C26.0148 33.5927 25.9303 33.6858 25.8219 33.7725C25.7179 33.8592 25.5901 33.9307 25.4384 33.987C25.2868 34.039 25.1091 34.065 24.9054 34.065ZM30.5184 34H29.8164V32.1215C29.8164 31.8355 29.7622 31.6297 29.6539 31.504C29.5455 31.374 29.3419 31.309 29.0429 31.309C28.8522 31.309 28.6962 31.3372 28.5749 31.3935C28.4535 31.4455 28.3625 31.5322 28.3019 31.6535C28.2412 31.7705 28.2109 31.9308 28.2109 32.1345H28.0874L28.0289 31.374H28.1849C28.2325 31.257 28.304 31.1487 28.3994 31.049C28.4947 30.9493 28.616 30.867 28.7634 30.802C28.915 30.737 29.0949 30.7045 29.3029 30.7045C29.5845 30.7045 29.8142 30.7587 29.9919 30.867C30.1695 30.9753 30.3017 31.1248 30.3884 31.3155C30.475 31.5062 30.5184 31.725 30.5184 31.972V34ZM28.2109 34H27.5089V30.7695H28.1524V31.738L28.2109 31.7705V34ZM32.7061 34.0715C32.3681 34.0715 32.0821 34 31.8481 33.857C31.6141 33.714 31.4342 33.5168 31.3086 33.2655C31.1872 33.0142 31.1266 32.7217 31.1266 32.388C31.1266 32.0543 31.1894 31.7618 31.3151 31.5105C31.4451 31.2548 31.6292 31.0577 31.8676 30.919C32.1059 30.776 32.3941 30.7045 32.7321 30.7045C33.0181 30.7045 33.2694 30.7587 33.4861 30.867C33.7027 30.9753 33.8696 31.127 33.9866 31.322C34.1079 31.517 34.1686 31.7445 34.1686 32.0045V32.063H33.4731V32.024C33.4731 31.7857 33.4081 31.6123 33.2781 31.504C33.1524 31.3913 32.9552 31.335 32.6866 31.335C32.3746 31.335 32.1514 31.4238 32.0171 31.6015C31.8871 31.7748 31.8221 32.0348 31.8221 32.3815C31.8221 32.7325 31.8871 32.9968 32.0171 33.1745C32.1514 33.3478 32.3746 33.4345 32.6866 33.4345C32.9552 33.4345 33.1524 33.3803 33.2781 33.272C33.4081 33.1593 33.4731 32.986 33.4731 32.752V32.713H34.1686V32.7715C34.1686 33.0228 34.1079 33.2482 33.9866 33.4475C33.8652 33.6425 33.6941 33.7963 33.4731 33.909C33.2564 34.0173 33.0007 34.0715 32.7061 34.0715ZM36.244 34.065C35.893 34.065 35.6005 33.9957 35.3665 33.857C35.1325 33.714 34.9592 33.5168 34.8465 33.2655C34.7338 33.0098 34.6775 32.7152 34.6775 32.3815C34.6775 32.0478 34.7403 31.7553 34.866 31.504C34.996 31.2527 35.178 31.0577 35.412 30.919C35.646 30.776 35.9233 30.7045 36.244 30.7045C36.5343 30.7045 36.79 30.7608 37.011 30.8735C37.2363 30.9818 37.4097 31.14 37.531 31.348C37.6567 31.556 37.7195 31.8073 37.7195 32.102C37.7195 32.1887 37.7152 32.2732 37.7065 32.3555C37.7022 32.4335 37.6957 32.4985 37.687 32.5505H35.009V32.0825H37.115L37.0435 32.1475C37.0608 31.9482 37.0392 31.7857 36.9785 31.66C36.9222 31.5343 36.829 31.4412 36.699 31.3805C36.5733 31.3198 36.4152 31.2895 36.2245 31.2895C35.8822 31.2895 35.6482 31.3762 35.5225 31.5495C35.3968 31.7185 35.334 31.9525 35.334 32.2515V32.4465C35.334 32.6632 35.36 32.8473 35.412 32.999C35.4683 33.1463 35.5637 33.2568 35.698 33.3305C35.8323 33.4042 36.0165 33.441 36.2505 33.441C36.5235 33.441 36.7163 33.3977 36.829 33.311C36.9417 33.2243 36.998 33.1095 36.998 32.9665V32.9145H37.6935V32.973C37.6935 33.194 37.6328 33.3868 37.5115 33.5515C37.3902 33.7118 37.2212 33.8375 37.0045 33.9285C36.7922 34.0195 36.5387 34.065 36.244 34.065Z" fill="black"/>
<path d="M25.9999 0.800193C39.7862 0.800192 50.9621 12.0826 50.9621 26.0002C50.9621 39.9178 39.7862 51.2002 25.9999 51.2002C12.2136 51.2002 1.0376 39.9178 1.0376 26.0002C1.0376 12.0826 12.2136 0.800193 25.9999 0.800193ZM25.9999 47.4202C37.7182 47.4202 47.2178 37.8301 47.2178 26.0002C47.2178 14.1703 37.7182 4.58019 25.9999 4.58019C14.2815 4.58019 4.78194 14.1703 4.78194 26.0002C4.78194 37.8301 14.2815 47.4202 25.9999 47.4202Z" fill="#DFF0D8"/>
<path d="M25.9998 0.800193C32.5462 0.800192 38.8357 3.34769 43.5368 7.90341C48.238 12.4591 50.9818 18.6655 51.1874 25.2086C51.393 31.7518 49.0443 38.1182 44.6385 42.9601C40.2327 47.802 34.1156 50.7394 27.5821 51.1505L27.3448 47.3779C32.8983 47.0285 38.0978 44.5318 41.8427 40.4161C45.5877 36.3005 47.584 30.8891 47.4093 25.3274C47.2345 19.7657 44.9023 14.4903 40.9063 10.6179C36.9103 6.74557 31.5643 4.58019 25.9998 4.58019L25.9998 0.800193Z" fill="#0C3A25"/>
</svg>
