<svg width="160" height="160" viewBox="0 0 160 160" fill="none" xmlns="http://www.w3.org/2000/svg">
<path d="M66.216 79V74.936H69.288V70.616H66.216V57.56H60.648L49.32 71.576V74.936H61.416V79H66.216ZM55.368 70.616V70.296L61.128 63.384H61.416V70.616H55.368ZM80.31 79.32C86.39 79.32 89.43 75.672 89.43 68.376C89.43 60.76 86.966 57.24 80.118 57.24C74.39 57.24 71.382 59.992 71.382 64.312C71.382 68.376 73.782 70.808 78.454 70.808C81.654 70.808 83.35 69.72 84.31 68.312H84.47V70.168C84.47 73.496 83.766 74.744 80.63 74.744C78.262 74.744 77.27 74.104 77.27 72.504V72.312H72.182V72.504C72.182 76.632 75.254 79.32 80.31 79.32ZM80.086 66.936C77.014 66.936 76.086 66.232 76.086 64.408C76.086 62.552 77.014 61.848 80.086 61.848C83.094 61.848 84.054 62.552 84.054 64.408C84.054 66.232 83.094 66.936 80.086 66.936ZM96.8955 67.864C100.32 67.864 102.496 65.848 102.496 62.552C102.496 59.256 100.32 57.24 96.8955 57.24C93.4395 57.24 91.2635 59.256 91.2635 62.552C91.2635 65.848 93.4395 67.864 96.8955 67.864ZM97.8235 79L113.248 57.56H108.896L93.4395 79H97.8235ZM96.8955 64.6C95.3915 64.6 94.8795 64.216 94.8795 62.552C94.8795 60.888 95.3915 60.504 96.8955 60.504C98.3995 60.504 98.9115 60.888 98.9115 62.552C98.9115 64.216 98.3995 64.6 96.8955 64.6ZM109.824 79.32C113.28 79.32 115.424 77.304 115.424 74.008C115.424 70.712 113.28 68.696 109.824 68.696C106.368 68.696 104.192 70.712 104.192 74.008C104.192 77.304 106.368 79.32 109.824 79.32ZM109.824 76.056C108.319 76.056 107.808 75.672 107.808 74.008C107.808 72.344 108.319 71.96 109.824 71.96C111.328 71.96 111.84 72.344 111.84 74.008C111.84 75.672 111.328 76.056 109.824 76.056Z" fill="black"/>
<path d="M57.2166 104.16C56.182 104.16 55.286 103.936 54.5286 103.488C53.782 103.029 53.206 102.389 52.8006 101.568C52.406 100.736 52.2086 99.76 52.2086 98.64C52.2086 97.52 52.406 96.5494 52.8006 95.728C53.206 94.896 53.782 94.256 54.5286 93.808C55.286 93.3494 56.182 93.12 57.2166 93.12C58.1873 93.12 59.014 93.2907 59.6966 93.632C60.3793 93.9734 60.9073 94.4534 61.2806 95.072C61.654 95.6907 61.8406 96.432 61.8406 97.296V97.392H60.0166V97.296C60.0166 96.4214 59.7926 95.7867 59.3446 95.392C58.9073 94.9867 58.182 94.784 57.1686 94.784C56.4326 94.784 55.8353 94.912 55.3766 95.168C54.918 95.424 54.582 95.8347 54.3686 96.4C54.1553 96.9654 54.0486 97.712 54.0486 98.64C54.0486 99.5574 54.1553 100.304 54.3686 100.88C54.582 101.445 54.918 101.856 55.3766 102.112C55.8353 102.357 56.4326 102.48 57.1686 102.48C58.182 102.48 58.9073 102.283 59.3446 101.888C59.7926 101.493 60.0166 100.859 60.0166 99.984V99.888H61.8406V99.984C61.8406 100.837 61.654 101.579 61.2806 102.208C60.9073 102.827 60.3793 103.307 59.6966 103.648C59.014 103.989 58.1873 104.16 57.2166 104.16ZM70.9667 104H69.2387V99.376C69.2387 98.672 69.1001 98.1654 68.8227 97.856C68.5561 97.536 68.0601 97.376 67.3347 97.376C66.6414 97.376 66.1241 97.5307 65.7827 97.84C65.4521 98.1387 65.2867 98.6667 65.2867 99.424H64.9827L64.9667 97.376H65.3507C65.4787 97.1307 65.6547 96.896 65.8787 96.672C66.1134 96.4374 66.4067 96.2507 66.7587 96.112C67.1214 95.9627 67.5374 95.888 68.0067 95.888C68.7107 95.888 69.2761 96.0267 69.7027 96.304C70.1401 96.5707 70.4601 96.9387 70.6627 97.408C70.8654 97.8774 70.9667 98.4054 70.9667 98.992V104ZM65.2867 104H63.5587V93.28H65.2867V104ZM79.6229 104H78.0229V102.432L77.9749 102V98.944C77.9749 98.3467 77.8309 97.9414 77.5429 97.728C77.2655 97.5147 76.8122 97.408 76.1829 97.408C75.5535 97.408 75.1002 97.52 74.8229 97.744C74.5562 97.968 74.4229 98.3414 74.4229 98.864V99.104H72.7589V98.944C72.7589 98.3467 72.9029 97.8187 73.1909 97.36C73.4895 96.9014 73.9002 96.544 74.4229 96.288C74.9562 96.0214 75.5749 95.888 76.2789 95.888C77.0255 95.888 77.6442 96.0267 78.1349 96.304C78.6255 96.5814 78.9935 96.9654 79.2389 97.456C79.4949 97.936 79.6229 98.5067 79.6229 99.168V104ZM75.0629 104.16C74.3482 104.16 73.7455 103.979 73.2549 103.616C72.7749 103.243 72.5349 102.715 72.5349 102.032C72.5349 101.584 72.6362 101.211 72.8389 100.912C73.0522 100.613 73.3562 100.368 73.7509 100.176C74.1455 99.984 74.6255 99.8507 75.1909 99.776L78.1349 99.36V100.576L75.4469 100.976C74.9882 101.04 74.6682 101.136 74.4869 101.264C74.3055 101.392 74.2149 101.605 74.2149 101.904C74.2149 102.213 74.3215 102.437 74.5349 102.576C74.7589 102.715 75.1215 102.784 75.6229 102.784C76.0069 102.784 76.3749 102.725 76.7269 102.608C77.0895 102.48 77.3882 102.272 77.6229 101.984C77.8575 101.685 77.9749 101.269 77.9749 100.736L78.1989 102.768L77.9429 102.752C77.7935 102.997 77.5855 103.227 77.3189 103.44C77.0629 103.653 76.7482 103.829 76.3749 103.968C76.0015 104.096 75.5642 104.16 75.0629 104.16ZM88.9355 104H87.2075V99.376C87.2075 98.672 87.0742 98.1654 86.8075 97.856C86.5408 97.536 86.0395 97.376 85.3035 97.376C84.8342 97.376 84.4502 97.4454 84.1515 97.584C83.8528 97.712 83.6288 97.9254 83.4795 98.224C83.3302 98.512 83.2555 98.9067 83.2555 99.408H82.9515L82.8075 97.536H83.1915C83.3088 97.248 83.4848 96.9814 83.7195 96.736C83.9542 96.4907 84.2528 96.288 84.6155 96.128C84.9888 95.968 85.4315 95.888 85.9435 95.888C86.6368 95.888 87.2022 96.0214 87.6395 96.288C88.0768 96.5547 88.4022 96.9227 88.6155 97.392C88.8288 97.8614 88.9355 98.4 88.9355 99.008V104ZM83.2555 104H81.5275V96.048H83.1115V98.432L83.2555 98.512V104ZM94.3767 104.176C93.5447 104.176 92.8407 104 92.2647 103.648C91.6887 103.296 91.2461 102.811 90.9367 102.192C90.6381 101.573 90.4887 100.853 90.4887 100.032C90.4887 99.2107 90.6434 98.4907 90.9527 97.872C91.2727 97.2427 91.7261 96.7574 92.3127 96.416C92.8994 96.064 93.6087 95.888 94.4407 95.888C95.1447 95.888 95.7634 96.0214 96.2967 96.288C96.8301 96.5547 97.2407 96.928 97.5287 97.408C97.8274 97.888 97.9767 98.448 97.9767 99.088V99.232H96.2647V99.136C96.2647 98.5494 96.1047 98.1227 95.7847 97.856C95.4754 97.5787 94.9901 97.44 94.3287 97.44C93.5607 97.44 93.0114 97.6587 92.6807 98.096C92.3607 98.5227 92.2007 99.1627 92.2007 100.016C92.2007 100.88 92.3607 101.531 92.6807 101.968C93.0114 102.395 93.5607 102.608 94.3287 102.608C94.9901 102.608 95.4754 102.475 95.7847 102.208C96.1047 101.931 96.2647 101.504 96.2647 100.928V100.832H97.9767V100.976C97.9767 101.595 97.8274 102.149 97.5287 102.64C97.2301 103.12 96.8087 103.499 96.2647 103.776C95.7314 104.043 95.1021 104.176 94.3767 104.176ZM103.142 104.16C102.278 104.16 101.558 103.989 100.982 103.648C100.406 103.296 99.979 102.811 99.7016 102.192C99.4243 101.563 99.2856 100.837 99.2856 100.016C99.2856 99.1947 99.4403 98.4747 99.7496 97.856C100.07 97.2374 100.518 96.7574 101.094 96.416C101.67 96.064 102.352 95.888 103.142 95.888C103.856 95.888 104.486 96.0267 105.03 96.304C105.584 96.5707 106.011 96.96 106.31 97.472C106.619 97.984 106.774 98.6027 106.774 99.328C106.774 99.5414 106.763 99.7494 106.742 99.952C106.731 100.144 106.715 100.304 106.694 100.432H100.102V99.28H105.286L105.11 99.44C105.152 98.9494 105.099 98.5494 104.95 98.24C104.811 97.9307 104.582 97.7014 104.262 97.552C103.952 97.4027 103.563 97.328 103.094 97.328C102.251 97.328 101.675 97.5414 101.366 97.968C101.056 98.384 100.902 98.96 100.902 99.696V100.176C100.902 100.709 100.966 101.163 101.094 101.536C101.232 101.899 101.467 102.171 101.798 102.352C102.128 102.533 102.582 102.624 103.158 102.624C103.83 102.624 104.304 102.517 104.582 102.304C104.859 102.091 104.998 101.808 104.998 101.456V101.328H106.71V101.472C106.71 102.016 106.56 102.491 106.262 102.896C105.963 103.291 105.547 103.6 105.014 103.824C104.491 104.048 103.867 104.16 103.142 104.16Z" fill="black"/>
<path d="M80.0001 1.17949e-05C123.766 9.8818e-06 159.245 35.8172 159.245 80C159.245 124.183 123.766 160 80.0002 160C36.2342 160 0.754881 124.183 0.754879 80C0.754877 35.8172 36.2342 1.37079e-05 80.0001 1.17949e-05ZM80.0002 148.8C117.639 148.8 148.151 117.997 148.151 80C148.151 42.0028 117.639 11.2 80.0001 11.2C42.3614 11.2 11.8492 42.0028 11.8492 80C11.8492 117.997 42.3614 148.8 80.0002 148.8Z" fill="#DFF0D8"/>
<path d="M80 1.17619e-05C100.782 1.08535e-05 120.749 8.08731 135.673 22.5499C150.597 37.0125 159.308 56.7152 159.961 77.4871C160.613 98.2591 153.157 118.47 139.17 133.841C125.184 149.212 105.764 158.537 85.0232 159.842L84.2697 147.866C101.9 146.757 118.406 138.83 130.295 125.765C142.184 112.699 148.521 95.5202 147.966 77.8641C147.412 60.2079 140.008 43.4606 127.322 31.1674C114.636 18.8742 97.6649 12 80 12L80 1.17619e-05Z" fill="#0C3A25"/>
</svg>
