<svg width="160" height="160" viewBox="0 0 160 160" fill="none" xmlns="http://www.w3.org/2000/svg">
<path d="M65.4614 79H60.6614V74.936H48.5654V71.576L59.8934 57.56H65.4614V70.616H68.5334V74.936H65.4614V79ZM54.6134 70.616H60.6614V63.384H60.3734L54.6134 70.296V70.616ZM79.5554 79.32C74.4994 79.32 71.4274 76.632 71.4274 72.504V72.312H76.5154V72.504C76.5154 74.104 77.5074 74.744 79.8754 74.744C83.0114 74.744 83.7154 73.496 83.7154 70.168V68.312H83.5554C82.5954 69.72 80.8994 70.808 77.6994 70.808C73.0274 70.808 70.6274 68.376 70.6274 64.312C70.6274 59.992 73.6354 57.24 79.3634 57.24C86.2114 57.24 88.6754 60.76 88.6754 68.376C88.6754 75.672 85.6354 79.32 79.5554 79.32ZM79.3314 66.936C82.3394 66.936 83.2994 66.232 83.2994 64.408C83.2994 62.552 82.3394 61.848 79.3314 61.848C76.2594 61.848 75.3314 62.552 75.3314 64.408C75.3314 66.232 76.2594 66.936 79.3314 66.936ZM96.1409 67.864C92.6849 67.864 90.5089 65.848 90.5089 62.552C90.5089 59.256 92.6849 57.24 96.1409 57.24C99.5649 57.24 101.741 59.256 101.741 62.552C101.741 65.848 99.5649 67.864 96.1409 67.864ZM97.0689 79H92.6849L108.141 57.56H112.493L97.0689 79ZM96.1409 64.6C97.6449 64.6 98.1569 64.216 98.1569 62.552C98.1569 60.888 97.6449 60.504 96.1409 60.504C94.6369 60.504 94.1249 60.888 94.1249 62.552C94.1249 64.216 94.6369 64.6 96.1409 64.6ZM109.069 79.32C105.613 79.32 103.437 77.304 103.437 74.008C103.437 70.712 105.613 68.696 109.069 68.696C112.525 68.696 114.669 70.712 114.669 74.008C114.669 77.304 112.525 79.32 109.069 79.32ZM109.069 76.056C110.573 76.056 111.085 75.672 111.085 74.008C111.085 72.344 110.573 71.96 109.069 71.96C107.565 71.96 107.053 72.344 107.053 74.008C107.053 75.672 107.565 76.056 109.069 76.056Z" fill="black"/>
<path d="M61.2198 104.16C60.1851 104.16 59.2891 103.936 58.5318 103.488C57.7851 103.029 57.2091 102.389 56.8038 101.568C56.4091 100.736 56.2118 99.76 56.2118 98.64C56.2118 97.52 56.4091 96.5493 56.8038 95.728C57.2091 94.896 57.7851 94.256 58.5318 93.808C59.2891 93.3493 60.1851 93.12 61.2198 93.12C62.1905 93.12 63.0171 93.2907 63.6998 93.632C64.3825 93.9733 64.9105 94.4533 65.2838 95.072C65.6571 95.6907 65.8438 96.432 65.8438 97.296V97.392H64.0198V97.296C64.0198 96.4213 63.7958 95.7867 63.3478 95.392C62.9105 94.9867 62.1851 94.784 61.1718 94.784C60.4358 94.784 59.8385 94.912 59.3798 95.168C58.9211 95.424 58.5851 95.8347 58.3718 96.4C58.1585 96.9653 58.0518 97.712 58.0518 98.64C58.0518 99.5573 58.1585 100.304 58.3718 100.88C58.5851 101.445 58.9211 101.856 59.3798 102.112C59.8385 102.357 60.4358 102.48 61.1718 102.48C62.1851 102.48 62.9105 102.283 63.3478 101.888C63.7958 101.493 64.0198 100.859 64.0198 99.984V99.888H65.8438V99.984C65.8438 100.837 65.6571 101.579 65.2838 102.208C64.9105 102.827 64.3825 103.307 63.6998 103.648C63.0171 103.989 62.1905 104.16 61.2198 104.16ZM74.9699 104H73.2419V99.376C73.2419 98.672 73.1033 98.1653 72.8259 97.856C72.5593 97.536 72.0633 97.376 71.3379 97.376C70.6446 97.376 70.1273 97.5307 69.7859 97.84C69.4553 98.1387 69.2899 98.6667 69.2899 99.424H68.9859L68.9699 97.376H69.3539C69.4819 97.1307 69.6579 96.896 69.8819 96.672C70.1166 96.4373 70.4099 96.2507 70.7619 96.112C71.1246 95.9627 71.5406 95.888 72.0099 95.888C72.7139 95.888 73.2793 96.0267 73.7059 96.304C74.1433 96.5707 74.4633 96.9387 74.6659 97.408C74.8686 97.8773 74.9699 98.4053 74.9699 98.992V104ZM69.2899 104H67.5619V93.28H69.2899V104ZM83.626 104H82.026V102.432L81.978 102V98.944C81.978 98.3467 81.834 97.9413 81.546 97.728C81.2687 97.5147 80.8154 97.408 80.186 97.408C79.5567 97.408 79.1034 97.52 78.826 97.744C78.5594 97.968 78.426 98.3413 78.426 98.864V99.104H76.762V98.944C76.762 98.3467 76.906 97.8187 77.194 97.36C77.4927 96.9013 77.9034 96.544 78.426 96.288C78.9594 96.0213 79.578 95.888 80.282 95.888C81.0287 95.888 81.6474 96.0267 82.138 96.304C82.6287 96.5813 82.9967 96.9653 83.242 97.456C83.498 97.936 83.626 98.5067 83.626 99.168V104ZM79.066 104.16C78.3514 104.16 77.7487 103.979 77.258 103.616C76.778 103.243 76.538 102.715 76.538 102.032C76.538 101.584 76.6394 101.211 76.842 100.912C77.0554 100.613 77.3594 100.368 77.754 100.176C78.1487 99.984 78.6287 99.8507 79.194 99.776L82.138 99.36V100.576L79.45 100.976C78.9914 101.04 78.6714 101.136 78.49 101.264C78.3087 101.392 78.218 101.605 78.218 101.904C78.218 102.213 78.3247 102.437 78.538 102.576C78.762 102.715 79.1247 102.784 79.626 102.784C80.01 102.784 80.378 102.725 80.73 102.608C81.0927 102.48 81.3914 102.272 81.626 101.984C81.8607 101.685 81.978 101.269 81.978 100.736L82.202 102.768L81.946 102.752C81.7967 102.997 81.5887 103.227 81.322 103.44C81.066 103.653 80.7514 103.829 80.378 103.968C80.0047 104.096 79.5674 104.16 79.066 104.16ZM92.9387 104H91.2107V99.376C91.2107 98.672 91.0773 98.1653 90.8107 97.856C90.544 97.536 90.0427 97.376 89.3067 97.376C88.8373 97.376 88.4533 97.4453 88.1547 97.584C87.856 97.712 87.632 97.9253 87.4827 98.224C87.3333 98.512 87.2587 98.9067 87.2587 99.408H86.9547L86.8107 97.536H87.1947C87.312 97.248 87.488 96.9813 87.7227 96.736C87.9573 96.4907 88.256 96.288 88.6187 96.128C88.992 95.968 89.4347 95.888 89.9467 95.888C90.64 95.888 91.2053 96.0213 91.6427 96.288C92.08 96.5547 92.4053 96.9227 92.6187 97.392C92.832 97.8613 92.9387 98.4 92.9387 99.008V104ZM87.2587 104H85.5307V96.048H87.1147V98.432L87.2587 98.512V104ZM98.1403 104.16C96.9776 104.16 96.0976 103.931 95.5003 103.472C94.903 103.003 94.6043 102.283 94.6043 101.312V101.28H96.2683V101.568C96.2683 101.845 96.3216 102.075 96.4283 102.256C96.5456 102.427 96.7376 102.555 97.0043 102.64C97.2816 102.715 97.671 102.752 98.1723 102.752C98.599 102.752 98.919 102.72 99.1323 102.656C99.3563 102.581 99.5056 102.48 99.5803 102.352C99.655 102.224 99.6923 102.064 99.6923 101.872C99.6923 101.552 99.5803 101.328 99.3563 101.2C99.1323 101.061 98.7323 100.939 98.1563 100.832L96.9083 100.624C96.439 100.528 96.0283 100.395 95.6763 100.224C95.335 100.043 95.0683 99.7973 94.8763 99.488C94.695 99.168 94.6043 98.768 94.6043 98.288C94.6043 97.5733 94.887 96.9973 95.4523 96.56C96.0176 96.112 96.8176 95.888 97.8523 95.888C98.4816 95.888 99.0416 95.9893 99.5323 96.192C100.023 96.3947 100.412 96.6987 100.7 97.104C100.988 97.5093 101.132 98.016 101.132 98.624V98.768H99.4843V98.576C99.4843 98.32 99.4416 98.1013 99.3563 97.92C99.271 97.728 99.111 97.5787 98.8763 97.472C98.6416 97.3653 98.2843 97.312 97.8043 97.312C97.175 97.312 96.759 97.392 96.5563 97.552C96.3536 97.712 96.2523 97.9467 96.2523 98.256C96.2523 98.5653 96.343 98.784 96.5243 98.912C96.7163 99.0293 97.0896 99.1467 97.6443 99.264L99.0043 99.52C99.5163 99.616 99.943 99.76 100.284 99.952C100.626 100.144 100.882 100.395 101.052 100.704C101.234 101.013 101.324 101.381 101.324 101.808C101.324 102.555 101.042 103.136 100.476 103.552C99.9216 103.957 99.143 104.16 98.1403 104.16Z" fill="black"/>
<path d="M80 4.22795e-05C124.183 4.03482e-05 160 35.8172 160 80C160 124.183 124.183 160 80 160C35.8172 160 -1.56562e-06 124.183 -3.49691e-06 80C-5.4282e-06 35.8173 35.8172 4.42107e-05 80 4.22795e-05ZM80 148.8C117.997 148.8 148.8 117.997 148.8 80C148.8 42.0028 117.997 11.2 80 11.2C42.0028 11.2 11.2 42.0028 11.2 80C11.2 117.997 42.0028 148.8 80 148.8Z" fill="#DFF0D8"/>
<path d="M80 4.22795e-05C100.782 4.1371e-05 120.749 8.08733 135.673 22.5499C150.597 37.0125 159.308 56.7152 159.961 77.4872C160.613 98.2591 153.157 118.47 139.17 133.841C125.184 149.212 105.764 158.537 85.0232 159.842L84.32 148.664C102.157 147.542 118.858 139.522 130.887 126.303C142.915 113.084 149.327 95.7028 148.766 77.839C148.205 59.9751 140.714 43.0308 127.879 30.5929C115.044 18.1551 97.8727 11.2 80 11.2L80 4.22795e-05Z" fill="#0C3A25"/>
</svg>
