<svg width="160" height="160" viewBox="0 0 160 160" fill="none" xmlns="http://www.w3.org/2000/svg">
<path d="M65.4614 79H60.6614V74.936H48.5654V71.576L59.8934 57.56H65.4614V70.616H68.5334V74.936H65.4614V79ZM54.6134 70.616H60.6614V63.384H60.3734L54.6134 70.296V70.616ZM79.5554 79.32C74.4994 79.32 71.4274 76.632 71.4274 72.504V72.312H76.5154V72.504C76.5154 74.104 77.5074 74.744 79.8754 74.744C83.0114 74.744 83.7154 73.496 83.7154 70.168V68.312H83.5554C82.5954 69.72 80.8994 70.808 77.6994 70.808C73.0274 70.808 70.6274 68.376 70.6274 64.312C70.6274 59.992 73.6354 57.24 79.3634 57.24C86.2114 57.24 88.6754 60.76 88.6754 68.376C88.6754 75.672 85.6354 79.32 79.5554 79.32ZM79.3314 66.936C82.3394 66.936 83.2994 66.232 83.2994 64.408C83.2994 62.552 82.3394 61.848 79.3314 61.848C76.2594 61.848 75.3314 62.552 75.3314 64.408C75.3314 66.232 76.2594 66.936 79.3314 66.936ZM96.1409 67.864C92.6849 67.864 90.5089 65.848 90.5089 62.552C90.5089 59.256 92.6849 57.24 96.1409 57.24C99.5649 57.24 101.741 59.256 101.741 62.552C101.741 65.848 99.5649 67.864 96.1409 67.864ZM97.0689 79H92.6849L108.141 57.56H112.493L97.0689 79ZM96.1409 64.6C97.6449 64.6 98.1569 64.216 98.1569 62.552C98.1569 60.888 97.6449 60.504 96.1409 60.504C94.6369 60.504 94.1249 60.888 94.1249 62.552C94.1249 64.216 94.6369 64.6 96.1409 64.6ZM109.069 79.32C105.613 79.32 103.437 77.304 103.437 74.008C103.437 70.712 105.613 68.696 109.069 68.696C112.525 68.696 114.669 70.712 114.669 74.008C114.669 77.304 112.525 79.32 109.069 79.32ZM109.069 76.056C110.573 76.056 111.085 75.672 111.085 74.008C111.085 72.344 110.573 71.96 109.069 71.96C107.565 71.96 107.053 72.344 107.053 74.008C107.053 75.672 107.565 76.056 109.069 76.056Z" fill="black"/>
<path d="M26.8115 104.16C25.6809 104.16 24.8115 103.787 24.2035 103.04C23.6062 102.283 23.3075 101.275 23.3075 100.016C23.3075 98.7573 23.6009 97.7547 24.1875 97.008C24.7849 96.2613 25.6275 95.888 26.7155 95.888C27.4195 95.888 27.9849 96.032 28.4115 96.32C28.8489 96.5973 29.1529 96.9173 29.3235 97.28H29.7555L29.6755 99.312H29.3715C29.3715 98.864 29.2862 98.496 29.1155 98.208C28.9449 97.92 28.6995 97.7067 28.3795 97.568C28.0595 97.4293 27.6649 97.36 27.1955 97.36C26.8115 97.36 26.4809 97.408 26.2035 97.504C25.9369 97.6 25.7129 97.7493 25.5315 97.952C25.3609 98.1547 25.2329 98.4267 25.1475 98.768C25.0729 99.1093 25.0355 99.5253 25.0355 100.016C25.0355 100.496 25.0729 100.912 25.1475 101.264C25.2329 101.605 25.3609 101.883 25.5315 102.096C25.7129 102.299 25.9422 102.448 26.2195 102.544C26.4969 102.64 26.8222 102.688 27.1955 102.688C27.6649 102.688 28.0595 102.619 28.3795 102.48C28.6995 102.331 28.9449 102.112 29.1155 101.824C29.2862 101.536 29.3715 101.173 29.3715 100.736H29.6755L29.7555 102.688H29.4355C29.2542 103.147 28.9395 103.509 28.4915 103.776C28.0542 104.032 27.4942 104.16 26.8115 104.16ZM31.0995 104H29.4995V102.112L29.3715 101.904V93.28H31.0995V104ZM36.5229 104.16C35.6589 104.16 34.9389 103.989 34.3629 103.648C33.7869 103.296 33.3602 102.811 33.0829 102.192C32.8056 101.563 32.6669 100.837 32.6669 100.016C32.6669 99.1947 32.8216 98.4747 33.1309 97.856C33.4509 97.2373 33.8989 96.7573 34.4749 96.416C35.0509 96.064 35.7336 95.888 36.5229 95.888C37.2376 95.888 37.8669 96.0267 38.4109 96.304C38.9656 96.5707 39.3922 96.96 39.6909 97.472C40.0003 97.984 40.1549 98.6027 40.1549 99.328C40.1549 99.5413 40.1442 99.7493 40.1229 99.952C40.1122 100.144 40.0962 100.304 40.0749 100.432H33.4829V99.28H38.6669L38.4909 99.44C38.5336 98.9493 38.4802 98.5493 38.3309 98.24C38.1922 97.9307 37.9629 97.7013 37.6429 97.552C37.3336 97.4027 36.9442 97.328 36.4749 97.328C35.6322 97.328 35.0562 97.5413 34.7469 97.968C34.4376 98.384 34.2829 98.96 34.2829 99.696V100.176C34.2829 100.709 34.3469 101.163 34.4749 101.536C34.6136 101.899 34.8482 102.171 35.1789 102.352C35.5096 102.533 35.9629 102.624 36.5389 102.624C37.2109 102.624 37.6856 102.517 37.9629 102.304C38.2402 102.091 38.3789 101.808 38.3789 101.456V101.328H40.0909V101.472C40.0909 102.016 39.9416 102.491 39.6429 102.896C39.3442 103.291 38.9282 103.6 38.3949 103.824C37.8722 104.048 37.2482 104.16 36.5229 104.16ZM49.4795 104.16C48.7649 104.16 48.1835 104.021 47.7355 103.744C47.2982 103.456 46.9942 103.131 46.8235 102.768H46.3915L46.4715 100.736H46.7755C46.7755 101.173 46.8555 101.536 47.0155 101.824C47.1862 102.112 47.4369 102.331 47.7675 102.48C48.0982 102.619 48.4929 102.688 48.9515 102.688C49.3249 102.688 49.6502 102.64 49.9275 102.544C50.2049 102.448 50.4289 102.299 50.5995 102.096C50.7809 101.893 50.9089 101.621 50.9835 101.28C51.0689 100.928 51.1115 100.507 51.1115 100.016C51.1115 99.5253 51.0689 99.1147 50.9835 98.784C50.9089 98.4427 50.7809 98.1653 50.5995 97.952C50.4289 97.7387 50.2049 97.5893 49.9275 97.504C49.6609 97.408 49.3355 97.36 48.9515 97.36C48.4929 97.36 48.0982 97.4347 47.7675 97.584C47.4369 97.7227 47.1862 97.936 47.0155 98.224C46.8555 98.5013 46.7755 98.864 46.7755 99.312H46.4715L46.3915 97.36H46.7115C46.9035 96.9013 47.2182 96.544 47.6555 96.288C48.1035 96.0213 48.6742 95.888 49.3675 95.888C50.4875 95.888 51.3462 96.2613 51.9435 97.008C52.5409 97.7547 52.8395 98.7573 52.8395 100.016C52.8395 101.275 52.5515 102.283 51.9755 103.04C51.3995 103.787 50.5675 104.16 49.4795 104.16ZM46.7755 106.768H45.0635V96.048H46.6315V97.936L46.7755 98.144V106.768ZM56.1993 104H54.4713V96H56.0553V98.224L56.1993 98.304V104ZM56.1993 98.816H55.7993V97.264H56.1353C56.2953 96.8907 56.5566 96.5707 56.9193 96.304C57.2926 96.0267 57.7726 95.888 58.3593 95.888C58.9246 95.888 59.3726 96.0107 59.7033 96.256C60.0446 96.5013 60.29 96.8267 60.4393 97.232C60.5886 97.6373 60.6633 98.0907 60.6633 98.592V99.12H58.9353V98.8C58.9353 98.2667 58.8446 97.8933 58.6633 97.68C58.482 97.4667 58.1406 97.36 57.6393 97.36C57.1166 97.36 56.7433 97.472 56.5193 97.696C56.306 97.9093 56.1993 98.2827 56.1993 98.816ZM65.6662 104.16C64.8555 104.16 64.1515 103.989 63.5542 103.648C62.9568 103.296 62.4982 102.811 62.1782 102.192C61.8582 101.563 61.6982 100.837 61.6982 100.016C61.6982 99.1947 61.8582 98.4747 62.1782 97.856C62.4982 97.2373 62.9568 96.7573 63.5542 96.416C64.1515 96.064 64.8555 95.888 65.6662 95.888C66.4768 95.888 67.1702 96.064 67.7462 96.416C68.3328 96.7573 68.7808 97.2373 69.0902 97.856C69.4102 98.4747 69.5702 99.1947 69.5702 100.016C69.5702 100.837 69.4102 101.563 69.0902 102.192C68.7808 102.811 68.3328 103.296 67.7462 103.648C67.1702 103.989 66.4768 104.16 65.6662 104.16ZM65.6662 102.624C66.4982 102.624 67.0795 102.416 67.4102 102C67.7408 101.573 67.9062 100.912 67.9062 100.016C67.9062 99.12 67.7408 98.464 67.4102 98.048C67.0795 97.632 66.4982 97.424 65.6662 97.424C64.8235 97.424 64.2368 97.632 63.9062 98.048C63.5755 98.464 63.4102 99.12 63.4102 100.016C63.4102 100.912 63.5755 101.573 63.9062 102C64.2368 102.416 64.8235 102.624 65.6662 102.624ZM75.4635 104.16C74.7702 104.16 74.1995 104.032 73.7515 103.776C73.3035 103.509 72.9782 103.147 72.7755 102.688H72.4555L72.5515 100.736H72.8555C72.8555 101.173 72.9355 101.536 73.0955 101.824C73.2662 102.112 73.5115 102.331 73.8315 102.48C74.1622 102.619 74.5569 102.688 75.0155 102.688C75.3995 102.688 75.7249 102.64 75.9915 102.544C76.2689 102.448 76.4982 102.299 76.6795 102.096C76.8609 101.883 76.9889 101.605 77.0635 101.264C77.1489 100.912 77.1915 100.496 77.1915 100.016C77.1915 99.5253 77.1489 99.1093 77.0635 98.768C76.9889 98.4267 76.8609 98.1547 76.6795 97.952C76.5089 97.7493 76.2849 97.6 76.0075 97.504C75.7302 97.408 75.3995 97.36 75.0155 97.36C74.5569 97.36 74.1622 97.4293 73.8315 97.568C73.5115 97.7067 73.2662 97.92 73.0955 98.208C72.9355 98.496 72.8555 98.864 72.8555 99.312H72.5515L72.4555 97.312H72.9035C73.0742 96.9493 73.3835 96.624 73.8315 96.336C74.2902 96.0373 74.8662 95.888 75.5595 95.888C76.6582 95.888 77.4902 96.2613 78.0555 97.008C78.6315 97.7547 78.9195 98.7573 78.9195 100.016C78.9195 101.275 78.6209 102.283 78.0235 103.04C77.4369 103.787 76.5835 104.16 75.4635 104.16ZM72.7115 104H71.1275V93.28H72.8555V101.904L72.7115 102.112V104ZM87.2698 104H85.6698V102.432L85.6218 102V98.944C85.6218 98.3467 85.4778 97.9413 85.1898 97.728C84.9125 97.5147 84.4591 97.408 83.8298 97.408C83.2005 97.408 82.7471 97.52 82.4698 97.744C82.2031 97.968 82.0698 98.3413 82.0698 98.864V99.104H80.4058V98.944C80.4058 98.3467 80.5498 97.8187 80.8378 97.36C81.1365 96.9013 81.5471 96.544 82.0698 96.288C82.6031 96.0213 83.2218 95.888 83.9258 95.888C84.6725 95.888 85.2911 96.0267 85.7818 96.304C86.2725 96.5813 86.6405 96.9653 86.8858 97.456C87.1418 97.936 87.2698 98.5067 87.2698 99.168V104ZM82.7098 104.16C81.9951 104.16 81.3925 103.979 80.9018 103.616C80.4218 103.243 80.1818 102.715 80.1818 102.032C80.1818 101.584 80.2831 101.211 80.4858 100.912C80.6991 100.613 81.0031 100.368 81.3978 100.176C81.7925 99.984 82.2725 99.8507 82.8378 99.776L85.7818 99.36V100.576L83.0938 100.976C82.6351 101.04 82.3151 101.136 82.1338 101.264C81.9525 101.392 81.8618 101.605 81.8618 101.904C81.8618 102.213 81.9685 102.437 82.1818 102.576C82.4058 102.715 82.7685 102.784 83.2698 102.784C83.6538 102.784 84.0218 102.725 84.3738 102.608C84.7365 102.48 85.0351 102.272 85.2698 101.984C85.5045 101.685 85.6218 101.269 85.6218 100.736L85.8458 102.768L85.5898 102.752C85.4405 102.997 85.2325 103.227 84.9658 103.44C84.7098 103.653 84.3951 103.829 84.0218 103.968C83.6485 104.096 83.2111 104.16 82.7098 104.16ZM93.5104 104.16C92.8171 104.16 92.2464 104.032 91.7984 103.776C91.3504 103.509 91.0251 103.147 90.8224 102.688H90.5024L90.5984 100.736H90.9024C90.9024 101.173 90.9824 101.536 91.1424 101.824C91.3131 102.112 91.5584 102.331 91.8784 102.48C92.2091 102.619 92.6037 102.688 93.0624 102.688C93.4464 102.688 93.7717 102.64 94.0384 102.544C94.3157 102.448 94.5451 102.299 94.7264 102.096C94.9077 101.883 95.0357 101.605 95.1104 101.264C95.1957 100.912 95.2384 100.496 95.2384 100.016C95.2384 99.5253 95.1957 99.1093 95.1104 98.768C95.0357 98.4267 94.9077 98.1547 94.7264 97.952C94.5557 97.7493 94.3317 97.6 94.0544 97.504C93.7771 97.408 93.4464 97.36 93.0624 97.36C92.6037 97.36 92.2091 97.4293 91.8784 97.568C91.5584 97.7067 91.3131 97.92 91.1424 98.208C90.9824 98.496 90.9024 98.864 90.9024 99.312H90.5984L90.5024 97.312H90.9504C91.1211 96.9493 91.4304 96.624 91.8784 96.336C92.3371 96.0373 92.9131 95.888 93.6064 95.888C94.7051 95.888 95.5371 96.2613 96.1024 97.008C96.6784 97.7547 96.9664 98.7573 96.9664 100.016C96.9664 101.275 96.6677 102.283 96.0704 103.04C95.4837 103.787 94.6304 104.16 93.5104 104.16ZM90.7584 104H89.1744V93.28H90.9024V101.904L90.7584 102.112V104ZM100.134 95.04H98.4222L98.4062 93.28H100.134V95.04ZM100.15 104H98.4222V96H100.15V104ZM103.715 104H101.987V93.28H103.715V104ZM107.275 95.04H105.563L105.547 93.28H107.275V95.04ZM107.291 104H105.563V96H107.291V104ZM112.233 104.16C111.103 104.16 110.233 103.787 109.625 103.04C109.028 102.283 108.729 101.275 108.729 100.016C108.729 98.7573 109.023 97.7547 109.609 97.008C110.207 96.2613 111.049 95.888 112.137 95.888C112.841 95.888 113.407 96.032 113.833 96.32C114.271 96.5973 114.575 96.9173 114.745 97.28H115.177L115.097 99.312H114.793C114.793 98.864 114.708 98.496 114.537 98.208C114.367 97.92 114.121 97.7067 113.801 97.568C113.481 97.4293 113.087 97.36 112.617 97.36C112.233 97.36 111.903 97.408 111.625 97.504C111.359 97.6 111.135 97.7493 110.953 97.952C110.783 98.1547 110.655 98.4267 110.569 98.768C110.495 99.1093 110.457 99.5253 110.457 100.016C110.457 100.496 110.495 100.912 110.569 101.264C110.655 101.605 110.783 101.883 110.953 102.096C111.135 102.299 111.364 102.448 111.641 102.544C111.919 102.64 112.244 102.688 112.617 102.688C113.087 102.688 113.481 102.619 113.801 102.48C114.121 102.331 114.367 102.112 114.537 101.824C114.708 101.536 114.793 101.173 114.793 100.736H115.097L115.177 102.688H114.857C114.676 103.147 114.361 103.509 113.913 103.776C113.476 104.032 112.916 104.16 112.233 104.16ZM116.521 104H114.921V102.112L114.793 101.904V93.28H116.521V104ZM125.129 104H123.529V102.432L123.481 102V98.944C123.481 98.3467 123.337 97.9413 123.049 97.728C122.772 97.5147 122.318 97.408 121.689 97.408C121.06 97.408 120.606 97.52 120.329 97.744C120.062 97.968 119.929 98.3413 119.929 98.864V99.104H118.265V98.944C118.265 98.3467 118.409 97.8187 118.697 97.36C118.996 96.9013 119.406 96.544 119.929 96.288C120.462 96.0213 121.081 95.888 121.785 95.888C122.532 95.888 123.15 96.0267 123.641 96.304C124.132 96.5813 124.5 96.9653 124.745 97.456C125.001 97.936 125.129 98.5067 125.129 99.168V104ZM120.569 104.16C119.854 104.16 119.252 103.979 118.761 103.616C118.281 103.243 118.041 102.715 118.041 102.032C118.041 101.584 118.142 101.211 118.345 100.912C118.558 100.613 118.862 100.368 119.257 100.176C119.652 99.984 120.132 99.8507 120.697 99.776L123.641 99.36V100.576L120.953 100.976C120.494 101.04 120.174 101.136 119.993 101.264C119.812 101.392 119.721 101.605 119.721 101.904C119.721 102.213 119.828 102.437 120.041 102.576C120.265 102.715 120.628 102.784 121.129 102.784C121.513 102.784 121.881 102.725 122.233 102.608C122.596 102.48 122.894 102.272 123.129 101.984C123.364 101.685 123.481 101.269 123.481 100.736L123.705 102.768L123.449 102.752C123.3 102.997 123.092 103.227 122.825 103.44C122.569 103.653 122.254 103.829 121.881 103.968C121.508 104.096 121.07 104.16 120.569 104.16ZM130.187 104.16C129.056 104.16 128.187 103.787 127.579 103.04C126.981 102.283 126.683 101.275 126.683 100.016C126.683 98.7573 126.976 97.7547 127.563 97.008C128.16 96.2613 129.003 95.888 130.091 95.888C130.795 95.888 131.36 96.032 131.787 96.32C132.224 96.5973 132.528 96.9173 132.699 97.28H133.131L133.051 99.312H132.747C132.747 98.864 132.661 98.496 132.491 98.208C132.32 97.92 132.075 97.7067 131.755 97.568C131.435 97.4293 131.04 97.36 130.571 97.36C130.187 97.36 129.856 97.408 129.579 97.504C129.312 97.6 129.088 97.7493 128.907 97.952C128.736 98.1547 128.608 98.4267 128.523 98.768C128.448 99.1093 128.411 99.5253 128.411 100.016C128.411 100.496 128.448 100.912 128.523 101.264C128.608 101.605 128.736 101.883 128.907 102.096C129.088 102.299 129.317 102.448 129.595 102.544C129.872 102.64 130.197 102.688 130.571 102.688C131.04 102.688 131.435 102.619 131.755 102.48C132.075 102.331 132.32 102.112 132.491 101.824C132.661 101.536 132.747 101.173 132.747 100.736H133.051L133.131 102.688H132.811C132.629 103.147 132.315 103.509 131.867 103.776C131.429 104.032 130.869 104.16 130.187 104.16ZM134.475 104H132.875V102.112L132.747 101.904V93.28H134.475V104Z" fill="black"/>
<path d="M80 4.22795e-05C124.183 4.03482e-05 160 35.8172 160 80C160 124.183 124.183 160 80 160C35.8172 160 -1.56562e-06 124.183 -3.49691e-06 80C-5.4282e-06 35.8173 35.8172 4.42107e-05 80 4.22795e-05ZM80 148.8C117.997 148.8 148.8 117.997 148.8 80C148.8 42.0028 117.997 11.2 80 11.2C42.0028 11.2 11.2 42.0028 11.2 80C11.2 117.997 42.0028 148.8 80 148.8Z" fill="#DFF0D8"/>
<path d="M80 4.22795e-05C100.782 4.1371e-05 120.749 8.08733 135.673 22.5499C150.597 37.0125 159.308 56.7152 159.961 77.4872C160.613 98.2591 153.157 118.47 139.17 133.841C125.184 149.212 105.764 158.537 85.0232 159.842L84.32 148.664C102.157 147.542 118.858 139.522 130.887 126.303C142.915 113.084 149.327 95.7028 148.766 77.839C148.205 59.9751 140.714 43.0308 127.879 30.5929C115.044 18.1551 97.8727 11.2 80 11.2L80 4.22795e-05Z" fill="#0C3A25"/>
</svg>
