<svg width="453" height="160" viewBox="0 0 453 160" fill="none" xmlns="http://www.w3.org/2000/svg">
<path d="M205.432 81.32C199.64 81.32 196.76 78.824 196.76 74.856V74.6H201.528V74.856C201.528 76.424 202.808 76.936 205.656 76.936C208.696 76.936 209.752 76.136 209.752 73.96C209.752 71.72 208.6 70.952 205.592 70.952C203.448 70.952 201.88 71.624 201.176 72.04L196.92 71.464L197.56 59.56H213.304V63.88H201.816L201.464 68.552H201.592C202.424 67.784 204.28 66.888 207.192 66.888C211.928 66.888 214.456 69.544 214.456 73.8C214.456 78.184 211.928 81.32 205.432 81.32ZM234.371 81H217.603V78.12C217.603 73.96 220.419 72.232 223.395 70.792L227.107 69.032C228.995 68.136 229.667 67.432 229.667 66.024C229.667 64.488 228.963 63.624 226.115 63.624C223.011 63.624 222.371 64.488 222.371 66.792V67.336H217.571V66.824C217.571 62.664 220.131 59.24 226.499 59.24C232.163 59.24 234.435 62.12 234.435 65.992C234.435 69.704 231.811 71.592 229.027 72.84L225.795 74.248C224.035 75.048 222.723 75.72 222.723 76.744L226.179 76.68H234.371V81ZM242.646 69.864C239.19 69.864 237.014 67.848 237.014 64.552C237.014 61.256 239.19 59.24 242.646 59.24C246.07 59.24 248.246 61.256 248.246 64.552C248.246 67.848 246.07 69.864 242.646 69.864ZM243.574 81H239.19L254.646 59.56H258.998L243.574 81ZM242.646 66.6C244.15 66.6 244.661 66.216 244.661 64.552C244.661 62.888 244.15 62.504 242.646 62.504C241.141 62.504 240.63 62.888 240.63 64.552C240.63 66.216 241.141 66.6 242.646 66.6ZM255.574 81.32C252.118 81.32 249.942 79.304 249.942 76.008C249.942 72.712 252.118 70.696 255.574 70.696C259.03 70.696 261.174 72.712 261.174 76.008C261.174 79.304 259.03 81.32 255.574 81.32ZM255.574 78.056C257.078 78.056 257.59 77.672 257.59 76.008C257.59 74.344 257.078 73.96 255.574 73.96C254.069 73.96 253.558 74.344 253.558 76.008C253.558 77.672 254.069 78.056 255.574 78.056Z" fill="black"/>
<path d="M204.909 105.16C203.874 105.16 202.978 104.936 202.221 104.488C201.474 104.029 200.898 103.389 200.493 102.568C200.098 101.736 199.901 100.76 199.901 99.64C199.901 98.52 200.098 97.5493 200.493 96.728C200.898 95.896 201.474 95.256 202.221 94.808C202.978 94.3493 203.874 94.12 204.909 94.12C205.88 94.12 206.706 94.2907 207.389 94.632C208.072 94.9733 208.6 95.4533 208.973 96.072C209.346 96.6907 209.533 97.432 209.533 98.296V98.392H207.709V98.296C207.709 97.4213 207.485 96.7867 207.037 96.392C206.6 95.9867 205.874 95.784 204.861 95.784C204.125 95.784 203.528 95.912 203.069 96.168C202.61 96.424 202.274 96.8347 202.061 97.4C201.848 97.9653 201.741 98.712 201.741 99.64C201.741 100.557 201.848 101.304 202.061 101.88C202.274 102.445 202.61 102.856 203.069 103.112C203.528 103.357 204.125 103.48 204.861 103.48C205.874 103.48 206.6 103.283 207.037 102.888C207.485 102.493 207.709 101.859 207.709 100.984V100.888H209.533V100.984C209.533 101.837 209.346 102.579 208.973 103.208C208.6 103.827 208.072 104.307 207.389 104.648C206.706 104.989 205.88 105.16 204.909 105.16ZM218.659 105H216.931V100.376C216.931 99.672 216.792 99.1653 216.515 98.856C216.248 98.536 215.752 98.376 215.027 98.376C214.334 98.376 213.816 98.5307 213.475 98.84C213.144 99.1387 212.979 99.6667 212.979 100.424H212.675L212.659 98.376H213.043C213.171 98.1307 213.347 97.896 213.571 97.672C213.806 97.4373 214.099 97.2507 214.451 97.112C214.814 96.9627 215.23 96.888 215.699 96.888C216.403 96.888 216.968 97.0267 217.395 97.304C217.832 97.5707 218.152 97.9387 218.355 98.408C218.558 98.8773 218.659 99.4053 218.659 99.992V105ZM212.979 105H211.251V94.28H212.979V105ZM227.315 105H225.715V103.432L225.667 103V99.944C225.667 99.3467 225.523 98.9413 225.235 98.728C224.958 98.5147 224.505 98.408 223.875 98.408C223.246 98.408 222.793 98.52 222.515 98.744C222.249 98.968 222.115 99.3413 222.115 99.864V100.104H220.451V99.944C220.451 99.3467 220.595 98.8187 220.883 98.36C221.182 97.9013 221.593 97.544 222.115 97.288C222.649 97.0213 223.267 96.888 223.971 96.888C224.718 96.888 225.337 97.0267 225.827 97.304C226.318 97.5813 226.686 97.9653 226.931 98.456C227.187 98.936 227.315 99.5067 227.315 100.168V105ZM222.755 105.16C222.041 105.16 221.438 104.979 220.947 104.616C220.467 104.243 220.227 103.715 220.227 103.032C220.227 102.584 220.329 102.211 220.531 101.912C220.745 101.613 221.049 101.368 221.443 101.176C221.838 100.984 222.318 100.851 222.883 100.776L225.827 100.36V101.576L223.139 101.976C222.681 102.04 222.361 102.136 222.179 102.264C221.998 102.392 221.907 102.605 221.907 102.904C221.907 103.213 222.014 103.437 222.227 103.576C222.451 103.715 222.814 103.784 223.315 103.784C223.699 103.784 224.067 103.725 224.419 103.608C224.782 103.48 225.081 103.272 225.315 102.984C225.55 102.685 225.667 102.269 225.667 101.736L225.891 103.768L225.635 103.752C225.486 103.997 225.278 104.227 225.011 104.44C224.755 104.653 224.441 104.829 224.067 104.968C223.694 105.096 223.257 105.16 222.755 105.16ZM236.628 105H234.9V100.376C234.9 99.672 234.767 99.1653 234.5 98.856C234.233 98.536 233.732 98.376 232.996 98.376C232.527 98.376 232.143 98.4453 231.844 98.584C231.545 98.712 231.321 98.9253 231.172 99.224C231.023 99.512 230.948 99.9067 230.948 100.408H230.644L230.5 98.536H230.884C231.001 98.248 231.177 97.9813 231.412 97.736C231.647 97.4907 231.945 97.288 232.308 97.128C232.681 96.968 233.124 96.888 233.636 96.888C234.329 96.888 234.895 97.0213 235.332 97.288C235.769 97.5547 236.095 97.9227 236.308 98.392C236.521 98.8613 236.628 99.4 236.628 100.008V105ZM230.948 105H229.22V97.048H230.804V99.432L230.948 99.512V105ZM242.069 105.176C241.237 105.176 240.533 105 239.957 104.648C239.381 104.296 238.938 103.811 238.629 103.192C238.33 102.573 238.181 101.853 238.181 101.032C238.181 100.211 238.336 99.4907 238.645 98.872C238.965 98.2427 239.418 97.7573 240.005 97.416C240.592 97.064 241.301 96.888 242.133 96.888C242.837 96.888 243.456 97.0213 243.989 97.288C244.522 97.5547 244.933 97.928 245.221 98.408C245.52 98.888 245.669 99.448 245.669 100.088V100.232H243.957V100.136C243.957 99.5493 243.797 99.1227 243.477 98.856C243.168 98.5787 242.682 98.44 242.021 98.44C241.253 98.44 240.704 98.6587 240.373 99.096C240.053 99.5227 239.893 100.163 239.893 101.016C239.893 101.88 240.053 102.531 240.373 102.968C240.704 103.395 241.253 103.608 242.021 103.608C242.682 103.608 243.168 103.475 243.477 103.208C243.797 102.931 243.957 102.504 243.957 101.928V101.832H245.669V101.976C245.669 102.595 245.52 103.149 245.221 103.64C244.922 104.12 244.501 104.499 243.957 104.776C243.424 105.043 242.794 105.176 242.069 105.176ZM250.834 105.16C249.97 105.16 249.25 104.989 248.674 104.648C248.098 104.296 247.671 103.811 247.394 103.192C247.117 102.563 246.978 101.837 246.978 101.016C246.978 100.195 247.133 99.4747 247.442 98.856C247.762 98.2373 248.21 97.7573 248.786 97.416C249.362 97.064 250.045 96.888 250.834 96.888C251.549 96.888 252.178 97.0267 252.722 97.304C253.277 97.5707 253.703 97.96 254.002 98.472C254.311 98.984 254.466 99.6027 254.466 100.328C254.466 100.541 254.455 100.749 254.434 100.952C254.423 101.144 254.407 101.304 254.386 101.432H247.794V100.28H252.978L252.802 100.44C252.845 99.9493 252.791 99.5493 252.642 99.24C252.503 98.9307 252.274 98.7013 251.954 98.552C251.645 98.4027 251.255 98.328 250.786 98.328C249.943 98.328 249.367 98.5413 249.058 98.968C248.749 99.384 248.594 99.96 248.594 100.696V101.176C248.594 101.709 248.658 102.163 248.786 102.536C248.925 102.899 249.159 103.171 249.49 103.352C249.821 103.533 250.274 103.624 250.85 103.624C251.522 103.624 251.997 103.517 252.274 103.304C252.551 103.091 252.69 102.808 252.69 102.456V102.328H254.402V102.472C254.402 103.016 254.253 103.491 253.954 103.896C253.655 104.291 253.239 104.6 252.706 104.824C252.183 105.048 251.559 105.16 250.834 105.16Z" fill="black"/>
<path d="M227.755 4.22795e-05C271.938 4.03482e-05 307.755 35.8172 307.755 80C307.755 124.183 271.938 160 227.755 160C183.572 160 147.755 124.183 147.755 80C147.755 35.8173 183.572 4.42107e-05 227.755 4.22795e-05ZM227.755 148.8C265.752 148.8 296.555 117.997 296.555 80C296.555 42.0028 265.752 11.2 227.755 11.2C189.758 11.2 158.955 42.0028 158.955 80C158.955 117.997 189.758 148.8 227.755 148.8Z" fill="#DFF0D8"/>
<path d="M227.755 4.22795e-05C238.684 4.18017e-05 249.497 2.2393 259.527 6.57967C269.557 10.92 278.591 17.2695 286.072 25.2363C293.554 33.2031 299.323 42.6182 303.025 52.901C306.727 63.1837 308.283 74.116 307.597 85.0233C306.911 95.9305 303.997 106.582 299.035 116.319C294.074 126.057 287.17 134.675 278.749 141.641C270.328 148.607 260.569 153.774 250.074 156.823C239.579 159.873 228.571 160.739 217.728 159.369L219.132 148.257C228.457 149.435 237.924 148.69 246.949 146.068C255.975 143.446 264.368 139.002 271.61 133.011C278.852 127.02 284.789 119.609 289.056 111.235C293.323 102.86 295.829 93.7003 296.419 84.32C297.009 74.9397 295.671 65.538 292.487 56.6949C289.304 47.8517 284.342 39.7546 277.908 32.9032C271.474 26.0517 263.704 20.5912 255.079 16.8585C246.453 13.1258 237.154 11.2 227.755 11.2L227.755 4.22795e-05Z" fill="#0C3A25"/>
<path d="M0.666667 81C0.666667 83.9455 3.05448 86.3333 6 86.3333C8.94552 86.3333 11.3333 83.9455 11.3333 81C11.3333 78.0545 8.94552 75.6667 6 75.6667C3.05448 75.6667 0.666667 78.0545 0.666667 81ZM6 82H137V80H6V82Z" fill="#B3B3B3"/>
<path d="M441.667 80.041C441.689 82.9864 444.095 85.3559 447.041 85.3334C449.986 85.3109 452.356 82.905 452.333 79.9595C452.311 77.0141 449.905 74.6446 446.959 74.6671C444.014 74.6896 441.644 77.0955 441.667 80.041ZM316.008 82.0002L447.008 81.0002L446.992 79.0003L315.992 80.0003L316.008 82.0002Z" fill="#B3B3B3"/>
</svg>
