<svg width="453" height="160" viewBox="0 0 453 160" fill="none" xmlns="http://www.w3.org/2000/svg">
<path d="M205.432 81.32C199.64 81.32 196.76 78.824 196.76 74.856V74.6H201.528V74.856C201.528 76.424 202.808 76.936 205.656 76.936C208.696 76.936 209.752 76.136 209.752 73.96C209.752 71.72 208.6 70.952 205.592 70.952C203.448 70.952 201.88 71.624 201.176 72.04L196.92 71.464L197.56 59.56H213.304V63.88H201.816L201.464 68.552H201.592C202.424 67.784 204.28 66.888 207.192 66.888C211.928 66.888 214.456 69.544 214.456 73.8C214.456 78.184 211.928 81.32 205.432 81.32ZM234.371 81H217.603V78.12C217.603 73.96 220.419 72.232 223.395 70.792L227.107 69.032C228.995 68.136 229.667 67.432 229.667 66.024C229.667 64.488 228.963 63.624 226.115 63.624C223.011 63.624 222.371 64.488 222.371 66.792V67.336H217.571V66.824C217.571 62.664 220.131 59.24 226.499 59.24C232.163 59.24 234.435 62.12 234.435 65.992C234.435 69.704 231.811 71.592 229.027 72.84L225.795 74.248C224.035 75.048 222.723 75.72 222.723 76.744L226.179 76.68H234.371V81ZM242.646 69.864C239.19 69.864 237.014 67.848 237.014 64.552C237.014 61.256 239.19 59.24 242.646 59.24C246.07 59.24 248.246 61.256 248.246 64.552C248.246 67.848 246.07 69.864 242.646 69.864ZM243.574 81H239.19L254.646 59.56H258.998L243.574 81ZM242.646 66.6C244.15 66.6 244.661 66.216 244.661 64.552C244.661 62.888 244.15 62.504 242.646 62.504C241.141 62.504 240.63 62.888 240.63 64.552C240.63 66.216 241.141 66.6 242.646 66.6ZM255.574 81.32C252.118 81.32 249.942 79.304 249.942 76.008C249.942 72.712 252.118 70.696 255.574 70.696C259.03 70.696 261.174 72.712 261.174 76.008C261.174 79.304 259.03 81.32 255.574 81.32ZM255.574 78.056C257.078 78.056 257.59 77.672 257.59 76.008C257.59 74.344 257.078 73.96 255.574 73.96C254.069 73.96 253.558 74.344 253.558 76.008C253.558 77.672 254.069 78.056 255.574 78.056Z" fill="black"/>
<path d="M209.667 105.16C208.632 105.16 207.736 104.936 206.979 104.488C206.232 104.029 205.656 103.389 205.251 102.568C204.856 101.736 204.659 100.76 204.659 99.64C204.659 98.52 204.856 97.5493 205.251 96.728C205.656 95.896 206.232 95.256 206.979 94.808C207.736 94.3493 208.632 94.12 209.667 94.12C210.637 94.12 211.464 94.2907 212.147 94.632C212.829 94.9733 213.357 95.4533 213.731 96.072C214.104 96.6907 214.291 97.432 214.291 98.296V98.392H212.467V98.296C212.467 97.4213 212.243 96.7867 211.795 96.392C211.357 95.9867 210.632 95.784 209.619 95.784C208.883 95.784 208.285 95.912 207.827 96.168C207.368 96.424 207.032 96.8347 206.819 97.4C206.605 97.9653 206.499 98.712 206.499 99.64C206.499 100.557 206.605 101.304 206.819 101.88C207.032 102.445 207.368 102.856 207.827 103.112C208.285 103.357 208.883 103.48 209.619 103.48C210.632 103.48 211.357 103.283 211.795 102.888C212.243 102.493 212.467 101.859 212.467 100.984V100.888H214.291V100.984C214.291 101.837 214.104 102.579 213.731 103.208C213.357 103.827 212.829 104.307 212.147 104.648C211.464 104.989 210.637 105.16 209.667 105.16ZM223.417 105H221.689V100.376C221.689 99.672 221.55 99.1653 221.273 98.856C221.006 98.536 220.51 98.376 219.785 98.376C219.092 98.376 218.574 98.5307 218.233 98.84C217.902 99.1387 217.737 99.6667 217.737 100.424H217.433L217.417 98.376H217.801C217.929 98.1307 218.105 97.896 218.329 97.672C218.564 97.4373 218.857 97.2507 219.209 97.112C219.572 96.9627 219.988 96.888 220.457 96.888C221.161 96.888 221.726 97.0267 222.153 97.304C222.59 97.5707 222.91 97.9387 223.113 98.408C223.316 98.8773 223.417 99.4053 223.417 99.992V105ZM217.737 105H216.009V94.28H217.737V105ZM232.073 105H230.473V103.432L230.425 103V99.944C230.425 99.3467 230.281 98.9413 229.993 98.728C229.716 98.5147 229.262 98.408 228.633 98.408C228.004 98.408 227.55 98.52 227.273 98.744C227.006 98.968 226.873 99.3413 226.873 99.864V100.104H225.209V99.944C225.209 99.3467 225.353 98.8187 225.641 98.36C225.94 97.9013 226.35 97.544 226.873 97.288C227.406 97.0213 228.025 96.888 228.729 96.888C229.476 96.888 230.094 97.0267 230.585 97.304C231.076 97.5813 231.444 97.9653 231.689 98.456C231.945 98.936 232.073 99.5067 232.073 100.168V105ZM227.513 105.16C226.798 105.16 226.196 104.979 225.705 104.616C225.225 104.243 224.985 103.715 224.985 103.032C224.985 102.584 225.086 102.211 225.289 101.912C225.502 101.613 225.806 101.368 226.201 101.176C226.596 100.984 227.076 100.851 227.641 100.776L230.585 100.36V101.576L227.897 101.976C227.438 102.04 227.118 102.136 226.937 102.264C226.756 102.392 226.665 102.605 226.665 102.904C226.665 103.213 226.772 103.437 226.985 103.576C227.209 103.715 227.572 103.784 228.073 103.784C228.457 103.784 228.825 103.725 229.177 103.608C229.54 103.48 229.838 103.272 230.073 102.984C230.308 102.685 230.425 102.269 230.425 101.736L230.649 103.768L230.393 103.752C230.244 103.997 230.036 104.227 229.769 104.44C229.513 104.653 229.198 104.829 228.825 104.968C228.452 105.096 228.014 105.16 227.513 105.16ZM241.386 105H239.658V100.376C239.658 99.672 239.524 99.1653 239.258 98.856C238.991 98.536 238.49 98.376 237.754 98.376C237.284 98.376 236.9 98.4453 236.602 98.584C236.303 98.712 236.079 98.9253 235.93 99.224C235.78 99.512 235.706 99.9067 235.706 100.408H235.402L235.258 98.536H235.642C235.759 98.248 235.935 97.9813 236.17 97.736C236.404 97.4907 236.703 97.288 237.066 97.128C237.439 96.968 237.882 96.888 238.394 96.888C239.087 96.888 239.652 97.0213 240.09 97.288C240.527 97.5547 240.852 97.9227 241.066 98.392C241.279 98.8613 241.386 99.4 241.386 100.008V105ZM235.706 105H233.978V97.048H235.562V99.432L235.706 99.512V105ZM246.587 105.16C245.425 105.16 244.545 104.931 243.947 104.472C243.35 104.003 243.051 103.283 243.051 102.312V102.28H244.715V102.568C244.715 102.845 244.769 103.075 244.875 103.256C244.993 103.427 245.185 103.555 245.451 103.64C245.729 103.715 246.118 103.752 246.619 103.752C247.046 103.752 247.366 103.72 247.579 103.656C247.803 103.581 247.953 103.48 248.027 103.352C248.102 103.224 248.139 103.064 248.139 102.872C248.139 102.552 248.027 102.328 247.803 102.2C247.579 102.061 247.179 101.939 246.603 101.832L245.355 101.624C244.886 101.528 244.475 101.395 244.123 101.224C243.782 101.043 243.515 100.797 243.323 100.488C243.142 100.168 243.051 99.768 243.051 99.288C243.051 98.5733 243.334 97.9973 243.899 97.56C244.465 97.112 245.265 96.888 246.299 96.888C246.929 96.888 247.489 96.9893 247.979 97.192C248.47 97.3947 248.859 97.6987 249.147 98.104C249.435 98.5093 249.579 99.016 249.579 99.624V99.768H247.931V99.576C247.931 99.32 247.889 99.1013 247.803 98.92C247.718 98.728 247.558 98.5787 247.323 98.472C247.089 98.3653 246.731 98.312 246.251 98.312C245.622 98.312 245.206 98.392 245.003 98.552C244.801 98.712 244.699 98.9467 244.699 99.256C244.699 99.5653 244.79 99.784 244.971 99.912C245.163 100.029 245.537 100.147 246.091 100.264L247.451 100.52C247.963 100.616 248.39 100.76 248.731 100.952C249.073 101.144 249.329 101.395 249.499 101.704C249.681 102.013 249.771 102.381 249.771 102.808C249.771 103.555 249.489 104.136 248.923 104.552C248.369 104.957 247.59 105.16 246.587 105.16Z" fill="black"/>
<path d="M227.755 4.22795e-05C271.938 4.03482e-05 307.755 35.8172 307.755 80C307.755 124.183 271.938 160 227.755 160C183.572 160 147.755 124.183 147.755 80C147.755 35.8173 183.572 4.42107e-05 227.755 4.22795e-05ZM227.755 148.8C265.752 148.8 296.555 117.997 296.555 80C296.555 42.0028 265.752 11.2 227.755 11.2C189.758 11.2 158.955 42.0028 158.955 80C158.955 117.997 189.758 148.8 227.755 148.8Z" fill="#DFF0D8"/>
<path d="M227.755 4.22795e-05C238.684 4.18017e-05 249.497 2.2393 259.527 6.57967C269.557 10.92 278.591 17.2695 286.072 25.2363C293.554 33.2031 299.323 42.6182 303.025 52.901C306.727 63.1837 308.283 74.116 307.597 85.0233C306.911 95.9305 303.997 106.582 299.035 116.319C294.074 126.057 287.17 134.675 278.749 141.641C270.328 148.607 260.569 153.774 250.074 156.823C239.579 159.873 228.571 160.739 217.728 159.369L219.132 148.257C228.457 149.435 237.924 148.69 246.949 146.068C255.975 143.446 264.368 139.002 271.61 133.011C278.852 127.02 284.789 119.609 289.056 111.235C293.323 102.86 295.829 93.7003 296.419 84.32C297.009 74.9397 295.671 65.538 292.487 56.6949C289.304 47.8517 284.342 39.7546 277.908 32.9032C271.474 26.0517 263.704 20.5912 255.079 16.8585C246.453 13.1258 237.154 11.2 227.755 11.2L227.755 4.22795e-05Z" fill="#0C3A25"/>
<path d="M0.666667 81C0.666667 83.9455 3.05448 86.3333 6 86.3333C8.94552 86.3333 11.3333 83.9455 11.3333 81C11.3333 78.0545 8.94552 75.6667 6 75.6667C3.05448 75.6667 0.666667 78.0545 0.666667 81ZM6 82H137V80H6V82Z" fill="#B3B3B3"/>
<path d="M441.667 80.041C441.689 82.9864 444.095 85.3559 447.041 85.3334C449.986 85.3109 452.356 82.905 452.333 79.9595C452.311 77.0141 449.905 74.6446 446.959 74.6671C444.014 74.6896 441.644 77.0955 441.667 80.041ZM316.008 82.0002L447.008 81.0002L446.992 79.0003L315.992 80.0003L316.008 82.0002Z" fill="#B3B3B3"/>
</svg>
