<svg width="52" height="52" viewBox="0 0 52 52" fill="none" xmlns="http://www.w3.org/2000/svg">
<path d="M19.7557 25.8629C17.8009 25.8629 16.8289 25.0205 16.8289 23.6813V23.5949H18.4381V23.6813C18.4381 24.2105 18.8701 24.3833 19.8313 24.3833C20.8573 24.3833 21.2137 24.1133 21.2137 23.3789C21.2137 22.6229 20.8249 22.3637 19.8097 22.3637C19.0861 22.3637 18.5569 22.5905 18.3193 22.7309L16.8829 22.5365L17.0989 18.5189H22.4125V19.9769H18.5353L18.4165 21.5537H18.4597C18.7405 21.2945 19.3669 20.9921 20.3497 20.9921C21.9481 20.9921 22.8013 21.8885 22.8013 23.3249C22.8013 24.8045 21.9481 25.8629 19.7557 25.8629ZM29.5226 25.7549H23.8634V24.7829C23.8634 23.3789 24.8138 22.7957 25.8182 22.3097L27.071 21.7157C27.7082 21.4133 27.935 21.1757 27.935 20.7005C27.935 20.1821 27.6974 19.8905 26.7362 19.8905C25.6886 19.8905 25.4726 20.1821 25.4726 20.9597V21.1433H23.8526V20.9705C23.8526 19.5665 24.7166 18.4109 26.8658 18.4109C28.7774 18.4109 29.5442 19.3829 29.5442 20.6897C29.5442 21.9425 28.6586 22.5797 27.719 23.0009L26.6282 23.4761C26.0342 23.7461 25.5914 23.9729 25.5914 24.3185L26.7578 24.2969H29.5226V25.7549ZM32.3152 21.9965C31.1488 21.9965 30.4144 21.3161 30.4144 20.2037C30.4144 19.0913 31.1488 18.4109 32.3152 18.4109C33.4708 18.4109 34.2052 19.0913 34.2052 20.2037C34.2052 21.3161 33.4708 21.9965 32.3152 21.9965ZM32.6284 25.7549H31.1488L36.3652 18.5189H37.834L32.6284 25.7549ZM32.3152 20.8949C32.8228 20.8949 32.9956 20.7653 32.9956 20.2037C32.9956 19.6421 32.8228 19.5125 32.3152 19.5125C31.8076 19.5125 31.6348 19.6421 31.6348 20.2037C31.6348 20.7653 31.8076 20.8949 32.3152 20.8949ZM36.6784 25.8629C35.512 25.8629 34.7776 25.1825 34.7776 24.0701C34.7776 22.9577 35.512 22.2773 36.6784 22.2773C37.8448 22.2773 38.5684 22.9577 38.5684 24.0701C38.5684 25.1825 37.8448 25.8629 36.6784 25.8629ZM36.6784 24.7613C37.186 24.7613 37.3588 24.6317 37.3588 24.0701C37.3588 23.5085 37.186 23.3789 36.6784 23.3789C36.1708 23.3789 35.998 23.5085 35.998 24.0701C35.998 24.6317 36.1708 24.7613 36.6784 24.7613Z" fill="black"/>
<path d="M19.4223 34.065C19.0019 34.065 18.6379 33.974 18.3303 33.792C18.0269 33.6057 17.7929 33.3457 17.6283 33.012C17.4679 32.674 17.3878 32.2775 17.3878 31.8225C17.3878 31.3675 17.4679 30.9732 17.6283 30.6395C17.7929 30.3015 18.0269 30.0415 18.3303 29.8595C18.6379 29.6732 19.0019 29.58 19.4223 29.58C19.8166 29.58 20.1524 29.6493 20.4298 29.788C20.7071 29.9267 20.9216 30.1217 21.0733 30.373C21.2249 30.6243 21.3008 30.9255 21.3008 31.2765V31.3155H20.5598V31.2765C20.5598 30.9212 20.4688 30.6633 20.2868 30.503C20.1091 30.3383 19.8144 30.256 19.4028 30.256C19.1038 30.256 18.8611 30.308 18.6748 30.412C18.4884 30.516 18.3519 30.6828 18.2653 30.9125C18.1786 31.1422 18.1353 31.4455 18.1353 31.8225C18.1353 32.1952 18.1786 32.4985 18.2653 32.7325C18.3519 32.9622 18.4884 33.129 18.6748 33.233C18.8611 33.3327 19.1038 33.3825 19.4028 33.3825C19.8144 33.3825 20.1091 33.3023 20.2868 33.142C20.4688 32.9817 20.5598 32.7238 20.5598 32.3685V32.3295H21.3008V32.3685C21.3008 32.7152 21.2249 33.0163 21.0733 33.272C20.9216 33.5233 20.7071 33.7183 20.4298 33.857C20.1524 33.9957 19.8166 34.065 19.4223 34.065ZM24.9855 34H24.2835V32.1215C24.2835 31.8355 24.2271 31.6297 24.1145 31.504C24.0061 31.374 23.8046 31.309 23.51 31.309C23.2283 31.309 23.0181 31.3718 22.8795 31.4975C22.7451 31.6188 22.678 31.8333 22.678 32.141H22.5545L22.548 31.309H22.704C22.756 31.2093 22.8275 31.114 22.9185 31.023C23.0138 30.9277 23.133 30.8518 23.276 30.7955C23.4233 30.7348 23.5923 30.7045 23.783 30.7045C24.069 30.7045 24.2986 30.7608 24.472 30.8735C24.6496 30.9818 24.7796 31.1313 24.862 31.322C24.9443 31.5127 24.9855 31.7272 24.9855 31.9655V34ZM22.678 34H21.976V29.645H22.678V34ZM28.4792 34H27.8292V33.363L27.8097 33.1875V31.946C27.8097 31.7033 27.7512 31.5387 27.6342 31.452C27.5215 31.3653 27.3374 31.322 27.0817 31.322C26.826 31.322 26.6419 31.3675 26.5292 31.4585C26.4209 31.5495 26.3667 31.7012 26.3667 31.9135V32.011H25.6907V31.946C25.6907 31.7033 25.7492 31.4888 25.8662 31.3025C25.9875 31.1162 26.1544 30.971 26.3667 30.867C26.5834 30.7587 26.8347 30.7045 27.1207 30.7045C27.424 30.7045 27.6754 30.7608 27.8747 30.8735C28.074 30.9862 28.2235 31.1422 28.3232 31.3415C28.4272 31.5365 28.4792 31.7683 28.4792 32.037V34ZM26.6267 34.065C26.3364 34.065 26.0915 33.9913 25.8922 33.844C25.6972 33.6923 25.5997 33.4778 25.5997 33.2005C25.5997 33.0185 25.6409 32.8668 25.7232 32.7455C25.8099 32.6242 25.9334 32.5245 26.0937 32.4465C26.254 32.3685 26.449 32.3143 26.6787 32.284L27.8747 32.115V32.609L26.7827 32.7715C26.5964 32.7975 26.4664 32.8365 26.3927 32.8885C26.319 32.9405 26.2822 33.0272 26.2822 33.1485C26.2822 33.2742 26.3255 33.3652 26.4122 33.4215C26.5032 33.4778 26.6505 33.506 26.8542 33.506C27.0102 33.506 27.1597 33.4822 27.3027 33.4345C27.45 33.3825 27.5714 33.298 27.6667 33.181C27.762 33.0597 27.8097 32.8907 27.8097 32.674L27.9007 33.4995L27.7967 33.493C27.736 33.5927 27.6515 33.6858 27.5432 33.7725C27.4392 33.8592 27.3114 33.9307 27.1597 33.987C27.008 34.039 26.8304 34.065 26.6267 34.065ZM32.2396 34H31.5376V32.1215C31.5376 31.8355 31.4835 31.6297 31.3751 31.504C31.2668 31.374 31.0631 31.309 30.7641 31.309C30.5735 31.309 30.4175 31.3372 30.2961 31.3935C30.1748 31.4455 30.0838 31.5322 30.0231 31.6535C29.9625 31.7705 29.9321 31.9308 29.9321 32.1345H29.8086L29.7501 31.374H29.9061C29.9538 31.257 30.0253 31.1487 30.1206 31.049C30.216 30.9493 30.3373 30.867 30.4846 30.802C30.6363 30.737 30.8161 30.7045 31.0241 30.7045C31.3058 30.7045 31.5355 30.7587 31.7131 30.867C31.8908 30.9753 32.023 31.1248 32.1096 31.3155C32.1963 31.5062 32.2396 31.725 32.2396 31.972V34ZM29.9321 34H29.2301V30.7695H29.8736V31.738L29.9321 31.7705V34ZM34.33 34.065C33.8577 34.065 33.5002 33.9718 33.2575 33.7855C33.0148 33.5948 32.8935 33.3023 32.8935 32.908V32.895H33.5695V33.012C33.5695 33.1247 33.5912 33.2178 33.6345 33.2915C33.6822 33.3608 33.7602 33.4128 33.8685 33.4475C33.9812 33.4778 34.1393 33.493 34.343 33.493C34.5163 33.493 34.6463 33.48 34.733 33.454C34.824 33.4237 34.8847 33.3825 34.915 33.3305C34.9453 33.2785 34.9605 33.2135 34.9605 33.1355C34.9605 33.0055 34.915 32.9145 34.824 32.8625C34.733 32.8062 34.5705 32.7563 34.3365 32.713L33.8295 32.6285C33.6388 32.5895 33.472 32.5353 33.329 32.466C33.1903 32.3923 33.082 32.2927 33.004 32.167C32.9303 32.037 32.8935 31.8745 32.8935 31.6795C32.8935 31.3892 33.0083 31.1552 33.238 30.9775C33.4677 30.7955 33.7927 30.7045 34.213 30.7045C34.4687 30.7045 34.6962 30.7457 34.8955 30.828C35.0948 30.9103 35.253 31.0338 35.37 31.1985C35.487 31.3632 35.5455 31.569 35.5455 31.816V31.8745H34.876V31.7965C34.876 31.6925 34.8587 31.6037 34.824 31.53C34.7893 31.452 34.7243 31.3913 34.629 31.348C34.5337 31.3047 34.3885 31.283 34.1935 31.283C33.9378 31.283 33.7688 31.3155 33.6865 31.3805C33.6042 31.4455 33.563 31.5408 33.563 31.6665C33.563 31.7922 33.5998 31.881 33.6735 31.933C33.7515 31.9807 33.9032 32.0283 34.1285 32.076L34.681 32.18C34.889 32.219 35.0623 32.2775 35.201 32.3555C35.3397 32.4335 35.4437 32.5353 35.513 32.661C35.5867 32.7867 35.6235 32.9362 35.6235 33.1095C35.6235 33.4128 35.5087 33.649 35.279 33.818C35.0537 33.9827 34.7373 34.065 34.33 34.065Z" fill="black"/>
<path d="M25.9999 0.800193C39.7862 0.800192 50.9621 12.0826 50.9621 26.0002C50.9621 39.9178 39.7862 51.2002 25.9999 51.2002C12.2136 51.2002 1.0376 39.9178 1.0376 26.0002C1.0376 12.0826 12.2136 0.800193 25.9999 0.800193ZM25.9999 47.4202C37.7182 47.4202 47.2178 37.8301 47.2178 26.0002C47.2178 14.1703 37.7182 4.58019 25.9999 4.58019C14.2815 4.58019 4.78194 14.1703 4.78194 26.0002C4.78194 37.8301 14.2815 47.4202 25.9999 47.4202Z" fill="#DFF0D8"/>
<path d="M25.9998 0.800193C29.4424 0.800193 32.8485 1.50556 36.008 2.87277C39.1674 4.23999 42.0132 6.24006 44.3698 8.74961C46.7265 11.2591 48.5439 14.2249 49.71 17.464C50.8762 20.7031 51.3663 24.1467 51.1501 27.5825C50.9339 31.0183 50.0161 34.3734 48.4532 37.4408C46.8903 40.5081 44.7155 43.2227 42.0629 45.4171C39.4104 47.6115 36.3363 49.2391 33.0304 50.1996C29.7245 51.16 26.2569 51.433 22.8414 51.0015L23.3152 47.2513C26.2183 47.618 29.1658 47.3861 31.9758 46.5697C34.7858 45.7533 37.3988 44.3698 39.6535 42.5046C41.9081 40.6394 43.7567 38.3319 45.0852 35.7247C46.4137 33.1174 47.1938 30.2656 47.3776 27.3452C47.5613 24.4247 47.1447 21.4976 46.1535 18.7444C45.1623 15.9912 43.6175 13.4703 41.6143 11.3372C39.6112 9.20408 37.1923 7.50402 34.5067 6.34189C31.8212 5.17975 28.926 4.58019 25.9998 4.58019L25.9998 0.800193Z" fill="#0C3A25"/>
</svg>
