<svg width="160" height="160" viewBox="0 0 160 160" fill="none" xmlns="http://www.w3.org/2000/svg">
<path d="M58.6774 79.32C52.8854 79.32 50.0054 76.824 50.0054 72.856V72.6H54.7734V72.856C54.7734 74.424 56.0534 74.936 58.9014 74.936C61.9414 74.936 62.9974 74.136 62.9974 71.96C62.9974 69.72 61.8454 68.952 58.8374 68.952C56.6934 68.952 55.1254 69.624 54.4214 70.04L50.1654 69.464L50.8054 57.56H66.5494V61.88H55.0614L54.7094 66.552H54.8374C55.6694 65.784 57.5254 64.888 60.4374 64.888C65.1734 64.888 67.7014 67.544 67.7014 71.8C67.7014 76.184 65.1734 79.32 58.6774 79.32ZM87.6164 79H70.8484V76.12C70.8484 71.96 73.6644 70.232 76.6404 68.792L80.3524 67.032C82.2404 66.136 82.9124 65.432 82.9124 64.024C82.9124 62.488 82.2084 61.624 79.3604 61.624C76.2564 61.624 75.6164 62.488 75.6164 64.792V65.336H70.8164V64.824C70.8164 60.664 73.3764 57.24 79.7444 57.24C85.4084 57.24 87.6804 60.12 87.6804 63.992C87.6804 67.704 85.0564 69.592 82.2724 70.84L79.0404 72.248C77.2804 73.048 75.9684 73.72 75.9684 74.744L79.4244 74.68H87.6164V79ZM95.8909 67.864C92.4349 67.864 90.2589 65.848 90.2589 62.552C90.2589 59.256 92.4349 57.24 95.8909 57.24C99.3149 57.24 101.491 59.256 101.491 62.552C101.491 65.848 99.3149 67.864 95.8909 67.864ZM96.8189 79H92.4349L107.891 57.56H112.243L96.8189 79ZM95.8909 64.6C97.3949 64.6 97.9069 64.216 97.9069 62.552C97.9069 60.888 97.3949 60.504 95.8909 60.504C94.3869 60.504 93.8749 60.888 93.8749 62.552C93.8749 64.216 94.3869 64.6 95.8909 64.6ZM108.819 79.32C105.363 79.32 103.187 77.304 103.187 74.008C103.187 70.712 105.363 68.696 108.819 68.696C112.275 68.696 114.419 70.712 114.419 74.008C114.419 77.304 112.275 79.32 108.819 79.32ZM108.819 76.056C110.323 76.056 110.835 75.672 110.835 74.008C110.835 72.344 110.323 71.96 108.819 71.96C107.315 71.96 106.803 72.344 106.803 74.008C106.803 75.672 107.315 76.056 108.819 76.056Z" fill="black"/>
<path d="M61.2198 104.16C60.1851 104.16 59.2891 103.936 58.5318 103.488C57.7851 103.029 57.2091 102.389 56.8038 101.568C56.4091 100.736 56.2118 99.76 56.2118 98.64C56.2118 97.52 56.4091 96.5493 56.8038 95.728C57.2091 94.896 57.7851 94.256 58.5318 93.808C59.2891 93.3493 60.1851 93.12 61.2198 93.12C62.1905 93.12 63.0171 93.2907 63.6998 93.632C64.3825 93.9733 64.9105 94.4533 65.2838 95.072C65.6571 95.6907 65.8438 96.432 65.8438 97.296V97.392H64.0198V97.296C64.0198 96.4213 63.7958 95.7867 63.3478 95.392C62.9105 94.9867 62.1851 94.784 61.1718 94.784C60.4358 94.784 59.8385 94.912 59.3798 95.168C58.9211 95.424 58.5851 95.8347 58.3718 96.4C58.1585 96.9653 58.0518 97.712 58.0518 98.64C58.0518 99.5573 58.1585 100.304 58.3718 100.88C58.5851 101.445 58.9211 101.856 59.3798 102.112C59.8385 102.357 60.4358 102.48 61.1718 102.48C62.1851 102.48 62.9105 102.283 63.3478 101.888C63.7958 101.493 64.0198 100.859 64.0198 99.984V99.888H65.8438V99.984C65.8438 100.837 65.6571 101.579 65.2838 102.208C64.9105 102.827 64.3825 103.307 63.6998 103.648C63.0171 103.989 62.1905 104.16 61.2198 104.16ZM74.9699 104H73.2419V99.376C73.2419 98.672 73.1033 98.1653 72.8259 97.856C72.5593 97.536 72.0633 97.376 71.3379 97.376C70.6446 97.376 70.1273 97.5307 69.7859 97.84C69.4553 98.1387 69.2899 98.6667 69.2899 99.424H68.9859L68.9699 97.376H69.3539C69.4819 97.1307 69.6579 96.896 69.8819 96.672C70.1166 96.4373 70.4099 96.2507 70.7619 96.112C71.1246 95.9627 71.5406 95.888 72.0099 95.888C72.7139 95.888 73.2793 96.0267 73.7059 96.304C74.1433 96.5707 74.4633 96.9387 74.6659 97.408C74.8686 97.8773 74.9699 98.4053 74.9699 98.992V104ZM69.2899 104H67.5619V93.28H69.2899V104ZM83.626 104H82.026V102.432L81.978 102V98.944C81.978 98.3467 81.834 97.9413 81.546 97.728C81.2687 97.5147 80.8154 97.408 80.186 97.408C79.5567 97.408 79.1034 97.52 78.826 97.744C78.5594 97.968 78.426 98.3413 78.426 98.864V99.104H76.762V98.944C76.762 98.3467 76.906 97.8187 77.194 97.36C77.4927 96.9013 77.9034 96.544 78.426 96.288C78.9594 96.0213 79.578 95.888 80.282 95.888C81.0287 95.888 81.6474 96.0267 82.138 96.304C82.6287 96.5813 82.9967 96.9653 83.242 97.456C83.498 97.936 83.626 98.5067 83.626 99.168V104ZM79.066 104.16C78.3514 104.16 77.7487 103.979 77.258 103.616C76.778 103.243 76.538 102.715 76.538 102.032C76.538 101.584 76.6394 101.211 76.842 100.912C77.0554 100.613 77.3594 100.368 77.754 100.176C78.1487 99.984 78.6287 99.8507 79.194 99.776L82.138 99.36V100.576L79.45 100.976C78.9914 101.04 78.6714 101.136 78.49 101.264C78.3087 101.392 78.218 101.605 78.218 101.904C78.218 102.213 78.3247 102.437 78.538 102.576C78.762 102.715 79.1247 102.784 79.626 102.784C80.01 102.784 80.378 102.725 80.73 102.608C81.0927 102.48 81.3914 102.272 81.626 101.984C81.8607 101.685 81.978 101.269 81.978 100.736L82.202 102.768L81.946 102.752C81.7967 102.997 81.5887 103.227 81.322 103.44C81.066 103.653 80.7514 103.829 80.378 103.968C80.0047 104.096 79.5674 104.16 79.066 104.16ZM92.9387 104H91.2107V99.376C91.2107 98.672 91.0773 98.1653 90.8107 97.856C90.544 97.536 90.0427 97.376 89.3067 97.376C88.8373 97.376 88.4533 97.4453 88.1547 97.584C87.856 97.712 87.632 97.9253 87.4827 98.224C87.3333 98.512 87.2587 98.9067 87.2587 99.408H86.9547L86.8107 97.536H87.1947C87.312 97.248 87.488 96.9813 87.7227 96.736C87.9573 96.4907 88.256 96.288 88.6187 96.128C88.992 95.968 89.4347 95.888 89.9467 95.888C90.64 95.888 91.2053 96.0213 91.6427 96.288C92.08 96.5547 92.4053 96.9227 92.6187 97.392C92.832 97.8613 92.9387 98.4 92.9387 99.008V104ZM87.2587 104H85.5307V96.048H87.1147V98.432L87.2587 98.512V104ZM98.1403 104.16C96.9776 104.16 96.0976 103.931 95.5003 103.472C94.903 103.003 94.6043 102.283 94.6043 101.312V101.28H96.2683V101.568C96.2683 101.845 96.3216 102.075 96.4283 102.256C96.5456 102.427 96.7376 102.555 97.0043 102.64C97.2816 102.715 97.671 102.752 98.1723 102.752C98.599 102.752 98.919 102.72 99.1323 102.656C99.3563 102.581 99.5056 102.48 99.5803 102.352C99.655 102.224 99.6923 102.064 99.6923 101.872C99.6923 101.552 99.5803 101.328 99.3563 101.2C99.1323 101.061 98.7323 100.939 98.1563 100.832L96.9083 100.624C96.439 100.528 96.0283 100.395 95.6763 100.224C95.335 100.043 95.0683 99.7973 94.8763 99.488C94.695 99.168 94.6043 98.768 94.6043 98.288C94.6043 97.5733 94.887 96.9973 95.4523 96.56C96.0176 96.112 96.8176 95.888 97.8523 95.888C98.4816 95.888 99.0416 95.9893 99.5323 96.192C100.023 96.3947 100.412 96.6987 100.7 97.104C100.988 97.5093 101.132 98.016 101.132 98.624V98.768H99.4843V98.576C99.4843 98.32 99.4416 98.1013 99.3563 97.92C99.271 97.728 99.111 97.5787 98.8763 97.472C98.6416 97.3653 98.2843 97.312 97.8043 97.312C97.175 97.312 96.759 97.392 96.5563 97.552C96.3536 97.712 96.2523 97.9467 96.2523 98.256C96.2523 98.5653 96.343 98.784 96.5243 98.912C96.7163 99.0293 97.0896 99.1467 97.6443 99.264L99.0043 99.52C99.5163 99.616 99.943 99.76 100.284 99.952C100.626 100.144 100.882 100.395 101.052 100.704C101.234 101.013 101.324 101.381 101.324 101.808C101.324 102.555 101.042 103.136 100.476 103.552C99.9216 103.957 99.143 104.16 98.1403 104.16Z" fill="black"/>
<path d="M80 4.22795e-05C124.183 4.03482e-05 160 35.8172 160 80C160 124.183 124.183 160 80 160C35.8172 160 -1.56562e-06 124.183 -3.49691e-06 80C-5.4282e-06 35.8173 35.8172 4.42107e-05 80 4.22795e-05ZM80 148.8C117.997 148.8 148.8 117.997 148.8 80C148.8 42.0028 117.997 11.2 80 11.2C42.0028 11.2 11.2 42.0028 11.2 80C11.2 117.997 42.0028 148.8 80 148.8Z" fill="#DFF0D8"/>
<path d="M80 4.22795e-05C90.9289 4.18017e-05 101.742 2.2393 111.772 6.57967C121.802 10.92 130.836 17.2695 138.317 25.2363C145.799 33.2031 151.568 42.6182 155.27 52.901C158.972 63.1837 160.528 74.116 159.842 85.0233C159.156 95.9305 156.242 106.582 151.281 116.319C146.319 126.057 139.415 134.675 130.994 141.641C122.573 148.607 112.814 153.774 102.319 156.823C91.8244 159.873 80.816 160.739 69.9733 159.369L71.3771 148.257C80.7018 149.435 90.169 148.69 99.1946 146.068C108.22 143.446 116.613 139.002 123.855 133.011C131.097 127.02 137.034 119.609 141.301 111.235C145.568 102.86 148.074 93.7003 148.664 84.32C149.254 74.9397 147.916 65.538 144.733 56.6949C141.549 47.8517 136.587 39.7546 130.153 32.9032C123.719 26.0517 115.95 20.5912 107.324 16.8585C98.698 13.1258 89.3988 11.2 80 11.2L80 4.22795e-05Z" fill="#0C3A25"/>
</svg>
