<svg width="160" height="160" viewBox="0 0 160 160" fill="none" xmlns="http://www.w3.org/2000/svg">
<path d="M58.6774 79.32C52.8854 79.32 50.0054 76.824 50.0054 72.856V72.6H54.7734V72.856C54.7734 74.424 56.0534 74.936 58.9014 74.936C61.9414 74.936 62.9974 74.136 62.9974 71.96C62.9974 69.72 61.8454 68.952 58.8374 68.952C56.6934 68.952 55.1254 69.624 54.4214 70.04L50.1654 69.464L50.8054 57.56H66.5494V61.88H55.0614L54.7094 66.552H54.8374C55.6694 65.784 57.5254 64.888 60.4374 64.888C65.1734 64.888 67.7014 67.544 67.7014 71.8C67.7014 76.184 65.1734 79.32 58.6774 79.32ZM87.6164 79H70.8484V76.12C70.8484 71.96 73.6644 70.232 76.6404 68.792L80.3524 67.032C82.2404 66.136 82.9124 65.432 82.9124 64.024C82.9124 62.488 82.2084 61.624 79.3604 61.624C76.2564 61.624 75.6164 62.488 75.6164 64.792V65.336H70.8164V64.824C70.8164 60.664 73.3764 57.24 79.7444 57.24C85.4084 57.24 87.6804 60.12 87.6804 63.992C87.6804 67.704 85.0564 69.592 82.2724 70.84L79.0404 72.248C77.2804 73.048 75.9684 73.72 75.9684 74.744L79.4244 74.68H87.6164V79ZM95.8909 67.864C92.4349 67.864 90.2589 65.848 90.2589 62.552C90.2589 59.256 92.4349 57.24 95.8909 57.24C99.3149 57.24 101.491 59.256 101.491 62.552C101.491 65.848 99.3149 67.864 95.8909 67.864ZM96.8189 79H92.4349L107.891 57.56H112.243L96.8189 79ZM95.8909 64.6C97.3949 64.6 97.9069 64.216 97.9069 62.552C97.9069 60.888 97.3949 60.504 95.8909 60.504C94.3869 60.504 93.8749 60.888 93.8749 62.552C93.8749 64.216 94.3869 64.6 95.8909 64.6ZM108.819 79.32C105.363 79.32 103.187 77.304 103.187 74.008C103.187 70.712 105.363 68.696 108.819 68.696C112.275 68.696 114.419 70.712 114.419 74.008C114.419 77.304 112.275 79.32 108.819 79.32ZM108.819 76.056C110.323 76.056 110.835 75.672 110.835 74.008C110.835 72.344 110.323 71.96 108.819 71.96C107.315 71.96 106.803 72.344 106.803 74.008C106.803 75.672 107.315 76.056 108.819 76.056Z" fill="black"/>
<path d="M56.462 104.16C55.4273 104.16 54.5313 103.936 53.774 103.488C53.0273 103.029 52.4513 102.389 52.046 101.568C51.6513 100.736 51.454 99.76 51.454 98.64C51.454 97.52 51.6513 96.5493 52.046 95.728C52.4513 94.896 53.0273 94.256 53.774 93.808C54.5313 93.3493 55.4273 93.12 56.462 93.12C57.4326 93.12 58.2593 93.2907 58.942 93.632C59.6246 93.9733 60.1526 94.4533 60.526 95.072C60.8993 95.6907 61.086 96.432 61.086 97.296V97.392H59.262V97.296C59.262 96.4213 59.038 95.7867 58.59 95.392C58.1526 94.9867 57.4273 94.784 56.414 94.784C55.678 94.784 55.0806 94.912 54.622 95.168C54.1633 95.424 53.8273 95.8347 53.614 96.4C53.4006 96.9653 53.294 97.712 53.294 98.64C53.294 99.5573 53.4006 100.304 53.614 100.88C53.8273 101.445 54.1633 101.856 54.622 102.112C55.0806 102.357 55.678 102.48 56.414 102.48C57.4273 102.48 58.1526 102.283 58.59 101.888C59.038 101.493 59.262 100.859 59.262 99.984V99.888H61.086V99.984C61.086 100.837 60.8993 101.579 60.526 102.208C60.1526 102.827 59.6246 103.307 58.942 103.648C58.2593 103.989 57.4326 104.16 56.462 104.16ZM70.2121 104H68.4841V99.376C68.4841 98.672 68.3454 98.1653 68.0681 97.856C67.8014 97.536 67.3054 97.376 66.5801 97.376C65.8868 97.376 65.3694 97.5307 65.0281 97.84C64.6974 98.1387 64.5321 98.6667 64.5321 99.424H64.2281L64.2121 97.376H64.5961C64.7241 97.1307 64.9001 96.896 65.1241 96.672C65.3588 96.4373 65.6521 96.2507 66.0041 96.112C66.3668 95.9627 66.7828 95.888 67.2521 95.888C67.9561 95.888 68.5214 96.0267 68.9481 96.304C69.3854 96.5707 69.7054 96.9387 69.9081 97.408C70.1108 97.8773 70.2121 98.4053 70.2121 98.992V104ZM64.5321 104H62.8041V93.28H64.5321V104ZM78.8682 104H77.2682V102.432L77.2202 102V98.944C77.2202 98.3467 77.0762 97.9413 76.7882 97.728C76.5109 97.5147 76.0576 97.408 75.4282 97.408C74.7989 97.408 74.3456 97.52 74.0682 97.744C73.8016 97.968 73.6682 98.3413 73.6682 98.864V99.104H72.0042V98.944C72.0042 98.3467 72.1482 97.8187 72.4362 97.36C72.7349 96.9013 73.1456 96.544 73.6682 96.288C74.2016 96.0213 74.8202 95.888 75.5242 95.888C76.2709 95.888 76.8896 96.0267 77.3802 96.304C77.8709 96.5813 78.2389 96.9653 78.4842 97.456C78.7402 97.936 78.8682 98.5067 78.8682 99.168V104ZM74.3082 104.16C73.5936 104.16 72.9909 103.979 72.5002 103.616C72.0202 103.243 71.7802 102.715 71.7802 102.032C71.7802 101.584 71.8816 101.211 72.0842 100.912C72.2976 100.613 72.6016 100.368 72.9962 100.176C73.3909 99.984 73.8709 99.8507 74.4362 99.776L77.3802 99.36V100.576L74.6922 100.976C74.2336 101.04 73.9136 101.136 73.7322 101.264C73.5509 101.392 73.4602 101.605 73.4602 101.904C73.4602 102.213 73.5669 102.437 73.7802 102.576C74.0042 102.715 74.3669 102.784 74.8682 102.784C75.2522 102.784 75.6202 102.725 75.9722 102.608C76.3349 102.48 76.6336 102.272 76.8682 101.984C77.1029 101.685 77.2202 101.269 77.2202 100.736L77.4442 102.768L77.1882 102.752C77.0389 102.997 76.8309 103.227 76.5642 103.44C76.3082 103.653 75.9936 103.829 75.6202 103.968C75.2469 104.096 74.8096 104.16 74.3082 104.16ZM88.1809 104H86.4529V99.376C86.4529 98.672 86.3195 98.1653 86.0529 97.856C85.7862 97.536 85.2849 97.376 84.5489 97.376C84.0795 97.376 83.6955 97.4453 83.3969 97.584C83.0982 97.712 82.8742 97.9253 82.7249 98.224C82.5755 98.512 82.5009 98.9067 82.5009 99.408H82.1969L82.0529 97.536H82.4369C82.5542 97.248 82.7302 96.9813 82.9649 96.736C83.1995 96.4907 83.4982 96.288 83.8609 96.128C84.2342 95.968 84.6769 95.888 85.1889 95.888C85.8822 95.888 86.4475 96.0213 86.8849 96.288C87.3222 96.5547 87.6475 96.9227 87.8609 97.392C88.0742 97.8613 88.1809 98.4 88.1809 99.008V104ZM82.5009 104H80.7729V96.048H82.3569V98.432L82.5009 98.512V104ZM93.6221 104.176C92.7901 104.176 92.0861 104 91.5101 103.648C90.9341 103.296 90.4914 102.811 90.1821 102.192C89.8834 101.573 89.7341 100.853 89.7341 100.032C89.7341 99.2107 89.8888 98.4907 90.1981 97.872C90.5181 97.2427 90.9714 96.7573 91.5581 96.416C92.1448 96.064 92.8541 95.888 93.6861 95.888C94.3901 95.888 95.0088 96.0213 95.5421 96.288C96.0754 96.5547 96.4861 96.928 96.7741 97.408C97.0728 97.888 97.2221 98.448 97.2221 99.088V99.232H95.5101V99.136C95.5101 98.5493 95.3501 98.1227 95.0301 97.856C94.7208 97.5787 94.2354 97.44 93.5741 97.44C92.8061 97.44 92.2568 97.6587 91.9261 98.096C91.6061 98.5227 91.4461 99.1627 91.4461 100.016C91.4461 100.88 91.6061 101.531 91.9261 101.968C92.2568 102.395 92.8061 102.608 93.5741 102.608C94.2354 102.608 94.7208 102.475 95.0301 102.208C95.3501 101.931 95.5101 101.504 95.5101 100.928V100.832H97.2221V100.976C97.2221 101.595 97.0728 102.149 96.7741 102.64C96.4754 103.12 96.0541 103.499 95.5101 103.776C94.9768 104.043 94.3474 104.176 93.6221 104.176ZM102.387 104.16C101.523 104.16 100.803 103.989 100.227 103.648C99.651 103.296 99.2243 102.811 98.947 102.192C98.6696 101.563 98.531 100.837 98.531 100.016C98.531 99.1947 98.6856 98.4747 98.995 97.856C99.315 97.2373 99.763 96.7573 100.339 96.416C100.915 96.064 101.598 95.888 102.387 95.888C103.102 95.888 103.731 96.0267 104.275 96.304C104.83 96.5707 105.256 96.96 105.555 97.472C105.864 97.984 106.019 98.6027 106.019 99.328C106.019 99.5413 106.008 99.7493 105.987 99.952C105.976 100.144 105.96 100.304 105.939 100.432H99.347V99.28H104.531L104.355 99.44C104.398 98.9493 104.344 98.5493 104.195 98.24C104.056 97.9307 103.827 97.7013 103.507 97.552C103.198 97.4027 102.808 97.328 102.339 97.328C101.496 97.328 100.92 97.5413 100.611 97.968C100.302 98.384 100.147 98.96 100.147 99.696V100.176C100.147 100.709 100.211 101.163 100.339 101.536C100.478 101.899 100.712 102.171 101.043 102.352C101.374 102.533 101.827 102.624 102.403 102.624C103.075 102.624 103.55 102.517 103.827 102.304C104.104 102.091 104.243 101.808 104.243 101.456V101.328H105.955V101.472C105.955 102.016 105.806 102.491 105.507 102.896C105.208 103.291 104.792 103.6 104.259 103.824C103.736 104.048 103.112 104.16 102.387 104.16Z" fill="black"/>
<path d="M80 4.22795e-05C124.183 4.03482e-05 160 35.8172 160 80C160 124.183 124.183 160 80 160C35.8172 160 -1.56562e-06 124.183 -3.49691e-06 80C-5.4282e-06 35.8173 35.8172 4.42107e-05 80 4.22795e-05ZM80 148.8C117.997 148.8 148.8 117.997 148.8 80C148.8 42.0028 117.997 11.2 80 11.2C42.0028 11.2 11.2 42.0028 11.2 80C11.2 117.997 42.0028 148.8 80 148.8Z" fill="#DFF0D8"/>
<path d="M80 4.22795e-05C90.9289 4.18017e-05 101.742 2.2393 111.772 6.57967C121.802 10.92 130.836 17.2695 138.317 25.2363C145.799 33.2031 151.568 42.6182 155.27 52.901C158.972 63.1837 160.528 74.116 159.842 85.0233C159.156 95.9305 156.242 106.582 151.281 116.319C146.319 126.057 139.415 134.675 130.994 141.641C122.573 148.607 112.814 153.774 102.319 156.823C91.8244 159.873 80.816 160.739 69.9733 159.369L71.3771 148.257C80.7018 149.435 90.169 148.69 99.1946 146.068C108.22 143.446 116.613 139.002 123.855 133.011C131.097 127.02 137.034 119.609 141.301 111.235C145.568 102.86 148.074 93.7003 148.664 84.32C149.254 74.9397 147.916 65.538 144.733 56.6949C141.549 47.8517 136.587 39.7546 130.153 32.9032C123.719 26.0517 115.95 20.5912 107.324 16.8585C98.698 13.1258 89.3988 11.2 80 11.2L80 4.22795e-05Z" fill="#0C3A25"/>
</svg>
