<svg width="52" height="52" viewBox="0 0 52 52" fill="none" xmlns="http://www.w3.org/2000/svg">
<path d="M19.7557 25.8629C17.8009 25.8629 16.8289 25.0205 16.8289 23.6813V23.5949H18.4381V23.6813C18.4381 24.2105 18.8701 24.3833 19.8313 24.3833C20.8573 24.3833 21.2137 24.1133 21.2137 23.3789C21.2137 22.6229 20.8249 22.3637 19.8097 22.3637C19.0861 22.3637 18.5569 22.5905 18.3193 22.7309L16.8829 22.5365L17.0989 18.5189H22.4125V19.9769H18.5353L18.4165 21.5537H18.4597C18.7405 21.2945 19.3669 20.9921 20.3497 20.9921C21.9481 20.9921 22.8013 21.8885 22.8013 23.3249C22.8013 24.8045 21.9481 25.8629 19.7557 25.8629ZM29.5226 25.7549H23.8634V24.7829C23.8634 23.3789 24.8138 22.7957 25.8182 22.3097L27.071 21.7157C27.7082 21.4133 27.935 21.1757 27.935 20.7005C27.935 20.1821 27.6974 19.8905 26.7362 19.8905C25.6886 19.8905 25.4726 20.1821 25.4726 20.9597V21.1433H23.8526V20.9705C23.8526 19.5665 24.7166 18.4109 26.8658 18.4109C28.7774 18.4109 29.5442 19.3829 29.5442 20.6897C29.5442 21.9425 28.6586 22.5797 27.719 23.0009L26.6282 23.4761C26.0342 23.7461 25.5914 23.9729 25.5914 24.3185L26.7578 24.2969H29.5226V25.7549ZM32.3152 21.9965C31.1488 21.9965 30.4144 21.3161 30.4144 20.2037C30.4144 19.0913 31.1488 18.4109 32.3152 18.4109C33.4708 18.4109 34.2052 19.0913 34.2052 20.2037C34.2052 21.3161 33.4708 21.9965 32.3152 21.9965ZM32.6284 25.7549H31.1488L36.3652 18.5189H37.834L32.6284 25.7549ZM32.3152 20.8949C32.8228 20.8949 32.9956 20.7653 32.9956 20.2037C32.9956 19.6421 32.8228 19.5125 32.3152 19.5125C31.8076 19.5125 31.6348 19.6421 31.6348 20.2037C31.6348 20.7653 31.8076 20.8949 32.3152 20.8949ZM36.6784 25.8629C35.512 25.8629 34.7776 25.1825 34.7776 24.0701C34.7776 22.9577 35.512 22.2773 36.6784 22.2773C37.8448 22.2773 38.5684 22.9577 38.5684 24.0701C38.5684 25.1825 37.8448 25.8629 36.6784 25.8629ZM36.6784 24.7613C37.186 24.7613 37.3588 24.6317 37.3588 24.0701C37.3588 23.5085 37.186 23.3789 36.6784 23.3789C36.1708 23.3789 35.998 23.5085 35.998 24.0701C35.998 24.6317 36.1708 24.7613 36.6784 24.7613Z" fill="black"/>
<path d="M17.5008 34.065C17.0805 34.065 16.7165 33.974 16.4088 33.792C16.1055 33.6057 15.8715 33.3457 15.7068 33.012C15.5465 32.674 15.4663 32.2775 15.4663 31.8225C15.4663 31.3675 15.5465 30.9732 15.7068 30.6395C15.8715 30.3015 16.1055 30.0415 16.4088 29.8595C16.7165 29.6732 17.0805 29.58 17.5008 29.58C17.8952 29.58 18.231 29.6493 18.5083 29.788C18.7857 29.9267 19.0002 30.1217 19.1518 30.373C19.3035 30.6243 19.3793 30.9255 19.3793 31.2765V31.3155H18.6383V31.2765C18.6383 30.9212 18.5473 30.6633 18.3653 30.503C18.1877 30.3383 17.893 30.256 17.4813 30.256C17.1823 30.256 16.9397 30.308 16.7533 30.412C16.567 30.516 16.4305 30.6828 16.3438 30.9125C16.2572 31.1422 16.2138 31.4455 16.2138 31.8225C16.2138 32.1952 16.2572 32.4985 16.3438 32.7325C16.4305 32.9622 16.567 33.129 16.7533 33.233C16.9397 33.3327 17.1823 33.3825 17.4813 33.3825C17.893 33.3825 18.1877 33.3023 18.3653 33.142C18.5473 32.9817 18.6383 32.7238 18.6383 32.3685V32.3295H19.3793V32.3685C19.3793 32.7152 19.3035 33.0163 19.1518 33.272C19.0002 33.5233 18.7857 33.7183 18.5083 33.857C18.231 33.9957 17.8952 34.065 17.5008 34.065ZM23.064 34H22.362V32.1215C22.362 31.8355 22.3057 31.6297 22.193 31.504C22.0847 31.374 21.8832 31.309 21.5885 31.309C21.3068 31.309 21.0967 31.3718 20.958 31.4975C20.8237 31.6188 20.7565 31.8333 20.7565 32.141H20.633L20.6265 31.309H20.7825C20.8345 31.2093 20.906 31.114 20.997 31.023C21.0923 30.9277 21.2115 30.8518 21.3545 30.7955C21.5018 30.7348 21.6708 30.7045 21.8615 30.7045C22.1475 30.7045 22.3772 30.7608 22.5505 30.8735C22.7282 30.9818 22.8582 31.1313 22.9405 31.322C23.0228 31.5127 23.064 31.7272 23.064 31.9655V34ZM20.7565 34H20.0545V29.645H20.7565V34ZM26.5577 34H25.9077V33.363L25.8882 33.1875V31.946C25.8882 31.7033 25.8297 31.5387 25.7127 31.452C25.6001 31.3653 25.4159 31.322 25.1602 31.322C24.9046 31.322 24.7204 31.3675 24.6077 31.4585C24.4994 31.5495 24.4452 31.7012 24.4452 31.9135V32.011H23.7692V31.946C23.7692 31.7033 23.8277 31.4888 23.9447 31.3025C24.0661 31.1162 24.2329 30.971 24.4452 30.867C24.6619 30.7587 24.9132 30.7045 25.1992 30.7045C25.5026 30.7045 25.7539 30.7608 25.9532 30.8735C26.1526 30.9862 26.3021 31.1422 26.4017 31.3415C26.5057 31.5365 26.5577 31.7683 26.5577 32.037V34ZM24.7052 34.065C24.4149 34.065 24.1701 33.9913 23.9707 33.844C23.7757 33.6923 23.6782 33.4778 23.6782 33.2005C23.6782 33.0185 23.7194 32.8668 23.8017 32.7455C23.8884 32.6242 24.0119 32.5245 24.1722 32.4465C24.3326 32.3685 24.5276 32.3143 24.7572 32.284L25.9532 32.115V32.609L24.8612 32.7715C24.6749 32.7975 24.5449 32.8365 24.4712 32.8885C24.3976 32.9405 24.3607 33.0272 24.3607 33.1485C24.3607 33.2742 24.4041 33.3652 24.4907 33.4215C24.5817 33.4778 24.7291 33.506 24.9327 33.506C25.0887 33.506 25.2382 33.4822 25.3812 33.4345C25.5286 33.3825 25.6499 33.298 25.7452 33.181C25.8406 33.0597 25.8882 32.8907 25.8882 32.674L25.9792 33.4995L25.8752 33.493C25.8146 33.5927 25.7301 33.6858 25.6217 33.7725C25.5177 33.8592 25.3899 33.9307 25.2382 33.987C25.0866 34.039 24.9089 34.065 24.7052 34.065ZM30.3182 34H29.6162V32.1215C29.6162 31.8355 29.562 31.6297 29.4537 31.504C29.3453 31.374 29.1417 31.309 28.8427 31.309C28.652 31.309 28.496 31.3372 28.3747 31.3935C28.2533 31.4455 28.1623 31.5322 28.1017 31.6535C28.041 31.7705 28.0107 31.9308 28.0107 32.1345H27.8872L27.8287 31.374H27.9847C28.0323 31.257 28.1038 31.1487 28.1992 31.049C28.2945 30.9493 28.4158 30.867 28.5632 30.802C28.7148 30.737 28.8947 30.7045 29.1027 30.7045C29.3843 30.7045 29.614 30.7587 29.7917 30.867C29.9693 30.9753 30.1015 31.1248 30.1882 31.3155C30.2748 31.5062 30.3182 31.725 30.3182 31.972V34ZM28.0107 34H27.3087V30.7695H27.9522V31.738L28.0107 31.7705V34ZM32.5059 34.0715C32.1679 34.0715 31.8819 34 31.6479 33.857C31.4139 33.714 31.234 33.5168 31.1084 33.2655C30.987 33.0142 30.9264 32.7217 30.9264 32.388C30.9264 32.0543 30.9892 31.7618 31.1149 31.5105C31.2449 31.2548 31.429 31.0577 31.6674 30.919C31.9057 30.776 32.1939 30.7045 32.5319 30.7045C32.8179 30.7045 33.0692 30.7587 33.2859 30.867C33.5025 30.9753 33.6694 31.127 33.7864 31.322C33.9077 31.517 33.9684 31.7445 33.9684 32.0045V32.063H33.2729V32.024C33.2729 31.7857 33.2079 31.6123 33.0779 31.504C32.9522 31.3913 32.755 31.335 32.4864 31.335C32.1744 31.335 31.9512 31.4238 31.8169 31.6015C31.6869 31.7748 31.6219 32.0348 31.6219 32.3815C31.6219 32.7325 31.6869 32.9968 31.8169 33.1745C31.9512 33.3478 32.1744 33.4345 32.4864 33.4345C32.755 33.4345 32.9522 33.3803 33.0779 33.272C33.2079 33.1593 33.2729 32.986 33.2729 32.752V32.713H33.9684V32.7715C33.9684 33.0228 33.9077 33.2482 33.7864 33.4475C33.665 33.6425 33.4939 33.7963 33.2729 33.909C33.0562 34.0173 32.8005 34.0715 32.5059 34.0715ZM36.0438 34.065C35.6928 34.065 35.4003 33.9957 35.1663 33.857C34.9323 33.714 34.759 33.5168 34.6463 33.2655C34.5336 33.0098 34.4773 32.7152 34.4773 32.3815C34.4773 32.0478 34.5401 31.7553 34.6658 31.504C34.7958 31.2527 34.9778 31.0577 35.2118 30.919C35.4458 30.776 35.7231 30.7045 36.0438 30.7045C36.3341 30.7045 36.5898 30.7608 36.8108 30.8735C37.0361 30.9818 37.2095 31.14 37.3308 31.348C37.4565 31.556 37.5193 31.8073 37.5193 32.102C37.5193 32.1887 37.515 32.2732 37.5063 32.3555C37.502 32.4335 37.4955 32.4985 37.4868 32.5505H34.8088V32.0825H36.9148L36.8433 32.1475C36.8606 31.9482 36.839 31.7857 36.7783 31.66C36.722 31.5343 36.6288 31.4412 36.4988 31.3805C36.3731 31.3198 36.215 31.2895 36.0243 31.2895C35.682 31.2895 35.448 31.3762 35.3223 31.5495C35.1966 31.7185 35.1338 31.9525 35.1338 32.2515V32.4465C35.1338 32.6632 35.1598 32.8473 35.2118 32.999C35.2681 33.1463 35.3635 33.2568 35.4978 33.3305C35.6321 33.4042 35.8163 33.441 36.0503 33.441C36.3233 33.441 36.5161 33.3977 36.6288 33.311C36.7415 33.2243 36.7978 33.1095 36.7978 32.9665V32.9145H37.4933V32.973C37.4933 33.194 37.4326 33.3868 37.3113 33.5515C37.19 33.7118 37.021 33.8375 36.8043 33.9285C36.592 34.0195 36.3385 34.065 36.0438 34.065Z" fill="black"/>
<path d="M25.9999 0.800193C39.7862 0.800192 50.9621 12.0826 50.9621 26.0002C50.9621 39.9178 39.7862 51.2002 25.9999 51.2002C12.2136 51.2002 1.0376 39.9178 1.0376 26.0002C1.0376 12.0826 12.2136 0.800193 25.9999 0.800193ZM25.9999 47.4202C37.7182 47.4202 47.2178 37.8301 47.2178 26.0002C47.2178 14.1703 37.7182 4.58019 25.9999 4.58019C14.2815 4.58019 4.78194 14.1703 4.78194 26.0002C4.78194 37.8301 14.2815 47.4202 25.9999 47.4202Z" fill="#DFF0D8"/>
<path d="M25.9998 0.800193C29.4424 0.800193 32.8485 1.50556 36.008 2.87277C39.1674 4.23999 42.0132 6.24006 44.3698 8.74961C46.7265 11.2591 48.5439 14.2249 49.71 17.464C50.8762 20.7031 51.3663 24.1467 51.1501 27.5825C50.9339 31.0183 50.0161 34.3734 48.4532 37.4408C46.8903 40.5081 44.7155 43.2227 42.0629 45.4171C39.4104 47.6115 36.3363 49.2391 33.0304 50.1996C29.7245 51.16 26.2569 51.433 22.8414 51.0015L23.3152 47.2513C26.2183 47.618 29.1658 47.3861 31.9758 46.5697C34.7858 45.7533 37.3988 44.3698 39.6535 42.5046C41.9081 40.6394 43.7567 38.3319 45.0852 35.7247C46.4137 33.1174 47.1938 30.2656 47.3776 27.3452C47.5613 24.4247 47.1447 21.4976 46.1535 18.7444C45.1623 15.9912 43.6175 13.4703 41.6143 11.3372C39.6112 9.20408 37.1923 7.50402 34.5067 6.34189C31.8212 5.17975 28.926 4.58019 25.9998 4.58019L25.9998 0.800193Z" fill="#0C3A25"/>
</svg>
