<svg width="453" height="160" viewBox="0 0 453 160" fill="none" xmlns="http://www.w3.org/2000/svg">
<path d="M205.432 81.32C199.64 81.32 196.76 78.824 196.76 74.856V74.6H201.528V74.856C201.528 76.424 202.808 76.936 205.656 76.936C208.696 76.936 209.752 76.136 209.752 73.96C209.752 71.72 208.6 70.952 205.592 70.952C203.448 70.952 201.88 71.624 201.176 72.04L196.92 71.464L197.56 59.56H213.304V63.88H201.816L201.464 68.552H201.592C202.424 67.784 204.28 66.888 207.192 66.888C211.928 66.888 214.456 69.544 214.456 73.8C214.456 78.184 211.928 81.32 205.432 81.32ZM234.371 81H217.603V78.12C217.603 73.96 220.419 72.232 223.395 70.792L227.107 69.032C228.995 68.136 229.667 67.432 229.667 66.024C229.667 64.488 228.963 63.624 226.115 63.624C223.011 63.624 222.371 64.488 222.371 66.792V67.336H217.571V66.824C217.571 62.664 220.131 59.24 226.499 59.24C232.163 59.24 234.435 62.12 234.435 65.992C234.435 69.704 231.811 71.592 229.027 72.84L225.795 74.248C224.035 75.048 222.723 75.72 222.723 76.744L226.179 76.68H234.371V81ZM242.646 69.864C239.19 69.864 237.014 67.848 237.014 64.552C237.014 61.256 239.19 59.24 242.646 59.24C246.07 59.24 248.246 61.256 248.246 64.552C248.246 67.848 246.07 69.864 242.646 69.864ZM243.574 81H239.19L254.646 59.56H258.998L243.574 81ZM242.646 66.6C244.15 66.6 244.661 66.216 244.661 64.552C244.661 62.888 244.15 62.504 242.646 62.504C241.141 62.504 240.63 62.888 240.63 64.552C240.63 66.216 241.141 66.6 242.646 66.6ZM255.574 81.32C252.118 81.32 249.942 79.304 249.942 76.008C249.942 72.712 252.118 70.696 255.574 70.696C259.03 70.696 261.174 72.712 261.174 76.008C261.174 79.304 259.03 81.32 255.574 81.32ZM255.574 78.056C257.078 78.056 257.59 77.672 257.59 76.008C257.59 74.344 257.078 73.96 255.574 73.96C254.069 73.96 253.558 74.344 253.558 76.008C253.558 77.672 254.069 78.056 255.574 78.056Z" fill="black"/>
<path d="M175.259 105.16C174.128 105.16 173.259 104.787 172.651 104.04C172.053 103.283 171.755 102.275 171.755 101.016C171.755 99.7573 172.048 98.7547 172.635 98.008C173.232 97.2613 174.075 96.888 175.163 96.888C175.867 96.888 176.432 97.032 176.859 97.32C177.296 97.5973 177.6 97.9173 177.771 98.28H178.203L178.123 100.312H177.819C177.819 99.864 177.733 99.496 177.563 99.208C177.392 98.92 177.147 98.7067 176.827 98.568C176.507 98.4293 176.112 98.36 175.643 98.36C175.259 98.36 174.928 98.408 174.651 98.504C174.384 98.6 174.16 98.7493 173.979 98.952C173.808 99.1547 173.68 99.4267 173.595 99.768C173.52 100.109 173.483 100.525 173.483 101.016C173.483 101.496 173.52 101.912 173.595 102.264C173.68 102.605 173.808 102.883 173.979 103.096C174.16 103.299 174.389 103.448 174.667 103.544C174.944 103.64 175.269 103.688 175.643 103.688C176.112 103.688 176.507 103.619 176.827 103.48C177.147 103.331 177.392 103.112 177.563 102.824C177.733 102.536 177.819 102.173 177.819 101.736H178.123L178.203 103.688H177.883C177.701 104.147 177.387 104.509 176.939 104.776C176.501 105.032 175.941 105.16 175.259 105.16ZM179.547 105H177.947V103.112L177.819 102.904V94.28H179.547V105ZM184.97 105.16C184.106 105.16 183.386 104.989 182.81 104.648C182.234 104.296 181.807 103.811 181.53 103.192C181.253 102.563 181.114 101.837 181.114 101.016C181.114 100.195 181.269 99.4747 181.578 98.856C181.898 98.2373 182.346 97.7573 182.922 97.416C183.498 97.064 184.181 96.888 184.97 96.888C185.685 96.888 186.314 97.0267 186.858 97.304C187.413 97.5707 187.839 97.96 188.138 98.472C188.447 98.984 188.602 99.6027 188.602 100.328C188.602 100.541 188.591 100.749 188.57 100.952C188.559 101.144 188.543 101.304 188.522 101.432H181.93V100.28H187.114L186.938 100.44C186.981 99.9493 186.927 99.5493 186.778 99.24C186.639 98.9307 186.41 98.7013 186.09 98.552C185.781 98.4027 185.391 98.328 184.922 98.328C184.079 98.328 183.503 98.5413 183.194 98.968C182.885 99.384 182.73 99.96 182.73 100.696V101.176C182.73 101.709 182.794 102.163 182.922 102.536C183.061 102.899 183.295 103.171 183.626 103.352C183.957 103.533 184.41 103.624 184.986 103.624C185.658 103.624 186.133 103.517 186.41 103.304C186.687 103.091 186.826 102.808 186.826 102.456V102.328H188.538V102.472C188.538 103.016 188.389 103.491 188.09 103.896C187.791 104.291 187.375 104.6 186.842 104.824C186.319 105.048 185.695 105.16 184.97 105.16ZM197.927 105.16C197.212 105.16 196.631 105.021 196.183 104.744C195.745 104.456 195.441 104.131 195.271 103.768H194.839L194.919 101.736H195.223C195.223 102.173 195.303 102.536 195.463 102.824C195.633 103.112 195.884 103.331 196.215 103.48C196.545 103.619 196.94 103.688 197.399 103.688C197.772 103.688 198.097 103.64 198.375 103.544C198.652 103.448 198.876 103.299 199.047 103.096C199.228 102.893 199.356 102.621 199.431 102.28C199.516 101.928 199.559 101.507 199.559 101.016C199.559 100.525 199.516 100.115 199.431 99.784C199.356 99.4427 199.228 99.1653 199.047 98.952C198.876 98.7387 198.652 98.5893 198.375 98.504C198.108 98.408 197.783 98.36 197.399 98.36C196.94 98.36 196.545 98.4347 196.215 98.584C195.884 98.7227 195.633 98.936 195.463 99.224C195.303 99.5013 195.223 99.864 195.223 100.312H194.919L194.839 98.36H195.159C195.351 97.9013 195.665 97.544 196.103 97.288C196.551 97.0213 197.121 96.888 197.815 96.888C198.935 96.888 199.793 97.2613 200.391 98.008C200.988 98.7547 201.287 99.7573 201.287 101.016C201.287 102.275 200.999 103.283 200.423 104.04C199.847 104.787 199.015 105.16 197.927 105.16ZM195.223 107.768H193.511V97.048H195.079V98.936L195.223 99.144V107.768ZM204.646 105H202.918V97H204.502V99.224L204.646 99.304V105ZM204.646 99.816H204.246V98.264H204.582C204.742 97.8907 205.004 97.5707 205.366 97.304C205.74 97.0267 206.22 96.888 206.806 96.888C207.372 96.888 207.82 97.0107 208.15 97.256C208.492 97.5013 208.737 97.8267 208.886 98.232C209.036 98.6373 209.11 99.0907 209.11 99.592V100.12H207.382V99.8C207.382 99.2667 207.292 98.8933 207.11 98.68C206.929 98.4667 206.588 98.36 206.086 98.36C205.564 98.36 205.19 98.472 204.966 98.696C204.753 98.9093 204.646 99.2827 204.646 99.816ZM214.113 105.16C213.303 105.16 212.599 104.989 212.001 104.648C211.404 104.296 210.945 103.811 210.625 103.192C210.305 102.563 210.145 101.837 210.145 101.016C210.145 100.195 210.305 99.4747 210.625 98.856C210.945 98.2373 211.404 97.7573 212.001 97.416C212.599 97.064 213.303 96.888 214.113 96.888C214.924 96.888 215.617 97.064 216.193 97.416C216.78 97.7573 217.228 98.2373 217.537 98.856C217.857 99.4747 218.017 100.195 218.017 101.016C218.017 101.837 217.857 102.563 217.537 103.192C217.228 103.811 216.78 104.296 216.193 104.648C215.617 104.989 214.924 105.16 214.113 105.16ZM214.113 103.624C214.945 103.624 215.527 103.416 215.857 103C216.188 102.573 216.353 101.912 216.353 101.016C216.353 100.12 216.188 99.464 215.857 99.048C215.527 98.632 214.945 98.424 214.113 98.424C213.271 98.424 212.684 98.632 212.353 99.048C212.023 99.464 211.857 100.12 211.857 101.016C211.857 101.912 212.023 102.573 212.353 103C212.684 103.416 213.271 103.624 214.113 103.624ZM223.911 105.16C223.217 105.16 222.647 105.032 222.199 104.776C221.751 104.509 221.425 104.147 221.223 103.688H220.903L220.999 101.736H221.303C221.303 102.173 221.383 102.536 221.543 102.824C221.713 103.112 221.959 103.331 222.279 103.48C222.609 103.619 223.004 103.688 223.463 103.688C223.847 103.688 224.172 103.64 224.439 103.544C224.716 103.448 224.945 103.299 225.127 103.096C225.308 102.883 225.436 102.605 225.511 102.264C225.596 101.912 225.639 101.496 225.639 101.016C225.639 100.525 225.596 100.109 225.511 99.768C225.436 99.4267 225.308 99.1547 225.127 98.952C224.956 98.7493 224.732 98.6 224.455 98.504C224.177 98.408 223.847 98.36 223.463 98.36C223.004 98.36 222.609 98.4293 222.279 98.568C221.959 98.7067 221.713 98.92 221.543 99.208C221.383 99.496 221.303 99.864 221.303 100.312H220.999L220.903 98.312H221.351C221.521 97.9493 221.831 97.624 222.279 97.336C222.737 97.0373 223.313 96.888 224.007 96.888C225.105 96.888 225.937 97.2613 226.503 98.008C227.079 98.7547 227.367 99.7573 227.367 101.016C227.367 102.275 227.068 103.283 226.471 104.04C225.884 104.787 225.031 105.16 223.911 105.16ZM221.159 105H219.575V94.28H221.303V102.904L221.159 103.112V105ZM235.717 105H234.117V103.432L234.069 103V99.944C234.069 99.3467 233.925 98.9413 233.637 98.728C233.359 98.5147 232.906 98.408 232.277 98.408C231.647 98.408 231.194 98.52 230.917 98.744C230.65 98.968 230.517 99.3413 230.517 99.864V100.104H228.853V99.944C228.853 99.3467 228.997 98.8187 229.285 98.36C229.583 97.9013 229.994 97.544 230.517 97.288C231.05 97.0213 231.669 96.888 232.373 96.888C233.119 96.888 233.738 97.0267 234.229 97.304C234.719 97.5813 235.087 97.9653 235.333 98.456C235.589 98.936 235.717 99.5067 235.717 100.168V105ZM231.157 105.16C230.442 105.16 229.839 104.979 229.349 104.616C228.869 104.243 228.629 103.715 228.629 103.032C228.629 102.584 228.73 102.211 228.933 101.912C229.146 101.613 229.45 101.368 229.845 101.176C230.239 100.984 230.719 100.851 231.285 100.776L234.229 100.36V101.576L231.541 101.976C231.082 102.04 230.762 102.136 230.581 102.264C230.399 102.392 230.309 102.605 230.309 102.904C230.309 103.213 230.415 103.437 230.629 103.576C230.853 103.715 231.215 103.784 231.717 103.784C232.101 103.784 232.469 103.725 232.821 103.608C233.183 103.48 233.482 103.272 233.717 102.984C233.951 102.685 234.069 102.269 234.069 101.736L234.293 103.768L234.037 103.752C233.887 103.997 233.679 104.227 233.413 104.44C233.157 104.653 232.842 104.829 232.469 104.968C232.095 105.096 231.658 105.16 231.157 105.16ZM241.957 105.16C241.264 105.16 240.693 105.032 240.245 104.776C239.797 104.509 239.472 104.147 239.269 103.688H238.949L239.045 101.736H239.349C239.349 102.173 239.429 102.536 239.589 102.824C239.76 103.112 240.005 103.331 240.325 103.48C240.656 103.619 241.051 103.688 241.509 103.688C241.893 103.688 242.219 103.64 242.485 103.544C242.763 103.448 242.992 103.299 243.173 103.096C243.355 102.883 243.483 102.605 243.557 102.264C243.643 101.912 243.685 101.496 243.685 101.016C243.685 100.525 243.643 100.109 243.557 99.768C243.483 99.4267 243.355 99.1547 243.173 98.952C243.003 98.7493 242.779 98.6 242.501 98.504C242.224 98.408 241.893 98.36 241.509 98.36C241.051 98.36 240.656 98.4293 240.325 98.568C240.005 98.7067 239.76 98.92 239.589 99.208C239.429 99.496 239.349 99.864 239.349 100.312H239.045L238.949 98.312H239.397C239.568 97.9493 239.877 97.624 240.325 97.336C240.784 97.0373 241.36 96.888 242.053 96.888C243.152 96.888 243.984 97.2613 244.549 98.008C245.125 98.7547 245.413 99.7573 245.413 101.016C245.413 102.275 245.115 103.283 244.517 104.04C243.931 104.787 243.077 105.16 241.957 105.16ZM239.205 105H237.621V94.28H239.349V102.904L239.205 103.112V105ZM248.581 96.04H246.869L246.853 94.28H248.581V96.04ZM248.597 105H246.869V97H248.597V105ZM252.162 105H250.434V94.28H252.162V105ZM255.722 96.04H254.01L253.994 94.28H255.722V96.04ZM255.738 105H254.01V97H255.738V105ZM260.68 105.16C259.55 105.16 258.68 104.787 258.072 104.04C257.475 103.283 257.176 102.275 257.176 101.016C257.176 99.7573 257.47 98.7547 258.056 98.008C258.654 97.2613 259.496 96.888 260.584 96.888C261.288 96.888 261.854 97.032 262.28 97.32C262.718 97.5973 263.022 97.9173 263.192 98.28H263.624L263.544 100.312H263.24C263.24 99.864 263.155 99.496 262.984 99.208C262.814 98.92 262.568 98.7067 262.248 98.568C261.928 98.4293 261.534 98.36 261.064 98.36C260.68 98.36 260.35 98.408 260.072 98.504C259.806 98.6 259.582 98.7493 259.4 98.952C259.23 99.1547 259.102 99.4267 259.016 99.768C258.942 100.109 258.904 100.525 258.904 101.016C258.904 101.496 258.942 101.912 259.016 102.264C259.102 102.605 259.23 102.883 259.4 103.096C259.582 103.299 259.811 103.448 260.088 103.544C260.366 103.64 260.691 103.688 261.064 103.688C261.534 103.688 261.928 103.619 262.248 103.48C262.568 103.331 262.814 103.112 262.984 102.824C263.155 102.536 263.24 102.173 263.24 101.736H263.544L263.624 103.688H263.304C263.123 104.147 262.808 104.509 262.36 104.776C261.923 105.032 261.363 105.16 260.68 105.16ZM264.968 105H263.368V103.112L263.24 102.904V94.28H264.968V105ZM273.576 105H271.976V103.432L271.928 103V99.944C271.928 99.3467 271.784 98.9413 271.496 98.728C271.219 98.5147 270.766 98.408 270.136 98.408C269.507 98.408 269.054 98.52 268.776 98.744C268.51 98.968 268.376 99.3413 268.376 99.864V100.104H266.712V99.944C266.712 99.3467 266.856 98.8187 267.144 98.36C267.443 97.9013 267.854 97.544 268.376 97.288C268.91 97.0213 269.528 96.888 270.232 96.888C270.979 96.888 271.598 97.0267 272.088 97.304C272.579 97.5813 272.947 97.9653 273.192 98.456C273.448 98.936 273.576 99.5067 273.576 100.168V105ZM269.016 105.16C268.302 105.16 267.699 104.979 267.208 104.616C266.728 104.243 266.488 103.715 266.488 103.032C266.488 102.584 266.59 102.211 266.792 101.912C267.006 101.613 267.31 101.368 267.704 101.176C268.099 100.984 268.579 100.851 269.144 100.776L272.088 100.36V101.576L269.4 101.976C268.942 102.04 268.622 102.136 268.44 102.264C268.259 102.392 268.168 102.605 268.168 102.904C268.168 103.213 268.275 103.437 268.488 103.576C268.712 103.715 269.075 103.784 269.576 103.784C269.96 103.784 270.328 103.725 270.68 103.608C271.043 103.48 271.342 103.272 271.576 102.984C271.811 102.685 271.928 102.269 271.928 101.736L272.152 103.768L271.896 103.752C271.747 103.997 271.539 104.227 271.272 104.44C271.016 104.653 270.702 104.829 270.328 104.968C269.955 105.096 269.518 105.16 269.016 105.16ZM278.634 105.16C277.503 105.16 276.634 104.787 276.026 104.04C275.428 103.283 275.13 102.275 275.13 101.016C275.13 99.7573 275.423 98.7547 276.01 98.008C276.607 97.2613 277.45 96.888 278.538 96.888C279.242 96.888 279.807 97.032 280.234 97.32C280.671 97.5973 280.975 97.9173 281.146 98.28H281.578L281.498 100.312H281.194C281.194 99.864 281.108 99.496 280.938 99.208C280.767 98.92 280.522 98.7067 280.202 98.568C279.882 98.4293 279.487 98.36 279.018 98.36C278.634 98.36 278.303 98.408 278.026 98.504C277.759 98.6 277.535 98.7493 277.354 98.952C277.183 99.1547 277.055 99.4267 276.97 99.768C276.895 100.109 276.858 100.525 276.858 101.016C276.858 101.496 276.895 101.912 276.97 102.264C277.055 102.605 277.183 102.883 277.354 103.096C277.535 103.299 277.764 103.448 278.042 103.544C278.319 103.64 278.644 103.688 279.018 103.688C279.487 103.688 279.882 103.619 280.202 103.48C280.522 103.331 280.767 103.112 280.938 102.824C281.108 102.536 281.194 102.173 281.194 101.736H281.498L281.578 103.688H281.258C281.076 104.147 280.762 104.509 280.314 104.776C279.876 105.032 279.316 105.16 278.634 105.16ZM282.922 105H281.322V103.112L281.194 102.904V94.28H282.922V105Z" fill="black"/>
<path d="M227.755 4.22795e-05C271.938 4.03482e-05 307.755 35.8172 307.755 80C307.755 124.183 271.938 160 227.755 160C183.572 160 147.755 124.183 147.755 80C147.755 35.8173 183.572 4.42107e-05 227.755 4.22795e-05ZM227.755 148.8C265.752 148.8 296.555 117.997 296.555 80C296.555 42.0028 265.752 11.2 227.755 11.2C189.758 11.2 158.955 42.0028 158.955 80C158.955 117.997 189.758 148.8 227.755 148.8Z" fill="#DFF0D8"/>
<path d="M227.755 4.22795e-05C238.684 4.18017e-05 249.497 2.2393 259.527 6.57967C269.557 10.92 278.591 17.2695 286.072 25.2363C293.554 33.2031 299.323 42.6182 303.025 52.901C306.727 63.1837 308.283 74.116 307.597 85.0233C306.911 95.9305 303.997 106.582 299.035 116.319C294.074 126.057 287.17 134.675 278.749 141.641C270.328 148.607 260.569 153.774 250.074 156.823C239.579 159.873 228.571 160.739 217.728 159.369L219.132 148.257C228.457 149.435 237.924 148.69 246.949 146.068C255.975 143.446 264.368 139.002 271.61 133.011C278.852 127.02 284.789 119.609 289.056 111.235C293.323 102.86 295.829 93.7003 296.419 84.32C297.009 74.9397 295.671 65.538 292.487 56.6949C289.304 47.8517 284.342 39.7546 277.908 32.9032C271.474 26.0517 263.704 20.5912 255.079 16.8585C246.453 13.1258 237.154 11.2 227.755 11.2L227.755 4.22795e-05Z" fill="#0C3A25"/>
<path d="M0.666667 81C0.666667 83.9455 3.05448 86.3333 6 86.3333C8.94552 86.3333 11.3333 83.9455 11.3333 81C11.3333 78.0545 8.94552 75.6667 6 75.6667C3.05448 75.6667 0.666667 78.0545 0.666667 81ZM6 82H137V80H6V82Z" fill="#B3B3B3"/>
<path d="M441.667 80.041C441.689 82.9864 444.095 85.3559 447.041 85.3334C449.986 85.3109 452.356 82.905 452.333 79.9595C452.311 77.0141 449.905 74.6446 446.959 74.6671C444.014 74.6896 441.644 77.0955 441.667 80.041ZM316.008 82.0002L447.008 81.0002L446.992 79.0003L315.992 80.0003L316.008 82.0002Z" fill="#B3B3B3"/>
</svg>
