<svg width="60" height="59" viewBox="0 0 60 59" fill="none" xmlns="http://www.w3.org/2000/svg">
<path d="M23.0208 27.608C21.066 27.608 20.094 26.7656 20.094 25.4264V25.34H21.7032V25.4264C21.7032 25.9556 22.1352 26.1284 23.0964 26.1284C24.1224 26.1284 24.4788 25.8584 24.4788 25.124C24.4788 24.368 24.09 24.1088 23.0748 24.1088C22.3512 24.1088 21.822 24.3356 21.5844 24.476L20.148 24.2816L20.364 20.264H25.6776V21.722H21.8004L21.6816 23.2988H21.7248C22.0056 23.0396 22.632 22.7372 23.6148 22.7372C25.2132 22.7372 26.0664 23.6336 26.0664 25.07C26.0664 26.5496 25.2132 27.608 23.0208 27.608ZM32.7877 27.5H27.1285V26.528C27.1285 25.124 28.0789 24.5408 29.0833 24.0548L30.3361 23.4608C30.9733 23.1584 31.2001 22.9208 31.2001 22.4456C31.2001 21.9272 30.9625 21.6356 30.0013 21.6356C28.9537 21.6356 28.7377 21.9272 28.7377 22.7048V22.8884H27.1177V22.7156C27.1177 21.3116 27.9817 20.156 30.1309 20.156C32.0425 20.156 32.8093 21.128 32.8093 22.4348C32.8093 23.6876 31.9237 24.3248 30.9841 24.746L29.8933 25.2212C29.2993 25.4912 28.8565 25.718 28.8565 26.0636L30.0229 26.042H32.7877V27.5ZM35.5804 23.7416C34.414 23.7416 33.6796 23.0612 33.6796 21.9488C33.6796 20.8364 34.414 20.156 35.5804 20.156C36.736 20.156 37.4704 20.8364 37.4704 21.9488C37.4704 23.0612 36.736 23.7416 35.5804 23.7416ZM35.8936 27.5H34.414L39.6304 20.264H41.0992L35.8936 27.5ZM35.5804 22.64C36.088 22.64 36.2608 22.5104 36.2608 21.9488C36.2608 21.3872 36.088 21.2576 35.5804 21.2576C35.0728 21.2576 34.9 21.3872 34.9 21.9488C34.9 22.5104 35.0728 22.64 35.5804 22.64ZM39.9436 27.608C38.7772 27.608 38.0428 26.9276 38.0428 25.8152C38.0428 24.7028 38.7772 24.0224 39.9436 24.0224C41.11 24.0224 41.8336 24.7028 41.8336 25.8152C41.8336 26.9276 41.11 27.608 39.9436 27.608ZM39.9436 26.5064C40.4512 26.5064 40.624 26.3768 40.624 25.8152C40.624 25.2536 40.4512 25.124 39.9436 25.124C39.436 25.124 39.2632 25.2536 39.2632 25.8152C39.2632 26.3768 39.436 26.5064 39.9436 26.5064Z" fill="black"/>
<path d="M11.5145 36.56C11.0905 36.56 10.7645 36.42 10.5365 36.14C10.3125 35.856 10.2005 35.478 10.2005 35.006C10.2005 34.534 10.3105 34.158 10.5305 33.878C10.7545 33.598 11.0705 33.458 11.4785 33.458C11.7425 33.458 11.9545 33.512 12.1145 33.62C12.2785 33.724 12.3925 33.844 12.4565 33.98H12.6185L12.5885 34.742H12.4745C12.4745 34.574 12.4425 34.436 12.3785 34.328C12.3145 34.22 12.2225 34.14 12.1025 34.088C11.9825 34.036 11.8345 34.01 11.6585 34.01C11.5145 34.01 11.3905 34.028 11.2865 34.064C11.1865 34.1 11.1025 34.156 11.0345 34.232C10.9705 34.308 10.9225 34.41 10.8905 34.538C10.8625 34.666 10.8485 34.822 10.8485 35.006C10.8485 35.186 10.8625 35.342 10.8905 35.474C10.9225 35.602 10.9705 35.706 11.0345 35.786C11.1025 35.862 11.1885 35.918 11.2925 35.954C11.3965 35.99 11.5185 36.008 11.6585 36.008C11.8345 36.008 11.9825 35.982 12.1025 35.93C12.2225 35.874 12.3145 35.792 12.3785 35.684C12.4425 35.576 12.4745 35.44 12.4745 35.276H12.5885L12.6185 36.008H12.4985C12.4305 36.18 12.3125 36.316 12.1445 36.416C11.9805 36.512 11.7705 36.56 11.5145 36.56ZM13.1225 36.5H12.5225V35.792L12.4745 35.714V32.48H13.1225V36.5ZM15.1412 36.56C14.8172 36.56 14.5472 36.496 14.3312 36.368C14.1152 36.236 13.9552 36.054 13.8512 35.822C13.7472 35.586 13.6952 35.314 13.6952 35.006C13.6952 34.698 13.7532 34.428 13.8692 34.196C13.9892 33.964 14.1572 33.784 14.3732 33.656C14.5892 33.524 14.8452 33.458 15.1412 33.458C15.4092 33.458 15.6452 33.51 15.8492 33.614C16.0572 33.714 16.2172 33.86 16.3292 34.052C16.4452 34.244 16.5032 34.476 16.5032 34.748C16.5032 34.828 16.4992 34.906 16.4912 34.982C16.4872 35.054 16.4812 35.114 16.4732 35.162H14.0012V34.73H15.9452L15.8792 34.79C15.8952 34.606 15.8752 34.456 15.8192 34.34C15.7672 34.224 15.6812 34.138 15.5612 34.082C15.4452 34.026 15.2992 33.998 15.1232 33.998C14.8072 33.998 14.5912 34.078 14.4752 34.238C14.3592 34.394 14.3012 34.61 14.3012 34.886V35.066C14.3012 35.266 14.3252 35.436 14.3732 35.576C14.4252 35.712 14.5132 35.814 14.6372 35.882C14.7612 35.95 14.9312 35.984 15.1472 35.984C15.3992 35.984 15.5772 35.944 15.6812 35.864C15.7852 35.784 15.8372 35.678 15.8372 35.546V35.498H16.4792V35.552C16.4792 35.756 16.4232 35.934 16.3112 36.086C16.1992 36.234 16.0432 36.35 15.8432 36.434C15.6472 36.518 15.4132 36.56 15.1412 36.56ZM19.97 36.56C19.702 36.56 19.484 36.508 19.316 36.404C19.152 36.296 19.038 36.174 18.974 36.038H18.812L18.842 35.276H18.956C18.956 35.44 18.986 35.576 19.046 35.684C19.11 35.792 19.204 35.874 19.328 35.93C19.452 35.982 19.6 36.008 19.772 36.008C19.912 36.008 20.034 35.99 20.138 35.954C20.242 35.918 20.326 35.862 20.39 35.786C20.458 35.71 20.506 35.608 20.534 35.48C20.566 35.348 20.582 35.19 20.582 35.006C20.582 34.822 20.566 34.668 20.534 34.544C20.506 34.416 20.458 34.312 20.39 34.232C20.326 34.152 20.242 34.096 20.138 34.064C20.038 34.028 19.916 34.01 19.772 34.01C19.6 34.01 19.452 34.038 19.328 34.094C19.204 34.146 19.11 34.226 19.046 34.334C18.986 34.438 18.956 34.574 18.956 34.742H18.842L18.812 34.01H18.932C19.004 33.838 19.122 33.704 19.286 33.608C19.454 33.508 19.668 33.458 19.928 33.458C20.348 33.458 20.67 33.598 20.894 33.878C21.118 34.158 21.23 34.534 21.23 35.006C21.23 35.478 21.122 35.856 20.906 36.14C20.69 36.42 20.378 36.56 19.97 36.56ZM18.956 37.538H18.314V33.518H18.902V34.226L18.956 34.304V37.538ZM22.4749 36.5H21.8269V33.5H22.4209V34.334L22.4749 34.364V36.5ZM22.4749 34.556H22.3249V33.974H22.4509C22.5109 33.834 22.6089 33.714 22.7449 33.614C22.8849 33.51 23.0649 33.458 23.2849 33.458C23.4969 33.458 23.6649 33.504 23.7889 33.596C23.9169 33.688 24.0089 33.81 24.0649 33.962C24.1209 34.114 24.1489 34.284 24.1489 34.472V34.67H23.5009V34.55C23.5009 34.35 23.4669 34.21 23.3989 34.13C23.3309 34.05 23.2029 34.01 23.0149 34.01C22.8189 34.01 22.6789 34.052 22.5949 34.136C22.5149 34.216 22.4749 34.356 22.4749 34.556ZM26.0099 36.56C25.7059 36.56 25.4419 36.496 25.2179 36.368C24.9939 36.236 24.8219 36.054 24.7019 35.822C24.5819 35.586 24.5219 35.314 24.5219 35.006C24.5219 34.698 24.5819 34.428 24.7019 34.196C24.8219 33.964 24.9939 33.784 25.2179 33.656C25.4419 33.524 25.7059 33.458 26.0099 33.458C26.3139 33.458 26.5739 33.524 26.7899 33.656C27.0099 33.784 27.1779 33.964 27.2939 34.196C27.4139 34.428 27.4739 34.698 27.4739 35.006C27.4739 35.314 27.4139 35.586 27.2939 35.822C27.1779 36.054 27.0099 36.236 26.7899 36.368C26.5739 36.496 26.3139 36.56 26.0099 36.56ZM26.0099 35.984C26.3219 35.984 26.5399 35.906 26.6639 35.75C26.7879 35.59 26.8499 35.342 26.8499 35.006C26.8499 34.67 26.7879 34.424 26.6639 34.268C26.5399 34.112 26.3219 34.034 26.0099 34.034C25.6939 34.034 25.4739 34.112 25.3499 34.268C25.2259 34.424 25.1639 34.67 25.1639 35.006C25.1639 35.342 25.2259 35.59 25.3499 35.75C25.4739 35.906 25.6939 35.984 26.0099 35.984ZM29.669 36.56C29.409 36.56 29.195 36.512 29.027 36.416C28.859 36.316 28.737 36.18 28.661 36.008H28.541L28.577 35.276H28.691C28.691 35.44 28.721 35.576 28.781 35.684C28.845 35.792 28.937 35.874 29.057 35.93C29.181 35.982 29.329 36.008 29.501 36.008C29.645 36.008 29.767 35.99 29.867 35.954C29.971 35.918 30.057 35.862 30.125 35.786C30.193 35.706 30.241 35.602 30.269 35.474C30.301 35.342 30.317 35.186 30.317 35.006C30.317 34.822 30.301 34.666 30.269 34.538C30.241 34.41 30.193 34.308 30.125 34.232C30.061 34.156 29.977 34.1 29.873 34.064C29.769 34.028 29.645 34.01 29.501 34.01C29.329 34.01 29.181 34.036 29.057 34.088C28.937 34.14 28.845 34.22 28.781 34.328C28.721 34.436 28.691 34.574 28.691 34.742H28.577L28.541 33.992H28.709C28.773 33.856 28.889 33.734 29.057 33.626C29.229 33.514 29.445 33.458 29.705 33.458C30.117 33.458 30.429 33.598 30.641 33.878C30.857 34.158 30.965 34.534 30.965 35.006C30.965 35.478 30.853 35.856 30.629 36.14C30.409 36.42 30.089 36.56 29.669 36.56ZM28.637 36.5H28.043V32.48H28.691V35.714L28.637 35.792V36.5ZM34.0813 36.5H33.4813V35.912L33.4633 35.75V34.604C33.4633 34.38 33.4093 34.228 33.3013 34.148C33.1973 34.068 33.0273 34.028 32.7913 34.028C32.5553 34.028 32.3853 34.07 32.2813 34.154C32.1813 34.238 32.1313 34.378 32.1313 34.574V34.664H31.5073V34.604C31.5073 34.38 31.5613 34.182 31.6693 34.01C31.7813 33.838 31.9353 33.704 32.1313 33.608C32.3313 33.508 32.5633 33.458 32.8273 33.458C33.1073 33.458 33.3393 33.51 33.5233 33.614C33.7073 33.718 33.8453 33.862 33.9373 34.046C34.0333 34.226 34.0813 34.44 34.0813 34.688V36.5ZM32.3713 36.56C32.1033 36.56 31.8773 36.492 31.6933 36.356C31.5133 36.216 31.4233 36.018 31.4233 35.762C31.4233 35.594 31.4613 35.454 31.5373 35.342C31.6173 35.23 31.7313 35.138 31.8793 35.066C32.0273 34.994 32.2073 34.944 32.4193 34.916L33.5233 34.76V35.216L32.5153 35.366C32.3433 35.39 32.2233 35.426 32.1553 35.474C32.0873 35.522 32.0533 35.602 32.0533 35.714C32.0533 35.83 32.0933 35.914 32.1733 35.966C32.2573 36.018 32.3933 36.044 32.5813 36.044C32.7253 36.044 32.8633 36.022 32.9953 35.978C33.1313 35.93 33.2433 35.852 33.3313 35.744C33.4193 35.632 33.4633 35.476 33.4633 35.276L33.5473 36.038L33.4513 36.032C33.3953 36.124 33.3173 36.21 33.2173 36.29C33.1213 36.37 33.0033 36.436 32.8633 36.488C32.7233 36.536 32.5593 36.56 32.3713 36.56ZM36.4065 36.56C36.1465 36.56 35.9325 36.512 35.7645 36.416C35.5965 36.316 35.4745 36.18 35.3985 36.008H35.2785L35.3145 35.276H35.4285C35.4285 35.44 35.4585 35.576 35.5185 35.684C35.5825 35.792 35.6745 35.874 35.7945 35.93C35.9185 35.982 36.0665 36.008 36.2385 36.008C36.3825 36.008 36.5045 35.99 36.6045 35.954C36.7085 35.918 36.7945 35.862 36.8625 35.786C36.9305 35.706 36.9785 35.602 37.0065 35.474C37.0385 35.342 37.0545 35.186 37.0545 35.006C37.0545 34.822 37.0385 34.666 37.0065 34.538C36.9785 34.41 36.9305 34.308 36.8625 34.232C36.7985 34.156 36.7145 34.1 36.6105 34.064C36.5065 34.028 36.3825 34.01 36.2385 34.01C36.0665 34.01 35.9185 34.036 35.7945 34.088C35.6745 34.14 35.5825 34.22 35.5185 34.328C35.4585 34.436 35.4285 34.574 35.4285 34.742H35.3145L35.2785 33.992H35.4465C35.5105 33.856 35.6265 33.734 35.7945 33.626C35.9665 33.514 36.1825 33.458 36.4425 33.458C36.8545 33.458 37.1665 33.598 37.3785 33.878C37.5945 34.158 37.7025 34.534 37.7025 35.006C37.7025 35.478 37.5905 35.856 37.3665 36.14C37.1465 36.42 36.8265 36.56 36.4065 36.56ZM35.3745 36.5H34.7805V32.48H35.4285V35.714L35.3745 35.792V36.5ZM38.8754 33.14H38.2334L38.2274 32.48H38.8754V33.14ZM38.8814 36.5H38.2334V33.5H38.8814V36.5ZM40.2032 36.5H39.5552V32.48H40.2032V36.5ZM41.5232 33.14H40.8812L40.8752 32.48H41.5232V33.14ZM41.5292 36.5H40.8812V33.5H41.5292V36.5ZM43.3677 36.56C42.9437 36.56 42.6177 36.42 42.3897 36.14C42.1657 35.856 42.0537 35.478 42.0537 35.006C42.0537 34.534 42.1637 34.158 42.3837 33.878C42.6077 33.598 42.9237 33.458 43.3317 33.458C43.5957 33.458 43.8077 33.512 43.9677 33.62C44.1317 33.724 44.2457 33.844 44.3097 33.98H44.4717L44.4417 34.742H44.3277C44.3277 34.574 44.2957 34.436 44.2317 34.328C44.1677 34.22 44.0757 34.14 43.9557 34.088C43.8357 34.036 43.6877 34.01 43.5117 34.01C43.3677 34.01 43.2437 34.028 43.1397 34.064C43.0397 34.1 42.9557 34.156 42.8877 34.232C42.8237 34.308 42.7757 34.41 42.7437 34.538C42.7157 34.666 42.7017 34.822 42.7017 35.006C42.7017 35.186 42.7157 35.342 42.7437 35.474C42.7757 35.602 42.8237 35.706 42.8877 35.786C42.9557 35.862 43.0417 35.918 43.1457 35.954C43.2497 35.99 43.3717 36.008 43.5117 36.008C43.6877 36.008 43.8357 35.982 43.9557 35.93C44.0757 35.874 44.1677 35.792 44.2317 35.684C44.2957 35.576 44.3277 35.44 44.3277 35.276H44.4417L44.4717 36.008H44.3517C44.2837 36.18 44.1657 36.316 43.9977 36.416C43.8337 36.512 43.6237 36.56 43.3677 36.56ZM44.9757 36.5H44.3757V35.792L44.3277 35.714V32.48H44.9757V36.5ZM48.1886 36.5H47.5886V35.912L47.5706 35.75V34.604C47.5706 34.38 47.5166 34.228 47.4086 34.148C47.3046 34.068 47.1346 34.028 46.8986 34.028C46.6626 34.028 46.4926 34.07 46.3886 34.154C46.2886 34.238 46.2386 34.378 46.2386 34.574V34.664H45.6146V34.604C45.6146 34.38 45.6686 34.182 45.7766 34.01C45.8886 33.838 46.0426 33.704 46.2386 33.608C46.4386 33.508 46.6706 33.458 46.9346 33.458C47.2146 33.458 47.4466 33.51 47.6306 33.614C47.8146 33.718 47.9526 33.862 48.0446 34.046C48.1406 34.226 48.1886 34.44 48.1886 34.688V36.5ZM46.4786 36.56C46.2106 36.56 45.9846 36.492 45.8006 36.356C45.6206 36.216 45.5306 36.018 45.5306 35.762C45.5306 35.594 45.5686 35.454 45.6446 35.342C45.7246 35.23 45.8386 35.138 45.9866 35.066C46.1346 34.994 46.3146 34.944 46.5266 34.916L47.6306 34.76V35.216L46.6226 35.366C46.4506 35.39 46.3306 35.426 46.2626 35.474C46.1946 35.522 46.1606 35.602 46.1606 35.714C46.1606 35.83 46.2006 35.914 46.2806 35.966C46.3646 36.018 46.5006 36.044 46.6886 36.044C46.8326 36.044 46.9706 36.022 47.1026 35.978C47.2386 35.93 47.3506 35.852 47.4386 35.744C47.5266 35.632 47.5706 35.476 47.5706 35.276L47.6546 36.038L47.5586 36.032C47.5026 36.124 47.4246 36.21 47.3246 36.29C47.2286 36.37 47.1106 36.436 46.9706 36.488C46.8306 36.536 46.6666 36.56 46.4786 36.56ZM50.0701 36.56C49.6461 36.56 49.3201 36.42 49.0921 36.14C48.8681 35.856 48.7561 35.478 48.7561 35.006C48.7561 34.534 48.8661 34.158 49.0861 33.878C49.3101 33.598 49.6261 33.458 50.0341 33.458C50.2981 33.458 50.5101 33.512 50.6701 33.62C50.8341 33.724 50.9481 33.844 51.0121 33.98H51.1741L51.1441 34.742H51.0301C51.0301 34.574 50.9981 34.436 50.9341 34.328C50.8701 34.22 50.7781 34.14 50.6581 34.088C50.5381 34.036 50.3901 34.01 50.2141 34.01C50.0701 34.01 49.9461 34.028 49.8421 34.064C49.7421 34.1 49.6581 34.156 49.5901 34.232C49.5261 34.308 49.4781 34.41 49.4461 34.538C49.4181 34.666 49.4041 34.822 49.4041 35.006C49.4041 35.186 49.4181 35.342 49.4461 35.474C49.4781 35.602 49.5261 35.706 49.5901 35.786C49.6581 35.862 49.7441 35.918 49.8481 35.954C49.9521 35.99 50.0741 36.008 50.2141 36.008C50.3901 36.008 50.5381 35.982 50.6581 35.93C50.7781 35.874 50.8701 35.792 50.9341 35.684C50.9981 35.576 51.0301 35.44 51.0301 35.276H51.1441L51.1741 36.008H51.0541C50.9861 36.18 50.8681 36.316 50.7001 36.416C50.5361 36.512 50.3261 36.56 50.0701 36.56ZM51.6781 36.5H51.0781V35.792L51.0301 35.714V32.48H51.6781V36.5Z" fill="black"/>
<path d="M29.9998 0.0750987C46.0974 0.075098 59.1471 13.2491 59.1471 29.4999C59.1471 45.7508 46.0974 58.9248 29.9998 58.9248C13.9022 58.9248 0.852538 45.7508 0.852538 29.5C0.852537 13.2491 13.9022 0.0750994 29.9998 0.0750987ZM29.9998 54.5111C43.6828 54.5111 54.775 43.3132 54.775 29.4999C54.775 15.6867 43.6828 4.48882 29.9998 4.48883C16.3169 4.48883 5.22463 15.6867 5.22463 29.5C5.22463 43.3132 16.3169 54.5111 29.9998 54.5111Z" fill="#DFF0D8"/>
<path d="M30.0001 0.0750987C34.0198 0.0750985 37.9969 0.898722 41.6861 2.49516C45.3752 4.09159 48.6982 6.42698 51.4499 9.35725C54.2016 12.2875 56.3237 15.7505 57.6854 19.5326C59.047 23.3147 59.6193 27.3357 59.3669 31.3476C59.1145 35.3594 58.0427 39.2769 56.2178 42.8586C54.3929 46.4402 51.8535 49.6099 48.7562 52.1722C45.6589 54.7345 42.0695 56.635 38.2093 57.7564C34.3492 58.8779 30.3002 59.1966 26.3122 58.6928L26.8653 54.3139C30.2552 54.7421 33.6968 54.4712 36.978 53.518C40.2591 52.5647 43.3101 50.9493 45.9428 48.7714C48.5754 46.5934 50.734 43.8991 52.2852 40.8548C53.8363 37.8104 54.7473 34.4805 54.9618 31.0704C55.1764 27.6604 54.69 24.2425 53.5326 21.0277C52.3752 17.8129 50.5714 14.8694 48.2324 12.3787C45.8934 9.88793 43.069 7.90285 39.9332 6.54587C36.7974 5.18891 33.4169 4.48883 30.0001 4.48883L30.0001 0.0750987Z" fill="#0C3A25"/>
</svg>
