<svg width="52" height="52" viewBox="0 0 52 52" fill="none" xmlns="http://www.w3.org/2000/svg">
<path d="M21.4207 25.9078C19.4659 25.9078 18.4939 25.0654 18.4939 23.7262V23.6398H20.1031V23.7262C20.1031 24.2554 20.5351 24.4282 21.4963 24.4282C22.5223 24.4282 22.8787 24.1582 22.8787 23.4238C22.8787 22.6678 22.4899 22.4086 21.4747 22.4086C20.7511 22.4086 20.2219 22.6354 19.9843 22.7758L18.5479 22.5814L18.7639 18.5638H24.0775V20.0218H20.2003L20.0815 21.5986H20.1247C20.4055 21.3394 21.0319 21.037 22.0147 21.037C23.6131 21.037 24.4663 21.9334 24.4663 23.3698C24.4663 24.8494 23.6131 25.9078 21.4207 25.9078ZM27.0826 22.0414C25.9162 22.0414 25.1818 21.361 25.1818 20.2486C25.1818 19.1362 25.9162 18.4558 27.0826 18.4558C28.2382 18.4558 28.9726 19.1362 28.9726 20.2486C28.9726 21.361 28.2382 22.0414 27.0826 22.0414ZM27.3958 25.7998H25.9162L31.1326 18.5638H32.6014L27.3958 25.7998ZM27.0826 20.9398C27.5902 20.9398 27.763 20.8102 27.763 20.2486C27.763 19.687 27.5902 19.5574 27.0826 19.5574C26.575 19.5574 26.4022 19.687 26.4022 20.2486C26.4022 20.8102 26.575 20.9398 27.0826 20.9398ZM31.4458 25.9078C30.2794 25.9078 29.545 25.2274 29.545 24.115C29.545 23.0026 30.2794 22.3222 31.4458 22.3222C32.6122 22.3222 33.3358 23.0026 33.3358 24.115C33.3358 25.2274 32.6122 25.9078 31.4458 25.9078ZM31.4458 24.8062C31.9534 24.8062 32.1262 24.6766 32.1262 24.115C32.1262 23.5534 31.9534 23.4238 31.4458 23.4238C30.9382 23.4238 30.7654 23.5534 30.7654 24.115C30.7654 24.6766 30.9382 24.8062 31.4458 24.8062Z" fill="black"/>
<path d="M19.4223 34.6646C19.0019 34.6646 18.6379 34.5736 18.3303 34.3916C18.0269 34.2053 17.7929 33.9453 17.6283 33.6116C17.4679 33.2736 17.3878 32.8771 17.3878 32.4221C17.3878 31.9671 17.4679 31.5728 17.6283 31.2391C17.7929 30.9011 18.0269 30.6411 18.3303 30.4591C18.6379 30.2728 19.0019 30.1796 19.4223 30.1796C19.8166 30.1796 20.1524 30.2489 20.4298 30.3876C20.7071 30.5263 20.9216 30.7213 21.0733 30.9726C21.2249 31.2239 21.3008 31.5251 21.3008 31.8761V31.9151H20.5598V31.8761C20.5598 31.5208 20.4688 31.2629 20.2868 31.1026C20.1091 30.9379 19.8144 30.8556 19.4028 30.8556C19.1038 30.8556 18.8611 30.9076 18.6748 31.0116C18.4884 31.1156 18.3519 31.2824 18.2653 31.5121C18.1786 31.7418 18.1353 32.0451 18.1353 32.4221C18.1353 32.7948 18.1786 33.0981 18.2653 33.3321C18.3519 33.5618 18.4884 33.7286 18.6748 33.8326C18.8611 33.9323 19.1038 33.9821 19.4028 33.9821C19.8144 33.9821 20.1091 33.9019 20.2868 33.7416C20.4688 33.5813 20.5598 33.3234 20.5598 32.9681V32.9291H21.3008V32.9681C21.3008 33.3148 21.2249 33.6159 21.0733 33.8716C20.9216 34.1229 20.7071 34.3179 20.4298 34.4566C20.1524 34.5953 19.8166 34.6646 19.4223 34.6646ZM24.9855 34.5996H24.2835V32.7211C24.2835 32.4351 24.2271 32.2293 24.1145 32.1036C24.0061 31.9736 23.8046 31.9086 23.51 31.9086C23.2283 31.9086 23.0181 31.9714 22.8795 32.0971C22.7451 32.2184 22.678 32.4329 22.678 32.7406H22.5545L22.548 31.9086H22.704C22.756 31.8089 22.8275 31.7136 22.9185 31.6226C23.0138 31.5273 23.133 31.4514 23.276 31.3951C23.4233 31.3344 23.5923 31.3041 23.783 31.3041C24.069 31.3041 24.2986 31.3604 24.472 31.4731C24.6496 31.5814 24.7796 31.7309 24.862 31.9216C24.9443 32.1123 24.9855 32.3268 24.9855 32.5651V34.5996ZM22.678 34.5996H21.976V30.2446H22.678V34.5996ZM28.4792 34.5996H27.8292V33.9626L27.8097 33.7871V32.5456C27.8097 32.3029 27.7512 32.1383 27.6342 32.0516C27.5215 31.9649 27.3374 31.9216 27.0817 31.9216C26.826 31.9216 26.6419 31.9671 26.5292 32.0581C26.4209 32.1491 26.3667 32.3008 26.3667 32.5131V32.6106H25.6907V32.5456C25.6907 32.3029 25.7492 32.0884 25.8662 31.9021C25.9875 31.7158 26.1544 31.5706 26.3667 31.4666C26.5834 31.3583 26.8347 31.3041 27.1207 31.3041C27.424 31.3041 27.6754 31.3604 27.8747 31.4731C28.074 31.5858 28.2235 31.7418 28.3232 31.9411C28.4272 32.1361 28.4792 32.3679 28.4792 32.6366V34.5996ZM26.6267 34.6646C26.3364 34.6646 26.0915 34.5909 25.8922 34.4436C25.6972 34.2919 25.5997 34.0774 25.5997 33.8001C25.5997 33.6181 25.6409 33.4664 25.7232 33.3451C25.8099 33.2238 25.9334 33.1241 26.0937 33.0461C26.254 32.9681 26.449 32.9139 26.6787 32.8836L27.8747 32.7146V33.2086L26.7827 33.3711C26.5964 33.3971 26.4664 33.4361 26.3927 33.4881C26.319 33.5401 26.2822 33.6268 26.2822 33.7481C26.2822 33.8738 26.3255 33.9648 26.4122 34.0211C26.5032 34.0774 26.6505 34.1056 26.8542 34.1056C27.0102 34.1056 27.1597 34.0818 27.3027 34.0341C27.45 33.9821 27.5714 33.8976 27.6667 33.7806C27.762 33.6593 27.8097 33.4903 27.8097 33.2736L27.9007 34.0991L27.7967 34.0926C27.736 34.1923 27.6515 34.2854 27.5432 34.3721C27.4392 34.4588 27.3114 34.5303 27.1597 34.5866C27.008 34.6386 26.8304 34.6646 26.6267 34.6646ZM32.2396 34.5996H31.5376V32.7211C31.5376 32.4351 31.4835 32.2293 31.3751 32.1036C31.2668 31.9736 31.0631 31.9086 30.7641 31.9086C30.5735 31.9086 30.4175 31.9368 30.2961 31.9931C30.1748 32.0451 30.0838 32.1318 30.0231 32.2531C29.9625 32.3701 29.9321 32.5304 29.9321 32.7341H29.8086L29.7501 31.9736H29.9061C29.9538 31.8566 30.0253 31.7483 30.1206 31.6486C30.216 31.5489 30.3373 31.4666 30.4846 31.4016C30.6363 31.3366 30.8161 31.3041 31.0241 31.3041C31.3058 31.3041 31.5355 31.3583 31.7131 31.4666C31.8908 31.5749 32.023 31.7244 32.1096 31.9151C32.1963 32.1058 32.2396 32.3246 32.2396 32.5716V34.5996ZM29.9321 34.5996H29.2301V31.3691H29.8736V32.3376L29.9321 32.3701V34.5996ZM34.33 34.6646C33.8577 34.6646 33.5002 34.5714 33.2575 34.3851C33.0148 34.1944 32.8935 33.9019 32.8935 33.5076V33.4946H33.5695V33.6116C33.5695 33.7243 33.5912 33.8174 33.6345 33.8911C33.6822 33.9604 33.7602 34.0124 33.8685 34.0471C33.9812 34.0774 34.1393 34.0926 34.343 34.0926C34.5163 34.0926 34.6463 34.0796 34.733 34.0536C34.824 34.0233 34.8847 33.9821 34.915 33.9301C34.9453 33.8781 34.9605 33.8131 34.9605 33.7351C34.9605 33.6051 34.915 33.5141 34.824 33.4621C34.733 33.4058 34.5705 33.3559 34.3365 33.3126L33.8295 33.2281C33.6388 33.1891 33.472 33.1349 33.329 33.0656C33.1903 32.9919 33.082 32.8923 33.004 32.7666C32.9303 32.6366 32.8935 32.4741 32.8935 32.2791C32.8935 31.9888 33.0083 31.7548 33.238 31.5771C33.4677 31.3951 33.7927 31.3041 34.213 31.3041C34.4687 31.3041 34.6962 31.3453 34.8955 31.4276C35.0948 31.5099 35.253 31.6334 35.37 31.7981C35.487 31.9628 35.5455 32.1686 35.5455 32.4156V32.4741H34.876V32.3961C34.876 32.2921 34.8587 32.2033 34.824 32.1296C34.7893 32.0516 34.7243 31.9909 34.629 31.9476C34.5337 31.9043 34.3885 31.8826 34.1935 31.8826C33.9378 31.8826 33.7688 31.9151 33.6865 31.9801C33.6042 32.0451 33.563 32.1404 33.563 32.2661C33.563 32.3918 33.5998 32.4806 33.6735 32.5326C33.7515 32.5803 33.9032 32.6279 34.1285 32.6756L34.681 32.7796C34.889 32.8186 35.0623 32.8771 35.201 32.9551C35.3397 33.0331 35.4437 33.1349 35.513 33.2606C35.5867 33.3863 35.6235 33.5358 35.6235 33.7091C35.6235 34.0124 35.5087 34.2486 35.279 34.4176C35.0537 34.5823 34.7373 34.6646 34.33 34.6646Z" fill="black"/>
<path d="M25.9999 0.800193C39.7862 0.800192 50.9621 12.0826 50.9621 26.0002C50.9621 39.9178 39.7862 51.2002 25.9999 51.2002C12.2136 51.2002 1.0376 39.9178 1.0376 26.0002C1.0376 12.0826 12.2136 0.800193 25.9999 0.800193ZM25.9999 47.4202C37.7182 47.4202 47.2178 37.8301 47.2178 26.0002C47.2178 14.1703 37.7182 4.58019 25.9999 4.58019C14.2815 4.58019 4.78194 14.1703 4.78194 26.0002C4.78194 37.8301 14.2815 47.4202 25.9999 47.4202Z" fill="#DFF0D8"/>
<path d="M25.9998 0.800193C28.6442 0.800193 31.2721 1.21641 33.7871 2.03357L32.619 5.62856C30.4813 4.93398 28.2475 4.58019 25.9998 4.58019L25.9998 0.800193Z" fill="#0C3A25"/>
</svg>
