<svg width="52" height="52" viewBox="0 0 52 52" fill="none" xmlns="http://www.w3.org/2000/svg">
<path d="M21.4202 25.9088C19.4654 25.9088 18.4934 25.0664 18.4934 23.7272V23.6408H20.1026V23.7272C20.1026 24.2564 20.5346 24.4292 21.4958 24.4292C22.5218 24.4292 22.8782 24.1592 22.8782 23.4248C22.8782 22.6688 22.4894 22.4096 21.4742 22.4096C20.7506 22.4096 20.2214 22.6364 19.9838 22.7768L18.5474 22.5824L18.7634 18.5648H24.077V20.0228H20.1998L20.081 21.5996H20.1242C20.405 21.3404 21.0314 21.038 22.0142 21.038C23.6126 21.038 24.4658 21.9344 24.4658 23.3708C24.4658 24.8504 23.6126 25.9088 21.4202 25.9088ZM27.0821 22.0424C25.9157 22.0424 25.1813 21.362 25.1813 20.2496C25.1813 19.1372 25.9157 18.4568 27.0821 18.4568C28.2377 18.4568 28.9721 19.1372 28.9721 20.2496C28.9721 21.362 28.2377 22.0424 27.0821 22.0424ZM27.3953 25.8008H25.9157L31.1321 18.5648H32.6009L27.3953 25.8008ZM27.0821 20.9408C27.5897 20.9408 27.7625 20.8112 27.7625 20.2496C27.7625 19.688 27.5897 19.5584 27.0821 19.5584C26.5745 19.5584 26.4017 19.688 26.4017 20.2496C26.4017 20.8112 26.5745 20.9408 27.0821 20.9408ZM31.4453 25.9088C30.2789 25.9088 29.5445 25.2284 29.5445 24.116C29.5445 23.0036 30.2789 22.3232 31.4453 22.3232C32.6117 22.3232 33.3353 23.0036 33.3353 24.116C33.3353 25.2284 32.6117 25.9088 31.4453 25.9088ZM31.4453 24.8072C31.9529 24.8072 32.1257 24.6776 32.1257 24.116C32.1257 23.5544 31.9529 23.4248 31.4453 23.4248C30.9377 23.4248 30.7649 23.5544 30.7649 24.116C30.7649 24.6776 30.9377 24.8072 31.4453 24.8072Z" fill="black"/>
<path d="M17.5013 34.6646C17.081 34.6646 16.717 34.5736 16.4093 34.3916C16.106 34.2053 15.872 33.9453 15.7073 33.6116C15.547 33.2736 15.4668 32.8771 15.4668 32.4221C15.4668 31.9671 15.547 31.5728 15.7073 31.2391C15.872 30.9011 16.106 30.6411 16.4093 30.4591C16.717 30.2728 17.081 30.1796 17.5013 30.1796C17.8956 30.1796 18.2315 30.2489 18.5088 30.3876C18.7861 30.5263 19.0006 30.7213 19.1523 30.9726C19.304 31.2239 19.3798 31.5251 19.3798 31.8761V31.9151H18.6388V31.8761C18.6388 31.5208 18.5478 31.2629 18.3658 31.1026C18.1881 30.9379 17.8935 30.8556 17.4818 30.8556C17.1828 30.8556 16.9401 30.9076 16.7538 31.0116C16.5675 31.1156 16.431 31.2824 16.3443 31.5121C16.2576 31.7418 16.2143 32.0451 16.2143 32.4221C16.2143 32.7948 16.2576 33.0981 16.3443 33.3321C16.431 33.5618 16.5675 33.7286 16.7538 33.8326C16.9401 33.9323 17.1828 33.9821 17.4818 33.9821C17.8935 33.9821 18.1881 33.9019 18.3658 33.7416C18.5478 33.5813 18.6388 33.3234 18.6388 32.9681V32.9291H19.3798V32.9681C19.3798 33.3148 19.304 33.6159 19.1523 33.8716C19.0006 34.1229 18.7861 34.3179 18.5088 34.4566C18.2315 34.5953 17.8956 34.6646 17.5013 34.6646ZM23.0645 34.5996H22.3625V32.7211C22.3625 32.4351 22.3062 32.2293 22.1935 32.1036C22.0852 31.9736 21.8837 31.9086 21.589 31.9086C21.3073 31.9086 21.0972 31.9714 20.9585 32.0971C20.8242 32.2184 20.757 32.4329 20.757 32.7406H20.6335L20.627 31.9086H20.783C20.835 31.8089 20.9065 31.7136 20.9975 31.6226C21.0928 31.5273 21.212 31.4514 21.355 31.3951C21.5023 31.3344 21.6713 31.3041 21.862 31.3041C22.148 31.3041 22.3777 31.3604 22.551 31.4731C22.7287 31.5814 22.8587 31.7309 22.941 31.9216C23.0233 32.1123 23.0645 32.3268 23.0645 32.5651V34.5996ZM20.757 34.5996H20.055V30.2446H20.757V34.5996ZM26.5582 34.5996H25.9082V33.9626L25.8887 33.7871V32.5456C25.8887 32.3029 25.8302 32.1383 25.7132 32.0516C25.6006 31.9649 25.4164 31.9216 25.1607 31.9216C24.9051 31.9216 24.7209 31.9671 24.6082 32.0581C24.4999 32.1491 24.4457 32.3008 24.4457 32.5131V32.6106H23.7697V32.5456C23.7697 32.3029 23.8282 32.0884 23.9452 31.9021C24.0666 31.7158 24.2334 31.5706 24.4457 31.4666C24.6624 31.3583 24.9137 31.3041 25.1997 31.3041C25.5031 31.3041 25.7544 31.3604 25.9537 31.4731C26.1531 31.5858 26.3026 31.7418 26.4022 31.9411C26.5062 32.1361 26.5582 32.3679 26.5582 32.6366V34.5996ZM24.7057 34.6646C24.4154 34.6646 24.1706 34.5909 23.9712 34.4436C23.7762 34.2919 23.6787 34.0774 23.6787 33.8001C23.6787 33.6181 23.7199 33.4664 23.8022 33.3451C23.8889 33.2238 24.0124 33.1241 24.1727 33.0461C24.3331 32.9681 24.5281 32.9139 24.7577 32.8836L25.9537 32.7146V33.2086L24.8617 33.3711C24.6754 33.3971 24.5454 33.4361 24.4717 33.4881C24.3981 33.5401 24.3612 33.6268 24.3612 33.7481C24.3612 33.8738 24.4046 33.9648 24.4912 34.0211C24.5822 34.0774 24.7296 34.1056 24.9332 34.1056C25.0892 34.1056 25.2387 34.0818 25.3817 34.0341C25.5291 33.9821 25.6504 33.8976 25.7457 33.7806C25.8411 33.6593 25.8887 33.4903 25.8887 33.2736L25.9797 34.0991L25.8757 34.0926C25.8151 34.1923 25.7306 34.2854 25.6222 34.3721C25.5182 34.4588 25.3904 34.5303 25.2387 34.5866C25.0871 34.6386 24.9094 34.6646 24.7057 34.6646ZM30.3187 34.5996H29.6167V32.7211C29.6167 32.4351 29.5625 32.2293 29.4542 32.1036C29.3458 31.9736 29.1422 31.9086 28.8432 31.9086C28.6525 31.9086 28.4965 31.9368 28.3752 31.9931C28.2538 32.0451 28.1628 32.1318 28.1022 32.2531C28.0415 32.3701 28.0112 32.5304 28.0112 32.7341H27.8877L27.8292 31.9736H27.9852C28.0328 31.8566 28.1043 31.7483 28.1997 31.6486C28.295 31.5489 28.4163 31.4666 28.5637 31.4016C28.7153 31.3366 28.8952 31.3041 29.1032 31.3041C29.3848 31.3041 29.6145 31.3583 29.7922 31.4666C29.9698 31.5749 30.102 31.7244 30.1887 31.9151C30.2753 32.1058 30.3187 32.3246 30.3187 32.5716V34.5996ZM28.0112 34.5996H27.3092V31.3691H27.9527V32.3376L28.0112 32.3701V34.5996ZM32.5064 34.6711C32.1684 34.6711 31.8824 34.5996 31.6484 34.4566C31.4144 34.3136 31.2345 34.1164 31.1089 33.8651C30.9875 33.6138 30.9269 33.3213 30.9269 32.9876C30.9269 32.6539 30.9897 32.3614 31.1154 32.1101C31.2454 31.8544 31.4295 31.6573 31.6679 31.5186C31.9062 31.3756 32.1944 31.3041 32.5324 31.3041C32.8184 31.3041 33.0697 31.3583 33.2864 31.4666C33.503 31.5749 33.6699 31.7266 33.7869 31.9216C33.9082 32.1166 33.9689 32.3441 33.9689 32.6041V32.6626H33.2734V32.6236C33.2734 32.3853 33.2084 32.2119 33.0784 32.1036C32.9527 31.9909 32.7555 31.9346 32.4869 31.9346C32.1749 31.9346 31.9517 32.0234 31.8174 32.2011C31.6874 32.3744 31.6224 32.6344 31.6224 32.9811C31.6224 33.3321 31.6874 33.5964 31.8174 33.7741C31.9517 33.9474 32.1749 34.0341 32.4869 34.0341C32.7555 34.0341 32.9527 33.9799 33.0784 33.8716C33.2084 33.7589 33.2734 33.5856 33.2734 33.3516V33.3126H33.9689V33.3711C33.9689 33.6224 33.9082 33.8478 33.7869 34.0471C33.6655 34.2421 33.4944 34.3959 33.2734 34.5086C33.0567 34.6169 32.801 34.6711 32.5064 34.6711ZM36.0443 34.6646C35.6933 34.6646 35.4008 34.5953 35.1668 34.4566C34.9328 34.3136 34.7594 34.1164 34.6468 33.8651C34.5341 33.6094 34.4778 33.3148 34.4778 32.9811C34.4778 32.6474 34.5406 32.3549 34.6663 32.1036C34.7963 31.8523 34.9783 31.6573 35.2123 31.5186C35.4463 31.3756 35.7236 31.3041 36.0443 31.3041C36.3346 31.3041 36.5903 31.3604 36.8113 31.4731C37.0366 31.5814 37.2099 31.7396 37.3313 31.9476C37.4569 32.1556 37.5198 32.4069 37.5198 32.7016C37.5198 32.7883 37.5154 32.8728 37.5068 32.9551C37.5024 33.0331 37.4959 33.0981 37.4873 33.1501H34.8093V32.6821H36.9153L36.8438 32.7471C36.8611 32.5478 36.8394 32.3853 36.7788 32.2596C36.7224 32.1339 36.6293 32.0408 36.4993 31.9801C36.3736 31.9194 36.2154 31.8891 36.0248 31.8891C35.6824 31.8891 35.4484 31.9758 35.3228 32.1491C35.1971 32.3181 35.1343 32.5521 35.1343 32.8511V33.0461C35.1343 33.2628 35.1603 33.4469 35.2123 33.5986C35.2686 33.7459 35.3639 33.8564 35.4983 33.9301C35.6326 34.0038 35.8168 34.0406 36.0508 34.0406C36.3238 34.0406 36.5166 33.9973 36.6293 33.9106C36.7419 33.8239 36.7983 33.7091 36.7983 33.5661V33.5141H37.4938V33.5726C37.4938 33.7936 37.4331 33.9864 37.3118 34.1511C37.1904 34.3114 37.0214 34.4371 36.8048 34.5281C36.5924 34.6191 36.3389 34.6646 36.0443 34.6646Z" fill="black"/>
<path d="M25.9994 0.801169C39.7857 0.801169 50.9617 12.0836 50.9617 26.0012C50.9617 39.9187 39.7857 51.2012 25.9994 51.2012C12.2131 51.2012 1.03711 39.9187 1.03711 26.0012C1.03711 12.0836 12.2131 0.80117 25.9994 0.801169ZM25.9994 47.4212C37.7177 47.4212 47.2173 37.8311 47.2173 26.0012C47.2173 14.1712 37.7177 4.58117 25.9994 4.58117C14.281 4.58117 4.78145 14.1712 4.78145 26.0012C4.78145 37.8311 14.281 47.4212 25.9994 47.4212Z" fill="#D7BEAE"/>
<path d="M25.9998 0.801169C28.6442 0.801169 31.2721 1.21739 33.7871 2.03454L32.619 5.62954C30.4813 4.93495 28.2475 4.58117 25.9998 4.58117L25.9998 0.801169Z" fill="#A86133"/>
</svg>
