<svg width="51" height="51" viewBox="0 0 51 51" fill="none" xmlns="http://www.w3.org/2000/svg">
<path d="M20.804 25.108C18.4928 25.108 17.6612 23.812 17.6612 21.2632C17.6612 18.9412 18.752 17.656 20.8904 17.656C22.5644 17.656 23.5688 18.5416 23.5688 19.9456V20.032H21.8516V19.9672C21.8516 19.438 21.506 19.222 20.6744 19.222C19.5836 19.222 19.3352 19.7188 19.3352 20.7448V21.3712H19.3892C19.7024 20.896 20.264 20.5288 21.3548 20.5288C22.9424 20.5288 23.7524 21.3496 23.7524 22.7212C23.7524 24.1792 22.7372 25.108 20.804 25.108ZM20.8256 23.5528C21.8516 23.5528 22.1648 23.3152 22.1648 22.6888C22.1648 22.0732 21.8516 21.8356 20.8256 21.8356C19.7996 21.8356 19.4756 22.0732 19.4756 22.6888C19.4756 23.3152 19.7996 23.5528 20.8256 23.5528ZM26.2612 21.2416C25.0948 21.2416 24.3604 20.5612 24.3604 19.4488C24.3604 18.3364 25.0948 17.656 26.2612 17.656C27.4168 17.656 28.1512 18.3364 28.1512 19.4488C28.1512 20.5612 27.4168 21.2416 26.2612 21.2416ZM26.5744 25H25.0948L30.3112 17.764H31.78L26.5744 25ZM26.2612 20.14C26.7688 20.14 26.9416 20.0104 26.9416 19.4488C26.9416 18.8872 26.7688 18.7576 26.2612 18.7576C25.7536 18.7576 25.5808 18.8872 25.5808 19.4488C25.5808 20.0104 25.7536 20.14 26.2612 20.14ZM30.6244 25.108C29.458 25.108 28.7236 24.4276 28.7236 23.3152C28.7236 22.2028 29.458 21.5224 30.6244 21.5224C31.7908 21.5224 32.5144 22.2028 32.5144 23.3152C32.5144 24.4276 31.7908 25.108 30.6244 25.108ZM30.6244 24.0064C31.132 24.0064 31.3048 23.8768 31.3048 23.3152C31.3048 22.7536 31.132 22.624 30.6244 22.624C30.1168 22.624 29.944 22.7536 29.944 23.3152C29.944 23.8768 30.1168 24.0064 30.6244 24.0064Z" fill="black"/>
<path d="M17.8232 33.8638C17.4028 33.8638 17.0388 33.7728 16.7312 33.5908C16.4278 33.4045 16.1938 33.1445 16.0292 32.8108C15.8688 32.4728 15.7887 32.0763 15.7887 31.6213C15.7887 31.1663 15.8688 30.772 16.0292 30.4383C16.1938 30.1003 16.4278 29.8403 16.7312 29.6583C17.0388 29.472 17.4028 29.3788 17.8232 29.3788C18.2175 29.3788 18.5533 29.4482 18.8307 29.5868C19.108 29.7255 19.3225 29.9205 19.4742 30.1718C19.6258 30.4232 19.7017 30.7243 19.7017 31.0753V31.1143H18.9607V31.0753C18.9607 30.72 18.8697 30.4622 18.6877 30.3018C18.51 30.1372 18.2153 30.0548 17.8037 30.0548C17.5047 30.0548 17.262 30.1068 17.0757 30.2108C16.8893 30.3148 16.7528 30.4817 16.6662 30.7113C16.5795 30.941 16.5362 31.2443 16.5362 31.6213C16.5362 31.994 16.5795 32.2973 16.6662 32.5313C16.7528 32.761 16.8893 32.9278 17.0757 33.0318C17.262 33.1315 17.5047 33.1813 17.8037 33.1813C18.2153 33.1813 18.51 33.1012 18.6877 32.9408C18.8697 32.7805 18.9607 32.5227 18.9607 32.1673V32.1283H19.7017V32.1673C19.7017 32.514 19.6258 32.8152 19.4742 33.0708C19.3225 33.3222 19.108 33.5172 18.8307 33.6558C18.5533 33.7945 18.2175 33.8638 17.8232 33.8638ZM23.3863 33.7988H22.6843V31.9203C22.6843 31.6343 22.628 31.4285 22.5153 31.3028C22.407 31.1728 22.2055 31.1078 21.9108 31.1078C21.6292 31.1078 21.419 31.1707 21.2803 31.2963C21.146 31.4177 21.0788 31.6322 21.0788 31.9398H20.9553L20.9488 31.1078H21.1048C21.1568 31.0082 21.2283 30.9128 21.3193 30.8218C21.4147 30.7265 21.5338 30.6507 21.6768 30.5943C21.8242 30.5337 21.9932 30.5033 22.1838 30.5033C22.4698 30.5033 22.6995 30.5597 22.8728 30.6723C23.0505 30.7807 23.1805 30.9302 23.2628 31.1208C23.3452 31.3115 23.3863 31.526 23.3863 31.7643V33.7988ZM21.0788 33.7988H20.3768V29.4438H21.0788V33.7988ZM26.8801 33.7988H26.2301V33.1618L26.2106 32.9863V31.7448C26.2106 31.5022 26.1521 31.3375 26.0351 31.2508C25.9224 31.1642 25.7382 31.1208 25.4826 31.1208C25.2269 31.1208 25.0427 31.1663 24.9301 31.2573C24.8217 31.3483 24.7676 31.5 24.7676 31.7123V31.8098H24.0916V31.7448C24.0916 31.5022 24.1501 31.2877 24.2671 31.1013C24.3884 30.915 24.5552 30.7698 24.7676 30.6658C24.9842 30.5575 25.2356 30.5033 25.5216 30.5033C25.8249 30.5033 26.0762 30.5597 26.2756 30.6723C26.4749 30.785 26.6244 30.941 26.7241 31.1403C26.8281 31.3353 26.8801 31.5672 26.8801 31.8358V33.7988ZM25.0276 33.8638C24.7372 33.8638 24.4924 33.7902 24.2931 33.6428C24.0981 33.4912 24.0006 33.2767 24.0006 32.9993C24.0006 32.8173 24.0417 32.6657 24.1241 32.5443C24.2107 32.423 24.3342 32.3233 24.4946 32.2453C24.6549 32.1673 24.8499 32.1132 25.0796 32.0828L26.2756 31.9138V32.4078L25.1836 32.5703C24.9972 32.5963 24.8672 32.6353 24.7936 32.6873C24.7199 32.7393 24.6831 32.826 24.6831 32.9473C24.6831 33.073 24.7264 33.164 24.8131 33.2203C24.9041 33.2767 25.0514 33.3048 25.2551 33.3048C25.4111 33.3048 25.5606 33.281 25.7036 33.2333C25.8509 33.1813 25.9722 33.0968 26.0676 32.9798C26.1629 32.8585 26.2106 32.6895 26.2106 32.4728L26.3016 33.2983L26.1976 33.2918C26.1369 33.3915 26.0524 33.4847 25.9441 33.5713C25.8401 33.658 25.7122 33.7295 25.5606 33.7858C25.4089 33.8378 25.2312 33.8638 25.0276 33.8638ZM30.6405 33.7988H29.9385V31.9203C29.9385 31.6343 29.8843 31.4285 29.776 31.3028C29.6677 31.1728 29.464 31.1078 29.165 31.1078C28.9743 31.1078 28.8183 31.136 28.697 31.1923C28.5757 31.2443 28.4847 31.331 28.424 31.4523C28.3633 31.5693 28.333 31.7297 28.333 31.9333H28.2095L28.151 31.1728H28.307C28.3547 31.0558 28.4262 30.9475 28.5215 30.8478C28.6168 30.7482 28.7382 30.6658 28.8855 30.6008C29.0372 30.5358 29.217 30.5033 29.425 30.5033C29.7067 30.5033 29.9363 30.5575 30.114 30.6658C30.2917 30.7742 30.4238 30.9237 30.5105 31.1143C30.5972 31.305 30.6405 31.5238 30.6405 31.7708V33.7988ZM28.333 33.7988H27.631V30.5683H28.2745V31.5368L28.333 31.5693V33.7988ZM32.7309 33.8638C32.2585 33.8638 31.901 33.7707 31.6584 33.5843C31.4157 33.3937 31.2944 33.1012 31.2944 32.7068V32.6938H31.9704V32.8108C31.9704 32.9235 31.992 33.0167 32.0354 33.0903C32.083 33.1597 32.161 33.2117 32.2694 33.2463C32.382 33.2767 32.5402 33.2918 32.7439 33.2918C32.9172 33.2918 33.0472 33.2788 33.1339 33.2528C33.2249 33.2225 33.2855 33.1813 33.3159 33.1293C33.3462 33.0773 33.3614 33.0123 33.3614 32.9343C33.3614 32.8043 33.3159 32.7133 33.2249 32.6613C33.1339 32.605 32.9714 32.5552 32.7374 32.5118L32.2304 32.4273C32.0397 32.3883 31.8729 32.3342 31.7299 32.2648C31.5912 32.1912 31.4829 32.0915 31.4049 31.9658C31.3312 31.8358 31.2944 31.6733 31.2944 31.4783C31.2944 31.188 31.4092 30.954 31.6389 30.7763C31.8685 30.5943 32.1935 30.5033 32.6139 30.5033C32.8695 30.5033 33.097 30.5445 33.2964 30.6268C33.4957 30.7092 33.6539 30.8327 33.7709 30.9973C33.8879 31.162 33.9464 31.3678 33.9464 31.6148V31.6733H33.2769V31.5953C33.2769 31.4913 33.2595 31.4025 33.2249 31.3288C33.1902 31.2508 33.1252 31.1902 33.0299 31.1468C32.9345 31.1035 32.7894 31.0818 32.5944 31.0818C32.3387 31.0818 32.1697 31.1143 32.0874 31.1793C32.005 31.2443 31.9639 31.3397 31.9639 31.4653C31.9639 31.591 32.0007 31.6798 32.0744 31.7318C32.1524 31.7795 32.304 31.8272 32.5294 31.8748L33.0819 31.9788C33.2899 32.0178 33.4632 32.0763 33.6019 32.1543C33.7405 32.2323 33.8445 32.3342 33.9139 32.4598C33.9875 32.5855 34.0244 32.735 34.0244 32.9083C34.0244 33.2117 33.9095 33.4478 33.6799 33.6168C33.4545 33.7815 33.1382 33.8638 32.7309 33.8638Z" fill="black"/>
<path d="M25.1996 0.000388008C38.9859 0.000387405 50.1619 11.2828 50.1619 25.2004C50.1619 39.118 38.9859 50.4004 25.1996 50.4004C11.4133 50.4004 0.237304 39.118 0.237304 25.2004C0.237303 11.2828 11.4133 0.000388611 25.1996 0.000388008ZM25.1996 46.6204C36.9179 46.6204 46.4175 37.0303 46.4175 25.2004C46.4175 13.3704 36.9179 3.78039 25.1996 3.78039C13.4812 3.78039 3.98164 13.3704 3.98164 25.2004C3.98164 37.0303 13.4812 46.6204 25.1996 46.6204Z" fill="#D7BEAE"/>
<path d="M25.2 0.000387998C28.3762 0.000387859 31.5237 0.600807 34.4768 1.77002L33.0852 5.28457C30.5751 4.29074 27.8997 3.78039 25.2 3.78039L25.2 0.000387998Z" fill="#A86133"/>
</svg>
