<svg width="52" height="52" viewBox="0 0 52 52" fill="none" xmlns="http://www.w3.org/2000/svg">
<path d="M21.6038 25.9088C19.2926 25.9088 18.461 24.6128 18.461 22.064C18.461 19.742 19.5518 18.4568 21.6902 18.4568C23.3642 18.4568 24.3686 19.3424 24.3686 20.7464V20.8328H22.6514V20.768C22.6514 20.2388 22.3058 20.0228 21.4742 20.0228C20.3834 20.0228 20.135 20.5196 20.135 21.5456V22.172H20.189C20.5022 21.6968 21.0638 21.3296 22.1546 21.3296C23.7422 21.3296 24.5522 22.1504 24.5522 23.522C24.5522 24.98 23.537 25.9088 21.6038 25.9088ZM21.6254 24.3536C22.6514 24.3536 22.9646 24.116 22.9646 23.4896C22.9646 22.874 22.6514 22.6364 21.6254 22.6364C20.5994 22.6364 20.2754 22.874 20.2754 23.4896C20.2754 24.116 20.5994 24.3536 21.6254 24.3536ZM27.061 22.0424C25.8946 22.0424 25.1602 21.362 25.1602 20.2496C25.1602 19.1372 25.8946 18.4568 27.061 18.4568C28.2166 18.4568 28.951 19.1372 28.951 20.2496C28.951 21.362 28.2166 22.0424 27.061 22.0424ZM27.3742 25.8008H25.8946L31.111 18.5648H32.5798L27.3742 25.8008ZM27.061 20.9408C27.5686 20.9408 27.7414 20.8112 27.7414 20.2496C27.7414 19.688 27.5686 19.5584 27.061 19.5584C26.5534 19.5584 26.3806 19.688 26.3806 20.2496C26.3806 20.8112 26.5534 20.9408 27.061 20.9408ZM31.4242 25.9088C30.2578 25.9088 29.5234 25.2284 29.5234 24.116C29.5234 23.0036 30.2578 22.3232 31.4242 22.3232C32.5906 22.3232 33.3142 23.0036 33.3142 24.116C33.3142 25.2284 32.5906 25.9088 31.4242 25.9088ZM31.4242 24.8072C31.9318 24.8072 32.1046 24.6776 32.1046 24.116C32.1046 23.5544 31.9318 23.4248 31.4242 23.4248C30.9166 23.4248 30.7438 23.5544 30.7438 24.116C30.7438 24.6776 30.9166 24.8072 31.4242 24.8072Z" fill="black"/>
<path d="M16.7005 34.6646C16.2802 34.6646 15.9162 34.5736 15.6085 34.3916C15.3052 34.2053 15.0712 33.9453 14.9065 33.6116C14.7462 33.2736 14.666 32.8771 14.666 32.4221C14.666 31.9671 14.7462 31.5728 14.9065 31.2391C15.0712 30.9011 15.3052 30.6411 15.6085 30.4591C15.9162 30.2728 16.2802 30.1796 16.7005 30.1796C17.0949 30.1796 17.4307 30.2489 17.708 30.3876C17.9854 30.5263 18.1999 30.7213 18.3515 30.9726C18.5032 31.2239 18.579 31.5251 18.579 31.8761V31.9151H17.838V31.8761C17.838 31.5208 17.747 31.2629 17.565 31.1026C17.3874 30.9379 17.0927 30.8556 16.681 30.8556C16.382 30.8556 16.1394 30.9076 15.953 31.0116C15.7667 31.1156 15.6302 31.2824 15.5435 31.5121C15.4569 31.7418 15.4135 32.0451 15.4135 32.4221C15.4135 32.7948 15.4569 33.0981 15.5435 33.3321C15.6302 33.5618 15.7667 33.7286 15.953 33.8326C16.1394 33.9323 16.382 33.9821 16.681 33.9821C17.0927 33.9821 17.3874 33.9019 17.565 33.7416C17.747 33.5813 17.838 33.3234 17.838 32.9681V32.9291H18.579V32.9681C18.579 33.3148 18.5032 33.6159 18.3515 33.8716C18.1999 34.1229 17.9854 34.3179 17.708 34.4566C17.4307 34.5953 17.0949 34.6646 16.7005 34.6646ZM22.2637 34.5996H21.5617V32.7211C21.5617 32.4351 21.5054 32.2293 21.3927 32.1036C21.2844 31.9736 21.0829 31.9086 20.7882 31.9086C20.5065 31.9086 20.2964 31.9714 20.1577 32.0971C20.0234 32.2184 19.9562 32.4329 19.9562 32.7406H19.8327L19.8262 31.9086H19.9822C20.0342 31.8089 20.1057 31.7136 20.1967 31.6226C20.292 31.5273 20.4112 31.4514 20.5542 31.3951C20.7015 31.3344 20.8705 31.3041 21.0612 31.3041C21.3472 31.3041 21.5769 31.3604 21.7502 31.4731C21.9279 31.5814 22.0579 31.7309 22.1402 31.9216C22.2225 32.1123 22.2637 32.3268 22.2637 32.5651V34.5996ZM19.9562 34.5996H19.2542V30.2446H19.9562V34.5996ZM25.7574 34.5996H25.1074V33.9626L25.0879 33.7871V32.5456C25.0879 32.3029 25.0294 32.1383 24.9124 32.0516C24.7998 31.9649 24.6156 31.9216 24.3599 31.9216C24.1043 31.9216 23.9201 31.9671 23.8074 32.0581C23.6991 32.1491 23.6449 32.3008 23.6449 32.5131V32.6106H22.9689V32.5456C22.9689 32.3029 23.0274 32.0884 23.1444 31.9021C23.2658 31.7158 23.4326 31.5706 23.6449 31.4666C23.8616 31.3583 24.1129 31.3041 24.3989 31.3041C24.7023 31.3041 24.9536 31.3604 25.1529 31.4731C25.3523 31.5858 25.5018 31.7418 25.6014 31.9411C25.7054 32.1361 25.7574 32.3679 25.7574 32.6366V34.5996ZM23.9049 34.6646C23.6146 34.6646 23.3698 34.5909 23.1704 34.4436C22.9754 34.2919 22.8779 34.0774 22.8779 33.8001C22.8779 33.6181 22.9191 33.4664 23.0014 33.3451C23.0881 33.2238 23.2116 33.1241 23.3719 33.0461C23.5323 32.9681 23.7273 32.9139 23.9569 32.8836L25.1529 32.7146V33.2086L24.0609 33.3711C23.8746 33.3971 23.7446 33.4361 23.6709 33.4881C23.5973 33.5401 23.5604 33.6268 23.5604 33.7481C23.5604 33.8738 23.6038 33.9648 23.6904 34.0211C23.7814 34.0774 23.9288 34.1056 24.1324 34.1056C24.2884 34.1056 24.4379 34.0818 24.5809 34.0341C24.7283 33.9821 24.8496 33.8976 24.9449 33.7806C25.0403 33.6593 25.0879 33.4903 25.0879 33.2736L25.1789 34.0991L25.0749 34.0926C25.0143 34.1923 24.9298 34.2854 24.8214 34.3721C24.7174 34.4588 24.5896 34.5303 24.4379 34.5866C24.2863 34.6386 24.1086 34.6646 23.9049 34.6646ZM29.5179 34.5996H28.8159V32.7211C28.8159 32.4351 28.7617 32.2293 28.6534 32.1036C28.5451 31.9736 28.3414 31.9086 28.0424 31.9086C27.8517 31.9086 27.6957 31.9368 27.5744 31.9931C27.4531 32.0451 27.3621 32.1318 27.3014 32.2531C27.2407 32.3701 27.2104 32.5304 27.2104 32.7341H27.0869L27.0284 31.9736H27.1844C27.2321 31.8566 27.3036 31.7483 27.3989 31.6486C27.4942 31.5489 27.6156 31.4666 27.7629 31.4016C27.9146 31.3366 28.0944 31.3041 28.3024 31.3041C28.5841 31.3041 28.8137 31.3583 28.9914 31.4666C29.1691 31.5749 29.3012 31.7244 29.3879 31.9151C29.4746 32.1058 29.5179 32.3246 29.5179 32.5716V34.5996ZM27.2104 34.5996H26.5084V31.3691H27.1519V32.3376L27.2104 32.3701V34.5996ZM31.7056 34.6711C31.3676 34.6711 31.0816 34.5996 30.8476 34.4566C30.6136 34.3136 30.4337 34.1164 30.3081 33.8651C30.1867 33.6138 30.1261 33.3213 30.1261 32.9876C30.1261 32.6539 30.1889 32.3614 30.3146 32.1101C30.4446 31.8544 30.6287 31.6573 30.8671 31.5186C31.1054 31.3756 31.3936 31.3041 31.7316 31.3041C32.0176 31.3041 32.2689 31.3583 32.4856 31.4666C32.7022 31.5749 32.8691 31.7266 32.9861 31.9216C33.1074 32.1166 33.1681 32.3441 33.1681 32.6041V32.6626H32.4726V32.6236C32.4726 32.3853 32.4076 32.2119 32.2776 32.1036C32.1519 31.9909 31.9547 31.9346 31.6861 31.9346C31.3741 31.9346 31.1509 32.0234 31.0166 32.2011C30.8866 32.3744 30.8216 32.6344 30.8216 32.9811C30.8216 33.3321 30.8866 33.5964 31.0166 33.7741C31.1509 33.9474 31.3741 34.0341 31.6861 34.0341C31.9547 34.0341 32.1519 33.9799 32.2776 33.8716C32.4076 33.7589 32.4726 33.5856 32.4726 33.3516V33.3126H33.1681V33.3711C33.1681 33.6224 33.1074 33.8478 32.9861 34.0471C32.8647 34.2421 32.6936 34.3959 32.4726 34.5086C32.2559 34.6169 32.0002 34.6711 31.7056 34.6711ZM35.2435 34.6646C34.8925 34.6646 34.6 34.5953 34.366 34.4566C34.132 34.3136 33.9587 34.1164 33.846 33.8651C33.7333 33.6094 33.677 33.3148 33.677 32.9811C33.677 32.6474 33.7398 32.3549 33.8655 32.1036C33.9955 31.8523 34.1775 31.6573 34.4115 31.5186C34.6455 31.3756 34.9228 31.3041 35.2435 31.3041C35.5338 31.3041 35.7895 31.3604 36.0105 31.4731C36.2358 31.5814 36.4092 31.7396 36.5305 31.9476C36.6562 32.1556 36.719 32.4069 36.719 32.7016C36.719 32.7883 36.7147 32.8728 36.706 32.9551C36.7017 33.0331 36.6952 33.0981 36.6865 33.1501H34.0085V32.6821H36.1145L36.043 32.7471C36.0603 32.5478 36.0387 32.3853 35.978 32.2596C35.9217 32.1339 35.8285 32.0408 35.6985 31.9801C35.5728 31.9194 35.4147 31.8891 35.224 31.8891C34.8817 31.8891 34.6477 31.9758 34.522 32.1491C34.3963 32.3181 34.3335 32.5521 34.3335 32.8511V33.0461C34.3335 33.2628 34.3595 33.4469 34.4115 33.5986C34.4678 33.7459 34.5632 33.8564 34.6975 33.9301C34.8318 34.0038 35.016 34.0406 35.25 34.0406C35.523 34.0406 35.7158 33.9973 35.8285 33.9106C35.9412 33.8239 35.9975 33.7091 35.9975 33.5661V33.5141H36.693V33.5726C36.693 33.7936 36.6323 33.9864 36.511 34.1511C36.3897 34.3114 36.2207 34.4371 36.004 34.5281C35.7917 34.6191 35.5382 34.6646 35.2435 34.6646Z" fill="black"/>
<path d="M25.9994 0.801169C39.7857 0.801169 50.9617 12.0836 50.9617 26.0012C50.9617 39.9187 39.7857 51.2012 25.9994 51.2012C12.2131 51.2012 1.03711 39.9187 1.03711 26.0012C1.03711 12.0836 12.2131 0.80117 25.9994 0.801169ZM25.9994 47.4212C37.7177 47.4212 47.2173 37.8311 47.2173 26.0012C47.2173 14.1712 37.7177 4.58117 25.9994 4.58117C14.281 4.58117 4.78145 14.1712 4.78145 26.0012C4.78145 37.8311 14.281 47.4212 25.9994 47.4212Z" fill="#D7BEAE"/>
<path d="M25.9998 0.801169C29.176 0.801169 32.3235 1.40159 35.2766 2.5708L33.8851 6.08536C31.3749 5.09152 28.6995 4.58117 25.9998 4.58117L25.9998 0.801169Z" fill="#A86133"/>
</svg>
