<svg width="59" height="59" viewBox="0 0 59 59" fill="none" xmlns="http://www.w3.org/2000/svg">
<path d="M23.8294 27.1324C22.699 27.1324 21.8926 26.8192 21.4102 26.1928C20.9278 25.5664 20.6866 24.598 20.6866 23.2876C20.6866 22.1212 20.9602 21.2284 21.5074 20.6092C22.0546 19.99 22.8574 19.6804 23.9158 19.6804C24.751 19.6804 25.4062 19.8856 25.8814 20.296C26.3566 20.7064 26.5942 21.2644 26.5942 21.97V22.0564H24.877V21.9916C24.877 21.7252 24.7834 21.5344 24.5962 21.4192C24.4162 21.304 24.1174 21.2464 23.6998 21.2464C23.1814 21.2464 22.8286 21.3652 22.6414 21.6028C22.4542 21.8404 22.3606 22.2292 22.3606 22.7692V23.3956H22.4146C22.7818 22.834 23.437 22.5532 24.3802 22.5532C25.165 22.5532 25.759 22.744 26.1622 23.1256C26.5726 23.5072 26.7778 24.0472 26.7778 24.7456C26.7778 25.4872 26.5222 26.0704 26.011 26.4952C25.507 26.92 24.7798 27.1324 23.8294 27.1324ZM22.7926 25.3828C22.9942 25.5124 23.347 25.5772 23.851 25.5772C24.355 25.5772 24.7042 25.5124 24.8986 25.3828C25.093 25.2532 25.1902 25.03 25.1902 24.7132C25.1902 24.4036 25.093 24.184 24.8986 24.0544C24.7042 23.9248 24.355 23.86 23.851 23.86C23.347 23.86 22.9942 23.9248 22.7926 24.0544C22.5982 24.184 22.501 24.4036 22.501 24.7132C22.501 25.03 22.5982 25.2532 22.7926 25.3828ZM30.669 22.7908C30.3306 23.1076 29.8698 23.266 29.2866 23.266C28.7034 23.266 28.239 23.1076 27.8934 22.7908C27.555 22.4668 27.3858 22.0276 27.3858 21.4732C27.3858 20.9188 27.555 20.4832 27.8934 20.1664C28.239 19.8424 28.7034 19.6804 29.2866 19.6804C29.8698 19.6804 30.3306 19.8424 30.669 20.1664C31.0074 20.4832 31.1766 20.9188 31.1766 21.4732C31.1766 22.0276 31.0074 22.4668 30.669 22.7908ZM29.5998 27.0244H28.1202L33.3366 19.7884H34.8054L29.5998 27.0244ZM28.7466 22.024C28.8474 22.1176 29.0274 22.1644 29.2866 22.1644C29.5458 22.1644 29.7222 22.1176 29.8158 22.024C29.9166 21.9304 29.967 21.7468 29.967 21.4732C29.967 21.1996 29.9166 21.016 29.8158 20.9224C29.7222 20.8288 29.5458 20.782 29.2866 20.782C29.0274 20.782 28.8474 20.8288 28.7466 20.9224C28.653 21.016 28.6062 21.1996 28.6062 21.4732C28.6062 21.7468 28.653 21.9304 28.7466 22.024ZM35.0322 26.6572C34.6938 26.974 34.233 27.1324 33.6498 27.1324C33.0666 27.1324 32.6022 26.974 32.2566 26.6572C31.9182 26.3332 31.749 25.894 31.749 25.3396C31.749 24.7852 31.9182 24.3496 32.2566 24.0328C32.6022 23.7088 33.0666 23.5468 33.6498 23.5468C34.233 23.5468 34.6938 23.7088 35.0322 24.0328C35.3706 24.3496 35.5398 24.7852 35.5398 25.3396C35.5398 25.894 35.3706 26.3332 35.0322 26.6572ZM33.1098 25.8904C33.2106 25.984 33.3906 26.0308 33.6498 26.0308C33.909 26.0308 34.0854 25.984 34.179 25.8904C34.2798 25.7968 34.3302 25.6132 34.3302 25.3396C34.3302 25.066 34.2798 24.8824 34.179 24.7888C34.0854 24.6952 33.909 24.6484 33.6498 24.6484C33.3906 24.6484 33.2106 24.6952 33.1098 24.7888C33.0162 24.8824 32.9694 25.066 32.9694 25.3396C32.9694 25.6132 33.0162 25.7968 33.1098 25.8904Z" fill="black"/>
<path d="M10.9393 36.4848C10.5153 36.4848 10.1893 36.3448 9.96127 36.0648C9.73727 35.7808 9.62527 35.4028 9.62527 34.9308C9.62527 34.4588 9.73527 34.0828 9.95527 33.8028C10.1793 33.5228 10.4953 33.3828 10.9033 33.3828C11.1673 33.3828 11.3793 33.4368 11.5393 33.5448C11.7033 33.6488 11.8173 33.7688 11.8813 33.9048H12.0433L12.0133 34.6668H11.8993C11.8993 34.4988 11.8673 34.3608 11.8033 34.2528C11.7393 34.1448 11.6473 34.0648 11.5273 34.0128C11.4073 33.9608 11.2593 33.9348 11.0833 33.9348C10.9393 33.9348 10.8153 33.9528 10.7113 33.9888C10.6113 34.0248 10.5273 34.0808 10.4593 34.1568C10.3953 34.2328 10.3473 34.3348 10.3153 34.4628C10.2873 34.5908 10.2733 34.7468 10.2733 34.9308C10.2733 35.1108 10.2873 35.2668 10.3153 35.3988C10.3473 35.5268 10.3953 35.6308 10.4593 35.7108C10.5273 35.7868 10.6133 35.8428 10.7173 35.8788C10.8213 35.9148 10.9433 35.9328 11.0833 35.9328C11.2593 35.9328 11.4073 35.9068 11.5273 35.8548C11.6473 35.7988 11.7393 35.7168 11.8033 35.6088C11.8673 35.5008 11.8993 35.3648 11.8993 35.2008H12.0133L12.0433 35.9328H11.9233C11.8553 36.1048 11.7373 36.2408 11.5693 36.3408C11.4053 36.4368 11.1953 36.4848 10.9393 36.4848ZM12.5473 36.4248H11.9473V35.7168L11.8993 35.6388V32.4048H12.5473V36.4248ZM14.566 36.4848C14.242 36.4848 13.972 36.4208 13.756 36.2928C13.54 36.1608 13.38 35.9788 13.276 35.7468C13.172 35.5108 13.12 35.2388 13.12 34.9308C13.12 34.6228 13.178 34.3528 13.294 34.1208C13.414 33.8888 13.582 33.7088 13.798 33.5808C14.014 33.4488 14.27 33.3828 14.566 33.3828C14.834 33.3828 15.07 33.4348 15.274 33.5388C15.482 33.6388 15.642 33.7848 15.754 33.9768C15.87 34.1688 15.928 34.4008 15.928 34.6728C15.928 34.7528 15.924 34.8308 15.916 34.9068C15.912 34.9788 15.906 35.0388 15.898 35.0868H13.426V34.6548H15.37L15.304 34.7148C15.32 34.5308 15.3 34.3808 15.244 34.2648C15.192 34.1488 15.106 34.0628 14.986 34.0068C14.87 33.9508 14.724 33.9228 14.548 33.9228C14.232 33.9228 14.016 34.0028 13.9 34.1628C13.784 34.3188 13.726 34.5348 13.726 34.8108V34.9908C13.726 35.1908 13.75 35.3608 13.798 35.5008C13.85 35.6368 13.938 35.7388 14.062 35.8068C14.186 35.8748 14.356 35.9088 14.572 35.9088C14.824 35.9088 15.002 35.8688 15.106 35.7888C15.21 35.7088 15.262 35.6028 15.262 35.4708V35.4228H15.904V35.4768C15.904 35.6808 15.848 35.8588 15.736 36.0108C15.624 36.1588 15.468 36.2748 15.268 36.3588C15.072 36.4428 14.838 36.4848 14.566 36.4848ZM19.3948 36.4848C19.1268 36.4848 18.9088 36.4328 18.7408 36.3288C18.5768 36.2208 18.4628 36.0988 18.3988 35.9628H18.2368L18.2668 35.2008H18.3808C18.3808 35.3648 18.4108 35.5008 18.4708 35.6088C18.5348 35.7168 18.6288 35.7988 18.7528 35.8548C18.8768 35.9068 19.0248 35.9328 19.1968 35.9328C19.3368 35.9328 19.4588 35.9148 19.5628 35.8788C19.6668 35.8428 19.7508 35.7868 19.8148 35.7108C19.8828 35.6348 19.9308 35.5328 19.9588 35.4048C19.9908 35.2728 20.0068 35.1148 20.0068 34.9308C20.0068 34.7468 19.9908 34.5928 19.9588 34.4688C19.9308 34.3408 19.8828 34.2368 19.8148 34.1568C19.7508 34.0768 19.6668 34.0208 19.5628 33.9888C19.4628 33.9528 19.3408 33.9348 19.1968 33.9348C19.0248 33.9348 18.8768 33.9628 18.7528 34.0188C18.6288 34.0708 18.5348 34.1508 18.4708 34.2588C18.4108 34.3628 18.3808 34.4988 18.3808 34.6668H18.2668L18.2368 33.9348H18.3568C18.4288 33.7628 18.5468 33.6288 18.7108 33.5328C18.8788 33.4328 19.0928 33.3828 19.3528 33.3828C19.7728 33.3828 20.0948 33.5228 20.3188 33.8028C20.5428 34.0828 20.6548 34.4588 20.6548 34.9308C20.6548 35.4028 20.5468 35.7808 20.3308 36.0648C20.1148 36.3448 19.8028 36.4848 19.3948 36.4848ZM18.3808 37.4628H17.7388V33.4428H18.3268V34.1508L18.3808 34.2288V37.4628ZM21.8997 36.4248H21.2517V33.4248H21.8457V34.2588L21.8997 34.2888V36.4248ZM21.8997 34.4808H21.7497V33.8988H21.8757C21.9357 33.7588 22.0337 33.6388 22.1697 33.5388C22.3097 33.4348 22.4897 33.3828 22.7097 33.3828C22.9217 33.3828 23.0897 33.4288 23.2137 33.5208C23.3417 33.6128 23.4337 33.7348 23.4897 33.8868C23.5457 34.0388 23.5737 34.2088 23.5737 34.3968V34.5948H22.9257V34.4748C22.9257 34.2748 22.8917 34.1348 22.8237 34.0548C22.7557 33.9748 22.6277 33.9348 22.4397 33.9348C22.2437 33.9348 22.1037 33.9768 22.0197 34.0608C21.9397 34.1408 21.8997 34.2808 21.8997 34.4808ZM25.4347 36.4848C25.1307 36.4848 24.8667 36.4208 24.6427 36.2928C24.4187 36.1608 24.2467 35.9788 24.1267 35.7468C24.0067 35.5108 23.9467 35.2388 23.9467 34.9308C23.9467 34.6228 24.0067 34.3528 24.1267 34.1208C24.2467 33.8888 24.4187 33.7088 24.6427 33.5808C24.8667 33.4488 25.1307 33.3828 25.4347 33.3828C25.7387 33.3828 25.9987 33.4488 26.2147 33.5808C26.4347 33.7088 26.6027 33.8888 26.7187 34.1208C26.8387 34.3528 26.8987 34.6228 26.8987 34.9308C26.8987 35.2388 26.8387 35.5108 26.7187 35.7468C26.6027 35.9788 26.4347 36.1608 26.2147 36.2928C25.9987 36.4208 25.7387 36.4848 25.4347 36.4848ZM25.4347 35.9088C25.7467 35.9088 25.9647 35.8308 26.0887 35.6748C26.2127 35.5148 26.2747 35.2668 26.2747 34.9308C26.2747 34.5948 26.2127 34.3488 26.0887 34.1928C25.9647 34.0368 25.7467 33.9588 25.4347 33.9588C25.1187 33.9588 24.8987 34.0368 24.7747 34.1928C24.6507 34.3488 24.5887 34.5948 24.5887 34.9308C24.5887 35.2668 24.6507 35.5148 24.7747 35.6748C24.8987 35.8308 25.1187 35.9088 25.4347 35.9088ZM29.0938 36.4848C28.8338 36.4848 28.6198 36.4368 28.4518 36.3408C28.2838 36.2408 28.1618 36.1048 28.0858 35.9328H27.9658L28.0018 35.2008H28.1158C28.1158 35.3648 28.1458 35.5008 28.2058 35.6088C28.2698 35.7168 28.3618 35.7988 28.4818 35.8548C28.6058 35.9068 28.7538 35.9328 28.9258 35.9328C29.0698 35.9328 29.1918 35.9148 29.2918 35.8788C29.3958 35.8428 29.4818 35.7868 29.5498 35.7108C29.6178 35.6308 29.6658 35.5268 29.6938 35.3988C29.7258 35.2668 29.7418 35.1108 29.7418 34.9308C29.7418 34.7468 29.7258 34.5908 29.6938 34.4628C29.6658 34.3348 29.6178 34.2328 29.5498 34.1568C29.4858 34.0808 29.4018 34.0248 29.2978 33.9888C29.1938 33.9528 29.0698 33.9348 28.9258 33.9348C28.7538 33.9348 28.6058 33.9608 28.4818 34.0128C28.3618 34.0648 28.2698 34.1448 28.2058 34.2528C28.1458 34.3608 28.1158 34.4988 28.1158 34.6668H28.0018L27.9658 33.9168H28.1338C28.1978 33.7808 28.3138 33.6588 28.4818 33.5508C28.6538 33.4388 28.8698 33.3828 29.1298 33.3828C29.5418 33.3828 29.8538 33.5228 30.0658 33.8028C30.2818 34.0828 30.3898 34.4588 30.3898 34.9308C30.3898 35.4028 30.2778 35.7808 30.0538 36.0648C29.8338 36.3448 29.5138 36.4848 29.0938 36.4848ZM28.0618 36.4248H27.4678V32.4048H28.1158V35.6388L28.0618 35.7168V36.4248ZM33.5061 36.4248H32.9061V35.8368L32.8881 35.6748V34.5288C32.8881 34.3048 32.8341 34.1528 32.7261 34.0728C32.6221 33.9928 32.4521 33.9528 32.2161 33.9528C31.9801 33.9528 31.8101 33.9948 31.7061 34.0788C31.6061 34.1628 31.5561 34.3028 31.5561 34.4988V34.5888H30.9321V34.5288C30.9321 34.3048 30.9861 34.1068 31.0941 33.9348C31.2061 33.7628 31.3601 33.6288 31.5561 33.5328C31.7561 33.4328 31.9881 33.3828 32.2521 33.3828C32.5321 33.3828 32.7641 33.4348 32.9481 33.5388C33.1321 33.6428 33.2701 33.7868 33.3621 33.9708C33.4581 34.1508 33.5061 34.3648 33.5061 34.6128V36.4248ZM31.7961 36.4848C31.5281 36.4848 31.3021 36.4168 31.1181 36.2808C30.9381 36.1408 30.8481 35.9428 30.8481 35.6868C30.8481 35.5188 30.8861 35.3788 30.9621 35.2668C31.0421 35.1548 31.1561 35.0628 31.3041 34.9908C31.4521 34.9188 31.6321 34.8688 31.8441 34.8408L32.9481 34.6848V35.1408L31.9401 35.2908C31.7681 35.3148 31.6481 35.3508 31.5801 35.3988C31.5121 35.4468 31.4781 35.5268 31.4781 35.6388C31.4781 35.7548 31.5181 35.8388 31.5981 35.8908C31.6821 35.9428 31.8181 35.9688 32.0061 35.9688C32.1501 35.9688 32.2881 35.9468 32.4201 35.9028C32.5561 35.8548 32.6681 35.7768 32.7561 35.6688C32.8441 35.5568 32.8881 35.4008 32.8881 35.2008L32.9721 35.9628L32.8761 35.9568C32.8201 36.0488 32.7421 36.1348 32.6421 36.2148C32.5461 36.2948 32.4281 36.3608 32.2881 36.4128C32.1481 36.4608 31.9841 36.4848 31.7961 36.4848ZM35.8313 36.4848C35.5713 36.4848 35.3573 36.4368 35.1893 36.3408C35.0213 36.2408 34.8993 36.1048 34.8233 35.9328H34.7033L34.7393 35.2008H34.8533C34.8533 35.3648 34.8833 35.5008 34.9433 35.6088C35.0073 35.7168 35.0993 35.7988 35.2193 35.8548C35.3433 35.9068 35.4913 35.9328 35.6633 35.9328C35.8073 35.9328 35.9293 35.9148 36.0293 35.8788C36.1333 35.8428 36.2193 35.7868 36.2873 35.7108C36.3553 35.6308 36.4033 35.5268 36.4313 35.3988C36.4633 35.2668 36.4793 35.1108 36.4793 34.9308C36.4793 34.7468 36.4633 34.5908 36.4313 34.4628C36.4033 34.3348 36.3553 34.2328 36.2873 34.1568C36.2233 34.0808 36.1393 34.0248 36.0353 33.9888C35.9313 33.9528 35.8073 33.9348 35.6633 33.9348C35.4913 33.9348 35.3433 33.9608 35.2193 34.0128C35.0993 34.0648 35.0073 34.1448 34.9433 34.2528C34.8833 34.3608 34.8533 34.4988 34.8533 34.6668H34.7393L34.7033 33.9168H34.8713C34.9353 33.7808 35.0513 33.6588 35.2193 33.5508C35.3913 33.4388 35.6073 33.3828 35.8673 33.3828C36.2793 33.3828 36.5913 33.5228 36.8033 33.8028C37.0193 34.0828 37.1273 34.4588 37.1273 34.9308C37.1273 35.4028 37.0153 35.7808 36.7913 36.0648C36.5713 36.3448 36.2513 36.4848 35.8313 36.4848ZM34.7993 36.4248H34.2053V32.4048H34.8533V35.6388L34.7993 35.7168V36.4248ZM38.3002 33.0648H37.6582L37.6522 32.4048H38.3002V33.0648ZM38.3062 36.4248H37.6582V33.4248H38.3062V36.4248ZM39.628 36.4248H38.98V32.4048H39.628V36.4248ZM40.948 33.0648H40.306L40.3 32.4048H40.948V33.0648ZM40.954 36.4248H40.306V33.4248H40.954V36.4248ZM42.7925 36.4848C42.3685 36.4848 42.0425 36.3448 41.8145 36.0648C41.5905 35.7808 41.4785 35.4028 41.4785 34.9308C41.4785 34.4588 41.5885 34.0828 41.8085 33.8028C42.0325 33.5228 42.3485 33.3828 42.7565 33.3828C43.0205 33.3828 43.2325 33.4368 43.3925 33.5448C43.5565 33.6488 43.6705 33.7688 43.7345 33.9048H43.8965L43.8665 34.6668H43.7525C43.7525 34.4988 43.7205 34.3608 43.6565 34.2528C43.5925 34.1448 43.5005 34.0648 43.3805 34.0128C43.2605 33.9608 43.1125 33.9348 42.9365 33.9348C42.7925 33.9348 42.6685 33.9528 42.5645 33.9888C42.4645 34.0248 42.3805 34.0808 42.3125 34.1568C42.2485 34.2328 42.2005 34.3348 42.1685 34.4628C42.1405 34.5908 42.1265 34.7468 42.1265 34.9308C42.1265 35.1108 42.1405 35.2668 42.1685 35.3988C42.2005 35.5268 42.2485 35.6308 42.3125 35.7108C42.3805 35.7868 42.4665 35.8428 42.5705 35.8788C42.6745 35.9148 42.7965 35.9328 42.9365 35.9328C43.1125 35.9328 43.2605 35.9068 43.3805 35.8548C43.5005 35.7988 43.5925 35.7168 43.6565 35.6088C43.7205 35.5008 43.7525 35.3648 43.7525 35.2008H43.8665L43.8965 35.9328H43.7765C43.7085 36.1048 43.5905 36.2408 43.4225 36.3408C43.2585 36.4368 43.0485 36.4848 42.7925 36.4848ZM44.4005 36.4248H43.8005V35.7168L43.7525 35.6388V32.4048H44.4005V36.4248ZM47.6134 36.4248H47.0134V35.8368L46.9954 35.6748V34.5288C46.9954 34.3048 46.9414 34.1528 46.8334 34.0728C46.7294 33.9928 46.5594 33.9528 46.3234 33.9528C46.0874 33.9528 45.9174 33.9948 45.8134 34.0788C45.7134 34.1628 45.6634 34.3028 45.6634 34.4988V34.5888H45.0394V34.5288C45.0394 34.3048 45.0934 34.1068 45.2014 33.9348C45.3134 33.7628 45.4674 33.6288 45.6634 33.5328C45.8634 33.4328 46.0954 33.3828 46.3594 33.3828C46.6394 33.3828 46.8714 33.4348 47.0554 33.5388C47.2394 33.6428 47.3774 33.7868 47.4694 33.9708C47.5654 34.1508 47.6134 34.3648 47.6134 34.6128V36.4248ZM45.9034 36.4848C45.6354 36.4848 45.4094 36.4168 45.2254 36.2808C45.0454 36.1408 44.9554 35.9428 44.9554 35.6868C44.9554 35.5188 44.9934 35.3788 45.0694 35.2668C45.1494 35.1548 45.2634 35.0628 45.4114 34.9908C45.5594 34.9188 45.7394 34.8688 45.9514 34.8408L47.0554 34.6848V35.1408L46.0474 35.2908C45.8754 35.3148 45.7554 35.3508 45.6874 35.3988C45.6194 35.4468 45.5854 35.5268 45.5854 35.6388C45.5854 35.7548 45.6254 35.8388 45.7054 35.8908C45.7894 35.9428 45.9254 35.9688 46.1134 35.9688C46.2574 35.9688 46.3954 35.9468 46.5274 35.9028C46.6634 35.8548 46.7754 35.7768 46.8634 35.6688C46.9514 35.5568 46.9954 35.4008 46.9954 35.2008L47.0794 35.9628L46.9834 35.9568C46.9274 36.0488 46.8494 36.1348 46.7494 36.2148C46.6534 36.2948 46.5354 36.3608 46.3954 36.4128C46.2554 36.4608 46.0914 36.4848 45.9034 36.4848ZM49.4949 36.4848C49.0709 36.4848 48.7449 36.3448 48.5169 36.0648C48.2929 35.7808 48.1809 35.4028 48.1809 34.9308C48.1809 34.4588 48.2909 34.0828 48.5109 33.8028C48.7349 33.5228 49.0509 33.3828 49.4589 33.3828C49.7229 33.3828 49.9349 33.4368 50.0949 33.5448C50.2589 33.6488 50.3729 33.7688 50.4369 33.9048H50.5989L50.5689 34.6668H50.4549C50.4549 34.4988 50.4229 34.3608 50.3589 34.2528C50.2949 34.1448 50.2029 34.0648 50.0829 34.0128C49.9629 33.9608 49.8149 33.9348 49.6389 33.9348C49.4949 33.9348 49.3709 33.9528 49.2669 33.9888C49.1669 34.0248 49.0829 34.0808 49.0149 34.1568C48.9509 34.2328 48.9029 34.3348 48.8709 34.4628C48.8429 34.5908 48.8289 34.7468 48.8289 34.9308C48.8289 35.1108 48.8429 35.2668 48.8709 35.3988C48.9029 35.5268 48.9509 35.6308 49.0149 35.7108C49.0829 35.7868 49.1689 35.8428 49.2729 35.8788C49.3769 35.9148 49.4989 35.9328 49.6389 35.9328C49.8149 35.9328 49.9629 35.9068 50.0829 35.8548C50.2029 35.7988 50.2949 35.7168 50.3589 35.6088C50.4229 35.5008 50.4549 35.3648 50.4549 35.2008H50.5689L50.5989 35.9328H50.4789C50.4109 36.1048 50.2929 36.2408 50.1249 36.3408C49.9609 36.4368 49.7509 36.4848 49.4949 36.4848ZM51.1029 36.4248H50.5029V35.7168L50.4549 35.6388V32.4048H51.1029V36.4248Z" fill="black"/>
<path d="M29.4246 -9.66415e-05C45.5222 -9.73451e-05 58.5719 13.1739 58.5719 29.4248C58.5719 45.6757 45.5222 58.8496 29.4246 58.8496C13.327 58.8496 0.277343 45.6757 0.277342 29.4248C0.277342 13.1739 13.327 -9.59379e-05 29.4246 -9.66415e-05ZM29.4246 54.4359C43.1076 54.4359 54.1998 43.238 54.1998 29.4248C54.1998 15.6115 43.1076 4.41363 29.4246 4.41363C15.7417 4.41363 4.64943 15.6115 4.64943 29.4248C4.64943 43.238 15.7417 54.4359 29.4246 54.4359Z" fill="#E6D1BF"/>
<path d="M29.4249 -9.66536e-05C33.1335 -9.68157e-05 36.8087 0.700984 40.2569 2.06622L38.6321 6.17C35.7011 5.00955 32.5772 4.41363 29.4249 4.41363L29.4249 -9.66536e-05Z" fill="#A86133"/>
</svg>
