<svg width="130" height="130" viewBox="0 0 130 130" fill="none" xmlns="http://www.w3.org/2000/svg">
<circle cx="65" cy="65" r="65" transform="rotate(-90 65 65)" fill="#0C3A25"/>
<path d="M42.2935 90.0403H40.5655V79.3203H42.2935V90.0403ZM48.2295 90.0403H41.0935V88.4723H48.2295V90.0403ZM47.9895 85.4323H41.0935V83.8643H47.9895V85.4323ZM48.2295 80.8723H41.0935V79.3203H48.2295V80.8723ZM45.2215 78.3603H43.4295L41.2535 76.4083V76.3283H43.5415L45.2215 78.2803V78.3603ZM52.889 90.2003C51.7583 90.2003 50.889 89.8269 50.281 89.0803C49.6836 88.3229 49.385 87.3149 49.385 86.0563C49.385 84.7976 49.6783 83.7949 50.265 83.0483C50.8623 82.3016 51.705 81.9283 52.793 81.9283C53.497 81.9283 54.0623 82.0723 54.489 82.3603C54.9263 82.6376 55.2303 82.9576 55.401 83.3203H55.833L55.753 85.3523H55.449C55.449 84.9043 55.3636 84.5363 55.193 84.2483C55.0223 83.9603 54.777 83.7469 54.457 83.6083C54.137 83.4696 53.7423 83.4003 53.273 83.4003C52.889 83.4003 52.5583 83.4483 52.281 83.5443C52.0143 83.6403 51.7903 83.7896 51.609 83.9923C51.4383 84.1949 51.3103 84.4669 51.225 84.8083C51.1503 85.1496 51.113 85.5656 51.113 86.0563C51.113 86.5363 51.1503 86.9523 51.225 87.3043C51.3103 87.6456 51.4383 87.9229 51.609 88.1363C51.7903 88.3389 52.0196 88.4883 52.297 88.5843C52.5743 88.6803 52.8996 88.7283 53.273 88.7283C53.7423 88.7283 54.137 88.6589 54.457 88.5203C54.777 88.3709 55.0223 88.1523 55.193 87.8643C55.3636 87.5763 55.449 87.2136 55.449 86.7763H55.753L55.833 88.7283H55.513C55.3316 89.1869 55.017 89.5496 54.569 89.8163C54.1316 90.0723 53.5716 90.2003 52.889 90.2003ZM57.177 90.0403H55.577V88.1523L55.449 87.9443V79.3203H57.177V90.0403ZM62.3767 90.0403C61.502 90.0403 60.83 89.8536 60.3607 89.4803C59.902 89.1069 59.6727 88.4776 59.6727 87.5923V82.2643L60.0727 80.1203H61.4007V87.5123C61.4007 87.9283 61.502 88.1949 61.7047 88.3123C61.918 88.4189 62.2967 88.4723 62.8407 88.4723H63.8007V89.8963C63.6407 89.9389 63.4327 89.9763 63.1767 90.0083C62.9207 90.0296 62.654 90.0403 62.3767 90.0403ZM63.8007 83.5283H58.3447V82.0883H63.8007V83.5283ZM66.9642 90.0403H65.2362V82.0403H66.8202V84.2643L66.9642 84.3443V90.0403ZM66.9642 84.8563H66.5642V83.3043H66.9002C67.0602 82.9309 67.3215 82.6109 67.6842 82.3443C68.0575 82.0669 68.5375 81.9283 69.1242 81.9283C69.6895 81.9283 70.1375 82.0509 70.4682 82.2963C70.8095 82.5416 71.0549 82.8669 71.2042 83.2723C71.3535 83.6776 71.4282 84.1309 71.4282 84.6323V85.1603H69.7002V84.8403C69.7002 84.3069 69.6095 83.9336 69.4282 83.7203C69.2469 83.5069 68.9055 83.4003 68.4042 83.4003C67.8815 83.4003 67.5082 83.5123 67.2842 83.7363C67.0709 83.9496 66.9642 84.3229 66.9642 84.8563ZM79.3316 90.0403H77.7316V88.4723L77.6836 88.0403V84.9843C77.6836 84.3869 77.5396 83.9816 77.2516 83.7683C76.9742 83.5549 76.5209 83.4483 75.8916 83.4483C75.2622 83.4483 74.8089 83.5603 74.5316 83.7843C74.2649 84.0083 74.1316 84.3816 74.1316 84.9043V85.1443H72.4676V84.9843C72.4676 84.3869 72.6116 83.8589 72.8996 83.4003C73.1982 82.9416 73.6089 82.5843 74.1316 82.3283C74.6649 82.0616 75.2836 81.9283 75.9876 81.9283C76.7342 81.9283 77.3529 82.0669 77.8436 82.3443C78.3342 82.6216 78.7022 83.0056 78.9476 83.4963C79.2036 83.9763 79.3316 84.5469 79.3316 85.2083V90.0403ZM74.7716 90.2003C74.0569 90.2003 73.4542 90.0189 72.9636 89.6563C72.4836 89.2829 72.2436 88.7549 72.2436 88.0723C72.2436 87.6243 72.3449 87.2509 72.5476 86.9523C72.7609 86.6536 73.0649 86.4083 73.4596 86.2163C73.8542 86.0243 74.3342 85.8909 74.8996 85.8163L77.8436 85.4003V86.6163L75.1556 87.0163C74.6969 87.0803 74.3769 87.1763 74.1956 87.3043C74.0142 87.4323 73.9236 87.6456 73.9236 87.9443C73.9236 88.2536 74.0302 88.4776 74.2436 88.6163C74.4676 88.7549 74.8302 88.8243 75.3316 88.8243C75.7156 88.8243 76.0836 88.7656 76.4356 88.6483C76.7982 88.5203 77.0969 88.3123 77.3316 88.0243C77.5662 87.7256 77.6836 87.3096 77.6836 86.7763L77.9076 88.8083L77.6516 88.7923C77.5022 89.0376 77.2942 89.2669 77.0276 89.4803C76.7716 89.6936 76.4569 89.8696 76.0836 90.0083C75.7102 90.1363 75.2729 90.2003 74.7716 90.2003ZM88.6442 90.0403H86.9162V85.4163C86.9162 84.7123 86.7829 84.2056 86.5162 83.8963C86.2495 83.5763 85.7482 83.4163 85.0122 83.4163C84.5429 83.4163 84.1589 83.4856 83.8602 83.6243C83.5615 83.7523 83.3375 83.9656 83.1882 84.2643C83.0389 84.5523 82.9642 84.9469 82.9642 85.4483H82.6602L82.5162 83.5763H82.9002C83.0175 83.2883 83.1935 83.0216 83.4282 82.7763C83.6629 82.5309 83.9615 82.3283 84.3242 82.1683C84.6975 82.0083 85.1402 81.9283 85.6522 81.9283C86.3455 81.9283 86.9109 82.0616 87.3482 82.3283C87.7855 82.5949 88.1109 82.9629 88.3242 83.4323C88.5375 83.9016 88.6442 84.4403 88.6442 85.0483V90.0403ZM82.9642 90.0403H81.2362V82.0883H82.8202V84.4723L82.9642 84.5523V90.0403Z" fill="#DFF0D8"/>
<path d="M32.1585 68.32C26.3665 68.32 23.0385 66.272 23.0385 62.08C23.0385 58.944 25.0865 57.408 27.1985 56.8V56.608C25.1825 56.256 23.7425 54.56 23.7425 52.032C23.7425 48.64 26.3985 46.24 32.1905 46.24C37.9825 46.24 40.6385 48.64 40.6385 52.032C40.6385 54.56 39.1985 56.256 37.1825 56.608V56.8C39.2625 57.408 41.3425 58.944 41.3425 62.08C41.3425 66.272 37.9825 68.32 32.1585 68.32ZM32.1905 55.328C34.9425 55.328 35.8385 54.592 35.8385 52.96C35.8385 51.328 34.9425 50.592 32.1905 50.592C29.4065 50.592 28.5105 51.328 28.5105 52.96C28.5105 54.592 29.4065 55.328 32.1905 55.328ZM32.1905 64C35.6465 64 36.4785 63.136 36.4785 61.28C36.4785 59.424 35.6465 58.592 32.1905 58.592C28.7025 58.592 27.9025 59.424 27.9025 61.28C27.9025 63.136 28.7025 64 32.1905 64ZM60.874 60.608H48.97V56.512H60.874V60.608ZM86.1072 68H69.3392V65.12C69.3392 60.96 72.1552 59.232 75.1312 57.792L78.8432 56.032C80.7312 55.136 81.4032 54.432 81.4032 53.024C81.4032 51.488 80.6992 50.624 77.8512 50.624C74.7472 50.624 74.1072 51.488 74.1072 53.792V54.336H69.3072V53.824C69.3072 49.664 71.8672 46.24 78.2352 46.24C83.8992 46.24 86.1712 49.12 86.1712 52.992C86.1712 56.704 83.5472 58.592 80.7632 59.84L77.5312 61.248C75.7712 62.048 74.4592 62.72 74.4592 63.744L77.9152 63.68H86.1072V68ZM104.359 68H99.5585V63.936H87.4625V60.576L98.7905 46.56H104.359V59.616H107.431V63.936H104.359V68ZM93.5105 59.616H99.5585V52.384H99.2705L93.5105 59.296V59.616Z" fill="#DFF0D8"/>
</svg>
