<svg width="130" height="130" viewBox="0 0 130 130" fill="none" xmlns="http://www.w3.org/2000/svg">
<circle cx="65" cy="65" r="65" transform="rotate(-90 65 65)" fill="#0C3A25"/>
<path d="M52.4607 90.0403H50.7327V79.3203H52.4607V90.0403ZM45.3247 90.0403H43.5967V79.3203H45.3247V90.0403ZM51.5807 85.4163H44.1407V83.8643H51.5807V85.4163ZM57.9467 90.2003C57.136 90.2003 56.432 90.0296 55.8347 89.6883C55.2374 89.3363 54.7787 88.8509 54.4587 88.2323C54.1387 87.6029 53.9787 86.8776 53.9787 86.0563C53.9787 85.2349 54.1387 84.5149 54.4587 83.8963C54.7787 83.2776 55.2374 82.7976 55.8347 82.4563C56.432 82.1043 57.136 81.9283 57.9467 81.9283C58.7574 81.9283 59.4507 82.1043 60.0267 82.4563C60.6134 82.7976 61.0614 83.2776 61.3707 83.8963C61.6907 84.5149 61.8507 85.2349 61.8507 86.0563C61.8507 86.8776 61.6907 87.6029 61.3707 88.2323C61.0614 88.8509 60.6134 89.3363 60.0267 89.6883C59.4507 90.0296 58.7574 90.2003 57.9467 90.2003ZM57.9467 88.6643C58.7787 88.6643 59.36 88.4563 59.6907 88.0403C60.0214 87.6136 60.1867 86.9523 60.1867 86.0563C60.1867 85.1603 60.0214 84.5043 59.6907 84.0883C59.36 83.6723 58.7787 83.4643 57.9467 83.4643C57.104 83.4643 56.5174 83.6723 56.1867 84.0883C55.856 84.5043 55.6907 85.1603 55.6907 86.0563C55.6907 86.9523 55.856 87.6136 56.1867 88.0403C56.5174 88.4563 57.104 88.6643 57.9467 88.6643ZM65.1205 90.0403H63.3925V82.0403H64.9765V84.2643L65.1205 84.3443V90.0403ZM65.1205 84.8563H64.7205V83.3043H65.0565C65.2165 82.9309 65.4778 82.6109 65.8405 82.3443C66.2138 82.0669 66.6938 81.9283 67.2805 81.9283C67.8458 81.9283 68.2938 82.0509 68.6245 82.2963C68.9658 82.5416 69.2111 82.8669 69.3605 83.2723C69.5098 83.6776 69.5845 84.1309 69.5845 84.6323V85.1603H67.8565V84.8403C67.8565 84.3069 67.7658 83.9336 67.5845 83.7203C67.4031 83.5069 67.0618 83.4003 66.5605 83.4003C66.0378 83.4003 65.6645 83.5123 65.4405 83.7363C65.2271 83.9496 65.1205 84.3229 65.1205 84.8563ZM77.4878 90.0403H75.8878V88.4723L75.8398 88.0403V84.9843C75.8398 84.3869 75.6958 83.9816 75.4078 83.7683C75.1305 83.5549 74.6772 83.4483 74.0478 83.4483C73.4185 83.4483 72.9652 83.5603 72.6878 83.7843C72.4212 84.0083 72.2878 84.3816 72.2878 84.9043V85.1443H70.6238V84.9843C70.6238 84.3869 70.7678 83.8589 71.0558 83.4003C71.3545 82.9416 71.7652 82.5843 72.2878 82.3283C72.8212 82.0616 73.4398 81.9283 74.1438 81.9283C74.8905 81.9283 75.5092 82.0669 75.9998 82.3443C76.4905 82.6216 76.8585 83.0056 77.1038 83.4963C77.3598 83.9763 77.4878 84.5469 77.4878 85.2083V90.0403ZM72.9278 90.2003C72.2132 90.2003 71.6105 90.0189 71.1198 89.6563C70.6398 89.2829 70.3998 88.7549 70.3998 88.0723C70.3998 87.6243 70.5012 87.2509 70.7038 86.9523C70.9172 86.6536 71.2212 86.4083 71.6158 86.2163C72.0105 86.0243 72.4905 85.8909 73.0558 85.8163L75.9998 85.4003V86.6163L73.3118 87.0163C72.8532 87.0803 72.5332 87.1763 72.3518 87.3043C72.1705 87.4323 72.0798 87.6456 72.0798 87.9443C72.0798 88.2536 72.1865 88.4776 72.3998 88.6163C72.6238 88.7549 72.9865 88.8243 73.4878 88.8243C73.8718 88.8243 74.2398 88.7656 74.5918 88.6483C74.9545 88.5203 75.2532 88.3123 75.4878 88.0243C75.7225 87.7256 75.8398 87.3096 75.8398 86.7763L76.0638 88.8083L75.8078 88.7923C75.6585 89.0376 75.4505 89.2669 75.1838 89.4803C74.9278 89.6936 74.6132 89.8696 74.2398 90.0083C73.8665 90.1363 73.4292 90.2003 72.9278 90.2003ZM82.6896 90.2003C81.5269 90.2003 80.6469 89.9709 80.0496 89.5123C79.4522 89.0429 79.1536 88.3229 79.1536 87.3523V87.3203H80.8176V87.6083C80.8176 87.8856 80.8709 88.1149 80.9776 88.2963C81.0949 88.4669 81.2869 88.5949 81.5536 88.6803C81.8309 88.7549 82.2202 88.7923 82.7216 88.7923C83.1482 88.7923 83.4682 88.7603 83.6816 88.6963C83.9056 88.6216 84.0549 88.5203 84.1296 88.3923C84.2042 88.2643 84.2416 88.1043 84.2416 87.9123C84.2416 87.5923 84.1296 87.3683 83.9056 87.2403C83.6816 87.1016 83.2816 86.9789 82.7056 86.8723L81.4576 86.6643C80.9882 86.5683 80.5776 86.4349 80.2256 86.2643C79.8842 86.0829 79.6176 85.8376 79.4256 85.5283C79.2442 85.2083 79.1536 84.8083 79.1536 84.3283C79.1536 83.6136 79.4362 83.0376 80.0016 82.6003C80.5669 82.1523 81.3669 81.9283 82.4016 81.9283C83.0309 81.9283 83.5909 82.0296 84.0816 82.2323C84.5722 82.4349 84.9616 82.7389 85.2496 83.1443C85.5376 83.5496 85.6816 84.0563 85.6816 84.6643V84.8083H84.0336V84.6163C84.0336 84.3603 83.9909 84.1416 83.9056 83.9603C83.8202 83.7683 83.6602 83.6189 83.4256 83.5123C83.1909 83.4056 82.8336 83.3523 82.3536 83.3523C81.7242 83.3523 81.3082 83.4323 81.1056 83.5923C80.9029 83.7523 80.8016 83.9869 80.8016 84.2963C80.8016 84.6056 80.8922 84.8243 81.0736 84.9523C81.2656 85.0696 81.6389 85.1869 82.1936 85.3043L83.5536 85.5603C84.0656 85.6563 84.4922 85.8003 84.8336 85.9923C85.1749 86.1843 85.4309 86.4349 85.6016 86.7443C85.7829 87.0536 85.8736 87.4216 85.8736 87.8483C85.8736 88.5949 85.5909 89.1763 85.0256 89.5923C84.4709 89.9976 83.6922 90.2003 82.6896 90.2003Z" fill="#DFF0D8"/>
<path d="M32.1585 68.32C26.3665 68.32 23.0385 66.272 23.0385 62.08C23.0385 58.944 25.0865 57.408 27.1985 56.8V56.608C25.1825 56.256 23.7425 54.56 23.7425 52.032C23.7425 48.64 26.3985 46.24 32.1905 46.24C37.9825 46.24 40.6385 48.64 40.6385 52.032C40.6385 54.56 39.1985 56.256 37.1825 56.608V56.8C39.2625 57.408 41.3425 58.944 41.3425 62.08C41.3425 66.272 37.9825 68.32 32.1585 68.32ZM32.1905 55.328C34.9425 55.328 35.8385 54.592 35.8385 52.96C35.8385 51.328 34.9425 50.592 32.1905 50.592C29.4065 50.592 28.5105 51.328 28.5105 52.96C28.5105 54.592 29.4065 55.328 32.1905 55.328ZM32.1905 64C35.6465 64 36.4785 63.136 36.4785 61.28C36.4785 59.424 35.6465 58.592 32.1905 58.592C28.7025 58.592 27.9025 59.424 27.9025 61.28C27.9025 63.136 28.7025 64 32.1905 64ZM60.874 60.608H48.97V56.512H60.874V60.608ZM86.1072 68H69.3392V65.12C69.3392 60.96 72.1552 59.232 75.1312 57.792L78.8432 56.032C80.7312 55.136 81.4032 54.432 81.4032 53.024C81.4032 51.488 80.6992 50.624 77.8512 50.624C74.7472 50.624 74.1072 51.488 74.1072 53.792V54.336H69.3072V53.824C69.3072 49.664 71.8672 46.24 78.2352 46.24C83.8992 46.24 86.1712 49.12 86.1712 52.992C86.1712 56.704 83.5472 58.592 80.7632 59.84L77.5312 61.248C75.7712 62.048 74.4592 62.72 74.4592 63.744L77.9152 63.68H86.1072V68ZM104.359 68H99.5585V63.936H87.4625V60.576L98.7905 46.56H104.359V59.616H107.431V63.936H104.359V68ZM93.5105 59.616H99.5585V52.384H99.2705L93.5105 59.296V59.616Z" fill="#DFF0D8"/>
</svg>
