<svg width="130" height="130" viewBox="0 0 130 130" fill="none" xmlns="http://www.w3.org/2000/svg">
<circle cx="65" cy="65" r="65" transform="rotate(-90 65 65)" fill="#0C3A25"/>
<path d="M51.9295 90.0403H50.2015V79.3203H51.9295V90.0403ZM44.7935 90.0403H43.0655V79.3203H44.7935V90.0403ZM51.0495 85.4163H43.6095V83.8643H51.0495V85.4163ZM57.4155 90.2003C56.6048 90.2003 55.9008 90.0296 55.3035 89.6883C54.7061 89.3363 54.2475 88.8509 53.9275 88.2323C53.6075 87.6029 53.4475 86.8776 53.4475 86.0563C53.4475 85.2349 53.6075 84.5149 53.9275 83.8963C54.2475 83.2776 54.7061 82.7976 55.3035 82.4563C55.9008 82.1043 56.6048 81.9283 57.4155 81.9283C58.2261 81.9283 58.9195 82.1043 59.4955 82.4563C60.0821 82.7976 60.5301 83.2776 60.8395 83.8963C61.1595 84.5149 61.3195 85.2349 61.3195 86.0563C61.3195 86.8776 61.1595 87.6029 60.8395 88.2323C60.5301 88.8509 60.0821 89.3363 59.4955 89.6883C58.9195 90.0296 58.2261 90.2003 57.4155 90.2003ZM57.4155 88.6643C58.2475 88.6643 58.8288 88.4563 59.1595 88.0403C59.4901 87.6136 59.6555 86.9523 59.6555 86.0563C59.6555 85.1603 59.4901 84.5043 59.1595 84.0883C58.8288 83.6723 58.2475 83.4643 57.4155 83.4643C56.5728 83.4643 55.9861 83.6723 55.6555 84.0883C55.3248 84.5043 55.1595 85.1603 55.1595 86.0563C55.1595 86.9523 55.3248 87.6136 55.6555 88.0403C55.9861 88.4563 56.5728 88.6643 57.4155 88.6643ZM65.8212 90.2003C65.1385 90.2003 64.5732 90.0616 64.1252 89.7843C63.6772 89.4963 63.3465 89.1123 63.1332 88.6323C62.9199 88.1416 62.8132 87.5976 62.8132 87.0003V82.0883H64.5412V86.6803C64.5412 87.3949 64.6905 87.9123 64.9892 88.2323C65.2879 88.5523 65.7785 88.7123 66.4612 88.7123C66.9092 88.7123 67.2879 88.6429 67.5972 88.5043C67.9065 88.3549 68.1412 88.1256 68.3012 87.8163C68.4612 87.4963 68.5412 87.0803 68.5412 86.5683H68.9892V88.4563H68.6052C68.4879 88.7549 68.3065 89.0376 68.0612 89.3043C67.8265 89.5709 67.5225 89.7896 67.1492 89.9603C66.7865 90.1203 66.3439 90.2003 65.8212 90.2003ZM70.2692 90.0403H68.6692V87.6563L68.5412 87.5763V82.0883H70.2692V90.0403ZM73.9486 90.0403H72.2206V82.0403H73.8046V84.2643L73.9486 84.3443V90.0403ZM73.9486 84.8563H73.5486V83.3043H73.8846C74.0446 82.9309 74.3059 82.6109 74.6686 82.3443C75.0419 82.0669 75.5219 81.9283 76.1086 81.9283C76.6739 81.9283 77.1219 82.0509 77.4526 82.2963C77.7939 82.5416 78.0392 82.8669 78.1886 83.2723C78.3379 83.6776 78.4126 84.1309 78.4126 84.6323V85.1603H76.6846V84.8403C76.6846 84.3069 76.5939 83.9336 76.4126 83.7203C76.2312 83.5069 75.8899 83.4003 75.3886 83.4003C74.8659 83.4003 74.4926 83.5123 74.2686 83.7363C74.0552 83.9496 73.9486 84.3229 73.9486 84.8563ZM83.2208 90.2003C82.0582 90.2003 81.1782 89.9709 80.5808 89.5123C79.9835 89.0429 79.6848 88.3229 79.6848 87.3523V87.3203H81.3488V87.6083C81.3488 87.8856 81.4022 88.1149 81.5088 88.2963C81.6262 88.4669 81.8182 88.5949 82.0848 88.6803C82.3622 88.7549 82.7515 88.7923 83.2528 88.7923C83.6795 88.7923 83.9995 88.7603 84.2128 88.6963C84.4368 88.6216 84.5862 88.5203 84.6608 88.3923C84.7355 88.2643 84.7728 88.1043 84.7728 87.9123C84.7728 87.5923 84.6608 87.3683 84.4368 87.2403C84.2128 87.1016 83.8128 86.9789 83.2368 86.8723L81.9888 86.6643C81.5195 86.5683 81.1088 86.4349 80.7568 86.2643C80.4155 86.0829 80.1488 85.8376 79.9568 85.5283C79.7755 85.2083 79.6848 84.8083 79.6848 84.3283C79.6848 83.6136 79.9675 83.0376 80.5328 82.6003C81.0982 82.1523 81.8982 81.9283 82.9328 81.9283C83.5622 81.9283 84.1222 82.0296 84.6128 82.2323C85.1035 82.4349 85.4928 82.7389 85.7808 83.1443C86.0688 83.5496 86.2128 84.0563 86.2128 84.6643V84.8083H84.5648V84.6163C84.5648 84.3603 84.5222 84.1416 84.4368 83.9603C84.3515 83.7683 84.1915 83.6189 83.9568 83.5123C83.7222 83.4056 83.3648 83.3523 82.8848 83.3523C82.2555 83.3523 81.8395 83.4323 81.6368 83.5923C81.4342 83.7523 81.3328 83.9869 81.3328 84.2963C81.3328 84.6056 81.4235 84.8243 81.6048 84.9523C81.7968 85.0696 82.1702 85.1869 82.7248 85.3043L84.0848 85.5603C84.5968 85.6563 85.0235 85.8003 85.3648 85.9923C85.7062 86.1843 85.9622 86.4349 86.1328 86.7443C86.3142 87.0536 86.4048 87.4216 86.4048 87.8483C86.4048 88.5949 86.1222 89.1763 85.5568 89.5923C85.0022 89.9976 84.2235 90.2003 83.2208 90.2003Z" fill="#DFF0D8"/>
<path d="M32.1585 68.32C26.3665 68.32 23.0385 66.272 23.0385 62.08C23.0385 58.944 25.0865 57.408 27.1985 56.8V56.608C25.1825 56.256 23.7425 54.56 23.7425 52.032C23.7425 48.64 26.3985 46.24 32.1905 46.24C37.9825 46.24 40.6385 48.64 40.6385 52.032C40.6385 54.56 39.1985 56.256 37.1825 56.608V56.8C39.2625 57.408 41.3425 58.944 41.3425 62.08C41.3425 66.272 37.9825 68.32 32.1585 68.32ZM32.1905 55.328C34.9425 55.328 35.8385 54.592 35.8385 52.96C35.8385 51.328 34.9425 50.592 32.1905 50.592C29.4065 50.592 28.5105 51.328 28.5105 52.96C28.5105 54.592 29.4065 55.328 32.1905 55.328ZM32.1905 64C35.6465 64 36.4785 63.136 36.4785 61.28C36.4785 59.424 35.6465 58.592 32.1905 58.592C28.7025 58.592 27.9025 59.424 27.9025 61.28C27.9025 63.136 28.7025 64 32.1905 64ZM60.874 60.608H48.97V56.512H60.874V60.608ZM86.1072 68H69.3392V65.12C69.3392 60.96 72.1552 59.232 75.1312 57.792L78.8432 56.032C80.7312 55.136 81.4032 54.432 81.4032 53.024C81.4032 51.488 80.6992 50.624 77.8512 50.624C74.7472 50.624 74.1072 51.488 74.1072 53.792V54.336H69.3072V53.824C69.3072 49.664 71.8672 46.24 78.2352 46.24C83.8992 46.24 86.1712 49.12 86.1712 52.992C86.1712 56.704 83.5472 58.592 80.7632 59.84L77.5312 61.248C75.7712 62.048 74.4592 62.72 74.4592 63.744L77.9152 63.68H86.1072V68ZM104.359 68H99.5585V63.936H87.4625V60.576L98.7905 46.56H104.359V59.616H107.431V63.936H104.359V68ZM93.5105 59.616H99.5585V52.384H99.2705L93.5105 59.296V59.616Z" fill="#DFF0D8"/>
</svg>
