<svg width="51" height="51" viewBox="0 0 51 51" fill="none" xmlns="http://www.w3.org/2000/svg">
<path d="M20.6636 25.108C18.9572 25.108 17.9204 24.2008 17.9204 22.8076V22.7428H19.6376V22.8076C19.6376 23.3476 19.9724 23.5636 20.7716 23.5636C21.83 23.5636 22.0676 23.1424 22.0676 22.0192V21.3928H22.0136C21.6896 21.868 21.1172 22.2352 20.0372 22.2352C18.4604 22.2352 17.6504 21.4144 17.6504 20.0428C17.6504 18.5848 18.6656 17.656 20.5988 17.656C22.91 17.656 23.7416 18.844 23.7416 21.4144C23.7416 23.8768 22.7156 25.108 20.6636 25.108ZM20.588 20.9284C21.6032 20.9284 21.9272 20.6908 21.9272 20.0752C21.9272 19.4488 21.6032 19.2112 20.588 19.2112C19.5512 19.2112 19.238 19.4488 19.238 20.0752C19.238 20.6908 19.5512 20.9284 20.588 20.9284ZM26.2612 21.2416C25.0948 21.2416 24.3604 20.5612 24.3604 19.4488C24.3604 18.3364 25.0948 17.656 26.2612 17.656C27.4168 17.656 28.1512 18.3364 28.1512 19.4488C28.1512 20.5612 27.4168 21.2416 26.2612 21.2416ZM26.5744 25H25.0948L30.3112 17.764H31.78L26.5744 25ZM26.2612 20.14C26.7688 20.14 26.9416 20.0104 26.9416 19.4488C26.9416 18.8872 26.7688 18.7576 26.2612 18.7576C25.7536 18.7576 25.5808 18.8872 25.5808 19.4488C25.5808 20.0104 25.7536 20.14 26.2612 20.14ZM30.6244 25.108C29.458 25.108 28.7236 24.4276 28.7236 23.3152C28.7236 22.2028 29.458 21.5224 30.6244 21.5224C31.7908 21.5224 32.5144 22.2028 32.5144 23.3152C32.5144 24.4276 31.7908 25.108 30.6244 25.108ZM30.6244 24.0064C31.132 24.0064 31.3048 23.8768 31.3048 23.3152C31.3048 22.7536 31.132 22.624 30.6244 22.624C30.1168 22.624 29.944 22.7536 29.944 23.3152C29.944 23.8768 30.1168 24.0064 30.6244 24.0064Z" fill="black"/>
<path d="M17.9228 33.6646C17.5024 33.6646 17.1384 33.5736 16.8308 33.3916C16.5274 33.2053 16.2934 32.9453 16.1288 32.6116C15.9684 32.2736 15.8883 31.8771 15.8883 31.4221C15.8883 30.9671 15.9684 30.5728 16.1288 30.2391C16.2934 29.9011 16.5274 29.6411 16.8308 29.4591C17.1384 29.2728 17.5024 29.1796 17.9228 29.1796C18.3171 29.1796 18.6529 29.2489 18.9303 29.3876C19.2076 29.5263 19.4221 29.7213 19.5738 29.9726C19.7254 30.2239 19.8013 30.5251 19.8013 30.8761V30.9151H19.0603V30.8761C19.0603 30.5208 18.9693 30.2629 18.7873 30.1026C18.6096 29.9379 18.3149 29.8556 17.9033 29.8556C17.6043 29.8556 17.3616 29.9076 17.1753 30.0116C16.9889 30.1156 16.8524 30.2824 16.7658 30.5121C16.6791 30.7418 16.6358 31.0451 16.6358 31.4221C16.6358 31.7948 16.6791 32.0981 16.7658 32.3321C16.8524 32.5618 16.9889 32.7286 17.1753 32.8326C17.3616 32.9323 17.6043 32.9821 17.9033 32.9821C18.3149 32.9821 18.6096 32.9019 18.7873 32.7416C18.9693 32.5813 19.0603 32.3234 19.0603 31.9681V31.9291H19.8013V31.9681C19.8013 32.3148 19.7254 32.6159 19.5738 32.8716C19.4221 33.1229 19.2076 33.3179 18.9303 33.4566C18.6529 33.5953 18.3171 33.6646 17.9228 33.6646ZM23.4859 33.5996H22.7839V31.7211C22.7839 31.4351 22.7276 31.2293 22.6149 31.1036C22.5066 30.9736 22.3051 30.9086 22.0104 30.9086C21.7288 30.9086 21.5186 30.9714 21.3799 31.0971C21.2456 31.2184 21.1784 31.4329 21.1784 31.7406H21.0549L21.0484 30.9086H21.2044C21.2564 30.8089 21.3279 30.7136 21.4189 30.6226C21.5143 30.5273 21.6334 30.4514 21.7764 30.3951C21.9238 30.3344 22.0928 30.3041 22.2834 30.3041C22.5694 30.3041 22.7991 30.3604 22.9724 30.4731C23.1501 30.5814 23.2801 30.7309 23.3624 30.9216C23.4448 31.1123 23.4859 31.3268 23.4859 31.5651V33.5996ZM21.1784 33.5996H20.4764V29.2446H21.1784V33.5996ZM26.9797 33.5996H26.3297V32.9626L26.3102 32.7871V31.5456C26.3102 31.3029 26.2517 31.1383 26.1347 31.0516C26.022 30.9649 25.8378 30.9216 25.5822 30.9216C25.3265 30.9216 25.1423 30.9671 25.0297 31.0581C24.9213 31.1491 24.8672 31.3008 24.8672 31.5131V31.6106H24.1912V31.5456C24.1912 31.3029 24.2497 31.0884 24.3667 30.9021C24.488 30.7158 24.6548 30.5706 24.8672 30.4666C25.0838 30.3583 25.3352 30.3041 25.6212 30.3041C25.9245 30.3041 26.1758 30.3604 26.3752 30.4731C26.5745 30.5858 26.724 30.7418 26.8237 30.9411C26.9277 31.1361 26.9797 31.3679 26.9797 31.6366V33.5996ZM25.1272 33.6646C24.8368 33.6646 24.592 33.5909 24.3927 33.4436C24.1977 33.2919 24.1002 33.0774 24.1002 32.8001C24.1002 32.6181 24.1413 32.4664 24.2237 32.3451C24.3103 32.2238 24.4338 32.1241 24.5942 32.0461C24.7545 31.9681 24.9495 31.9139 25.1792 31.8836L26.3752 31.7146V32.2086L25.2832 32.3711C25.0968 32.3971 24.9668 32.4361 24.8932 32.4881C24.8195 32.5401 24.7827 32.6268 24.7827 32.7481C24.7827 32.8738 24.826 32.9648 24.9127 33.0211C25.0037 33.0774 25.151 33.1056 25.3547 33.1056C25.5107 33.1056 25.6602 33.0818 25.8032 33.0341C25.9505 32.9821 26.0718 32.8976 26.1672 32.7806C26.2625 32.6593 26.3102 32.4903 26.3102 32.2736L26.4012 33.0991L26.2972 33.0926C26.2365 33.1923 26.152 33.2854 26.0437 33.3721C25.9397 33.4588 25.8118 33.5303 25.6602 33.5866C25.5085 33.6386 25.3308 33.6646 25.1272 33.6646ZM30.7401 33.5996H30.0381V31.7211C30.0381 31.4351 29.984 31.2293 29.8756 31.1036C29.7673 30.9736 29.5636 30.9086 29.2646 30.9086C29.074 30.9086 28.918 30.9368 28.7966 30.9931C28.6753 31.0451 28.5843 31.1318 28.5236 31.2531C28.463 31.3701 28.4326 31.5304 28.4326 31.7341H28.3091L28.2506 30.9736H28.4066C28.4543 30.8566 28.5258 30.7483 28.6211 30.6486C28.7165 30.5489 28.8378 30.4666 28.9851 30.4016C29.1368 30.3366 29.3166 30.3041 29.5246 30.3041C29.8063 30.3041 30.036 30.3583 30.2136 30.4666C30.3913 30.5749 30.5235 30.7244 30.6101 30.9151C30.6968 31.1058 30.7401 31.3246 30.7401 31.5716V33.5996ZM28.4326 33.5996H27.7306V30.3691H28.3741V31.3376L28.4326 31.3701V33.5996ZM32.8305 33.6646C32.3581 33.6646 32.0006 33.5714 31.758 33.3851C31.5153 33.1944 31.394 32.9019 31.394 32.5076V32.4946H32.07V32.6116C32.07 32.7243 32.0916 32.8174 32.135 32.8911C32.1826 32.9604 32.2606 33.0124 32.369 33.0471C32.4816 33.0774 32.6398 33.0926 32.8435 33.0926C33.0168 33.0926 33.1468 33.0796 33.2335 33.0536C33.3245 33.0233 33.3851 32.9821 33.4155 32.9301C33.4458 32.8781 33.461 32.8131 33.461 32.7351C33.461 32.6051 33.4155 32.5141 33.3245 32.4621C33.2335 32.4058 33.071 32.3559 32.837 32.3126L32.33 32.2281C32.1393 32.1891 31.9725 32.1349 31.8295 32.0656C31.6908 31.9919 31.5825 31.8923 31.5045 31.7666C31.4308 31.6366 31.394 31.4741 31.394 31.2791C31.394 30.9888 31.5088 30.7548 31.7385 30.5771C31.9681 30.3951 32.2931 30.3041 32.7135 30.3041C32.9691 30.3041 33.1966 30.3453 33.396 30.4276C33.5953 30.5099 33.7535 30.6334 33.8705 30.7981C33.9875 30.9628 34.046 31.1686 34.046 31.4156V31.4741H33.3765V31.3961C33.3765 31.2921 33.3591 31.2033 33.3245 31.1296C33.2898 31.0516 33.2248 30.9909 33.1295 30.9476C33.0341 30.9043 32.889 30.8826 32.694 30.8826C32.4383 30.8826 32.2693 30.9151 32.187 30.9801C32.1046 31.0451 32.0635 31.1404 32.0635 31.2661C32.0635 31.3918 32.1003 31.4806 32.174 31.5326C32.252 31.5803 32.4036 31.6279 32.629 31.6756L33.1815 31.7796C33.3895 31.8186 33.5628 31.8771 33.7015 31.9551C33.8401 32.0331 33.9441 32.1349 34.0135 32.2606C34.0871 32.3863 34.124 32.5358 34.124 32.7091C34.124 33.0124 34.0091 33.2486 33.7795 33.4176C33.5541 33.5823 33.2378 33.6646 32.8305 33.6646Z" fill="black"/>
<path d="M25.1996 0.000388008C38.9859 0.000387405 50.1619 11.2828 50.1619 25.2004C50.1619 39.118 38.9859 50.4004 25.1996 50.4004C11.4133 50.4004 0.237304 39.118 0.237304 25.2004C0.237303 11.2828 11.4133 0.000388611 25.1996 0.000388008ZM25.1996 46.6204C36.9179 46.6204 46.4175 37.0303 46.4175 25.2004C46.4175 13.3704 36.9179 3.78039 25.1996 3.78039C13.4812 3.78039 3.98164 13.3704 3.98164 25.2004C3.98164 37.0303 13.4812 46.6204 25.1996 46.6204Z" fill="#D7BEAE"/>
<path d="M25.2 0.000387998C29.982 0.000387789 34.6653 1.36101 38.7029 3.92332L36.6774 7.11488C33.2455 4.93691 29.2647 3.78039 25.2 3.78039L25.2 0.000387998Z" fill="#A86133"/>
</svg>
