<svg width="52" height="52" viewBox="0 0 52 52" fill="none" xmlns="http://www.w3.org/2000/svg">
<path d="M21.4634 25.9088C19.757 25.9088 18.7202 25.0016 18.7202 23.6084V23.5436H20.4374V23.6084C20.4374 24.1484 20.7722 24.3644 21.5714 24.3644C22.6298 24.3644 22.8674 23.9432 22.8674 22.82V22.1936H22.8134C22.4894 22.6688 21.917 23.036 20.837 23.036C19.2602 23.036 18.4502 22.2152 18.4502 20.8436C18.4502 19.3856 19.4654 18.4568 21.3986 18.4568C23.7098 18.4568 24.5414 19.6448 24.5414 22.2152C24.5414 24.6776 23.5154 25.9088 21.4634 25.9088ZM21.3878 21.7292C22.403 21.7292 22.727 21.4916 22.727 20.876C22.727 20.2496 22.403 20.012 21.3878 20.012C20.351 20.012 20.0378 20.2496 20.0378 20.876C20.0378 21.4916 20.351 21.7292 21.3878 21.7292ZM27.061 22.0424C25.8946 22.0424 25.1602 21.362 25.1602 20.2496C25.1602 19.1372 25.8946 18.4568 27.061 18.4568C28.2166 18.4568 28.951 19.1372 28.951 20.2496C28.951 21.362 28.2166 22.0424 27.061 22.0424ZM27.3742 25.8008H25.8946L31.111 18.5648H32.5798L27.3742 25.8008ZM27.061 20.9408C27.5686 20.9408 27.7414 20.8112 27.7414 20.2496C27.7414 19.688 27.5686 19.5584 27.061 19.5584C26.5534 19.5584 26.3806 19.688 26.3806 20.2496C26.3806 20.8112 26.5534 20.9408 27.061 20.9408ZM31.4242 25.9088C30.2578 25.9088 29.5234 25.2284 29.5234 24.116C29.5234 23.0036 30.2578 22.3232 31.4242 22.3232C32.5906 22.3232 33.3142 23.0036 33.3142 24.116C33.3142 25.2284 32.5906 25.9088 31.4242 25.9088ZM31.4242 24.8072C31.9318 24.8072 32.1046 24.6776 32.1046 24.116C32.1046 23.5544 31.9318 23.4248 31.4242 23.4248C30.9166 23.4248 30.7438 23.5544 30.7438 24.116C30.7438 24.6776 30.9166 24.8072 31.4242 24.8072Z" fill="black"/>
<path d="M16.8011 34.4654C16.3808 34.4654 16.0168 34.3744 15.7091 34.1924C15.4058 34.0061 15.1718 33.7461 15.0071 33.4124C14.8468 33.0744 14.7666 32.6779 14.7666 32.2229C14.7666 31.7679 14.8468 31.3736 15.0071 31.0399C15.1718 30.7019 15.4058 30.4419 15.7091 30.2599C16.0168 30.0736 16.3808 29.9804 16.8011 29.9804C17.1955 29.9804 17.5313 30.0497 17.8086 30.1884C18.086 30.3271 18.3005 30.5221 18.4521 30.7734C18.6038 31.0247 18.6796 31.3259 18.6796 31.6769V31.7159H17.9386V31.6769C17.9386 31.3216 17.8476 31.0637 17.6656 30.9034C17.488 30.7387 17.1933 30.6564 16.7816 30.6564C16.4826 30.6564 16.24 30.7084 16.0536 30.8124C15.8673 30.9164 15.7308 31.0832 15.6441 31.3129C15.5575 31.5426 15.5141 31.8459 15.5141 32.2229C15.5141 32.5956 15.5575 32.8989 15.6441 33.1329C15.7308 33.3626 15.8673 33.5294 16.0536 33.6334C16.24 33.7331 16.4826 33.7829 16.7816 33.7829C17.1933 33.7829 17.488 33.7027 17.6656 33.5424C17.8476 33.3821 17.9386 33.1242 17.9386 32.7689V32.7299H18.6796V32.7689C18.6796 33.1156 18.6038 33.4167 18.4521 33.6724C18.3005 33.9237 18.086 34.1187 17.8086 34.2574C17.5313 34.3961 17.1955 34.4654 16.8011 34.4654ZM22.3643 34.4004H21.6623V32.5219C21.6623 32.2359 21.606 32.0301 21.4933 31.9044C21.385 31.7744 21.1835 31.7094 20.8888 31.7094C20.6071 31.7094 20.397 31.7722 20.2583 31.8979C20.124 32.0192 20.0568 32.2337 20.0568 32.5414H19.9333L19.9268 31.7094H20.0828C20.1348 31.6097 20.2063 31.5144 20.2973 31.4234C20.3926 31.3281 20.5118 31.2522 20.6548 31.1959C20.8021 31.1352 20.9711 31.1049 21.1618 31.1049C21.4478 31.1049 21.6775 31.1612 21.8508 31.2739C22.0285 31.3822 22.1585 31.5317 22.2408 31.7224C22.3231 31.9131 22.3643 32.1276 22.3643 32.3659V34.4004ZM20.0568 34.4004H19.3548V30.0454H20.0568V34.4004ZM25.858 34.4004H25.208V33.7634L25.1885 33.5879V32.3464C25.1885 32.1037 25.13 31.9391 25.013 31.8524C24.9004 31.7657 24.7162 31.7224 24.4605 31.7224C24.2049 31.7224 24.0207 31.7679 23.908 31.8589C23.7997 31.9499 23.7455 32.1016 23.7455 32.3139V32.4114H23.0695V32.3464C23.0695 32.1037 23.128 31.8892 23.245 31.7029C23.3664 31.5166 23.5332 31.3714 23.7455 31.2674C23.9622 31.1591 24.2135 31.1049 24.4995 31.1049C24.8029 31.1049 25.0542 31.1612 25.2535 31.2739C25.4529 31.3866 25.6024 31.5426 25.702 31.7419C25.806 31.9369 25.858 32.1687 25.858 32.4374V34.4004ZM24.0055 34.4654C23.7152 34.4654 23.4704 34.3917 23.271 34.2444C23.076 34.0927 22.9785 33.8782 22.9785 33.6009C22.9785 33.4189 23.0197 33.2672 23.102 33.1459C23.1887 33.0246 23.3122 32.9249 23.4725 32.8469C23.6329 32.7689 23.8279 32.7147 24.0575 32.6844L25.2535 32.5154V33.0094L24.1615 33.1719C23.9752 33.1979 23.8452 33.2369 23.7715 33.2889C23.6979 33.3409 23.661 33.4276 23.661 33.5489C23.661 33.6746 23.7044 33.7656 23.791 33.8219C23.882 33.8782 24.0294 33.9064 24.233 33.9064C24.389 33.9064 24.5385 33.8826 24.6815 33.8349C24.8289 33.7829 24.9502 33.6984 25.0455 33.5814C25.1409 33.4601 25.1885 33.2911 25.1885 33.0744L25.2795 33.8999L25.1755 33.8934C25.1149 33.9931 25.0304 34.0862 24.922 34.1729C24.818 34.2596 24.6902 34.3311 24.5385 34.3874C24.3869 34.4394 24.2092 34.4654 24.0055 34.4654ZM29.6185 34.4004H28.9165V32.5219C28.9165 32.2359 28.8623 32.0301 28.754 31.9044C28.6456 31.7744 28.442 31.7094 28.143 31.7094C27.9523 31.7094 27.7963 31.7376 27.675 31.7939C27.5536 31.8459 27.4626 31.9326 27.402 32.0539C27.3413 32.1709 27.311 32.3312 27.311 32.5349H27.1875L27.129 31.7744H27.285C27.3326 31.6574 27.4041 31.5491 27.4995 31.4494C27.5948 31.3497 27.7161 31.2674 27.8635 31.2024C28.0151 31.1374 28.195 31.1049 28.403 31.1049C28.6846 31.1049 28.9143 31.1591 29.092 31.2674C29.2696 31.3757 29.4018 31.5252 29.4885 31.7159C29.5751 31.9066 29.6185 32.1254 29.6185 32.3724V34.4004ZM27.311 34.4004H26.609V31.1699H27.2525V32.1384L27.311 32.1709V34.4004ZM31.8062 34.4719C31.4682 34.4719 31.1822 34.4004 30.9482 34.2574C30.7142 34.1144 30.5343 33.9172 30.4087 33.6659C30.2873 33.4146 30.2267 33.1221 30.2267 32.7884C30.2267 32.4547 30.2895 32.1622 30.4152 31.9109C30.5452 31.6552 30.7293 31.4581 30.9677 31.3194C31.206 31.1764 31.4942 31.1049 31.8322 31.1049C32.1182 31.1049 32.3695 31.1591 32.5862 31.2674C32.8028 31.3757 32.9697 31.5274 33.0867 31.7224C33.208 31.9174 33.2687 32.1449 33.2687 32.4049V32.4634H32.5732V32.4244C32.5732 32.1861 32.5082 32.0127 32.3782 31.9044C32.2525 31.7917 32.0553 31.7354 31.7867 31.7354C31.4747 31.7354 31.2515 31.8242 31.1172 32.0019C30.9872 32.1752 30.9222 32.4352 30.9222 32.7819C30.9222 33.1329 30.9872 33.3972 31.1172 33.5749C31.2515 33.7482 31.4747 33.8349 31.7867 33.8349C32.0553 33.8349 32.2525 33.7807 32.3782 33.6724C32.5082 33.5597 32.5732 33.3864 32.5732 33.1524V33.1134H33.2687V33.1719C33.2687 33.4232 33.208 33.6486 33.0867 33.8479C32.9653 34.0429 32.7942 34.1967 32.5732 34.3094C32.3565 34.4177 32.1008 34.4719 31.8062 34.4719ZM35.3441 34.4654C34.9931 34.4654 34.7006 34.3961 34.4666 34.2574C34.2326 34.1144 34.0593 33.9172 33.9466 33.6659C33.8339 33.4102 33.7776 33.1156 33.7776 32.7819C33.7776 32.4482 33.8404 32.1557 33.9661 31.9044C34.0961 31.6531 34.2781 31.4581 34.5121 31.3194C34.7461 31.1764 35.0234 31.1049 35.3441 31.1049C35.6344 31.1049 35.8901 31.1612 36.1111 31.2739C36.3364 31.3822 36.5098 31.5404 36.6311 31.7484C36.7568 31.9564 36.8196 32.2077 36.8196 32.5024C36.8196 32.5891 36.8153 32.6736 36.8066 32.7559C36.8023 32.8339 36.7958 32.8989 36.7871 32.9509H34.1091V32.4829H36.2151L36.1436 32.5479C36.1609 32.3486 36.1393 32.1861 36.0786 32.0604C36.0223 31.9347 35.9291 31.8416 35.7991 31.7809C35.6734 31.7202 35.5153 31.6899 35.3246 31.6899C34.9823 31.6899 34.7483 31.7766 34.6226 31.9499C34.4969 32.1189 34.4341 32.3529 34.4341 32.6519V32.8469C34.4341 33.0636 34.4601 33.2477 34.5121 33.3994C34.5684 33.5467 34.6638 33.6572 34.7981 33.7309C34.9324 33.8046 35.1166 33.8414 35.3506 33.8414C35.6236 33.8414 35.8164 33.7981 35.9291 33.7114C36.0418 33.6247 36.0981 33.5099 36.0981 33.3669V33.3149H36.7936V33.3734C36.7936 33.5944 36.7329 33.7872 36.6116 33.9519C36.4903 34.1122 36.3213 34.2379 36.1046 34.3289C35.8923 34.4199 35.6388 34.4654 35.3441 34.4654Z" fill="black"/>
<path d="M25.9994 0.801169C39.7857 0.801169 50.9617 12.0836 50.9617 26.0012C50.9617 39.9187 39.7857 51.2012 25.9994 51.2012C12.2131 51.2012 1.03711 39.9187 1.03711 26.0012C1.03711 12.0836 12.2131 0.80117 25.9994 0.801169ZM25.9994 47.4212C37.7177 47.4212 47.2173 37.8311 47.2173 26.0012C47.2173 14.1712 37.7177 4.58117 25.9994 4.58117C14.281 4.58117 4.78145 14.1712 4.78145 26.0012C4.78145 37.8311 14.281 47.4212 25.9994 47.4212Z" fill="#D7BEAE"/>
<path d="M25.9998 0.801169C30.7818 0.801169 35.4651 2.16179 39.5027 4.7241L37.4772 7.91566C34.0453 5.73769 30.0645 4.58117 25.9998 4.58117L25.9998 0.801169Z" fill="#A86133"/>
</svg>
