<svg width="18" height="19" viewBox="0 0 18 19" fill="none" xmlns="http://www.w3.org/2000/svg">
<path d="M14.2916 2.92164H12.5052V2.23453C12.5052 2.12519 12.4617 2.02033 12.3844 1.94302C12.3071 1.8657 12.2022 1.82227 12.0929 1.82227C11.9836 1.82227 11.8787 1.8657 11.8014 1.94302C11.7241 2.02033 11.6806 2.12519 11.6806 2.23453V2.92164H5.90891V2.23453C5.90891 2.12519 5.86547 2.02033 5.78816 1.94302C5.71084 1.8657 5.60598 1.82227 5.49664 1.82227C5.3873 1.82227 5.28244 1.8657 5.20513 1.94302C5.12781 2.02033 5.08437 2.12519 5.08437 2.23453V2.92164H3.29789C3.04276 2.92164 2.79809 3.02299 2.61769 3.20339C2.43729 3.38379 2.33594 3.62847 2.33594 3.88359V14.8773C2.33594 15.1325 2.43729 15.3771 2.61769 15.5575C2.79809 15.7379 3.04276 15.8393 3.29789 15.8393H14.2916C14.5468 15.8393 14.7914 15.7379 14.9718 15.5575C15.1522 15.3771 15.2536 15.1325 15.2536 14.8773V3.88359C15.2536 3.62847 15.1522 3.38379 14.9718 3.20339C14.7914 3.02299 14.5468 2.92164 14.2916 2.92164ZM3.29789 3.74617H5.08437V4.43328C5.08437 4.54262 5.12781 4.64748 5.20513 4.7248C5.28244 4.80211 5.3873 4.84555 5.49664 4.84555C5.60598 4.84555 5.71084 4.80211 5.78816 4.7248C5.86547 4.64748 5.90891 4.54262 5.90891 4.43328V3.74617H11.6806V4.43328C11.6806 4.54262 11.7241 4.64748 11.8014 4.7248C11.8787 4.80211 11.9836 4.84555 12.0929 4.84555C12.2022 4.84555 12.3071 4.80211 12.3844 4.7248C12.4617 4.64748 12.5052 4.54262 12.5052 4.43328V3.74617H14.2916C14.3281 3.74617 14.363 3.76065 14.3888 3.78642C14.4146 3.81219 14.4291 3.84715 14.4291 3.88359V6.21977H3.16047V3.88359C3.16047 3.84715 3.17495 3.81219 3.20072 3.78642C3.22649 3.76065 3.26144 3.74617 3.29789 3.74617ZM14.2916 15.0148H3.29789C3.26144 15.0148 3.22649 15.0003 3.20072 14.9745C3.17495 14.9487 3.16047 14.9138 3.16047 14.8773V7.0443H14.4291V14.8773C14.4291 14.9138 14.4146 14.9487 14.3888 14.9745C14.363 15.0003 14.3281 15.0148 14.2916 15.0148ZM10.7352 9.6718L9.37743 11.0295L10.7352 12.3873C10.7757 12.425 10.8082 12.4705 10.8307 12.5211C10.8532 12.5717 10.8653 12.6263 10.8663 12.6816C10.8673 12.737 10.8571 12.7919 10.8364 12.8433C10.8156 12.8946 10.7848 12.9412 10.7456 12.9804C10.7065 13.0195 10.6598 13.0504 10.6085 13.0711C10.5572 13.0919 10.5022 13.1021 10.4468 13.1011C10.3915 13.1001 10.3369 13.088 10.2863 13.0655C10.2358 13.0429 10.1902 13.0104 10.1525 12.9699L8.79477 11.6122L7.43704 12.9699C7.35889 13.0428 7.25552 13.0824 7.14871 13.0805C7.04191 13.0786 6.94001 13.0354 6.86447 12.9598C6.78894 12.8843 6.74567 12.7824 6.74379 12.6756C6.7419 12.5688 6.78155 12.4654 6.85437 12.3873L8.2121 11.0295L6.85437 9.6718C6.81386 9.63406 6.78138 9.58855 6.75884 9.53798C6.73631 9.4874 6.72419 9.43281 6.72322 9.37746C6.72224 9.3221 6.73242 9.26712 6.75316 9.21578C6.77389 9.16445 6.80476 9.11782 6.8439 9.07867C6.88305 9.03952 6.92968 9.00866 6.98102 8.98792C7.03235 8.96719 7.08734 8.95701 7.14269 8.95798C7.19805 8.95896 7.25264 8.97108 7.30321 8.99361C7.35378 9.01614 7.39929 9.04863 7.43704 9.08913L8.79477 10.4469L10.1525 9.08913C10.1902 9.04863 10.2358 9.01614 10.2863 8.99361C10.3369 8.97108 10.3915 8.95896 10.4468 8.95798C10.5022 8.95701 10.5572 8.96719 10.6085 8.98792C10.6598 9.00866 10.7065 9.03952 10.7456 9.07867C10.7848 9.11782 10.8156 9.16445 10.8364 9.21578C10.8571 9.26712 10.8673 9.3221 10.8663 9.37746C10.8653 9.43281 10.8532 9.4874 10.8307 9.53798C10.8082 9.58855 10.7757 9.63406 10.7352 9.6718Z" fill="#0C3A25"/>
</svg>
