<svg width="18" height="19" viewBox="0 0 18 19" fill="none" xmlns="http://www.w3.org/2000/svg">
<path d="M6.85709 12.5488H2.32318C2.21387 12.5488 2.10903 12.5054 2.03173 12.4281C1.95444 12.3508 1.91101 12.246 1.91101 12.1367V7.60275C1.91101 6.29097 2.43211 5.03292 3.35968 4.10535C4.28725 3.17778 5.5453 2.65668 6.85709 2.65668V2.65668C8.16887 2.65668 9.42692 3.17778 10.3545 4.10535C11.2821 5.03292 11.8032 6.29097 11.8032 7.60275V7.60275C11.8032 8.91453 11.2821 10.1726 10.3545 11.1002C9.42692 12.0277 8.16887 12.5488 6.85709 12.5488V12.5488Z" stroke="#0C3A25" stroke-width="1.01458" stroke-linecap="round" stroke-linejoin="round"/>
<path d="M6.58917 12.5492C6.93018 13.5137 7.56188 14.3488 8.39726 14.9393C9.23263 15.5299 10.2306 15.8468 11.2536 15.8466H15.7875C15.8968 15.8466 16.0017 15.8032 16.0789 15.7259C16.1562 15.6486 16.1997 15.5437 16.1997 15.4344V10.9005C16.2014 9.63455 15.717 8.41624 14.8465 7.49711C13.9759 6.57798 12.7857 6.02821 11.5215 5.9613" stroke="#0C3A25" stroke-width="1.01458" stroke-linecap="round" stroke-linejoin="round"/>
</svg>
