<svg width="26" height="26" viewBox="0 0 26 26" fill="none" xmlns="http://www.w3.org/2000/svg">
<path d="M8.9375 23.5625H17.0625" stroke="#0C3A25" stroke-width="1.5" stroke-linecap="round" stroke-linejoin="round"/>
<path d="M7.99306 16.9608C7.02577 16.2087 6.24234 15.2463 5.70213 14.1465C5.16192 13.0468 4.8791 11.8385 4.87509 10.6132C4.85477 6.20537 8.39931 2.53897 12.8071 2.4374C14.513 2.39696 16.1884 2.89464 17.5955 3.85985C19.0027 4.82506 20.0703 6.20881 20.6468 7.81485C21.2234 9.42088 21.2797 11.1677 20.8077 12.8075C20.3357 14.4473 19.3594 15.8969 18.0173 16.9507C17.7208 17.1799 17.4806 17.4738 17.3152 17.81C17.1497 18.1462 17.0633 18.5158 17.0626 18.8905V19.4999C17.0626 19.7154 16.977 19.9221 16.8246 20.0744C16.6722 20.2268 16.4656 20.3124 16.2501 20.3124H9.75009C9.5346 20.3124 9.32794 20.2268 9.17556 20.0744C9.02319 19.9221 8.93759 19.7154 8.93759 19.4999V18.8905C8.93504 18.5186 8.84882 18.1521 8.68531 17.818C8.52181 17.484 8.28521 17.191 7.99306 16.9608V16.9608Z" stroke="#0C3A25" stroke-width="1.5" stroke-linecap="round" stroke-linejoin="round"/>
<path d="M13.8232 5.76843C14.8163 5.93677 15.7326 6.40919 16.4457 7.1205C17.1589 7.8318 17.6336 8.74691 17.8045 9.73953" stroke="#0C3A25" stroke-width="1.5" stroke-linecap="round" stroke-linejoin="round"/>
</svg>
