<svg width="24" height="10" viewBox="0 0 24 10" fill="none" xmlns="http://www.w3.org/2000/svg">
<path d="M23.5 8.75C23.5 8.94891 23.421 9.13968 23.2803 9.28033C23.1397 9.42098 22.9489 9.5 22.75 9.5H0.75C0.551088 9.5 0.360322 9.42098 0.21967 9.28033C0.0790175 9.13968 0 8.94891 0 8.75C0 8.55109 0.0790175 8.36032 0.21967 8.21967C0.360322 8.07902 0.551088 8 0.75 8H22.75C22.9489 8 23.1397 8.07902 23.2803 8.21967C23.421 8.36032 23.5 8.55109 23.5 8.75ZM0.75 1.5H22.75C22.9489 1.5 23.1397 1.42098 23.2803 1.28033C23.421 1.13968 23.5 0.948912 23.5 0.75C23.5 0.551088 23.421 0.360323 23.2803 0.21967C23.1397 0.079018 22.9489 0 22.75 0H0.75C0.551088 0 0.360322 0.079018 0.21967 0.21967C0.0790175 0.360323 0 0.551088 0 0.75C0 0.948912 0.0790175 1.13968 0.21967 1.28033C0.360322 1.42098 0.551088 1.5 0.75 1.5Z" fill="#003B23"/>
</svg>
