<svg width="48" height="50" viewBox="0 0 48 50" fill="none" xmlns="http://www.w3.org/2000/svg">
<ellipse cx="24.2033" cy="24.9998" rx="23.3918" ry="25" fill="#F4FCF0"/>
<circle cx="24.6344" cy="17.9396" r="3.30828" stroke="#0C3A25"/>
<path d="M24.4406 23.8252C21.9616 23.7042 19.2469 21.0557 18.9013 21.4018C18.5557 21.7478 18.9029 31.7879 18.9013 34.5576C18.8998 37.3274 21.571 39.2385 24.4406 39.4045C27.5186 39.5826 30.6723 37.3274 30.6723 34.5576C30.6723 31.7879 31.0191 21.4018 30.6723 21.4018C30.3256 21.4018 27.1583 23.9577 24.4406 23.8252Z" stroke="#0C3A25" stroke-linecap="round" stroke-dasharray="0.14 0.14"/>
<path d="M19.0938 21.7485C19.0938 21.7485 23.028 26.0499 25.3255 29.3651C27.2934 32.2048 29.8262 36.9816 29.8262 36.9816" stroke="#0C3A25" stroke-linecap="round" stroke-dasharray="0.14 0.14"/>
</svg>
