<svg width="50" height="50" viewBox="0 0 50 50" fill="none" xmlns="http://www.w3.org/2000/svg">
<circle cx="25" cy="25" r="25" fill="#F4FCF0"/>
<path d="M22.8229 28.177H16.7566C16.6103 28.177 16.47 28.1189 16.3666 28.0155C16.2632 27.9121 16.2051 27.7718 16.2051 27.6255V21.5592C16.2051 19.8041 16.9023 18.1208 18.1434 16.8797C19.3845 15.6386 21.0677 14.9414 22.8229 14.9414V14.9414C24.578 14.9414 26.2613 15.6386 27.5024 16.8797C28.7435 18.1208 29.4407 19.8041 29.4407 21.5592V21.5592C29.4407 23.3144 28.7435 24.9976 27.5024 26.2387C26.2613 27.4798 24.578 28.177 22.8229 28.177V28.177Z" stroke="#0C3A25" stroke-linecap="round" stroke-linejoin="round"/>
<path d="M22.4668 28.1778C22.9231 29.4684 23.7683 30.5857 24.886 31.3758C26.0037 32.1659 27.339 32.5901 28.7078 32.5897H34.7741C34.9204 32.5897 35.0606 32.5316 35.164 32.4282C35.2675 32.3248 35.3256 32.1845 35.3256 32.0382V25.9719C35.3279 24.2781 34.6798 22.648 33.515 21.4182C32.3502 20.1884 30.7577 19.4528 29.0662 19.3633" stroke="#0C3A25" stroke-linecap="round" stroke-linejoin="round"/>
</svg>
