<svg width="30" height="28" viewBox="0 0 30 28" fill="none" xmlns="http://www.w3.org/2000/svg">
<path d="M4.29083 1.69513C3.74669 2.23355 0.521837 10.3096 1.06041 11.9248C1.59899 13.54 10.7459 18.924 12.3669 18.924C13.9878 18.9241 17.2125 17.3088 17.2125 17.3088C17.2125 17.3088 16.0562 16.026 15.0589 15.6936C14.0615 15.3611 12.3669 15.6936 12.3669 15.6936L5.36763 11.9248C5.36763 11.9248 8.59232 4.38716 8.59805 3.84874C8.60378 3.31031 8.12618 1.59931 6.98284 1.15673C5.98302 0.769698 4.83497 1.1567 4.29083 1.69513Z" stroke="#0C3A25" stroke-width="1.5"/>
<path d="M6.97633 1.15631H12.3604C12.3604 1.15631 16.0748 4.23004 16.6676 6.00193C17.0077 7.01866 16.819 7.87326 16.1292 8.69395C15.1725 9.83204 12.3601 8.69395 12.3604 9.23235C12.3606 9.77075 16.0894 10.6535 17.7444 12.4628C19.331 14.1973 20.0587 15.5266 20.4364 17.8468C21.0454 21.588 17.206 26.9996 17.206 26.9996H4.28432C4.28432 26.9996 2.7711 23.8084 2.66911 21.6156C2.54828 19.0176 4.28432 15.1548 4.28432 15.1548" stroke="#0C3A25" stroke-width="1.5"/>
<path d="M23.1289 15.6934L25.2825 13.5398" stroke="#0C3A25" stroke-width="1.5" stroke-linecap="round" stroke-dasharray="0.25 0.25"/>
<path d="M23.1286 22.1544L25.2822 24.308" stroke="#0C3A25" stroke-width="1.5" stroke-linecap="round" stroke-dasharray="0.25 0.25"/>
<path d="M25.2828 19.3703H28.3285" stroke="#0C3A25" stroke-width="1.5" stroke-linecap="round" stroke-dasharray="0.25 0.25"/>
</svg>
