<svg width="50" height="50" viewBox="0 0 50 50" fill="none" xmlns="http://www.w3.org/2000/svg">
<circle cx="25" cy="25" r="25" fill="#F4FCF0"/>
<path d="M17.5405 14.5632C17.072 15.0222 14.2953 21.9073 14.759 23.2843C15.2228 24.6613 23.0984 29.2513 24.494 29.2514C25.8897 29.2514 28.6662 27.8743 28.6662 27.8743C28.6662 27.8743 27.6706 26.7808 26.8119 26.4973C25.9532 26.2139 24.494 26.4973 24.494 26.4973L18.4676 23.2843C18.4676 23.2843 21.2441 16.8582 21.249 16.3992C21.254 15.9402 20.8428 14.4815 19.8583 14.1042C18.9975 13.7742 18.009 14.1042 17.5405 14.5632Z" stroke="#0C3A25"/>
<path d="M19.8524 14.1044H24.4881C24.4881 14.1044 27.6863 16.7248 28.1967 18.2354C28.4896 19.1022 28.3271 19.8308 27.7331 20.5304C26.9094 21.5007 24.4879 20.5304 24.4881 20.9894C24.4884 21.4484 27.6989 22.201 29.1238 23.7435C30.4899 25.2223 31.1165 26.3555 31.4417 28.3335C31.9661 31.5231 28.6603 36.1366 28.6603 36.1366H17.5346C17.5346 36.1366 16.2317 33.416 16.1439 31.5466C16.0398 29.3317 17.5346 26.0385 17.5346 26.0385" stroke="#0C3A25"/>
<path d="M33.7578 26.497L35.6121 24.661" stroke="#0C3A25" stroke-linecap="round" stroke-dasharray="0.25 0.25"/>
<path d="M33.759 32.0057L35.6133 33.8418" stroke="#0C3A25" stroke-linecap="round" stroke-dasharray="0.25 0.25"/>
<path d="M35.6146 29.6311H38.237" stroke="#0C3A25" stroke-linecap="round" stroke-dasharray="0.25 0.25"/>
</svg>
