<svg width="44" height="40" viewBox="0 0 44 40" fill="none" xmlns="http://www.w3.org/2000/svg">
<path d="M31.7607 0C26.7518 0 23.4281 3.07679 21.6658 5.312C19.9076 3.07367 16.5798 0 11.5709 0C5.25691 0 0.0667742 5.26409 0.00115542 11.7333C-0.0550893 17.3796 1.9416 22.5937 6.10579 27.6693C8.06081 30.0524 11.6053 33.8624 19.791 39.4192C20.343 39.7975 20.9966 40 21.6658 40C22.335 40 22.9886 39.7975 23.5406 39.4192C31.7263 33.8624 35.2707 30.0524 37.2258 27.6693C41.392 22.5927 43.3866 17.3786 43.3304 11.7333C43.2648 5.26409 38.0746 0 31.7607 0ZM21.6658 36.6632V14.9548C21.6658 12.9102 22.2105 10.9177 23.1458 9.09914C23.1482 9.09339 23.151 9.08781 23.1542 9.08248C23.7608 7.98715 24.5248 6.98668 25.4217 6.11297C27.31 4.27043 29.4421 3.33302 31.7607 3.33302C36.255 3.33302 39.9495 7.116 39.9963 11.7697C40.1015 22.6656 30.793 30.4669 21.6658 36.6632Z" fill="#0C3A25"/>
</svg>
