<svg width="83" height="76" viewBox="0 0 83 76" fill="none" xmlns="http://www.w3.org/2000/svg">
<path d="M60.3453 0C50.8283 0 44.5134 5.84591 41.165 10.0928C37.8245 5.83997 31.5016 0 21.9847 0C9.98813 0 0.126871 10.0018 0.0021953 22.2932C-0.10467 33.0213 3.68904 42.928 11.601 52.5716C15.3155 57.0995 22.05 64.3386 37.6028 74.8965C38.6517 75.6153 39.8934 76 41.165 76C42.4365 76 43.6783 75.6153 44.7271 74.8965C60.2799 64.3386 67.0144 57.0995 70.729 52.5716C78.6449 42.9261 82.4346 33.0193 82.3278 22.2932C82.2031 10.0018 72.3418 0 60.3453 0ZM41.165 69.6601V28.4142C41.165 24.5295 42.2 20.7437 43.9771 17.2884C43.9816 17.2774 43.9869 17.2668 43.9929 17.2567C45.1456 15.1756 46.5971 13.2747 48.3012 11.6146C51.8891 8.11382 55.94 6.33274 60.3453 6.33274C68.8846 6.33274 75.904 13.5204 75.993 22.3625C76.1929 43.0646 58.5068 57.8871 41.165 69.6601Z" fill="#0C3A25"/>
</svg>
