<svg width="453" height="40" viewBox="0 0 453 40" fill="none" xmlns="http://www.w3.org/2000/svg">
<path d="M237.761 0C232.752 0 229.428 3.07679 227.666 5.312C225.908 3.07367 222.58 0 217.571 0C211.257 0 206.067 5.26409 206.001 11.7333C205.945 17.3796 207.942 22.5937 212.106 27.6693C214.061 30.0524 217.605 33.8624 225.791 39.4192C226.343 39.7975 226.997 40 227.666 40C228.335 40 228.989 39.7975 229.541 39.4192C237.726 33.8624 241.271 30.0524 243.226 27.6693C247.392 22.5927 249.387 17.3786 249.33 11.7333C249.265 5.26409 244.075 0 237.761 0ZM227.666 36.6632V14.9548C227.666 12.9102 228.211 10.9177 229.146 9.09914C229.148 9.09339 229.151 9.08781 229.154 9.08248C229.761 7.98715 230.525 6.98668 231.422 6.11297C233.31 4.27043 235.442 3.33302 237.761 3.33302C242.255 3.33302 245.949 7.116 245.996 11.7697C246.102 22.6656 236.793 30.4669 227.666 36.6632Z" fill="#0C3A25"/>
<path d="M0.666667 24C0.666667 26.9455 3.05448 29.3333 6 29.3333C8.94552 29.3333 11.3333 26.9455 11.3333 24C11.3333 21.0545 8.94552 18.6667 6 18.6667C3.05448 18.6667 0.666666 21.0545 0.666667 24ZM6 25L196 25L196 23L6 23L6 25Z" fill="#B3B3B3"/>
<path d="M441.667 24C441.667 26.9455 444.054 29.3333 447 29.3333C449.946 29.3333 452.333 26.9455 452.333 24C452.333 21.0545 449.946 18.6667 447 18.6667C444.054 18.6667 441.667 21.0545 441.667 24ZM257 25H447V23H257V25Z" fill="#B3B3B3"/>
</svg>
