<svg width="17" height="14" viewBox="0 0 17 14" fill="none" xmlns="http://www.w3.org/2000/svg">
<path d="M15.7433 8.38738C15.5551 8.24242 15.3359 8.14293 15.1029 8.09668C14.8699 8.05043 14.6293 8.05868 14.4 8.12078L14.1032 8.18949C15.5977 6.80016 16.3535 5.42319 16.3535 4.08264C16.3535 2.34013 14.9525 0.921936 13.2299 0.921936C12.7441 0.918892 12.2642 1.02908 11.8284 1.24376C11.3926 1.45845 11.0128 1.77172 10.7192 2.15873C10.4255 1.77172 10.0457 1.45845 9.60993 1.24376C9.17412 1.02908 8.69429 0.918892 8.20848 0.921936C6.4859 0.921936 5.08488 2.34013 5.08488 4.08264C5.08488 4.86457 5.3343 5.62795 5.86063 6.44355C5.4292 6.51009 5.03043 6.71309 4.72278 7.02278L3.128 8.61756H1.09965C0.844523 8.61756 0.599846 8.71891 0.419445 8.89931C0.239044 9.07971 0.137695 9.32439 0.137695 9.57951V12.328C0.137695 12.5831 0.239044 12.8278 0.419445 13.0082C0.599846 13.1886 0.844523 13.2899 1.09965 13.2899H8.24559C8.27941 13.2899 8.3131 13.2858 8.3459 13.2775L12.7434 12.1782C12.7642 12.1726 12.7846 12.1658 12.8046 12.1575L15.4719 11.0224L15.4946 11.0121C15.7304 10.8944 15.9324 10.7185 16.0815 10.5011C16.2306 10.2837 16.3219 10.0319 16.3467 9.76945C16.3716 9.50701 16.3293 9.24256 16.2237 9.00101C16.1181 8.75946 15.9528 8.54876 15.7433 8.38875V8.38738ZM8.20848 1.74647C8.66188 1.74042 9.10677 1.86979 9.48623 2.11803C9.86568 2.36626 10.1624 2.72207 10.3385 3.13993C10.3696 3.21554 10.4224 3.28021 10.4903 3.32573C10.5582 3.37124 10.6381 3.39554 10.7199 3.39554C10.8016 3.39554 10.8815 3.37124 10.9494 3.32573C11.0173 3.28021 11.0702 3.21554 11.1012 3.13993C11.2773 2.72207 11.5741 2.36626 11.9535 2.11803C12.333 1.86979 12.7779 1.74042 13.2313 1.74647C14.4763 1.74647 15.5289 2.8163 15.5289 4.08264C15.5289 5.47335 14.4172 7.03721 12.3133 8.60038L11.2915 8.83537C11.3934 8.56502 11.4283 8.27399 11.393 7.98723C11.3577 7.70047 11.2534 7.42654 11.0891 7.18893C10.9247 6.95133 10.7051 6.75713 10.4492 6.623C10.1933 6.48887 9.90872 6.4188 9.6198 6.41881H6.84869C6.20899 5.57161 5.90941 4.8254 5.90941 4.08264C5.90941 2.8163 6.96207 1.74647 8.20848 1.74647ZM0.962227 12.328V9.57951C0.962227 9.54307 0.976705 9.50811 1.00248 9.48234C1.02825 9.45657 1.0632 9.44209 1.09965 9.44209H2.88613V12.4654H1.09965C1.0632 12.4654 1.02825 12.4509 1.00248 12.4251C0.976705 12.3994 0.962227 12.3644 0.962227 12.328ZM15.1359 10.2666L12.5112 11.3846L8.19474 12.4654H3.71066V9.20092L5.30544 7.60545C5.42005 7.49024 5.55637 7.39892 5.70651 7.33676C5.85665 7.27461 6.01764 7.24285 6.18014 7.24334H9.6198C9.87493 7.24334 10.1196 7.34469 10.3 7.52509C10.4804 7.70549 10.5818 7.95017 10.5818 8.2053C10.5818 8.46042 10.4804 8.7051 10.3 8.8855C10.1196 9.0659 9.87493 9.16725 9.6198 9.16725H7.6959C7.58656 9.16725 7.4817 9.21068 7.40438 9.288C7.32707 9.36531 7.28363 9.47017 7.28363 9.57951C7.28363 9.68885 7.32707 9.79372 7.40438 9.87103C7.4817 9.94835 7.58656 9.99178 7.6959 9.99178H9.89465C9.92563 9.99182 9.95651 9.98836 9.98672 9.98147L14.5904 8.92264L14.6068 8.91852C14.7801 8.87128 14.9647 8.88972 15.1252 8.97031C15.2857 9.0509 15.4108 9.18794 15.4764 9.35512C15.542 9.5223 15.5435 9.70783 15.4807 9.87607C15.4179 10.0443 15.2951 10.1834 15.1359 10.2666Z" fill="#0C3A25"/>
</svg>
