<svg width="18" height="19" viewBox="0 0 18 19" fill="none" xmlns="http://www.w3.org/2000/svg">
<g clip-path="url(#clip0_52_68708)">
<path d="M9.57432 16.9998H16.6012C16.7264 16.9998 16.8279 16.8983 16.8279 16.7731V5.89274C16.8279 5.76755 16.7264 5.66607 16.6012 5.66607H9.57432M9.57432 16.9998V5.66607M9.57432 16.9998H1.64074C1.51555 16.9998 1.41406 16.8983 1.41406 16.7731V1.81261C1.41406 1.68742 1.51555 1.58594 1.64074 1.58594H9.34765C9.47283 1.58594 9.57432 1.68742 9.57432 1.81261V5.66607" stroke="#0C3A25" stroke-width="0.660592"/>
<path d="M3.61621 16.9997V12.8224C3.61621 12.6972 3.7177 12.5957 3.84288 12.5957H6.6925C6.81769 12.5957 6.91917 12.6972 6.91917 12.8224V16.9997" stroke="#0C3A25" stroke-width="0.660592"/>
<path d="M11.3223 10.1667V8.41808C11.3223 8.29289 11.4238 8.19141 11.5489 8.19141H14.3986C14.5237 8.19141 14.6252 8.29289 14.6252 8.41808V10.1667C14.6252 10.2919 14.5237 10.3934 14.3986 10.3934H11.5489C11.4238 10.3934 11.3223 10.2919 11.3223 10.1667Z" stroke="#0C3A25" stroke-width="0.660592"/>
<path d="M3.77838 10.2788V8.53022C3.77838 8.40503 3.87986 8.30355 4.00505 8.30355H6.85467C6.97985 8.30355 7.08134 8.40503 7.08134 8.53022V10.2788C7.08134 10.404 6.97985 10.5055 6.85467 10.5055H4.00505C3.87986 10.5055 3.77838 10.404 3.77838 10.2788Z" stroke="#0C3A25" stroke-width="0.660592"/>
<path d="M11.3223 14.571V12.8224C11.3223 12.6972 11.4238 12.5957 11.5489 12.5957H14.3986C14.5237 12.5957 14.6252 12.6972 14.6252 12.8224V14.571C14.6252 14.6962 14.5237 14.7977 14.3986 14.7977H11.5489C11.4238 14.7977 11.3223 14.6962 11.3223 14.571Z" stroke="#0C3A25" stroke-width="0.660592"/>
<path d="M5.98549 6.58594H4.84263C4.68492 6.58594 4.55692 6.45737 4.55692 6.30022V5.44308H3.69978C3.54206 5.44308 3.41406 5.31451 3.41406 5.15737V4.01451C3.41406 3.85737 3.54206 3.72879 3.69978 3.72879H4.55692V2.87165C4.55692 2.71451 4.68492 2.58594 4.84263 2.58594H5.98549C6.14321 2.58594 6.27121 2.71451 6.27121 2.87165V3.72879H7.12835C7.28606 3.72879 7.41406 3.85737 7.41406 4.01451V5.15737C7.41406 5.31451 7.28606 5.44308 7.12835 5.44308H6.27121V6.30022C6.27121 6.45737 6.14321 6.58594 5.98549 6.58594ZM5.12835 6.01451H5.69978V5.15737C5.69978 5.00022 5.82778 4.87165 5.98549 4.87165H6.84263V4.30022H5.98549C5.82778 4.30022 5.69978 4.17165 5.69978 4.01451V3.15737H5.12835V4.01451C5.12835 4.17165 5.00035 4.30022 4.84263 4.30022H3.98549V4.87165H4.84263C5.00035 4.87165 5.12835 5.00022 5.12835 5.15737V6.01451Z" fill="#0C3A25"/>
</g>
<defs>
<clipPath id="clip0_52_68708">
<rect width="17.59" height="17.59" fill="white" transform="translate(0 0.585938)"/>
</clipPath>
</defs>
</svg>
