<svg width="130" height="130" viewBox="0 0 130 130" fill="none" xmlns="http://www.w3.org/2000/svg">
<path d="M6.124 98H4.396V87.28H6.124V98ZM11.836 98H4.908V96.432H11.836V98ZM16.3371 98.16C15.4731 98.16 14.7531 97.9893 14.1771 97.648C13.6011 97.296 13.1745 96.8107 12.8971 96.192C12.6198 95.5627 12.4811 94.8373 12.4811 94.016C12.4811 93.1947 12.6358 92.4747 12.9451 91.856C13.2651 91.2373 13.7131 90.7573 14.2891 90.416C14.8651 90.064 15.5478 89.888 16.3371 89.888C17.0518 89.888 17.6811 90.0267 18.2251 90.304C18.7798 90.5707 19.2065 90.96 19.5051 91.472C19.8145 91.984 19.9691 92.6027 19.9691 93.328C19.9691 93.5413 19.9585 93.7493 19.9371 93.952C19.9265 94.144 19.9105 94.304 19.8891 94.432H13.2971V93.28H18.4811L18.3051 93.44C18.3478 92.9493 18.2945 92.5493 18.1451 92.24C18.0065 91.9307 17.7771 91.7013 17.4571 91.552C17.1478 91.4027 16.7585 91.328 16.2891 91.328C15.4465 91.328 14.8705 91.5413 14.5611 91.968C14.2518 92.384 14.0971 92.96 14.0971 93.696V94.176C14.0971 94.7093 14.1611 95.1627 14.2891 95.536C14.4278 95.8987 14.6625 96.1707 14.9931 96.352C15.3238 96.5333 15.7771 96.624 16.3531 96.624C17.0251 96.624 17.4998 96.5173 17.7771 96.304C18.0545 96.0907 18.1931 95.808 18.1931 95.456V95.328H19.9051V95.472C19.9051 96.016 19.7558 96.4907 19.4571 96.896C19.1585 97.2907 18.7425 97.6 18.2091 97.824C17.6865 98.048 17.0625 98.16 16.3371 98.16ZM25.0201 98.16C23.8575 98.16 22.9775 97.9307 22.3801 97.472C21.7828 97.0027 21.4841 96.2827 21.4841 95.312V95.28H23.1481V95.568C23.1481 95.8453 23.2015 96.0747 23.3081 96.256C23.4255 96.4267 23.6175 96.5547 23.8841 96.64C24.1615 96.7147 24.5508 96.752 25.0521 96.752C25.4788 96.752 25.7988 96.72 26.0121 96.656C26.2361 96.5813 26.3855 96.48 26.4601 96.352C26.5348 96.224 26.5721 96.064 26.5721 95.872C26.5721 95.552 26.4601 95.328 26.2361 95.2C26.0121 95.0613 25.6121 94.9387 25.0361 94.832L23.7881 94.624C23.3188 94.528 22.9081 94.3947 22.5561 94.224C22.2148 94.0427 21.9481 93.7973 21.7561 93.488C21.5748 93.168 21.4841 92.768 21.4841 92.288C21.4841 91.5733 21.7668 90.9973 22.3321 90.56C22.8975 90.112 23.6975 89.888 24.7321 89.888C25.3615 89.888 25.9215 89.9893 26.4121 90.192C26.9028 90.3947 27.2921 90.6987 27.5801 91.104C27.8681 91.5093 28.0121 92.016 28.0121 92.624V92.768H26.3641V92.576C26.3641 92.32 26.3215 92.1013 26.2361 91.92C26.1508 91.728 25.9908 91.5787 25.7561 91.472C25.5215 91.3653 25.1641 91.312 24.6841 91.312C24.0548 91.312 23.6388 91.392 23.4361 91.552C23.2335 91.712 23.1321 91.9467 23.1321 92.256C23.1321 92.5653 23.2228 92.784 23.4041 92.912C23.5961 93.0293 23.9695 93.1467 24.5241 93.264L25.8841 93.52C26.3961 93.616 26.8228 93.76 27.1641 93.952C27.5055 94.144 27.7615 94.3947 27.9321 94.704C28.1135 95.0133 28.2041 95.3813 28.2041 95.808C28.2041 96.5547 27.9215 97.136 27.3561 97.552C26.8015 97.9573 26.0228 98.16 25.0201 98.16ZM33.1451 98.16C31.9825 98.16 31.1025 97.9307 30.5051 97.472C29.9078 97.0027 29.6091 96.2827 29.6091 95.312V95.28H31.2731V95.568C31.2731 95.8453 31.3265 96.0747 31.4331 96.256C31.5505 96.4267 31.7425 96.5547 32.0091 96.64C32.2865 96.7147 32.6758 96.752 33.1771 96.752C33.6038 96.752 33.9238 96.72 34.1371 96.656C34.3611 96.5813 34.5105 96.48 34.5851 96.352C34.6598 96.224 34.6971 96.064 34.6971 95.872C34.6971 95.552 34.5851 95.328 34.3611 95.2C34.1371 95.0613 33.7371 94.9387 33.1611 94.832L31.9131 94.624C31.4438 94.528 31.0331 94.3947 30.6811 94.224C30.3398 94.0427 30.0731 93.7973 29.8811 93.488C29.6998 93.168 29.6091 92.768 29.6091 92.288C29.6091 91.5733 29.8918 90.9973 30.4571 90.56C31.0225 90.112 31.8225 89.888 32.8571 89.888C33.4865 89.888 34.0465 89.9893 34.5371 90.192C35.0278 90.3947 35.4171 90.6987 35.7051 91.104C35.9931 91.5093 36.1371 92.016 36.1371 92.624V92.768H34.4891V92.576C34.4891 92.32 34.4465 92.1013 34.3611 91.92C34.2758 91.728 34.1158 91.5787 33.8811 91.472C33.6465 91.3653 33.2891 91.312 32.8091 91.312C32.1798 91.312 31.7638 91.392 31.5611 91.552C31.3585 91.712 31.2571 91.9467 31.2571 92.256C31.2571 92.5653 31.3478 92.784 31.5291 92.912C31.7211 93.0293 32.0945 93.1467 32.6491 93.264L34.0091 93.52C34.5211 93.616 34.9478 93.76 35.2891 93.952C35.6305 94.144 35.8865 94.3947 36.0571 94.704C36.2385 95.0133 36.3291 95.3813 36.3291 95.808C36.3291 96.5547 36.0465 97.136 35.4811 97.552C34.9265 97.9573 34.1478 98.16 33.1451 98.16ZM45.6226 98.16C44.5986 98.16 43.7613 98.016 43.1106 97.728C42.46 97.4293 41.9746 97.0187 41.6546 96.496C41.3453 95.9627 41.1906 95.3547 41.1906 94.672V94.4H42.8866V94.576C42.8866 95.0133 42.9613 95.3813 43.1106 95.68C43.2706 95.9787 43.5533 96.2027 43.9586 96.352C44.364 96.5013 44.9453 96.576 45.7026 96.576C46.492 96.576 47.0466 96.464 47.3666 96.24C47.6866 96.0053 47.8466 95.6427 47.8466 95.152C47.8466 94.8213 47.7986 94.5547 47.7026 94.352C47.6066 94.1493 47.4146 93.984 47.1266 93.856C46.8493 93.7173 46.4333 93.5947 45.8786 93.488L44.0546 93.12C43.436 93.0027 42.9186 92.8213 42.5026 92.576C42.0866 92.32 41.7666 91.9947 41.5426 91.6C41.3293 91.2053 41.2226 90.7307 41.2226 90.176C41.2226 89.6427 41.3613 89.1467 41.6386 88.688C41.9266 88.2187 42.364 87.84 42.9506 87.552C43.548 87.264 44.3053 87.12 45.2226 87.12C46.204 87.12 46.9986 87.2853 47.6066 87.616C48.2253 87.9467 48.6733 88.384 48.9506 88.928C49.2386 89.4613 49.3826 90.048 49.3826 90.688V90.88H47.6706V90.704C47.6706 90.256 47.596 89.888 47.4466 89.6C47.308 89.3013 47.052 89.0773 46.6786 88.928C46.316 88.768 45.82 88.688 45.1906 88.688C44.4013 88.688 43.8306 88.8053 43.4786 89.04C43.1266 89.2747 42.9506 89.6267 42.9506 90.096C42.9506 90.416 43.004 90.672 43.1106 90.864C43.228 91.056 43.4253 91.2107 43.7026 91.328C43.9906 91.4347 44.3746 91.5467 44.8546 91.664L46.6786 92.048C47.3613 92.176 47.9106 92.3787 48.3266 92.656C48.7533 92.9333 49.068 93.2747 49.2706 93.68C49.4733 94.0747 49.5746 94.544 49.5746 95.088C49.5746 95.6427 49.436 96.1547 49.1586 96.624C48.8813 97.0933 48.4493 97.4667 47.8626 97.744C47.2866 98.0213 46.54 98.16 45.6226 98.16ZM57.834 98H56.234V96.432L56.186 96V92.944C56.186 92.3467 56.042 91.9413 55.754 91.728C55.4767 91.5147 55.0233 91.408 54.394 91.408C53.7647 91.408 53.3113 91.52 53.034 91.744C52.7673 91.968 52.634 92.3413 52.634 92.864V93.104H50.97V92.944C50.97 92.3467 51.114 91.8187 51.402 91.36C51.7007 90.9013 52.1113 90.544 52.634 90.288C53.1673 90.0213 53.786 89.888 54.49 89.888C55.2367 89.888 55.8553 90.0267 56.346 90.304C56.8367 90.5813 57.2047 90.9653 57.45 91.456C57.706 91.936 57.834 92.5067 57.834 93.168V98ZM53.274 98.16C52.5593 98.16 51.9567 97.9787 51.466 97.616C50.986 97.2427 50.746 96.7147 50.746 96.032C50.746 95.584 50.8473 95.2107 51.05 94.912C51.2633 94.6133 51.5673 94.368 51.962 94.176C52.3567 93.984 52.8367 93.8507 53.402 93.776L56.346 93.36V94.576L53.658 94.976C53.1993 95.04 52.8793 95.136 52.698 95.264C52.5167 95.392 52.426 95.6053 52.426 95.904C52.426 96.2133 52.5327 96.4373 52.746 96.576C52.97 96.7147 53.3327 96.784 53.834 96.784C54.218 96.784 54.586 96.7253 54.938 96.608C55.3007 96.48 55.5993 96.272 55.834 95.984C56.0687 95.6853 56.186 95.2693 56.186 94.736L56.41 96.768L56.154 96.752C56.0047 96.9973 55.7967 97.2267 55.53 97.44C55.274 97.6533 54.9593 97.8293 54.586 97.968C54.2127 98.096 53.7753 98.16 53.274 98.16ZM62.9729 98C62.0982 98 61.4262 97.8133 60.9569 97.44C60.4982 97.0667 60.2689 96.4373 60.2689 95.552V90.224L60.6689 88.08H61.9969V95.472C61.9969 95.888 62.0982 96.1547 62.3009 96.272C62.5142 96.3787 62.8929 96.432 63.4369 96.432H64.3969V97.856C64.2369 97.8987 64.0289 97.936 63.7729 97.968C63.5169 97.9893 63.2502 98 62.9729 98ZM64.3969 91.488H58.9409V90.048H64.3969V91.488ZM67.3859 89.04H65.6739L65.6579 87.28H67.3859V89.04ZM67.4019 98H65.6739V90H67.4019V98ZM72.5358 98.16C71.3731 98.16 70.4931 97.9307 69.8958 97.472C69.2984 97.0027 68.9998 96.2827 68.9998 95.312V95.28H70.6638V95.568C70.6638 95.8453 70.7171 96.0747 70.8238 96.256C70.9411 96.4267 71.1331 96.5547 71.3998 96.64C71.6771 96.7147 72.0664 96.752 72.5677 96.752C72.9944 96.752 73.3144 96.72 73.5278 96.656C73.7518 96.5813 73.9011 96.48 73.9758 96.352C74.0504 96.224 74.0878 96.064 74.0878 95.872C74.0878 95.552 73.9758 95.328 73.7518 95.2C73.5278 95.0613 73.1278 94.9387 72.5518 94.832L71.3038 94.624C70.8344 94.528 70.4238 94.3947 70.0718 94.224C69.7304 94.0427 69.4638 93.7973 69.2718 93.488C69.0904 93.168 68.9998 92.768 68.9998 92.288C68.9998 91.5733 69.2824 90.9973 69.8478 90.56C70.4131 90.112 71.2131 89.888 72.2478 89.888C72.8771 89.888 73.4371 89.9893 73.9278 90.192C74.4184 90.3947 74.8078 90.6987 75.0958 91.104C75.3838 91.5093 75.5278 92.016 75.5278 92.624V92.768H73.8798V92.576C73.8798 92.32 73.8371 92.1013 73.7518 91.92C73.6664 91.728 73.5064 91.5787 73.2718 91.472C73.0371 91.3653 72.6798 91.312 72.1998 91.312C71.5704 91.312 71.1544 91.392 70.9518 91.552C70.7491 91.712 70.6478 91.9467 70.6478 92.256C70.6478 92.5653 70.7384 92.784 70.9198 92.912C71.1118 93.0293 71.4851 93.1467 72.0398 93.264L73.3998 93.52C73.9118 93.616 74.3384 93.76 74.6798 93.952C75.0211 94.144 75.2771 94.3947 75.4478 94.704C75.6291 95.0133 75.7198 95.3813 75.7198 95.808C75.7198 96.5547 75.4371 97.136 74.8718 97.552C74.3171 97.9573 73.5384 98.16 72.5358 98.16ZM79.4139 98H77.6859V90.112C77.6859 89.4933 77.8032 88.976 78.0379 88.56C78.2725 88.144 78.6192 87.8293 79.0779 87.616C79.5472 87.392 80.1232 87.28 80.8059 87.28C80.9125 87.28 81.0192 87.28 81.1259 87.28C81.2325 87.28 81.3392 87.28 81.4459 87.28V88.656H80.4859C80.1019 88.656 79.8192 88.7307 79.6379 88.88C79.4565 89.0293 79.3659 89.2747 79.3659 89.616V90.32L79.4139 90.736V98ZM81.4459 91.488H76.5179V90.048H81.4459V91.488ZM89.1621 98H87.5621V96.432L87.5141 96V92.944C87.5141 92.3467 87.3701 91.9413 87.0821 91.728C86.8048 91.5147 86.3515 91.408 85.7221 91.408C85.0928 91.408 84.6395 91.52 84.3621 91.744C84.0955 91.968 83.9621 92.3413 83.9621 92.864V93.104H82.2981V92.944C82.2981 92.3467 82.4421 91.8187 82.7301 91.36C83.0288 90.9013 83.4395 90.544 83.9621 90.288C84.4955 90.0213 85.1141 89.888 85.8181 89.888C86.5648 89.888 87.1835 90.0267 87.6741 90.304C88.1648 90.5813 88.5328 90.9653 88.7781 91.456C89.0341 91.936 89.1621 92.5067 89.1621 93.168V98ZM84.6021 98.16C83.8875 98.16 83.2848 97.9787 82.7941 97.616C82.3141 97.2427 82.0741 96.7147 82.0741 96.032C82.0741 95.584 82.1755 95.2107 82.3781 94.912C82.5915 94.6133 82.8955 94.368 83.2901 94.176C83.6848 93.984 84.1648 93.8507 84.7301 93.776L87.6741 93.36V94.576L84.9861 94.976C84.5275 95.04 84.2075 95.136 84.0261 95.264C83.8448 95.392 83.7541 95.6053 83.7541 95.904C83.7541 96.2133 83.8608 96.4373 84.0741 96.576C84.2981 96.7147 84.6608 96.784 85.1621 96.784C85.5461 96.784 85.9141 96.7253 86.2661 96.608C86.6288 96.48 86.9275 96.272 87.1621 95.984C87.3968 95.6853 87.5141 95.2693 87.5141 94.736L87.7381 96.768L87.4821 96.752C87.3328 96.9973 87.1248 97.2267 86.8581 97.44C86.6021 97.6533 86.2875 97.8293 85.9141 97.968C85.5408 98.096 85.1035 98.16 84.6021 98.16ZM94.6035 98.176C93.7715 98.176 93.0675 98 92.4915 97.648C91.9155 97.296 91.4728 96.8107 91.1635 96.192C90.8648 95.5733 90.7155 94.8533 90.7155 94.032C90.7155 93.2107 90.8702 92.4907 91.1795 91.872C91.4995 91.2427 91.9528 90.7573 92.5395 90.416C93.1262 90.064 93.8355 89.888 94.6675 89.888C95.3715 89.888 95.9902 90.0213 96.5235 90.288C97.0568 90.5547 97.4675 90.928 97.7555 91.408C98.0542 91.888 98.2035 92.448 98.2035 93.088V93.232H96.4915V93.136C96.4915 92.5493 96.3315 92.1227 96.0115 91.856C95.7022 91.5787 95.2168 91.44 94.5555 91.44C93.7875 91.44 93.2382 91.6587 92.9075 92.096C92.5875 92.5227 92.4275 93.1627 92.4275 94.016C92.4275 94.88 92.5875 95.5307 92.9075 95.968C93.2382 96.3947 93.7875 96.608 94.5555 96.608C95.2168 96.608 95.7022 96.4747 96.0115 96.208C96.3315 95.9307 96.4915 95.504 96.4915 94.928V94.832H98.2035V94.976C98.2035 95.5947 98.0542 96.1493 97.7555 96.64C97.4568 97.12 97.0355 97.4987 96.4915 97.776C95.9582 98.0427 95.3288 98.176 94.6035 98.176ZM103.004 98C102.129 98 101.457 97.8133 100.988 97.44C100.529 97.0667 100.3 96.4373 100.3 95.552V90.224L100.7 88.08H102.028V95.472C102.028 95.888 102.129 96.1547 102.332 96.272C102.545 96.3787 102.924 96.432 103.468 96.432H104.428V97.856C104.268 97.8987 104.06 97.936 103.804 97.968C103.548 97.9893 103.281 98 103.004 98ZM104.428 91.488H98.9721V90.048H104.428V91.488ZM107.417 89.04H105.705L105.689 87.28H107.417V89.04ZM107.433 98H105.705V90H107.433V98ZM112.84 98.16C112.029 98.16 111.325 97.9893 110.728 97.648C110.13 97.296 109.672 96.8107 109.352 96.192C109.032 95.5627 108.872 94.8373 108.872 94.016C108.872 93.1947 109.032 92.4747 109.352 91.856C109.672 91.2373 110.13 90.7573 110.728 90.416C111.325 90.064 112.029 89.888 112.84 89.888C113.65 89.888 114.344 90.064 114.92 90.416C115.506 90.7573 115.954 91.2373 116.264 91.856C116.584 92.4747 116.744 93.1947 116.744 94.016C116.744 94.8373 116.584 95.5627 116.264 96.192C115.954 96.8107 115.506 97.296 114.92 97.648C114.344 97.9893 113.65 98.16 112.84 98.16ZM112.84 96.624C113.672 96.624 114.253 96.416 114.584 96C114.914 95.5733 115.08 94.912 115.08 94.016C115.08 93.12 114.914 92.464 114.584 92.048C114.253 91.632 113.672 91.424 112.84 91.424C111.997 91.424 111.41 91.632 111.08 92.048C110.749 92.464 110.584 93.12 110.584 94.016C110.584 94.912 110.749 95.5733 111.08 96C111.41 96.416 111.997 96.624 112.84 96.624ZM125.694 98H123.966V93.376C123.966 92.672 123.832 92.1653 123.566 91.856C123.299 91.536 122.798 91.376 122.062 91.376C121.592 91.376 121.208 91.4453 120.91 91.584C120.611 91.712 120.387 91.9253 120.238 92.224C120.088 92.512 120.014 92.9067 120.014 93.408H119.71L119.566 91.536H119.95C120.067 91.248 120.243 90.9813 120.478 90.736C120.712 90.4907 121.011 90.288 121.374 90.128C121.747 89.968 122.19 89.888 122.702 89.888C123.395 89.888 123.96 90.0213 124.398 90.288C124.835 90.5547 125.16 90.9227 125.374 91.392C125.587 91.8613 125.694 92.4 125.694 93.008V98ZM120.014 98H118.286V90.048H119.87V92.432L120.014 92.512V98Z" fill="black"/>
<path d="M83.3453 0C73.8283 0 67.5134 5.84591 64.165 10.0928C60.8245 5.83997 54.5016 0 44.9847 0C32.9881 0 23.1269 10.0018 23.0022 22.2932C22.8953 33.0213 26.689 42.928 34.601 52.5716C38.3155 57.0995 45.05 64.3386 60.6028 74.8965C61.6517 75.6153 62.8934 76 64.165 76C65.4365 76 66.6783 75.6153 67.7271 74.8965C83.2799 64.3386 90.0144 57.0995 93.729 52.5716C101.645 42.9261 105.435 33.0193 105.328 22.2932C105.203 10.0018 95.3418 0 83.3453 0ZM64.165 69.6601V28.4142C64.165 24.5295 65.2 20.7437 66.9771 17.2884C66.9816 17.2774 66.9869 17.2668 66.9929 17.2567C68.1456 15.1756 69.5971 13.2747 71.3012 11.6146C74.8891 8.11382 78.94 6.33274 83.3453 6.33274C91.8846 6.33274 98.904 13.5204 98.993 22.3625C99.1929 43.0646 81.5068 57.8871 64.165 69.6601Z" fill="#0C3A25"/>
</svg>
