<svg width="238" height="27" viewBox="0 0 238 27" fill="none" xmlns="http://www.w3.org/2000/svg">
<path d="M200.431 4.18496C200.865 4.64842 201.566 6.20899 201.424 6.55748C201.282 6.90596 200.725 6.62608 200.021 6.69522C199.221 6.77372 198.39 7.05085 197.756 6.65321C196.956 6.151 197.175 4.88718 197.362 4.52984C197.685 3.91236 198.236 3.52131 198.903 3.51811C199.688 3.51435 200.072 3.80277 200.431 4.18496Z" fill="#DFF0D8"/>
<path d="M2.25743 21.8346V22.5244C2.25743 23.5591 2.22608 23.8099 2.03796 24.1548C1.84984 24.6251 1.44225 24.8132 0.721123 24.8445C0.219472 24.9073 0 25.064 0 25.4089C0 25.7538 0.250825 25.9106 0.752476 25.9106H6.70958C7.24259 25.9106 7.49341 25.7538 7.49341 25.4089C7.49341 25.064 7.27394 24.9073 6.77229 24.8445C6.05116 24.8132 5.64357 24.6251 5.4241 24.1548C5.26733 23.7785 5.23598 23.5277 5.23598 22.5244V19.3891C5.23598 18.9502 5.36139 18.7934 5.76898 18.7934C5.92575 18.7934 6.3647 18.8247 6.83499 18.9188C7.55612 19.0442 8.55942 19.1069 9.53137 19.1069C15.4571 19.1069 18.906 16.536 18.906 12.0525C18.906 6.91053 14.3911 3.36763 7.77559 3.36763H0.78383C0.250825 3.36763 0 3.52439 0 3.86928C0 4.21416 0.250825 4.40228 0.752476 4.43363C1.44225 4.46499 1.84984 4.65311 2.03796 5.09205C2.22608 5.49964 2.25743 5.75047 2.25743 6.75377V21.8346ZM7.46206 4.52769C12.4786 4.52769 15.6139 7.34948 15.6139 11.7703C15.6139 13.8709 14.8301 15.5954 13.3565 16.6927C12.1964 17.5706 10.9423 17.9155 8.77889 17.9155C6.27064 17.9155 5.23598 17.3198 5.23598 15.9716V6.03265C5.23598 4.90393 5.76898 4.52769 7.46206 4.52769Z" fill="#DFF0D8"/>
<path d="M28.1538 17.8214C26.6175 17.0063 25.9278 16.7868 24.5169 16.7868C21.2248 16.7868 18.7792 18.7934 18.7792 21.3957C18.7792 24.1861 21.2248 26.3181 24.4542 26.3181C26.1786 26.3181 27.6522 25.8165 29.0004 24.7191C29.0631 24.6878 29.0944 24.6564 29.1258 24.6564C29.1885 24.6564 29.2512 24.7191 29.3766 25.0013C29.8156 25.8478 30.6486 25.9106 31.8087 25.9106C33.1882 25.9106 37.4233 26.0507 37.4233 25.0788C37.4233 24.7966 34.946 24.7322 34.7893 24.7322C34.702 24.7609 34.1533 24.9862 34.0088 24.9862L34.0248 25.0072L33.915 24.9839C33.8188 25.0094 33.2958 25.0327 32.9509 25.0327C32.2298 25.0327 31.8222 24.3429 31.5713 22.7439L30.568 15.5954C30.1604 12.8676 28.436 11.394 25.5202 11.394C23.4822 11.394 21.507 12.2406 20.2528 13.7142C20.1274 13.8709 19.9707 14.1218 19.9707 14.2472C19.9707 14.498 20.1588 14.6548 20.3783 14.6548C20.535 14.6548 20.7231 14.5294 20.974 14.2785C21.9773 13.2125 23.3882 12.5855 24.6736 12.5855C26.5862 12.5855 27.4954 13.432 27.809 15.5013L28.1538 17.8214ZM28.8123 22.2736C28.8436 22.4931 28.875 22.6498 28.875 22.8379C28.875 24.1234 27.276 25.1894 25.3321 25.1894C23.2 25.1894 21.4756 23.465 21.4756 21.3016C21.4756 19.2323 23.0433 17.7274 25.1126 17.7274C26.3667 17.7274 27.3387 18.1977 28.342 19.201L28.8123 22.2736Z" fill="#DFF0D8"/>
<path d="M38.1161 12.0838C38.0847 11.7389 37.9593 11.5822 37.7085 11.5822C37.6458 11.5822 37.5517 11.6135 37.5204 11.6449L34.1969 13.7142C34.0401 13.8082 33.9461 13.965 33.9461 14.1218C33.9461 14.3099 34.1029 14.5294 34.3537 14.5607L34.6045 14.6234C35.2629 14.7488 35.451 15.1251 35.451 16.3165V22.6185V23.1515C35.451 23.8412 35.4197 24.1548 35.2629 24.3429C35.1062 24.6564 34.6045 24.8445 34.0088 24.97C33.5385 25.0327 33.3504 25.1581 33.3504 25.4403C33.3504 25.7851 33.5699 25.9106 34.0402 25.9106H39.7151C40.1854 25.9106 40.3735 25.7851 40.3735 25.4716C40.3735 25.1581 40.2167 25.0327 39.7464 24.97C38.4923 24.7818 38.1474 24.4056 38.1474 23.1515V17.696C38.1474 15.3445 39.621 13.4633 41.5649 13.4633C42.4742 13.4633 43.1326 14.0904 43.1639 14.9683C43.1953 15.4386 43.258 15.5954 43.5402 15.5954C43.8223 15.5954 43.9791 15.4386 44.0732 14.9369C44.1359 14.5294 44.5121 13.4633 44.9197 12.4914C44.9824 12.3973 45.0138 12.2719 45.0138 12.2092C45.0138 12.1465 44.9511 12.0525 44.7943 11.9897C44.2613 11.6449 43.5715 11.4254 42.819 11.4254C41.1887 11.4254 39.3075 12.6482 38.4923 14.1845C38.3042 14.4666 38.2101 14.5921 38.1788 14.5921C38.1474 14.5921 38.1161 14.498 38.1161 14.3726V12.0838Z" fill="#DFF0D8"/>
<path d="M50.9677 11.927V7.16136C50.9677 6.91053 50.8423 6.65971 50.6228 6.65971C50.372 6.65971 50.1525 6.91053 50.0271 7.38083C49.5568 8.82308 48.0518 10.9864 46.9545 11.7703C46.4215 12.1465 46.2647 12.366 46.2647 12.5855C46.2647 12.8676 46.4528 13.0244 46.7977 13.0244H47.9891C48.2086 13.0244 48.334 13.2125 48.334 13.4006V21.4898C48.334 22.5558 48.3027 23.1201 48.2086 23.8412C48.1772 24.0921 48.1145 24.2802 48.1145 24.4056C48.1145 25.5343 49.4314 26.3495 51.1244 26.3495C52.504 26.3495 53.6327 25.9106 54.3224 25.1267C54.4792 24.97 54.5733 24.7505 54.5733 24.6251C54.5733 24.3743 54.4479 24.2175 54.2598 24.2175C54.1657 24.2175 54.103 24.2488 54.0716 24.2802L53.4132 24.7818C53.0997 25.0327 52.7862 25.1267 52.3786 25.1267C51.3753 25.1267 50.999 24.6878 50.999 23.4964V13.3693C50.999 13.1185 51.1244 12.993 51.2812 12.993L53.7894 13.0244C53.9462 13.0244 54.1657 12.899 54.2284 12.7109L54.4792 12.2092C54.5419 12.1152 54.5419 12.0525 54.5419 12.0211C54.5419 11.9584 54.4479 11.927 54.3224 11.927H50.9677Z" fill="#DFF0D8"/>
<path d="M60.555 12.0838C60.5237 11.7389 60.3983 11.5822 60.1474 11.5822C60.0847 11.5822 59.9907 11.6135 59.9593 11.6449L56.6359 13.7142C56.4791 13.8082 56.3851 13.965 56.3851 14.1218C56.3851 14.3099 56.5418 14.498 56.7927 14.5607C56.8554 14.5921 56.8554 14.5921 57.0121 14.6234C57.7019 14.7488 57.89 15.1564 57.89 16.3165V23.1201C57.89 23.8413 57.8587 24.1548 57.7332 24.3743C57.5765 24.6564 57.1689 24.9073 56.6672 24.97C56.1656 25.064 56.0402 25.1581 56.0402 25.4716C56.0402 25.7851 56.2283 25.9106 56.7299 25.9106H61.7778C62.2481 25.9106 62.4676 25.7851 62.4676 25.4716C62.4676 25.1581 62.3108 25.0327 61.8092 24.97C61.3075 24.9073 60.8372 24.6564 60.6804 24.3429C60.555 24.1234 60.5237 23.8412 60.5237 23.2142V16.8495C60.5237 14.8115 61.9346 13.3379 63.8785 13.3379C65.4148 13.3379 66.324 14.2785 66.5748 16.1911L67.5154 23.2142C67.5781 23.5591 67.6095 23.8726 67.6095 23.998C67.6095 24.531 67.296 24.8445 66.7003 24.97C66.1673 25.064 66.0732 25.1267 66.0732 25.4716C66.0732 25.7851 66.324 25.9106 66.7943 25.9106H71.6541C72.1244 25.9106 72.3438 25.7851 72.3438 25.4716C72.3438 25.1581 72.2184 25.064 71.6854 24.97C70.7448 24.8132 70.4313 24.4056 70.2745 23.2142L69.1145 15.6267C68.8323 13.4947 68.2052 12.4914 66.8884 11.8643C66.324 11.6135 65.6656 11.4567 64.9758 11.4567C63.4395 11.4567 62.0913 12.1779 60.7745 13.7455C60.6804 13.8396 60.6177 13.9023 60.5864 13.9023C60.555 13.9023 60.555 13.8082 60.555 13.6828V12.0838Z" fill="#DFF0D8"/>
<path d="M75.23 20.0789L84.7614 17.1944C84.9495 17.1317 85.0435 17.0063 85.0435 16.8181C85.0435 16.6614 84.9808 16.3478 84.8241 15.9716C84.5105 15.3132 84.1343 14.6861 83.6954 14.1218C82.3472 12.366 80.5287 11.394 78.4594 11.394C74.6029 11.394 71.7498 14.5607 71.7498 18.6993C71.7498 23.1515 74.9165 26.3809 79.2746 26.3809C81.6261 26.3809 83.9462 25.3462 85.169 23.6845C85.263 23.5277 85.3257 23.3396 85.3257 23.2455C85.3257 22.9634 85.169 22.8066 84.9181 22.8066C84.7927 22.8066 84.6046 22.8693 84.4478 23.0888C83.3191 24.3429 81.8455 25.064 80.3406 25.064C78.1772 25.064 76.1706 23.6531 75.1673 21.3643C74.9478 20.9254 74.8538 20.5492 74.8538 20.361C74.8538 20.2043 74.9478 20.1416 75.23 20.0789ZM74.697 19.0756C74.4775 19.0756 74.3521 18.3858 74.3521 17.4138C74.3521 14.4353 75.7316 12.5541 77.895 12.5541C78.9297 12.5541 79.933 12.9617 80.6855 13.6828C81.1871 14.1531 81.5633 14.7175 81.8455 15.4072C82.0336 15.9402 82.1904 16.4419 82.1904 16.63C82.1904 16.7868 82.065 16.8808 81.8142 16.9749L74.9792 18.9815C74.8538 19.0442 74.7597 19.0756 74.697 19.0756Z" fill="#DFF0D8"/>
<path d="M90.4123 12.0838C90.3809 11.7389 90.2555 11.5822 90.0047 11.5822C89.942 11.5822 89.8479 11.6135 89.8166 11.6449L86.4931 13.7142C86.3364 13.8082 86.2423 13.965 86.2423 14.1218C86.2423 14.3099 86.3991 14.5294 86.6499 14.5607L86.9007 14.6234C87.5592 14.7488 87.7473 15.1251 87.7473 16.3165V22.6185V23.1515C87.7473 23.8412 87.7159 24.1548 87.5592 24.3429C87.4024 24.6564 86.9007 24.8445 86.305 24.97C85.8347 25.0327 85.6466 25.1581 85.6466 25.4403C85.6466 25.7851 85.8661 25.9106 86.3364 25.9106H92.0113C92.4816 25.9106 92.6697 25.7851 92.6697 25.4716C92.6697 25.1581 92.5129 25.0327 92.0426 24.97C90.7885 24.7818 90.4436 24.4056 90.4436 23.1515V17.696C90.4436 15.3445 91.9172 13.4633 93.8611 13.4633C94.7704 13.4633 95.4288 14.0904 95.4602 14.9683C95.4915 15.4386 95.5542 15.5954 95.8364 15.5954C96.1186 15.5954 96.2753 15.4386 96.3694 14.9369C96.4321 14.5294 96.8083 13.4633 97.2159 12.4914C97.2786 12.3973 97.31 12.2719 97.31 12.2092C97.31 12.1465 97.2473 12.0525 97.0905 11.9897C96.5575 11.6449 95.8678 11.4254 95.1153 11.4254C93.4849 11.4254 91.6037 12.6482 90.7885 14.1845C90.6004 14.4666 90.5063 14.5921 90.475 14.5921C90.4436 14.5921 90.4123 14.498 90.4123 14.3726V12.0838Z" fill="#DFF0D8"/>
<path d="M110.439 10.0529V4.69151C110.439 4.40933 110.297 4.12716 110.051 4.12716C109.768 4.12716 109.521 4.40934 109.38 4.93842C108.851 6.56095 107.158 8.99474 105.924 9.87655C105.324 10.2998 105.148 10.5467 105.148 10.7936C105.148 11.1111 105.359 11.2874 105.747 11.2874H107.088C107.335 11.2874 107.476 11.4991 107.476 11.7107V20.811C107.476 22.0102 107.44 22.6451 107.335 23.4564C107.299 23.7386 107.229 23.9502 107.229 24.0913C107.229 25.3611 108.71 26.2782 110.615 26.2782C112.167 26.2782 113.437 25.7844 114.213 24.9025C114.389 24.7262 114.495 24.4793 114.495 24.3382C114.495 24.056 114.354 23.8797 114.142 23.8797C114.036 23.8797 113.966 23.9149 113.931 23.9502L113.19 24.5146C112.837 24.7967 112.484 24.9025 112.026 24.9025C110.897 24.9025 110.474 24.4087 110.474 23.0684V11.6754C110.474 11.3933 110.615 11.2522 110.791 11.2522L113.613 11.2874C113.789 11.2874 114.036 11.1463 114.107 10.9347L114.389 10.3704C114.46 10.2645 114.46 10.194 114.46 10.1587C114.46 10.0882 114.354 10.0529 114.213 10.0529H110.439Z" fill="#DFF0D8"/>
<path d="M113.68 17.9539C113.963 22.892 117.631 26.2782 122.639 26.2782C127.507 26.2782 130.787 23.1742 130.787 18.5888C130.787 13.5801 126.661 9.48855 121.652 9.48855C116.961 9.48855 113.645 12.8041 113.645 17.4954C113.645 17.6717 113.68 17.8128 113.68 17.9539ZM120.876 10.6878C124.474 10.6878 127.648 14.991 127.648 19.9997C127.648 23.1742 125.955 25.1495 123.239 25.1495C119.5 25.1495 116.608 20.9168 116.608 15.379C116.608 14.9558 116.643 14.4972 116.749 14.074C117.243 11.8871 118.689 10.6878 120.876 10.6878Z" fill="#DFF0D8"/>
<path d="M140.548 25.7844H149.895C153.457 25.7844 156.455 24.9378 158.501 23.3506C160.97 21.3753 162.557 17.9186 162.557 14.3209C162.557 6.84312 156.103 0.458847 148.554 0.458847L140.583 0.423575C140.018 0.423575 139.701 0.599937 139.701 0.987934C139.701 1.44647 139.877 1.58756 140.548 1.62283C141.535 1.72865 141.782 2.25773 141.782 4.23298V21.9749C141.782 23.1742 141.782 23.4211 141.641 23.8444C141.465 24.3382 141.112 24.5498 140.512 24.5851C139.842 24.6556 139.666 24.7967 139.666 25.22C139.666 25.608 139.913 25.7844 140.548 25.7844ZM147.637 1.72865C153.775 1.72865 158.783 7.40748 158.783 14.4267C158.783 20.7757 155.186 24.3735 148.801 24.3735C147.285 24.3735 146.262 24.1971 145.733 23.8444C145.203 23.5269 145.203 23.4211 145.203 21.728V3.59808C145.203 2.11665 145.662 1.72865 147.637 1.72865Z" fill="#DFF0D8"/>
<path d="M168.066 19.2237L178.789 15.9787C179 15.9081 179.106 15.767 179.106 15.5554C179.106 15.379 179.036 15.0263 178.859 14.603C178.507 13.8623 178.083 13.1569 177.59 12.522C176.073 10.5467 174.027 9.45328 171.699 9.45328C167.361 9.45328 164.151 13.0158 164.151 17.6717C164.151 22.6804 167.713 26.3134 172.616 26.3134C175.262 26.3134 177.872 25.1495 179.247 23.28C179.353 23.1037 179.424 22.892 179.424 22.7862C179.424 22.4688 179.247 22.2924 178.965 22.2924C178.824 22.2924 178.612 22.3629 178.436 22.6099C177.166 24.0207 175.508 24.832 173.815 24.832C171.382 24.832 169.124 23.2448 167.995 20.6699C167.749 20.1761 167.643 19.7528 167.643 19.5412C167.643 19.3648 167.749 19.2942 168.066 19.2237ZM167.466 18.095C167.219 18.095 167.078 17.319 167.078 16.2256C167.078 12.8747 168.63 10.7584 171.064 10.7584C172.228 10.7584 173.357 11.2169 174.203 12.0282C174.768 12.5572 175.191 13.1921 175.508 13.9681C175.72 14.5678 175.896 15.1321 175.896 15.3438C175.896 15.5201 175.755 15.6259 175.473 15.7317L167.784 17.9892C167.643 18.0597 167.537 18.095 167.466 18.095Z" fill="#DFF0D8"/>
<path d="M193.619 15.5201L195.065 12.4514C195.206 12.134 195.242 11.9929 195.242 11.9576C195.242 11.746 194.783 11.3227 194.183 11.0053C192.279 9.87654 191.185 9.59437 189.457 9.59437C184.66 9.59437 180.992 13.298 180.992 18.3419C180.992 22.9978 184.448 26.384 189.175 26.384C191.785 26.384 193.619 25.4669 194.924 23.5622C195.065 23.3858 195.171 23.0331 195.171 22.892C195.171 22.6451 195.03 22.4688 194.783 22.4688C194.607 22.4688 194.466 22.6098 194.183 22.9978C193.478 24.1618 191.679 25.0084 189.986 25.0084C186.529 25.0084 184.201 22.2219 184.201 18.095C184.201 13.7565 186.459 10.6525 189.457 10.6525C191.432 10.6525 192.949 12.0634 192.949 13.8976C192.949 14.2856 192.878 14.6383 192.808 14.9558C192.737 15.2379 192.702 15.4496 192.702 15.5907C192.702 15.8376 192.843 16.0139 193.09 16.0139C193.302 16.0139 193.407 15.9081 193.619 15.5201Z" fill="#DFF0D8"/>
<path d="M202.059 10.2293C202.023 9.84127 201.882 9.66491 201.6 9.66491C201.529 9.66491 201.459 9.70018 201.388 9.73545L197.685 12.0634C197.473 12.1692 197.332 12.3456 197.332 12.522C197.332 12.7336 197.544 12.9452 197.791 13.0158C197.932 13.051 197.932 13.0511 198.108 13.0863C198.849 13.2274 199.06 13.686 199.06 14.991V22.116V22.6804C199.06 23.4564 199.025 23.8091 198.884 24.0207C198.672 24.3735 198.179 24.6556 197.579 24.7262C197.05 24.7967 196.838 24.9378 196.838 25.2905C196.838 25.6433 197.085 25.7844 197.65 25.7844H203.716C204.245 25.7844 204.492 25.6433 204.492 25.2905C204.492 24.9378 204.281 24.7967 203.752 24.7262C202.447 24.5146 202.059 24.056 202.059 22.6804V10.2293Z" fill="#DFF0D8"/>
<path d="M220.047 0.564667C220.011 0.211944 219.87 0.000307676 219.588 0.000307676C219.518 0.000307676 219.447 0.035577 219.376 0.0708488L215.673 2.39882C215.497 2.53991 215.32 2.71627 215.32 2.89264C215.32 3.13954 215.532 3.31591 215.779 3.35118L216.096 3.42172C216.625 3.56281 216.978 3.98606 217.049 4.55042V5.57331V11.358C217.049 11.5343 217.049 11.6049 217.013 11.6049C216.978 11.6049 216.943 11.6049 216.872 11.5343C215.497 10.0529 214.262 9.48855 212.393 9.48855C208.301 9.48855 204.844 13.5449 204.844 18.3066C204.844 22.8568 207.842 26.3134 211.828 26.3134C213.451 26.3134 215.214 25.5727 216.343 24.4087C216.731 23.9855 216.907 23.8797 216.978 23.8797C217.154 23.8797 217.225 24.0207 217.225 24.3029C217.225 24.4793 217.19 24.7262 217.119 24.9731C217.049 25.22 217.013 25.5022 217.013 25.7844C217.013 26.1724 217.084 26.2429 217.366 26.2429H217.507L221.951 24.9378C222.198 24.9026 222.339 24.6909 222.339 24.444C222.339 24.2677 222.198 24.0913 221.951 24.0913L221.175 24.0207C220.364 23.9855 220.047 23.4917 220.047 22.1513V0.564667ZM216.731 22.3277C216.202 23.5975 214.579 24.5851 212.957 24.5851C209.959 24.5851 207.878 21.5517 207.878 17.0368C207.878 13.1921 209.818 10.6173 212.71 10.6173C215.32 10.6173 217.013 12.6278 217.049 15.8376L217.084 19.8233C217.084 20.8815 216.978 21.728 216.731 22.3277Z" fill="#DFF0D8"/>
<path d="M226.642 19.2237L237.365 15.9787C237.577 15.9081 237.683 15.767 237.683 15.5554C237.683 15.379 237.612 15.0263 237.436 14.603C237.083 13.8623 236.66 13.1569 236.166 12.522C234.649 10.5467 232.603 9.45328 230.275 9.45328C225.937 9.45328 222.727 13.0158 222.727 17.6717C222.727 22.6804 226.29 26.3134 231.192 26.3134C233.838 26.3134 236.448 25.1495 237.824 23.28C237.929 23.1037 238 22.892 238 22.7862C238 22.4688 237.824 22.2924 237.541 22.2924C237.4 22.2924 237.189 22.3629 237.012 22.6099C235.743 24.0207 234.085 24.832 232.392 24.832C229.958 24.832 227.7 23.2448 226.572 20.6699C226.325 20.1761 226.219 19.7528 226.219 19.5412C226.219 19.3648 226.325 19.2942 226.642 19.2237ZM226.043 18.095C225.796 18.095 225.655 17.319 225.655 16.2256C225.655 12.8747 227.207 10.7584 229.64 10.7584C230.804 10.7584 231.933 11.2169 232.78 12.0282C233.344 12.5572 233.767 13.1921 234.085 13.9681C234.296 14.5678 234.473 15.1321 234.473 15.3438C234.473 15.5201 234.332 15.6259 234.05 15.7317L226.36 17.9892C226.219 18.0597 226.113 18.095 226.043 18.095Z" fill="#DFF0D8"/>
</svg>
