<svg width="180" height="20" viewBox="0 0 180 20" fill="none" xmlns="http://www.w3.org/2000/svg">
<path d="M151.585 3.16632C151.914 3.51684 152.444 4.6971 152.337 4.96066C152.229 5.22423 151.808 5.01255 151.276 5.06484C150.671 5.12421 150.042 5.3338 149.563 5.03307C148.958 4.65324 149.123 3.69741 149.265 3.42716C149.509 2.96016 149.926 2.6644 150.43 2.66198C151.024 2.65914 151.314 2.87728 151.585 3.16632Z" fill="#0C3A25"/>
<path d="M1.7073 16.5136V17.0353C1.7073 17.8178 1.68359 18.0075 1.54131 18.2683C1.39904 18.624 1.09077 18.7663 0.545387 18.79C0.165987 18.8374 0 18.956 0 19.2168C0 19.4777 0.1897 19.5962 0.5691 19.5962H5.07447C5.47759 19.5962 5.66729 19.4777 5.66729 19.2168C5.66729 18.956 5.5013 18.8374 5.1219 18.79C4.57651 18.7663 4.26825 18.624 4.10226 18.2683C3.9837 17.9838 3.95999 17.7941 3.95999 17.0353V14.664C3.95999 14.332 4.05484 14.2135 4.3631 14.2135C4.48166 14.2135 4.81364 14.2372 5.16932 14.3083C5.71471 14.4032 6.47351 14.4506 7.2086 14.4506C11.6903 14.4506 14.2986 12.5062 14.2986 9.1153C14.2986 5.22645 10.884 2.54694 5.8807 2.54694H0.592812C0.1897 2.54694 0 2.66551 0 2.92634C0 3.18718 0.1897 3.32946 0.5691 3.35317C1.09077 3.37688 1.39904 3.51916 1.54131 3.85113C1.68359 4.15939 1.7073 4.34909 1.7073 5.10789V16.5136ZM5.64357 3.42431C9.43757 3.42431 11.8088 5.55843 11.8088 8.90189C11.8088 10.4906 11.216 11.7948 10.1015 12.6248C9.22416 13.2887 8.27566 13.5495 6.6395 13.5495C4.7425 13.5495 3.95999 13.099 3.95999 12.0794V4.56251C3.95999 3.70886 4.3631 3.42431 5.64357 3.42431Z" fill="#0C3A25"/>
<path d="M21.2928 13.4784C20.1309 12.8619 19.6092 12.6959 18.5422 12.6959C16.0524 12.6959 14.2028 14.2135 14.2028 16.1816C14.2028 18.292 16.0524 19.9045 18.4947 19.9045C19.7989 19.9045 20.9134 19.5251 21.9331 18.6951C21.9805 18.6714 22.0042 18.6477 22.0279 18.6477C22.0753 18.6477 22.1228 18.6951 22.2176 18.9086C22.5496 19.5488 23.1796 19.5962 24.057 19.5962C25.1003 19.5962 28.3033 19.7022 28.3033 18.9671C28.3033 18.7537 26.4298 18.705 26.3112 18.705C26.2452 18.7268 25.8303 18.8971 25.7209 18.8971L25.733 18.913L25.65 18.8954C25.5773 18.9147 25.1817 18.9323 24.9208 18.9323C24.3754 18.9323 24.0672 18.4106 23.8775 17.2013L23.1187 11.7948C22.8104 9.73183 21.5062 8.61734 19.301 8.61734C17.7597 8.61734 16.2658 9.25758 15.3173 10.3721C15.2224 10.4906 15.1039 10.6803 15.1039 10.7752C15.1039 10.9649 15.2461 11.0834 15.4121 11.0834C15.5307 11.0834 15.673 10.9886 15.8627 10.7989C16.6215 9.99266 17.6885 9.51841 18.6607 9.51841C20.1072 9.51841 20.7949 10.1587 21.032 11.7237L21.2928 13.4784ZM21.7908 16.8456C21.8145 17.0116 21.8382 17.1301 21.8382 17.2724C21.8382 18.2446 20.6289 19.0508 19.1587 19.0508C17.5462 19.0508 16.2421 17.7466 16.2421 16.1105C16.2421 14.5455 17.4277 13.4073 18.9927 13.4073C19.9412 13.4073 20.6763 13.7629 21.4351 14.5217L21.7908 16.8456Z" fill="#0C3A25"/>
<path d="M28.8273 9.13902C28.8036 8.87818 28.7087 8.75961 28.519 8.75961C28.4716 8.75961 28.4005 8.78333 28.3767 8.80704L25.8632 10.3721C25.7447 10.4432 25.6735 10.5618 25.6735 10.6803C25.6735 10.8226 25.7921 10.9886 25.9818 11.0123L26.1715 11.0597C26.6694 11.1546 26.8117 11.4391 26.8117 12.3402V17.1064V17.5095C26.8117 18.0312 26.788 18.2683 26.6694 18.4106C26.5509 18.6477 26.1715 18.79 25.7209 18.8848C25.3653 18.9323 25.223 19.0271 25.223 19.2405C25.223 19.5014 25.389 19.5962 25.7447 19.5962H30.0366C30.3923 19.5962 30.5346 19.5014 30.5346 19.2642C30.5346 19.0271 30.416 18.9323 30.0603 18.8848C29.1118 18.7426 28.851 18.458 28.851 17.5095V13.3835C28.851 11.6051 29.9655 10.1824 31.4356 10.1824C32.1233 10.1824 32.6213 10.6566 32.645 11.3206C32.6687 11.6763 32.7161 11.7948 32.9295 11.7948C33.143 11.7948 33.2615 11.6763 33.3326 11.2969C33.3801 10.9886 33.6646 10.1824 33.9729 9.44728C34.0203 9.37614 34.044 9.28129 34.044 9.23386C34.044 9.18644 33.9966 9.1153 33.878 9.06788C33.4749 8.80704 32.9533 8.64105 32.3842 8.64105C31.1511 8.64105 29.7283 9.56584 29.1118 10.7277C28.9696 10.9412 28.8984 11.036 28.8747 11.036C28.851 11.036 28.8273 10.9649 28.8273 10.87V9.13902Z" fill="#0C3A25"/>
<path d="M38.547 9.02045V5.41615C38.547 5.22646 38.4521 5.03675 38.2861 5.03675C38.0964 5.03675 37.9305 5.22645 37.8356 5.58214C37.4799 6.67292 36.3417 8.30908 35.5118 8.90189C35.1087 9.18644 34.9901 9.35243 34.9901 9.51841C34.9901 9.73183 35.1324 9.85039 35.3932 9.85039H36.2943C36.4603 9.85039 36.5551 9.99266 36.5551 10.1349V16.2528C36.5551 17.059 36.5314 17.4858 36.4603 18.0312C36.4366 18.2209 36.3891 18.3632 36.3891 18.458C36.3891 19.3117 37.3851 19.9282 38.6655 19.9282C39.7089 19.9282 40.5625 19.5962 41.0842 19.0034C41.2028 18.8848 41.2739 18.7189 41.2739 18.624C41.2739 18.4343 41.1791 18.3157 41.0368 18.3157C40.9657 18.3157 40.9182 18.3395 40.8945 18.3632L40.3965 18.7426C40.1594 18.9323 39.9223 19.0034 39.614 19.0034C38.8552 19.0034 38.5707 18.6714 38.5707 17.7704V10.1112C38.5707 9.92153 38.6655 9.82668 38.7841 9.82668L40.6811 9.85039C40.7997 9.85039 40.9657 9.75554 41.0131 9.61326L41.2028 9.23386C41.2502 9.16273 41.2502 9.1153 41.2502 9.09159C41.2502 9.04416 41.1791 9.02045 41.0842 9.02045H38.547Z" fill="#0C3A25"/>
<path d="M45.7979 9.13902C45.7742 8.87818 45.6794 8.75961 45.4897 8.75961C45.4422 8.75961 45.3711 8.78333 45.3474 8.80704L42.8339 10.3721C42.7153 10.4432 42.6442 10.5618 42.6442 10.6803C42.6442 10.8226 42.7627 10.9649 42.9524 11.0123C42.9999 11.036 42.9998 11.036 43.1184 11.0597C43.6401 11.1546 43.7824 11.4628 43.7824 12.3402V17.4858C43.7824 18.0312 43.7586 18.2683 43.6638 18.4343C43.5452 18.6477 43.237 18.8374 42.8576 18.8848C42.4782 18.956 42.3833 19.0271 42.3833 19.2642C42.3833 19.5014 42.5256 19.5962 42.905 19.5962H46.7227C47.0784 19.5962 47.2444 19.5014 47.2444 19.2642C47.2444 19.0271 47.1258 18.9323 46.7464 18.8848C46.367 18.8374 46.0113 18.6477 45.8928 18.4106C45.7979 18.2446 45.7742 18.0312 45.7742 17.5569V12.7433C45.7742 11.202 46.8413 10.0875 48.3115 10.0875C49.4734 10.0875 50.161 10.7989 50.3507 12.2454L51.0621 17.5569C51.1095 17.8178 51.1332 18.0549 51.1332 18.1498C51.1332 18.5529 50.8961 18.79 50.4456 18.8848C50.0425 18.956 49.9713 19.0034 49.9713 19.2642C49.9713 19.5014 50.161 19.5962 50.5167 19.5962H54.1921C54.5478 19.5962 54.7138 19.5014 54.7138 19.2642C54.7138 19.0271 54.619 18.956 54.2159 18.8848C53.5045 18.7663 53.2674 18.458 53.1488 17.5569L52.2714 11.8185C52.058 10.2061 51.5838 9.44728 50.5878 8.97303C50.161 8.78333 49.6631 8.66476 49.1414 8.66476C47.9795 8.66476 46.9598 9.21015 45.9639 10.3958C45.8928 10.4669 45.8453 10.5143 45.8216 10.5143C45.7979 10.5143 45.7979 10.4432 45.7979 10.3484V9.13902Z" fill="#0C3A25"/>
<path d="M56.8966 15.1857L64.1052 13.0041C64.2475 12.9567 64.3186 12.8619 64.3186 12.7196C64.3186 12.601 64.2712 12.3639 64.1527 12.0794C63.9155 11.5814 63.631 11.1072 63.299 10.6803C62.2794 9.35243 60.904 8.61734 59.339 8.61734C56.4224 8.61734 54.2646 11.0123 54.2646 14.1423C54.2646 17.5095 56.6595 19.9519 59.9556 19.9519C61.734 19.9519 63.4887 19.1694 64.4135 17.9126C64.4846 17.7941 64.5321 17.6518 64.5321 17.5807C64.5321 17.3672 64.4135 17.2487 64.2238 17.2487C64.129 17.2487 63.9867 17.2961 63.8681 17.4621C63.0145 18.4106 61.9 18.956 60.7618 18.956C59.1256 18.956 57.608 17.8889 56.8492 16.1579C56.6832 15.8259 56.6121 15.5414 56.6121 15.3991C56.6121 15.2805 56.6832 15.2331 56.8966 15.1857ZM56.4935 14.4269C56.3275 14.4269 56.2327 13.9052 56.2327 13.1701C56.2327 10.9175 57.276 9.4947 58.9122 9.4947C59.6947 9.4947 60.4535 9.80297 61.0226 10.3484C61.402 10.704 61.6866 11.1309 61.9 11.6525C62.0422 12.0556 62.1608 12.4351 62.1608 12.5773C62.1608 12.6959 62.066 12.767 61.8763 12.8382L56.7069 14.3558C56.6121 14.4032 56.5409 14.4269 56.4935 14.4269Z" fill="#0C3A25"/>
<path d="M68.379 9.13902C68.3553 8.87818 68.2605 8.75961 68.0708 8.75961C68.0234 8.75961 67.9522 8.78333 67.9285 8.80704L65.415 10.3721C65.2964 10.4432 65.2253 10.5618 65.2253 10.6803C65.2253 10.8226 65.3438 10.9886 65.5335 11.0123L65.7233 11.0597C66.2212 11.1546 66.3635 11.4391 66.3635 12.3402V17.1064V17.5095C66.3635 18.0312 66.3398 18.2683 66.2212 18.4106C66.1026 18.6477 65.7232 18.79 65.2727 18.8848C64.917 18.9323 64.7747 19.0271 64.7747 19.2405C64.7747 19.5014 64.9407 19.5962 65.2964 19.5962H69.5884C69.9441 19.5962 70.0863 19.5014 70.0863 19.2642C70.0863 19.0271 69.9678 18.9323 69.6121 18.8848C68.6636 18.7426 68.4028 18.458 68.4028 17.5095V13.3835C68.4028 11.6051 69.5172 10.1824 70.9874 10.1824C71.6751 10.1824 72.173 10.6566 72.1968 11.3206C72.2205 11.6763 72.2679 11.7948 72.4813 11.7948C72.6947 11.7948 72.8133 11.6763 72.8844 11.2969C72.9318 10.9886 73.2164 10.1824 73.5247 9.44728C73.5721 9.37614 73.5958 9.28129 73.5958 9.23386C73.5958 9.18644 73.5484 9.1153 73.4298 9.06788C73.0267 8.80704 72.505 8.64105 71.9359 8.64105C70.7029 8.64105 69.2801 9.56584 68.6636 10.7277C68.5213 10.9412 68.4502 11.036 68.4265 11.036C68.4028 11.036 68.379 10.9649 68.379 10.87V9.13902Z" fill="#0C3A25"/>
<path d="M83.525 7.60304V3.5482C83.525 3.33479 83.4183 3.12138 83.2315 3.12138C83.0181 3.12138 82.8314 3.33479 82.7247 3.73494C82.3245 4.96206 81.0441 6.80274 80.1104 7.46966C79.6569 7.78978 79.5235 7.97651 79.5235 8.16325C79.5235 8.40334 79.6835 8.53671 79.977 8.53671H80.9907C81.1774 8.53671 81.2841 8.69677 81.2841 8.85683V15.7394C81.2841 16.6464 81.2575 17.1266 81.1774 17.7401C81.1508 17.9535 81.0974 18.1136 81.0974 18.2203C81.0974 19.1807 82.2178 19.8742 83.6584 19.8742C84.8321 19.8742 85.7925 19.5008 86.3794 18.8339C86.5127 18.7005 86.5928 18.5137 86.5928 18.407C86.5928 18.1936 86.4861 18.0602 86.326 18.0602C86.246 18.0602 86.1926 18.0869 86.166 18.1136L85.6057 18.5404C85.339 18.7538 85.0722 18.8339 84.7254 18.8339C83.8718 18.8339 83.5517 18.4604 83.5517 17.4467V8.83016C83.5517 8.61675 83.6584 8.51004 83.7917 8.51004L85.9259 8.53671C86.0592 8.53671 86.246 8.43001 86.2993 8.26995L86.5127 7.84313C86.5661 7.7631 86.5661 7.70974 86.5661 7.68307C86.5661 7.62971 86.4861 7.60304 86.3794 7.60304H83.525Z" fill="#0C3A25"/>
<path d="M85.9767 13.5786C86.1901 17.3133 88.9645 19.8742 92.7526 19.8742C96.4339 19.8742 98.9148 17.5267 98.9148 14.0588C98.9148 10.2707 95.7937 7.17621 92.0056 7.17621C88.4576 7.17621 85.95 9.68381 85.95 13.2318C85.95 13.3652 85.9767 13.4719 85.9767 13.5786ZM91.4187 8.08321C94.1397 8.08321 96.5406 11.3377 96.5406 15.1258C96.5406 17.5267 95.2602 19.0206 93.2061 19.0206C90.3783 19.0206 88.1909 15.8194 88.1909 11.6312C88.1909 11.3111 88.2175 10.9643 88.2976 10.6442C88.6711 8.99022 89.7648 8.08321 91.4187 8.08321Z" fill="#0C3A25"/>
<path d="M106.296 19.5008H113.366C116.06 19.5008 118.328 18.8605 119.875 17.6601C121.742 16.1662 122.943 13.5519 122.943 10.8309C122.943 5.17547 118.061 0.347027 112.352 0.347027L106.323 0.320351C105.896 0.320351 105.656 0.453734 105.656 0.747177C105.656 1.09397 105.79 1.20067 106.296 1.22735C107.043 1.30738 107.23 1.70753 107.23 3.20142V16.6197C107.23 17.5267 107.23 17.7134 107.123 18.0336C106.99 18.407 106.723 18.5671 106.27 18.5938C105.763 18.6471 105.63 18.7538 105.63 19.074C105.63 19.3674 105.816 19.5008 106.296 19.5008ZM111.658 1.30738C116.3 1.30738 120.088 5.60229 120.088 10.9109C120.088 15.7127 117.367 18.4337 112.539 18.4337C111.392 18.4337 110.618 18.3003 110.218 18.0336C109.818 17.7935 109.818 17.7134 109.818 16.433V2.72124C109.818 1.60083 110.165 1.30738 111.658 1.30738Z" fill="#0C3A25"/>
<path d="M127.109 14.5389L135.218 12.0847C135.378 12.0313 135.458 11.9246 135.458 11.7646C135.458 11.6312 135.405 11.3644 135.272 11.0443C135.005 10.4841 134.685 9.95058 134.311 9.4704C133.164 7.97651 131.617 7.14954 129.856 7.14954C126.575 7.14954 124.148 9.84387 124.148 13.3652C124.148 17.1532 126.842 19.9009 130.55 19.9009C132.551 19.9009 134.525 19.0206 135.565 17.6067C135.645 17.4734 135.699 17.3133 135.699 17.2333C135.699 16.9932 135.565 16.8598 135.352 16.8598C135.245 16.8598 135.085 16.9132 134.952 17.0999C133.991 18.167 132.737 18.7805 131.457 18.7805C129.616 18.7805 127.909 17.5801 127.055 15.6327C126.869 15.2592 126.789 14.9391 126.789 14.779C126.789 14.6456 126.869 14.5923 127.109 14.5389ZM126.655 13.6853C126.468 13.6853 126.362 13.0984 126.362 12.2714C126.362 9.73716 127.536 8.13657 129.376 8.13657C130.257 8.13657 131.11 8.48337 131.75 9.09693C132.177 9.49707 132.497 9.97725 132.737 10.5641C132.898 11.0176 133.031 11.4445 133.031 11.6045C133.031 11.7379 132.924 11.8179 132.711 11.898L126.895 13.6053C126.789 13.6586 126.709 13.6853 126.655 13.6853Z" fill="#0C3A25"/>
<path d="M146.435 11.7379L147.528 9.41704C147.635 9.17695 147.662 9.07025 147.662 9.04357C147.662 8.88351 147.315 8.56339 146.861 8.32331C145.421 7.46966 144.594 7.25625 143.287 7.25625C139.659 7.25625 136.884 10.0573 136.884 13.872C136.884 17.3933 139.499 19.9543 143.073 19.9543C145.047 19.9543 146.435 19.2607 147.422 17.8202C147.528 17.6868 147.608 17.42 147.608 17.3133C147.608 17.1266 147.502 16.9932 147.315 16.9932C147.182 16.9932 147.075 17.0999 146.861 17.3933C146.328 18.2737 144.967 18.9139 143.687 18.9139C141.073 18.9139 139.312 16.8064 139.312 13.6853C139.312 10.4041 141.019 8.05654 143.287 8.05654C144.781 8.05654 145.928 9.1236 145.928 10.5108C145.928 10.8042 145.874 11.071 145.821 11.3111C145.768 11.5245 145.741 11.6846 145.741 11.7913C145.741 11.978 145.848 12.1114 146.034 12.1114C146.195 12.1114 146.275 12.0313 146.435 11.7379Z" fill="#0C3A25"/>
<path d="M152.817 7.73642C152.791 7.44298 152.684 7.3096 152.471 7.3096C152.417 7.3096 152.364 7.33627 152.311 7.36295L149.509 9.1236C149.349 9.20363 149.243 9.33702 149.243 9.4704C149.243 9.63046 149.403 9.79051 149.59 9.84386C149.696 9.87054 149.696 9.87054 149.83 9.89722C150.39 10.0039 150.55 10.3507 150.55 11.3378V16.7264V17.1532C150.55 17.7401 150.523 18.0069 150.416 18.1669C150.256 18.4337 149.883 18.6471 149.429 18.7005C149.029 18.7538 148.869 18.8605 148.869 19.1273C148.869 19.3941 149.056 19.5008 149.483 19.5008H154.071C154.471 19.5008 154.658 19.3941 154.658 19.1273C154.658 18.8605 154.498 18.7538 154.098 18.7005C153.111 18.5404 152.817 18.1936 152.817 17.1532V7.73642Z" fill="#0C3A25"/>
<path d="M166.422 0.427059C166.395 0.160294 166.288 0.000232697 166.075 0.000232697C166.022 0.000232697 165.968 0.0269069 165.915 0.0535831L163.114 1.81423C162.981 1.92094 162.847 2.05433 162.847 2.18771C162.847 2.37444 163.007 2.50783 163.194 2.5345L163.434 2.58786C163.834 2.69456 164.101 3.01467 164.154 3.44149V4.21511V8.59007C164.154 8.72345 164.154 8.77681 164.128 8.77681C164.101 8.77681 164.074 8.77681 164.021 8.72345C162.981 7.60304 162.047 7.17621 160.633 7.17621C157.539 7.17621 154.924 10.244 154.924 13.8453C154.924 17.2866 157.192 19.9009 160.206 19.9009C161.433 19.9009 162.767 19.3407 163.621 18.4604C163.914 18.1403 164.048 18.0602 164.101 18.0602C164.234 18.0602 164.288 18.167 164.288 18.3804C164.288 18.5137 164.261 18.7005 164.208 18.8872C164.154 19.0739 164.128 19.2874 164.128 19.5008C164.128 19.7942 164.181 19.8476 164.394 19.8476H164.501L167.862 18.8605C168.049 18.8339 168.156 18.6738 168.156 18.4871C168.156 18.3537 168.049 18.2203 167.862 18.2203L167.275 18.1669C166.662 18.1403 166.422 17.7668 166.422 16.7531V0.427059ZM163.914 16.8865C163.514 17.8468 162.287 18.5938 161.06 18.5938C158.792 18.5938 157.218 16.2996 157.218 12.885C157.218 9.97725 158.686 8.02987 160.873 8.02987C162.847 8.02987 164.128 9.55043 164.154 11.978L164.181 14.9924C164.181 15.7927 164.101 16.433 163.914 16.8865Z" fill="#0C3A25"/>
<path d="M171.41 14.5389L179.52 12.0847C179.68 12.0313 179.76 11.9246 179.76 11.7646C179.76 11.6312 179.707 11.3644 179.573 11.0443C179.306 10.4841 178.986 9.95058 178.613 9.4704C177.466 7.97651 175.918 7.14954 174.158 7.14954C170.877 7.14954 168.449 9.84387 168.449 13.3652C168.449 17.1532 171.143 19.9009 174.851 19.9009C176.852 19.9009 178.826 19.0206 179.867 17.6067C179.947 17.4734 180 17.3133 180 17.2333C180 16.9932 179.867 16.8598 179.653 16.8598C179.546 16.8598 179.386 16.9132 179.253 17.0999C178.293 18.167 177.039 18.7805 175.758 18.7805C173.918 18.7805 172.21 17.5801 171.357 15.6327C171.17 15.2592 171.09 14.9391 171.09 14.779C171.09 14.6456 171.17 14.5923 171.41 14.5389ZM170.957 13.6853C170.77 13.6853 170.663 13.0984 170.663 12.2714C170.663 9.73716 171.837 8.13657 173.678 8.13657C174.558 8.13657 175.412 8.48337 176.052 9.09693C176.479 9.49707 176.799 9.97725 177.039 10.5641C177.199 11.0176 177.332 11.4445 177.332 11.6045C177.332 11.7379 177.226 11.8179 177.012 11.898L171.197 13.6053C171.09 13.6586 171.01 13.6853 170.957 13.6853Z" fill="#0C3A25"/>
</svg>
