<svg width="130" height="130" viewBox="0 0 130 130" fill="none" xmlns="http://www.w3.org/2000/svg">
<path d="M64.4998 76L62.7043 74.8125C54.1693 69.158 43.3698 62.7673 35.3715 53.3742C26.9423 43.4783 22.8982 33.3153 23.0019 22.3012C23.1276 10.0027 33.0692 0 45.1634 0C54.7618 0 61.1441 5.54167 64.4998 9.54156C67.8556 5.54167 74.2379 0 83.8363 0C95.9305 0 105.872 10.0027 105.998 22.2953C106.109 33.3153 102.065 43.4724 93.6282 53.3682C85.6299 62.7673 74.8304 69.158 66.2954 74.8125L64.4998 76Z" fill="#0C3A25"/>
<path d="M12.2568 98H10.5288V87.28H12.9768L15.4408 93.168L16.3688 95.728H16.4968L17.4248 93.168L19.8248 87.28H22.2728V98H20.5608V91.664L20.6248 89.872H20.5128L19.8408 91.664L17.4408 97.36H15.3608L12.9448 91.664L12.3048 89.872H12.1608L12.2568 91.664V98ZM30.9981 98H29.3981V96.432L29.3501 96V92.944C29.3501 92.3467 29.2061 91.9413 28.9181 91.728C28.6407 91.5147 28.1874 91.408 27.5581 91.408C26.9287 91.408 26.4754 91.52 26.1981 91.744C25.9314 91.968 25.7981 92.3413 25.7981 92.864V93.104H24.1341V92.944C24.1341 92.3467 24.2781 91.8187 24.5661 91.36C24.8647 90.9013 25.2754 90.544 25.7981 90.288C26.3314 90.0213 26.9501 89.888 27.6541 89.888C28.4007 89.888 29.0194 90.0267 29.5101 90.304C30.0007 90.5813 30.3687 90.9653 30.6141 91.456C30.8701 91.936 30.9981 92.5067 30.9981 93.168V98ZM26.4381 98.16C25.7234 98.16 25.1207 97.9787 24.6301 97.616C24.1501 97.2427 23.9101 96.7147 23.9101 96.032C23.9101 95.584 24.0114 95.2107 24.2141 94.912C24.4274 94.6133 24.7314 94.368 25.1261 94.176C25.5207 93.984 26.0007 93.8507 26.5661 93.776L29.5101 93.36V94.576L26.8221 94.976C26.3634 95.04 26.0434 95.136 25.8621 95.264C25.6807 95.392 25.5901 95.6053 25.5901 95.904C25.5901 96.2133 25.6967 96.4373 25.9101 96.576C26.1341 96.7147 26.4967 96.784 26.9981 96.784C27.3821 96.784 27.7501 96.7253 28.1021 96.608C28.4647 96.48 28.7634 96.272 28.9981 95.984C29.2327 95.6853 29.3501 95.2693 29.3501 94.736L29.5741 96.768L29.3181 96.752C29.1687 96.9973 28.9607 97.2267 28.6941 97.44C28.4381 97.6533 28.1234 97.8293 27.7501 97.968C27.3767 98.096 26.9394 98.16 26.4381 98.16ZM28.5501 89.04H26.7421V88.96L28.4701 86.96H30.7581V87.04L28.5501 89.04ZM36.1998 98.16C35.0371 98.16 34.1571 97.9307 33.5598 97.472C32.9625 97.0027 32.6638 96.2827 32.6638 95.312V95.28H34.3278V95.568C34.3278 95.8453 34.3811 96.0747 34.4878 96.256C34.6051 96.4267 34.7971 96.5547 35.0638 96.64C35.3411 96.7147 35.7305 96.752 36.2318 96.752C36.6585 96.752 36.9785 96.72 37.1918 96.656C37.4158 96.5813 37.5651 96.48 37.6398 96.352C37.7145 96.224 37.7518 96.064 37.7518 95.872C37.7518 95.552 37.6398 95.328 37.4158 95.2C37.1918 95.0613 36.7918 94.9387 36.2158 94.832L34.9678 94.624C34.4985 94.528 34.0878 94.3947 33.7358 94.224C33.3945 94.0427 33.1278 93.7973 32.9358 93.488C32.7545 93.168 32.6638 92.768 32.6638 92.288C32.6638 91.5733 32.9465 90.9973 33.5118 90.56C34.0771 90.112 34.8771 89.888 35.9118 89.888C36.5411 89.888 37.1011 89.9893 37.5918 90.192C38.0825 90.3947 38.4718 90.6987 38.7598 91.104C39.0478 91.5093 39.1918 92.016 39.1918 92.624V92.768H37.5438V92.576C37.5438 92.32 37.5011 92.1013 37.4158 91.92C37.3305 91.728 37.1705 91.5787 36.9358 91.472C36.7011 91.3653 36.3438 91.312 35.8638 91.312C35.2345 91.312 34.8185 91.392 34.6158 91.552C34.4131 91.712 34.3118 91.9467 34.3118 92.256C34.3118 92.5653 34.4025 92.784 34.5838 92.912C34.7758 93.0293 35.1491 93.1467 35.7038 93.264L37.0638 93.52C37.5758 93.616 38.0025 93.76 38.3438 93.952C38.6851 94.144 38.9411 94.3947 39.1118 94.704C39.2931 95.0133 39.3838 95.3813 39.3838 95.808C39.3838 96.5547 39.1011 97.136 38.5358 97.552C37.9811 97.9573 37.2025 98.16 36.1998 98.16ZM48.6773 98.16C47.6533 98.16 46.816 98.016 46.1653 97.728C45.5146 97.4293 45.0293 97.0187 44.7093 96.496C44.4 95.9627 44.2453 95.3547 44.2453 94.672V94.4H45.9413V94.576C45.9413 95.0133 46.016 95.3813 46.1653 95.68C46.3253 95.9787 46.608 96.2027 47.0133 96.352C47.4186 96.5013 48 96.576 48.7573 96.576C49.5466 96.576 50.1013 96.464 50.4213 96.24C50.7413 96.0053 50.9013 95.6427 50.9013 95.152C50.9013 94.8213 50.8533 94.5547 50.7573 94.352C50.6613 94.1493 50.4693 93.984 50.1813 93.856C49.904 93.7173 49.488 93.5947 48.9333 93.488L47.1093 93.12C46.4906 93.0027 45.9733 92.8213 45.5573 92.576C45.1413 92.32 44.8213 91.9947 44.5973 91.6C44.384 91.2053 44.2773 90.7307 44.2773 90.176C44.2773 89.6427 44.416 89.1467 44.6933 88.688C44.9813 88.2187 45.4186 87.84 46.0053 87.552C46.6026 87.264 47.36 87.12 48.2773 87.12C49.2586 87.12 50.0533 87.2853 50.6613 87.616C51.28 87.9467 51.728 88.384 52.0053 88.928C52.2933 89.4613 52.4373 90.048 52.4373 90.688V90.88H50.7253V90.704C50.7253 90.256 50.6506 89.888 50.5013 89.6C50.3626 89.3013 50.1066 89.0773 49.7333 88.928C49.3706 88.768 48.8746 88.688 48.2453 88.688C47.456 88.688 46.8853 88.8053 46.5333 89.04C46.1813 89.2747 46.0053 89.6267 46.0053 90.096C46.0053 90.416 46.0586 90.672 46.1653 90.864C46.2826 91.056 46.48 91.2107 46.7573 91.328C47.0453 91.4347 47.4293 91.5467 47.9093 91.664L49.7333 92.048C50.416 92.176 50.9653 92.3787 51.3813 92.656C51.808 92.9333 52.1226 93.2747 52.3253 93.68C52.528 94.0747 52.6293 94.544 52.6293 95.088C52.6293 95.6427 52.4906 96.1547 52.2133 96.624C51.936 97.0933 51.504 97.4667 50.9173 97.744C50.3413 98.0213 49.5946 98.16 48.6773 98.16ZM60.8887 98H59.2887V96.432L59.2407 96V92.944C59.2407 92.3467 59.0967 91.9413 58.8087 91.728C58.5314 91.5147 58.078 91.408 57.4487 91.408C56.8194 91.408 56.366 91.52 56.0887 91.744C55.822 91.968 55.6887 92.3413 55.6887 92.864V93.104H54.0247V92.944C54.0247 92.3467 54.1687 91.8187 54.4567 91.36C54.7554 90.9013 55.166 90.544 55.6887 90.288C56.222 90.0213 56.8407 89.888 57.5447 89.888C58.2914 89.888 58.91 90.0267 59.4007 90.304C59.8914 90.5813 60.2594 90.9653 60.5047 91.456C60.7607 91.936 60.8887 92.5067 60.8887 93.168V98ZM56.3287 98.16C55.614 98.16 55.0114 97.9787 54.5207 97.616C54.0407 97.2427 53.8007 96.7147 53.8007 96.032C53.8007 95.584 53.902 95.2107 54.1047 94.912C54.318 94.6133 54.622 94.368 55.0167 94.176C55.4114 93.984 55.8914 93.8507 56.4567 93.776L59.4007 93.36V94.576L56.7127 94.976C56.254 95.04 55.934 95.136 55.7527 95.264C55.5714 95.392 55.4807 95.6053 55.4807 95.904C55.4807 96.2133 55.5874 96.4373 55.8007 96.576C56.0247 96.7147 56.3874 96.784 56.8887 96.784C57.2727 96.784 57.6407 96.7253 57.9927 96.608C58.3554 96.48 58.654 96.272 58.8887 95.984C59.1234 95.6853 59.2407 95.2693 59.2407 94.736L59.4647 96.768L59.2087 96.752C59.0594 96.9973 58.8514 97.2267 58.5847 97.44C58.3287 97.6533 58.014 97.8293 57.6407 97.968C57.2674 98.096 56.83 98.16 56.3287 98.16ZM66.0276 98C65.1529 98 64.4809 97.8133 64.0116 97.44C63.5529 97.0667 63.3236 96.4373 63.3236 95.552V90.224L63.7236 88.08H65.0516V95.472C65.0516 95.888 65.1529 96.1547 65.3556 96.272C65.5689 96.3787 65.9476 96.432 66.4916 96.432H67.4516V97.856C67.2916 97.8987 67.0836 97.936 66.8276 97.968C66.5716 97.9893 66.3049 98 66.0276 98ZM67.4516 91.488H61.9956V90.048H67.4516V91.488ZM70.4406 89.04H68.7286L68.7126 87.28H70.4406V89.04ZM70.4566 98H68.7286V90H70.4566V98ZM75.5904 98.16C74.4278 98.16 73.5478 97.9307 72.9504 97.472C72.3531 97.0027 72.0544 96.2827 72.0544 95.312V95.28H73.7184V95.568C73.7184 95.8453 73.7718 96.0747 73.8784 96.256C73.9958 96.4267 74.1878 96.5547 74.4544 96.64C74.7318 96.7147 75.1211 96.752 75.6224 96.752C76.0491 96.752 76.3691 96.72 76.5824 96.656C76.8064 96.5813 76.9558 96.48 77.0304 96.352C77.1051 96.224 77.1424 96.064 77.1424 95.872C77.1424 95.552 77.0304 95.328 76.8064 95.2C76.5824 95.0613 76.1824 94.9387 75.6064 94.832L74.3584 94.624C73.8891 94.528 73.4784 94.3947 73.1264 94.224C72.7851 94.0427 72.5184 93.7973 72.3264 93.488C72.1451 93.168 72.0544 92.768 72.0544 92.288C72.0544 91.5733 72.3371 90.9973 72.9024 90.56C73.4678 90.112 74.2678 89.888 75.3024 89.888C75.9318 89.888 76.4918 89.9893 76.9824 90.192C77.4731 90.3947 77.8624 90.6987 78.1504 91.104C78.4384 91.5093 78.5824 92.016 78.5824 92.624V92.768H76.9344V92.576C76.9344 92.32 76.8918 92.1013 76.8064 91.92C76.7211 91.728 76.5611 91.5787 76.3264 91.472C76.0918 91.3653 75.7344 91.312 75.2544 91.312C74.6251 91.312 74.2091 91.392 74.0064 91.552C73.8038 91.712 73.7024 91.9467 73.7024 92.256C73.7024 92.5653 73.7931 92.784 73.9744 92.912C74.1664 93.0293 74.5398 93.1467 75.0944 93.264L76.4544 93.52C76.9664 93.616 77.3931 93.76 77.7344 93.952C78.0758 94.144 78.3318 94.3947 78.5024 94.704C78.6838 95.0133 78.7744 95.3813 78.7744 95.808C78.7744 96.5547 78.4918 97.136 77.9264 97.552C77.3718 97.9573 76.5931 98.16 75.5904 98.16ZM82.4686 98H80.7406V90.112C80.7406 89.4933 80.8579 88.976 81.0926 88.56C81.3272 88.144 81.6739 87.8293 82.1326 87.616C82.6019 87.392 83.1779 87.28 83.8606 87.28C83.9672 87.28 84.0739 87.28 84.1806 87.28C84.2872 87.28 84.3939 87.28 84.5006 87.28V88.656H83.5406C83.1566 88.656 82.8739 88.7307 82.6926 88.88C82.5112 89.0293 82.4206 89.2747 82.4206 89.616V90.32L82.4686 90.736V98ZM84.5006 91.488H79.5726V90.048H84.5006V91.488ZM88.8918 98.16C88.0278 98.16 87.3078 97.9893 86.7318 97.648C86.1558 97.296 85.7291 96.8107 85.4518 96.192C85.1745 95.5627 85.0358 94.8373 85.0358 94.016C85.0358 93.1947 85.1905 92.4747 85.4998 91.856C85.8198 91.2373 86.2678 90.7573 86.8438 90.416C87.4198 90.064 88.1025 89.888 88.8918 89.888C89.6065 89.888 90.2358 90.0267 90.7798 90.304C91.3345 90.5707 91.7611 90.96 92.0598 91.472C92.3691 91.984 92.5238 92.6027 92.5238 93.328C92.5238 93.5413 92.5131 93.7493 92.4918 93.952C92.4811 94.144 92.4651 94.304 92.4438 94.432H85.8518V93.28H91.0358L90.8598 93.44C90.9025 92.9493 90.8491 92.5493 90.6998 92.24C90.5611 91.9307 90.3318 91.7013 90.0118 91.552C89.7025 91.4027 89.3131 91.328 88.8438 91.328C88.0011 91.328 87.4251 91.5413 87.1158 91.968C86.8065 92.384 86.6518 92.96 86.6518 93.696V94.176C86.6518 94.7093 86.7158 95.1627 86.8438 95.536C86.9825 95.8987 87.2171 96.1707 87.5478 96.352C87.8785 96.5333 88.3318 96.624 88.9078 96.624C89.5798 96.624 90.0545 96.5173 90.3318 96.304C90.6091 96.0907 90.7478 95.808 90.7478 95.456V95.328H92.4598V95.472C92.4598 96.016 92.3105 96.4907 92.0118 96.896C91.7131 97.2907 91.2971 97.6 90.7638 97.824C90.2411 98.048 89.6171 98.16 88.8918 98.16ZM97.7988 98.176C96.9668 98.176 96.2628 98 95.6868 97.648C95.1108 97.296 94.6681 96.8107 94.3588 96.192C94.0601 95.5733 93.9108 94.8533 93.9108 94.032C93.9108 93.2107 94.0655 92.4907 94.3748 91.872C94.6948 91.2427 95.1481 90.7573 95.7348 90.416C96.3215 90.064 97.0308 89.888 97.8628 89.888C98.5668 89.888 99.1855 90.0213 99.7188 90.288C100.252 90.5547 100.663 90.928 100.951 91.408C101.249 91.888 101.399 92.448 101.399 93.088V93.232H99.6868V93.136C99.6868 92.5493 99.5268 92.1227 99.2068 91.856C98.8975 91.5787 98.4121 91.44 97.7508 91.44C96.9828 91.44 96.4335 91.6587 96.1028 92.096C95.7828 92.5227 95.6228 93.1627 95.6228 94.016C95.6228 94.88 95.7828 95.5307 96.1028 95.968C96.4335 96.3947 96.9828 96.608 97.7508 96.608C98.4121 96.608 98.8975 96.4747 99.2068 96.208C99.5268 95.9307 99.6868 95.504 99.6868 94.928V94.832H101.399V94.976C101.399 95.5947 101.249 96.1493 100.951 96.64C100.652 97.12 100.231 97.4987 99.6868 97.776C99.1535 98.0427 98.5241 98.176 97.7988 98.176ZM110.373 98H108.645V93.376C108.645 92.672 108.507 92.1653 108.229 91.856C107.963 91.536 107.467 91.376 106.741 91.376C106.048 91.376 105.531 91.5307 105.189 91.84C104.859 92.1387 104.693 92.6667 104.693 93.424H104.389L104.373 91.376H104.757C104.885 91.1307 105.061 90.896 105.285 90.672C105.52 90.4373 105.813 90.2507 106.165 90.112C106.528 89.9627 106.944 89.888 107.413 89.888C108.117 89.888 108.683 90.0267 109.109 90.304C109.547 90.5707 109.867 90.9387 110.069 91.408C110.272 91.8773 110.373 92.4053 110.373 92.992V98ZM104.693 98H102.965V87.28H104.693V98ZM115.941 98.16C115.131 98.16 114.427 97.9893 113.829 97.648C113.232 97.296 112.773 96.8107 112.453 96.192C112.133 95.5627 111.973 94.8373 111.973 94.016C111.973 93.1947 112.133 92.4747 112.453 91.856C112.773 91.2373 113.232 90.7573 113.829 90.416C114.427 90.064 115.131 89.888 115.941 89.888C116.752 89.888 117.445 90.064 118.021 90.416C118.608 90.7573 119.056 91.2373 119.365 91.856C119.685 92.4747 119.845 93.1947 119.845 94.016C119.845 94.8373 119.685 95.5627 119.365 96.192C119.056 96.8107 118.608 97.296 118.021 97.648C117.445 97.9893 116.752 98.16 115.941 98.16ZM115.941 96.624C116.773 96.624 117.355 96.416 117.685 96C118.016 95.5733 118.181 94.912 118.181 94.016C118.181 93.12 118.016 92.464 117.685 92.048C117.355 91.632 116.773 91.424 115.941 91.424C115.099 91.424 114.512 91.632 114.181 92.048C113.851 92.464 113.685 93.12 113.685 94.016C113.685 94.912 113.851 95.5733 114.181 96C114.512 96.416 115.099 96.624 115.941 96.624Z" fill="black"/>
</svg>
