<svg width="130" height="130" viewBox="0 0 130 130" fill="none" xmlns="http://www.w3.org/2000/svg">
<path d="M2.999 98H1.271V87.28H3.719L6.183 93.168L7.111 95.728H7.239L8.167 93.168L10.567 87.28H13.015V98H11.303V91.664L11.367 89.872H11.255L10.583 91.664L8.183 97.36H6.103L3.687 91.664L3.047 89.872H2.903L2.999 91.664V98ZM18.3996 98.16C17.5356 98.16 16.8156 97.9893 16.2396 97.648C15.6636 97.296 15.237 96.8107 14.9596 96.192C14.6823 95.5627 14.5436 94.8373 14.5436 94.016C14.5436 93.1947 14.6983 92.4747 15.0076 91.856C15.3276 91.2373 15.7756 90.7573 16.3516 90.416C16.9276 90.064 17.6103 89.888 18.3996 89.888C19.1143 89.888 19.7436 90.0267 20.2876 90.304C20.8423 90.5707 21.269 90.96 21.5676 91.472C21.877 91.984 22.0316 92.6027 22.0316 93.328C22.0316 93.5413 22.021 93.7493 21.9996 93.952C21.989 94.144 21.973 94.304 21.9516 94.432H15.3596V93.28H20.5436L20.3676 93.44C20.4103 92.9493 20.357 92.5493 20.2076 92.24C20.069 91.9307 19.8396 91.7013 19.5196 91.552C19.2103 91.4027 18.821 91.328 18.3516 91.328C17.509 91.328 16.933 91.5413 16.6236 91.968C16.3143 92.384 16.1596 92.96 16.1596 93.696V94.176C16.1596 94.7093 16.2236 95.1627 16.3516 95.536C16.4903 95.8987 16.725 96.1707 17.0556 96.352C17.3863 96.5333 17.8396 96.624 18.4156 96.624C19.0876 96.624 19.5623 96.5173 19.8396 96.304C20.117 96.0907 20.2556 95.808 20.2556 95.456V95.328H21.9676V95.472C21.9676 96.016 21.8183 96.4907 21.5196 96.896C21.221 97.2907 20.805 97.6 20.2716 97.824C19.749 98.048 19.125 98.16 18.3996 98.16ZM31.0685 98H29.3405V93.376C29.3405 92.672 29.2072 92.1653 28.9405 91.856C28.6738 91.536 28.1725 91.376 27.4365 91.376C26.9672 91.376 26.5832 91.4453 26.2845 91.584C25.9858 91.712 25.7618 91.9253 25.6125 92.224C25.4632 92.512 25.3885 92.9067 25.3885 93.408H25.0845L24.9405 91.536H25.3245C25.4418 91.248 25.6178 90.9813 25.8525 90.736C26.0872 90.4907 26.3858 90.288 26.7485 90.128C27.1218 89.968 27.5645 89.888 28.0765 89.888C28.7698 89.888 29.3352 90.0213 29.7725 90.288C30.2098 90.5547 30.5352 90.9227 30.7485 91.392C30.9618 91.8613 31.0685 92.4 31.0685 93.008V98ZM25.3885 98H23.6605V90.048H25.2445V92.432L25.3885 92.512V98ZM36.5898 98.16C35.7791 98.16 35.0751 97.9893 34.4778 97.648C33.8804 97.296 33.4218 96.8107 33.1018 96.192C32.7818 95.5627 32.6217 94.8373 32.6217 94.016C32.6217 93.1947 32.7818 92.4747 33.1018 91.856C33.4218 91.2373 33.8804 90.7573 34.4778 90.416C35.0751 90.064 35.7791 89.888 36.5898 89.888C37.4004 89.888 38.0938 90.064 38.6698 90.416C39.2564 90.7573 39.7044 91.2373 40.0138 91.856C40.3338 92.4747 40.4938 93.1947 40.4938 94.016C40.4938 94.8373 40.3338 95.5627 40.0138 96.192C39.7044 96.8107 39.2564 97.296 38.6698 97.648C38.0938 97.9893 37.4004 98.16 36.5898 98.16ZM36.5898 96.624C37.4218 96.624 38.0031 96.416 38.3338 96C38.6644 95.5733 38.8298 94.912 38.8298 94.016C38.8298 93.12 38.6644 92.464 38.3338 92.048C38.0031 91.632 37.4218 91.424 36.5898 91.424C35.7471 91.424 35.1604 91.632 34.8298 92.048C34.4991 92.464 34.3338 93.12 34.3338 94.016C34.3338 94.912 34.4991 95.5733 34.8298 96C35.1604 96.416 35.7471 96.624 36.5898 96.624ZM45.4576 98.16C44.295 98.16 43.415 97.9307 42.8176 97.472C42.2203 97.0027 41.9216 96.2827 41.9216 95.312V95.28H43.5856V95.568C43.5856 95.8453 43.639 96.0747 43.7456 96.256C43.863 96.4267 44.055 96.5547 44.3216 96.64C44.599 96.7147 44.9883 96.752 45.4896 96.752C45.9163 96.752 46.2363 96.72 46.4496 96.656C46.6736 96.5813 46.823 96.48 46.8976 96.352C46.9723 96.224 47.0096 96.064 47.0096 95.872C47.0096 95.552 46.8976 95.328 46.6736 95.2C46.4496 95.0613 46.0496 94.9387 45.4736 94.832L44.2256 94.624C43.7563 94.528 43.3456 94.3947 42.9936 94.224C42.6523 94.0427 42.3856 93.7973 42.1936 93.488C42.0123 93.168 41.9216 92.768 41.9216 92.288C41.9216 91.5733 42.2043 90.9973 42.7696 90.56C43.335 90.112 44.135 89.888 45.1696 89.888C45.799 89.888 46.359 89.9893 46.8496 90.192C47.3403 90.3947 47.7296 90.6987 48.0176 91.104C48.3056 91.5093 48.4496 92.016 48.4496 92.624V92.768H46.8016V92.576C46.8016 92.32 46.759 92.1013 46.6736 91.92C46.5883 91.728 46.4283 91.5787 46.1936 91.472C45.959 91.3653 45.6016 91.312 45.1216 91.312C44.4923 91.312 44.0763 91.392 43.8736 91.552C43.671 91.712 43.5696 91.9467 43.5696 92.256C43.5696 92.5653 43.6603 92.784 43.8416 92.912C44.0336 93.0293 44.407 93.1467 44.9616 93.264L46.3216 93.52C46.8336 93.616 47.2603 93.76 47.6016 93.952C47.943 94.144 48.199 94.3947 48.3696 94.704C48.551 95.0133 48.6416 95.3813 48.6416 95.808C48.6416 96.5547 48.359 97.136 47.7936 97.552C47.239 97.9573 46.4603 98.16 45.4576 98.16ZM57.9351 98.16C56.9111 98.16 56.0738 98.016 55.4231 97.728C54.7725 97.4293 54.2871 97.0187 53.9671 96.496C53.6578 95.9627 53.5031 95.3547 53.5031 94.672V94.4H55.1991V94.576C55.1991 95.0133 55.2738 95.3813 55.4231 95.68C55.5831 95.9787 55.8658 96.2027 56.2711 96.352C56.6765 96.5013 57.2578 96.576 58.0151 96.576C58.8045 96.576 59.3591 96.464 59.6791 96.24C59.9991 96.0053 60.1591 95.6427 60.1591 95.152C60.1591 94.8213 60.1111 94.5547 60.0151 94.352C59.9191 94.1493 59.7271 93.984 59.4391 93.856C59.1618 93.7173 58.7458 93.5947 58.1911 93.488L56.3671 93.12C55.7485 93.0027 55.2311 92.8213 54.8151 92.576C54.3991 92.32 54.0791 91.9947 53.8551 91.6C53.6418 91.2053 53.5351 90.7307 53.5351 90.176C53.5351 89.6427 53.6738 89.1467 53.9511 88.688C54.2391 88.2187 54.6765 87.84 55.2631 87.552C55.8605 87.264 56.6178 87.12 57.5351 87.12C58.5165 87.12 59.3111 87.2853 59.9191 87.616C60.5378 87.9467 60.9858 88.384 61.2631 88.928C61.5511 89.4613 61.6951 90.048 61.6951 90.688V90.88H59.9831V90.704C59.9831 90.256 59.9085 89.888 59.7591 89.6C59.6205 89.3013 59.3645 89.0773 58.9911 88.928C58.6285 88.768 58.1325 88.688 57.5031 88.688C56.7138 88.688 56.1431 88.8053 55.7911 89.04C55.4391 89.2747 55.2631 89.6267 55.2631 90.096C55.2631 90.416 55.3165 90.672 55.4231 90.864C55.5405 91.056 55.7378 91.2107 56.0151 91.328C56.3031 91.4347 56.6871 91.5467 57.1671 91.664L58.9911 92.048C59.6738 92.176 60.2231 92.3787 60.6391 92.656C61.0658 92.9333 61.3805 93.2747 61.5831 93.68C61.7858 94.0747 61.8871 94.544 61.8871 95.088C61.8871 95.6427 61.7485 96.1547 61.4711 96.624C61.1938 97.0933 60.7618 97.4667 60.1751 97.744C59.5991 98.0213 58.8525 98.16 57.9351 98.16ZM70.1465 98H68.5465V96.432L68.4985 96V92.944C68.4985 92.3467 68.3545 91.9413 68.0665 91.728C67.7892 91.5147 67.3358 91.408 66.7065 91.408C66.0772 91.408 65.6238 91.52 65.3465 91.744C65.0798 91.968 64.9465 92.3413 64.9465 92.864V93.104H63.2825V92.944C63.2825 92.3467 63.4265 91.8187 63.7145 91.36C64.0132 90.9013 64.4238 90.544 64.9465 90.288C65.4798 90.0213 66.0985 89.888 66.8025 89.888C67.5492 89.888 68.1678 90.0267 68.6585 90.304C69.1492 90.5813 69.5172 90.9653 69.7625 91.456C70.0185 91.936 70.1465 92.5067 70.1465 93.168V98ZM65.5865 98.16C64.8718 98.16 64.2692 97.9787 63.7785 97.616C63.2985 97.2427 63.0585 96.7147 63.0585 96.032C63.0585 95.584 63.1598 95.2107 63.3625 94.912C63.5758 94.6133 63.8798 94.368 64.2745 94.176C64.6692 93.984 65.1492 93.8507 65.7145 93.776L68.6585 93.36V94.576L65.9705 94.976C65.5118 95.04 65.1918 95.136 65.0105 95.264C64.8292 95.392 64.7385 95.6053 64.7385 95.904C64.7385 96.2133 64.8452 96.4373 65.0585 96.576C65.2825 96.7147 65.6452 96.784 66.1465 96.784C66.5305 96.784 66.8985 96.7253 67.2505 96.608C67.6132 96.48 67.9118 96.272 68.1465 95.984C68.3812 95.6853 68.4985 95.2693 68.4985 94.736L68.7225 96.768L68.4665 96.752C68.3172 96.9973 68.1092 97.2267 67.8425 97.44C67.5865 97.6533 67.2718 97.8293 66.8985 97.968C66.5252 98.096 66.0878 98.16 65.5865 98.16ZM75.2854 98C74.4107 98 73.7387 97.8133 73.2694 97.44C72.8107 97.0667 72.5814 96.4373 72.5814 95.552V90.224L72.9814 88.08H74.3094V95.472C74.3094 95.888 74.4107 96.1547 74.6134 96.272C74.8267 96.3787 75.2054 96.432 75.7494 96.432H76.7094V97.856C76.5494 97.8987 76.3414 97.936 76.0854 97.968C75.8294 97.9893 75.5627 98 75.2854 98ZM76.7094 91.488H71.2534V90.048H76.7094V91.488ZM79.6984 89.04H77.9864L77.9704 87.28H79.6984V89.04ZM79.7144 98H77.9864V90H79.7144V98ZM84.8483 98.16C83.6856 98.16 82.8056 97.9307 82.2083 97.472C81.6109 97.0027 81.3123 96.2827 81.3123 95.312V95.28H82.9763V95.568C82.9763 95.8453 83.0296 96.0747 83.1363 96.256C83.2536 96.4267 83.4456 96.5547 83.7123 96.64C83.9896 96.7147 84.3789 96.752 84.8802 96.752C85.3069 96.752 85.6269 96.72 85.8403 96.656C86.0643 96.5813 86.2136 96.48 86.2883 96.352C86.3629 96.224 86.4003 96.064 86.4003 95.872C86.4003 95.552 86.2883 95.328 86.0643 95.2C85.8403 95.0613 85.4403 94.9387 84.8643 94.832L83.6163 94.624C83.1469 94.528 82.7363 94.3947 82.3843 94.224C82.0429 94.0427 81.7763 93.7973 81.5843 93.488C81.4029 93.168 81.3123 92.768 81.3123 92.288C81.3123 91.5733 81.5949 90.9973 82.1603 90.56C82.7256 90.112 83.5256 89.888 84.5603 89.888C85.1896 89.888 85.7496 89.9893 86.2403 90.192C86.7309 90.3947 87.1203 90.6987 87.4083 91.104C87.6963 91.5093 87.8403 92.016 87.8403 92.624V92.768H86.1923V92.576C86.1923 92.32 86.1496 92.1013 86.0643 91.92C85.9789 91.728 85.8189 91.5787 85.5843 91.472C85.3496 91.3653 84.9923 91.312 84.5123 91.312C83.8829 91.312 83.4669 91.392 83.2643 91.552C83.0616 91.712 82.9603 91.9467 82.9603 92.256C82.9603 92.5653 83.0509 92.784 83.2323 92.912C83.4243 93.0293 83.7976 93.1467 84.3523 93.264L85.7123 93.52C86.2243 93.616 86.6509 93.76 86.9923 93.952C87.3336 94.144 87.5896 94.3947 87.7603 94.704C87.9416 95.0133 88.0323 95.3813 88.0323 95.808C88.0323 96.5547 87.7496 97.136 87.1843 97.552C86.6296 97.9573 85.8509 98.16 84.8483 98.16ZM91.7264 98H89.9984V90.112C89.9984 89.4933 90.1157 88.976 90.3504 88.56C90.585 88.144 90.9317 87.8293 91.3904 87.616C91.8597 87.392 92.4357 87.28 93.1184 87.28C93.225 87.28 93.3317 87.28 93.4384 87.28C93.545 87.28 93.6517 87.28 93.7584 87.28V88.656H92.7984C92.4144 88.656 92.1317 88.7307 91.9504 88.88C91.769 89.0293 91.6784 89.2747 91.6784 89.616V90.32L91.7264 90.736V98ZM93.7584 91.488H88.8304V90.048H93.7584V91.488ZM98.1496 98.16C97.2856 98.16 96.5656 97.9893 95.9896 97.648C95.4136 97.296 94.987 96.8107 94.7096 96.192C94.4323 95.5627 94.2936 94.8373 94.2936 94.016C94.2936 93.1947 94.4483 92.4747 94.7576 91.856C95.0776 91.2373 95.5256 90.7573 96.1016 90.416C96.6776 90.064 97.3603 89.888 98.1496 89.888C98.8643 89.888 99.4936 90.0267 100.038 90.304C100.592 90.5707 101.019 90.96 101.318 91.472C101.627 91.984 101.782 92.6027 101.782 93.328C101.782 93.5413 101.771 93.7493 101.75 93.952C101.739 94.144 101.723 94.304 101.702 94.432H95.1096V93.28H100.294L100.118 93.44C100.16 92.9493 100.107 92.5493 99.9576 92.24C99.819 91.9307 99.5896 91.7013 99.2696 91.552C98.9603 91.4027 98.571 91.328 98.1016 91.328C97.259 91.328 96.683 91.5413 96.3736 91.968C96.0643 92.384 95.9096 92.96 95.9096 93.696V94.176C95.9096 94.7093 95.9736 95.1627 96.1016 95.536C96.2403 95.8987 96.475 96.1707 96.8056 96.352C97.1363 96.5333 97.5896 96.624 98.1656 96.624C98.8376 96.624 99.3123 96.5173 99.5896 96.304C99.867 96.0907 100.006 95.808 100.006 95.456V95.328H101.718V95.472C101.718 96.016 101.568 96.4907 101.27 96.896C100.971 97.2907 100.555 97.6 100.022 97.824C99.499 98.048 98.875 98.16 98.1496 98.16ZM107.057 98.176C106.225 98.176 105.521 98 104.945 97.648C104.369 97.296 103.926 96.8107 103.617 96.192C103.318 95.5733 103.169 94.8533 103.169 94.032C103.169 93.2107 103.323 92.4907 103.633 91.872C103.953 91.2427 104.406 90.7573 104.993 90.416C105.579 90.064 106.289 89.888 107.121 89.888C107.825 89.888 108.443 90.0213 108.977 90.288C109.51 90.5547 109.921 90.928 110.209 91.408C110.507 91.888 110.657 92.448 110.657 93.088V93.232H108.945V93.136C108.945 92.5493 108.785 92.1227 108.465 91.856C108.155 91.5787 107.67 91.44 107.009 91.44C106.241 91.44 105.691 91.6587 105.361 92.096C105.041 92.5227 104.881 93.1627 104.881 94.016C104.881 94.88 105.041 95.5307 105.361 95.968C105.691 96.3947 106.241 96.608 107.009 96.608C107.67 96.608 108.155 96.4747 108.465 96.208C108.785 95.9307 108.945 95.504 108.945 94.928V94.832H110.657V94.976C110.657 95.5947 110.507 96.1493 110.209 96.64C109.91 97.12 109.489 97.4987 108.945 97.776C108.411 98.0427 107.782 98.176 107.057 98.176ZM119.631 98H117.903V93.376C117.903 92.672 117.764 92.1653 117.487 91.856C117.22 91.536 116.724 91.376 115.999 91.376C115.306 91.376 114.788 91.5307 114.447 91.84C114.116 92.1387 113.951 92.6667 113.951 93.424H113.647L113.631 91.376H114.015C114.143 91.1307 114.319 90.896 114.543 90.672C114.778 90.4373 115.071 90.2507 115.423 90.112C115.786 89.9627 116.202 89.888 116.671 89.888C117.375 89.888 117.94 90.0267 118.367 90.304C118.804 90.5707 119.124 90.9387 119.327 91.408C119.53 91.8773 119.631 92.4053 119.631 92.992V98ZM113.951 98H112.223V87.28H113.951V98ZM125.199 98.16C124.388 98.16 123.684 97.9893 123.087 97.648C122.49 97.296 122.031 96.8107 121.711 96.192C121.391 95.5627 121.231 94.8373 121.231 94.016C121.231 93.1947 121.391 92.4747 121.711 91.856C122.031 91.2373 122.49 90.7573 123.087 90.416C123.684 90.064 124.388 89.888 125.199 89.888C126.01 89.888 126.703 90.064 127.279 90.416C127.866 90.7573 128.314 91.2373 128.623 91.856C128.943 92.4747 129.103 93.1947 129.103 94.016C129.103 94.8373 128.943 95.5627 128.623 96.192C128.314 96.8107 127.866 97.296 127.279 97.648C126.703 97.9893 126.01 98.16 125.199 98.16ZM125.199 96.624C126.031 96.624 126.612 96.416 126.943 96C127.274 95.5733 127.439 94.912 127.439 94.016C127.439 93.12 127.274 92.464 126.943 92.048C126.612 91.632 126.031 91.424 125.199 91.424C124.356 91.424 123.77 91.632 123.439 92.048C123.108 92.464 122.943 93.12 122.943 94.016C122.943 94.912 123.108 95.5733 123.439 96C123.77 96.416 124.356 96.624 125.199 96.624Z" fill="black"/>
<path d="M83.3453 0C73.8283 0 67.5134 5.84591 64.165 10.0928C60.8245 5.83997 54.5016 0 44.9847 0C32.9881 0 23.1269 10.0018 23.0022 22.2932C22.8953 33.0213 26.689 42.928 34.601 52.5716C38.3155 57.0995 45.05 64.3386 60.6028 74.8965C61.6517 75.6153 62.8934 76 64.165 76C65.4365 76 66.6783 75.6153 67.7271 74.8965C83.2799 64.3386 90.0144 57.0995 93.729 52.5716C101.645 42.9261 105.435 33.0193 105.328 22.2932C105.203 10.0018 95.3418 0 83.3453 0ZM64.165 69.6601V28.4142C64.165 24.5295 65.2 20.7437 66.9771 17.2884C66.9816 17.2774 66.9869 17.2668 66.9929 17.2567C68.1456 15.1756 69.5971 13.2747 71.3012 11.6146C74.8891 8.11382 78.94 6.33274 83.3453 6.33274C91.8846 6.33274 98.904 13.5204 98.993 22.3625C99.1929 43.0646 81.5068 57.8871 64.165 69.6601Z" fill="#0C3A25"/>
</svg>
