<svg width="101" height="41" viewBox="0 0 101 41" fill="none" xmlns="http://www.w3.org/2000/svg">
<path d="M1.7073 13.9667V14.4883C1.7073 15.2708 1.68359 15.4605 1.54131 15.7214C1.39904 16.0771 1.09077 16.2193 0.545387 16.2431C0.165987 16.2905 0 16.409 0 16.6699C0 16.9307 0.1897 17.0493 0.5691 17.0493H5.07447C5.47759 17.0493 5.66729 16.9307 5.66729 16.6699C5.66729 16.409 5.5013 16.2905 5.1219 16.2431C4.57651 16.2193 4.26825 16.0771 4.10226 15.7214C3.9837 15.4368 3.95999 15.2471 3.95999 14.4883V12.1171C3.95999 11.7851 4.05484 11.6665 4.3631 11.6665C4.48166 11.6665 4.81364 11.6903 5.16932 11.7614C5.71471 11.8562 6.47351 11.9037 7.2086 11.9037C11.6903 11.9037 14.2986 9.95924 14.2986 6.56836C14.2986 2.67951 10.884 0 5.8807 0H0.592812C0.1897 0 0 0.118562 0 0.3794C0 0.640237 0.1897 0.782512 0.5691 0.806224C1.09077 0.829937 1.39904 0.972212 1.54131 1.30419C1.68359 1.61245 1.7073 1.80215 1.7073 2.56095V13.9667ZM5.64357 0.877362C9.43757 0.877362 11.8088 3.01149 11.8088 6.35495C11.8088 7.94368 11.216 9.24787 10.1015 10.0778C9.22416 10.7418 8.27566 11.0026 6.6395 11.0026C4.7425 11.0026 3.95999 10.5521 3.95999 9.53242V2.01556C3.95999 1.16191 4.3631 0.877362 5.64357 0.877362Z" fill="#0C3A25"/>
<path d="M21.2928 10.9315C20.1309 10.3149 19.6092 10.1489 18.5422 10.1489C16.0524 10.1489 14.2028 11.6665 14.2028 13.6347C14.2028 15.7451 16.0524 17.3575 18.4947 17.3575C19.7989 17.3575 20.9134 16.9781 21.9331 16.1482C21.9805 16.1245 22.0042 16.1008 22.0279 16.1008C22.0753 16.1008 22.1228 16.1482 22.2176 16.3616C22.5496 17.0019 23.1796 17.0493 24.057 17.0493C25.1003 17.0493 28.3033 17.1553 28.3033 16.4202C28.3033 16.2068 26.4298 16.1581 26.3112 16.1581C26.2452 16.1798 25.8303 16.3502 25.7209 16.3502L25.733 16.3661L25.65 16.3485C25.5773 16.3678 25.1817 16.3853 24.9208 16.3853C24.3754 16.3853 24.0672 15.8637 23.8775 14.6543L23.1187 9.24787C22.8104 7.18488 21.5062 6.0704 19.301 6.0704C17.7597 6.0704 16.2658 6.71063 15.3173 7.82512C15.2224 7.94368 15.1039 8.13338 15.1039 8.22823C15.1039 8.41793 15.2461 8.53649 15.4121 8.53649C15.5307 8.53649 15.673 8.44164 15.8627 8.25194C16.6215 7.44572 17.6885 6.97147 18.6607 6.97147C20.1072 6.97147 20.7949 7.61171 21.032 9.17673L21.2928 10.9315ZM21.7908 14.2986C21.8145 14.4646 21.8382 14.5832 21.8382 14.7255C21.8382 15.6977 20.6289 16.5039 19.1587 16.5039C17.5462 16.5039 16.2421 15.1997 16.2421 13.5635C16.2421 11.9985 17.4277 10.8603 18.9927 10.8603C19.9412 10.8603 20.6763 11.216 21.4351 11.9748L21.7908 14.2986Z" fill="#0C3A25"/>
<path d="M28.8273 6.59207C28.8036 6.33123 28.7087 6.21267 28.519 6.21267C28.4716 6.21267 28.4005 6.23638 28.3767 6.2601L25.8632 7.82512C25.7447 7.89626 25.6735 8.01482 25.6735 8.13338C25.6735 8.27566 25.7921 8.44164 25.9818 8.46536L26.1715 8.51278C26.6694 8.60763 26.8117 8.89218 26.8117 9.79326V14.5595V14.9626C26.8117 15.4843 26.788 15.7214 26.6694 15.8637C26.5509 16.1008 26.1715 16.2431 25.7209 16.3379C25.3653 16.3853 25.223 16.4802 25.223 16.6936C25.223 16.9544 25.389 17.0493 25.7447 17.0493H30.0366C30.3923 17.0493 30.5346 16.9544 30.5346 16.7173C30.5346 16.4802 30.416 16.3853 30.0603 16.3379C29.1118 16.1956 28.851 15.9111 28.851 14.9626V10.8366C28.851 9.05817 29.9655 7.63542 31.4356 7.63542C32.1233 7.63542 32.6213 8.10967 32.645 8.77362C32.6687 9.12931 32.7161 9.24787 32.9295 9.24787C33.143 9.24787 33.2615 9.12931 33.3326 8.74991C33.3801 8.44164 33.6646 7.63542 33.9729 6.90033C34.0203 6.8292 34.044 6.73435 34.044 6.68692C34.044 6.6395 33.9966 6.56836 33.878 6.52093C33.4749 6.2601 32.9533 6.09411 32.3842 6.09411C31.1511 6.09411 29.7283 7.01889 29.1118 8.18081C28.9696 8.39422 28.8984 8.48907 28.8747 8.48907C28.851 8.48907 28.8273 8.41793 28.8273 8.32308V6.59207Z" fill="#0C3A25"/>
<path d="M38.547 6.47351V2.86921C38.547 2.67951 38.4521 2.48981 38.2861 2.48981C38.0964 2.48981 37.9305 2.67951 37.8356 3.0352C37.4799 4.12597 36.3417 5.76213 35.5118 6.35495C35.1087 6.6395 34.9901 6.80548 34.9901 6.97147C34.9901 7.18488 35.1324 7.30345 35.3932 7.30345H36.2943C36.4603 7.30345 36.5551 7.44572 36.5551 7.588V13.7058C36.5551 14.512 36.5314 14.9389 36.4603 15.4843C36.4366 15.674 36.3891 15.8162 36.3891 15.9111C36.3891 16.7647 37.3851 17.3813 38.6655 17.3813C39.7089 17.3813 40.5625 17.0493 41.0842 16.4565C41.2028 16.3379 41.2739 16.1719 41.2739 16.0771C41.2739 15.8874 41.1791 15.7688 41.0368 15.7688C40.9657 15.7688 40.9182 15.7925 40.8945 15.8162L40.3965 16.1956C40.1594 16.3853 39.9223 16.4565 39.614 16.4565C38.8552 16.4565 38.5707 16.1245 38.5707 15.2234V7.56428C38.5707 7.37458 38.6655 7.27973 38.7841 7.27973L40.6811 7.30345C40.7997 7.30345 40.9657 7.20859 41.0131 7.06632L41.2028 6.68692C41.2502 6.61578 41.2502 6.56836 41.2502 6.54465C41.2502 6.49722 41.1791 6.47351 41.0842 6.47351H38.547Z" fill="#0C3A25"/>
<path d="M45.7979 6.59207C45.7742 6.33123 45.6794 6.21267 45.4897 6.21267C45.4422 6.21267 45.3711 6.23638 45.3474 6.2601L42.8339 7.82512C42.7153 7.89626 42.6442 8.01482 42.6442 8.13338C42.6442 8.27566 42.7627 8.41793 42.9524 8.46536C42.9999 8.48907 42.9998 8.48907 43.1184 8.51278C43.6401 8.60763 43.7824 8.91589 43.7824 9.79326V14.9389C43.7824 15.4843 43.7586 15.7214 43.6638 15.8874C43.5452 16.1008 43.237 16.2905 42.8576 16.3379C42.4782 16.409 42.3833 16.4802 42.3833 16.7173C42.3833 16.9544 42.5256 17.0493 42.905 17.0493H46.7227C47.0784 17.0493 47.2444 16.9544 47.2444 16.7173C47.2444 16.4802 47.1258 16.3853 46.7464 16.3379C46.367 16.2905 46.0113 16.1008 45.8928 15.8637C45.7979 15.6977 45.7742 15.4843 45.7742 15.01V10.1964C45.7742 8.65506 46.8413 7.54057 48.3115 7.54057C49.4734 7.54057 50.161 8.25195 50.3507 9.69841L51.0621 15.01C51.1095 15.2708 51.1332 15.508 51.1332 15.6028C51.1332 16.0059 50.8961 16.2431 50.4456 16.3379C50.0425 16.409 49.9713 16.4565 49.9713 16.7173C49.9713 16.9544 50.161 17.0493 50.5167 17.0493H54.1921C54.5478 17.0493 54.7138 16.9544 54.7138 16.7173C54.7138 16.4802 54.619 16.409 54.2159 16.3379C53.5045 16.2193 53.2674 15.9111 53.1488 15.01L52.2714 9.27158C52.058 7.65913 51.5838 6.90033 50.5878 6.42608C50.161 6.23638 49.6631 6.11782 49.1414 6.11782C47.9795 6.11782 46.9598 6.66321 45.9639 7.84883C45.8928 7.91997 45.8453 7.9674 45.8216 7.9674C45.7979 7.9674 45.7979 7.89626 45.7979 7.80141V6.59207Z" fill="#0C3A25"/>
<path d="M56.8966 12.6388L64.1052 10.4572C64.2475 10.4098 64.3186 10.3149 64.3186 10.1727C64.3186 10.0541 64.2712 9.81697 64.1527 9.53242C63.9155 9.03446 63.631 8.56021 63.299 8.13338C62.2794 6.80548 60.904 6.0704 59.339 6.0704C56.4224 6.0704 54.2646 8.46536 54.2646 11.5954C54.2646 14.9626 56.6595 17.405 59.9556 17.405C61.734 17.405 63.4887 16.6225 64.4135 15.3657C64.4846 15.2471 64.5321 15.1049 64.5321 15.0337C64.5321 14.8203 64.4135 14.7017 64.2238 14.7017C64.129 14.7017 63.9867 14.7492 63.8681 14.9152C63.0145 15.8637 61.9 16.409 60.7618 16.409C59.1256 16.409 57.608 15.342 56.8492 13.611C56.6832 13.279 56.6121 12.9944 56.6121 12.8522C56.6121 12.7336 56.6832 12.6862 56.8966 12.6388ZM56.4935 11.88C56.3275 11.88 56.2327 11.3583 56.2327 10.6232C56.2327 8.37051 57.276 6.94776 58.9122 6.94776C59.6947 6.94776 60.4535 7.25602 61.0226 7.80141C61.402 8.1571 61.6866 8.58392 61.9 9.10559C62.0422 9.50871 62.1608 9.88811 62.1608 10.0304C62.1608 10.1489 62.066 10.2201 61.8763 10.2912L56.7069 11.8088C56.6121 11.8562 56.5409 11.88 56.4935 11.88Z" fill="#0C3A25"/>
<path d="M68.379 6.59207C68.3553 6.33123 68.2605 6.21267 68.0708 6.21267C68.0233 6.21267 67.9522 6.23638 67.9285 6.2601L65.415 7.82512C65.2964 7.89626 65.2253 8.01482 65.2253 8.13338C65.2253 8.27566 65.3438 8.44164 65.5335 8.46536L65.7233 8.51278C66.2212 8.60763 66.3635 8.89218 66.3635 9.79326V14.5595V14.9626C66.3635 15.4843 66.3398 15.7214 66.2212 15.8637C66.1026 16.1008 65.7232 16.2431 65.2727 16.3379C64.917 16.3853 64.7747 16.4802 64.7747 16.6936C64.7747 16.9544 64.9407 17.0493 65.2964 17.0493H69.5884C69.9441 17.0493 70.0863 16.9544 70.0863 16.7173C70.0863 16.4802 69.9678 16.3853 69.6121 16.3379C68.6636 16.1956 68.4028 15.9111 68.4028 14.9626V10.8366C68.4028 9.05817 69.5172 7.63542 70.9874 7.63542C71.6751 7.63542 72.173 8.10967 72.1968 8.77362C72.2205 9.12931 72.2679 9.24787 72.4813 9.24787C72.6947 9.24787 72.8133 9.12931 72.8844 8.74991C72.9318 8.44164 73.2164 7.63542 73.5247 6.90033C73.5721 6.8292 73.5958 6.73435 73.5958 6.68692C73.5958 6.6395 73.5484 6.56836 73.4298 6.52093C73.0267 6.2601 72.505 6.09411 71.9359 6.09411C70.7029 6.09411 69.2801 7.01889 68.6636 8.18081C68.5213 8.39422 68.4502 8.48907 68.4265 8.48907C68.4028 8.48907 68.379 8.41793 68.379 8.32308V6.59207Z" fill="#0C3A25"/>
<path d="M4.22972 28.6488V24.5939C4.22972 24.3805 4.12301 24.1671 3.93627 24.1671C3.72286 24.1671 3.53613 24.3805 3.42942 24.7807C3.02927 26.0078 1.7488 27.8485 0.815118 28.5154C0.361617 28.8355 0.228234 29.0222 0.228234 29.209C0.228234 29.4491 0.388293 29.5824 0.681735 29.5824H1.69544C1.88218 29.5824 1.98889 29.7425 1.98889 29.9026V36.7851C1.98889 37.6921 1.96221 38.1723 1.88218 38.7858C1.8555 38.9993 1.80215 39.1593 1.80215 39.266C1.80215 40.2264 2.92257 40.92 4.3631 40.92C5.53687 40.92 6.49722 40.5465 7.08411 39.8796C7.21749 39.7462 7.29752 39.5595 7.29752 39.4528C7.29752 39.2393 7.19081 39.106 7.03075 39.106C6.95072 39.106 6.89737 39.1326 6.8707 39.1593L6.31049 39.5861C6.04372 39.7996 5.77696 39.8796 5.43016 39.8796C4.57651 39.8796 4.25639 39.5061 4.25639 38.4924V29.8759C4.25639 29.6625 4.3631 29.5558 4.49648 29.5558L6.63061 29.5824C6.76399 29.5824 6.95072 29.4757 7.00408 29.3157L7.21749 28.8888C7.27084 28.8088 7.27084 28.7555 7.27084 28.7288C7.27084 28.6754 7.19081 28.6488 7.08411 28.6488H4.22972Z" fill="#0C3A25"/>
<path d="M6.68146 34.6243C6.89487 38.359 9.66923 40.92 13.4573 40.92C17.1387 40.92 19.6196 38.5724 19.6196 35.1045C19.6196 31.3164 16.4984 28.2219 12.7104 28.2219C9.16238 28.2219 6.65478 30.7295 6.65478 34.2775C6.65478 34.4109 6.68146 34.5176 6.68146 34.6243ZM12.1235 29.1289C14.8445 29.1289 17.2454 32.3835 17.2454 36.1715C17.2454 38.5724 15.9649 40.0663 13.9108 40.0663C11.0831 40.0663 8.89561 36.8651 8.89561 32.6769C8.89561 32.3568 8.92229 32.01 9.00232 31.6899C9.37579 30.0359 10.4695 29.1289 12.1235 29.1289Z" fill="#0C3A25"/>
<path d="M27.0012 40.5465H34.0705C36.7648 40.5465 39.0323 39.9063 40.5795 38.7058C42.4469 37.2119 43.6473 34.5976 43.6473 31.8766C43.6473 26.2212 38.7655 21.3927 33.0568 21.3927L27.0278 21.3661C26.601 21.3661 26.3609 21.4995 26.3609 21.7929C26.3609 22.1397 26.4943 22.2464 27.0012 22.2731C27.7481 22.3531 27.9349 22.7533 27.9349 24.2471V37.6654C27.9349 38.5724 27.9349 38.7592 27.8281 39.0793C27.6948 39.4528 27.428 39.6128 26.9745 39.6395C26.4676 39.6929 26.3343 39.7996 26.3343 40.1197C26.3343 40.4131 26.521 40.5465 27.0012 40.5465ZM32.3632 22.3531C37.0049 22.3531 40.793 26.648 40.793 31.9566C40.793 36.7584 38.0719 39.4794 33.2435 39.4794C32.0964 39.4794 31.3228 39.3461 30.9226 39.0793C30.5225 38.8392 30.5225 38.7592 30.5225 37.4787V23.767C30.5225 22.6465 30.8693 22.3531 32.3632 22.3531Z" fill="#0C3A25"/>
<path d="M47.8135 35.5847L55.9231 33.1304C56.0832 33.0771 56.1632 32.9704 56.1632 32.8103C56.1632 32.6769 56.1099 32.4101 55.9765 32.09C55.7097 31.5298 55.3896 30.9963 55.0161 30.5161C53.869 29.0222 52.3218 28.1953 50.5611 28.1953C47.2799 28.1953 44.8524 30.8896 44.8524 34.4109C44.8524 38.199 47.5467 40.9467 51.2547 40.9467C53.2555 40.9467 55.2295 40.0663 56.2699 38.6525C56.35 38.5191 56.4033 38.359 56.4033 38.279C56.4033 38.0389 56.2699 37.9055 56.0565 37.9055C55.9498 37.9055 55.7897 37.9589 55.6564 38.1456C54.696 39.2127 53.4422 39.8262 52.1617 39.8262C50.3211 39.8262 48.6138 38.6258 47.7601 36.6784C47.5734 36.3049 47.4933 35.9848 47.4933 35.8248C47.4933 35.6914 47.5734 35.638 47.8135 35.5847ZM47.36 34.731C47.1732 34.731 47.0665 34.1441 47.0665 33.3172C47.0665 30.7829 48.2403 29.1823 50.081 29.1823C50.9613 29.1823 51.8149 29.5291 52.4552 30.1426C52.882 30.5428 53.2021 31.023 53.4422 31.6099C53.6023 32.0634 53.7357 32.4902 53.7357 32.6502C53.7357 32.7836 53.629 32.8637 53.4155 32.9437L47.6 34.651C47.4933 34.7043 47.4133 34.731 47.36 34.731Z" fill="#0C3A25"/>
<path d="M67.1393 32.7836L68.2331 30.4628C68.3398 30.2227 68.3665 30.116 68.3665 30.0893C68.3665 29.9292 68.0197 29.6091 67.5662 29.369C66.1256 28.5154 65.2987 28.302 63.9915 28.302C60.3635 28.302 57.5891 31.103 57.5891 34.9177C57.5891 38.4391 60.2034 41 63.7781 41C65.7522 41 67.1394 40.3064 68.1264 38.8659C68.2331 38.7325 68.3131 38.4657 68.3131 38.359C68.3131 38.1723 68.2064 38.0389 68.0197 38.0389C67.8863 38.0389 67.7796 38.1456 67.5662 38.439C67.0326 39.3194 65.6721 39.9596 64.3917 39.9596C61.7774 39.9596 60.0167 37.8522 60.0167 34.731C60.0167 31.4498 61.724 29.1023 63.9915 29.1023C65.4854 29.1023 66.6325 30.1693 66.6325 31.5565C66.6325 31.8499 66.5791 32.1167 66.5258 32.3568C66.4724 32.5702 66.4457 32.7303 66.4457 32.837C66.4457 33.0237 66.5525 33.1571 66.7392 33.1571C66.8993 33.1571 66.9793 33.0771 67.1393 32.7836Z" fill="#0C3A25"/>
<path d="M73.5221 28.7821C73.4954 28.4887 73.3887 28.3553 73.1753 28.3553C73.122 28.3553 73.0686 28.382 73.0153 28.4087L70.2142 30.1693C70.0542 30.2493 69.9475 30.3827 69.9475 30.5161C69.9475 30.6762 70.1075 30.8362 70.2943 30.8896C70.401 30.9163 70.401 30.9163 70.5343 30.9429C71.0945 31.0496 71.2546 31.3964 71.2546 32.3835V37.7721V38.199C71.2546 38.7858 71.2279 39.0526 71.1212 39.2127C70.9612 39.4794 70.5877 39.6928 70.1342 39.7462C69.734 39.7996 69.574 39.9063 69.574 40.173C69.574 40.4398 69.7607 40.5465 70.1876 40.5465H74.7759C75.1761 40.5465 75.3628 40.4398 75.3628 40.173C75.3628 39.9063 75.2027 39.7996 74.8026 39.7462C73.8156 39.5861 73.5221 39.2393 73.5221 38.199V28.7821Z" fill="#0C3A25"/>
<path d="M87.1266 21.4728C87.0999 21.206 86.9932 21.046 86.7798 21.046C86.7264 21.046 86.6731 21.0726 86.6197 21.0993L83.8187 22.86C83.6853 22.9667 83.5519 23.1 83.5519 23.2334C83.5519 23.4202 83.712 23.5535 83.8987 23.5802L84.1388 23.6336C84.539 23.7403 84.8057 24.0604 84.8591 24.4872V25.2608V29.6358C84.8591 29.7692 84.8591 29.8225 84.8324 29.8225C84.8057 29.8225 84.7791 29.8225 84.7257 29.7692C83.6853 28.6488 82.7516 28.2219 81.3378 28.2219C78.2433 28.2219 75.629 31.2897 75.629 34.8911C75.629 38.3323 77.8965 40.9467 80.911 40.9467C82.1381 40.9467 83.4719 40.3864 84.3255 39.5061C84.619 39.186 84.7524 39.106 84.8057 39.106C84.9391 39.106 84.9925 39.2127 84.9925 39.4261C84.9925 39.5595 84.9658 39.7462 84.9124 39.9329C84.8591 40.1197 84.8324 40.3331 84.8324 40.5465C84.8324 40.8399 84.8857 40.8933 85.0992 40.8933H85.2059L88.5671 39.9063C88.7538 39.8796 88.8606 39.7195 88.8606 39.5328C88.8606 39.3994 88.7538 39.266 88.5671 39.266L87.9802 39.2127C87.3667 39.186 87.1266 38.8125 87.1266 37.7988V21.4728ZM84.619 37.9322C84.2188 38.8925 82.9917 39.6395 81.7646 39.6395C79.4971 39.6395 77.9232 37.3453 77.9232 33.9307C77.9232 31.023 79.3904 29.0756 81.5779 29.0756C83.5519 29.0756 84.8324 30.5961 84.8591 33.0237L84.8858 36.0382C84.8858 36.8385 84.8057 37.4787 84.619 37.9322Z" fill="#0C3A25"/>
<path d="M92.1149 35.5847L100.225 33.1304C100.385 33.0771 100.465 32.9704 100.465 32.8103C100.465 32.6769 100.411 32.4101 100.278 32.09C100.011 31.5298 99.691 30.9963 99.3176 30.5161C98.1705 29.0222 96.6232 28.1953 94.8626 28.1953C91.5814 28.1953 89.1538 30.8896 89.1538 34.4109C89.1538 38.199 91.8481 40.9467 95.5562 40.9467C97.5569 40.9467 99.531 40.0663 100.571 38.6525C100.651 38.5191 100.705 38.359 100.705 38.279C100.705 38.0389 100.571 37.9055 100.358 37.9055C100.251 37.9055 100.091 37.9589 99.9578 38.1456C98.9974 39.2127 97.7437 39.8262 96.4632 39.8262C94.6225 39.8262 92.9152 38.6258 92.0615 36.6784C91.8748 36.3049 91.7948 35.9848 91.7948 35.8248C91.7948 35.6914 91.8748 35.638 92.1149 35.5847ZM91.6614 34.731C91.4747 34.731 91.3679 34.1441 91.3679 33.3172C91.3679 30.7829 92.5417 29.1823 94.3824 29.1823C95.2627 29.1823 96.1164 29.5291 96.7566 30.1426C97.1835 30.5428 97.5036 31.023 97.7437 31.6099C97.9037 32.0634 98.0371 32.4902 98.0371 32.6502C98.0371 32.7836 97.9304 32.8637 97.717 32.9437L91.9015 34.651C91.7948 34.7043 91.7148 34.731 91.6614 34.731Z" fill="#0C3A25"/>
</svg>
