<svg width="130" height="132" viewBox="0 0 130 132" fill="none" xmlns="http://www.w3.org/2000/svg">
<path d="M65.4998 76L63.7043 74.8125C55.1693 69.158 44.3698 62.7673 36.3715 53.3742C27.9423 43.4783 23.8982 33.3153 24.0019 22.3012C24.1276 10.0027 34.0692 0 46.1634 0C55.7618 0 62.1441 5.54167 65.4998 9.54156C68.8556 5.54167 75.2379 0 84.8363 0C96.9305 0 106.872 10.0027 106.998 22.2953C107.109 33.3153 103.065 43.4724 94.6282 53.3682C86.6299 62.7673 75.8304 69.158 67.2954 74.8125L65.4998 76Z" fill="#0C3A25"/>
<path d="M3.35838 100H1.63038V89.28H4.07838L6.54238 95.168L7.47038 97.728H7.59838L8.52638 95.168L10.9264 89.28H13.3744V100H11.6624V93.664L11.7264 91.872H11.6144L10.9424 93.664L8.54238 99.36H6.46238L4.04638 93.664L3.40638 91.872H3.26238L3.35838 93.664V100ZM18.871 100.16C18.0603 100.16 17.3563 99.9893 16.759 99.648C16.1617 99.296 15.703 98.8107 15.383 98.192C15.063 97.5627 14.903 96.8373 14.903 96.016C14.903 95.1947 15.063 94.4747 15.383 93.856C15.703 93.2373 16.1617 92.7573 16.759 92.416C17.3563 92.064 18.0603 91.888 18.871 91.888C19.6817 91.888 20.375 92.064 20.951 92.416C21.5377 92.7573 21.9857 93.2373 22.295 93.856C22.615 94.4747 22.775 95.1947 22.775 96.016C22.775 96.8373 22.615 97.5627 22.295 98.192C21.9857 98.8107 21.5377 99.296 20.951 99.648C20.375 99.9893 19.6817 100.16 18.871 100.16ZM18.871 98.624C19.703 98.624 20.2843 98.416 20.615 98C20.9457 97.5733 21.111 96.912 21.111 96.016C21.111 95.12 20.9457 94.464 20.615 94.048C20.2843 93.632 19.703 93.424 18.871 93.424C18.0283 93.424 17.4417 93.632 17.111 94.048C16.7803 94.464 16.615 95.12 16.615 96.016C16.615 96.912 16.7803 97.5733 17.111 98C17.4417 98.416 18.0283 98.624 18.871 98.624ZM26.0448 100H24.3168V92H25.9008V94.224L26.0448 94.304V100ZM26.0448 94.816H25.6448V93.264H25.9808C26.1408 92.8907 26.4021 92.5707 26.7648 92.304C27.1381 92.0267 27.6181 91.888 28.2048 91.888C28.7701 91.888 29.2181 92.0107 29.5488 92.256C29.8901 92.5013 30.1354 92.8267 30.2848 93.232C30.4341 93.6373 30.5088 94.0907 30.5088 94.592V95.12H28.7808V94.8C28.7808 94.2667 28.6901 93.8933 28.5088 93.68C28.3274 93.4667 27.9861 93.36 27.4848 93.36C26.9621 93.36 26.5888 93.472 26.3648 93.696C26.1514 93.9093 26.0448 94.2827 26.0448 94.816ZM35.3996 100.16C34.5356 100.16 33.8156 99.9893 33.2396 99.648C32.6636 99.296 32.237 98.8107 31.9596 98.192C31.6823 97.5627 31.5436 96.8373 31.5436 96.016C31.5436 95.1947 31.6983 94.4747 32.0076 93.856C32.3276 93.2373 32.7756 92.7573 33.3516 92.416C33.9276 92.064 34.6103 91.888 35.3996 91.888C36.1143 91.888 36.7436 92.0267 37.2876 92.304C37.8423 92.5707 38.269 92.96 38.5676 93.472C38.877 93.984 39.0316 94.6027 39.0316 95.328C39.0316 95.5413 39.021 95.7493 38.9996 95.952C38.989 96.144 38.973 96.304 38.9516 96.432H32.3596V95.28H37.5436L37.3676 95.44C37.4103 94.9493 37.357 94.5493 37.2076 94.24C37.069 93.9307 36.8396 93.7013 36.5196 93.552C36.2103 93.4027 35.821 93.328 35.3516 93.328C34.509 93.328 33.933 93.5413 33.6236 93.968C33.3143 94.384 33.1596 94.96 33.1596 95.696V96.176C33.1596 96.7093 33.2236 97.1627 33.3516 97.536C33.4903 97.8987 33.725 98.1707 34.0556 98.352C34.3863 98.5333 34.8396 98.624 35.4156 98.624C36.0876 98.624 36.5623 98.5173 36.8396 98.304C37.117 98.0907 37.2556 97.808 37.2556 97.456V97.328H38.9676V97.472C38.9676 98.016 38.8183 98.4907 38.5196 98.896C38.221 99.2907 37.805 99.6 37.2716 99.824C36.749 100.048 36.125 100.16 35.3996 100.16ZM48.3883 100.16C47.3643 100.16 46.5269 100.016 45.8763 99.728C45.2256 99.4293 44.7403 99.0187 44.4203 98.496C44.1109 97.9627 43.9563 97.3547 43.9563 96.672V96.4H45.6523V96.576C45.6523 97.0133 45.7269 97.3813 45.8763 97.68C46.0363 97.9787 46.3189 98.2027 46.7243 98.352C47.1296 98.5013 47.7109 98.576 48.4683 98.576C49.2576 98.576 49.8123 98.464 50.1323 98.24C50.4523 98.0053 50.6123 97.6427 50.6123 97.152C50.6123 96.8213 50.5643 96.5547 50.4683 96.352C50.3723 96.1493 50.1803 95.984 49.8923 95.856C49.6149 95.7173 49.1989 95.5947 48.6443 95.488L46.8203 95.12C46.2016 95.0027 45.6843 94.8213 45.2682 94.576C44.8523 94.32 44.5323 93.9947 44.3083 93.6C44.0949 93.2053 43.9883 92.7307 43.9883 92.176C43.9883 91.6427 44.1269 91.1467 44.4043 90.688C44.6923 90.2187 45.1296 89.84 45.7163 89.552C46.3136 89.264 47.0709 89.12 47.9883 89.12C48.9696 89.12 49.7643 89.2853 50.3723 89.616C50.9909 89.9467 51.4389 90.384 51.7163 90.928C52.0043 91.4613 52.1483 92.048 52.1483 92.688V92.88H50.4363V92.704C50.4363 92.256 50.3616 91.888 50.2123 91.6C50.0736 91.3013 49.8176 91.0773 49.4443 90.928C49.0816 90.768 48.5856 90.688 47.9563 90.688C47.1669 90.688 46.5963 90.8053 46.2443 91.04C45.8923 91.2747 45.7163 91.6267 45.7163 92.096C45.7163 92.416 45.7696 92.672 45.8763 92.864C45.9936 93.056 46.1909 93.2107 46.4683 93.328C46.7563 93.4347 47.1403 93.5467 47.6203 93.664L49.4443 94.048C50.1269 94.176 50.6763 94.3787 51.0923 94.656C51.5189 94.9333 51.8336 95.2747 52.0363 95.68C52.2389 96.0747 52.3403 96.544 52.3403 97.088C52.3403 97.6427 52.2016 98.1547 51.9243 98.624C51.6469 99.0933 51.2149 99.4667 50.6283 99.744C50.0523 100.021 49.3056 100.16 48.3883 100.16ZM60.5996 100H58.9996V98.432L58.9516 98V94.944C58.9516 94.3467 58.8076 93.9413 58.5196 93.728C58.2423 93.5147 57.789 93.408 57.1596 93.408C56.5303 93.408 56.077 93.52 55.7996 93.744C55.533 93.968 55.3996 94.3413 55.3996 94.864V95.104H53.7356V94.944C53.7356 94.3467 53.8796 93.8187 54.1676 93.36C54.4663 92.9013 54.877 92.544 55.3996 92.288C55.933 92.0213 56.5516 91.888 57.2556 91.888C58.0023 91.888 58.621 92.0267 59.1116 92.304C59.6023 92.5813 59.9703 92.9653 60.2156 93.456C60.4716 93.936 60.5996 94.5067 60.5996 95.168V100ZM56.0396 100.16C55.325 100.16 54.7223 99.9787 54.2316 99.616C53.7516 99.2427 53.5116 98.7147 53.5116 98.032C53.5116 97.584 53.613 97.2107 53.8156 96.912C54.029 96.6133 54.333 96.368 54.7276 96.176C55.1223 95.984 55.6023 95.8507 56.1676 95.776L59.1116 95.36V96.576L56.4236 96.976C55.965 97.04 55.645 97.136 55.4636 97.264C55.2823 97.392 55.1916 97.6053 55.1916 97.904C55.1916 98.2133 55.2983 98.4373 55.5116 98.576C55.7356 98.7147 56.0983 98.784 56.5996 98.784C56.9836 98.784 57.3516 98.7253 57.7036 98.608C58.0663 98.48 58.365 98.272 58.5996 97.984C58.8343 97.6853 58.9516 97.2693 58.9516 96.736L59.1756 98.768L58.9196 98.752C58.7703 98.9973 58.5623 99.2267 58.2956 99.44C58.0396 99.6533 57.725 99.8293 57.3516 99.968C56.9783 100.096 56.541 100.16 56.0396 100.16ZM65.7385 100C64.8638 100 64.1918 99.8133 63.7225 99.44C63.2638 99.0667 63.0345 98.4373 63.0345 97.552V92.224L63.4345 90.08H64.7625V97.472C64.7625 97.888 64.8638 98.1547 65.0665 98.272C65.2798 98.3787 65.6585 98.432 66.2025 98.432H67.1625V99.856C67.0025 99.8987 66.7945 99.936 66.5385 99.968C66.2825 99.9893 66.0158 100 65.7385 100ZM67.1625 93.488H61.7065V92.048H67.1625V93.488ZM70.1515 91.04H68.4395L68.4235 89.28H70.1515V91.04ZM70.1675 100H68.4395V92H70.1675V100ZM75.3014 100.16C74.1387 100.16 73.2587 99.9307 72.6614 99.472C72.064 99.0027 71.7654 98.2827 71.7654 97.312V97.28H73.4294V97.568C73.4294 97.8453 73.4827 98.0747 73.5894 98.256C73.7067 98.4267 73.8987 98.5547 74.1654 98.64C74.4427 98.7147 74.832 98.752 75.3334 98.752C75.76 98.752 76.08 98.72 76.2934 98.656C76.5174 98.5813 76.6667 98.48 76.7414 98.352C76.816 98.224 76.8534 98.064 76.8534 97.872C76.8534 97.552 76.7414 97.328 76.5174 97.2C76.2934 97.0613 75.8934 96.9387 75.3174 96.832L74.0694 96.624C73.6 96.528 73.1894 96.3947 72.8374 96.224C72.496 96.0427 72.2294 95.7973 72.0374 95.488C71.856 95.168 71.7654 94.768 71.7654 94.288C71.7654 93.5733 72.048 92.9973 72.6134 92.56C73.1787 92.112 73.9787 91.888 75.0134 91.888C75.6427 91.888 76.2027 91.9893 76.6934 92.192C77.184 92.3947 77.5734 92.6987 77.8614 93.104C78.1494 93.5093 78.2934 94.016 78.2934 94.624V94.768H76.6454V94.576C76.6454 94.32 76.6027 94.1013 76.5174 93.92C76.432 93.728 76.272 93.5787 76.0374 93.472C75.8027 93.3653 75.4454 93.312 74.9654 93.312C74.336 93.312 73.92 93.392 73.7174 93.552C73.5147 93.712 73.4134 93.9467 73.4134 94.256C73.4134 94.5653 73.504 94.784 73.6854 94.912C73.8774 95.0293 74.2507 95.1467 74.8054 95.264L76.1654 95.52C76.6774 95.616 77.104 95.76 77.4454 95.952C77.7867 96.144 78.0427 96.3947 78.2134 96.704C78.3947 97.0133 78.4854 97.3813 78.4854 97.808C78.4854 98.5547 78.2027 99.136 77.6374 99.552C77.0827 99.9573 76.304 100.16 75.3014 100.16ZM82.1795 100H80.4515V92.112C80.4515 91.4933 80.5688 90.976 80.8035 90.56C81.0382 90.144 81.3848 89.8293 81.8435 89.616C82.3128 89.392 82.8888 89.28 83.5715 89.28C83.6782 89.28 83.7848 89.28 83.8915 89.28C83.9982 89.28 84.1048 89.28 84.2115 89.28V90.656H83.2515C82.8675 90.656 82.5848 90.7307 82.4035 90.88C82.2222 91.0293 82.1315 91.2747 82.1315 91.616V92.32L82.1795 92.736V100ZM84.2115 93.488H79.2835V92.048H84.2115V93.488ZM91.9278 100H90.3278V98.432L90.2798 98V94.944C90.2798 94.3467 90.1358 93.9413 89.8478 93.728C89.5704 93.5147 89.1171 93.408 88.4878 93.408C87.8584 93.408 87.4051 93.52 87.1278 93.744C86.8611 93.968 86.7278 94.3413 86.7278 94.864V95.104H85.0638V94.944C85.0638 94.3467 85.2078 93.8187 85.4958 93.36C85.7944 92.9013 86.2051 92.544 86.7278 92.288C87.2611 92.0213 87.8798 91.888 88.5838 91.888C89.3304 91.888 89.9491 92.0267 90.4398 92.304C90.9304 92.5813 91.2984 92.9653 91.5438 93.456C91.7998 93.936 91.9278 94.5067 91.9278 95.168V100ZM87.3678 100.16C86.6531 100.16 86.0504 99.9787 85.5598 99.616C85.0798 99.2427 84.8398 98.7147 84.8398 98.032C84.8398 97.584 84.9411 97.2107 85.1438 96.912C85.3571 96.6133 85.6611 96.368 86.0558 96.176C86.4504 95.984 86.9304 95.8507 87.4958 95.776L90.4398 95.36V96.576L87.7518 96.976C87.2931 97.04 86.9731 97.136 86.7918 97.264C86.6104 97.392 86.5198 97.6053 86.5198 97.904C86.5198 98.2133 86.6264 98.4373 86.8398 98.576C87.0638 98.7147 87.4264 98.784 87.9278 98.784C88.3118 98.784 88.6798 98.7253 89.0318 98.608C89.3944 98.48 89.6931 98.272 89.9278 97.984C90.1624 97.6853 90.2798 97.2693 90.2798 96.736L90.5038 98.768L90.2478 98.752C90.0984 98.9973 89.8904 99.2267 89.6238 99.44C89.3678 99.6533 89.0531 99.8293 88.6798 99.968C88.3064 100.096 87.8691 100.16 87.3678 100.16ZM97.3691 100.176C96.5371 100.176 95.8331 100 95.2571 99.648C94.6811 99.296 94.2385 98.8107 93.9291 98.192C93.6305 97.5733 93.4811 96.8533 93.4811 96.032C93.4811 95.2107 93.6358 94.4907 93.9451 93.872C94.2651 93.2427 94.7185 92.7573 95.3051 92.416C95.8918 92.064 96.6011 91.888 97.4331 91.888C98.1371 91.888 98.7558 92.0213 99.2891 92.288C99.8225 92.5547 100.233 92.928 100.521 93.408C100.82 93.888 100.969 94.448 100.969 95.088V95.232H99.2571V95.136C99.2571 94.5493 99.0971 94.1227 98.7771 93.856C98.4678 93.5787 97.9825 93.44 97.3211 93.44C96.5531 93.44 96.0038 93.6587 95.6731 94.096C95.3531 94.5227 95.1931 95.1627 95.1931 96.016C95.1931 96.88 95.3531 97.5307 95.6731 97.968C96.0038 98.3947 96.5531 98.608 97.3211 98.608C97.9825 98.608 98.4678 98.4747 98.7771 98.208C99.0971 97.9307 99.2571 97.504 99.2571 96.928V96.832H100.969V96.976C100.969 97.5947 100.82 98.1493 100.521 98.64C100.222 99.12 99.8011 99.4987 99.2571 99.776C98.7238 100.043 98.0945 100.176 97.3691 100.176ZM105.77 100C104.895 100 104.223 99.8133 103.754 99.44C103.295 99.0667 103.066 98.4373 103.066 97.552V92.224L103.466 90.08H104.794V97.472C104.794 97.888 104.895 98.1547 105.098 98.272C105.311 98.3787 105.69 98.432 106.234 98.432H107.194V99.856C107.034 99.8987 106.826 99.936 106.57 99.968C106.314 99.9893 106.047 100 105.77 100ZM107.194 93.488H101.738V92.048H107.194V93.488ZM110.183 91.04H108.471L108.455 89.28H110.183V91.04ZM110.199 100H108.471V92H110.199V100ZM115.605 100.16C114.795 100.16 114.091 99.9893 113.493 99.648C112.896 99.296 112.437 98.8107 112.117 98.192C111.797 97.5627 111.637 96.8373 111.637 96.016C111.637 95.1947 111.797 94.4747 112.117 93.856C112.437 93.2373 112.896 92.7573 113.493 92.416C114.091 92.064 114.795 91.888 115.605 91.888C116.416 91.888 117.109 92.064 117.685 92.416C118.272 92.7573 118.72 93.2373 119.029 93.856C119.349 94.4747 119.509 95.1947 119.509 96.016C119.509 96.8373 119.349 97.5627 119.029 98.192C118.72 98.8107 118.272 99.296 117.685 99.648C117.109 99.9893 116.416 100.16 115.605 100.16ZM115.605 98.624C116.437 98.624 117.019 98.416 117.349 98C117.68 97.5733 117.845 96.912 117.845 96.016C117.845 95.12 117.68 94.464 117.349 94.048C117.019 93.632 116.437 93.424 115.605 93.424C114.763 93.424 114.176 93.632 113.845 94.048C113.515 94.464 113.349 95.12 113.349 96.016C113.349 96.912 113.515 97.5733 113.845 98C114.176 98.416 114.763 98.624 115.605 98.624ZM128.459 100H126.731V95.376C126.731 94.672 126.598 94.1653 126.331 93.856C126.064 93.536 125.563 93.376 124.827 93.376C124.358 93.376 123.974 93.4453 123.675 93.584C123.376 93.712 123.152 93.9253 123.003 94.224C122.854 94.512 122.779 94.9067 122.779 95.408H122.475L122.331 93.536H122.715C122.832 93.248 123.008 92.9813 123.243 92.736C123.478 92.4907 123.776 92.288 124.139 92.128C124.512 91.968 124.955 91.888 125.467 91.888C126.16 91.888 126.726 92.0213 127.163 92.288C127.6 92.5547 127.926 92.9227 128.139 93.392C128.352 93.8613 128.459 94.4 128.459 95.008V100ZM122.779 100H121.051V92.048H122.635V94.432L122.779 94.512V100Z" fill="black"/>
</svg>
