<svg width="130" height="130" viewBox="0 0 130 130" fill="none" xmlns="http://www.w3.org/2000/svg">
<path d="M14.8818 98H13.1538V87.28H15.6018L18.0658 93.168L18.9938 95.728H19.1218L20.0498 93.168L22.4498 87.28H24.8978V98H23.1858V91.664L23.2498 89.872H23.1378L22.4658 91.664L20.0658 97.36H17.9858L15.5698 91.664L14.9298 89.872H14.7858L14.8818 91.664V98ZM30.3141 98H28.0581L26.0901 90.048H27.9621L28.8741 94.464L29.2101 96.56H29.3381L29.8501 94.464L31.2421 90.048H33.4821L34.8901 94.48L35.4021 96.544H35.5141L35.8501 94.48L36.7621 90.048H38.5701L36.6021 98H34.3461L32.9221 93.568L32.3941 91.568H32.2821L31.7541 93.568L30.3141 98ZM42.9387 98.16C42.0747 98.16 41.3547 97.9893 40.7787 97.648C40.2027 97.296 39.776 96.8107 39.4987 96.192C39.2214 95.5627 39.0827 94.8373 39.0827 94.016C39.0827 93.1947 39.2374 92.4747 39.5467 91.856C39.8667 91.2373 40.3147 90.7573 40.8907 90.416C41.4667 90.064 42.1494 89.888 42.9387 89.888C43.6534 89.888 44.2827 90.0267 44.8267 90.304C45.3814 90.5707 45.808 90.96 46.1067 91.472C46.416 91.984 46.5707 92.6027 46.5707 93.328C46.5707 93.5413 46.56 93.7493 46.5387 93.952C46.528 94.144 46.512 94.304 46.4907 94.432H39.8987V93.28H45.0827L44.9067 93.44C44.9494 92.9493 44.896 92.5493 44.7467 92.24C44.608 91.9307 44.3787 91.7013 44.0587 91.552C43.7494 91.4027 43.36 91.328 42.8907 91.328C42.048 91.328 41.472 91.5413 41.1627 91.968C40.8534 92.384 40.6987 92.96 40.6987 93.696V94.176C40.6987 94.7093 40.7627 95.1627 40.8907 95.536C41.0294 95.8987 41.264 96.1707 41.5947 96.352C41.9254 96.5333 42.3787 96.624 42.9547 96.624C43.6267 96.624 44.1014 96.5173 44.3787 96.304C44.656 96.0907 44.7947 95.808 44.7947 95.456V95.328H46.5067V95.472C46.5067 96.016 46.3574 96.4907 46.0587 96.896C45.76 97.2907 45.344 97.6 44.8107 97.824C44.288 98.048 43.664 98.16 42.9387 98.16ZM55.6076 98H53.8796V93.376C53.8796 92.672 53.7462 92.1653 53.4796 91.856C53.2129 91.536 52.7116 91.376 51.9756 91.376C51.5062 91.376 51.1222 91.4453 50.8236 91.584C50.5249 91.712 50.3009 91.9253 50.1516 92.224C50.0022 92.512 49.9276 92.9067 49.9276 93.408H49.6236L49.4796 91.536H49.8636C49.9809 91.248 50.1569 90.9813 50.3916 90.736C50.6262 90.4907 50.9249 90.288 51.2876 90.128C51.6609 89.968 52.1036 89.888 52.6156 89.888C53.3089 89.888 53.8742 90.0213 54.3116 90.288C54.7489 90.5547 55.0742 90.9227 55.2876 91.392C55.5009 91.8613 55.6076 92.4 55.6076 93.008V98ZM49.9276 98H48.1996V90.048H49.7836V92.432L49.9276 92.512V98ZM60.8092 98.16C59.6465 98.16 58.7665 97.9307 58.1692 97.472C57.5719 97.0027 57.2732 96.2827 57.2732 95.312V95.28H58.9372V95.568C58.9372 95.8453 58.9905 96.0747 59.0972 96.256C59.2145 96.4267 59.4065 96.5547 59.6732 96.64C59.9505 96.7147 60.3399 96.752 60.8412 96.752C61.2679 96.752 61.5879 96.72 61.8012 96.656C62.0252 96.5813 62.1745 96.48 62.2492 96.352C62.3239 96.224 62.3612 96.064 62.3612 95.872C62.3612 95.552 62.2492 95.328 62.0252 95.2C61.8012 95.0613 61.4012 94.9387 60.8252 94.832L59.5772 94.624C59.1079 94.528 58.6972 94.3947 58.3452 94.224C58.0039 94.0427 57.7372 93.7973 57.5452 93.488C57.3639 93.168 57.2732 92.768 57.2732 92.288C57.2732 91.5733 57.5559 90.9973 58.1212 90.56C58.6865 90.112 59.4865 89.888 60.5212 89.888C61.1505 89.888 61.7105 89.9893 62.2012 90.192C62.6919 90.3947 63.0812 90.6987 63.3692 91.104C63.6572 91.5093 63.8012 92.016 63.8012 92.624V92.768H62.1532V92.576C62.1532 92.32 62.1105 92.1013 62.0252 91.92C61.9399 91.728 61.7799 91.5787 61.5452 91.472C61.3105 91.3653 60.9532 91.312 60.4732 91.312C59.8439 91.312 59.4279 91.392 59.2252 91.552C59.0225 91.712 58.9212 91.9467 58.9212 92.256C58.9212 92.5653 59.0119 92.784 59.1932 92.912C59.3852 93.0293 59.7585 93.1467 60.3132 93.264L61.6732 93.52C62.1852 93.616 62.6119 93.76 62.9532 93.952C63.2945 94.144 63.5505 94.3947 63.7212 94.704C63.9025 95.0133 63.9932 95.3813 63.9932 95.808C63.9932 96.5547 63.7105 97.136 63.1452 97.552C62.5905 97.9573 61.8119 98.16 60.8092 98.16ZM73.2867 98.16C72.2627 98.16 71.4254 98.016 70.7747 97.728C70.124 97.4293 69.6387 97.0187 69.3187 96.496C69.0094 95.9627 68.8547 95.3547 68.8547 94.672V94.4H70.5507V94.576C70.5507 95.0133 70.6254 95.3813 70.7747 95.68C70.9347 95.9787 71.2174 96.2027 71.6227 96.352C72.028 96.5013 72.6094 96.576 73.3667 96.576C74.156 96.576 74.7107 96.464 75.0307 96.24C75.3507 96.0053 75.5107 95.6427 75.5107 95.152C75.5107 94.8213 75.4627 94.5547 75.3667 94.352C75.2707 94.1493 75.0787 93.984 74.7907 93.856C74.5134 93.7173 74.0974 93.5947 73.5427 93.488L71.7187 93.12C71.1 93.0027 70.5827 92.8213 70.1667 92.576C69.7507 92.32 69.4307 91.9947 69.2067 91.6C68.9934 91.2053 68.8867 90.7307 68.8867 90.176C68.8867 89.6427 69.0254 89.1467 69.3027 88.688C69.5907 88.2187 70.028 87.84 70.6147 87.552C71.212 87.264 71.9694 87.12 72.8867 87.12C73.868 87.12 74.6627 87.2853 75.2707 87.616C75.8894 87.9467 76.3374 88.384 76.6147 88.928C76.9027 89.4613 77.0467 90.048 77.0467 90.688V90.88H75.3347V90.704C75.3347 90.256 75.26 89.888 75.1107 89.6C74.972 89.3013 74.716 89.0773 74.3427 88.928C73.98 88.768 73.484 88.688 72.8547 88.688C72.0654 88.688 71.4947 88.8053 71.1427 89.04C70.7907 89.2747 70.6147 89.6267 70.6147 90.096C70.6147 90.416 70.668 90.672 70.7747 90.864C70.892 91.056 71.0894 91.2107 71.3667 91.328C71.6547 91.4347 72.0387 91.5467 72.5187 91.664L74.3427 92.048C75.0254 92.176 75.5747 92.3787 75.9907 92.656C76.4174 92.9333 76.732 93.2747 76.9347 93.68C77.1374 94.0747 77.2387 94.544 77.2387 95.088C77.2387 95.6427 77.1 96.1547 76.8227 96.624C76.5454 97.0933 76.1134 97.4667 75.5267 97.744C74.9507 98.0213 74.204 98.16 73.2867 98.16ZM85.4981 98H83.8981V96.432L83.8501 96V92.944C83.8501 92.3467 83.7061 91.9413 83.4181 91.728C83.1407 91.5147 82.6874 91.408 82.0581 91.408C81.4287 91.408 80.9754 91.52 80.6981 91.744C80.4314 91.968 80.2981 92.3413 80.2981 92.864V93.104H78.6341V92.944C78.6341 92.3467 78.7781 91.8187 79.0661 91.36C79.3647 90.9013 79.7754 90.544 80.2981 90.288C80.8314 90.0213 81.4501 89.888 82.1541 89.888C82.9007 89.888 83.5194 90.0267 84.0101 90.304C84.5007 90.5813 84.8687 90.9653 85.1141 91.456C85.3701 91.936 85.4981 92.5067 85.4981 93.168V98ZM80.9381 98.16C80.2234 98.16 79.6207 97.9787 79.1301 97.616C78.6501 97.2427 78.4101 96.7147 78.4101 96.032C78.4101 95.584 78.5114 95.2107 78.7141 94.912C78.9274 94.6133 79.2314 94.368 79.6261 94.176C80.0207 93.984 80.5007 93.8507 81.0661 93.776L84.0101 93.36V94.576L81.3221 94.976C80.8634 95.04 80.5434 95.136 80.3621 95.264C80.1807 95.392 80.0901 95.6053 80.0901 95.904C80.0901 96.2133 80.1967 96.4373 80.4101 96.576C80.6341 96.7147 80.9967 96.784 81.4981 96.784C81.8821 96.784 82.2501 96.7253 82.6021 96.608C82.9647 96.48 83.2634 96.272 83.4981 95.984C83.7327 95.6853 83.8501 95.2693 83.8501 94.736L84.0741 96.768L83.8181 96.752C83.6687 96.9973 83.4607 97.2267 83.1941 97.44C82.9381 97.6533 82.6234 97.8293 82.2501 97.968C81.8767 98.096 81.4394 98.16 80.9381 98.16ZM90.6369 98C89.7623 98 89.0903 97.8133 88.6209 97.44C88.1623 97.0667 87.9329 96.4373 87.9329 95.552V90.224L88.3329 88.08H89.6609V95.472C89.6609 95.888 89.7623 96.1547 89.9649 96.272C90.1783 96.3787 90.5569 96.432 91.1009 96.432H92.0609V97.856C91.9009 97.8987 91.6929 97.936 91.4369 97.968C91.1809 97.9893 90.9143 98 90.6369 98ZM92.0609 91.488H86.6049V90.048H92.0609V91.488ZM95.0499 89.04H93.3379L93.3219 87.28H95.0499V89.04ZM95.0659 98H93.3379V90H95.0659V98ZM100.2 98.16C99.0371 98.16 98.1571 97.9307 97.5598 97.472C96.9625 97.0027 96.6638 96.2827 96.6638 95.312V95.28H98.3278V95.568C98.3278 95.8453 98.3811 96.0747 98.4878 96.256C98.6051 96.4267 98.7971 96.5547 99.0638 96.64C99.3411 96.7147 99.7305 96.752 100.232 96.752C100.658 96.752 100.978 96.72 101.192 96.656C101.416 96.5813 101.565 96.48 101.64 96.352C101.714 96.224 101.752 96.064 101.752 95.872C101.752 95.552 101.64 95.328 101.416 95.2C101.192 95.0613 100.792 94.9387 100.216 94.832L98.9678 94.624C98.4985 94.528 98.0878 94.3947 97.7358 94.224C97.3945 94.0427 97.1278 93.7973 96.9358 93.488C96.7545 93.168 96.6638 92.768 96.6638 92.288C96.6638 91.5733 96.9465 90.9973 97.5118 90.56C98.0771 90.112 98.8771 89.888 99.9118 89.888C100.541 89.888 101.101 89.9893 101.592 90.192C102.082 90.3947 102.472 90.6987 102.76 91.104C103.048 91.5093 103.192 92.016 103.192 92.624V92.768H101.544V92.576C101.544 92.32 101.501 92.1013 101.416 91.92C101.33 91.728 101.17 91.5787 100.936 91.472C100.701 91.3653 100.344 91.312 99.8638 91.312C99.2345 91.312 98.8185 91.392 98.6158 91.552C98.4131 91.712 98.3118 91.9467 98.3118 92.256C98.3118 92.5653 98.4025 92.784 98.5838 92.912C98.7758 93.0293 99.1491 93.1467 99.7038 93.264L101.064 93.52C101.576 93.616 102.002 93.76 102.344 93.952C102.685 94.144 102.941 94.3947 103.112 94.704C103.293 95.0133 103.384 95.3813 103.384 95.808C103.384 96.5547 103.101 97.136 102.536 97.552C101.981 97.9573 101.202 98.16 100.2 98.16ZM107.078 98H105.35V90.112C105.35 89.4933 105.467 88.976 105.702 88.56C105.937 88.144 106.283 87.8293 106.742 87.616C107.211 87.392 107.787 87.28 108.47 87.28C108.577 87.28 108.683 87.28 108.79 87.28C108.897 87.28 109.003 87.28 109.11 87.28V88.656H108.15C107.766 88.656 107.483 88.7307 107.302 88.88C107.121 89.0293 107.03 89.2747 107.03 89.616V90.32L107.078 90.736V98ZM109.11 91.488H104.182V90.048H109.11V91.488ZM113.501 98.16C112.637 98.16 111.917 97.9893 111.341 97.648C110.765 97.296 110.339 96.8107 110.061 96.192C109.784 95.5627 109.645 94.8373 109.645 94.016C109.645 93.1947 109.8 92.4747 110.109 91.856C110.429 91.2373 110.877 90.7573 111.453 90.416C112.029 90.064 112.712 89.888 113.501 89.888C114.216 89.888 114.845 90.0267 115.389 90.304C115.944 90.5707 116.371 90.96 116.669 91.472C116.979 91.984 117.133 92.6027 117.133 93.328C117.133 93.5413 117.123 93.7493 117.101 93.952C117.091 94.144 117.075 94.304 117.053 94.432H110.461V93.28H115.645L115.469 93.44C115.512 92.9493 115.459 92.5493 115.309 92.24C115.171 91.9307 114.941 91.7013 114.621 91.552C114.312 91.4027 113.923 91.328 113.453 91.328C112.611 91.328 112.035 91.5413 111.725 91.968C111.416 92.384 111.261 92.96 111.261 93.696V94.176C111.261 94.7093 111.325 95.1627 111.453 95.536C111.592 95.8987 111.827 96.1707 112.157 96.352C112.488 96.5333 112.941 96.624 113.517 96.624C114.189 96.624 114.664 96.5173 114.941 96.304C115.219 96.0907 115.357 95.808 115.357 95.456V95.328H117.069V95.472C117.069 96.016 116.92 96.4907 116.621 96.896C116.323 97.2907 115.907 97.6 115.373 97.824C114.851 98.048 114.227 98.16 113.501 98.16ZM114.509 89.04H112.701L110.493 87.04V86.96H112.781L114.509 88.96V89.04Z" fill="black"/>
<path d="M83.3453 0C73.8283 0 67.5134 5.84591 64.165 10.0928C60.8245 5.83997 54.5016 0 44.9847 0C32.9881 0 23.1269 10.0018 23.0022 22.2932C22.8953 33.0213 26.689 42.928 34.601 52.5716C38.3155 57.0995 45.05 64.3386 60.6028 74.8965C61.6517 75.6153 62.8934 76 64.165 76C65.4365 76 66.6783 75.6153 67.7271 74.8965C83.2799 64.3386 90.0144 57.0995 93.729 52.5716C101.645 42.9261 105.435 33.0193 105.328 22.2932C105.203 10.0018 95.3418 0 83.3453 0ZM64.165 69.6601V28.4142C64.165 24.5295 65.2 20.7437 66.9771 17.2884C66.9816 17.2774 66.9869 17.2668 66.9929 17.2567C68.1456 15.1756 69.5971 13.2747 71.3012 11.6146C74.8891 8.11382 78.94 6.33274 83.3453 6.33274C91.8846 6.33274 98.904 13.5204 98.993 22.3625C99.1929 43.0646 81.5068 57.8871 64.165 69.6601Z" fill="#0C3A25"/>
</svg>
