<svg width="453" height="160" viewBox="0 0 453 160" fill="none" xmlns="http://www.w3.org/2000/svg">
<path d="M205.432 81.3199C211.928 81.3199 214.456 78.1839 214.456 73.7999C214.456 69.5439 211.928 66.8879 207.192 66.8879C204.28 66.8879 202.424 67.7839 201.592 68.5519H201.464L201.816 63.8799H213.304V59.5599H197.56L196.92 71.4639L201.176 72.0399C201.88 71.6239 203.448 70.9519 205.592 70.9519C208.6 70.9519 209.752 71.7199 209.752 73.9599C209.752 76.1359 208.696 76.9359 205.656 76.9359C202.808 76.9359 201.528 76.4239 201.528 74.8559V74.5999H196.76V74.8559C196.76 78.8239 199.64 81.3199 205.432 81.3199ZM234.371 80.9999V76.6799H226.179L222.723 76.7439C222.723 75.7199 224.035 75.0479 225.795 74.2479L229.027 72.8399C231.811 71.5919 234.435 69.7039 234.435 65.9919C234.435 62.1199 232.163 59.2399 226.499 59.2399C220.131 59.2399 217.571 62.6639 217.571 66.8239V67.3359H222.371V66.7919C222.371 64.4879 223.011 63.6239 226.115 63.6239C228.963 63.6239 229.667 64.4879 229.667 66.0239C229.667 67.4319 228.995 68.1359 227.107 69.0319L223.395 70.7919C220.419 72.2319 217.603 73.9599 217.603 78.1199V80.9999H234.371ZM242.646 69.8639C246.07 69.8639 248.246 67.8479 248.246 64.5519C248.246 61.2559 246.07 59.2399 242.646 59.2399C239.19 59.2399 237.014 61.2559 237.014 64.5519C237.014 67.8479 239.19 69.8639 242.646 69.8639ZM243.574 80.9999L258.998 59.5599H254.646L239.19 80.9999H243.574ZM242.646 66.5999C241.141 66.5999 240.63 66.2159 240.63 64.5519C240.63 62.8879 241.141 62.5039 242.646 62.5039C244.15 62.5039 244.661 62.8879 244.661 64.5519C244.661 66.2159 244.15 66.5999 242.646 66.5999ZM255.574 81.3199C259.03 81.3199 261.174 79.3039 261.174 76.0079C261.174 72.7119 259.03 70.6959 255.574 70.6959C252.118 70.6959 249.942 72.7119 249.942 76.0079C249.942 79.3039 252.118 81.3199 255.574 81.3199ZM255.574 78.0559C254.069 78.0559 253.558 77.6719 253.558 76.0079C253.558 74.3439 254.069 73.9599 255.574 73.9599C257.078 73.9599 257.59 74.3439 257.59 76.0079C257.59 77.6719 257.078 78.0559 255.574 78.0559Z" fill="black"/>
<path d="M204.909 105.16C203.874 105.16 202.978 104.936 202.221 104.488C201.474 104.029 200.898 103.389 200.493 102.568C200.098 101.736 199.901 100.76 199.901 99.6399C199.901 98.5199 200.098 97.5492 200.493 96.7279C200.898 95.8959 201.474 95.2559 202.221 94.8079C202.978 94.3492 203.874 94.1199 204.909 94.1199C205.88 94.1199 206.706 94.2905 207.389 94.6319C208.072 94.9732 208.6 95.4532 208.973 96.0719C209.346 96.6905 209.533 97.4319 209.533 98.2959V98.3919H207.709V98.2959C207.709 97.4212 207.485 96.7865 207.037 96.3919C206.6 95.9865 205.874 95.7839 204.861 95.7839C204.125 95.7839 203.528 95.9119 203.069 96.1679C202.61 96.4239 202.274 96.8345 202.061 97.3999C201.848 97.9652 201.741 98.7119 201.741 99.6399C201.741 100.557 201.848 101.304 202.061 101.88C202.274 102.445 202.61 102.856 203.069 103.112C203.528 103.357 204.125 103.48 204.861 103.48C205.874 103.48 206.6 103.283 207.037 102.888C207.485 102.493 207.709 101.859 207.709 100.984V100.888H209.533V100.984C209.533 101.837 209.346 102.579 208.973 103.208C208.6 103.827 208.072 104.307 207.389 104.648C206.706 104.989 205.88 105.16 204.909 105.16ZM218.659 105H216.931V100.376C216.931 99.6719 216.792 99.1652 216.515 98.8559C216.248 98.5359 215.752 98.3759 215.027 98.3759C214.334 98.3759 213.816 98.5305 213.475 98.8399C213.144 99.1385 212.979 99.6665 212.979 100.424H212.675L212.659 98.3759H213.043C213.171 98.1305 213.347 97.8959 213.571 97.6719C213.806 97.4372 214.099 97.2505 214.451 97.1119C214.814 96.9625 215.23 96.8879 215.699 96.8879C216.403 96.8879 216.968 97.0265 217.395 97.3039C217.832 97.5705 218.152 97.9385 218.355 98.4079C218.558 98.8772 218.659 99.4052 218.659 99.9919V105ZM212.979 105H211.251V94.2799H212.979V105ZM227.315 105H225.715V103.432L225.667 103V99.9439C225.667 99.3465 225.523 98.9412 225.235 98.7279C224.958 98.5145 224.505 98.4079 223.875 98.4079C223.246 98.4079 222.793 98.5199 222.515 98.7439C222.249 98.9679 222.115 99.3412 222.115 99.8639V100.104H220.451V99.9439C220.451 99.3465 220.595 98.8185 220.883 98.3599C221.182 97.9012 221.593 97.5439 222.115 97.2879C222.649 97.0212 223.267 96.8879 223.971 96.8879C224.718 96.8879 225.337 97.0265 225.827 97.3039C226.318 97.5812 226.686 97.9652 226.931 98.4559C227.187 98.9359 227.315 99.5065 227.315 100.168V105ZM222.755 105.16C222.041 105.16 221.438 104.979 220.947 104.616C220.467 104.243 220.227 103.715 220.227 103.032C220.227 102.584 220.329 102.211 220.531 101.912C220.745 101.613 221.049 101.368 221.443 101.176C221.838 100.984 222.318 100.851 222.883 100.776L225.827 100.36V101.576L223.139 101.976C222.681 102.04 222.361 102.136 222.179 102.264C221.998 102.392 221.907 102.605 221.907 102.904C221.907 103.213 222.014 103.437 222.227 103.576C222.451 103.715 222.814 103.784 223.315 103.784C223.699 103.784 224.067 103.725 224.419 103.608C224.782 103.48 225.081 103.272 225.315 102.984C225.55 102.685 225.667 102.269 225.667 101.736L225.891 103.768L225.635 103.752C225.486 103.997 225.278 104.227 225.011 104.44C224.755 104.653 224.441 104.829 224.067 104.968C223.694 105.096 223.257 105.16 222.755 105.16ZM236.628 105H234.9V100.376C234.9 99.6719 234.767 99.1652 234.5 98.8559C234.233 98.5359 233.732 98.3759 232.996 98.3759C232.527 98.3759 232.143 98.4452 231.844 98.5839C231.545 98.7119 231.321 98.9252 231.172 99.2239C231.023 99.5119 230.948 99.9065 230.948 100.408H230.644L230.5 98.5359H230.884C231.001 98.2479 231.177 97.9812 231.412 97.7359C231.647 97.4905 231.945 97.2879 232.308 97.1279C232.681 96.9679 233.124 96.8879 233.636 96.8879C234.329 96.8879 234.895 97.0212 235.332 97.2879C235.769 97.5545 236.095 97.9225 236.308 98.3919C236.521 98.8612 236.628 99.3999 236.628 100.008V105ZM230.948 105H229.22V97.0479H230.804V99.4319L230.948 99.5119V105ZM242.069 105.176C241.237 105.176 240.533 105 239.957 104.648C239.381 104.296 238.938 103.811 238.629 103.192C238.33 102.573 238.181 101.853 238.181 101.032C238.181 100.211 238.336 99.4905 238.645 98.8719C238.965 98.2425 239.418 97.7572 240.005 97.4159C240.592 97.0639 241.301 96.8879 242.133 96.8879C242.837 96.8879 243.456 97.0212 243.989 97.2879C244.522 97.5545 244.933 97.9279 245.221 98.4079C245.52 98.8879 245.669 99.4479 245.669 100.088V100.232H243.957V100.136C243.957 99.5492 243.797 99.1225 243.477 98.8559C243.168 98.5785 242.682 98.4399 242.021 98.4399C241.253 98.4399 240.704 98.6585 240.373 99.0959C240.053 99.5225 239.893 100.163 239.893 101.016C239.893 101.88 240.053 102.531 240.373 102.968C240.704 103.395 241.253 103.608 242.021 103.608C242.682 103.608 243.168 103.475 243.477 103.208C243.797 102.931 243.957 102.504 243.957 101.928V101.832H245.669V101.976C245.669 102.595 245.52 103.149 245.221 103.64C244.922 104.12 244.501 104.499 243.957 104.776C243.424 105.043 242.794 105.176 242.069 105.176ZM250.834 105.16C249.97 105.16 249.25 104.989 248.674 104.648C248.098 104.296 247.671 103.811 247.394 103.192C247.117 102.563 246.978 101.837 246.978 101.016C246.978 100.195 247.133 99.4745 247.442 98.8559C247.762 98.2372 248.21 97.7572 248.786 97.4159C249.362 97.0639 250.045 96.8879 250.834 96.8879C251.549 96.8879 252.178 97.0265 252.722 97.3039C253.277 97.5705 253.703 97.9599 254.002 98.4719C254.311 98.9839 254.466 99.6025 254.466 100.328C254.466 100.541 254.455 100.749 254.434 100.952C254.423 101.144 254.407 101.304 254.386 101.432H247.794V100.28H252.978L252.802 100.44C252.845 99.9492 252.791 99.5492 252.642 99.2399C252.503 98.9305 252.274 98.7012 251.954 98.5519C251.645 98.4025 251.255 98.3279 250.786 98.3279C249.943 98.3279 249.367 98.5412 249.058 98.9679C248.749 99.3839 248.594 99.9599 248.594 100.696V101.176C248.594 101.709 248.658 102.163 248.786 102.536C248.925 102.899 249.159 103.171 249.49 103.352C249.821 103.533 250.274 103.624 250.85 103.624C251.522 103.624 251.997 103.517 252.274 103.304C252.551 103.091 252.69 102.808 252.69 102.456V102.328H254.402V102.472C254.402 103.016 254.253 103.491 253.954 103.896C253.655 104.291 253.239 104.6 252.706 104.824C252.183 105.048 251.559 105.16 250.834 105.16Z" fill="black"/>
<path d="M227 -0.000140793C270.766 -0.000142706 306.245 35.8171 306.245 79.9998C306.245 124.183 270.766 160 227 160C183.234 160 147.755 124.183 147.755 79.9998C147.755 35.8171 183.234 -0.00013888 227 -0.000140793ZM227 148.8C264.639 148.8 295.151 117.997 295.151 79.9998C295.151 42.0027 264.639 11.1999 227 11.1999C189.361 11.1999 158.849 42.0027 158.849 79.9998C158.849 117.997 189.361 148.8 227 148.8Z" fill="#DFF0D8"/>
<path d="M227 -0.000140826C237.929 -0.000141304 248.742 2.23912 258.772 6.57948C268.802 10.9199 277.836 17.2693 285.317 25.2361C292.799 33.2029 298.568 42.6181 302.27 52.9008C305.972 63.1836 307.528 74.1158 306.842 85.0231C306.156 95.9304 303.242 106.581 298.281 116.319C293.319 126.057 286.415 134.675 277.994 141.641C269.573 148.607 259.814 153.774 249.319 156.823C238.824 159.872 227.816 160.739 216.973 159.369L218.477 147.464C227.694 148.628 237.051 147.891 245.971 145.3C254.892 142.708 263.187 138.316 270.345 132.395C277.503 126.473 283.371 119.148 287.588 110.871C291.806 102.594 294.282 93.5408 294.866 84.2696C295.449 74.9984 294.127 65.706 290.98 56.9657C287.833 48.2253 282.929 40.2224 276.57 33.4506C270.211 26.6789 262.532 21.2819 254.006 17.5925C245.481 13.9032 236.29 11.9998 227 11.9999L227 -0.000140826Z" fill="#0C3A25"/>
<path d="M0.666667 80.9999C0.666667 83.9454 3.05448 86.3332 6 86.3332C8.94552 86.3332 11.3333 83.9454 11.3333 80.9999C11.3333 78.0544 8.94552 75.6665 6 75.6665C3.05448 75.6665 0.666667 78.0544 0.666667 80.9999ZM6 81.9999H137V79.9999H6V81.9999Z" fill="#B3B3B3"/>
<path d="M441.667 80.0407C441.689 82.9862 444.095 85.3557 447.041 85.3332C449.986 85.3107 452.356 82.9047 452.333 79.9593C452.311 77.0139 449.905 74.6444 446.959 74.6668C444.014 74.6893 441.644 77.0953 441.667 80.0407ZM316.008 82L447.008 81L446.992 79L315.992 80L316.008 82Z" fill="#B3B3B3"/>
</svg>
