<svg width="130" height="132" viewBox="0 0 130 132" fill="none" xmlns="http://www.w3.org/2000/svg">
<path d="M65.4998 76L63.7043 74.8125C55.1693 69.158 44.3698 62.7673 36.3715 53.3742C27.9423 43.4783 23.8982 33.3153 24.0019 22.3012C24.1276 10.0027 34.0692 0 46.1634 0C55.7618 0 62.1441 5.54167 65.4998 9.54156C68.8556 5.54167 75.2379 0 84.8363 0C96.9305 0 106.872 10.0027 106.998 22.2953C107.109 33.3153 103.065 43.4724 94.6282 53.3682C86.6299 62.7673 75.8304 69.158 67.2954 74.8125L65.4998 76Z" fill="#0C3A25"/>
<path d="M32.2216 96.544H28.3176V94.992H32.4296C33.1336 94.992 33.635 94.8373 33.9336 94.528C34.243 94.2187 34.3976 93.68 34.3976 92.912C34.3976 92.144 34.243 91.6053 33.9336 91.296C33.635 90.9867 33.1336 90.832 32.4296 90.832H28.3176V89.28H32.2216C32.9683 89.28 33.635 89.424 34.2216 89.712C34.8083 90 35.267 90.416 35.5976 90.96C35.939 91.4933 36.1096 92.144 36.1096 92.912C36.1096 93.68 35.939 94.336 35.5976 94.88C35.267 95.424 34.8083 95.84 34.2216 96.128C33.635 96.4053 32.9683 96.544 32.2216 96.544ZM29.3896 100H27.6616V89.28H29.3896V100ZM39.2635 100H37.5355V89.28H39.2635V100ZM42.8234 91.04H41.1114L41.0954 89.28H42.8234V91.04ZM42.8394 100H41.1114V92H42.8394V100ZM47.9733 100.16C46.8106 100.16 45.9306 99.9307 45.3333 99.472C44.7359 99.0027 44.4373 98.2827 44.4373 97.312V97.28H46.1013V97.568C46.1013 97.8453 46.1546 98.0747 46.2613 98.256C46.3786 98.4267 46.5706 98.5547 46.8373 98.64C47.1146 98.7147 47.5039 98.752 48.0052 98.752C48.4319 98.752 48.7519 98.72 48.9653 98.656C49.1893 98.5813 49.3386 98.48 49.4133 98.352C49.4879 98.224 49.5253 98.064 49.5253 97.872C49.5253 97.552 49.4133 97.328 49.1893 97.2C48.9653 97.0613 48.5653 96.9387 47.9893 96.832L46.7413 96.624C46.2719 96.528 45.8613 96.3947 45.5093 96.224C45.1679 96.0427 44.9013 95.7973 44.7093 95.488C44.5279 95.168 44.4373 94.768 44.4373 94.288C44.4373 93.5733 44.7199 92.9973 45.2853 92.56C45.8506 92.112 46.6506 91.888 47.6853 91.888C48.3146 91.888 48.8746 91.9893 49.3653 92.192C49.8559 92.3947 50.2453 92.6987 50.5333 93.104C50.8213 93.5093 50.9653 94.016 50.9653 94.624V94.768H49.3173V94.576C49.3173 94.32 49.2746 94.1013 49.1893 93.92C49.1039 93.728 48.9439 93.5787 48.7093 93.472C48.4746 93.3653 48.1173 93.312 47.6373 93.312C47.0079 93.312 46.5919 93.392 46.3893 93.552C46.1866 93.712 46.0853 93.9467 46.0853 94.256C46.0853 94.5653 46.1759 94.784 46.3573 94.912C46.5493 95.0293 46.9226 95.1467 47.4773 95.264L48.8373 95.52C49.3493 95.616 49.7759 95.76 50.1173 95.952C50.4586 96.144 50.7146 96.3947 50.8853 96.704C51.0666 97.0133 51.1573 97.3813 51.1573 97.808C51.1573 98.5547 50.8746 99.136 50.3093 99.552C49.7546 99.9573 48.9759 100.16 47.9733 100.16ZM59.4108 100.16C58.2481 100.16 57.3681 99.9307 56.7708 99.472C56.1734 99.0027 55.8748 98.2827 55.8748 97.312V97.28H57.5388V97.568C57.5388 97.8453 57.5921 98.0747 57.6988 98.256C57.8161 98.4267 58.0081 98.5547 58.2748 98.64C58.5521 98.7147 58.9414 98.752 59.4427 98.752C59.8694 98.752 60.1894 98.72 60.4028 98.656C60.6268 98.5813 60.7761 98.48 60.8508 98.352C60.9254 98.224 60.9628 98.064 60.9628 97.872C60.9628 97.552 60.8508 97.328 60.6268 97.2C60.4028 97.0613 60.0028 96.9387 59.4268 96.832L58.1788 96.624C57.7094 96.528 57.2988 96.3947 56.9468 96.224C56.6054 96.0427 56.3388 95.7973 56.1468 95.488C55.9654 95.168 55.8748 94.768 55.8748 94.288C55.8748 93.5733 56.1574 92.9973 56.7228 92.56C57.2881 92.112 58.0881 91.888 59.1228 91.888C59.7521 91.888 60.3121 91.9893 60.8028 92.192C61.2934 92.3947 61.6828 92.6987 61.9708 93.104C62.2588 93.5093 62.4028 94.016 62.4028 94.624V94.768H60.7548V94.576C60.7548 94.32 60.7121 94.1013 60.6268 93.92C60.5414 93.728 60.3814 93.5787 60.1468 93.472C59.9121 93.3653 59.5548 93.312 59.0748 93.312C58.4454 93.312 58.0294 93.392 57.8268 93.552C57.6241 93.712 57.5228 93.9467 57.5228 94.256C57.5228 94.5653 57.6134 94.784 57.7948 94.912C57.9868 95.0293 58.3601 95.1467 58.9148 95.264L60.2748 95.52C60.7868 95.616 61.2134 95.76 61.5548 95.952C61.8961 96.144 62.1521 96.3947 62.3228 96.704C62.5041 97.0133 62.5948 97.3813 62.5948 97.808C62.5948 98.5547 62.3121 99.136 61.7468 99.552C61.1921 99.9573 60.4134 100.16 59.4108 100.16ZM70.9903 100H69.3903V98.432L69.3423 98V94.944C69.3423 94.3467 69.1983 93.9413 68.9103 93.728C68.6329 93.5147 68.1796 93.408 67.5503 93.408C66.9209 93.408 66.4676 93.52 66.1903 93.744C65.9236 93.968 65.7903 94.3413 65.7903 94.864V95.104H64.1263V94.944C64.1263 94.3467 64.2703 93.8187 64.5583 93.36C64.8569 92.9013 65.2676 92.544 65.7903 92.288C66.3236 92.0213 66.9423 91.888 67.6463 91.888C68.3929 91.888 69.0116 92.0267 69.5023 92.304C69.9929 92.5813 70.3609 92.9653 70.6063 93.456C70.8623 93.936 70.9903 94.5067 70.9903 95.168V100ZM66.4303 100.16C65.7156 100.16 65.1129 99.9787 64.6223 99.616C64.1423 99.2427 63.9023 98.7147 63.9023 98.032C63.9023 97.584 64.0036 97.2107 64.2063 96.912C64.4196 96.6133 64.7236 96.368 65.1183 96.176C65.5129 95.984 65.9929 95.8507 66.5583 95.776L69.5023 95.36V96.576L66.8143 96.976C66.3556 97.04 66.0356 97.136 65.8543 97.264C65.6729 97.392 65.5823 97.6053 65.5823 97.904C65.5823 98.2133 65.6889 98.4373 65.9023 98.576C66.1263 98.7147 66.4889 98.784 66.9903 98.784C67.3743 98.784 67.7423 98.7253 68.0943 98.608C68.4569 98.48 68.7556 98.272 68.9903 97.984C69.2249 97.6853 69.3423 97.2693 69.3423 96.736L69.5663 98.768L69.3103 98.752C69.1609 98.9973 68.9529 99.2267 68.6863 99.44C68.4303 99.6533 68.1156 99.8293 67.7423 99.968C67.3689 100.096 66.9316 100.16 66.4303 100.16ZM76.1291 100C75.2545 100 74.5825 99.8133 74.1131 99.44C73.6545 99.0667 73.4251 98.4373 73.4251 97.552V92.224L73.8251 90.08H75.1531V97.472C75.1531 97.888 75.2545 98.1547 75.4571 98.272C75.6705 98.3787 76.0491 98.432 76.5931 98.432H77.5531V99.856C77.3931 99.8987 77.1851 99.936 76.9291 99.968C76.6731 99.9893 76.4065 100 76.1291 100ZM77.5531 93.488H72.0971V92.048H77.5531V93.488ZM80.5421 91.04H78.8301L78.8141 89.28H80.5421V91.04ZM80.5581 100H78.8301V92H80.5581V100ZM85.692 100.16C84.5293 100.16 83.6493 99.9307 83.052 99.472C82.4547 99.0027 82.156 98.2827 82.156 97.312V97.28H83.82V97.568C83.82 97.8453 83.8733 98.0747 83.98 98.256C84.0973 98.4267 84.2893 98.5547 84.556 98.64C84.8333 98.7147 85.2227 98.752 85.724 98.752C86.1507 98.752 86.4707 98.72 86.684 98.656C86.908 98.5813 87.0573 98.48 87.132 98.352C87.2067 98.224 87.244 98.064 87.244 97.872C87.244 97.552 87.132 97.328 86.908 97.2C86.684 97.0613 86.284 96.9387 85.708 96.832L84.46 96.624C83.9907 96.528 83.58 96.3947 83.228 96.224C82.8867 96.0427 82.62 95.7973 82.428 95.488C82.2467 95.168 82.156 94.768 82.156 94.288C82.156 93.5733 82.4387 92.9973 83.004 92.56C83.5693 92.112 84.3693 91.888 85.404 91.888C86.0333 91.888 86.5933 91.9893 87.084 92.192C87.5747 92.3947 87.964 92.6987 88.252 93.104C88.54 93.5093 88.684 94.016 88.684 94.624V94.768H87.036V94.576C87.036 94.32 86.9933 94.1013 86.908 93.92C86.8227 93.728 86.6627 93.5787 86.428 93.472C86.1933 93.3653 85.836 93.312 85.356 93.312C84.7267 93.312 84.3107 93.392 84.108 93.552C83.9053 93.712 83.804 93.9467 83.804 94.256C83.804 94.5653 83.8947 94.784 84.076 94.912C84.268 95.0293 84.6413 95.1467 85.196 95.264L86.556 95.52C87.068 95.616 87.4947 95.76 87.836 95.952C88.1773 96.144 88.4333 96.3947 88.604 96.704C88.7853 97.0133 88.876 97.3813 88.876 97.808C88.876 98.5547 88.5933 99.136 88.028 99.552C87.4733 99.9573 86.6947 100.16 85.692 100.16ZM92.5701 100H90.8421V92.112C90.8421 91.4933 90.9595 90.976 91.1941 90.56C91.4288 90.144 91.7755 89.8293 92.2341 89.616C92.7035 89.392 93.2795 89.28 93.9621 89.28C94.0688 89.28 94.1755 89.28 94.2821 89.28C94.3888 89.28 94.4955 89.28 94.6021 89.28V90.656H93.6421C93.2581 90.656 92.9755 90.7307 92.7941 90.88C92.6128 91.0293 92.5221 91.2747 92.5221 91.616V92.32L92.5701 92.736V100ZM94.6021 93.488H89.6741V92.048H94.6021V93.488ZM98.9934 100.16C98.1294 100.16 97.4094 99.9893 96.8334 99.648C96.2574 99.296 95.8307 98.8107 95.5534 98.192C95.276 97.5627 95.1374 96.8373 95.1374 96.016C95.1374 95.1947 95.292 94.4747 95.6014 93.856C95.9214 93.2373 96.3694 92.7573 96.9454 92.416C97.5214 92.064 98.204 91.888 98.9934 91.888C99.708 91.888 100.337 92.0267 100.881 92.304C101.436 92.5707 101.863 92.96 102.161 93.472C102.471 93.984 102.625 94.6027 102.625 95.328C102.625 95.5413 102.615 95.7493 102.593 95.952C102.583 96.144 102.567 96.304 102.545 96.432H95.9534V95.28H101.137L100.961 95.44C101.004 94.9493 100.951 94.5493 100.801 94.24C100.663 93.9307 100.433 93.7013 100.113 93.552C99.804 93.4027 99.4147 93.328 98.9454 93.328C98.1027 93.328 97.5267 93.5413 97.2174 93.968C96.908 94.384 96.7534 94.96 96.7534 95.696V96.176C96.7534 96.7093 96.8174 97.1627 96.9454 97.536C97.084 97.8987 97.3187 98.1707 97.6494 98.352C97.98 98.5333 98.4334 98.624 99.0094 98.624C99.6814 98.624 100.156 98.5173 100.433 98.304C100.711 98.0907 100.849 97.808 100.849 97.456V97.328H102.561V97.472C102.561 98.016 102.412 98.4907 102.113 98.896C101.815 99.2907 101.399 99.6 100.865 99.824C100.343 100.048 99.7187 100.16 98.9934 100.16ZM100.001 91.04H98.1934L95.9854 89.04V88.96H98.2734L100.001 90.96V91.04Z" fill="black"/>
</svg>
