<svg width="130" height="130" viewBox="0 0 130 130" fill="none" xmlns="http://www.w3.org/2000/svg">
<path d="M64.4998 76L62.7043 74.8125C54.1693 69.158 43.3698 62.7673 35.3715 53.3742C26.9423 43.4783 22.8982 33.3153 23.0019 22.3012C23.1276 10.0027 33.0692 0 45.1634 0C54.7618 0 61.1441 5.54167 64.4998 9.54156C67.8556 5.54167 74.2379 0 83.8363 0C95.9305 0 105.872 10.0027 105.998 22.2953C106.109 33.3153 102.065 43.4724 93.6282 53.3682C85.6299 62.7673 74.8304 69.158 66.2954 74.8125L64.4998 76Z" fill="#0C3A25"/>
<path d="M31.3857 94.544H27.4817V92.992H31.5937C32.2977 92.992 32.799 92.8373 33.0977 92.528C33.407 92.2187 33.5617 91.68 33.5617 90.912C33.5617 90.144 33.407 89.6053 33.0977 89.296C32.799 88.9867 32.2977 88.832 31.5937 88.832H27.4817V87.28H31.3857C32.1324 87.28 32.799 87.424 33.3857 87.712C33.9724 88 34.431 88.416 34.7617 88.96C35.103 89.4933 35.2737 90.144 35.2737 90.912C35.2737 91.68 35.103 92.336 34.7617 92.88C34.431 93.424 33.9724 93.84 33.3857 94.128C32.799 94.4053 32.1324 94.544 31.3857 94.544ZM28.5537 98H26.8257V87.28H28.5537V98ZM38.4276 98H36.6996V87.28H38.4276V98ZM41.9874 89.04H40.2754L40.2594 87.28H41.9874V89.04ZM42.0034 98H40.2754V90H42.0034V98ZM47.1373 98.16C45.9746 98.16 45.0946 97.9307 44.4973 97.472C43.9 97.0027 43.6013 96.2827 43.6013 95.312V95.28H45.2653V95.568C45.2653 95.8453 45.3186 96.0747 45.4253 96.256C45.5426 96.4267 45.7346 96.5547 46.0013 96.64C46.2786 96.7147 46.668 96.752 47.1693 96.752C47.596 96.752 47.916 96.72 48.1293 96.656C48.3533 96.5813 48.5026 96.48 48.5773 96.352C48.652 96.224 48.6893 96.064 48.6893 95.872C48.6893 95.552 48.5773 95.328 48.3533 95.2C48.1293 95.0613 47.7293 94.9387 47.1533 94.832L45.9053 94.624C45.436 94.528 45.0253 94.3947 44.6733 94.224C44.332 94.0427 44.0653 93.7973 43.8733 93.488C43.692 93.168 43.6013 92.768 43.6013 92.288C43.6013 91.5733 43.884 90.9973 44.4493 90.56C45.0146 90.112 45.8146 89.888 46.8493 89.888C47.4786 89.888 48.0386 89.9893 48.5293 90.192C49.02 90.3947 49.4093 90.6987 49.6973 91.104C49.9853 91.5093 50.1293 92.016 50.1293 92.624V92.768H48.4813V92.576C48.4813 92.32 48.4386 92.1013 48.3533 91.92C48.268 91.728 48.108 91.5787 47.8733 91.472C47.6386 91.3653 47.2813 91.312 46.8013 91.312C46.172 91.312 45.756 91.392 45.5533 91.552C45.3506 91.712 45.2493 91.9467 45.2493 92.256C45.2493 92.5653 45.34 92.784 45.5213 92.912C45.7133 93.0293 46.0866 93.1467 46.6413 93.264L48.0013 93.52C48.5133 93.616 48.94 93.76 49.2813 93.952C49.6226 94.144 49.8786 94.3947 50.0493 94.704C50.2306 95.0133 50.3213 95.3813 50.3213 95.808C50.3213 96.5547 50.0386 97.136 49.4733 97.552C48.9186 97.9573 48.14 98.16 47.1373 98.16ZM59.6148 98.16C58.5908 98.16 57.7535 98.016 57.1028 97.728C56.4521 97.4293 55.9668 97.0187 55.6468 96.496C55.3375 95.9627 55.1828 95.3547 55.1828 94.672V94.4H56.8788V94.576C56.8788 95.0133 56.9535 95.3813 57.1028 95.68C57.2628 95.9787 57.5455 96.2027 57.9508 96.352C58.3561 96.5013 58.9375 96.576 59.6948 96.576C60.4841 96.576 61.0388 96.464 61.3588 96.24C61.6788 96.0053 61.8388 95.6427 61.8388 95.152C61.8388 94.8213 61.7908 94.5547 61.6948 94.352C61.5988 94.1493 61.4068 93.984 61.1188 93.856C60.8415 93.7173 60.4255 93.5947 59.8708 93.488L58.0468 93.12C57.4281 93.0027 56.9108 92.8213 56.4948 92.576C56.0788 92.32 55.7588 91.9947 55.5348 91.6C55.3215 91.2053 55.2148 90.7307 55.2148 90.176C55.2148 89.6427 55.3535 89.1467 55.6308 88.688C55.9188 88.2187 56.3561 87.84 56.9428 87.552C57.5401 87.264 58.2975 87.12 59.2148 87.12C60.1961 87.12 60.9908 87.2853 61.5988 87.616C62.2175 87.9467 62.6655 88.384 62.9428 88.928C63.2308 89.4613 63.3748 90.048 63.3748 90.688V90.88H61.6628V90.704C61.6628 90.256 61.5881 89.888 61.4388 89.6C61.3001 89.3013 61.0441 89.0773 60.6708 88.928C60.3081 88.768 59.8121 88.688 59.1828 88.688C58.3935 88.688 57.8228 88.8053 57.4708 89.04C57.1188 89.2747 56.9428 89.6267 56.9428 90.096C56.9428 90.416 56.9961 90.672 57.1028 90.864C57.2201 91.056 57.4175 91.2107 57.6948 91.328C57.9828 91.4347 58.3668 91.5467 58.8468 91.664L60.6708 92.048C61.3535 92.176 61.9028 92.3787 62.3188 92.656C62.7455 92.9333 63.0601 93.2747 63.2628 93.68C63.4655 94.0747 63.5668 94.544 63.5668 95.088C63.5668 95.6427 63.4281 96.1547 63.1508 96.624C62.8735 97.0933 62.4415 97.4667 61.8548 97.744C61.2788 98.0213 60.5321 98.16 59.6148 98.16ZM71.8262 98H70.2262V96.432L70.1782 96V92.944C70.1782 92.3467 70.0342 91.9413 69.7462 91.728C69.4689 91.5147 69.0155 91.408 68.3862 91.408C67.7569 91.408 67.3035 91.52 67.0262 91.744C66.7595 91.968 66.6262 92.3413 66.6262 92.864V93.104H64.9622V92.944C64.9622 92.3467 65.1062 91.8187 65.3942 91.36C65.6929 90.9013 66.1035 90.544 66.6262 90.288C67.1595 90.0213 67.7782 89.888 68.4822 89.888C69.2289 89.888 69.8475 90.0267 70.3382 90.304C70.8289 90.5813 71.1969 90.9653 71.4422 91.456C71.6982 91.936 71.8262 92.5067 71.8262 93.168V98ZM67.2662 98.16C66.5515 98.16 65.9489 97.9787 65.4582 97.616C64.9782 97.2427 64.7382 96.7147 64.7382 96.032C64.7382 95.584 64.8395 95.2107 65.0422 94.912C65.2555 94.6133 65.5595 94.368 65.9542 94.176C66.3489 93.984 66.8289 93.8507 67.3942 93.776L70.3382 93.36V94.576L67.6502 94.976C67.1915 95.04 66.8715 95.136 66.6902 95.264C66.5089 95.392 66.4182 95.6053 66.4182 95.904C66.4182 96.2133 66.5249 96.4373 66.7382 96.576C66.9622 96.7147 67.3249 96.784 67.8262 96.784C68.2102 96.784 68.5782 96.7253 68.9302 96.608C69.2929 96.48 69.5915 96.272 69.8262 95.984C70.0609 95.6853 70.1782 95.2693 70.1782 94.736L70.4022 96.768L70.1462 96.752C69.9969 96.9973 69.7889 97.2267 69.5222 97.44C69.2662 97.6533 68.9515 97.8293 68.5782 97.968C68.2049 98.096 67.7675 98.16 67.2662 98.16ZM76.9651 98C76.0904 98 75.4184 97.8133 74.9491 97.44C74.4904 97.0667 74.2611 96.4373 74.2611 95.552V90.224L74.6611 88.08H75.9891V95.472C75.9891 95.888 76.0904 96.1547 76.2931 96.272C76.5064 96.3787 76.8851 96.432 77.4291 96.432H78.3891V97.856C78.2291 97.8987 78.0211 97.936 77.7651 97.968C77.5091 97.9893 77.2424 98 76.9651 98ZM78.3891 91.488H72.9331V90.048H78.3891V91.488ZM81.3781 89.04H79.6661L79.6501 87.28H81.3781V89.04ZM81.3941 98H79.6661V90H81.3941V98ZM86.5279 98.16C85.3653 98.16 84.4853 97.9307 83.8879 97.472C83.2906 97.0027 82.9919 96.2827 82.9919 95.312V95.28H84.6559V95.568C84.6559 95.8453 84.7093 96.0747 84.8159 96.256C84.9333 96.4267 85.1253 96.5547 85.3919 96.64C85.6693 96.7147 86.0586 96.752 86.5599 96.752C86.9866 96.752 87.3066 96.72 87.5199 96.656C87.7439 96.5813 87.8933 96.48 87.9679 96.352C88.0426 96.224 88.0799 96.064 88.0799 95.872C88.0799 95.552 87.9679 95.328 87.7439 95.2C87.5199 95.0613 87.1199 94.9387 86.5439 94.832L85.2959 94.624C84.8266 94.528 84.4159 94.3947 84.0639 94.224C83.7226 94.0427 83.4559 93.7973 83.2639 93.488C83.0826 93.168 82.9919 92.768 82.9919 92.288C82.9919 91.5733 83.2746 90.9973 83.8399 90.56C84.4053 90.112 85.2053 89.888 86.2399 89.888C86.8693 89.888 87.4293 89.9893 87.9199 90.192C88.4106 90.3947 88.7999 90.6987 89.0879 91.104C89.3759 91.5093 89.5199 92.016 89.5199 92.624V92.768H87.8719V92.576C87.8719 92.32 87.8293 92.1013 87.7439 91.92C87.6586 91.728 87.4986 91.5787 87.2639 91.472C87.0293 91.3653 86.6719 91.312 86.1919 91.312C85.5626 91.312 85.1466 91.392 84.9439 91.552C84.7413 91.712 84.6399 91.9467 84.6399 92.256C84.6399 92.5653 84.7306 92.784 84.9119 92.912C85.1039 93.0293 85.4773 93.1467 86.0319 93.264L87.3919 93.52C87.9039 93.616 88.3306 93.76 88.6719 93.952C89.0133 94.144 89.2693 94.3947 89.4399 94.704C89.6213 95.0133 89.7119 95.3813 89.7119 95.808C89.7119 96.5547 89.4293 97.136 88.8639 97.552C88.3093 97.9573 87.5306 98.16 86.5279 98.16ZM93.4061 98H91.6781V90.112C91.6781 89.4933 91.7954 88.976 92.0301 88.56C92.2647 88.144 92.6114 87.8293 93.0701 87.616C93.5394 87.392 94.1154 87.28 94.7981 87.28C94.9047 87.28 95.0114 87.28 95.1181 87.28C95.2247 87.28 95.3314 87.28 95.4381 87.28V88.656H94.4781C94.0941 88.656 93.8114 88.7307 93.6301 88.88C93.4487 89.0293 93.3581 89.2747 93.3581 89.616V90.32L93.4061 90.736V98ZM95.4381 91.488H90.5101V90.048H95.4381V91.488ZM99.8293 98.16C98.9653 98.16 98.2453 97.9893 97.6693 97.648C97.0933 97.296 96.6666 96.8107 96.3893 96.192C96.112 95.5627 95.9733 94.8373 95.9733 94.016C95.9733 93.1947 96.128 92.4747 96.4373 91.856C96.7573 91.2373 97.2053 90.7573 97.7813 90.416C98.3573 90.064 99.04 89.888 99.8293 89.888C100.544 89.888 101.173 90.0267 101.717 90.304C102.272 90.5707 102.699 90.96 102.997 91.472C103.307 91.984 103.461 92.6027 103.461 93.328C103.461 93.5413 103.451 93.7493 103.429 93.952C103.419 94.144 103.403 94.304 103.381 94.432H96.7893V93.28H101.973L101.797 93.44C101.84 92.9493 101.787 92.5493 101.637 92.24C101.499 91.9307 101.269 91.7013 100.949 91.552C100.64 91.4027 100.251 91.328 99.7813 91.328C98.9386 91.328 98.3626 91.5413 98.0533 91.968C97.744 92.384 97.5893 92.96 97.5893 93.696V94.176C97.5893 94.7093 97.6533 95.1627 97.7813 95.536C97.92 95.8987 98.1546 96.1707 98.4853 96.352C98.816 96.5333 99.2693 96.624 99.8453 96.624C100.517 96.624 100.992 96.5173 101.269 96.304C101.547 96.0907 101.685 95.808 101.685 95.456V95.328H103.397V95.472C103.397 96.016 103.248 96.4907 102.949 96.896C102.651 97.2907 102.235 97.6 101.701 97.824C101.179 98.048 100.555 98.16 99.8293 98.16ZM100.837 89.04H99.0293L96.8213 87.04V86.96H99.1093L100.837 88.96V89.04Z" fill="black"/>
</svg>
