<svg width="18" height="19" viewBox="0 0 18 19" fill="none" xmlns="http://www.w3.org/2000/svg">
<path d="M14.4291 11.2347C14.4291 11.3706 14.3888 11.5035 14.3133 11.6165C14.2378 11.7295 14.1305 11.8175 14.0049 11.8695C13.8793 11.9215 13.7412 11.9351 13.6079 11.9086C13.4746 11.8821 13.3522 11.8167 13.2561 11.7206C13.16 11.6245 13.0946 11.5021 13.068 11.3688C13.0415 11.2355 13.0551 11.0973 13.1071 10.9718C13.1592 10.8462 13.2472 10.7389 13.3602 10.6634C13.4732 10.5879 13.6061 10.5476 13.742 10.5476C13.9242 10.5476 14.099 10.62 14.2278 10.7489C14.3567 10.8777 14.4291 11.0525 14.4291 11.2347ZM14.1302 13.8169C14.0358 14.5826 13.665 15.2875 13.0873 15.799C12.5097 16.3105 11.7651 16.5933 10.9935 16.5942H9.34445C8.50652 16.5931 7.70321 16.2597 7.1107 15.6672C6.51819 15.0747 6.18484 14.2714 6.18375 13.4335V10.5277C5.13024 10.4253 4.15259 9.93429 3.44127 9.15045C2.72995 8.3666 2.33592 7.34602 2.33594 6.28754V3.5391C2.33594 3.28398 2.43729 3.0393 2.61769 2.8589C2.79809 2.6785 3.04276 2.57715 3.29789 2.57715H4.39727C4.50661 2.57715 4.61147 2.62058 4.68878 2.6979C4.7661 2.77521 4.80953 2.88007 4.80953 2.98941C4.80953 3.09875 4.7661 3.20362 4.68878 3.28093C4.61147 3.35824 4.50661 3.40168 4.39727 3.40168H3.29789C3.26144 3.40168 3.22649 3.41616 3.20072 3.44193C3.17495 3.4677 3.16047 3.50266 3.16047 3.5391V6.28754C3.16047 7.1987 3.52243 8.07255 4.16672 8.71684C4.81101 9.36113 5.68485 9.72309 6.59602 9.72309H6.64205C8.51099 9.69835 10.0316 8.13174 10.0316 6.23051V3.5391C10.0316 3.50266 10.0171 3.4677 9.99131 3.44193C9.96554 3.41616 9.93059 3.40168 9.89414 3.40168H8.79477C8.68543 3.40168 8.58056 3.35824 8.50325 3.28093C8.42594 3.20362 8.3825 3.09875 8.3825 2.98941C8.3825 2.88007 8.42594 2.77521 8.50325 2.6979C8.58056 2.62058 8.68543 2.57715 8.79477 2.57715H9.89414C10.1493 2.57715 10.3939 2.6785 10.5743 2.8589C10.7547 3.0393 10.8561 3.28398 10.8561 3.5391V6.23051C10.8561 8.4588 9.16031 10.3147 7.00828 10.5263V13.4335C7.00828 14.0531 7.25441 14.6473 7.69253 15.0854C8.13065 15.5235 8.72486 15.7696 9.34445 15.7696H10.9935C11.5481 15.7689 12.0844 15.5712 12.5067 15.2118C12.9291 14.8524 13.21 14.3546 13.2995 13.8073C12.6527 13.6953 12.0717 13.3439 11.6724 12.8229C11.2731 12.3019 11.0846 11.6497 11.1446 10.996C11.2045 10.3423 11.5085 9.73522 11.9959 9.29559C12.4834 8.85595 13.1185 8.61604 13.7749 8.62364C14.4313 8.63124 15.0607 8.8858 15.5378 9.3366C16.015 9.78741 16.3048 10.4014 16.3496 11.0563C16.3944 11.7112 16.1909 12.3589 15.7796 12.8705C15.3683 13.3821 14.7794 13.72 14.1302 13.8169ZM15.5284 11.2347C15.5284 10.8814 15.4237 10.536 15.2274 10.2422C15.0311 9.94842 14.752 9.71945 14.4256 9.58423C14.0992 9.44902 13.74 9.41364 13.3934 9.48257C13.0469 9.5515 12.7286 9.72165 12.4787 9.97149C12.2289 10.2213 12.0587 10.5397 11.9898 10.8862C11.9209 11.2327 11.9562 11.5919 12.0915 11.9184C12.2267 12.2448 12.4557 12.5238 12.7494 12.7201C13.0432 12.9164 13.3886 13.0212 13.742 13.0212C13.9766 13.0212 14.2089 12.975 14.4256 12.8852C14.6424 12.7954 14.8393 12.6639 15.0052 12.498C15.1711 12.3321 15.3027 12.1351 15.3925 11.9184C15.4822 11.7016 15.5284 11.4693 15.5284 11.2347Z" fill="#0C3A25"/>
</svg>
