<svg width="358" height="527" viewBox="0 0 358 527" fill="none" xmlns="http://www.w3.org/2000/svg">
<path d="M418.559 378.372C431.298 382.894 438.182 397.128 430.771 408.434C420.57 423.998 406.228 436.623 389.148 444.754C364.631 456.425 336.481 457.879 310.892 448.796C285.302 439.713 264.369 420.836 252.697 396.318C244.567 379.239 241.394 360.396 243.289 341.884C244.665 328.436 258.983 321.727 271.722 326.25C284.462 330.772 290.499 345.124 292.077 358.55C292.753 364.298 294.364 369.951 296.899 375.276C302.99 388.071 313.914 397.921 327.268 402.662C340.622 407.402 355.312 406.643 368.106 400.552C373.431 398.017 378.246 394.645 382.395 390.61C392.085 381.184 405.819 373.85 418.559 378.372Z" fill="#DFF0D8"/>
<path d="M82.1195 511.769C71.4412 520.059 55.7418 518.18 50.2167 505.842C42.6113 488.859 39.7132 469.972 42.0763 451.204C45.4685 424.263 59.4241 399.773 80.8729 383.121C102.322 366.469 129.507 359.02 156.448 362.412C175.216 364.776 192.795 372.265 207.363 383.843C217.946 392.254 215.875 407.929 205.196 416.219C194.518 424.509 179.176 421.853 167.019 415.943C161.813 413.412 156.184 411.72 150.333 410.983C136.273 409.213 122.087 413.101 110.893 421.79C99.7003 430.48 92.4176 443.26 90.6473 457.319C89.9106 463.171 90.1538 469.044 91.3152 474.714C94.0278 487.958 92.7977 503.479 82.1195 511.769Z" fill="#DFF0D8"/>
<path d="M357.665 260.206C367.664 261.825 391.701 274.704 393.305 280.483C394.909 286.263 385.154 288.153 376.939 295.883C367.612 304.66 359.814 316.256 347.945 317.406C332.955 318.858 323.404 300.779 322.287 294.445C320.356 283.501 323.503 273.199 331.89 266.664C341.764 258.97 349.42 258.871 357.665 260.206Z" fill="#DFF0D8"/>
<path d="M261.877 278.127C251.8 287.139 236.008 286.354 229.64 274.43C220.873 258.015 216.671 239.376 217.725 220.489C219.239 193.377 231.46 167.977 251.701 149.876C271.942 131.776 298.544 122.457 325.656 123.97C344.543 125.025 362.599 131.276 377.936 141.814C389.077 149.47 388.099 165.251 378.022 174.263C367.946 183.274 352.456 181.69 339.918 176.637C334.549 174.474 328.816 173.178 322.927 172.849C308.779 172.059 294.897 176.922 284.334 186.368C273.771 195.814 267.393 209.069 266.604 223.217C266.275 229.105 266.925 234.948 268.478 240.523C272.103 253.547 271.954 269.116 261.877 278.127Z" fill="#DFF0D8"/>
<path d="M218.854 469.792C212.827 477.932 204.611 503.935 207.499 509.192C210.386 514.45 218.689 508.992 229.967 508.79C242.773 508.56 256.452 511.417 265.751 503.953C277.496 494.526 271.71 474.915 268.087 469.601C261.828 460.418 252.382 455.24 241.815 456.418C229.375 457.805 223.825 463.079 218.854 469.792Z" fill="#DFF0D8"/>
<path d="M177.308 281.793C186.179 286.681 204.482 306.897 204.047 312.88C203.613 318.862 193.791 317.36 183.454 321.875C171.717 327.001 160.473 335.298 148.909 332.387C134.304 328.711 131.393 308.472 132.472 302.132C134.337 291.176 140.766 282.533 150.863 279.202C162.75 275.279 169.993 277.762 177.308 281.793Z" fill="#DFF0D8"/>
<path d="M337.409 14.6004C329.457 20.8732 314.706 43.8096 316.112 49.6404C317.519 55.4713 326.963 52.3833 337.899 55.1477C350.316 58.2864 362.766 64.6327 373.698 59.8706C387.505 53.856 387.068 33.4133 384.967 27.335C381.336 16.8315 373.58 9.35651 363.075 7.72022C350.706 5.79379 343.967 9.4275 337.409 14.6004Z" fill="#DFF0D8"/>
</svg>
