<svg width="397" height="290" viewBox="0 0 397 290" fill="none" xmlns="http://www.w3.org/2000/svg">
<path d="M263.515 125.023C259.28 130.167 253.006 146.975 254.725 150.526C256.445 154.078 262.084 150.772 269.501 151.019C277.922 151.3 286.813 153.638 293.174 149.048C301.208 143.251 298.068 130.171 295.868 126.557C292.065 120.313 286.033 116.593 279.051 117.01C270.831 117.502 267.007 120.78 263.515 125.023Z" fill="#DFF0D8"/>
<path d="M241.617 154.736C249.417 150.464 259.419 153.322 261.721 161.912C264.891 173.736 264.804 186.306 261.312 198.251C256.3 215.397 244.682 229.85 229.013 238.429C213.345 247.009 194.91 249.013 177.764 244.001C165.819 240.509 155.182 233.811 146.927 224.772C140.929 218.205 143.909 208.239 151.709 203.968C159.51 199.696 169.198 203.021 176.479 208.128C179.596 210.315 183.077 212 186.801 213.089C195.748 215.705 205.369 214.659 213.545 210.181C221.722 205.704 227.785 198.162 230.4 189.214C231.489 185.49 231.943 181.65 231.78 177.846C231.399 168.961 233.816 159.007 241.617 154.736Z" fill="#DFF0D8"/>
<path d="M352.714 128.478C360.756 132.274 370.569 128.822 372.352 120.109C374.807 108.116 373.967 95.5741 369.766 83.8604C363.735 67.0456 351.271 53.3154 335.117 45.6902C318.962 38.0651 300.44 37.1695 283.625 43.2006C271.912 47.4021 261.695 54.7253 253.996 64.2433C248.403 71.1579 251.975 80.9273 260.017 84.7235C268.06 88.5196 277.532 84.6202 284.493 79.0859C287.474 76.7163 290.847 74.8251 294.499 73.5152C303.273 70.3679 312.939 70.8352 321.369 74.8145C329.8 78.7937 336.304 85.9588 339.451 94.7336C340.761 98.3855 341.445 102.192 341.51 105.999C341.662 114.891 344.672 124.682 352.714 128.478Z" fill="#DFF0D8"/>
<path d="M11.3858 206.013C5.09728 199.725 5.03364 189.323 12.6326 184.703C23.0928 178.343 35.1821 174.899 47.6266 174.899C65.4902 174.899 82.6222 181.995 95.2537 194.627C107.885 207.258 114.982 224.39 114.982 242.254C114.982 254.698 111.538 266.788 105.178 277.248C100.558 284.847 90.1558 284.783 83.8673 278.495C77.5788 272.206 78.0514 261.974 80.9104 253.553C82.1345 249.947 82.7759 246.134 82.7759 242.254C82.7759 232.932 79.0727 223.991 72.4809 217.4C65.8891 210.808 56.9487 207.105 47.6266 207.105C43.7469 207.105 39.9334 207.746 36.3277 208.97C27.9065 211.829 17.6744 212.302 11.3858 206.013Z" fill="#DFF0D8"/>
<path d="M188.617 148.93C183.173 152.772 172.678 167.322 173.397 171.202C174.117 175.081 180.429 173.384 187.516 175.584C195.563 178.082 203.519 182.687 210.868 179.943C220.149 176.476 220.58 163.031 219.413 158.964C217.396 151.937 212.563 146.754 205.719 145.311C197.661 143.611 193.107 145.762 188.617 148.93Z" fill="#DFF0D8"/>
<path d="M248.712 34.7774C257.013 31.5868 266.543 35.7554 267.677 44.5761C269.238 56.7181 267.472 69.1637 262.415 80.5344C255.156 96.8568 241.711 109.627 225.036 116.036C208.362 122.445 189.824 121.967 173.502 114.708C162.131 109.651 152.484 101.592 145.511 91.5304C140.445 84.221 144.73 74.7426 153.031 71.5521C161.333 68.3615 170.49 72.9512 177.023 78.9854C179.82 81.569 183.044 83.7047 186.589 85.2812C195.107 89.0693 204.78 89.3186 213.482 85.9741C222.184 82.6297 229.2 75.9655 232.988 67.4477C234.565 63.9027 235.528 60.1576 235.875 56.3657C236.685 47.5093 240.411 37.968 248.712 34.7774Z" fill="#DFF0D8"/>
<path d="M115.88 130.507C121.716 133.723 133.756 147.023 133.471 150.958C133.185 154.894 126.724 153.906 119.923 156.876C112.202 160.249 104.804 165.707 97.1972 163.792C87.5893 161.373 85.674 148.059 86.3839 143.888C87.6106 136.68 91.8403 130.995 98.4827 128.803C106.303 126.222 111.068 127.855 115.88 130.507Z" fill="#DFF0D8"/>
<path d="M221.377 11.3322C227.827 13.0041 242.783 22.9112 243.48 26.7951C244.177 30.679 237.672 31.3201 231.818 35.8806C225.171 41.0587 219.354 48.1773 211.51 48.2041C201.602 48.238 196.452 35.8112 196.108 31.5943C195.513 24.3074 198.205 17.7521 204.098 13.9849C211.037 9.54964 216.058 9.9534 221.377 11.3322Z" fill="#DFF0D8"/>
</svg>
