<svg width="412" height="262" viewBox="0 0 412 262" fill="none" xmlns="http://www.w3.org/2000/svg">
<path d="M183.402 212.825C187.005 209.018 186.87 202.892 182.316 200.296C176.046 196.723 168.864 194.895 161.53 195.1C151.002 195.395 141.022 199.856 133.786 207.504C126.55 215.151 122.65 225.357 122.945 235.877C123.151 243.205 125.38 250.268 129.301 256.323C132.15 260.722 138.279 260.513 141.881 256.705C145.484 252.898 145.036 246.88 143.212 241.968C142.431 239.865 141.99 237.63 141.926 235.345C141.772 229.855 143.807 224.529 147.583 220.539C151.359 216.548 156.567 214.22 162.061 214.066C164.348 214.002 166.606 214.317 168.751 214.978C173.762 216.523 179.8 216.632 183.402 212.825Z" fill="#DFF0D8"/>
<path d="M190.493 240.767C186.692 239.773 177.886 233.917 177.48 231.628C177.075 229.339 180.911 228.97 184.368 226.291C188.294 223.249 191.733 219.063 196.358 219.057C202.199 219.05 205.219 226.377 205.417 228.862C205.758 233.156 204.163 237.014 200.683 239.226C196.587 241.83 193.627 241.586 190.493 240.767Z" fill="#DFF0D8"/>
<path d="M411.902 94.764C412.652 89.5784 409.009 84.6481 403.79 85.1488C396.605 85.838 389.681 88.4778 383.805 92.8678C375.369 99.1695 369.785 108.561 368.28 118.977C366.774 129.393 369.472 139.98 375.779 148.409C380.172 154.281 386.066 158.77 392.762 161.462C397.627 163.418 402.516 159.718 403.265 154.533C404.015 149.347 400.179 144.686 395.856 141.721C394.005 140.452 392.356 138.878 390.986 137.048C387.695 132.649 386.287 127.125 387.073 121.689C387.858 116.253 390.773 111.352 395.175 108.064C397.007 106.695 399.034 105.652 401.169 104.958C406.154 103.336 411.153 99.9496 411.902 94.764Z" fill="#DFF0D8"/>
<path d="M326.535 227.742C326.19 231.837 329.097 242.628 331.336 243.866C333.576 245.103 335.354 241.472 339.403 239.059C344 236.32 349.613 234.478 351.299 229.939C353.428 224.206 346.885 218.556 344.367 217.451C340.014 215.543 335.412 215.695 331.842 218.301C327.639 221.369 326.819 224.364 326.535 227.742Z" fill="#DFF0D8"/>
<path d="M253.658 53.554C249.607 54.2644 239.905 59.8231 239.278 62.3019C238.651 64.7806 242.618 65.5737 245.984 68.8712C249.807 72.6152 253.02 77.5698 257.842 78.042C263.932 78.6385 267.733 70.8768 268.16 68.1616C268.898 63.4697 267.578 59.0617 264.147 56.2765C260.107 52.9973 256.999 52.9681 253.658 53.554Z" fill="#DFF0D8"/>
<path d="M262.892 195.569C262.175 200.651 257.398 204.29 252.627 202.391C246.059 199.776 240.271 195.397 235.948 189.66C229.743 181.425 227.066 171.063 228.507 160.856C229.947 150.648 235.387 141.43 243.629 135.23C249.371 130.911 256.145 128.303 263.18 127.604C268.291 127.097 271.875 131.915 271.158 136.996C270.44 142.078 265.555 145.412 260.677 147.016C258.588 147.703 256.606 148.731 254.816 150.078C250.515 153.313 247.676 158.124 246.924 163.451C246.172 168.777 247.569 174.185 250.807 178.482C252.155 180.271 253.776 181.806 255.593 183.044C259.837 185.934 263.609 190.487 262.892 195.569Z" fill="#DFF0D8"/>
<path d="M300.024 161.028C299.226 164.789 293.897 173.668 291.674 174.17C289.451 174.672 288.913 170.938 286.131 167.682C282.971 163.984 278.714 160.814 278.495 156.292C278.22 150.582 285.256 147.292 287.68 146.984C291.869 146.453 295.72 147.835 298.046 151.135C300.785 155.021 300.682 157.926 300.024 161.028Z" fill="#DFF0D8"/>
<path d="M273.174 194.497C275.211 189.669 280.877 187.325 285.089 190.446C290.887 194.742 295.454 200.574 298.219 207.365C302.188 217.113 302.119 228.037 298.027 237.735C293.936 247.432 286.156 255.108 276.401 259.074C269.604 261.837 262.237 262.642 255.111 261.494C249.935 260.66 247.658 254.969 249.695 250.142C251.732 245.314 257.425 243.3 262.66 242.99C264.901 242.858 267.126 242.361 269.245 241.5C274.336 239.43 278.395 235.424 280.531 230.364C282.666 225.303 282.702 219.602 280.63 214.515C279.768 212.398 278.571 210.46 277.101 208.764C273.669 204.803 271.137 199.324 273.174 194.497Z" fill="#DFF0D8"/>
<path d="M234.224 233.133C238.058 233.992 248.57 232.825 249.982 230.977C251.393 229.129 248.154 227.043 246.312 223.077C244.22 218.575 243.086 213.279 238.979 211.154C233.792 208.47 227.744 213.597 226.428 215.714C224.154 219.373 223.8 223.533 225.876 227.093C228.321 231.285 231.063 232.424 234.224 233.133Z" fill="#DFF0D8"/>
<path d="M287.833 121.471C282.741 120.799 279.056 116.058 280.916 111.274C283.475 104.688 287.806 98.8665 293.509 94.497C301.696 88.2247 312.042 85.4592 322.27 86.8087C332.497 88.1582 341.77 93.5123 348.047 101.693C352.42 107.392 355.09 114.138 355.85 121.161C356.403 126.263 351.614 129.887 346.522 129.215C341.43 128.543 338.051 123.691 336.402 118.831C335.696 116.75 334.65 114.778 333.287 113.001C330.011 108.732 325.172 105.938 319.835 105.234C314.497 104.529 309.098 105.973 304.826 109.246C303.048 110.608 301.525 112.241 300.303 114.067C297.448 118.334 292.925 122.143 287.833 121.471Z" fill="#DFF0D8"/>
<path d="M329.505 132.404C327.06 135.373 323.436 145.072 324.429 147.121C325.422 149.171 328.679 147.263 332.962 147.406C337.826 147.568 342.96 148.917 346.634 146.269C351.274 142.923 349.461 135.375 348.19 133.29C345.993 129.686 342.51 127.539 338.478 127.78C333.731 128.064 331.522 129.956 329.505 132.404Z" fill="#DFF0D8"/>
<path d="M325.163 201.572C320.054 201.05 316.231 196.419 317.949 191.583C320.314 184.925 324.471 178.978 330.044 174.443C338.043 167.933 348.302 164.865 358.566 165.914C368.829 166.962 378.255 172.042 384.77 180.035C389.308 185.603 392.175 192.267 393.142 199.265C393.845 204.349 389.164 208.111 384.054 207.589C378.945 207.067 375.425 202.317 373.634 197.507C372.867 195.447 371.763 193.507 370.348 191.771C366.948 187.6 362.029 184.949 356.674 184.402C351.318 183.855 345.964 185.456 341.789 188.853C340.052 190.267 338.578 191.944 337.41 193.806C334.682 198.154 330.272 202.094 325.163 201.572Z" fill="#DFF0D8"/>
<path d="M336.291 44.0338C331.316 42.7598 328.224 37.6133 330.641 33.085C333.968 26.8518 338.963 21.5876 345.147 17.9292C354.025 12.6777 364.626 11.165 374.62 13.7241C384.614 16.2832 393.181 22.7043 398.436 31.5749C402.098 37.7545 403.943 44.7702 403.86 51.8341C403.8 56.9658 398.612 59.9921 393.636 58.7181C388.661 57.4441 385.885 52.2241 384.829 47.2019C384.376 45.0515 383.573 42.9693 382.431 41.0427C379.689 36.4136 375.218 33.0627 370.003 31.7273C364.788 30.3918 359.255 31.1812 354.622 33.9217C352.694 35.0623 350.988 36.5019 349.556 38.1697C346.212 42.0651 341.266 45.3078 336.291 44.0338Z" fill="#DFF0D8"/>
<path d="M359.601 57.6542C355.771 58.0255 346.345 62.3235 345.597 64.4744C344.849 66.6253 348.502 67.5774 351.429 70.7047C354.753 74.2556 357.429 78.8376 361.902 79.5603C367.55 80.4731 371.609 73.8546 372.186 71.482C373.183 67.3823 372.24 63.4032 369.218 60.7244C365.66 57.5707 362.76 57.348 359.601 57.6542Z" fill="#DFF0D8"/>
<path d="M90.4214 192.73C94.324 189.393 100.316 189.822 102.636 194.401C105.829 200.704 107.27 207.813 106.712 214.973C105.912 225.251 101.058 234.789 93.2194 241.491C85.3804 248.193 75.1981 251.509 64.9125 250.709C57.7473 250.151 50.9408 247.629 45.203 243.501C41.0347 240.503 41.5374 234.521 45.44 231.185C49.3427 227.849 55.2129 228.579 59.9336 230.601C61.9548 231.466 64.1218 232.006 66.3557 232.18C71.7232 232.597 77.0368 230.867 81.1276 227.37C85.2184 223.872 87.7513 218.894 88.169 213.531C88.3429 211.299 88.1445 209.076 87.6012 206.947C86.3324 201.974 86.5188 196.066 90.4214 192.73Z" fill="#DFF0D8"/>
<path d="M320.324 68.4121C320.589 73.5374 316.593 78.0196 311.547 77.063C304.601 75.7461 298.084 72.5499 292.747 67.7407C285.085 60.8371 280.482 51.1751 279.95 40.8803C279.418 30.5854 283 20.501 289.909 12.8454C294.722 7.51231 300.875 3.66225 307.648 1.63736C312.569 0.166327 317.005 4.21343 317.27 9.33868C317.535 14.4639 313.375 18.6663 308.892 21.1704C306.972 22.2425 305.222 23.629 303.722 25.2916C300.116 29.2867 298.247 34.5492 298.524 39.9216C298.802 45.294 301.204 50.3362 305.202 53.9388C306.866 55.4381 308.75 56.637 310.77 57.5059C315.487 59.5351 320.059 63.2869 320.324 68.4121Z" fill="#DFF0D8"/>
<path d="M43.5154 210.195C47.3372 209.746 56.6731 205.256 57.377 203.09C58.0809 200.924 54.4093 200.047 51.4183 196.98C48.0222 193.498 45.2532 188.972 40.7671 188.341C35.1011 187.543 31.1781 194.243 30.6499 196.627C29.7371 200.746 30.7619 204.706 33.8379 207.322C37.4594 210.402 40.3638 210.566 43.5154 210.195Z" fill="#DFF0D8"/>
<path d="M5.24428 220.384C2.79871 223.353 -0.824845 233.052 0.168289 235.101C1.16142 237.151 4.41815 235.243 8.7014 235.386C13.5647 235.548 18.6993 236.897 22.3731 234.248C27.0132 230.903 25.1998 223.355 23.9288 221.27C21.7324 217.666 18.2493 215.519 14.2169 215.76C9.46953 216.044 7.26102 217.936 5.24428 220.384Z" fill="#DFF0D8"/>
<path d="M265.168 0.0406901C269.26 -0.367005 280.104 2.37083 281.376 4.5888C282.649 6.80677 279.043 8.63954 276.692 12.7221C274.022 17.3575 272.265 22.9944 267.749 24.7487C262.046 26.9644 256.29 20.5148 255.146 18.0153C253.169 13.6961 253.25 9.09571 255.803 5.48893C258.808 1.24262 261.792 0.376896 265.168 0.0406901Z" fill="#DFF0D8"/>
</svg>
