<svg width="725" height="742" viewBox="0 0 725 742" fill="none" xmlns="http://www.w3.org/2000/svg">
<g opacity="0.35">
<path d="M710.453 376.678C700.422 388.864 685.56 428.676 689.634 437.088C693.707 445.501 707.065 437.67 724.632 438.257C744.579 438.922 765.639 444.461 780.708 433.588C799.739 419.856 792.301 388.872 787.088 380.313C778.08 365.522 763.794 356.71 747.255 357.699C727.783 358.863 718.725 366.629 710.453 376.678Z" fill="#DFF0D8"/>
<path d="M652.245 510.147C672.098 517.194 682.824 539.376 671.276 556.994C655.38 581.246 633.03 600.921 606.415 613.591C568.209 631.779 524.343 634.045 484.466 619.89C444.59 605.735 411.97 576.319 393.782 538.114C381.111 511.498 376.168 482.136 379.12 453.289C381.265 432.332 403.576 421.878 423.429 428.925V428.925C443.281 435.972 452.688 458.337 455.147 479.259C456.2 488.216 458.711 497.026 462.661 505.323C472.153 525.261 489.176 540.612 509.985 547.998C530.795 555.385 553.687 554.203 573.624 544.711C581.922 540.761 589.425 535.507 595.89 529.218C610.991 514.529 632.393 503.1 652.245 510.147V510.147Z" fill="#DFF0D8"/>
<path d="M921.743 384.862C940.794 393.854 964.037 385.677 968.261 365.039C974.076 336.631 972.086 306.922 962.134 279.175C947.848 239.345 918.325 206.822 880.059 188.76C841.794 170.698 797.921 168.577 758.091 182.863C730.344 192.815 706.143 210.162 687.907 232.707C674.659 249.086 683.12 272.227 702.17 281.219V281.219C721.22 290.211 743.656 280.975 760.146 267.865C767.207 262.253 775.196 257.773 783.847 254.67C804.632 247.215 827.527 248.322 847.496 257.748C867.465 267.173 882.872 284.146 890.327 304.931C893.43 313.581 895.049 322.597 895.204 331.615C895.564 352.678 902.693 375.87 921.743 384.862V384.862Z" fill="#DFF0D8"/>
<path d="M127.968 718.021C111.328 730.94 86.8633 728.011 78.2535 708.785C66.4019 682.32 61.8857 652.889 65.5682 623.642C70.8543 581.66 92.6014 543.496 126.025 517.548C159.45 491.6 201.813 479.992 243.795 485.278C273.042 488.96 300.435 500.631 323.136 518.673C339.628 531.78 336.4 556.207 319.76 569.126V569.126C303.12 582.044 279.213 577.905 260.267 568.694C252.156 564.75 243.383 562.115 234.265 560.966C212.356 558.208 190.249 564.266 172.807 577.807C155.364 591.348 144.016 611.264 141.257 633.172C140.109 642.29 140.488 651.442 142.298 660.279C146.525 680.916 144.608 705.103 127.968 718.021V718.021Z" fill="#DFF0D8"/>
<path d="M557.354 326.008C572.935 328.53 610.392 348.6 612.892 357.607C615.391 366.613 600.19 369.559 587.389 381.604C572.854 395.281 560.702 413.352 542.207 415.143C518.848 417.406 503.964 389.233 502.223 379.363C499.215 362.309 504.119 346.255 517.188 336.072C532.575 324.083 544.506 323.928 557.354 326.008Z" fill="#DFF0D8"/>
<path d="M408.086 353.935C392.383 367.978 367.774 366.755 357.85 348.173C344.19 322.595 337.641 293.548 339.284 264.117C341.642 221.868 360.687 182.287 392.229 154.081C423.771 125.874 465.225 111.353 507.474 113.711C536.905 115.354 565.043 125.095 588.942 141.517C606.304 153.448 604.78 178.04 589.077 192.082V192.082C573.374 206.125 549.237 203.656 529.698 195.783C521.332 192.412 512.398 190.391 503.222 189.879C481.175 188.648 459.541 196.226 443.081 210.946C426.621 225.666 416.683 246.321 415.452 268.369C414.94 277.544 415.953 286.648 418.372 295.337C424.022 315.631 423.789 339.893 408.086 353.935V353.935Z" fill="#DFF0D8"/>
<path d="M341.043 652.608C331.651 665.292 318.849 705.814 323.348 714.007C327.847 722.199 340.786 713.694 358.361 713.379C378.316 713.021 399.632 717.473 414.123 705.842C432.425 691.152 423.409 660.591 417.764 652.31C408.009 638.001 393.29 629.932 376.824 631.767C357.437 633.928 348.789 642.148 341.043 652.608Z" fill="#DFF0D8"/>
<path d="M622.878 25.6823C608.496 32.1839 577.576 61.3354 577.514 70.6821C577.453 80.0288 592.895 78.9041 608.397 87.1906C625.998 96.5992 642.446 110.871 660.767 107.773C683.907 103.86 690.921 72.7784 690.025 62.7967C688.477 45.548 679.553 31.331 664.279 24.9122C646.296 17.3552 634.738 20.3207 622.878 25.6823Z" fill="#DFF0D8"/>
<path d="M276.302 359.648C290.126 367.265 318.646 398.768 317.97 408.091C317.293 417.413 301.987 415.072 285.879 422.108C267.59 430.097 250.067 443.025 232.047 438.489C209.289 432.76 204.752 401.222 206.433 391.342C209.339 374.269 219.358 360.802 235.092 355.61C253.616 349.497 264.903 353.366 276.302 359.648Z" fill="#DFF0D8"/>
</g>
</svg>
