<svg width="700" height="760" viewBox="0 0 700 760" fill="none" xmlns="http://www.w3.org/2000/svg">
<g opacity="0.35">
<path d="M11.8858 377.332C21.9164 365.146 36.7786 325.334 32.7052 316.922C28.6318 308.509 15.2742 316.34 -2.29373 315.754C-22.2406 315.088 -43.3006 309.549 -58.3688 320.422C-77.4002 334.155 -69.9625 365.138 -64.7494 373.697C-55.7411 388.488 -41.455 397.3 -24.9159 396.311C-5.44427 395.147 3.61404 387.381 11.8858 377.332Z" fill="#DFF0D8"/>
<path d="M47.0946 249.265C27.2423 242.218 16.5157 220.036 28.0639 202.418C43.9601 178.166 66.3099 158.491 92.9254 145.821C131.131 127.633 174.997 125.367 214.874 139.522C254.75 153.677 287.37 183.093 305.558 221.298C318.229 247.914 323.172 277.276 320.22 306.123C318.075 327.08 295.764 337.534 275.911 330.487V330.487C256.059 323.44 246.652 301.075 244.193 280.153C243.14 271.196 240.629 262.386 236.679 254.089C227.187 234.151 210.164 218.8 189.355 211.414C168.545 204.027 145.653 205.209 125.716 214.701C117.418 218.651 109.915 223.905 103.45 230.194C88.3496 244.883 66.9469 256.312 47.0946 249.265V249.265Z" fill="#DFF0D8"/>
<path d="M-171.404 368.282C-190.454 359.29 -213.697 367.466 -217.921 388.104C-223.736 416.513 -221.747 446.222 -211.795 473.969C-197.509 513.798 -167.985 546.321 -129.72 564.383C-91.4543 582.445 -47.5809 584.567 -7.75135 570.281C19.9953 560.329 44.1962 542.982 62.4324 520.436C75.6804 504.058 67.22 480.916 48.1697 471.924V471.924C29.1194 462.932 6.68344 472.169 -9.80661 485.278C-16.8669 490.891 -24.8568 495.371 -33.5071 498.474C-54.2922 505.929 -77.1876 504.822 -97.1566 495.396C-117.126 485.97 -132.532 468.998 -139.987 448.213C-143.09 439.563 -144.71 430.547 -144.864 421.529C-145.224 400.466 -152.353 377.274 -171.404 368.282V368.282Z" fill="#DFF0D8"/>
<path d="M571.372 9.39061C588.012 -3.52769 612.477 -0.599267 621.086 18.6269C632.938 45.092 637.454 74.5232 633.772 103.77C628.486 145.752 606.738 183.916 573.314 209.864C539.89 235.812 497.527 247.42 455.545 242.134C426.298 238.452 398.905 226.781 376.204 208.739C359.712 195.632 362.94 171.205 379.58 158.286V158.286C396.22 145.368 420.127 149.507 439.073 158.718C447.184 162.662 455.957 165.297 465.075 166.446C486.983 169.204 509.091 163.146 526.533 149.605C543.975 136.064 555.324 116.148 558.083 94.2397C559.231 85.1218 558.852 75.9695 557.042 67.1334C552.815 46.496 554.732 22.3089 571.372 9.39061V9.39061Z" fill="#DFF0D8"/>
<path d="M141.986 433.404C126.405 430.882 88.9475 410.812 86.448 401.805C83.9486 392.799 99.1497 389.854 111.951 377.808C126.486 364.131 138.637 346.06 157.132 344.269C180.492 342.006 195.376 370.179 197.116 380.049C200.124 397.104 195.221 413.157 182.152 423.34C166.764 435.33 154.834 435.484 141.986 433.404Z" fill="#DFF0D8"/>
<path d="M291.254 405.477C306.957 391.434 331.566 392.657 341.49 411.239C355.15 436.817 361.699 465.864 360.056 495.295C357.698 537.544 338.653 577.125 307.111 605.331C275.57 633.538 234.115 648.059 191.866 645.701C162.435 644.058 134.298 634.317 110.398 617.895C93.0364 605.964 94.5602 581.372 110.263 567.33V567.33C125.966 553.287 150.103 555.756 169.642 563.629C178.008 567 186.943 569.021 196.118 569.533C218.166 570.764 239.799 563.186 256.259 548.466C272.719 533.747 282.658 513.091 283.888 491.044C284.401 481.868 283.387 472.764 280.968 464.075C275.318 443.781 275.551 419.519 291.254 405.477V405.477Z" fill="#DFF0D8"/>
<path d="M358.297 106.804C367.69 94.1196 380.492 53.5983 375.992 45.4055C371.493 37.2127 358.554 45.7181 340.98 46.0331C321.025 46.3908 299.709 41.9389 285.218 53.5698C266.915 68.2599 275.931 98.821 281.576 107.102C291.331 121.411 306.05 129.48 322.517 127.645C341.903 125.484 350.551 117.264 358.297 106.804Z" fill="#DFF0D8"/>
<path d="M76.4615 733.73C90.8435 727.228 121.764 698.077 121.825 688.73C121.887 679.383 106.444 680.508 90.9424 672.222C73.3414 662.813 56.8943 648.541 38.573 651.639C15.4329 655.552 8.41888 686.634 9.31472 696.615C10.8627 713.864 19.7865 728.081 35.0612 734.5C53.0443 742.057 64.6014 739.091 76.4615 733.73Z" fill="#DFF0D8"/>
</g>
</svg>
