<svg width="559" height="959" viewBox="0 0 559 959" fill="none" xmlns="http://www.w3.org/2000/svg">
<g opacity="0.75">
<path d="M572.452 450.284C573.106 460.392 583.624 485.552 589.223 487.702C594.823 489.852 597.638 480.323 606.12 472.886C615.749 464.442 628.039 457.791 630.32 446.087C633.201 431.305 616.12 420.066 609.922 418.347C599.213 415.378 588.657 417.523 581.349 425.246C572.745 434.338 571.914 441.949 572.452 450.284Z" fill="#DFF0D8"/>
<path d="M566.598 518.364C579.338 522.886 586.221 537.12 578.81 548.426C568.609 563.99 554.267 576.615 537.187 584.746C512.67 596.417 484.52 597.871 458.931 588.788C433.341 579.704 412.408 560.828 400.737 536.31C392.606 519.231 389.433 500.388 391.328 481.876C392.704 468.428 407.022 461.719 419.762 466.242C432.501 470.764 438.538 485.116 440.116 498.542C440.792 504.29 442.403 509.943 444.938 515.268C451.029 528.063 461.953 537.913 475.307 542.654C488.661 547.394 503.351 546.635 516.145 540.544C521.47 538.009 526.285 534.637 530.434 530.602C540.124 521.176 553.858 513.841 566.598 518.364Z" fill="#DFF0D8"/>
<path d="M230.155 651.758C219.476 660.048 203.777 658.169 198.252 645.831C190.646 628.848 187.748 609.961 190.111 591.193C193.504 564.252 207.459 539.762 228.908 523.11C250.357 506.459 277.542 499.01 304.483 502.402C323.251 504.765 340.83 512.255 355.398 523.833C365.981 532.244 363.91 547.919 353.232 556.209C342.553 564.499 327.212 561.843 315.054 555.932C309.848 553.401 304.219 551.71 298.368 550.973C284.308 549.203 270.122 553.09 258.929 561.78C247.735 570.469 240.453 583.25 238.682 597.309C237.946 603.16 238.189 609.033 239.35 614.704C242.063 627.947 240.833 643.468 230.155 651.758Z" fill="#DFF0D8"/>
<path d="M505.702 400.199C515.701 401.818 539.738 414.697 541.342 420.477C542.946 426.256 533.191 428.146 524.976 435.876C515.649 444.653 507.851 456.249 495.982 457.399C480.992 458.851 471.441 440.772 470.324 434.438C468.394 423.494 471.54 413.192 479.927 406.657C489.801 398.964 497.457 398.865 505.702 400.199Z" fill="#DFF0D8"/>
</g>
<g opacity="0.75">
<path d="M572.452 450.275C573.106 460.383 583.624 485.543 589.223 487.693C594.823 489.843 597.638 480.314 606.12 472.877C615.749 464.433 628.039 457.782 630.32 446.078C633.201 431.296 616.12 420.057 609.922 418.339C599.213 415.369 588.657 417.514 581.349 425.237C572.745 434.329 571.914 441.94 572.452 450.275Z" fill="#DFF0D8"/>
<path d="M409.914 418.126C399.837 427.137 384.045 426.352 377.677 414.428C368.91 398.014 364.708 379.374 365.762 360.487C367.276 333.375 379.497 307.975 399.738 289.875C419.979 271.774 446.581 262.455 473.693 263.969C492.58 265.023 510.636 271.274 525.973 281.813C537.114 289.468 536.136 305.25 526.06 314.261C515.983 323.272 500.494 321.688 487.955 316.636C482.586 314.472 476.853 313.176 470.965 312.847C456.816 312.057 442.934 316.92 432.371 326.366C421.808 335.812 415.43 349.067 414.641 363.216C414.312 369.104 414.962 374.946 416.515 380.522C420.14 393.545 419.991 409.114 409.914 418.126Z" fill="#DFF0D8"/>
<path d="M366.892 609.792C360.865 617.932 352.65 643.935 355.537 649.192C358.424 654.45 366.727 648.992 378.005 648.79C390.811 648.56 404.49 651.417 413.789 643.953C425.534 634.526 419.748 614.915 416.126 609.601C409.866 600.418 400.42 595.24 389.853 596.418C377.413 597.805 371.863 603.08 366.892 609.792Z" fill="#DFF0D8"/>
<path d="M516.215 193.421C508.263 199.694 493.512 222.63 494.919 228.461C496.325 234.292 505.77 231.204 516.706 233.968C529.123 237.107 541.573 243.453 552.504 238.691C566.312 232.676 565.875 212.234 563.774 206.155C560.143 195.652 552.387 188.177 541.881 186.541C529.513 184.614 522.773 188.248 516.215 193.421Z" fill="#DFF0D8"/>
<path d="M325.348 421.792C334.218 426.68 352.521 446.897 352.086 452.879C351.652 458.861 341.83 457.359 331.493 461.874C319.757 467.001 308.512 475.297 296.948 472.386C282.344 468.71 279.432 448.471 280.511 442.131C282.376 431.175 288.805 422.533 298.902 419.201C310.789 415.278 318.032 417.761 325.348 421.792Z" fill="#DFF0D8"/>
</g>
</svg>
