<svg width="462" height="709" viewBox="0 0 462 709" fill="none" xmlns="http://www.w3.org/2000/svg">
<g opacity="0.75">
<path d="M-110.153 155.064C-122.892 150.542 -129.776 136.307 -122.365 125.001C-112.164 109.438 -97.8218 96.8124 -80.7421 88.6816C-56.2246 77.01 -28.0748 75.556 -2.48534 84.6394C23.1042 93.7229 44.0372 112.6 55.7088 137.117C63.8396 154.197 67.0118 173.039 65.1173 191.551C63.741 204.999 49.4234 211.708 36.6838 207.186C23.9441 202.664 17.9075 188.312 16.3292 174.886C15.6534 169.137 14.0421 163.484 11.5072 158.159C5.41641 145.365 -5.50754 135.514 -18.8615 130.774C-32.2154 126.034 -46.9054 126.792 -59.6999 132.883C-65.0247 135.418 -69.8396 138.79 -73.9885 142.826C-83.6785 152.252 -97.413 159.586 -110.153 155.064Z" fill="#DFF0D8"/>
<path d="M232.644 94.9464C243.322 86.6565 259.022 88.5357 264.547 100.874C272.152 117.857 275.051 136.743 272.687 155.511C269.295 182.453 255.34 206.943 233.891 223.594C212.442 240.246 185.257 247.695 158.315 244.303C139.547 241.94 121.969 234.45 107.401 222.872C96.8179 214.461 98.889 198.786 109.567 190.496C120.246 182.206 135.587 184.862 147.745 190.773C152.95 193.304 158.58 194.995 164.431 195.732C178.49 197.502 192.677 193.615 203.87 184.925C215.063 176.235 222.346 163.455 224.116 149.396C224.853 143.545 224.61 137.671 223.448 132.001C220.736 118.758 221.966 103.236 232.644 94.9464Z" fill="#DFF0D8"/>
</g>
<g opacity="0.75">
<path d="M-21.9967 262.53C-33.8875 256.099 -49.0678 260.521 -52.4998 273.597C-57.2239 291.596 -56.9928 310.702 -51.5907 328.831C-43.8361 354.854 -26.0616 376.73 -2.1772 389.648C21.7072 402.566 49.7448 405.466 75.7679 397.712C93.8964 392.31 110.013 382.045 122.49 368.239C131.554 358.21 126.946 343.085 115.055 336.654C103.165 330.223 88.4641 335.353 77.4374 343.174C72.7162 346.522 67.4392 349.112 61.7875 350.796C48.2073 354.843 33.5758 353.329 21.1117 346.588C8.64761 339.847 -0.628088 328.43 -4.67483 314.85C-6.35896 309.198 -7.08005 303.365 -6.86203 297.581C-6.35286 284.072 -10.106 268.961 -21.9967 262.53Z" fill="#DFF0D8"/>
<path d="M99.9046 114.096C105.932 105.956 114.147 79.9525 111.26 74.6951C108.373 69.4376 100.07 74.8956 88.7917 75.0978C75.9863 75.3273 62.3072 72.4704 53.008 79.9343C41.263 89.3612 47.0489 108.973 50.6714 114.287C56.9311 123.47 66.3766 128.647 76.9436 127.47C89.3842 126.083 94.934 120.808 99.9046 114.096Z" fill="#DFF0D8"/>
<path d="M165.213 334.704C156.342 329.816 138.04 309.6 138.474 303.617C138.908 297.635 148.73 299.137 159.067 294.622C170.804 289.496 182.049 281.199 193.612 284.11C208.217 287.786 211.128 308.025 210.049 314.365C208.185 325.321 201.755 333.964 191.658 337.295C179.771 341.218 172.528 338.735 165.213 334.704Z" fill="#DFF0D8"/>
<path d="M43.7097 232.468C53.7909 233.446 78.6 244.768 80.569 250.433C82.538 256.099 72.9234 258.607 65.2177 266.845C56.4686 276.198 49.4256 288.267 37.6545 290.171C22.7874 292.576 12.1033 275.142 10.5849 268.892C7.96108 258.093 10.4447 247.612 18.3983 240.556C27.7622 232.248 35.3963 231.662 43.7097 232.468Z" fill="#DFF0D8"/>
<path d="M26.8295 437.229C33.2663 445.049 42.8037 470.597 40.1897 475.996C37.5757 481.394 29.0039 476.369 17.7302 476.745C4.92989 477.172 -8.58472 480.727 -18.2543 473.749C-30.4671 464.937 -25.6942 445.054 -22.3489 439.562C-16.568 430.07 -7.40037 424.415 3.21307 425.05C15.7084 425.797 21.5213 430.78 26.8295 437.229Z" fill="#DFF0D8"/>
</g>
</svg>
